<svg width="4075" height="2391" viewBox="0 0 4075 2391" fill="none" xmlns="http://www.w3.org/2000/svg">
<circle cx="1446.5" cy="207.5" r="44" stroke="#767382" stroke-width="9"/>
<circle cx="1905.5" cy="207.5" r="44" stroke="#767382" stroke-width="9"/>
<circle cx="2363.5" cy="207.5" r="44" stroke="#767382" stroke-width="9"/>
<circle cx="2822.5" cy="207.5" r="44" stroke="#767382" stroke-width="9"/>
<circle cx="3280.5" cy="207.5" r="44" stroke="#767382" stroke-width="9"/>
<circle cx="1676.5" cy="206.5" r="44" stroke="#767382" stroke-width="9"/>
<circle cx="2134.5" cy="206.5" r="44" stroke="#767382" stroke-width="9"/>
<path d="M2636.5 206.5C2636.5 230.845 2616.98 250.5 2593 250.5C2569.02 250.5 2549.5 230.845 2549.5 206.5C2549.5 182.155 2569.02 162.5 2593 162.5C2616.98 162.5 2636.5 182.155 2636.5 206.5Z" stroke="#767382" stroke-width="9"/>
<circle cx="3051.5" cy="206.5" r="44" stroke="#767382" stroke-width="9"/>
<circle cx="3509.5" cy="206.5" r="44" stroke="#767382" stroke-width="9"/>
<circle cx="1446.5" cy="320.5" r="44" stroke="#767382" stroke-width="9"/>
<circle cx="1446.5" cy="546.5" r="44" stroke="#767382" stroke-width="9"/>
<circle cx="1905.5" cy="320.5" r="44" stroke="#767382" stroke-width="9"/>
<circle cx="1905.5" cy="546.5" r="44" stroke="#767382" stroke-width="9"/>
<circle cx="2363.5" cy="320.5" r="44" stroke="#767382" stroke-width="9"/>
<circle cx="2363.5" cy="546.5" r="44" stroke="#767382" stroke-width="9"/>
<circle cx="2822.5" cy="320.5" r="44" stroke="#767382" stroke-width="9"/>
<circle cx="2822.5" cy="546.5" r="44" stroke="#767382" stroke-width="9"/>
<circle cx="3280.5" cy="320.5" r="44" stroke="#767382" stroke-width="9"/>
<circle cx="3280.5" cy="546.5" r="44" stroke="#767382" stroke-width="9"/>
<circle cx="1676.5" cy="319.5" r="44" stroke="#767382" stroke-width="9"/>
<circle cx="1676.5" cy="545.5" r="44" stroke="#767382" stroke-width="9"/>
<circle cx="2134.5" cy="319.5" r="44" stroke="#767382" stroke-width="9"/>
<circle cx="2134.5" cy="545.5" r="44" stroke="#767382" stroke-width="9"/>
<path d="M2636.5 319.5C2636.5 343.845 2616.98 363.5 2593 363.5C2569.02 363.5 2549.5 343.845 2549.5 319.5C2549.5 295.155 2569.02 275.5 2593 275.5C2616.98 275.5 2636.5 295.155 2636.5 319.5Z" stroke="#767382" stroke-width="9"/>
<path d="M2636.5 545.5C2636.5 569.845 2616.98 589.5 2593 589.5C2569.02 589.5 2549.5 569.845 2549.5 545.5C2549.5 521.155 2569.02 501.5 2593 501.5C2616.98 501.5 2636.5 521.155 2636.5 545.5Z" stroke="#767382" stroke-width="9"/>
<circle cx="3051.5" cy="319.5" r="44" stroke="#767382" stroke-width="9"/>
<circle cx="3051.5" cy="545.5" r="44" stroke="#767382" stroke-width="9"/>
<circle cx="3509.5" cy="319.5" r="44" stroke="#767382" stroke-width="9"/>
<circle cx="3509.5" cy="545.5" r="44" stroke="#767382" stroke-width="9"/>
<circle cx="1561.5" cy="320.5" r="44" stroke="#767382" stroke-width="9"/>
<circle cx="1561.5" cy="546.5" r="44" stroke="#767382" stroke-width="9"/>
<circle cx="2019.5" cy="320.5" r="44" stroke="#767382" stroke-width="9"/>
<circle cx="2019.5" cy="546.5" r="44" stroke="#767382" stroke-width="9"/>
<circle cx="2478.5" cy="320.5" r="44" stroke="#767382" stroke-width="9"/>
<circle cx="2478.5" cy="546.5" r="44" stroke="#767382" stroke-width="9"/>
<circle cx="2936.5" cy="320.5" r="44" stroke="#767382" stroke-width="9"/>
<circle cx="2936.5" cy="546.5" r="44" stroke="#767382" stroke-width="9"/>
<circle cx="3395.5" cy="320.5" r="44" stroke="#767382" stroke-width="9"/>
<circle cx="3395.5" cy="546.5" r="44" stroke="#767382" stroke-width="9"/>
<circle cx="1790.5" cy="319.5" r="44" stroke="#767382" stroke-width="9"/>
<circle cx="1790.5" cy="545.5" r="44" stroke="#767382" stroke-width="9"/>
<circle cx="2249.5" cy="319.5" r="44" stroke="#767382" stroke-width="9"/>
<circle cx="2249.5" cy="545.5" r="44" stroke="#767382" stroke-width="9"/>
<circle cx="2707.5" cy="319.5" r="44" stroke="#767382" stroke-width="9"/>
<circle cx="2707.5" cy="545.5" r="44" stroke="#767382" stroke-width="9"/>
<circle cx="3166.5" cy="319.5" r="44" stroke="#767382" stroke-width="9"/>
<circle cx="3166.5" cy="545.5" r="44" stroke="#767382" stroke-width="9"/>
<circle cx="3624.5" cy="319.5" r="44" stroke="#767382" stroke-width="9"/>
<circle cx="3624.5" cy="545.5" r="44" stroke="#767382" stroke-width="9"/>
<circle cx="3739.5" cy="319.5" r="44" stroke="#767382" stroke-width="9"/>
<circle cx="3739.5" cy="545.5" r="44" stroke="#767382" stroke-width="9"/>
<circle cx="1446.5" cy="433.5" r="44" stroke="#767382" stroke-width="9"/>
<circle cx="1446.5" cy="659.5" r="44" stroke="#767382" stroke-width="9"/>
<circle cx="1905.5" cy="433.5" r="44" stroke="#767382" stroke-width="9"/>
<circle cx="1905.5" cy="659.5" r="44" stroke="#767382" stroke-width="9"/>
<circle cx="2363.5" cy="433.5" r="44" stroke="#767382" stroke-width="9"/>
<circle cx="2363.5" cy="659.5" r="44" stroke="#767382" stroke-width="9"/>
<circle cx="2822.5" cy="433.5" r="44" stroke="#767382" stroke-width="9"/>
<circle cx="2822.5" cy="659.5" r="44" stroke="#767382" stroke-width="9"/>
<circle cx="3280.5" cy="433.5" r="44" stroke="#767382" stroke-width="9"/>
<circle cx="3280.5" cy="659.5" r="44" stroke="#767382" stroke-width="9"/>
<circle cx="1676.5" cy="432.5" r="44" stroke="#767382" stroke-width="9"/>
<circle cx="1676.5" cy="658.5" r="44" stroke="#767382" stroke-width="9"/>
<circle cx="2134.5" cy="432.5" r="44" stroke="#767382" stroke-width="9"/>
<circle cx="2134.5" cy="658.5" r="44" stroke="#767382" stroke-width="9"/>
<path d="M2636.5 432.5C2636.5 456.845 2616.98 476.5 2593 476.5C2569.02 476.5 2549.5 456.845 2549.5 432.5C2549.5 408.155 2569.02 388.5 2593 388.5C2616.98 388.5 2636.5 408.155 2636.5 432.5Z" stroke="#767382" stroke-width="9"/>
<path d="M2636.5 658.5C2636.5 682.845 2616.98 702.5 2593 702.5C2569.02 702.5 2549.5 682.845 2549.5 658.5C2549.5 634.155 2569.02 614.5 2593 614.5C2616.98 614.5 2636.5 634.155 2636.5 658.5Z" stroke="#767382" stroke-width="9"/>
<circle cx="3051.5" cy="432.5" r="44" stroke="#767382" stroke-width="9"/>
<circle cx="3051.5" cy="658.5" r="44" stroke="#767382" stroke-width="9"/>
<circle cx="3509.5" cy="432.5" r="44" stroke="#767382" stroke-width="9"/>
<circle cx="3509.5" cy="658.5" r="44" stroke="#767382" stroke-width="9"/>
<circle cx="1561.5" cy="433.5" r="44" stroke="#767382" stroke-width="9"/>
<circle cx="1561.5" cy="659.5" r="44" stroke="#767382" stroke-width="9"/>
<circle cx="2019.5" cy="433.5" r="44" stroke="#767382" stroke-width="9"/>
<circle cx="2019.5" cy="659.5" r="44" stroke="#767382" stroke-width="9"/>
<circle cx="2478.5" cy="433.5" r="44" stroke="#767382" stroke-width="9"/>
<circle cx="2478.5" cy="659.5" r="44" stroke="#767382" stroke-width="9"/>
<circle cx="2936.5" cy="433.5" r="44" stroke="#767382" stroke-width="9"/>
<circle cx="2936.5" cy="659.5" r="44" stroke="#767382" stroke-width="9"/>
<circle cx="3395.5" cy="433.5" r="44" stroke="#767382" stroke-width="9"/>
<circle cx="3395.5" cy="659.5" r="44" stroke="#767382" stroke-width="9"/>
<circle cx="1790.5" cy="432.5" r="44" stroke="#767382" stroke-width="9"/>
<circle cx="1790.5" cy="658.5" r="44" stroke="#767382" stroke-width="9"/>
<circle cx="2249.5" cy="432.5" r="44" stroke="#767382" stroke-width="9"/>
<circle cx="2249.5" cy="658.5" r="44" stroke="#767382" stroke-width="9"/>
<circle cx="2707.5" cy="432.5" r="44" stroke="#767382" stroke-width="9"/>
<circle cx="2707.5" cy="658.5" r="44" stroke="#767382" stroke-width="9"/>
<circle cx="3166.5" cy="432.5" r="44" stroke="#767382" stroke-width="9"/>
<circle cx="3166.5" cy="658.5" r="44" stroke="#767382" stroke-width="9"/>
<circle cx="3624.5" cy="432.5" r="44" stroke="#767382" stroke-width="9"/>
<circle cx="3624.5" cy="658.5" r="44" stroke="#767382" stroke-width="9"/>
<circle cx="3739.5" cy="432.5" r="44" stroke="#767382" stroke-width="9"/>
<circle cx="3739.5" cy="658.5" r="44" stroke="#767382" stroke-width="9"/>
<circle cx="1561.5" cy="207.5" r="44" stroke="#767382" stroke-width="9"/>
<circle cx="2019.5" cy="207.5" r="44" stroke="#767382" stroke-width="9"/>
<circle cx="2478.5" cy="207.5" r="44" stroke="#767382" stroke-width="9"/>
<circle cx="2936.5" cy="207.5" r="44" stroke="#767382" stroke-width="9"/>
<circle cx="3395.5" cy="207.5" r="44" stroke="#767382" stroke-width="9"/>
<circle cx="1790.5" cy="206.5" r="44" stroke="#767382" stroke-width="9"/>
<circle cx="2249.5" cy="206.5" r="44" stroke="#767382" stroke-width="9"/>
<circle cx="2707.5" cy="206.5" r="44" stroke="#767382" stroke-width="9"/>
<circle cx="3166.5" cy="206.5" r="44" stroke="#767382" stroke-width="9"/>
<circle cx="3624.5" cy="206.5" r="44" stroke="#767382" stroke-width="9"/>
<circle cx="3739.5" cy="206.5" r="44" stroke="#767382" stroke-width="9"/>
<path d="M271.844 142.545V152.485H241.61V208H229.753V142.545H271.844ZM276.263 226.409V158.909H287.641V167.027H288.312C288.909 165.834 289.75 164.566 290.837 163.224C291.923 161.86 293.394 160.699 295.247 159.74C297.101 158.76 299.466 158.27 302.343 158.27C306.135 158.27 309.555 159.239 312.602 161.178C315.67 163.096 318.099 165.94 319.889 169.712C321.7 173.462 322.605 178.064 322.605 183.518C322.605 188.909 321.721 193.49 319.953 197.261C318.184 201.033 315.776 203.909 312.73 205.891C309.683 207.872 306.231 208.863 302.374 208.863C299.562 208.863 297.229 208.394 295.375 207.457C293.521 206.519 292.03 205.39 290.901 204.069C289.793 202.727 288.93 201.459 288.312 200.266H287.833V226.409H276.263ZM287.609 183.455C287.609 186.629 288.056 189.41 288.951 191.796C289.867 194.183 291.178 196.047 292.882 197.389C294.608 198.71 296.696 199.371 299.146 199.371C301.703 199.371 303.845 198.689 305.57 197.325C307.296 195.94 308.596 194.055 309.47 191.668C310.365 189.261 310.812 186.523 310.812 183.455C310.812 180.408 310.375 177.702 309.502 175.337C308.628 172.972 307.328 171.118 305.602 169.776C303.877 168.433 301.725 167.762 299.146 167.762C296.675 167.762 294.576 168.412 292.85 169.712C291.124 171.011 289.814 172.833 288.919 175.177C288.046 177.521 287.609 180.28 287.609 183.455ZM346.639 208.991C343.529 208.991 340.727 208.437 338.234 207.329C335.762 206.2 333.802 204.538 332.353 202.343C330.926 200.148 330.212 197.442 330.212 194.225C330.212 191.455 330.723 189.165 331.746 187.354C332.769 185.543 334.164 184.094 335.933 183.007C337.701 181.92 339.693 181.1 341.909 180.546C344.146 179.971 346.458 179.555 348.845 179.3C351.721 179.001 354.054 178.735 355.844 178.501C357.634 178.245 358.933 177.862 359.743 177.35C360.574 176.817 360.99 175.997 360.99 174.889V174.697C360.99 172.29 360.276 170.425 358.848 169.104C357.421 167.783 355.365 167.123 352.68 167.123C349.846 167.123 347.598 167.741 345.936 168.977C344.296 170.212 343.188 171.672 342.612 173.355L331.81 171.821C332.662 168.838 334.068 166.345 336.029 164.342C337.989 162.318 340.386 160.805 343.22 159.804C346.053 158.781 349.186 158.27 352.616 158.27C354.981 158.27 357.335 158.547 359.679 159.101C362.023 159.655 364.164 160.571 366.103 161.849C368.042 163.107 369.597 164.822 370.769 166.995C371.963 169.168 372.559 171.885 372.559 175.145V208H361.437V201.256H361.053C360.35 202.62 359.36 203.898 358.081 205.092C356.824 206.263 355.237 207.212 353.319 207.936C351.423 208.639 349.196 208.991 346.639 208.991ZM349.644 200.489C351.966 200.489 353.98 200.031 355.684 199.115C357.389 198.178 358.699 196.942 359.615 195.408C360.553 193.874 361.021 192.201 361.021 190.39V184.605C360.659 184.903 360.041 185.18 359.168 185.436C358.316 185.692 357.357 185.915 356.291 186.107C355.226 186.299 354.171 186.469 353.127 186.619C352.083 186.768 351.178 186.896 350.411 187.002C348.685 187.237 347.14 187.62 345.776 188.153C344.413 188.685 343.337 189.431 342.548 190.39C341.76 191.327 341.366 192.542 341.366 194.033C341.366 196.164 342.144 197.773 343.699 198.859C345.254 199.946 347.236 200.489 349.644 200.489ZM406.469 224.683V142.545H418.07V224.683H406.469ZM406.469 208.959C402.868 208.959 399.576 208.352 396.593 207.137C393.61 205.923 391.032 204.197 388.859 201.96C386.707 199.722 385.034 197.059 383.841 193.969C382.669 190.859 382.083 187.418 382.083 183.646C382.083 179.875 382.669 176.434 383.841 173.323C385.034 170.212 386.707 167.538 388.859 165.301C391.032 163.043 393.61 161.306 396.593 160.092C399.576 158.877 402.868 158.27 406.469 158.27H408.93V208.959H406.469ZM406.469 199.626H407.907V167.602H406.469C404.423 167.602 402.612 168.028 401.036 168.881C399.48 169.712 398.17 170.873 397.105 172.364C396.061 173.835 395.262 175.539 394.708 177.478C394.175 179.396 393.909 181.452 393.909 183.646C393.909 186.565 394.388 189.239 395.347 191.668C396.306 194.076 397.712 196.004 399.566 197.453C401.441 198.902 403.742 199.626 406.469 199.626ZM418.07 208.959H415.61V158.27H418.07C421.671 158.27 424.963 158.877 427.946 160.092C430.929 161.306 433.497 163.043 435.649 165.301C437.822 167.538 439.494 170.212 440.666 173.323C441.86 176.434 442.456 179.875 442.456 183.646C442.456 187.418 441.86 190.859 440.666 193.969C439.494 197.059 437.822 199.722 435.649 201.96C433.497 204.197 430.929 205.923 427.946 207.137C424.963 208.352 421.671 208.959 418.07 208.959ZM418.07 199.626C420.137 199.626 421.948 199.211 423.504 198.38C425.059 197.549 426.359 196.398 427.403 194.928C428.468 193.458 429.267 191.764 429.8 189.847C430.333 187.908 430.599 185.841 430.599 183.646C430.599 180.727 430.13 178.053 429.193 175.624C428.255 173.195 426.849 171.256 424.974 169.808C423.12 168.337 420.819 167.602 418.07 167.602H416.632V199.626H418.07ZM508.262 178.661V188.153H482.119V178.661H508.262ZM485.698 158.909V208H474.544V158.909H485.698ZM515.837 158.909V208H504.715V158.909H515.837ZM549.275 208.959C544.353 208.959 540.103 207.936 536.523 205.891C532.965 203.824 530.227 200.905 528.309 197.134C526.392 193.341 525.433 188.877 525.433 183.742C525.433 178.692 526.392 174.261 528.309 170.447C530.248 166.612 532.954 163.629 536.427 161.498C539.9 159.346 543.98 158.27 548.668 158.27C551.694 158.27 554.549 158.76 557.233 159.74C559.939 160.699 562.326 162.19 564.392 164.214C566.48 166.239 568.121 168.817 569.314 171.949C570.507 175.06 571.104 178.767 571.104 183.071V186.619H530.866V178.82H560.014C559.993 176.604 559.513 174.634 558.576 172.908C557.638 171.161 556.328 169.786 554.645 168.785C552.983 167.783 551.044 167.283 548.828 167.283C546.463 167.283 544.385 167.858 542.596 169.009C540.806 170.138 539.41 171.629 538.409 173.483C537.429 175.315 536.928 177.329 536.907 179.523V186.331C536.907 189.186 537.429 191.636 538.473 193.682C539.517 195.706 540.976 197.261 542.851 198.348C544.726 199.413 546.921 199.946 549.435 199.946C551.118 199.946 552.642 199.712 554.005 199.243C555.369 198.753 556.551 198.039 557.553 197.102C558.554 196.164 559.311 195.003 559.822 193.618L570.625 194.832C569.943 197.687 568.643 200.18 566.726 202.311C564.829 204.42 562.4 206.061 559.439 207.233C556.477 208.384 553.089 208.959 549.275 208.959ZM592.046 192.339L611.702 158.909H623.591V208H612.405V174.538L592.813 208H580.892V158.909H592.046V192.339ZM608.537 142.034H617.199C617.199 145.763 615.846 148.788 613.14 151.111C610.455 153.412 606.812 154.562 602.209 154.562C597.65 154.562 594.017 153.412 591.311 151.111C588.626 148.788 587.295 145.763 587.316 142.034H595.913C595.913 143.568 596.382 144.942 597.319 146.157C598.278 147.35 599.908 147.947 602.209 147.947C604.468 147.947 606.077 147.35 607.035 146.157C608.015 144.964 608.516 143.589 608.537 142.034ZM635.472 226.409V158.909H646.85V167.027H647.521C648.118 165.834 648.959 164.566 650.046 163.224C651.132 161.86 652.603 160.699 654.456 159.74C656.31 158.76 658.675 158.27 661.551 158.27C665.344 158.27 668.764 159.239 671.811 161.178C674.879 163.096 677.308 165.94 679.098 169.712C680.909 173.462 681.814 178.064 681.814 183.518C681.814 188.909 680.93 193.49 679.162 197.261C677.393 201.033 674.985 203.909 671.939 205.891C668.892 207.872 665.44 208.863 661.583 208.863C658.771 208.863 656.438 208.394 654.584 207.457C652.73 206.519 651.239 205.39 650.11 204.069C649.002 202.727 648.139 201.459 647.521 200.266H647.042V226.409H635.472ZM646.818 183.455C646.818 186.629 647.265 189.41 648.16 191.796C649.076 194.183 650.387 196.047 652.091 197.389C653.817 198.71 655.905 199.371 658.355 199.371C660.912 199.371 663.054 198.689 664.779 197.325C666.505 195.94 667.805 194.055 668.679 191.668C669.574 189.261 670.021 186.523 670.021 183.455C670.021 180.408 669.584 177.702 668.711 175.337C667.837 172.972 666.537 171.118 664.811 169.776C663.086 168.433 660.934 167.762 658.355 167.762C655.884 167.762 653.785 168.412 652.059 169.712C650.333 171.011 649.023 172.833 648.128 175.177C647.255 177.521 646.818 180.28 646.818 183.455ZM713.135 208.959C708.341 208.959 704.186 207.904 700.671 205.795C697.155 203.685 694.428 200.734 692.489 196.942C690.571 193.149 689.613 188.717 689.613 183.646C689.613 178.575 690.571 174.133 692.489 170.319C694.428 166.505 697.155 163.543 700.671 161.434C704.186 159.325 708.341 158.27 713.135 158.27C717.929 158.27 722.084 159.325 725.6 161.434C729.115 163.543 731.832 166.505 733.75 170.319C735.689 174.133 736.658 178.575 736.658 183.646C736.658 188.717 735.689 193.149 733.75 196.942C731.832 200.734 729.115 203.685 725.6 205.795C722.084 207.904 717.929 208.959 713.135 208.959ZM713.199 199.69C715.799 199.69 717.972 198.977 719.719 197.549C721.466 196.1 722.766 194.161 723.618 191.732C724.492 189.303 724.929 186.597 724.929 183.614C724.929 180.61 724.492 177.893 723.618 175.464C722.766 173.014 721.466 171.065 719.719 169.616C717.972 168.167 715.799 167.442 713.199 167.442C710.536 167.442 708.32 168.167 706.551 169.616C704.804 171.065 703.494 173.014 702.62 175.464C701.768 177.893 701.342 180.61 701.342 183.614C701.342 186.597 701.768 189.303 702.62 191.732C703.494 194.161 704.804 196.1 706.551 197.549C708.32 198.977 710.536 199.69 713.199 199.69ZM780.196 178.661V188.153H754.052V178.661H780.196ZM757.632 158.909V208H746.478V158.909H757.632ZM787.77 158.909V208H776.648V158.909H787.77ZM820.889 208.959C816.095 208.959 811.94 207.904 808.425 205.795C804.909 203.685 802.182 200.734 800.243 196.942C798.325 193.149 797.366 188.717 797.366 183.646C797.366 178.575 798.325 174.133 800.243 170.319C802.182 166.505 804.909 163.543 808.425 161.434C811.94 159.325 816.095 158.27 820.889 158.27C825.683 158.27 829.838 159.325 833.354 161.434C836.869 163.543 839.586 166.505 841.504 170.319C843.442 174.133 844.412 178.575 844.412 183.646C844.412 188.717 843.442 193.149 841.504 196.942C839.586 200.734 836.869 203.685 833.354 205.795C829.838 207.904 825.683 208.959 820.889 208.959ZM820.953 199.69C823.553 199.69 825.726 198.977 827.473 197.549C829.22 196.1 830.52 194.161 831.372 191.732C832.246 189.303 832.683 186.597 832.683 183.614C832.683 180.61 832.246 177.893 831.372 175.464C830.52 173.014 829.22 171.065 827.473 169.616C825.726 168.167 823.553 167.442 820.953 167.442C818.29 167.442 816.074 168.167 814.305 169.616C812.558 171.065 811.248 173.014 810.374 175.464C809.522 177.893 809.096 180.61 809.096 183.614C809.096 186.597 809.522 189.303 810.374 191.732C811.248 194.161 812.558 196.1 814.305 197.549C816.074 198.977 818.29 199.69 820.953 199.69ZM854.232 208V158.909H874.846C880.663 158.909 885.254 160.07 888.621 162.393C892.009 164.715 893.703 167.954 893.703 172.109C893.703 174.857 892.744 177.105 890.826 178.852C888.93 180.578 886.341 181.739 883.06 182.336C885.638 182.549 887.896 183.199 889.835 184.286C891.796 185.372 893.33 186.8 894.438 188.568C895.546 190.337 896.1 192.371 896.1 194.673C896.1 197.379 895.386 199.733 893.958 201.736C892.552 203.717 890.496 205.262 887.79 206.37C885.105 207.457 881.845 208 878.01 208H854.232ZM865.066 198.891H878.01C880.141 198.891 881.813 198.391 883.028 197.389C884.242 196.366 884.85 194.982 884.85 193.234C884.85 191.21 884.242 189.623 883.028 188.472C881.813 187.3 880.141 186.714 878.01 186.714H865.066V198.891ZM865.066 179.236H875.07C876.646 179.236 877.999 179.012 879.129 178.565C880.258 178.096 881.121 177.446 881.718 176.615C882.314 175.763 882.612 174.751 882.612 173.579C882.612 171.896 881.92 170.575 880.535 169.616C879.171 168.657 877.275 168.178 874.846 168.178H865.066V179.236Z" fill="white"/>
<path d="M285.582 1187.63H273.629C273.288 1185.67 272.659 1183.93 271.743 1182.42C270.827 1180.89 269.687 1179.59 268.323 1178.52C266.96 1177.46 265.404 1176.66 263.657 1176.12C261.931 1175.57 260.067 1175.29 258.064 1175.29C254.506 1175.29 251.352 1176.19 248.604 1177.98C245.855 1179.75 243.703 1182.35 242.148 1185.78C240.593 1189.19 239.815 1193.35 239.815 1198.27C239.815 1203.28 240.593 1207.5 242.148 1210.93C243.725 1214.34 245.877 1216.92 248.604 1218.66C251.352 1220.39 254.495 1221.25 258.032 1221.25C259.992 1221.25 261.825 1221 263.529 1220.49C265.255 1219.95 266.8 1219.17 268.164 1218.15C269.548 1217.13 270.71 1215.87 271.647 1214.38C272.606 1212.89 273.267 1211.18 273.629 1209.27L285.582 1209.33C285.134 1212.44 284.165 1215.36 282.673 1218.09C281.203 1220.82 279.275 1223.22 276.889 1225.31C274.502 1227.38 271.711 1229 268.515 1230.17C265.319 1231.32 261.771 1231.89 257.872 1231.89C252.119 1231.89 246.985 1230.56 242.468 1227.9C237.95 1225.24 234.392 1221.39 231.793 1216.36C229.193 1211.33 227.894 1205.3 227.894 1198.27C227.894 1191.22 229.204 1185.19 231.825 1180.18C234.445 1175.15 238.014 1171.31 242.531 1168.65C247.048 1165.98 252.162 1164.65 257.872 1164.65C261.516 1164.65 264.904 1165.16 268.036 1166.18C271.168 1167.21 273.959 1168.71 276.409 1170.69C278.86 1172.65 280.873 1175.06 282.45 1177.91C284.048 1180.75 285.092 1183.99 285.582 1187.63ZM317.342 1231.96C312.548 1231.96 308.393 1230.9 304.878 1228.79C301.362 1226.69 298.635 1223.73 296.696 1219.94C294.778 1216.15 293.82 1211.72 293.82 1206.65C293.82 1201.58 294.778 1197.13 296.696 1193.32C298.635 1189.5 301.362 1186.54 304.878 1184.43C308.393 1182.32 312.548 1181.27 317.342 1181.27C322.136 1181.27 326.291 1182.32 329.807 1184.43C333.322 1186.54 336.039 1189.5 337.957 1193.32C339.896 1197.13 340.865 1201.58 340.865 1206.65C340.865 1211.72 339.896 1216.15 337.957 1219.94C336.039 1223.73 333.322 1226.69 329.807 1228.79C326.291 1230.9 322.136 1231.96 317.342 1231.96ZM317.406 1222.69C320.006 1222.69 322.179 1221.98 323.926 1220.55C325.673 1219.1 326.973 1217.16 327.825 1214.73C328.699 1212.3 329.136 1209.6 329.136 1206.61C329.136 1203.61 328.699 1200.89 327.825 1198.46C326.973 1196.01 325.673 1194.06 323.926 1192.62C322.179 1191.17 320.006 1190.44 317.406 1190.44C314.743 1190.44 312.527 1191.17 310.759 1192.62C309.011 1194.06 307.701 1196.01 306.827 1198.46C305.975 1200.89 305.549 1203.61 305.549 1206.61C305.549 1209.6 305.975 1212.3 306.827 1214.73C307.701 1217.16 309.011 1219.1 310.759 1220.55C312.527 1221.98 314.743 1222.69 317.406 1222.69ZM390.028 1163.76L394.055 1171.23C392.627 1172.47 391.029 1173.37 389.261 1173.92C387.492 1174.47 385.415 1174.84 383.029 1175.01C380.664 1175.15 377.851 1175.26 374.591 1175.33C370.926 1175.41 367.933 1176.1 365.61 1177.4C363.288 1178.7 361.509 1180.67 360.273 1183.32C359.037 1185.94 358.227 1189.28 357.844 1193.35H358.387C359.921 1190.35 362.073 1188.06 364.843 1186.48C367.613 1184.9 370.862 1184.11 374.591 1184.11C378.661 1184.11 382.251 1185.03 385.362 1186.86C388.494 1188.67 390.933 1191.31 392.681 1194.76C394.449 1198.21 395.333 1202.38 395.333 1207.29C395.333 1212.34 394.385 1216.71 392.489 1220.42C390.593 1224.11 387.897 1226.95 384.403 1228.95C380.93 1230.96 376.807 1231.96 372.034 1231.96C367.283 1231.96 363.149 1230.93 359.634 1228.86C356.139 1226.77 353.433 1223.69 351.516 1219.62C349.619 1215.53 348.671 1210.49 348.671 1204.5V1200.09C348.671 1188.55 350.823 1179.93 355.127 1174.24C359.431 1168.55 365.813 1165.65 374.271 1165.55C376.786 1165.5 379.034 1165.49 381.015 1165.51C383.018 1165.53 384.765 1165.44 386.257 1165.23C387.748 1165.01 389.005 1164.52 390.028 1163.76ZM372.098 1222.69C374.463 1222.69 376.509 1222.08 378.235 1220.87C379.96 1219.63 381.281 1217.89 382.198 1215.63C383.135 1213.37 383.604 1210.69 383.604 1207.61C383.604 1204.56 383.135 1201.97 382.198 1199.84C381.26 1197.69 379.928 1196.05 378.203 1194.92C376.477 1193.79 374.421 1193.22 372.034 1193.22C370.244 1193.22 368.636 1193.54 367.208 1194.18C365.781 1194.82 364.566 1195.76 363.565 1196.99C362.563 1198.23 361.796 1199.73 361.264 1201.5C360.731 1203.27 360.443 1205.3 360.401 1207.61C360.401 1212.23 361.445 1215.9 363.533 1218.63C365.621 1221.34 368.476 1222.69 372.098 1222.69ZM413.007 1197.89H427.485C433.749 1197.89 438.597 1199.41 442.027 1202.46C445.458 1205.51 447.183 1209.5 447.205 1214.44C447.183 1217.66 446.395 1220.52 444.84 1223.01C443.306 1225.5 441.068 1227.46 438.128 1228.89C435.209 1230.3 431.661 1231 427.485 1231H405.177V1181.91H416.331V1221.51H427.485C429.999 1221.51 432.066 1220.87 433.686 1219.59C435.305 1218.29 436.115 1216.63 436.115 1214.6C436.115 1212.47 435.305 1210.74 433.686 1209.39C432.066 1208.05 429.999 1207.38 427.485 1207.38H413.007V1197.89ZM453.309 1231V1181.91H464.879V1231H453.309ZM474.123 1191.4V1181.91H517.078V1191.4H501.194V1231H490.007V1191.4H474.123ZM537.444 1215.34L557.1 1181.91H568.989V1231H557.803V1197.54L538.211 1231H526.29V1181.91H537.444V1215.34ZM609.89 1231V1191.31H599.407C596.744 1191.31 594.699 1191.92 593.271 1193.16C591.843 1194.39 591.14 1195.93 591.162 1197.76C591.14 1199.59 591.811 1201.11 593.175 1202.3C594.539 1203.49 596.488 1204.09 599.024 1204.09H613.534V1212.53H599.024C595.103 1212.53 591.716 1211.91 588.86 1210.67C586.005 1209.44 583.811 1207.69 582.277 1205.43C580.743 1203.17 579.975 1200.53 579.975 1197.51C579.975 1194.35 580.753 1191.61 582.309 1189.29C583.885 1186.95 586.123 1185.14 589.02 1183.86C591.939 1182.56 595.402 1181.91 599.407 1181.91H620.725V1231H609.89ZM578.186 1231L591.897 1205.82H603.306L589.564 1231H578.186ZM657.575 1204.31C657.575 1196.32 658.63 1188.98 660.739 1182.29C662.87 1175.58 666.034 1169.38 670.231 1163.69H681.13C679.51 1165.8 677.998 1168.39 676.591 1171.46C675.185 1174.5 673.96 1177.85 672.916 1181.49C671.893 1185.12 671.083 1188.88 670.487 1192.78C669.912 1196.67 669.624 1200.52 669.624 1204.31C669.624 1209.36 670.125 1214.48 671.126 1219.65C672.149 1224.83 673.523 1229.63 675.249 1234.04C676.996 1238.47 678.956 1242.09 681.13 1244.9H670.231C666.034 1239.21 662.87 1233.02 660.739 1226.33C658.63 1219.62 657.575 1212.28 657.575 1204.31ZM711.236 1231.96C706.314 1231.96 702.064 1230.94 698.484 1228.89C694.926 1226.82 692.188 1223.9 690.27 1220.13C688.353 1216.34 687.394 1211.88 687.394 1206.74C687.394 1201.69 688.353 1197.26 690.27 1193.45C692.209 1189.61 694.915 1186.63 698.388 1184.5C701.861 1182.35 705.941 1181.27 710.629 1181.27C713.654 1181.27 716.51 1181.76 719.194 1182.74C721.9 1183.7 724.287 1185.19 726.353 1187.21C728.441 1189.24 730.082 1191.82 731.275 1194.95C732.468 1198.06 733.065 1201.77 733.065 1206.07V1209.62H692.827V1201.82H721.975C721.953 1199.6 721.474 1197.63 720.537 1195.91C719.599 1194.16 718.289 1192.79 716.605 1191.78C714.944 1190.78 713.005 1190.28 710.789 1190.28C708.424 1190.28 706.346 1190.86 704.556 1192.01C702.767 1193.14 701.371 1194.63 700.37 1196.48C699.39 1198.32 698.889 1200.33 698.868 1202.52V1209.33C698.868 1212.19 699.39 1214.64 700.434 1216.68C701.478 1218.71 702.937 1220.26 704.812 1221.35C706.687 1222.41 708.882 1222.95 711.396 1222.95C713.079 1222.95 714.603 1222.71 715.966 1222.24C717.33 1221.75 718.512 1221.04 719.514 1220.1C720.515 1219.16 721.272 1218 721.783 1216.62L732.586 1217.83C731.904 1220.69 730.604 1223.18 728.686 1225.31C726.79 1227.42 724.361 1229.06 721.4 1230.23C718.438 1231.38 715.05 1231.96 711.236 1231.96ZM785.296 1181.91L767.814 1231H755.03L737.547 1181.91H749.884L761.166 1218.38H761.677L772.991 1181.91H785.296ZM813.365 1231.96C808.443 1231.96 804.192 1230.94 800.613 1228.89C797.055 1226.82 794.317 1223.9 792.399 1220.13C790.482 1216.34 789.523 1211.88 789.523 1206.74C789.523 1201.69 790.482 1197.26 792.399 1193.45C794.338 1189.61 797.044 1186.63 800.517 1184.5C803.99 1182.35 808.07 1181.27 812.758 1181.27C815.783 1181.27 818.638 1181.76 821.323 1182.74C824.029 1183.7 826.415 1185.19 828.482 1187.21C830.57 1189.24 832.211 1191.82 833.404 1194.95C834.597 1198.06 835.194 1201.77 835.194 1206.07V1209.62H794.956V1201.82H824.104C824.082 1199.6 823.603 1197.63 822.665 1195.91C821.728 1194.16 820.418 1192.79 818.734 1191.78C817.072 1190.78 815.134 1190.28 812.918 1190.28C810.553 1190.28 808.475 1190.86 806.685 1192.01C804.896 1193.14 803.5 1194.63 802.499 1196.48C801.518 1198.32 801.018 1200.33 800.996 1202.52V1209.33C800.996 1212.19 801.518 1214.64 802.562 1216.68C803.607 1218.71 805.066 1220.26 806.941 1221.35C808.816 1222.41 811.011 1222.95 813.525 1222.95C815.208 1222.95 816.732 1222.71 818.095 1222.24C819.459 1221.75 820.641 1221.04 821.643 1220.1C822.644 1219.16 823.401 1218 823.912 1216.62L834.714 1217.83C834.033 1220.69 832.733 1223.18 830.815 1225.31C828.919 1227.42 826.49 1229.06 823.528 1230.23C820.567 1231.38 817.179 1231.96 813.365 1231.96ZM856.551 1202.24V1231H844.982V1181.91H856.04V1190.25H856.615C857.744 1187.5 859.545 1185.32 862.017 1183.7C864.509 1182.08 867.588 1181.27 871.253 1181.27C874.641 1181.27 877.592 1181.99 880.106 1183.44C882.642 1184.89 884.602 1186.99 885.987 1189.74C887.393 1192.49 888.085 1195.82 888.064 1199.74V1231H876.494V1201.53C876.494 1198.25 875.642 1195.68 873.938 1193.83C872.254 1191.98 869.921 1191.05 866.938 1191.05C864.914 1191.05 863.114 1191.5 861.537 1192.39C859.982 1193.27 858.757 1194.53 857.862 1196.2C856.988 1197.86 856.551 1199.87 856.551 1202.24ZM924.339 1181.91V1190.86H896.118V1181.91H924.339ZM903.085 1170.15H914.655V1216.23C914.655 1217.79 914.889 1218.98 915.358 1219.81C915.848 1220.62 916.487 1221.18 917.276 1221.48C918.064 1221.77 918.938 1221.92 919.896 1221.92C920.621 1221.92 921.281 1221.87 921.878 1221.76C922.496 1221.66 922.965 1221.56 923.284 1221.48L925.234 1230.52C924.616 1230.73 923.732 1230.97 922.581 1231.22C921.452 1231.48 920.067 1231.63 918.426 1231.67C915.529 1231.76 912.919 1231.32 910.596 1230.36C908.274 1229.38 906.431 1227.87 905.067 1225.82C903.725 1223.78 903.064 1221.22 903.085 1218.15V1170.15ZM967.909 1165.55V1231H956.339V1165.55H967.909ZM1001.22 1231.96C996.425 1231.96 992.27 1230.9 988.755 1228.79C985.239 1226.69 982.512 1223.73 980.573 1219.94C978.655 1216.15 977.697 1211.72 977.697 1206.65C977.697 1201.58 978.655 1197.13 980.573 1193.32C982.512 1189.5 985.239 1186.54 988.755 1184.43C992.27 1182.32 996.425 1181.27 1001.22 1181.27C1006.01 1181.27 1010.17 1182.32 1013.68 1184.43C1017.2 1186.54 1019.92 1189.5 1021.83 1193.32C1023.77 1197.13 1024.74 1201.58 1024.74 1206.65C1024.74 1211.72 1023.77 1216.15 1021.83 1219.94C1019.92 1223.73 1017.2 1226.69 1013.68 1228.79C1010.17 1230.9 1006.01 1231.96 1001.22 1231.96ZM1001.28 1222.69C1003.88 1222.69 1006.06 1221.98 1007.8 1220.55C1009.55 1219.1 1010.85 1217.16 1011.7 1214.73C1012.58 1212.3 1013.01 1209.6 1013.01 1206.61C1013.01 1203.61 1012.58 1200.89 1011.7 1198.46C1010.85 1196.01 1009.55 1194.06 1007.8 1192.62C1006.06 1191.17 1003.88 1190.44 1001.28 1190.44C998.62 1190.44 996.404 1191.17 994.635 1192.62C992.888 1194.06 991.578 1196.01 990.704 1198.46C989.852 1200.89 989.426 1203.61 989.426 1206.61C989.426 1209.6 989.852 1212.3 990.704 1214.73C991.578 1217.16 992.888 1219.1 994.635 1220.55C996.404 1221.98 998.62 1222.69 1001.28 1222.69ZM1055.98 1231.96C1051.18 1231.96 1047.03 1230.9 1043.51 1228.79C1040 1226.69 1037.27 1223.73 1035.33 1219.94C1033.41 1216.15 1032.45 1211.72 1032.45 1206.65C1032.45 1201.58 1033.41 1197.13 1035.33 1193.32C1037.27 1189.5 1040 1186.54 1043.51 1184.43C1047.03 1182.32 1051.18 1181.27 1055.98 1181.27C1060.77 1181.27 1064.92 1182.32 1068.44 1184.43C1071.96 1186.54 1074.67 1189.5 1076.59 1193.32C1078.53 1197.13 1079.5 1201.58 1079.5 1206.65C1079.5 1211.72 1078.53 1216.15 1076.59 1219.94C1074.67 1223.73 1071.96 1226.69 1068.44 1228.79C1064.92 1230.9 1060.77 1231.96 1055.98 1231.96ZM1056.04 1222.69C1058.64 1222.69 1060.81 1221.98 1062.56 1220.55C1064.31 1219.1 1065.61 1217.16 1066.46 1214.73C1067.33 1212.3 1067.77 1209.6 1067.77 1206.61C1067.77 1203.61 1067.33 1200.89 1066.46 1198.46C1065.61 1196.01 1064.31 1194.06 1062.56 1192.62C1060.81 1191.17 1058.64 1190.44 1056.04 1190.44C1053.38 1190.44 1051.16 1191.17 1049.39 1192.62C1047.64 1194.06 1046.33 1196.01 1045.46 1198.46C1044.61 1200.89 1044.18 1203.61 1044.18 1206.61C1044.18 1209.6 1044.61 1212.3 1045.46 1214.73C1046.33 1217.16 1047.64 1219.1 1049.39 1220.55C1051.16 1221.98 1053.38 1222.69 1056.04 1222.69ZM1089.32 1249.41V1181.91H1100.7V1190.03H1101.37C1101.96 1188.83 1102.8 1187.57 1103.89 1186.22C1104.98 1184.86 1106.45 1183.7 1108.3 1182.74C1110.16 1181.76 1112.52 1181.27 1115.4 1181.27C1119.19 1181.27 1122.61 1182.24 1125.66 1184.18C1128.72 1186.1 1131.15 1188.94 1132.94 1192.71C1134.75 1196.46 1135.66 1201.06 1135.66 1206.52C1135.66 1211.91 1134.78 1216.49 1133.01 1220.26C1131.24 1224.03 1128.83 1226.91 1125.78 1228.89C1122.74 1230.87 1119.29 1231.86 1115.43 1231.86C1112.62 1231.86 1110.28 1231.39 1108.43 1230.46C1106.58 1229.52 1105.08 1228.39 1103.96 1227.07C1102.85 1225.73 1101.98 1224.46 1101.37 1223.27H1100.89V1249.41H1089.32ZM1100.66 1206.45C1100.66 1209.63 1101.11 1212.41 1102.01 1214.8C1102.92 1217.18 1104.23 1219.05 1105.94 1220.39C1107.66 1221.71 1109.75 1222.37 1112.2 1222.37C1114.76 1222.37 1116.9 1221.69 1118.63 1220.33C1120.35 1218.94 1121.65 1217.05 1122.52 1214.67C1123.42 1212.26 1123.87 1209.52 1123.87 1206.45C1123.87 1203.41 1123.43 1200.7 1122.56 1198.34C1121.68 1195.97 1120.38 1194.12 1118.66 1192.78C1116.93 1191.43 1114.78 1190.76 1112.2 1190.76C1109.73 1190.76 1107.63 1191.41 1105.91 1192.71C1104.18 1194.01 1102.87 1195.83 1101.97 1198.18C1101.1 1200.52 1100.66 1203.28 1100.66 1206.45ZM1165.07 1204.31C1165.07 1212.28 1164.01 1219.62 1161.88 1226.33C1159.77 1233.02 1156.61 1239.21 1152.42 1244.9H1141.52C1143.16 1242.79 1144.67 1240.22 1146.06 1237.17C1147.46 1234.12 1148.68 1230.78 1149.7 1227.13C1150.74 1223.49 1151.55 1219.72 1152.13 1215.82C1152.72 1211.92 1153.02 1208.08 1153.02 1204.31C1153.02 1199.26 1152.51 1194.15 1151.49 1188.97C1150.49 1183.79 1149.11 1178.99 1147.37 1174.56C1145.64 1170.13 1143.69 1166.5 1141.52 1163.69H1152.42C1156.61 1169.38 1159.77 1175.58 1161.88 1182.29C1164.01 1188.98 1165.07 1196.32 1165.07 1204.31Z" fill="white"/>
<path d="M220.799 1827V1761.55H245.856C250.586 1761.55 254.517 1762.29 257.649 1763.78C260.802 1765.25 263.157 1767.27 264.712 1769.82C266.289 1772.38 267.077 1775.28 267.077 1778.52C267.077 1781.18 266.566 1783.46 265.543 1785.36C264.52 1787.23 263.146 1788.75 261.42 1789.93C259.694 1791.1 257.766 1791.94 255.635 1792.45V1793.09C257.958 1793.22 260.184 1793.93 262.315 1795.23C264.467 1796.51 266.225 1798.32 267.589 1800.66C268.952 1803.01 269.634 1805.84 269.634 1809.17C269.634 1812.55 268.814 1815.6 267.173 1818.31C265.532 1820.99 263.061 1823.11 259.758 1824.67C256.456 1826.22 252.301 1827 247.294 1827H220.799ZM232.656 1817.09H245.408C249.712 1817.09 252.812 1816.27 254.709 1814.63C256.626 1812.97 257.585 1810.84 257.585 1808.24C257.585 1806.3 257.106 1804.55 256.147 1803C255.188 1801.42 253.824 1800.19 252.056 1799.29C250.287 1798.37 248.178 1797.92 245.728 1797.92H232.656V1817.09ZM232.656 1789.38H244.385C246.431 1789.38 248.274 1789.01 249.915 1788.26C251.555 1787.5 252.844 1786.42 253.782 1785.04C254.741 1783.63 255.22 1781.97 255.22 1780.05C255.22 1777.51 254.325 1775.43 252.535 1773.79C250.767 1772.15 248.135 1771.33 244.641 1771.33H232.656V1789.38ZM287.268 1793.89H301.746C308.01 1793.89 312.858 1795.41 316.288 1798.46C319.718 1801.51 321.444 1805.5 321.465 1810.44C321.444 1813.66 320.656 1816.52 319.1 1819.01C317.566 1821.5 315.329 1823.46 312.389 1824.89C309.47 1826.3 305.922 1827 301.746 1827H279.438V1777.91H290.592V1817.51H301.746C304.26 1817.51 306.327 1816.87 307.946 1815.59C309.566 1814.29 310.375 1812.63 310.375 1810.6C310.375 1808.47 309.566 1806.74 307.946 1805.39C306.327 1804.05 304.26 1803.38 301.746 1803.38H287.268V1793.89ZM327.57 1827V1777.91H339.139V1827H327.57ZM392.074 1777.91V1827H380.951V1777.91H392.074ZM386.864 1800.09V1809.55C385.607 1810.1 384.179 1810.6 382.581 1811.05C381.005 1811.48 379.332 1811.82 377.564 1812.07C375.816 1812.33 374.069 1812.46 372.322 1812.46C365.76 1812.46 360.571 1810.99 356.758 1808.05C352.965 1805.09 351.069 1800.47 351.069 1794.21V1777.85H362.127V1794.21C362.127 1796.32 362.5 1798.01 363.245 1799.29C363.991 1800.57 365.12 1801.51 366.633 1802.1C368.146 1802.68 370.042 1802.97 372.322 1802.97C374.879 1802.97 377.308 1802.71 379.609 1802.2C381.91 1801.69 384.329 1800.98 386.864 1800.09ZM414.869 1811.34L434.525 1777.91H446.414V1827H435.228V1793.54L415.636 1827H403.715V1777.91H414.869V1811.34ZM479.709 1827.96C474.808 1827.96 470.6 1826.88 467.084 1824.73C463.59 1822.58 460.895 1819.61 458.998 1815.81C457.123 1812 456.186 1807.61 456.186 1802.65C456.186 1797.66 457.145 1793.26 459.062 1789.45C460.98 1785.61 463.686 1782.63 467.18 1780.5C470.696 1778.35 474.851 1777.27 479.645 1777.27C483.629 1777.27 487.155 1778 490.223 1779.48C493.313 1780.92 495.774 1782.98 497.606 1785.64C499.439 1788.29 500.483 1791.37 500.738 1794.91H489.68C489.233 1792.55 488.167 1790.58 486.484 1789C484.822 1787.4 482.596 1786.6 479.804 1786.6C477.439 1786.6 475.362 1787.24 473.572 1788.52C471.782 1789.78 470.387 1791.59 469.385 1793.95C468.405 1796.32 467.915 1799.15 467.915 1802.45C467.915 1805.8 468.405 1808.68 469.385 1811.08C470.366 1813.47 471.74 1815.31 473.508 1816.61C475.298 1817.89 477.397 1818.53 479.804 1818.53C481.509 1818.53 483.032 1818.21 484.375 1817.57C485.738 1816.91 486.878 1815.96 487.794 1814.73C488.711 1813.49 489.339 1811.99 489.68 1810.22H500.738C500.461 1813.69 499.439 1816.77 497.67 1819.46C495.902 1822.12 493.494 1824.21 490.447 1825.72C487.4 1827.21 483.821 1827.96 479.709 1827.96ZM506.851 1827L506.787 1817.48H508.481C509.759 1817.48 510.835 1817.19 511.709 1816.61C512.582 1816.04 513.307 1815.08 513.882 1813.74C514.457 1812.37 514.905 1810.54 515.224 1808.24C515.544 1805.94 515.768 1803.07 515.896 1799.64L516.758 1777.91H552.554V1827H541.368V1787.4H527.273L526.506 1803.22C526.315 1807.31 525.856 1810.86 525.132 1813.86C524.429 1816.85 523.427 1819.31 522.128 1821.25C520.849 1823.19 519.241 1824.63 517.302 1825.59C515.363 1826.53 513.072 1827 510.43 1827H506.851ZM575.358 1811.34L595.013 1777.91H606.902V1827H595.716V1793.54L576.125 1827H564.203V1777.91H575.358V1811.34ZM613.286 1787.4V1777.91H656.241V1787.4H640.357V1827H629.171V1787.4H613.286ZM685.165 1827.96C680.243 1827.96 675.992 1826.94 672.413 1824.89C668.854 1822.82 666.117 1819.9 664.199 1816.13C662.281 1812.34 661.323 1807.88 661.323 1802.74C661.323 1797.69 662.281 1793.26 664.199 1789.45C666.138 1785.61 668.844 1782.63 672.317 1780.5C675.79 1778.35 679.87 1777.27 684.558 1777.27C687.583 1777.27 690.438 1777.76 693.123 1778.74C695.829 1779.7 698.215 1781.19 700.282 1783.21C702.37 1785.24 704.011 1787.82 705.204 1790.95C706.397 1794.06 706.994 1797.77 706.994 1802.07V1805.62H666.756V1797.82H695.903C695.882 1795.6 695.403 1793.63 694.465 1791.91C693.528 1790.16 692.217 1788.79 690.534 1787.78C688.872 1786.78 686.933 1786.28 684.717 1786.28C682.352 1786.28 680.275 1786.86 678.485 1788.01C676.695 1789.14 675.3 1790.63 674.298 1792.48C673.318 1794.32 672.818 1796.33 672.796 1798.52V1805.33C672.796 1808.19 673.318 1810.64 674.362 1812.68C675.406 1814.71 676.866 1816.26 678.741 1817.35C680.616 1818.41 682.81 1818.95 685.325 1818.95C687.008 1818.95 688.531 1818.71 689.895 1818.24C691.259 1817.75 692.441 1817.04 693.443 1816.1C694.444 1815.16 695.2 1814 695.712 1812.62L706.514 1813.83C705.832 1816.69 704.533 1819.18 702.615 1821.31C700.719 1823.42 698.29 1825.06 695.328 1826.23C692.367 1827.38 688.979 1827.96 685.165 1827.96ZM713.394 1827L713.33 1817.48H715.024C716.302 1817.48 717.378 1817.19 718.252 1816.61C719.125 1816.04 719.85 1815.08 720.425 1813.74C721 1812.37 721.448 1810.54 721.767 1808.24C722.087 1805.94 722.311 1803.07 722.438 1799.64L723.301 1777.91H759.097V1827H747.911V1787.4H733.816L733.049 1803.22C732.858 1807.31 732.399 1810.86 731.675 1813.86C730.972 1816.85 729.97 1819.31 728.671 1821.25C727.392 1823.19 725.784 1824.63 723.845 1825.59C721.906 1826.53 719.615 1827 716.973 1827H713.394ZM778.577 1793.89H793.055C799.319 1793.89 804.166 1795.41 807.597 1798.46C811.027 1801.51 812.753 1805.5 812.774 1810.44C812.753 1813.66 811.964 1816.52 810.409 1819.01C808.875 1821.5 806.638 1823.46 803.697 1824.89C800.778 1826.3 797.231 1827 793.055 1827H770.746V1777.91H781.9V1817.51H793.055C795.569 1817.51 797.636 1816.87 799.255 1815.59C800.874 1814.29 801.684 1812.63 801.684 1810.6C801.684 1808.47 800.874 1806.74 799.255 1805.39C797.636 1804.05 795.569 1803.38 793.055 1803.38H778.577V1793.89ZM856.408 1797.66V1807.15H830.264V1797.66H856.408ZM833.844 1777.91V1827H822.69V1777.91H833.844ZM863.982 1777.91V1827H852.86V1777.91H863.982ZM897.101 1827.96C892.307 1827.96 888.152 1826.9 884.637 1824.79C881.121 1822.69 878.394 1819.73 876.455 1815.94C874.537 1812.15 873.578 1807.72 873.578 1802.65C873.578 1797.58 874.537 1793.13 876.455 1789.32C878.394 1785.5 881.121 1782.54 884.637 1780.43C888.152 1778.32 892.307 1777.27 897.101 1777.27C901.895 1777.27 906.05 1778.32 909.566 1780.43C913.081 1782.54 915.798 1785.5 917.715 1789.32C919.654 1793.13 920.624 1797.58 920.624 1802.65C920.624 1807.72 919.654 1812.15 917.715 1815.94C915.798 1819.73 913.081 1822.69 909.566 1824.79C906.05 1826.9 901.895 1827.96 897.101 1827.96ZM897.165 1818.69C899.764 1818.69 901.938 1817.98 903.685 1816.55C905.432 1815.1 906.732 1813.16 907.584 1810.73C908.458 1808.3 908.894 1805.6 908.894 1802.61C908.894 1799.61 908.458 1796.89 907.584 1794.46C906.732 1792.01 905.432 1790.06 903.685 1788.62C901.938 1787.17 899.764 1786.44 897.165 1786.44C894.502 1786.44 892.286 1787.17 890.517 1788.62C888.77 1790.06 887.46 1792.01 886.586 1794.46C885.734 1796.89 885.308 1799.61 885.308 1802.61C885.308 1805.6 885.734 1808.3 886.586 1810.73C887.46 1813.16 888.77 1815.1 890.517 1816.55C892.286 1817.98 894.502 1818.69 897.165 1818.69ZM952.177 1827.96C947.255 1827.96 943.004 1826.94 939.424 1824.89C935.866 1822.82 933.128 1819.9 931.211 1816.13C929.293 1812.34 928.334 1807.88 928.334 1802.74C928.334 1797.69 929.293 1793.26 931.211 1789.45C933.15 1785.61 935.856 1782.63 939.329 1780.5C942.802 1778.35 946.882 1777.27 951.569 1777.27C954.595 1777.27 957.45 1777.76 960.135 1778.74C962.841 1779.7 965.227 1781.19 967.294 1783.21C969.382 1785.24 971.022 1787.82 972.216 1790.95C973.409 1794.06 974.005 1797.77 974.005 1802.07V1805.62H933.767V1797.82H962.915C962.894 1795.6 962.415 1793.63 961.477 1791.91C960.54 1790.16 959.229 1788.79 957.546 1787.78C955.884 1786.78 953.945 1786.28 951.729 1786.28C949.364 1786.28 947.287 1786.86 945.497 1788.01C943.707 1789.14 942.312 1790.63 941.31 1792.48C940.33 1794.32 939.829 1796.33 939.808 1798.52V1805.33C939.808 1808.19 940.33 1810.64 941.374 1812.68C942.418 1814.71 943.878 1816.26 945.753 1817.35C947.628 1818.41 949.822 1818.95 952.336 1818.95C954.02 1818.95 955.543 1818.71 956.907 1818.24C958.27 1817.75 959.453 1817.04 960.454 1816.1C961.456 1815.16 962.212 1814 962.723 1812.62L973.526 1813.83C972.844 1816.69 971.544 1819.18 969.627 1821.31C967.731 1823.42 965.302 1825.06 962.34 1826.23C959.378 1827.38 955.991 1827.96 952.177 1827.96ZM1035.14 1827V1787.31H1024.65C1021.99 1787.31 1019.95 1787.92 1018.52 1789.16C1017.09 1790.39 1016.39 1791.93 1016.41 1793.76C1016.39 1795.59 1017.06 1797.11 1018.42 1798.3C1019.79 1799.49 1021.74 1800.09 1024.27 1800.09H1038.78V1808.53H1024.27C1020.35 1808.53 1016.96 1807.91 1014.11 1806.67C1011.25 1805.44 1009.06 1803.69 1007.52 1801.43C1005.99 1799.17 1005.22 1796.53 1005.22 1793.51C1005.22 1790.35 1006 1787.61 1007.56 1785.29C1009.13 1782.95 1011.37 1781.14 1014.27 1779.86C1017.19 1778.56 1020.65 1777.91 1024.65 1777.91H1045.97V1827H1035.14ZM1003.43 1827L1017.14 1801.82H1028.55L1014.81 1827H1003.43ZM1053.27 1841.25V1817.48H1057.17C1058.22 1816.67 1059.09 1815.57 1059.79 1814.18C1060.5 1812.78 1061.07 1811.13 1061.52 1809.23C1061.99 1807.31 1062.37 1805.17 1062.67 1802.81C1062.97 1800.42 1063.24 1797.85 1063.47 1795.1L1064.88 1777.91H1100.35V1817.48H1107.96V1841.25H1096.77V1827H1064.65V1841.25H1053.27ZM1069.06 1817.48H1089.29V1787.24H1074.91L1074.14 1795.1C1073.72 1800.3 1073.15 1804.76 1072.45 1808.46C1071.75 1812.17 1070.62 1815.17 1069.06 1817.48ZM1116.6 1845.41V1777.91H1127.97V1786.03H1128.64C1129.24 1784.83 1130.08 1783.57 1131.17 1782.22C1132.26 1780.86 1133.73 1779.7 1135.58 1778.74C1137.43 1777.76 1139.8 1777.27 1142.68 1777.27C1146.47 1777.27 1149.89 1778.24 1152.93 1780.18C1156 1782.1 1158.43 1784.94 1160.22 1788.71C1162.03 1792.46 1162.94 1797.06 1162.94 1802.52C1162.94 1807.91 1162.05 1812.49 1160.29 1816.26C1158.52 1820.03 1156.11 1822.91 1153.06 1824.89C1150.02 1826.87 1146.56 1827.86 1142.71 1827.86C1139.89 1827.86 1137.56 1827.39 1135.71 1826.46C1133.85 1825.52 1132.36 1824.39 1131.23 1823.07C1130.13 1821.73 1129.26 1820.46 1128.64 1819.27H1128.17V1845.41H1116.6ZM1127.94 1802.45C1127.94 1805.63 1128.39 1808.41 1129.28 1810.8C1130.2 1813.18 1131.51 1815.05 1133.22 1816.39C1134.94 1817.71 1137.03 1818.37 1139.48 1818.37C1142.04 1818.37 1144.18 1817.69 1145.9 1816.33C1147.63 1814.94 1148.93 1813.05 1149.8 1810.67C1150.7 1808.26 1151.14 1805.52 1151.14 1802.45C1151.14 1799.41 1150.71 1796.7 1149.83 1794.34C1148.96 1791.97 1147.66 1790.12 1145.94 1788.78C1144.21 1787.43 1142.06 1786.76 1139.48 1786.76C1137.01 1786.76 1134.91 1787.41 1133.18 1788.71C1131.46 1790.01 1130.15 1791.83 1129.25 1794.18C1128.38 1796.52 1127.94 1799.28 1127.94 1802.45ZM1194.26 1827.96C1189.47 1827.96 1185.31 1826.9 1181.79 1824.79C1178.28 1822.69 1175.55 1819.73 1173.61 1815.94C1171.7 1812.15 1170.74 1807.72 1170.74 1802.65C1170.74 1797.58 1171.7 1793.13 1173.61 1789.32C1175.55 1785.5 1178.28 1782.54 1181.79 1780.43C1185.31 1778.32 1189.47 1777.27 1194.26 1777.27C1199.05 1777.27 1203.21 1778.32 1206.72 1780.43C1210.24 1782.54 1212.96 1785.5 1214.87 1789.32C1216.81 1793.13 1217.78 1797.58 1217.78 1802.65C1217.78 1807.72 1216.81 1812.15 1214.87 1815.94C1212.96 1819.73 1210.24 1822.69 1206.72 1824.79C1203.21 1826.9 1199.05 1827.96 1194.26 1827.96ZM1194.32 1818.69C1196.92 1818.69 1199.1 1817.98 1200.84 1816.55C1202.59 1815.1 1203.89 1813.16 1204.74 1810.73C1205.62 1808.3 1206.05 1805.6 1206.05 1802.61C1206.05 1799.61 1205.62 1796.89 1204.74 1794.46C1203.89 1792.01 1202.59 1790.06 1200.84 1788.62C1199.1 1787.17 1196.92 1786.44 1194.32 1786.44C1191.66 1786.44 1189.44 1787.17 1187.68 1788.62C1185.93 1790.06 1184.62 1792.01 1183.74 1794.46C1182.89 1796.89 1182.47 1799.61 1182.47 1802.61C1182.47 1805.6 1182.89 1808.3 1183.74 1810.73C1184.62 1813.16 1185.93 1815.1 1187.68 1816.55C1189.44 1817.98 1191.66 1818.69 1194.32 1818.69Z" fill="white"/>
<rect x="1376.5" y="1171.5" width="2435" height="229" rx="57.5" stroke="#62B4FF" stroke-width="5"/>
<rect x="1397.5" y="1755.5" width="2448" height="512" rx="57.5" stroke="#FAFF08" stroke-width="5"/>
<rect x="1442.5" y="1799.5" width="120" height="118" stroke="#767382" stroke-width="9"/>
<rect x="1442.5" y="1951.5" width="120" height="119" stroke="#767382" stroke-width="9"/>
<rect x="1442.5" y="2104.5" width="120" height="120" stroke="#767382" stroke-width="9"/>
<rect x="2189.5" y="1799.5" width="119" height="118" stroke="#767382" stroke-width="9"/>
<rect x="2189.5" y="1951.5" width="119" height="119" stroke="#767382" stroke-width="9"/>
<rect x="2189.5" y="2104.5" width="119" height="120" stroke="#767382" stroke-width="9"/>
<rect x="1591.5" y="1799.5" width="120" height="118" stroke="#767382" stroke-width="9"/>
<rect x="1591.5" y="1951.5" width="120" height="119" stroke="#767382" stroke-width="9"/>
<rect x="1591.5" y="2104.5" width="120" height="120" stroke="#767382" stroke-width="9"/>
<rect x="2337.5" y="1799.5" width="120" height="118" stroke="#767382" stroke-width="9"/>
<rect x="2337.5" y="1951.5" width="120" height="119" stroke="#767382" stroke-width="9"/>
<rect x="2337.5" y="2104.5" width="120" height="120" stroke="#767382" stroke-width="9"/>
<rect x="1741.5" y="1799.5" width="119" height="118" stroke="#767382" stroke-width="9"/>
<rect x="1741.5" y="1951.5" width="119" height="119" stroke="#767382" stroke-width="9"/>
<rect x="1741.5" y="2104.5" width="119" height="120" stroke="#767382" stroke-width="9"/>
<rect x="2487.5" y="1799.5" width="118" height="118" stroke="#767382" stroke-width="9"/>
<rect x="2487.5" y="1951.5" width="118" height="119" stroke="#767382" stroke-width="9"/>
<rect x="2487.5" y="2104.5" width="118" height="120" stroke="#767382" stroke-width="9"/>
<rect x="1890.5" y="1799.5" width="120" height="118" stroke="#767382" stroke-width="9"/>
<rect x="1890.5" y="1951.5" width="120" height="119" stroke="#767382" stroke-width="9"/>
<rect x="1890.5" y="2104.5" width="120" height="120" stroke="#767382" stroke-width="9"/>
<rect x="2636.5" y="1799.5" width="120" height="118" stroke="#767382" stroke-width="9"/>
<rect x="3234.5" y="1799.5" width="120" height="118" stroke="#767382" stroke-width="9"/>
<rect x="2636.5" y="1951.5" width="120" height="119" stroke="#767382" stroke-width="9"/>
<rect x="3234.5" y="1951.5" width="120" height="119" stroke="#767382" stroke-width="9"/>
<rect x="2636.5" y="2104.5" width="120" height="120" stroke="#767382" stroke-width="9"/>
<rect x="3234.5" y="2104.5" width="120" height="120" stroke="#767382" stroke-width="9"/>
<rect x="2039.5" y="1799.5" width="119" height="118" stroke="#767382" stroke-width="9"/>
<rect x="2039.5" y="1951.5" width="119" height="119" stroke="#767382" stroke-width="9"/>
<rect x="2039.5" y="2104.5" width="119" height="120" stroke="#767382" stroke-width="9"/>
<rect x="2785.5" y="1799.5" width="120" height="118" stroke="#767382" stroke-width="9"/>
<rect x="3383.5" y="1799.5" width="120" height="118" stroke="#767382" stroke-width="9"/>
<rect x="2785.5" y="1951.5" width="120" height="119" stroke="#767382" stroke-width="9"/>
<rect x="3383.5" y="1951.5" width="120" height="119" stroke="#767382" stroke-width="9"/>
<rect x="2785.5" y="2104.5" width="120" height="120" stroke="#767382" stroke-width="9"/>
<rect x="3383.5" y="2104.5" width="120" height="120" stroke="#767382" stroke-width="9"/>
<rect x="2935.5" y="1799.5" width="119" height="118" stroke="#767382" stroke-width="9"/>
<rect x="3533.5" y="1799.5" width="119" height="118" stroke="#767382" stroke-width="9"/>
<rect x="2935.5" y="1951.5" width="119" height="119" stroke="#767382" stroke-width="9"/>
<rect x="3533.5" y="1951.5" width="119" height="119" stroke="#767382" stroke-width="9"/>
<rect x="2935.5" y="2104.5" width="119" height="120" stroke="#767382" stroke-width="9"/>
<rect x="3533.5" y="2104.5" width="119" height="120" stroke="#767382" stroke-width="9"/>
<rect x="3083.5" y="1799.5" width="120" height="118" stroke="#767382" stroke-width="9"/>
<rect x="3681.5" y="1799.5" width="120" height="118" stroke="#767382" stroke-width="9"/>
<rect x="3083.5" y="1951.5" width="120" height="119" stroke="#767382" stroke-width="9"/>
<rect x="3681.5" y="1951.5" width="120" height="119" stroke="#767382" stroke-width="9"/>
<rect x="3083.5" y="2104.5" width="120" height="120" stroke="#767382" stroke-width="9"/>
<rect x="3681.5" y="2104.5" width="120" height="120" stroke="#767382" stroke-width="9"/>
<rect x="1418.5" y="1203.5" width="29" height="165" stroke="#767382" stroke-width="9"/>
<rect x="2665.5" y="1203.5" width="29" height="165" stroke="#767382" stroke-width="9"/>
<rect x="2041.5" y="1203.5" width="28" height="165" stroke="#767382" stroke-width="9"/>
<rect x="3289.5" y="1203.5" width="28" height="165" stroke="#767382" stroke-width="9"/>
<rect x="1475.5" y="1203.5" width="28" height="165" stroke="#767382" stroke-width="9"/>
<rect x="2722.5" y="1203.5" width="29" height="165" stroke="#767382" stroke-width="9"/>
<rect x="2097.5" y="1203.5" width="29" height="165" stroke="#767382" stroke-width="9"/>
<rect x="3345.5" y="1203.5" width="28" height="165" stroke="#767382" stroke-width="9"/>
<rect x="1531.5" y="1203.5" width="29" height="165" stroke="#767382" stroke-width="9"/>
<rect x="2779.5" y="1203.5" width="28" height="165" stroke="#767382" stroke-width="9"/>
<rect x="2154.5" y="1203.5" width="28" height="165" stroke="#767382" stroke-width="9"/>
<rect x="3401.5" y="1203.5" width="29" height="165" stroke="#767382" stroke-width="9"/>
<rect x="1588.5" y="1203.5" width="28" height="165" stroke="#767382" stroke-width="9"/>
<rect x="2835.5" y="1203.5" width="29" height="165" stroke="#767382" stroke-width="9"/>
<rect x="2212.5" y="1203.5" width="28" height="165" stroke="#767382" stroke-width="9"/>
<rect x="3458.5" y="1203.5" width="28" height="165" stroke="#767382" stroke-width="9"/>
<rect x="1645.5" y="1203.5" width="28" height="165" stroke="#767382" stroke-width="9"/>
<rect x="2891.5" y="1203.5" width="29" height="165" stroke="#767382" stroke-width="9"/>
<rect x="2268.5" y="1203.5" width="29" height="165" stroke="#767382" stroke-width="9"/>
<rect x="3515.5" y="1203.5" width="27" height="165" stroke="#767382" stroke-width="9"/>
<rect x="1702.5" y="1203.5" width="28" height="165" stroke="#767382" stroke-width="9"/>
<rect x="2949.5" y="1203.5" width="27" height="165" stroke="#767382" stroke-width="9"/>
<rect x="2324.5" y="1203.5" width="29" height="165" stroke="#767382" stroke-width="9"/>
<rect x="3571.5" y="1203.5" width="29" height="165" stroke="#767382" stroke-width="9"/>
<rect x="1758.5" y="1203.5" width="29" height="165" stroke="#767382" stroke-width="9"/>
<rect x="3005.5" y="1203.5" width="29" height="165" stroke="#767382" stroke-width="9"/>
<rect x="2382.5" y="1203.5" width="27" height="165" stroke="#767382" stroke-width="9"/>
<rect x="3627.5" y="1203.5" width="29" height="165" stroke="#767382" stroke-width="9"/>
<rect x="1815.5" y="1203.5" width="28" height="165" stroke="#767382" stroke-width="9"/>
<rect x="3061.5" y="1203.5" width="29" height="165" stroke="#767382" stroke-width="9"/>
<rect x="2438.5" y="1203.5" width="28" height="165" stroke="#767382" stroke-width="9"/>
<rect x="3684.5" y="1203.5" width="28" height="165" stroke="#767382" stroke-width="9"/>
<rect x="1872.5" y="1203.5" width="27" height="165" stroke="#767382" stroke-width="9"/>
<rect x="3118.5" y="1203.5" width="28" height="165" stroke="#767382" stroke-width="9"/>
<rect x="2494.5" y="1203.5" width="29" height="165" stroke="#767382" stroke-width="9"/>
<rect x="3742.5" y="1203.5" width="28" height="165" stroke="#767382" stroke-width="9"/>
<rect x="1928.5" y="1203.5" width="29" height="165" stroke="#767382" stroke-width="9"/>
<rect x="3174.5" y="1203.5" width="29" height="165" stroke="#767382" stroke-width="9"/>
<rect x="2551.5" y="1203.5" width="28" height="165" stroke="#767382" stroke-width="9"/>
<rect x="1984.5" y="1203.5" width="29" height="165" stroke="#767382" stroke-width="9"/>
<rect x="3232.5" y="1203.5" width="28" height="165" stroke="#767382" stroke-width="9"/>
<rect x="2607.5" y="1203.5" width="28" height="165" stroke="#767382" stroke-width="9"/>
<path d="M2589.82 1080.18C2591.58 1081.94 2594.42 1081.94 2596.18 1080.18L2624.82 1051.54C2626.58 1049.79 2626.58 1046.94 2624.82 1045.18C2623.06 1043.42 2620.21 1043.42 2618.46 1045.18L2593 1070.64L2567.54 1045.18C2565.79 1043.42 2562.94 1043.42 2561.18 1045.18C2559.42 1046.94 2559.42 1049.79 2561.18 1051.54L2589.82 1080.18ZM2588.5 830L2588.5 1077L2597.5 1077L2597.5 830L2588.5 830Z" fill="#767382" fill-opacity="0.7"/>
<path d="M2834.82 1683.18C2836.58 1684.94 2839.42 1684.94 2841.18 1683.18L2869.82 1654.54C2871.58 1652.79 2871.58 1649.94 2869.82 1648.18C2868.06 1646.42 2865.21 1646.42 2863.46 1648.18L2838 1673.64L2812.54 1648.18C2810.79 1646.42 2807.94 1646.42 2806.18 1648.18C2804.42 1649.94 2804.42 1652.79 2806.18 1654.54L2834.82 1683.18ZM2833.5 1476L2833.5 1680L2842.5 1680L2842.5 1476L2833.5 1476Z" fill="#767382" fill-opacity="0.7"/>
<path d="M3278.82 1077.18C3280.58 1078.94 3283.42 1078.94 3285.18 1077.18L3313.82 1048.54C3315.58 1046.79 3315.58 1043.94 3313.82 1042.18C3312.06 1040.42 3309.21 1040.42 3307.46 1042.18L3282 1067.64L3256.54 1042.18C3254.79 1040.42 3251.94 1040.42 3250.18 1042.18C3248.42 1043.94 3248.42 1046.79 3250.18 1048.54L3278.82 1077.18ZM3277.5 827L3277.5 1074L3286.5 1074L3286.5 827L3277.5 827Z" fill="#767382" fill-opacity="0.7"/>
<path d="M1904.82 1077.18C1906.58 1078.94 1909.42 1078.94 1911.18 1077.18L1939.82 1048.54C1941.58 1046.79 1941.58 1043.94 1939.82 1042.18C1938.06 1040.42 1935.21 1040.42 1933.46 1042.18L1908 1067.64L1882.54 1042.18C1880.79 1040.42 1877.94 1040.42 1876.18 1042.18C1874.42 1043.94 1874.42 1046.79 1876.18 1048.54L1904.82 1077.18ZM1903.5 827L1903.5 1074L1912.5 1074L1912.5 827L1903.5 827Z" fill="#767382" fill-opacity="0.7"/>
<path d="M1564.82 1077.18C1566.58 1078.94 1569.42 1078.94 1571.18 1077.18L1599.82 1048.54C1601.58 1046.79 1601.58 1043.94 1599.82 1042.18C1598.06 1040.42 1595.21 1040.42 1593.46 1042.18L1568 1067.64L1542.54 1042.18C1540.79 1040.42 1537.94 1040.42 1536.18 1042.18C1534.42 1043.94 1534.42 1046.79 1536.18 1048.54L1564.82 1077.18ZM1563.5 827L1563.5 1074L1572.5 1074L1572.5 827L1563.5 827Z" fill="#767382" fill-opacity="0.7"/>
<path d="M2819.82 1077.18C2821.58 1078.94 2824.42 1078.94 2826.18 1077.18L2854.82 1048.54C2856.58 1046.79 2856.58 1043.94 2854.82 1042.18C2853.06 1040.42 2850.21 1040.42 2848.46 1042.18L2823 1067.64L2797.54 1042.18C2795.79 1040.42 2792.94 1040.42 2791.18 1042.18C2789.42 1043.94 2789.42 1046.79 2791.18 1048.54L2819.82 1077.18ZM2818.5 827L2818.5 1074L2827.5 1074L2827.5 827L2818.5 827Z" fill="#767382" fill-opacity="0.7"/>
<path d="M3508.82 1074.18C3510.58 1075.94 3513.42 1075.94 3515.18 1074.18L3543.82 1045.54C3545.58 1043.79 3545.58 1040.94 3543.82 1039.18C3542.06 1037.42 3539.21 1037.42 3537.46 1039.18L3512 1064.64L3486.54 1039.18C3484.79 1037.42 3481.94 1037.42 3480.18 1039.18C3478.42 1040.94 3478.42 1043.79 3480.18 1045.54L3508.82 1074.18ZM3507.5 824L3507.5 1071L3516.5 1071L3516.5 824L3507.5 824Z" fill="#767382" fill-opacity="0.7"/>
<path d="M2134.82 1074.18C2136.58 1075.94 2139.42 1075.94 2141.18 1074.18L2169.82 1045.54C2171.58 1043.79 2171.58 1040.94 2169.82 1039.18C2168.06 1037.42 2165.21 1037.42 2163.46 1039.18L2138 1064.64L2112.54 1039.18C2110.79 1037.42 2107.94 1037.42 2106.18 1039.18C2104.42 1040.94 2104.42 1043.79 2106.18 1045.54L2134.82 1074.18ZM2133.5 824L2133.5 1071L2142.5 1071L2142.5 824L2133.5 824Z" fill="#767382" fill-opacity="0.7"/>
<path d="M3049.82 1077.18C3051.58 1078.94 3054.42 1078.94 3056.18 1077.18L3084.82 1048.54C3086.58 1046.79 3086.58 1043.94 3084.82 1042.18C3083.06 1040.42 3080.21 1040.42 3078.46 1042.18L3053 1067.64L3027.54 1042.18C3025.79 1040.42 3022.94 1040.42 3021.18 1042.18C3019.42 1043.94 3019.42 1046.79 3021.18 1048.54L3049.82 1077.18ZM3048.5 827L3048.5 1074L3057.5 1074L3057.5 827L3048.5 827Z" fill="#767382" fill-opacity="0.7"/>
<path d="M3738.82 1074.18C3740.58 1075.94 3743.42 1075.94 3745.18 1074.18L3773.82 1045.54C3775.58 1043.79 3775.58 1040.94 3773.82 1039.18C3772.06 1037.42 3769.21 1037.42 3767.46 1039.18L3742 1064.64L3716.54 1039.18C3714.79 1037.42 3711.94 1037.42 3710.18 1039.18C3708.42 1040.94 3708.42 1043.79 3710.18 1045.54L3738.82 1074.18ZM3737.5 824L3737.5 1071L3746.5 1071L3746.5 824L3737.5 824Z" fill="#767382" fill-opacity="0.7"/>
<path d="M2364.82 1074.18C2366.58 1075.94 2369.42 1075.94 2371.18 1074.18L2399.82 1045.54C2401.58 1043.79 2401.58 1040.94 2399.82 1039.18C2398.06 1037.42 2395.21 1037.42 2393.46 1039.18L2368 1064.64L2342.54 1039.18C2340.79 1037.42 2337.94 1037.42 2336.18 1039.18C2334.42 1040.94 2334.42 1043.79 2336.18 1045.54L2364.82 1074.18ZM2363.5 824L2363.5 1071L2372.5 1071L2372.5 824L2363.5 824Z" fill="#767382" fill-opacity="0.7"/>
<path d="M2474.82 826.818C2476.58 825.061 2479.42 825.061 2481.18 826.818L2509.82 855.456C2511.58 857.213 2511.58 860.062 2509.82 861.82C2508.06 863.577 2505.21 863.577 2503.46 861.82L2478 836.364L2452.54 861.82C2450.79 863.577 2447.94 863.577 2446.18 861.82C2444.42 860.062 2444.42 857.213 2446.18 855.456L2474.82 826.818ZM2473.5 1077L2473.5 830L2482.5 830L2482.5 1077L2473.5 1077Z" fill="#767382" fill-opacity="0.7"/>
<path d="M2311.82 1472.82C2313.58 1471.06 2316.42 1471.06 2318.18 1472.82L2346.82 1501.46C2348.58 1503.21 2348.58 1506.06 2346.82 1507.82C2345.06 1509.58 2342.21 1509.58 2340.46 1507.82L2315 1482.36L2289.54 1507.82C2287.79 1509.58 2284.94 1509.58 2283.18 1507.82C2281.42 1506.06 2281.42 1503.21 2283.18 1501.46L2311.82 1472.82ZM2310.5 1680L2310.5 1476L2319.5 1476L2319.5 1680L2310.5 1680Z" fill="#767382" fill-opacity="0.7"/>
<path d="M3163.82 823.818C3165.58 822.061 3168.42 822.061 3170.18 823.818L3198.82 852.456C3200.58 854.213 3200.58 857.062 3198.82 858.82C3197.06 860.577 3194.21 860.577 3192.46 858.82L3167 833.364L3141.54 858.82C3139.79 860.577 3136.94 860.577 3135.18 858.82C3133.42 857.062 3133.42 854.213 3135.18 852.456L3163.82 823.818ZM3162.5 1074L3162.5 827L3171.5 827L3171.5 1074L3162.5 1074Z" fill="#767382" fill-opacity="0.7"/>
<path d="M1789.82 823.818C1791.58 822.061 1794.42 822.061 1796.18 823.818L1824.82 852.456C1826.58 854.213 1826.58 857.062 1824.82 858.82C1823.06 860.577 1820.21 860.577 1818.46 858.82L1793 833.364L1767.54 858.82C1765.79 860.577 1762.94 860.577 1761.18 858.82C1759.42 857.062 1759.42 854.213 1761.18 852.456L1789.82 823.818ZM1788.5 1074L1788.5 827L1797.5 827L1797.5 1074L1788.5 1074Z" fill="#767382" fill-opacity="0.7"/>
<path d="M1449.82 823.818C1451.58 822.061 1454.42 822.061 1456.18 823.818L1484.82 852.456C1486.58 854.213 1486.58 857.062 1484.82 858.82C1483.06 860.577 1480.21 860.577 1478.46 858.82L1453 833.364L1427.54 858.82C1425.79 860.577 1422.94 860.577 1421.18 858.82C1419.42 857.062 1419.42 854.213 1421.18 852.456L1449.82 823.818ZM1448.5 1074L1448.5 827L1457.5 827L1457.5 1074L1448.5 1074Z" fill="#767382" fill-opacity="0.7"/>
<path d="M2704.82 823.818C2706.58 822.061 2709.42 822.061 2711.18 823.818L2739.82 852.456C2741.58 854.213 2741.58 857.062 2739.82 858.82C2738.06 860.577 2735.21 860.577 2733.46 858.82L2708 833.364L2682.54 858.82C2680.79 860.577 2677.94 860.577 2676.18 858.82C2674.42 857.062 2674.42 854.213 2676.18 852.456L2704.82 823.818ZM2703.5 1074L2703.5 827L2712.5 827L2712.5 1074L2703.5 1074Z" fill="#767382" fill-opacity="0.7"/>
<path d="M3393.82 820.818C3395.58 819.061 3398.42 819.061 3400.18 820.818L3428.82 849.456C3430.58 851.213 3430.58 854.062 3428.82 855.82C3427.06 857.577 3424.21 857.577 3422.46 855.82L3397 830.364L3371.54 855.82C3369.79 857.577 3366.94 857.577 3365.18 855.82C3363.42 854.062 3363.42 851.213 3365.18 849.456L3393.82 820.818ZM3392.5 1071L3392.5 824L3401.5 824L3401.5 1071L3392.5 1071Z" fill="#767382" fill-opacity="0.7"/>
<path d="M2019.82 820.818C2021.58 819.061 2024.42 819.061 2026.18 820.818L2054.82 849.456C2056.58 851.213 2056.58 854.062 2054.82 855.82C2053.06 857.577 2050.21 857.577 2048.46 855.82L2023 830.364L1997.54 855.82C1995.79 857.577 1992.94 857.577 1991.18 855.82C1989.42 854.062 1989.42 851.213 1991.18 849.456L2019.82 820.818ZM2018.5 1071L2018.5 824L2027.5 824L2027.5 1071L2018.5 1071Z" fill="#767382" fill-opacity="0.7"/>
<path d="M1679.82 820.818C1681.58 819.061 1684.42 819.061 1686.18 820.818L1714.82 849.456C1716.58 851.213 1716.58 854.062 1714.82 855.82C1713.06 857.577 1710.21 857.577 1708.46 855.82L1683 830.364L1657.54 855.82C1655.79 857.577 1652.94 857.577 1651.18 855.82C1649.42 854.062 1649.42 851.213 1651.18 849.456L1679.82 820.818ZM1678.5 1071L1678.5 824L1687.5 824L1687.5 1071L1678.5 1071Z" fill="#767382" fill-opacity="0.7"/>
<path d="M2934.82 823.818C2936.58 822.061 2939.42 822.061 2941.18 823.818L2969.82 852.456C2971.58 854.213 2971.58 857.062 2969.82 858.82C2968.06 860.577 2965.21 860.577 2963.46 858.82L2938 833.364L2912.54 858.82C2910.79 860.577 2907.94 860.577 2906.18 858.82C2904.42 857.062 2904.42 854.213 2906.18 852.456L2934.82 823.818ZM2933.5 1074L2933.5 827L2942.5 827L2942.5 1074L2933.5 1074Z" fill="#767382" fill-opacity="0.7"/>
<path d="M3623.82 820.818C3625.58 819.061 3628.42 819.061 3630.18 820.818L3658.82 849.456C3660.58 851.213 3660.58 854.062 3658.82 855.82C3657.06 857.577 3654.21 857.577 3652.46 855.82L3627 830.364L3601.54 855.82C3599.79 857.577 3596.94 857.577 3595.18 855.82C3593.42 854.062 3593.42 851.213 3595.18 849.456L3623.82 820.818ZM3622.5 1071L3622.5 824L3631.5 824L3631.5 1071L3622.5 1071Z" fill="#767382" fill-opacity="0.7"/>
<path d="M2249.82 820.818C2251.58 819.061 2254.42 819.061 2256.18 820.818L2284.82 849.456C2286.58 851.213 2286.58 854.062 2284.82 855.82C2283.06 857.577 2280.21 857.577 2278.46 855.82L2253 830.364L2227.54 855.82C2225.79 857.577 2222.94 857.577 2221.18 855.82C2219.42 854.062 2219.42 851.213 2221.18 849.456L2249.82 820.818ZM2248.5 1071L2248.5 824L2257.5 824L2257.5 1071L2248.5 1071Z" fill="#767382" fill-opacity="0.7"/>
<path d="M229.887 363V283H255.707C261.384 283 266.124 284.029 269.926 286.086C273.754 288.117 276.632 290.943 278.559 294.562C280.512 298.156 281.488 302.284 281.488 306.945C281.488 311.607 280.512 315.721 278.559 319.289C276.632 322.857 273.767 325.643 269.965 327.648C266.163 329.654 261.449 330.656 255.824 330.656H233.832V323.977H255.629C259.796 323.977 263.259 323.286 266.02 321.906C268.806 320.526 270.876 318.56 272.23 316.008C273.611 313.456 274.301 310.435 274.301 306.945C274.301 303.456 273.611 300.409 272.23 297.805C270.85 295.174 268.767 293.143 265.98 291.711C263.22 290.279 259.73 289.562 255.512 289.562H237.191V363H229.887ZM265.16 326.906L284.848 363H276.41L256.918 326.906H265.16ZM299.398 363H291.742L320.844 283H328.656L357.758 363H350.102L325.023 292.492H324.477L299.398 363ZM304.906 332.336H344.594V338.898H304.906V332.336ZM371.469 283H379.906L408.93 352.688H409.633L438.656 283H447.094V363H440.219V298.43H439.594L412.602 363H405.961L378.969 298.43H378.344V363H371.469V283Z" fill="white" fill-opacity="0.7"/>
<path d="M296.571 1333H289.228C288.681 1330.27 287.691 1327.74 286.259 1325.42C284.853 1323.08 283.082 1321.03 280.946 1319.29C278.811 1317.54 276.389 1316.19 273.681 1315.23C270.972 1314.26 268.043 1313.78 264.892 1313.78C259.84 1313.78 255.23 1315.1 251.063 1317.73C246.923 1320.36 243.603 1324.22 241.103 1329.33C238.629 1334.41 237.392 1340.63 237.392 1348C237.392 1355.42 238.629 1361.67 241.103 1366.75C243.603 1371.83 246.923 1375.68 251.063 1378.31C255.23 1380.92 259.84 1382.22 264.892 1382.22C268.043 1382.22 270.972 1381.74 273.681 1380.77C276.389 1379.81 278.811 1378.47 280.946 1376.75C283.082 1375.01 284.853 1372.96 286.259 1370.62C287.691 1368.27 288.681 1365.73 289.228 1363H296.571C295.92 1366.67 294.696 1370.1 292.899 1373.27C291.129 1376.42 288.863 1379.18 286.103 1381.55C283.368 1383.92 280.217 1385.77 276.649 1387.1C273.082 1388.43 269.162 1389.09 264.892 1389.09C258.173 1389.09 252.209 1387.41 247.001 1384.05C241.793 1380.67 237.704 1375.9 234.735 1369.76C231.793 1363.61 230.321 1356.36 230.321 1348C230.321 1339.64 231.793 1332.39 234.735 1326.24C237.704 1320.1 241.793 1315.34 247.001 1311.98C252.209 1308.6 258.173 1306.91 264.892 1306.91C269.162 1306.91 273.082 1307.57 276.649 1308.9C280.217 1310.2 283.368 1312.05 286.103 1314.45C288.863 1316.82 291.129 1319.58 292.899 1322.73C294.696 1325.88 295.92 1329.3 296.571 1333ZM313.729 1388V1308H339.55C345.227 1308 349.966 1309.09 353.769 1311.28C357.597 1313.44 360.474 1316.39 362.401 1320.11C364.354 1323.83 365.331 1328.03 365.331 1332.69C365.331 1337.35 364.368 1341.55 362.44 1345.3C360.513 1349.03 357.649 1351.98 353.847 1354.17C350.045 1356.33 345.318 1357.41 339.667 1357.41H319.354V1350.85H339.472C343.664 1350.85 347.141 1350.07 349.901 1348.51C352.662 1346.92 354.719 1344.76 356.073 1342.02C357.453 1339.29 358.144 1336.18 358.144 1332.69C358.144 1329.2 357.453 1326.09 356.073 1323.35C354.719 1320.62 352.649 1318.47 349.862 1316.91C347.102 1315.34 343.599 1314.56 339.354 1314.56H321.034V1388H313.729ZM435.8 1308H443.104V1360.97C443.104 1366.41 441.828 1371.28 439.276 1375.58C436.724 1379.85 433.17 1383.22 428.612 1385.7C424.081 1388.14 418.808 1389.37 412.792 1389.37C406.802 1389.37 401.529 1388.13 396.972 1385.66C392.414 1383.18 388.86 1379.81 386.308 1375.54C383.756 1371.27 382.479 1366.41 382.479 1360.97V1308H389.784V1360.46C389.784 1364.71 390.735 1368.49 392.636 1371.83C394.537 1375.14 397.206 1377.74 400.644 1379.64C404.107 1381.54 408.157 1382.49 412.792 1382.49C417.427 1382.49 421.477 1381.54 424.94 1379.64C428.404 1377.74 431.073 1375.14 432.948 1371.83C434.849 1368.49 435.8 1364.71 435.8 1360.46V1308Z" fill="white" fill-opacity="0.7"/>
<path d="M280.407 1931C279.678 1928.34 278.61 1925.86 277.204 1923.54C275.798 1921.2 274.053 1919.15 271.97 1917.41C269.912 1915.64 267.53 1914.26 264.821 1913.27C262.139 1912.28 259.144 1911.78 255.837 1911.78C250.629 1911.78 245.967 1913.14 241.853 1915.84C237.738 1918.55 234.483 1922.46 232.087 1927.56C229.717 1932.67 228.532 1938.81 228.532 1946C228.532 1953.16 229.73 1959.29 232.126 1964.4C234.522 1969.5 237.803 1973.42 241.97 1976.16C246.162 1978.86 250.954 1980.22 256.345 1980.22C261.267 1980.22 265.616 1979.12 269.392 1976.94C273.168 1974.75 276.11 1971.62 278.22 1967.56C280.355 1963.5 281.397 1958.67 281.345 1953.07L283.688 1953.81H258.063V1947.25H288.454V1953.81C288.454 1960.64 287.074 1966.53 284.313 1971.51C281.553 1976.48 277.764 1980.32 272.946 1983.03C268.129 1985.74 262.595 1987.09 256.345 1987.09C249.366 1987.09 243.259 1985.41 238.024 1982.05C232.79 1978.67 228.715 1973.9 225.798 1967.76C222.907 1961.59 221.462 1954.33 221.462 1946C221.462 1939.72 222.295 1934.06 223.962 1929.01C225.629 1923.96 227.985 1919.63 231.032 1916.04C234.105 1912.45 237.738 1909.7 241.931 1907.8C246.123 1905.87 250.759 1904.91 255.837 1904.91C260.212 1904.91 264.209 1905.6 267.829 1906.98C271.475 1908.36 274.678 1910.26 277.438 1912.68C280.225 1915.08 282.504 1917.85 284.274 1921C286.071 1924.12 287.282 1927.46 287.907 1931H280.407ZM306.589 1986V1906H332.409C338.086 1906 342.826 1907.09 346.628 1909.28C350.456 1911.44 353.334 1914.39 355.261 1918.11C357.214 1921.83 358.19 1926.03 358.19 1930.69C358.19 1935.35 357.227 1939.55 355.3 1943.3C353.373 1947.03 350.508 1949.98 346.706 1952.17C342.904 1954.33 338.177 1955.41 332.526 1955.41H312.214V1948.85H332.331C336.524 1948.85 340 1948.07 342.761 1946.51C345.521 1944.92 347.578 1942.76 348.933 1940.02C350.313 1937.29 351.003 1934.18 351.003 1930.69C351.003 1927.2 350.313 1924.09 348.933 1921.35C347.578 1918.62 345.508 1916.47 342.722 1914.91C339.961 1913.34 336.459 1912.56 332.214 1912.56H313.894V1986H306.589ZM428.659 1906H435.964V1958.97C435.964 1964.41 434.688 1969.28 432.136 1973.58C429.584 1977.85 426.029 1981.22 421.472 1983.7C416.94 1986.14 411.667 1987.37 405.651 1987.37C399.662 1987.37 394.388 1986.13 389.831 1983.66C385.274 1981.18 381.719 1977.81 379.167 1973.54C376.615 1969.27 375.339 1964.41 375.339 1958.97V1906H382.644V1958.46C382.644 1962.71 383.594 1966.49 385.495 1969.83C387.396 1973.14 390.065 1975.74 393.503 1977.64C396.966 1979.54 401.016 1980.49 405.651 1980.49C410.287 1980.49 414.336 1979.54 417.8 1977.64C421.263 1975.74 423.933 1973.14 425.808 1969.83C427.709 1966.49 428.659 1962.71 428.659 1958.46V1906Z" fill="white" fill-opacity="0.7"/>
<circle cx="119" cy="176" r="34" fill="#10CC55"/>
<circle cx="119" cy="1200" r="34" fill="#62B4FF"/>
<circle cx="119" cy="1795" r="34" fill="#FAFF08"/>
<line x1="1591.82" y1="346.283" x2="1642.82" y2="400.283" stroke="#767382" stroke-opacity="0.7" stroke-width="5"/>
<line x1="1758.02" y1="238.94" x2="1706.58" y2="292.521" stroke="#767382" stroke-opacity="0.7" stroke-width="5"/>
<line x1="1876.24" y1="463.731" x2="1824.8" y2="517.312" stroke="#767382" stroke-opacity="0.7" stroke-width="5"/>
<line x1="2105.24" y1="463.731" x2="2053.8" y2="517.312" stroke="#767382" stroke-opacity="0.7" stroke-width="5"/>
<path d="M2342.5 357.5L2273 507" stroke="#767382" stroke-opacity="0.7" stroke-width="5"/>
<path d="M2800.5 240.4L2731 389.9" stroke="#767382" stroke-opacity="0.7" stroke-width="5"/>
<path d="M3031.5 472.4L2962 621.9" stroke="#767382" stroke-opacity="0.7" stroke-width="5"/>
<path d="M3372.5 358.4L3303 507.9" stroke="#767382" stroke-opacity="0.7" stroke-width="5"/>
<path d="M3601.5 471.4L3532 620.9" stroke="#767382" stroke-opacity="0.7" stroke-width="5"/>
<path d="M3490.5 241.4L3421 390.9" stroke="#767382" stroke-opacity="0.7" stroke-width="5"/>
<path d="M2570.5 471.4L2501 620.9" stroke="#767382" stroke-opacity="0.7" stroke-width="5"/>
<path d="M2668.5 571L2516.5 636" stroke="#767382" stroke-opacity="0.7" stroke-width="5"/>
<path d="M2898 344.984L2746 409.984" stroke="#767382" stroke-opacity="0.7" stroke-width="5"/>
<path d="M2898 565.984L2746 630.984" stroke="#767382" stroke-opacity="0.7" stroke-width="5"/>
<path d="M2554 343.984L2402 408.984" stroke="#767382" stroke-opacity="0.7" stroke-width="5"/>
<path d="M2209 227.984L2057 292.984" stroke="#767382" stroke-opacity="0.7" stroke-width="5"/>
<path d="M3126 343.984L2974 408.984" stroke="#767382" stroke-opacity="0.7" stroke-width="5"/>
<path d="M2440 571.984L2288 636.984" stroke="#767382" stroke-opacity="0.7" stroke-width="5"/>
<path d="M2097 570.984L1945 635.984" stroke="#767382" stroke-opacity="0.7" stroke-width="5"/>
<path d="M1751 569.984L1599 634.984" stroke="#767382" stroke-opacity="0.7" stroke-width="5"/>
<path d="M1637 343.984L1485 408.984" stroke="#767382" stroke-opacity="0.7" stroke-width="5"/>
<path d="M1983 407.5L1828 347.001" stroke="#767382" stroke-opacity="0.7" stroke-width="5"/>
<path d="M1983.76 294.5L1828.76 234.001" stroke="#767382" stroke-opacity="0.7" stroke-width="5"/>
<path d="M2330.76 408.5L2175.76 348.001" stroke="#767382" stroke-opacity="0.7" stroke-width="5"/>
<path d="M2552.76 294.5L2397.76 234.001" stroke="#767382" stroke-opacity="0.7" stroke-width="5"/>
<path d="M2899.76 294.5L2744.76 234.001" stroke="#767382" stroke-opacity="0.7" stroke-width="5"/>
<path d="M3359.76 408.5L3204.76 348.001" stroke="#767382" stroke-opacity="0.7" stroke-width="5"/>
<path d="M3588.76 520.5L3433.76 460.001" stroke="#767382" stroke-opacity="0.7" stroke-width="5"/>
<path d="M3702.76 408.5L3547.76 348.001" stroke="#767382" stroke-opacity="0.7" stroke-width="5"/>
<path d="M2151.81 469L2231 616.5" stroke="#767382" stroke-opacity="0.7" stroke-width="5"/>
<path d="M2268.37 247L2347.56 394.5" stroke="#767382" stroke-opacity="0.7" stroke-width="5"/>
<path d="M2382.37 473L2461.56 620.5" stroke="#767382" stroke-opacity="0.7" stroke-width="5"/>
<path d="M2843.37 473L2922.56 620.5" stroke="#767382" stroke-opacity="0.7" stroke-width="5"/>
<path d="M3185.37 473L3264.56 620.5" stroke="#767382" stroke-opacity="0.7" stroke-width="5"/>
<path d="M1924.37 359L2003.56 506.5" stroke="#767382" stroke-opacity="0.7" stroke-width="5"/>
<path d="M1579.37 241L1658.56 388.5" stroke="#767382" stroke-opacity="0.7" stroke-width="5"/>
<path d="M1767.5 359.4L1698 508.9" stroke="#767382" stroke-opacity="0.7" stroke-width="5"/>
<path d="M1540.5 244.4L1471 393.9" stroke="#767382" stroke-opacity="0.7" stroke-width="5"/>
<path d="M2226.5 244.4L2157 393.9" stroke="#767382" stroke-opacity="0.7" stroke-width="5"/>
<line x1="2678.24" y1="351.731" x2="2626.8" y2="405.312" stroke="#767382" stroke-opacity="0.7" stroke-width="5"/>
<line x1="3022.24" y1="238.731" x2="2970.8" y2="292.312" stroke="#767382" stroke-opacity="0.7" stroke-width="5"/>
<line x1="3595.24" y1="464.731" x2="3543.8" y2="518.312" stroke="#767382" stroke-opacity="0.7" stroke-width="5"/>
<line x1="3710.24" y1="235.731" x2="3658.8" y2="289.312" stroke="#767382" stroke-opacity="0.7" stroke-width="5"/>
<line x1="2337.24" y1="238.731" x2="2285.8" y2="292.312" stroke="#767382" stroke-opacity="0.7" stroke-width="5"/>
<line x1="2315" y1="209.5" x2="2298" y2="209.5" stroke="#767382" stroke-opacity="0.7" stroke-width="5"/>
<line x1="2085" y1="209.5" x2="2068" y2="209.5" stroke="#767382" stroke-opacity="0.7" stroke-width="5"/>
<line x1="2085" y1="323.5" x2="2068" y2="323.5" stroke="#767382" stroke-opacity="0.7" stroke-width="5"/>
<line x1="2658" y1="322.5" x2="2641" y2="322.5" stroke="#767382" stroke-opacity="0.7" stroke-width="5"/>
<line x1="2888" y1="436.5" x2="2871" y2="436.5" stroke="#767382" stroke-opacity="0.7" stroke-width="5"/>
<line x1="3117" y1="321.5" x2="3100" y2="321.5" stroke="#767382" stroke-opacity="0.7" stroke-width="5"/>
<line x1="3347" y1="210.5" x2="3325" y2="210.5" stroke="#767382" stroke-opacity="0.7" stroke-width="5"/>
<line x1="3578" y1="322.5" x2="3556" y2="322.5" stroke="#767382" stroke-opacity="0.7" stroke-width="5"/>
<line x1="3693" y1="436.5" x2="3671" y2="436.5" stroke="#767382" stroke-opacity="0.7" stroke-width="5"/>
<line x1="3691" y1="662.5" x2="3669" y2="662.5" stroke="#767382" stroke-opacity="0.7" stroke-width="5"/>
<line x1="3461" y1="661.5" x2="3439" y2="661.5" stroke="#767382" stroke-opacity="0.7" stroke-width="5"/>
<line x1="3394.5" y1="613" x2="3394.5" y2="591" stroke="#767382" stroke-opacity="0.7" stroke-width="5"/>
<line x1="3164.5" y1="611" x2="3164.5" y2="589" stroke="#767382" stroke-opacity="0.7" stroke-width="5"/>
<line x1="3393.5" y1="497" x2="3393.5" y2="475" stroke="#767382" stroke-opacity="0.7" stroke-width="5"/>
<line x1="3394.5" y1="271" x2="3394.5" y2="249" stroke="#767382" stroke-opacity="0.7" stroke-width="5"/>
<line x1="3622.5" y1="271" x2="3622.5" y2="249" stroke="#767382" stroke-opacity="0.7" stroke-width="5"/>
<line x1="3164.5" y1="275" x2="3164.5" y2="253" stroke="#767382" stroke-opacity="0.7" stroke-width="5"/>
<line x1="2934.5" y1="275" x2="2934.5" y2="253" stroke="#767382" stroke-opacity="0.7" stroke-width="5"/>
<line x1="2934.5" y1="501" x2="2934.5" y2="479" stroke="#767382" stroke-opacity="0.7" stroke-width="5"/>
<line x1="2705.5" y1="500" x2="2705.5" y2="478" stroke="#767382" stroke-opacity="0.7" stroke-width="5"/>
<line x1="2361.5" y1="501" x2="2361.5" y2="479" stroke="#767382" stroke-opacity="0.7" stroke-width="5"/>
<line x1="2247.5" y1="611" x2="2247.5" y2="589" stroke="#767382" stroke-opacity="0.7" stroke-width="5"/>
<line x1="1903.5" y1="611" x2="1903.5" y2="589" stroke="#767382" stroke-opacity="0.7" stroke-width="5"/>
<line x1="1787.5" y1="611" x2="1787.5" y2="589" stroke="#767382" stroke-opacity="0.7" stroke-width="5"/>
<line x1="1558.5" y1="498" x2="1558.5" y2="476" stroke="#767382" stroke-opacity="0.7" stroke-width="5"/>
<line x1="1443.5" y1="385" x2="1443.5" y2="363" stroke="#767382" stroke-opacity="0.7" stroke-width="5"/>
<line x1="1443.5" y1="610" x2="1443.5" y2="588" stroke="#767382" stroke-opacity="0.7" stroke-width="5"/>
<line x1="2020.5" y1="498" x2="2020.5" y2="476" stroke="#767382" stroke-opacity="0.7" stroke-width="5"/>
<line x1="2132.5" y1="386" x2="2132.5" y2="364" stroke="#767382" stroke-opacity="0.7" stroke-width="5"/>
<line x1="2590.5" y1="381" x2="2590.5" y2="359" stroke="#767382" stroke-opacity="0.7" stroke-width="5"/>
<line x1="2705.5" y1="271" x2="2705.5" y2="249" stroke="#767382" stroke-opacity="0.7" stroke-width="5"/>
<line x1="3164.5" y1="385" x2="3164.5" y2="363" stroke="#767382" stroke-opacity="0.7" stroke-width="5"/>
<line x1="3278.5" y1="272" x2="3278.5" y2="250" stroke="#767382" stroke-opacity="0.7" stroke-width="5"/>
<line x1="3049.5" y1="611" x2="3049.5" y2="589" stroke="#767382" stroke-opacity="0.7" stroke-width="5"/>
<line x1="2773" y1="549.5" x2="2756" y2="549.5" stroke="#767382" stroke-opacity="0.7" stroke-width="5"/>
<line x1="2429" y1="662.5" x2="2412" y2="662.5" stroke="#767382" stroke-opacity="0.7" stroke-width="5"/>
<line x1="2085" y1="662.5" x2="2068" y2="662.5" stroke="#767382" stroke-opacity="0.7" stroke-width="5"/>
<line x1="1856" y1="662.5" x2="1839" y2="662.5" stroke="#767382" stroke-opacity="0.7" stroke-width="5"/>
<line x1="1739" y1="548.5" x2="1722" y2="548.5" stroke="#767382" stroke-opacity="0.7" stroke-width="5"/>
<line x1="1744" y1="323.5" x2="1727" y2="323.5" stroke="#767382" stroke-opacity="0.7" stroke-width="5"/>
<line x1="1624" y1="209.5" x2="1607" y2="209.5" stroke="#767382" stroke-opacity="0.7" stroke-width="5"/>
<line x1="1510" y1="436.5" x2="1493" y2="436.5" stroke="#767382" stroke-opacity="0.7" stroke-width="5"/>
<line x1="1987.24" y1="238.731" x2="1935.8" y2="292.312" stroke="#767382" stroke-opacity="0.7" stroke-width="5"/>
<line x1="1528.24" y1="576.731" x2="1476.8" y2="630.312" stroke="#767382" stroke-opacity="0.7" stroke-width="5"/>
<line x1="2054.82" y1="348.283" x2="2105.82" y2="402.283" stroke="#767382" stroke-opacity="0.7" stroke-width="5"/>
<line x1="2283.82" y1="460.283" x2="2334.82" y2="514.283" stroke="#767382" stroke-opacity="0.7" stroke-width="5"/>
<line x1="1824.82" y1="575.283" x2="1875.82" y2="629.283" stroke="#767382" stroke-opacity="0.7" stroke-width="5"/>
<line x1="2511.82" y1="238.283" x2="2562.82" y2="292.283" stroke="#767382" stroke-opacity="0.7" stroke-width="5"/>
<line x1="2741.82" y1="461.283" x2="2792.82" y2="515.283" stroke="#767382" stroke-opacity="0.7" stroke-width="5"/>
<line x1="3199.82" y1="235.283" x2="3250.82" y2="289.283" stroke="#767382" stroke-opacity="0.7" stroke-width="5"/>
<line x1="3429.82" y1="348.283" x2="3480.82" y2="402.283" stroke="#767382" stroke-opacity="0.7" stroke-width="5"/>
<line x1="3426.82" y1="575.283" x2="3477.82" y2="629.283" stroke="#767382" stroke-opacity="0.7" stroke-width="5"/>
<line x1="3658.82" y1="575.283" x2="3709.82" y2="629.283" stroke="#767382" stroke-opacity="0.7" stroke-width="5"/>
<line x1="3085.82" y1="461.283" x2="3136.82" y2="515.283" stroke="#767382" stroke-opacity="0.7" stroke-width="5"/>
<rect x="1369.5" y="137.5" width="2437" height="592" rx="57.5" stroke="#10CC55" stroke-width="5"/>
</svg>
