<svg width="5580" height="2802" viewBox="0 0 5580 2802" fill="none" xmlns="http://www.w3.org/2000/svg">
<line x1="3269" y1="1808.5" x2="2203" y2="1808.5" stroke="url(#paint0_linear_143_841)" stroke-width="15"/>
<line y1="-3" x2="841.029" y2="-3" transform="matrix(0.514845 0.857283 0.857283 -0.514845 1626 1000)" stroke="url(#paint1_linear_143_841)" stroke-width="6" stroke-dasharray="30 30"/>
<line y1="-3" x2="854.169" y2="-3" transform="matrix(-0.536194 0.844095 0.844095 0.536194 3893 1000)" stroke="url(#paint2_linear_143_841)" stroke-width="6" stroke-dasharray="30 30"/>
<line x1="1662.13" y1="895.129" x2="2658.13" y2="593.129" stroke="url(#paint3_linear_143_841)" stroke-width="6" stroke-dasharray="30 30"/>
<line x1="3855.12" y1="902.867" x2="2847.12" y2="592.867" stroke="url(#paint4_linear_143_841)" stroke-width="6" stroke-dasharray="30 30"/>
<line y1="-3" x2="1793.78" y2="-3" transform="matrix(0.895317 0.445429 0.445429 -0.895317 1663 958)" stroke="url(#paint5_linear_143_841)" stroke-width="6" stroke-dasharray="30 30"/>
<line y1="-3" x2="1835.98" y2="-3" transform="matrix(-0.900338 0.435191 0.435191 0.900338 3856 958)" stroke="url(#paint6_linear_143_841)" stroke-width="6" stroke-dasharray="30 30"/>
<line x1="2807.75" y1="641.741" x2="3329.75" y2="1723.74" stroke="url(#paint7_linear_143_841)" stroke-width="15"/>
<line x1="2145.35" y1="1717.52" x2="2708.35" y2="641.523" stroke="url(#paint8_linear_143_841)" stroke-width="15"/>
<line y1="-3.5" x2="676.805" y2="-3.5" transform="matrix(0.958917 -0.283686 -0.283686 -0.958917 1366 2023)" stroke="url(#paint9_linear_143_841)" stroke-width="7"/>
<line x1="2928" y1="2664.5" x2="3302" y2="2664.5" stroke="url(#paint10_linear_143_841)" stroke-width="7"/>
<line x1="4350" y1="2664.5" x2="4724" y2="2664.5" stroke="url(#paint11_linear_143_841)" stroke-width="7" stroke-dasharray="22 22"/>
<line x1="4109.01" y1="2026.36" x2="3460.01" y2="1834.36" stroke="url(#paint12_linear_143_841)" stroke-width="7"/>
<circle r="95.5" transform="matrix(1 0 0 -1 2107 1809)" stroke="#767382" stroke-width="9"/>
<circle r="95.5" transform="matrix(1 0 0 -1 1571 922)" stroke="#767382" stroke-width="9"/>
<path d="M2919.06 2740.06C2919.65 2739.47 2919.65 2738.53 2919.06 2737.94L2909.51 2728.39C2908.93 2727.81 2907.98 2727.81 2907.39 2728.39C2906.81 2728.98 2906.81 2729.93 2907.39 2730.51L2915.88 2739L2907.39 2747.49C2906.81 2748.07 2906.81 2749.02 2907.39 2749.61C2907.98 2750.19 2908.93 2750.19 2909.51 2749.61L2919.06 2740.06ZM2818 2740.5H2918V2737.5H2818V2740.5Z" fill="black"/>
<circle cx="3948" cy="922" r="95.5" transform="rotate(-180 3948 922)" stroke="#767382" stroke-width="9"/>
<circle r="95.5" transform="matrix(1 0 0 -1 1276 2058)" stroke="#767382" stroke-width="9"/>
<circle r="95.5" transform="matrix(1 0 0 -1 4203 2047)" stroke="#767382" stroke-width="9"/>
<circle r="95.5" transform="matrix(1 0 0 -1 3369 1809)" stroke="#767382" stroke-width="9"/>
<circle r="95.5" transform="matrix(1 0 0 -1 2759 558)" stroke="#767382" stroke-width="9"/>
<path d="M1279.18 2043.82C1277.42 2042.06 1274.58 2042.06 1272.82 2043.82L1244.18 2072.46C1242.42 2074.21 1242.42 2077.06 1244.18 2078.82C1245.94 2080.58 1248.79 2080.58 1250.54 2078.82L1276 2053.36L1301.46 2078.82C1303.21 2080.58 1306.06 2080.58 1307.82 2078.82C1309.58 2077.06 1309.58 2074.21 1307.82 2072.46L1279.18 2043.82ZM1280.5 2216L1280.5 2047L1271.5 2047L1271.5 2216L1280.5 2216Z" fill="#767382"/>
<path d="M4206.18 2043.82C4204.42 2042.06 4201.58 2042.06 4199.82 2043.82L4171.18 2072.46C4169.42 2074.21 4169.42 2077.06 4171.18 2078.82C4172.94 2080.58 4175.79 2080.58 4177.54 2078.82L4203 2053.36L4228.46 2078.82C4230.21 2080.58 4233.06 2080.58 4234.82 2078.82C4236.58 2077.06 4236.58 2074.21 4234.82 2072.46L4206.18 2043.82ZM4207.5 2216L4207.5 2047L4198.5 2047L4198.5 2216L4207.5 2216Z" fill="#767382"/>
<path d="M3951.18 911.818C3949.42 910.061 3946.58 910.061 3944.82 911.818L3916.18 940.456C3914.42 942.213 3914.42 945.062 3916.18 946.82C3917.94 948.577 3920.79 948.577 3922.54 946.82L3948 921.364L3973.46 946.82C3975.21 948.577 3978.06 948.577 3979.82 946.82C3981.58 945.062 3981.58 942.213 3979.82 940.456L3951.18 911.818ZM3952.5 1084L3952.5 915L3943.5 915L3943.5 1084L3952.5 1084Z" fill="#767382"/>
<path d="M1574.18 911.818C1572.42 910.061 1569.58 910.061 1567.82 911.818L1539.18 940.456C1537.42 942.213 1537.42 945.062 1539.18 946.82C1540.94 948.577 1543.79 948.577 1545.54 946.82L1571 921.364L1596.46 946.82C1598.21 948.577 1601.06 948.577 1602.82 946.82C1604.58 945.062 1604.58 942.213 1602.82 940.456L1574.18 911.818ZM1575.5 1084L1575.5 915L1566.5 915L1566.5 1084L1575.5 1084Z" fill="#767382"/>
<path d="M2762.18 364.818C2760.42 363.061 2757.58 363.061 2755.82 364.818L2727.18 393.456C2725.42 395.213 2725.42 398.062 2727.18 399.82C2728.94 401.577 2731.79 401.577 2733.54 399.82L2759 374.364L2784.46 399.82C2786.21 401.577 2789.06 401.577 2790.82 399.82C2792.58 398.062 2792.58 395.213 2790.82 393.456L2762.18 364.818ZM2763.5 548L2763.5 368L2754.5 368L2754.5 548L2763.5 548Z" fill="#767382"/>
<path d="M1008.33 1833H995.677L1018.72 1767.55H1033.36L1056.43 1833H1043.78L1026.29 1780.97H1025.78L1008.33 1833ZM1008.75 1807.34H1043.27V1816.86H1008.75V1807.34ZM1064.54 1833V1783.91H1076.11V1803.72H1080.33L1095.1 1783.91H1109.03L1090.85 1808.01L1109.22 1833H1095.23L1081.77 1814.5H1076.11V1833H1064.54ZM1113.1 1793.4V1783.91H1156.05V1793.4H1140.17V1833H1128.98V1793.4H1113.1ZM1176.42 1817.34L1196.08 1783.91H1207.96V1833H1196.78V1799.54L1177.19 1833H1165.27V1783.91H1176.42V1817.34ZM1219.85 1833V1783.91H1240.46C1246.28 1783.91 1250.87 1785.07 1254.24 1787.39C1257.62 1789.72 1259.32 1792.95 1259.32 1797.11C1259.32 1799.86 1258.36 1802.11 1256.44 1803.85C1254.54 1805.58 1251.96 1806.74 1248.67 1807.34C1251.25 1807.55 1253.51 1808.2 1255.45 1809.29C1257.41 1810.37 1258.94 1811.8 1260.05 1813.57C1261.16 1815.34 1261.71 1817.37 1261.71 1819.67C1261.71 1822.38 1261 1824.73 1259.57 1826.74C1258.17 1828.72 1256.11 1830.26 1253.4 1831.37C1250.72 1832.46 1247.46 1833 1243.62 1833H1219.85ZM1230.68 1823.89H1243.62C1245.76 1823.89 1247.43 1823.39 1248.64 1822.39C1249.86 1821.37 1250.46 1819.98 1250.46 1818.23C1250.46 1816.21 1249.86 1814.62 1248.64 1813.47C1247.43 1812.3 1245.76 1811.71 1243.62 1811.71H1230.68V1823.89ZM1230.68 1804.24H1240.68C1242.26 1804.24 1243.61 1804.01 1244.74 1803.56C1245.87 1803.1 1246.74 1802.45 1247.33 1801.62C1247.93 1800.76 1248.23 1799.75 1248.23 1798.58C1248.23 1796.9 1247.53 1795.57 1246.15 1794.62C1244.79 1793.66 1242.89 1793.18 1240.46 1793.18H1230.68V1804.24ZM1285.39 1833.99C1282.28 1833.99 1279.48 1833.44 1276.98 1832.33C1274.51 1831.2 1272.55 1829.54 1271.1 1827.34C1269.67 1825.15 1268.96 1822.44 1268.96 1819.23C1268.96 1816.46 1269.47 1814.16 1270.49 1812.35C1271.52 1810.54 1272.91 1809.09 1274.68 1808.01C1276.45 1806.92 1278.44 1806.1 1280.66 1805.55C1282.9 1804.97 1285.21 1804.56 1287.59 1804.3C1290.47 1804 1292.8 1803.74 1294.59 1803.5C1296.38 1803.25 1297.68 1802.86 1298.49 1802.35C1299.32 1801.82 1299.74 1801 1299.74 1799.89V1799.7C1299.74 1797.29 1299.02 1795.43 1297.6 1794.1C1296.17 1792.78 1294.11 1792.12 1291.43 1792.12C1288.6 1792.12 1286.35 1792.74 1284.69 1793.98C1283.04 1795.21 1281.94 1796.67 1281.36 1798.36L1270.56 1796.82C1271.41 1793.84 1272.82 1791.35 1274.78 1789.34C1276.74 1787.32 1279.13 1785.81 1281.97 1784.8C1284.8 1783.78 1287.93 1783.27 1291.36 1783.27C1293.73 1783.27 1296.08 1783.55 1298.43 1784.1C1300.77 1784.65 1302.91 1785.57 1304.85 1786.85C1306.79 1788.11 1308.35 1789.82 1309.52 1792C1310.71 1794.17 1311.31 1796.88 1311.31 1800.14V1833H1300.19V1826.26H1299.8C1299.1 1827.62 1298.11 1828.9 1296.83 1830.09C1295.57 1831.26 1293.99 1832.21 1292.07 1832.94C1290.17 1833.64 1287.95 1833.99 1285.39 1833.99ZM1288.39 1825.49C1290.72 1825.49 1292.73 1825.03 1294.43 1824.12C1296.14 1823.18 1297.45 1821.94 1298.36 1820.41C1299.3 1818.87 1299.77 1817.2 1299.77 1815.39V1809.61C1299.41 1809.9 1298.79 1810.18 1297.92 1810.44C1297.06 1810.69 1296.11 1810.92 1295.04 1811.11C1293.98 1811.3 1292.92 1811.47 1291.88 1811.62C1290.83 1811.77 1289.93 1811.9 1289.16 1812C1287.43 1812.24 1285.89 1812.62 1284.53 1813.15C1283.16 1813.69 1282.09 1814.43 1281.3 1815.39C1280.51 1816.33 1280.11 1817.54 1280.11 1819.03C1280.11 1821.16 1280.89 1822.77 1282.45 1823.86C1284 1824.95 1285.98 1825.49 1288.39 1825.49ZM1364.39 1783.91V1824.37H1371.9V1848.79H1360.59V1833H1322.94V1783.91H1334.1V1823.51H1353.34V1783.91H1364.39ZM1392.54 1817.34L1412.2 1783.91H1424.09V1833H1412.9V1799.54L1393.31 1833H1381.39V1783.91H1392.54V1817.34ZM1464.99 1833V1793.31H1454.51C1451.84 1793.31 1449.8 1793.92 1448.37 1795.16C1446.94 1796.39 1446.24 1797.93 1446.26 1799.76C1446.24 1801.59 1446.91 1803.11 1448.27 1804.3C1449.64 1805.49 1451.59 1806.09 1454.12 1806.09H1468.63V1814.53H1454.12C1450.2 1814.53 1446.81 1813.91 1443.96 1812.67C1441.1 1811.44 1438.91 1809.69 1437.38 1807.43C1435.84 1805.17 1435.07 1802.53 1435.07 1799.51C1435.07 1796.35 1435.85 1793.61 1437.41 1791.29C1438.98 1788.95 1441.22 1787.14 1444.12 1785.86C1447.04 1784.56 1450.5 1783.91 1454.51 1783.91H1475.82V1833H1464.99ZM1433.28 1833L1447 1807.82H1458.41L1444.66 1833H1433.28Z" fill="white"/>
<path d="M2275.45 2634.09V2685H2269.28V2639.56H2243.63V2685H2237.47V2634.09H2275.45ZM2287.09 2699.32V2646.82H2292.76V2652.88H2293.45C2293.88 2652.22 2294.48 2651.38 2295.24 2650.35C2296.02 2649.3 2297.13 2648.38 2298.57 2647.56C2300.03 2646.74 2302 2646.32 2304.49 2646.32C2307.7 2646.32 2310.54 2647.12 2312.99 2648.73C2315.44 2650.34 2317.36 2652.62 2318.73 2655.57C2320.11 2658.52 2320.8 2662 2320.8 2666.01C2320.8 2670.05 2320.11 2673.56 2318.73 2676.52C2317.36 2679.47 2315.45 2681.76 2313.02 2683.38C2310.58 2684.99 2307.77 2685.8 2304.59 2685.8C2302.14 2685.8 2300.17 2685.39 2298.7 2684.58C2297.22 2683.75 2296.09 2682.81 2295.29 2681.77C2294.5 2680.71 2293.88 2679.83 2293.45 2679.13H2292.96V2699.32H2287.09ZM2292.86 2665.91C2292.86 2668.79 2293.28 2671.34 2294.12 2673.54C2294.97 2675.73 2296.2 2677.44 2297.83 2678.69C2299.45 2679.91 2301.44 2680.53 2303.79 2680.53C2306.25 2680.53 2308.29 2679.88 2309.93 2678.59C2311.59 2677.28 2312.83 2675.52 2313.66 2673.32C2314.51 2671.1 2314.93 2668.63 2314.93 2665.91C2314.93 2663.22 2314.52 2660.8 2313.69 2658.65C2312.88 2656.48 2311.64 2654.76 2309.98 2653.5C2308.34 2652.23 2306.28 2651.59 2303.79 2651.59C2301.41 2651.59 2299.4 2652.2 2297.78 2653.41C2296.15 2654.6 2294.93 2656.27 2294.1 2658.43C2293.27 2660.56 2292.86 2663.06 2292.86 2665.91ZM2352.71 2685V2652.19H2342.57C2340.29 2652.19 2338.49 2652.72 2337.18 2653.78C2335.87 2654.84 2335.21 2656.3 2335.21 2658.15C2335.21 2659.98 2335.8 2661.41 2336.98 2662.45C2338.17 2663.5 2339.8 2664.02 2341.88 2664.02H2354.21V2669.49H2341.88C2339.29 2669.49 2337.06 2669.03 2335.19 2668.12C2333.32 2667.21 2331.87 2665.91 2330.86 2664.22C2329.85 2662.51 2329.35 2660.49 2329.35 2658.15C2329.35 2655.8 2329.88 2653.78 2330.94 2652.09C2332 2650.4 2333.52 2649.1 2335.49 2648.19C2337.48 2647.27 2339.84 2646.82 2342.57 2646.82H2358.28V2685H2352.71ZM2327.26 2685L2338.1 2666.01H2344.46L2333.62 2685H2327.26ZM2389.93 2677.05L2403.26 2646.82H2408.82L2392.32 2685H2387.55L2371.34 2646.82H2376.81L2389.93 2677.05ZM2374.92 2646.82V2685H2369.05V2646.82H2374.92ZM2404.95 2685V2646.82H2410.81V2685H2404.95ZM2437.06 2685.8C2433.62 2685.8 2430.59 2684.98 2427.99 2683.33C2425.4 2681.69 2423.38 2679.4 2421.92 2676.45C2420.48 2673.5 2419.76 2670.05 2419.76 2666.11C2419.76 2662.13 2420.48 2658.66 2421.92 2655.69C2423.38 2652.73 2425.4 2650.42 2427.99 2648.78C2430.59 2647.14 2433.62 2646.32 2437.06 2646.32C2440.51 2646.32 2443.53 2647.14 2446.11 2648.78C2448.71 2650.42 2450.74 2652.73 2452.18 2655.69C2453.64 2658.66 2454.36 2662.13 2454.36 2666.11C2454.36 2670.05 2453.64 2673.5 2452.18 2676.45C2450.74 2679.4 2448.71 2681.69 2446.11 2683.33C2443.53 2684.98 2440.51 2685.8 2437.06 2685.8ZM2437.06 2680.53C2439.68 2680.53 2441.84 2679.85 2443.53 2678.51C2445.22 2677.17 2446.47 2675.4 2447.28 2673.22C2448.09 2671.03 2448.5 2668.66 2448.5 2666.11C2448.5 2663.56 2448.09 2661.18 2447.28 2658.97C2446.47 2656.77 2445.22 2654.99 2443.53 2653.63C2441.84 2652.27 2439.68 2651.59 2437.06 2651.59C2434.44 2651.59 2432.29 2652.27 2430.6 2653.63C2428.91 2654.99 2427.66 2656.77 2426.85 2658.97C2426.03 2661.18 2425.63 2663.56 2425.63 2666.11C2425.63 2668.66 2426.03 2671.03 2426.85 2673.22C2427.66 2675.4 2428.91 2677.17 2430.6 2678.51C2432.29 2679.85 2434.44 2680.53 2437.06 2680.53ZM2486.88 2646.82V2652.29H2469.19V2685H2463.32V2646.82H2486.88ZM2508.98 2685.8C2505.53 2685.8 2502.51 2684.98 2499.9 2683.33C2497.32 2681.69 2495.3 2679.4 2493.84 2676.45C2492.4 2673.5 2491.68 2670.05 2491.68 2666.11C2491.68 2662.13 2492.4 2658.66 2493.84 2655.69C2495.3 2652.73 2497.32 2650.42 2499.9 2648.78C2502.51 2647.14 2505.53 2646.32 2508.98 2646.32C2512.42 2646.32 2515.44 2647.14 2518.03 2648.78C2520.63 2650.42 2522.65 2652.73 2524.09 2655.69C2525.55 2658.66 2526.28 2662.13 2526.28 2666.11C2526.28 2670.05 2525.55 2673.5 2524.09 2676.45C2522.65 2679.4 2520.63 2681.69 2518.03 2683.33C2515.44 2684.98 2512.42 2685.8 2508.98 2685.8ZM2508.98 2680.53C2511.6 2680.53 2513.75 2679.85 2515.44 2678.51C2517.13 2677.17 2518.38 2675.4 2519.19 2673.22C2520.01 2671.03 2520.41 2668.66 2520.41 2666.11C2520.41 2663.56 2520.01 2661.18 2519.19 2658.97C2518.38 2656.77 2517.13 2654.99 2515.44 2653.63C2513.75 2652.27 2511.6 2651.59 2508.98 2651.59C2506.36 2651.59 2504.2 2652.27 2502.51 2653.63C2500.82 2654.99 2499.57 2656.77 2498.76 2658.97C2497.95 2661.18 2497.54 2663.56 2497.54 2666.11C2497.54 2668.66 2497.95 2671.03 2498.76 2673.22C2499.57 2675.4 2500.82 2677.17 2502.51 2678.51C2504.2 2679.85 2506.36 2680.53 2508.98 2680.53ZM2550.84 2695.94V2679.53H2554.03C2554.81 2678.72 2555.48 2677.84 2556.04 2676.9C2556.6 2675.95 2557.09 2674.83 2557.51 2673.54C2557.94 2672.23 2558.3 2670.64 2558.6 2668.77C2558.9 2666.88 2559.16 2664.6 2559.4 2661.93L2560.69 2646.82H2584.95V2679.53H2590.82V2695.94H2584.95V2685H2556.71V2695.94H2550.84ZM2560.69 2679.53H2579.08V2652.29H2566.16L2565.16 2661.93C2564.75 2665.93 2564.23 2669.41 2563.62 2672.4C2563.01 2675.38 2562.03 2677.76 2560.69 2679.53ZM2614.61 2685.8C2610.93 2685.8 2607.76 2684.98 2605.09 2683.36C2602.44 2681.72 2600.39 2679.43 2598.95 2676.5C2597.53 2673.55 2596.81 2670.12 2596.81 2666.21C2596.81 2662.3 2597.53 2658.85 2598.95 2655.87C2600.39 2652.87 2602.4 2650.53 2604.97 2648.86C2607.55 2647.17 2610.57 2646.32 2614.01 2646.32C2616 2646.32 2617.97 2646.65 2619.91 2647.32C2621.84 2647.98 2623.61 2649.06 2625.2 2650.55C2626.79 2652.02 2628.06 2653.98 2629 2656.41C2629.95 2658.85 2630.42 2661.85 2630.42 2665.41V2667.9H2600.99V2662.83H2624.45C2624.45 2660.67 2624.02 2658.75 2623.16 2657.06C2622.32 2655.37 2621.11 2654.04 2619.53 2653.06C2617.98 2652.08 2616.14 2651.59 2614.01 2651.59C2611.68 2651.59 2609.66 2652.17 2607.95 2653.33C2606.26 2654.47 2604.96 2655.97 2604.05 2657.81C2603.14 2659.64 2602.68 2661.62 2602.68 2663.72V2667.1C2602.68 2669.99 2603.18 2672.43 2604.17 2674.44C2605.18 2676.42 2606.58 2677.94 2608.37 2678.98C2610.16 2680.01 2612.24 2680.53 2614.61 2680.53C2616.15 2680.53 2617.54 2680.31 2618.79 2679.88C2620.05 2679.43 2621.13 2678.77 2622.04 2677.89C2622.96 2677 2623.66 2675.89 2624.16 2674.56L2629.82 2676.15C2629.23 2678.07 2628.23 2679.76 2626.82 2681.22C2625.41 2682.66 2623.67 2683.79 2621.6 2684.6C2619.52 2685.4 2617.2 2685.8 2614.61 2685.8ZM2645.21 2676.35L2663.61 2646.82H2670.37V2685H2664.5V2655.47L2646.21 2685H2639.34V2646.82H2645.21V2676.35ZM2659.73 2634.09H2665.2C2665.2 2636.78 2664.27 2638.97 2662.41 2640.68C2660.56 2642.39 2658.04 2643.24 2654.86 2643.24C2651.72 2643.24 2649.23 2642.39 2647.37 2640.68C2645.53 2638.97 2644.61 2636.78 2644.61 2634.09H2650.08C2650.08 2635.38 2650.44 2636.52 2651.15 2637.5C2651.88 2638.47 2653.12 2638.96 2654.86 2638.96C2656.6 2638.96 2657.84 2638.47 2658.58 2637.5C2659.35 2636.52 2659.73 2635.38 2659.73 2634.09ZM2696.62 2685.8C2693.04 2685.8 2689.96 2684.95 2687.38 2683.26C2684.79 2681.57 2682.8 2679.24 2681.41 2676.27C2680.02 2673.31 2679.32 2669.92 2679.32 2666.11C2679.32 2662.23 2680.04 2658.81 2681.46 2655.84C2682.9 2652.86 2684.91 2650.53 2687.48 2648.86C2690.06 2647.17 2693.08 2646.32 2696.52 2646.32C2699.21 2646.32 2701.63 2646.82 2703.78 2647.81C2705.94 2648.81 2707.7 2650.2 2709.08 2651.99C2710.45 2653.78 2711.31 2655.87 2711.64 2658.25H2705.77C2705.32 2656.51 2704.33 2654.97 2702.79 2653.63C2701.26 2652.27 2699.21 2651.59 2696.62 2651.59C2694.34 2651.59 2692.33 2652.19 2690.61 2653.38C2688.9 2654.56 2687.57 2656.22 2686.61 2658.38C2685.66 2660.51 2685.19 2663.03 2685.19 2665.91C2685.19 2668.86 2685.65 2671.43 2686.58 2673.62C2687.53 2675.8 2688.85 2677.5 2690.56 2678.71C2692.28 2679.92 2694.3 2680.53 2696.62 2680.53C2698.15 2680.53 2699.53 2680.26 2700.78 2679.73C2702.02 2679.2 2703.07 2678.44 2703.93 2677.44C2704.79 2676.45 2705.41 2675.26 2705.77 2673.86H2711.64C2711.31 2676.12 2710.49 2678.15 2709.18 2679.95C2707.88 2681.74 2706.17 2683.17 2704.03 2684.23C2701.91 2685.27 2699.44 2685.8 2696.62 2685.8ZM2717.21 2652.29V2646.82H2748.23V2652.29H2735.7V2685H2729.83V2652.29H2717.21ZM2756.79 2685V2646.82H2772.4C2776.51 2646.82 2779.77 2647.75 2782.19 2649.6C2784.61 2651.46 2785.82 2653.91 2785.82 2656.96C2785.82 2659.28 2785.13 2661.08 2783.76 2662.35C2782.38 2663.61 2780.62 2664.47 2778.46 2664.91C2779.87 2665.11 2781.24 2665.61 2782.56 2666.41C2783.91 2667.2 2785.02 2668.3 2785.89 2669.69C2786.77 2671.06 2787.21 2672.75 2787.21 2674.76C2787.21 2676.71 2786.72 2678.46 2785.72 2680C2784.73 2681.54 2783.3 2682.76 2781.45 2683.66C2779.59 2684.55 2777.37 2685 2774.78 2685H2756.79ZM2762.35 2679.63H2774.78C2776.81 2679.63 2778.39 2679.15 2779.53 2678.19C2780.67 2677.23 2781.25 2675.92 2781.25 2674.26C2781.25 2672.29 2780.67 2670.74 2779.53 2669.61C2778.39 2668.47 2776.81 2667.9 2774.78 2667.9H2762.35V2679.63ZM2762.35 2662.83H2772.4C2773.97 2662.83 2775.32 2662.61 2776.45 2662.18C2777.58 2661.73 2778.44 2661.1 2779.03 2660.29C2779.65 2659.46 2779.95 2658.48 2779.95 2657.36C2779.95 2655.75 2779.28 2654.49 2777.94 2653.58C2776.6 2652.65 2774.75 2652.19 2772.4 2652.19H2762.35V2662.83ZM2801.96 2676.35L2820.35 2646.82H2827.12V2685H2821.25V2655.47L2802.95 2685H2796.09V2646.82H2801.96V2676.35ZM2860.83 2685V2652.19H2850.69C2848.4 2652.19 2846.6 2652.72 2845.29 2653.78C2843.98 2654.84 2843.33 2656.3 2843.33 2658.15C2843.33 2659.98 2843.92 2661.41 2845.09 2662.45C2846.29 2663.5 2847.92 2664.02 2849.99 2664.02H2862.32V2669.49H2849.99C2847.41 2669.49 2845.18 2669.03 2843.3 2668.12C2841.43 2667.21 2839.99 2665.91 2838.98 2664.22C2837.97 2662.51 2837.46 2660.49 2837.46 2658.15C2837.46 2655.8 2837.99 2653.78 2839.05 2652.09C2840.11 2650.4 2841.63 2649.1 2843.6 2648.19C2845.59 2647.27 2847.95 2646.82 2850.69 2646.82H2866.4V2685H2860.83ZM2835.37 2685L2846.21 2666.01H2852.58L2841.74 2685H2835.37Z" fill="white"/>
<path d="M742.69 2634.09V2685H736.525V2639.56H710.871V2685H704.707V2634.09H742.69ZM769.841 2685.8C766.394 2685.8 763.369 2684.98 760.767 2683.33C758.182 2681.69 756.16 2679.4 754.702 2676.45C753.26 2673.5 752.54 2670.05 752.54 2666.11C752.54 2662.13 753.26 2658.66 754.702 2655.69C756.16 2652.73 758.182 2650.42 760.767 2648.78C763.369 2647.14 766.394 2646.32 769.841 2646.32C773.288 2646.32 776.304 2647.14 778.889 2648.78C781.491 2650.42 783.513 2652.73 784.954 2655.69C786.413 2658.66 787.142 2662.13 787.142 2666.11C787.142 2670.05 786.413 2673.5 784.954 2676.45C783.513 2679.4 781.491 2681.69 778.889 2683.33C776.304 2684.98 773.288 2685.8 769.841 2685.8ZM769.841 2680.53C772.459 2680.53 774.613 2679.85 776.304 2678.51C777.994 2677.17 779.245 2675.4 780.057 2673.22C780.869 2671.03 781.275 2668.66 781.275 2666.11C781.275 2663.56 780.869 2661.18 780.057 2658.97C779.245 2656.77 777.994 2654.99 776.304 2653.63C774.613 2652.27 772.459 2651.59 769.841 2651.59C767.222 2651.59 765.068 2652.27 763.378 2653.63C761.687 2654.99 760.436 2656.77 759.624 2658.97C758.812 2661.18 758.406 2663.56 758.406 2666.11C758.406 2668.66 758.812 2671.03 759.624 2673.22C760.436 2675.4 761.687 2677.17 763.378 2678.51C765.068 2679.85 767.222 2680.53 769.841 2680.53ZM824.435 2632.5L827.418 2636.08C826.258 2637.21 824.916 2637.99 823.391 2638.44C821.866 2638.89 820.143 2639.16 818.22 2639.26C816.298 2639.36 814.16 2639.46 811.807 2639.56C809.156 2639.66 806.96 2640.31 805.22 2641.5C803.48 2642.69 802.137 2644.42 801.193 2646.67C800.248 2648.92 799.643 2651.69 799.378 2654.97H799.875C801.168 2652.59 802.958 2650.83 805.245 2649.7C807.532 2648.57 809.984 2648.01 812.603 2648.01C815.585 2648.01 818.27 2648.71 820.657 2650.1C823.043 2651.49 824.932 2653.55 826.324 2656.29C827.716 2659.02 828.412 2662.4 828.412 2666.41C828.412 2670.4 827.7 2673.85 826.274 2676.75C824.866 2679.65 822.885 2681.88 820.333 2683.46C817.798 2685.02 814.823 2685.8 811.409 2685.8C807.996 2685.8 805.004 2684.99 802.436 2683.38C799.867 2681.76 797.87 2679.36 796.445 2676.18C795.02 2672.98 794.307 2669.02 794.307 2664.32V2660.24C794.307 2651.74 795.749 2645.29 798.632 2640.9C801.532 2636.51 805.891 2634.24 811.708 2634.09C813.763 2634.02 815.594 2634.01 817.201 2634.04C818.809 2634.07 820.209 2634 821.402 2633.82C822.595 2633.64 823.606 2633.2 824.435 2632.5ZM811.409 2680.53C813.713 2680.53 815.693 2679.95 817.35 2678.79C819.024 2677.63 820.309 2675.99 821.203 2673.89C822.098 2671.77 822.546 2669.27 822.546 2666.41C822.546 2663.62 822.09 2661.25 821.179 2659.3C820.284 2657.34 818.999 2655.85 817.326 2654.82C815.652 2653.79 813.647 2653.28 811.31 2653.28C809.603 2653.28 808.07 2653.57 806.711 2654.15C805.352 2654.73 804.192 2655.58 803.231 2656.71C802.27 2657.84 801.524 2659.21 800.994 2660.84C800.48 2662.46 800.207 2664.32 800.174 2666.41C800.174 2670.68 801.176 2674.1 803.181 2676.67C805.187 2679.24 807.929 2680.53 811.409 2680.53ZM841.164 2699.32C840.17 2699.32 839.283 2699.24 838.505 2699.07C837.726 2698.92 837.187 2698.77 836.889 2698.62L838.38 2693.45C839.805 2693.82 841.065 2693.95 842.159 2693.85C843.252 2693.75 844.222 2693.26 845.067 2692.38C845.929 2691.52 846.716 2690.12 847.429 2688.18L848.522 2685.2L834.403 2646.82H840.767L851.306 2677.24H851.704L862.244 2646.82H868.608L852.4 2690.57C851.671 2692.54 850.768 2694.17 849.691 2695.47C848.613 2696.77 847.362 2697.74 845.937 2698.37C844.528 2699 842.938 2699.32 841.164 2699.32ZM873.964 2685L889.476 2665.61L874.163 2646.82H881.123L893.851 2663.12H897.033V2646.82H902.899V2663.12H905.981L918.709 2646.82H925.669L910.456 2665.61L925.868 2685H918.808L905.882 2668.59H902.899V2685H897.033V2668.59H894.05L881.024 2685H873.964ZM930.174 2695.94V2679.53H933.356C934.135 2678.72 934.806 2677.84 935.37 2676.9C935.933 2675.95 936.422 2674.83 936.836 2673.54C937.267 2672.23 937.632 2670.64 937.93 2668.77C938.228 2666.88 938.494 2664.6 938.726 2661.93L940.018 2646.82H964.28V2679.53H970.146V2695.94H964.28V2685H936.041V2695.94H930.174ZM940.018 2679.53H958.413V2652.29H945.487L944.493 2661.93C944.078 2665.93 943.565 2669.41 942.951 2672.4C942.338 2675.38 941.361 2677.76 940.018 2679.53ZM993.941 2685.8C990.262 2685.8 987.089 2684.98 984.421 2683.36C981.769 2681.72 979.723 2679.43 978.281 2676.5C976.856 2673.55 976.143 2670.12 976.143 2666.21C976.143 2662.3 976.856 2658.85 978.281 2655.87C979.723 2652.87 981.728 2650.53 984.296 2648.86C986.882 2647.17 989.898 2646.32 993.345 2646.32C995.333 2646.32 997.297 2646.65 999.236 2647.32C1001.17 2647.98 1002.94 2649.06 1004.53 2650.55C1006.12 2652.02 1007.39 2653.98 1008.33 2656.41C1009.28 2658.85 1009.75 2661.85 1009.75 2665.41V2667.9H980.319V2662.83H1003.79C1003.79 2660.67 1003.35 2658.75 1002.49 2657.06C1001.65 2655.37 1000.44 2654.04 998.863 2653.06C997.305 2652.08 995.466 2651.59 993.345 2651.59C991.008 2651.59 988.986 2652.17 987.279 2653.33C985.589 2654.47 984.288 2655.97 983.377 2657.81C982.465 2659.64 982.009 2661.62 982.009 2663.72V2667.1C982.009 2669.99 982.507 2672.43 983.501 2674.44C984.512 2676.42 985.912 2677.94 987.702 2678.98C989.492 2680.01 991.572 2680.53 993.941 2680.53C995.483 2680.53 996.875 2680.31 998.117 2679.88C999.377 2679.43 1000.46 2678.77 1001.37 2677.89C1002.29 2677 1002.99 2675.89 1003.49 2674.56L1009.15 2676.15C1008.56 2678.07 1007.56 2679.76 1006.15 2681.22C1004.74 2682.66 1003 2683.79 1000.93 2684.6C998.855 2685.4 996.527 2685.8 993.941 2685.8ZM1044.23 2663.22V2668.69H1023.15V2663.22H1044.23ZM1024.54 2646.82V2685H1018.67V2646.82H1024.54ZM1048.7 2646.82V2685H1042.84V2646.82H1048.7ZM1065.28 2676.35L1083.68 2646.82H1090.44V2685H1084.57V2655.47L1066.28 2685H1059.42V2646.82H1065.28V2676.35ZM1117.19 2685.8C1113.51 2685.8 1110.34 2684.98 1107.67 2683.36C1105.02 2681.72 1102.97 2679.43 1101.53 2676.5C1100.11 2673.55 1099.39 2670.12 1099.39 2666.21C1099.39 2662.3 1100.11 2658.85 1101.53 2655.87C1102.97 2652.87 1104.98 2650.53 1107.55 2648.86C1110.13 2647.17 1113.15 2646.32 1116.6 2646.32C1118.59 2646.32 1120.55 2646.65 1122.49 2647.32C1124.43 2647.98 1126.19 2649.06 1127.78 2650.55C1129.37 2652.02 1130.64 2653.98 1131.59 2656.41C1132.53 2658.85 1133 2661.85 1133 2665.41V2667.9H1103.57V2662.83H1127.04C1127.04 2660.67 1126.61 2658.75 1125.74 2657.06C1124.9 2655.37 1123.69 2654.04 1122.12 2653.06C1120.56 2652.08 1118.72 2651.59 1116.6 2651.59C1114.26 2651.59 1112.24 2652.17 1110.53 2653.33C1108.84 2654.47 1107.54 2655.97 1106.63 2657.81C1105.72 2659.64 1105.26 2661.62 1105.26 2663.72V2667.1C1105.26 2669.99 1105.76 2672.43 1106.75 2674.44C1107.76 2676.42 1109.16 2677.94 1110.95 2678.98C1112.74 2680.01 1114.82 2680.53 1117.19 2680.53C1118.73 2680.53 1120.13 2680.31 1121.37 2679.88C1122.63 2679.43 1123.71 2678.77 1124.63 2677.89C1125.54 2677 1126.24 2675.89 1126.74 2674.56L1132.41 2676.15C1131.81 2678.07 1130.81 2679.76 1129.4 2681.22C1127.99 2682.66 1126.25 2683.79 1124.18 2684.6C1122.11 2685.4 1119.78 2685.8 1117.19 2685.8Z" fill="white"/>
<path d="M1457.47 2639.56V2634.09H1495.65V2639.56H1479.65V2685H1473.48V2639.56H1457.47ZM1514.35 2685.8C1510.9 2685.8 1507.88 2684.98 1505.27 2683.33C1502.69 2681.69 1500.67 2679.4 1499.21 2676.45C1497.77 2673.5 1497.05 2670.05 1497.05 2666.11C1497.05 2662.13 1497.77 2658.66 1499.21 2655.69C1500.67 2652.73 1502.69 2650.42 1505.27 2648.78C1507.88 2647.14 1510.9 2646.32 1514.35 2646.32C1517.79 2646.32 1520.81 2647.14 1523.4 2648.78C1526 2650.42 1528.02 2652.73 1529.46 2655.69C1530.92 2658.66 1531.65 2662.13 1531.65 2666.11C1531.65 2670.05 1530.92 2673.5 1529.46 2676.45C1528.02 2679.4 1526 2681.69 1523.4 2683.33C1520.81 2684.98 1517.79 2685.8 1514.35 2685.8ZM1514.35 2680.53C1516.97 2680.53 1519.12 2679.85 1520.81 2678.51C1522.5 2677.17 1523.75 2675.4 1524.56 2673.22C1525.38 2671.03 1525.78 2668.66 1525.78 2666.11C1525.78 2663.56 1525.38 2661.18 1524.56 2658.97C1523.75 2656.77 1522.5 2654.99 1520.81 2653.63C1519.12 2652.27 1516.97 2651.59 1514.35 2651.59C1511.73 2651.59 1509.57 2652.27 1507.88 2653.63C1506.19 2654.99 1504.94 2656.77 1504.13 2658.97C1503.32 2661.18 1502.91 2663.56 1502.91 2666.11C1502.91 2668.66 1503.32 2671.03 1504.13 2673.22C1504.94 2675.4 1506.19 2677.17 1507.88 2678.51C1509.57 2679.85 1511.73 2680.53 1514.35 2680.53ZM1540.6 2699.32V2646.82H1546.27V2652.88H1546.97C1547.4 2652.22 1547.99 2651.38 1548.76 2650.35C1549.54 2649.3 1550.65 2648.38 1552.09 2647.56C1553.55 2646.74 1555.52 2646.32 1558 2646.32C1561.22 2646.32 1564.05 2647.12 1566.51 2648.73C1568.96 2650.34 1570.87 2652.62 1572.25 2655.57C1573.62 2658.52 1574.31 2662 1574.31 2666.01C1574.31 2670.05 1573.62 2673.56 1572.25 2676.52C1570.87 2679.47 1568.97 2681.76 1566.53 2683.38C1564.09 2684.99 1561.29 2685.8 1558.1 2685.8C1555.65 2685.8 1553.69 2685.39 1552.21 2684.58C1550.74 2683.75 1549.6 2682.81 1548.81 2681.77C1548.01 2680.71 1547.4 2679.83 1546.97 2679.13H1546.47V2699.32H1540.6ZM1546.37 2665.91C1546.37 2668.79 1546.79 2671.34 1547.64 2673.54C1548.48 2675.73 1549.72 2677.44 1551.34 2678.69C1552.97 2679.91 1554.96 2680.53 1557.31 2680.53C1559.76 2680.53 1561.81 2679.88 1563.45 2678.59C1565.11 2677.28 1566.35 2675.52 1567.18 2673.32C1568.02 2671.1 1568.44 2668.63 1568.44 2665.91C1568.44 2663.22 1568.03 2660.8 1567.2 2658.65C1566.39 2656.48 1565.16 2654.76 1563.5 2653.5C1561.86 2652.23 1559.79 2651.59 1557.31 2651.59C1554.92 2651.59 1552.92 2652.2 1551.29 2653.41C1549.67 2654.6 1548.44 2656.27 1547.61 2658.43C1546.79 2660.56 1546.37 2663.06 1546.37 2665.91ZM1604.14 2677.05L1617.46 2646.82H1623.03L1606.53 2685H1601.75L1585.55 2646.82H1591.02L1604.14 2677.05ZM1589.13 2646.82V2685H1583.26V2646.82H1589.13ZM1619.15 2685V2646.82H1625.02V2685H1619.15ZM1651.27 2685.8C1647.82 2685.8 1644.8 2684.98 1642.2 2683.33C1639.61 2681.69 1637.59 2679.4 1636.13 2676.45C1634.69 2673.5 1633.97 2670.05 1633.97 2666.11C1633.97 2662.13 1634.69 2658.66 1636.13 2655.69C1637.59 2652.73 1639.61 2650.42 1642.2 2648.78C1644.8 2647.14 1647.82 2646.32 1651.27 2646.32C1654.72 2646.32 1657.73 2647.14 1660.32 2648.78C1662.92 2650.42 1664.94 2652.73 1666.38 2655.69C1667.84 2658.66 1668.57 2662.13 1668.57 2666.11C1668.57 2670.05 1667.84 2673.5 1666.38 2676.45C1664.94 2679.4 1662.92 2681.69 1660.32 2683.33C1657.73 2684.98 1654.72 2685.8 1651.27 2685.8ZM1651.27 2680.53C1653.89 2680.53 1656.04 2679.85 1657.73 2678.51C1659.42 2677.17 1660.68 2675.4 1661.49 2673.22C1662.3 2671.03 1662.71 2668.66 1662.71 2666.11C1662.71 2663.56 1662.3 2661.18 1661.49 2658.97C1660.68 2656.77 1659.42 2654.99 1657.73 2653.63C1656.04 2652.27 1653.89 2651.59 1651.27 2651.59C1648.65 2651.59 1646.5 2652.27 1644.81 2653.63C1643.12 2654.99 1641.87 2656.77 1641.05 2658.97C1640.24 2661.18 1639.84 2663.56 1639.84 2666.11C1639.84 2668.66 1640.24 2671.03 1641.05 2673.22C1641.87 2675.4 1643.12 2677.17 1644.81 2678.51C1646.5 2679.85 1648.65 2680.53 1651.27 2680.53ZM1673.57 2685L1689.08 2665.61L1673.77 2646.82H1680.73L1693.46 2663.12H1696.64V2646.82H1702.5V2663.12H1705.59L1718.31 2646.82H1725.27L1710.06 2665.61L1725.47 2685H1718.41L1705.49 2668.59H1702.5V2685H1696.64V2668.59H1693.65L1680.63 2685H1673.57ZM1748.29 2685.8C1744.61 2685.8 1741.44 2684.98 1738.77 2683.36C1736.12 2681.72 1734.07 2679.43 1732.63 2676.5C1731.21 2673.55 1730.49 2670.12 1730.49 2666.21C1730.49 2662.3 1731.21 2658.85 1732.63 2655.87C1734.07 2652.87 1736.08 2650.53 1738.65 2648.86C1741.23 2647.17 1744.25 2646.32 1747.7 2646.32C1749.68 2646.32 1751.65 2646.65 1753.59 2647.32C1755.53 2647.98 1757.29 2649.06 1758.88 2650.55C1760.47 2652.02 1761.74 2653.98 1762.68 2656.41C1763.63 2658.85 1764.1 2661.85 1764.1 2665.41V2667.9H1734.67V2662.83H1758.14C1758.14 2660.67 1757.7 2658.75 1756.84 2657.06C1756 2655.37 1754.79 2654.04 1753.21 2653.06C1751.66 2652.08 1749.82 2651.59 1747.7 2651.59C1745.36 2651.59 1743.34 2652.17 1741.63 2653.33C1739.94 2654.47 1738.64 2655.97 1737.73 2657.81C1736.82 2659.64 1736.36 2661.62 1736.36 2663.72V2667.1C1736.36 2669.99 1736.86 2672.43 1737.85 2674.44C1738.86 2676.42 1740.26 2677.94 1742.05 2678.98C1743.84 2680.01 1745.92 2680.53 1748.29 2680.53C1749.83 2680.53 1751.23 2680.31 1752.47 2679.88C1753.73 2679.43 1754.81 2678.77 1755.72 2677.89C1756.64 2677 1757.34 2675.89 1757.84 2674.56L1763.5 2676.15C1762.91 2678.07 1761.91 2679.76 1760.5 2681.22C1759.09 2682.66 1757.35 2683.79 1755.28 2684.6C1753.21 2685.4 1750.88 2685.8 1748.29 2685.8ZM1798.58 2663.22V2668.69H1777.5V2663.22H1798.58ZM1778.89 2646.82V2685H1773.03V2646.82H1778.89ZM1803.05 2646.82V2685H1797.19V2646.82H1803.05ZM1819.63 2676.35L1838.03 2646.82H1844.79V2685H1838.92V2655.47L1820.63 2685H1813.77V2646.82H1819.63V2676.35ZM1871.54 2685.8C1867.86 2685.8 1864.69 2684.98 1862.02 2683.36C1859.37 2681.72 1857.33 2679.43 1855.88 2676.5C1854.46 2673.55 1853.75 2670.12 1853.75 2666.21C1853.75 2662.3 1854.46 2658.85 1855.88 2655.87C1857.33 2652.87 1859.33 2650.53 1861.9 2648.86C1864.48 2647.17 1867.5 2646.32 1870.95 2646.32C1872.94 2646.32 1874.9 2646.65 1876.84 2647.32C1878.78 2647.98 1880.54 2649.06 1882.13 2650.55C1883.72 2652.02 1884.99 2653.98 1885.94 2656.41C1886.88 2658.85 1887.35 2661.85 1887.35 2665.41V2667.9H1857.92V2662.83H1881.39C1881.39 2660.67 1880.96 2658.75 1880.09 2657.06C1879.25 2655.37 1878.04 2654.04 1876.47 2653.06C1874.91 2652.08 1873.07 2651.59 1870.95 2651.59C1868.61 2651.59 1866.59 2652.17 1864.88 2653.33C1863.19 2654.47 1861.89 2655.97 1860.98 2657.81C1860.07 2659.64 1859.61 2661.62 1859.61 2663.72V2667.1C1859.61 2669.99 1860.11 2672.43 1861.1 2674.44C1862.11 2676.42 1863.51 2677.94 1865.3 2678.98C1867.09 2680.01 1869.17 2680.53 1871.54 2680.53C1873.09 2680.53 1874.48 2680.31 1875.72 2679.88C1876.98 2679.43 1878.06 2678.77 1878.98 2677.89C1879.89 2677 1880.59 2675.89 1881.09 2674.56L1886.76 2676.15C1886.16 2678.07 1885.16 2679.76 1883.75 2681.22C1882.34 2682.66 1880.6 2683.79 1878.53 2684.6C1876.46 2685.4 1874.13 2685.8 1871.54 2685.8Z" fill="white"/>
<path d="M3761.25 2634.09H3768.61L3785.91 2676.35H3786.5L3803.81 2634.09H3811.16V2685H3805.4V2646.32H3804.9L3788.99 2685H3783.42L3767.51 2646.32H3767.02V2685H3761.25V2634.09ZM3838.24 2685.8C3834.79 2685.8 3831.77 2684.98 3829.17 2683.33C3826.58 2681.69 3824.56 2679.4 3823.1 2676.45C3821.66 2673.5 3820.94 2670.05 3820.94 2666.11C3820.94 2662.13 3821.66 2658.66 3823.1 2655.69C3824.56 2652.73 3826.58 2650.42 3829.17 2648.78C3831.77 2647.14 3834.79 2646.32 3838.24 2646.32C3841.69 2646.32 3844.7 2647.14 3847.29 2648.78C3849.89 2650.42 3851.91 2652.73 3853.35 2655.69C3854.81 2658.66 3855.54 2662.13 3855.54 2666.11C3855.54 2670.05 3854.81 2673.5 3853.35 2676.45C3851.91 2679.4 3849.89 2681.69 3847.29 2683.33C3844.7 2684.98 3841.69 2685.8 3838.24 2685.8ZM3838.24 2680.53C3840.86 2680.53 3843.01 2679.85 3844.7 2678.51C3846.39 2677.17 3847.64 2675.4 3848.46 2673.22C3849.27 2671.03 3849.67 2668.66 3849.67 2666.11C3849.67 2663.56 3849.27 2661.18 3848.46 2658.97C3847.64 2656.77 3846.39 2654.99 3844.7 2653.63C3843.01 2652.27 3840.86 2651.59 3838.24 2651.59C3835.62 2651.59 3833.47 2652.27 3831.78 2653.63C3830.09 2654.99 3828.84 2656.77 3828.02 2658.97C3827.21 2661.18 3826.81 2663.56 3826.81 2666.11C3826.81 2668.66 3827.21 2671.03 3828.02 2673.22C3828.84 2675.4 3830.09 2677.17 3831.78 2678.51C3833.47 2679.85 3835.62 2680.53 3838.24 2680.53ZM3860.42 2695.94V2679.53H3863.6C3864.38 2678.72 3865.05 2677.84 3865.61 2676.9C3866.18 2675.95 3866.67 2674.83 3867.08 2673.54C3867.51 2672.23 3867.88 2670.64 3868.18 2668.77C3868.47 2666.88 3868.74 2664.6 3868.97 2661.93L3870.26 2646.82H3894.52V2679.53H3900.39V2695.94H3894.52V2685H3866.29V2695.94H3860.42ZM3870.26 2679.53H3888.66V2652.29H3875.73L3874.74 2661.93C3874.32 2665.93 3873.81 2669.41 3873.2 2672.4C3872.58 2675.38 3871.61 2677.76 3870.26 2679.53ZM3911.96 2699.32C3910.96 2699.32 3910.08 2699.24 3909.3 2699.07C3908.52 2698.92 3907.98 2698.77 3907.68 2698.62L3909.17 2693.45C3910.6 2693.82 3911.86 2693.95 3912.95 2693.85C3914.04 2693.75 3915.01 2693.26 3915.86 2692.38C3916.72 2691.52 3917.51 2690.12 3918.22 2688.18L3919.31 2685.2L3905.19 2646.82H3911.56L3922.1 2677.24H3922.5L3933.04 2646.82H3939.4L3923.19 2690.57C3922.46 2692.54 3921.56 2694.17 3920.48 2695.47C3919.41 2696.77 3918.15 2697.74 3916.73 2698.37C3915.32 2699 3913.73 2699.32 3911.96 2699.32ZM3940.55 2685V2679.53H3941.94C3943.08 2679.53 3944.04 2679.31 3944.8 2678.86C3945.56 2678.4 3946.18 2677.59 3946.64 2676.45C3947.12 2675.29 3947.48 2673.68 3947.73 2671.63C3948 2669.55 3948.19 2666.92 3948.3 2663.72L3949 2646.82H3974.46V2685H3968.59V2652.29H3954.57L3953.97 2665.91C3953.84 2669.04 3953.56 2671.8 3953.13 2674.19C3952.71 2676.56 3952.07 2678.55 3951.21 2680.15C3950.37 2681.76 3949.24 2682.97 3947.83 2683.78C3946.42 2684.59 3944.66 2685 3942.54 2685H3940.55ZM3991.09 2676.35L4009.48 2646.82H4016.24V2685H4010.38V2655.47L3992.08 2685H3985.22V2646.82H3991.09V2676.35ZM4026.99 2699.32V2646.82H4032.65V2652.88H4033.35C4033.78 2652.22 4034.38 2651.38 4035.14 2650.35C4035.92 2649.3 4037.03 2648.38 4038.47 2647.56C4039.93 2646.74 4041.9 2646.32 4044.39 2646.32C4047.6 2646.32 4050.44 2647.12 4052.89 2648.73C4055.34 2650.34 4057.26 2652.62 4058.63 2655.57C4060.01 2658.52 4060.69 2662 4060.69 2666.01C4060.69 2670.05 4060.01 2673.56 4058.63 2676.52C4057.26 2679.47 4055.35 2681.76 4052.91 2683.38C4050.48 2684.99 4047.67 2685.8 4044.49 2685.8C4042.03 2685.8 4040.07 2685.39 4038.6 2684.58C4037.12 2683.75 4035.99 2682.81 4035.19 2681.77C4034.39 2680.71 4033.78 2679.83 4033.35 2679.13H4032.85V2699.32H4026.99ZM4032.75 2665.91C4032.75 2668.79 4033.18 2671.34 4034.02 2673.54C4034.87 2675.73 4036.1 2677.44 4037.73 2678.69C4039.35 2679.91 4041.34 2680.53 4043.69 2680.53C4046.14 2680.53 4048.19 2679.88 4049.83 2678.59C4051.49 2677.28 4052.73 2675.52 4053.56 2673.32C4054.4 2671.1 4054.83 2668.63 4054.83 2665.91C4054.83 2663.22 4054.41 2660.8 4053.58 2658.65C4052.77 2656.48 4051.54 2654.76 4049.88 2653.5C4048.24 2652.23 4046.18 2651.59 4043.69 2651.59C4041.3 2651.59 4039.3 2652.2 4037.68 2653.41C4036.05 2654.6 4034.83 2656.27 4034 2658.43C4033.17 2660.56 4032.75 2663.06 4032.75 2665.91ZM4072.05 2699.32C4071.06 2699.32 4070.17 2699.24 4069.39 2699.07C4068.62 2698.92 4068.08 2698.77 4067.78 2698.62L4069.27 2693.45C4070.7 2693.82 4071.95 2693.95 4073.05 2693.85C4074.14 2693.75 4075.11 2693.26 4075.96 2692.38C4076.82 2691.52 4077.61 2690.12 4078.32 2688.18L4079.41 2685.2L4065.29 2646.82H4071.66L4082.2 2677.24H4082.59L4093.13 2646.82H4099.5L4083.29 2690.57C4082.56 2692.54 4081.66 2694.17 4080.58 2695.47C4079.5 2696.77 4078.25 2697.74 4076.83 2698.37C4075.42 2699 4073.83 2699.32 4072.05 2699.32ZM4125.54 2663.52V2668.99H4105.35V2663.52H4125.54ZM4110.32 2646.82V2685H4104.46V2646.82H4110.32ZM4137.27 2685.8C4133.82 2685.8 4130.8 2684.98 4128.2 2683.33C4125.61 2681.69 4123.59 2679.4 4122.13 2676.45C4120.69 2673.5 4119.97 2670.05 4119.97 2666.11C4119.97 2662.13 4120.69 2658.66 4122.13 2655.69C4123.59 2652.73 4125.61 2650.42 4128.2 2648.78C4130.8 2647.14 4133.82 2646.32 4137.27 2646.32C4140.72 2646.32 4143.73 2647.14 4146.32 2648.78C4148.92 2650.42 4150.94 2652.73 4152.38 2655.69C4153.84 2658.66 4154.57 2662.13 4154.57 2666.11C4154.57 2670.05 4153.84 2673.5 4152.38 2676.45C4150.94 2679.4 4148.92 2681.69 4146.32 2683.33C4143.73 2684.98 4140.72 2685.8 4137.27 2685.8ZM4137.27 2680.53C4139.89 2680.53 4142.04 2679.85 4143.73 2678.51C4145.42 2677.17 4146.67 2675.4 4147.49 2673.22C4148.3 2671.03 4148.7 2668.66 4148.7 2666.11C4148.7 2663.56 4148.3 2661.18 4147.49 2658.97C4146.67 2656.77 4145.42 2654.99 4143.73 2653.63C4142.04 2652.27 4139.89 2651.59 4137.27 2651.59C4134.65 2651.59 4132.5 2652.27 4130.81 2653.63C4129.12 2654.99 4127.86 2656.77 4127.05 2658.97C4126.24 2661.18 4125.83 2663.56 4125.83 2666.11C4125.83 2668.66 4126.24 2671.03 4127.05 2673.22C4127.86 2675.4 4129.12 2677.17 4130.81 2678.51C4132.5 2679.85 4134.65 2680.53 4137.27 2680.53ZM4216.22 2679.53L4215.52 2695.94H4209.46V2685H4204.48V2679.53H4216.22ZM4164.12 2646.82H4169.98V2679.53H4184.4V2646.82H4190.27V2679.53H4204.68V2646.82H4210.55V2685H4164.12V2646.82ZM4230.62 2676.35L4249.01 2646.82H4255.77V2685H4249.91V2655.47L4231.61 2685H4224.75V2646.82H4230.62V2676.35ZM4272.38 2676.35L4290.78 2646.82H4297.54V2685H4291.67V2655.47L4273.38 2685H4266.52V2646.82H4272.38V2676.35ZM4286.9 2634.09H4292.37C4292.37 2636.78 4291.44 2638.97 4289.59 2640.68C4287.73 2642.39 4285.21 2643.24 4282.03 2643.24C4278.9 2643.24 4276.4 2642.39 4274.55 2640.68C4272.71 2638.97 4271.79 2636.78 4271.79 2634.09H4277.26C4277.26 2635.38 4277.61 2636.52 4278.33 2637.5C4279.05 2638.47 4280.29 2638.96 4282.03 2638.96C4283.77 2638.96 4285.01 2638.47 4285.76 2637.5C4286.52 2636.52 4286.9 2635.38 4286.9 2634.09Z" fill="white"/>
<path d="M1094.34 713.895V703.923H1098.08C1099.76 703.923 1101.15 703.678 1102.24 703.188C1103.32 702.698 1104.2 701.995 1104.86 701.079C1105.54 700.163 1106.1 699.097 1106.55 697.883L1107.41 695.678L1084.02 647.545H1096.42L1112.72 682.574L1126.81 647.545H1139.02L1116.46 700.919C1115.41 703.22 1114.21 705.362 1112.85 707.343C1111.48 709.303 1109.7 710.891 1107.51 712.105C1105.34 713.298 1102.5 713.895 1099.01 713.895H1094.34ZM1143.35 713V663.909H1163.97C1169.78 663.909 1174.38 665.07 1177.74 667.393C1181.13 669.715 1182.82 672.954 1182.82 677.109C1182.82 679.857 1181.86 682.105 1179.95 683.852C1178.05 685.578 1175.46 686.739 1172.18 687.336C1174.76 687.549 1177.02 688.199 1178.96 689.286C1180.92 690.372 1182.45 691.8 1183.56 693.568C1184.67 695.337 1185.22 697.371 1185.22 699.673C1185.22 702.379 1184.51 704.733 1183.08 706.736C1181.67 708.717 1179.62 710.262 1176.91 711.37C1174.23 712.457 1170.97 713 1167.13 713H1143.35ZM1154.19 703.891H1167.13C1169.26 703.891 1170.93 703.391 1172.15 702.389C1173.36 701.366 1173.97 699.982 1173.97 698.234C1173.97 696.21 1173.36 694.623 1172.15 693.472C1170.93 692.3 1169.26 691.714 1167.13 691.714H1154.19V703.891ZM1154.19 684.236H1164.19C1165.77 684.236 1167.12 684.012 1168.25 683.565C1169.38 683.096 1170.24 682.446 1170.84 681.615C1171.44 680.763 1171.73 679.751 1171.73 678.579C1171.73 676.896 1171.04 675.575 1169.66 674.616C1168.29 673.657 1166.4 673.178 1163.97 673.178H1154.19V684.236ZM1216.5 713.959C1211.58 713.959 1207.33 712.936 1203.75 710.891C1200.19 708.824 1197.45 705.905 1195.54 702.134C1193.62 698.341 1192.66 693.877 1192.66 688.742C1192.66 683.692 1193.62 679.261 1195.54 675.447C1197.47 671.612 1200.18 668.629 1203.65 666.498C1207.13 664.346 1211.21 663.27 1215.89 663.27C1218.92 663.27 1221.78 663.76 1224.46 664.74C1227.17 665.699 1229.55 667.19 1231.62 669.214C1233.71 671.239 1235.35 673.817 1236.54 676.949C1237.73 680.06 1238.33 683.767 1238.33 688.071V691.619H1198.09V683.82H1227.24C1227.22 681.604 1226.74 679.634 1225.8 677.908C1224.86 676.161 1223.55 674.786 1221.87 673.785C1220.21 672.783 1218.27 672.283 1216.05 672.283C1213.69 672.283 1211.61 672.858 1209.82 674.009C1208.03 675.138 1206.64 676.629 1205.64 678.483C1204.66 680.315 1204.15 682.329 1204.13 684.523V691.331C1204.13 694.186 1204.66 696.636 1205.7 698.682C1206.74 700.706 1208.2 702.261 1210.08 703.348C1211.95 704.413 1214.15 704.946 1216.66 704.946C1218.34 704.946 1219.87 704.712 1221.23 704.243C1222.6 703.753 1223.78 703.039 1224.78 702.102C1225.78 701.164 1226.54 700.003 1227.05 698.618L1237.85 699.832C1237.17 702.687 1235.87 705.18 1233.95 707.311C1232.06 709.42 1229.63 711.061 1226.67 712.233C1223.7 713.384 1220.32 713.959 1216.5 713.959ZM1244.73 713L1244.67 703.476H1246.36C1247.64 703.476 1248.72 703.188 1249.59 702.613C1250.46 702.038 1251.19 701.079 1251.76 699.737C1252.34 698.373 1252.78 696.54 1253.1 694.239C1253.42 691.938 1253.65 689.072 1253.78 685.642L1254.64 663.909H1290.43V713H1279.25V673.401H1265.15L1264.39 689.222C1264.19 693.312 1263.74 696.86 1263.01 699.864C1262.31 702.847 1261.31 705.308 1260.01 707.247C1258.73 709.186 1257.12 710.635 1255.18 711.594C1253.24 712.531 1250.95 713 1248.31 713H1244.73ZM1313.24 697.339L1332.89 663.909H1344.78V713H1333.6V679.538L1314 713H1302.08V663.909H1313.24V697.339ZM1397.67 663.909V713H1386.55V663.909H1397.67ZM1392.46 686.089V695.55C1391.2 696.104 1389.77 696.604 1388.18 697.052C1386.6 697.478 1384.93 697.819 1383.16 698.075C1381.41 698.33 1379.66 698.458 1377.92 698.458C1371.35 698.458 1366.17 696.988 1362.35 694.048C1358.56 691.086 1356.66 686.473 1356.66 680.209V663.845H1367.72V680.209C1367.72 682.318 1368.09 684.012 1368.84 685.29C1369.59 686.569 1370.72 687.506 1372.23 688.103C1373.74 688.678 1375.64 688.966 1377.92 688.966C1380.47 688.966 1382.9 688.71 1385.2 688.199C1387.5 687.688 1389.92 686.984 1392.46 686.089ZM1431.04 713.959C1426.12 713.959 1421.87 712.936 1418.29 710.891C1414.73 708.824 1411.99 705.905 1410.08 702.134C1408.16 698.341 1407.2 693.877 1407.2 688.742C1407.2 683.692 1408.16 679.261 1410.08 675.447C1412.02 671.612 1414.72 668.629 1418.19 666.498C1421.67 664.346 1425.75 663.27 1430.44 663.27C1433.46 663.27 1436.32 663.76 1439 664.74C1441.71 665.699 1444.09 667.19 1446.16 669.214C1448.25 671.239 1449.89 673.817 1451.08 676.949C1452.28 680.06 1452.87 683.767 1452.87 688.071V691.619H1412.63V683.82H1441.78C1441.76 681.604 1441.28 679.634 1440.34 677.908C1439.41 676.161 1438.1 674.786 1436.41 673.785C1434.75 672.783 1432.81 672.283 1430.6 672.283C1428.23 672.283 1426.15 672.858 1424.36 674.009C1422.57 675.138 1421.18 676.629 1420.18 678.483C1419.2 680.315 1418.7 682.329 1418.67 684.523V691.331C1418.67 694.186 1419.2 696.636 1420.24 698.682C1421.28 700.706 1422.74 702.261 1424.62 703.348C1426.49 704.413 1428.69 704.946 1431.2 704.946C1432.89 704.946 1434.41 704.712 1435.77 704.243C1437.14 703.753 1438.32 703.039 1439.32 702.102C1440.32 701.164 1441.08 700.003 1441.59 698.618L1452.39 699.832C1451.71 702.687 1450.41 705.18 1448.49 707.311C1446.6 709.42 1444.17 711.061 1441.21 712.233C1438.24 713.384 1434.86 713.959 1431.04 713.959ZM1496.38 683.661V693.153H1470.23V683.661H1496.38ZM1473.81 663.909V713H1462.66V663.909H1473.81ZM1503.95 663.909V713H1492.83V663.909H1503.95ZM1526.81 697.339L1546.47 663.909H1558.36V713H1547.17V679.538L1527.58 713H1515.66V663.909H1526.81V697.339ZM1591.97 713.959C1587.05 713.959 1582.8 712.936 1579.22 710.891C1575.66 708.824 1572.92 705.905 1571 702.134C1569.09 698.341 1568.13 693.877 1568.13 688.742C1568.13 683.692 1569.09 679.261 1571 675.447C1572.94 671.612 1575.65 668.629 1579.12 666.498C1582.6 664.346 1586.68 663.27 1591.36 663.27C1594.39 663.27 1597.24 663.76 1599.93 664.74C1602.63 665.699 1605.02 667.19 1607.09 669.214C1609.18 671.239 1610.82 673.817 1612.01 676.949C1613.2 680.06 1613.8 683.767 1613.8 688.071V691.619H1573.56V683.82H1602.71C1602.69 681.604 1602.21 679.634 1601.27 677.908C1600.33 676.161 1599.02 674.786 1597.34 673.785C1595.68 672.783 1593.74 672.283 1591.52 672.283C1589.16 672.283 1587.08 672.858 1585.29 674.009C1583.5 675.138 1582.11 676.629 1581.1 678.483C1580.12 680.315 1579.62 682.329 1579.6 684.523V691.331C1579.6 694.186 1580.12 696.636 1581.17 698.682C1582.21 700.706 1583.67 702.261 1585.55 703.348C1587.42 704.413 1589.62 704.946 1592.13 704.946C1593.81 704.946 1595.34 704.712 1596.7 704.243C1598.06 703.753 1599.25 703.039 1600.25 702.102C1601.25 701.164 1602.01 700.003 1602.52 698.618L1613.32 699.832C1612.64 702.687 1611.34 705.18 1609.42 707.311C1607.52 709.42 1605.1 711.061 1602.13 712.233C1599.17 713.384 1595.78 713.959 1591.97 713.959ZM1686.92 663.909V713H1675.79V663.909H1686.92ZM1681.71 686.089V695.55C1680.45 696.104 1679.02 696.604 1677.42 697.052C1675.85 697.478 1674.17 697.819 1672.41 698.075C1670.66 698.33 1668.91 698.458 1667.16 698.458C1660.6 698.458 1655.41 696.988 1651.6 694.048C1647.81 691.086 1645.91 686.473 1645.91 680.209V663.845H1656.97V680.209C1656.97 682.318 1657.34 684.012 1658.09 685.29C1658.83 686.569 1659.96 687.506 1661.48 688.103C1662.99 688.678 1664.89 688.966 1667.16 688.966C1669.72 688.966 1672.15 688.71 1674.45 688.199C1676.75 687.688 1679.17 686.984 1681.71 686.089ZM1712.68 713.991C1709.57 713.991 1706.77 713.437 1704.28 712.329C1701.81 711.2 1699.85 709.538 1698.4 707.343C1696.97 705.148 1696.26 702.442 1696.26 699.225C1696.26 696.455 1696.77 694.165 1697.79 692.354C1698.81 690.543 1700.21 689.094 1701.98 688.007C1703.75 686.92 1705.74 686.1 1707.95 685.546C1710.19 684.971 1712.5 684.555 1714.89 684.3C1717.77 684.001 1720.1 683.735 1721.89 683.501C1723.68 683.245 1724.98 682.862 1725.79 682.35C1726.62 681.817 1727.03 680.997 1727.03 679.889V679.697C1727.03 677.29 1726.32 675.425 1724.89 674.104C1723.47 672.783 1721.41 672.123 1718.72 672.123C1715.89 672.123 1713.64 672.741 1711.98 673.977C1710.34 675.212 1709.23 676.672 1708.66 678.355L1697.85 676.821C1698.71 673.838 1700.11 671.345 1702.07 669.342C1704.03 667.318 1706.43 665.805 1709.26 664.804C1712.1 663.781 1715.23 663.27 1718.66 663.27C1721.03 663.27 1723.38 663.547 1725.72 664.101C1728.07 664.655 1730.21 665.571 1732.15 666.849C1734.09 668.107 1735.64 669.822 1736.81 671.995C1738.01 674.168 1738.6 676.885 1738.6 680.145V713H1727.48V706.256H1727.1C1726.4 707.62 1725.4 708.898 1724.13 710.092C1722.87 711.263 1721.28 712.212 1719.36 712.936C1717.47 713.639 1715.24 713.991 1712.68 713.991ZM1715.69 705.489C1718.01 705.489 1720.02 705.031 1721.73 704.115C1723.43 703.178 1724.74 701.942 1725.66 700.408C1726.6 698.874 1727.07 697.201 1727.07 695.39V689.605C1726.7 689.903 1726.09 690.18 1725.21 690.436C1724.36 690.692 1723.4 690.915 1722.34 691.107C1721.27 691.299 1720.22 691.469 1719.17 691.619C1718.13 691.768 1717.22 691.896 1716.46 692.002C1714.73 692.237 1713.19 692.62 1711.82 693.153C1710.46 693.685 1709.38 694.431 1708.59 695.39C1707.81 696.327 1707.41 697.542 1707.41 699.033C1707.41 701.164 1708.19 702.773 1709.74 703.859C1711.3 704.946 1713.28 705.489 1715.69 705.489ZM1771.65 713.959C1766.75 713.959 1762.54 712.883 1759.03 710.731C1755.53 708.579 1752.84 705.607 1750.94 701.814C1749.07 698 1748.13 693.611 1748.13 688.646C1748.13 683.661 1749.09 679.261 1751 675.447C1752.92 671.612 1755.63 668.629 1759.12 666.498C1762.64 664.346 1766.79 663.27 1771.59 663.27C1775.57 663.27 1779.1 664.005 1782.17 665.475C1785.26 666.924 1787.72 668.98 1789.55 671.643C1791.38 674.286 1792.43 677.375 1792.68 680.912H1781.62C1781.18 678.547 1780.11 676.576 1778.43 674.999C1776.76 673.401 1774.54 672.602 1771.75 672.602C1769.38 672.602 1767.3 673.241 1765.51 674.52C1763.72 675.777 1762.33 677.588 1761.33 679.953C1760.35 682.318 1759.86 685.152 1759.86 688.455C1759.86 691.8 1760.35 694.676 1761.33 697.084C1762.31 699.47 1763.68 701.313 1765.45 702.613C1767.24 703.891 1769.34 704.531 1771.75 704.531C1773.45 704.531 1774.97 704.211 1776.32 703.572C1777.68 702.911 1778.82 701.963 1779.74 700.727C1780.65 699.491 1781.28 697.989 1781.62 696.221H1792.68C1792.4 699.694 1791.38 702.773 1789.61 705.457C1787.84 708.121 1785.44 710.209 1782.39 711.722C1779.34 713.213 1775.76 713.959 1771.65 713.959ZM1798.62 673.401V663.909H1841.57V673.401H1825.69V713H1814.5V673.401H1798.62ZM1870.18 713.959C1865.38 713.959 1861.23 712.904 1857.71 710.795C1854.2 708.685 1851.47 705.734 1849.53 701.942C1847.61 698.149 1846.65 693.717 1846.65 688.646C1846.65 683.575 1847.61 679.133 1849.53 675.319C1851.47 671.505 1854.2 668.543 1857.71 666.434C1861.23 664.325 1865.38 663.27 1870.18 663.27C1874.97 663.27 1879.13 664.325 1882.64 666.434C1886.16 668.543 1888.87 671.505 1890.79 675.319C1892.73 679.133 1893.7 683.575 1893.7 688.646C1893.7 693.717 1892.73 698.149 1890.79 701.942C1888.87 705.734 1886.16 708.685 1882.64 710.795C1879.13 712.904 1874.97 713.959 1870.18 713.959ZM1870.24 704.69C1872.84 704.69 1875.01 703.977 1876.76 702.549C1878.51 701.1 1879.81 699.161 1880.66 696.732C1881.53 694.303 1881.97 691.597 1881.97 688.614C1881.97 685.61 1881.53 682.893 1880.66 680.464C1879.81 678.014 1878.51 676.065 1876.76 674.616C1875.01 673.167 1872.84 672.442 1870.24 672.442C1867.58 672.442 1865.36 673.167 1863.59 674.616C1861.85 676.065 1860.53 678.014 1859.66 680.464C1858.81 682.893 1858.38 685.61 1858.38 688.614C1858.38 691.597 1858.81 694.303 1859.66 696.732C1860.53 699.161 1861.85 701.1 1863.59 702.549C1865.36 703.977 1867.58 704.69 1870.24 704.69ZM1898.11 673.401V663.909H1941.06V673.401H1925.18V713H1913.99V673.401H1898.11ZM1958.11 679.889H1972.58C1978.85 679.889 1983.7 681.413 1987.13 684.46C1990.56 687.506 1992.28 691.501 1992.3 696.445C1992.28 699.662 1991.49 702.517 1989.94 705.01C1988.41 707.503 1986.17 709.463 1983.23 710.891C1980.31 712.297 1976.76 713 1972.58 713H1950.28V663.909H1961.43V703.508H1972.58C1975.1 703.508 1977.17 702.869 1978.79 701.59C1980.4 700.29 1981.21 698.629 1981.21 696.604C1981.21 694.474 1980.4 692.737 1978.79 691.395C1977.17 690.053 1975.1 689.381 1972.58 689.381H1958.11V679.889ZM1998.41 713V663.909H2009.98V713H1998.41Z" fill="white"/>
<path d="M3475.38 712.895V702.923H3479.12C3480.81 702.923 3482.19 702.678 3483.28 702.188C3484.37 701.698 3485.24 700.995 3485.9 700.079C3486.58 699.163 3487.15 698.097 3487.59 696.883L3488.46 694.678L3465.06 646.545H3477.46L3493.76 681.574L3507.86 646.545H3520.07L3497.5 699.919C3496.46 702.22 3495.25 704.362 3493.89 706.343C3492.53 708.303 3490.75 709.891 3488.55 711.105C3486.38 712.298 3483.55 712.895 3480.05 712.895H3475.38ZM3552.65 698.545L3567.22 662.909H3576.55L3556.71 712H3548.62L3529.22 662.909H3538.46L3552.65 698.545ZM3535.55 662.909V712H3524.4V662.909H3535.55ZM3570.23 712V662.909H3581.28V712H3570.23ZM3614.68 712.959C3609.76 712.959 3605.51 711.936 3601.93 709.891C3598.37 707.824 3595.64 704.905 3593.72 701.134C3591.8 697.341 3590.84 692.877 3590.84 687.742C3590.84 682.692 3591.8 678.261 3593.72 674.447C3595.66 670.612 3598.36 667.629 3601.84 665.498C3605.31 663.346 3609.39 662.27 3614.08 662.27C3617.1 662.27 3619.96 662.76 3622.64 663.74C3625.35 664.699 3627.73 666.19 3629.8 668.214C3631.89 670.239 3633.53 672.817 3634.72 675.949C3635.92 679.06 3636.51 682.767 3636.51 687.071V690.619H3596.27V682.82H3625.42C3625.4 680.604 3624.92 678.634 3623.98 676.908C3623.05 675.161 3621.74 673.786 3620.05 672.785C3618.39 671.783 3616.45 671.283 3614.24 671.283C3611.87 671.283 3609.79 671.858 3608 673.009C3606.21 674.138 3604.82 675.629 3603.82 677.483C3602.84 679.315 3602.34 681.329 3602.31 683.523V690.331C3602.31 693.186 3602.84 695.636 3603.88 697.682C3604.92 699.706 3606.38 701.261 3608.26 702.348C3610.13 703.413 3612.33 703.946 3614.84 703.946C3616.53 703.946 3618.05 703.712 3619.41 703.243C3620.78 702.753 3621.96 702.039 3622.96 701.102C3623.96 700.164 3624.72 699.003 3625.23 697.618L3636.03 698.832C3635.35 701.687 3634.05 704.18 3632.13 706.311C3630.24 708.42 3627.81 710.061 3624.85 711.233C3621.89 712.384 3618.5 712.959 3614.68 712.959ZM3680.02 682.661V692.153H3653.87V682.661H3680.02ZM3657.45 662.909V712H3646.3V662.909H3657.45ZM3687.59 662.909V712H3676.47V662.909H3687.59ZM3707.13 678.889H3721.61C3727.87 678.889 3732.72 680.413 3736.15 683.46C3739.58 686.506 3741.3 690.501 3741.33 695.445C3741.3 698.662 3740.52 701.517 3738.96 704.01C3737.43 706.503 3735.19 708.463 3732.25 709.891C3729.33 711.297 3725.78 712 3721.61 712H3699.3V662.909H3710.45V702.508H3721.61C3724.12 702.508 3726.19 701.869 3727.81 700.59C3729.43 699.29 3730.24 697.629 3730.24 695.604C3730.24 693.474 3729.43 691.737 3727.81 690.395C3726.19 689.053 3724.12 688.381 3721.61 688.381H3707.13V678.889ZM3751.24 662.909H3762.4V702.476H3777.83V662.909H3788.99V702.476H3804.42V662.909H3815.58V712H3751.24V662.909ZM3849 712.959C3844.08 712.959 3839.83 711.936 3836.25 709.891C3832.69 707.824 3829.95 704.905 3828.03 701.134C3826.12 697.341 3825.16 692.877 3825.16 687.742C3825.16 682.692 3826.12 678.261 3828.03 674.447C3829.97 670.612 3832.68 667.629 3836.15 665.498C3839.62 663.346 3843.71 662.27 3848.39 662.27C3851.42 662.27 3854.27 662.76 3856.96 663.74C3859.66 664.699 3862.05 666.19 3864.12 668.214C3866.21 670.239 3867.85 672.817 3869.04 675.949C3870.23 679.06 3870.83 682.767 3870.83 687.071V690.619H3830.59V682.82H3859.74C3859.72 680.604 3859.24 678.634 3858.3 676.908C3857.36 675.161 3856.05 673.786 3854.37 672.785C3852.71 671.783 3850.77 671.283 3848.55 671.283C3846.19 671.283 3844.11 671.858 3842.32 673.009C3840.53 674.138 3839.13 675.629 3838.13 677.483C3837.15 679.315 3836.65 681.329 3836.63 683.523V690.331C3836.63 693.186 3837.15 695.636 3838.2 697.682C3839.24 699.706 3840.7 701.261 3842.58 702.348C3844.45 703.413 3846.65 703.946 3849.16 703.946C3850.84 703.946 3852.37 703.712 3853.73 703.243C3855.09 702.753 3856.28 702.039 3857.28 701.102C3858.28 700.164 3859.04 699.003 3859.55 697.618L3870.35 698.832C3869.67 701.687 3868.37 704.18 3866.45 706.311C3864.55 708.42 3862.12 710.061 3859.16 711.233C3856.2 712.384 3852.81 712.959 3849 712.959ZM3914.33 682.661V692.153H3888.19V682.661H3914.33ZM3891.77 662.909V712H3880.62V662.909H3891.77ZM3921.91 662.909V712H3910.79V662.909H3921.91ZM3944.77 696.339L3964.42 662.909H3976.31V712H3965.13V678.538L3945.54 712H3933.61V662.909H3944.77V696.339ZM4009.93 712.959C4005.01 712.959 4000.75 711.936 3997.18 709.891C3993.62 707.824 3990.88 704.905 3988.96 701.134C3987.04 697.341 3986.09 692.877 3986.09 687.742C3986.09 682.692 3987.04 678.261 3988.96 674.447C3990.9 670.612 3993.61 667.629 3997.08 665.498C4000.55 663.346 4004.63 662.27 4009.32 662.27C4012.35 662.27 4015.2 662.76 4017.89 663.74C4020.59 664.699 4022.98 666.19 4025.04 668.214C4027.13 670.239 4028.77 672.817 4029.97 675.949C4031.16 679.06 4031.76 682.767 4031.76 687.071V690.619H3991.52V682.82H4020.67C4020.64 680.604 4020.17 678.634 4019.23 676.908C4018.29 675.161 4016.98 673.786 4015.3 672.785C4013.63 671.783 4011.7 671.283 4009.48 671.283C4007.12 671.283 4005.04 671.858 4003.25 673.009C4001.46 674.138 4000.06 675.629 3999.06 677.483C3998.08 679.315 3997.58 681.329 3997.56 683.523V690.331C3997.56 693.186 3998.08 695.636 3999.12 697.682C4000.17 699.706 4001.63 701.261 4003.5 702.348C4005.38 703.413 4007.57 703.946 4010.09 703.946C4011.77 703.946 4013.29 703.712 4014.66 703.243C4016.02 702.753 4017.2 702.039 4018.21 701.102C4019.21 700.164 4019.96 699.003 4020.47 697.618L4031.28 698.832C4030.6 701.687 4029.3 704.18 4027.38 706.311C4025.48 708.42 4023.05 710.061 4020.09 711.233C4017.13 712.384 4013.74 712.959 4009.93 712.959ZM4104.87 662.909V712H4093.75V662.909H4104.87ZM4099.66 685.089V694.55C4098.41 695.104 4096.98 695.604 4095.38 696.052C4093.8 696.478 4092.13 696.819 4090.36 697.075C4088.62 697.33 4086.87 697.458 4085.12 697.458C4078.56 697.458 4073.37 695.988 4069.56 693.048C4065.76 690.086 4063.87 685.473 4063.87 679.209V662.845H4074.93V679.209C4074.93 681.318 4075.3 683.012 4076.05 684.29C4076.79 685.569 4077.92 686.506 4079.43 687.103C4080.95 687.678 4082.84 687.966 4085.12 687.966C4087.68 687.966 4090.11 687.71 4092.41 687.199C4094.71 686.688 4097.13 685.984 4099.66 685.089ZM4130.64 712.991C4127.53 712.991 4124.73 712.437 4122.24 711.329C4119.76 710.2 4117.8 708.538 4116.36 706.343C4114.93 704.148 4114.21 701.442 4114.21 698.225C4114.21 695.455 4114.73 693.165 4115.75 691.354C4116.77 689.543 4118.17 688.094 4119.93 687.007C4121.7 685.92 4123.7 685.1 4125.91 684.546C4128.15 683.971 4130.46 683.555 4132.85 683.3C4135.72 683.001 4138.06 682.735 4139.85 682.501C4141.64 682.245 4142.94 681.862 4143.75 681.35C4144.58 680.817 4144.99 679.997 4144.99 678.889V678.697C4144.99 676.29 4144.28 674.425 4142.85 673.104C4141.42 671.783 4139.37 671.123 4136.68 671.123C4133.85 671.123 4131.6 671.741 4129.94 672.977C4128.3 674.212 4127.19 675.672 4126.61 677.355L4115.81 675.821C4116.66 672.838 4118.07 670.345 4120.03 668.342C4121.99 666.318 4124.39 664.805 4127.22 663.804C4130.06 662.781 4133.19 662.27 4136.62 662.27C4138.98 662.27 4141.34 662.547 4143.68 663.101C4146.02 663.655 4148.17 664.571 4150.11 665.849C4152.04 667.107 4153.6 668.822 4154.77 670.995C4155.96 673.168 4156.56 675.885 4156.56 679.145V712H4145.44V705.256H4145.06C4144.35 706.62 4143.36 707.898 4142.08 709.092C4140.83 710.263 4139.24 711.212 4137.32 711.936C4135.42 712.639 4133.2 712.991 4130.64 712.991ZM4133.65 704.489C4135.97 704.489 4137.98 704.031 4139.69 703.115C4141.39 702.178 4142.7 700.942 4143.62 699.408C4144.55 697.874 4145.02 696.201 4145.02 694.39V688.605C4144.66 688.903 4144.04 689.18 4143.17 689.436C4142.32 689.692 4141.36 689.915 4140.29 690.107C4139.23 690.299 4138.17 690.469 4137.13 690.619C4136.09 690.768 4135.18 690.896 4134.41 691.002C4132.69 691.237 4131.14 691.62 4129.78 692.153C4128.41 692.685 4127.34 693.431 4126.55 694.39C4125.76 695.327 4125.37 696.542 4125.37 698.033C4125.37 700.164 4126.15 701.773 4127.7 702.859C4129.26 703.946 4131.24 704.489 4133.65 704.489ZM4189.61 712.959C4184.71 712.959 4180.5 711.883 4176.98 709.731C4173.49 707.579 4170.79 704.607 4168.9 700.814C4167.02 697 4166.09 692.611 4166.09 687.646C4166.09 682.661 4167.04 678.261 4168.96 674.447C4170.88 670.612 4173.59 667.629 4177.08 665.498C4180.6 663.346 4184.75 662.27 4189.54 662.27C4193.53 662.27 4197.05 663.005 4200.12 664.475C4203.21 665.924 4205.67 667.98 4207.51 670.643C4209.34 673.286 4210.38 676.375 4210.64 679.912H4199.58C4199.13 677.547 4198.07 675.576 4196.38 673.999C4194.72 672.401 4192.5 671.602 4189.7 671.602C4187.34 671.602 4185.26 672.241 4183.47 673.52C4181.68 674.777 4180.29 676.588 4179.28 678.953C4178.3 681.318 4177.81 684.152 4177.81 687.455C4177.81 690.8 4178.3 693.676 4179.28 696.084C4180.26 698.47 4181.64 700.313 4183.41 701.613C4185.2 702.891 4187.3 703.531 4189.7 703.531C4191.41 703.531 4192.93 703.211 4194.27 702.572C4195.64 701.911 4196.78 700.963 4197.69 699.727C4198.61 698.491 4199.24 696.989 4199.58 695.221H4210.64C4210.36 698.694 4209.34 701.773 4207.57 704.457C4205.8 707.121 4203.39 709.209 4200.35 710.722C4197.3 712.213 4193.72 712.959 4189.61 712.959ZM4216.57 672.401V662.909H4259.53V672.401H4243.64V712H4232.46V672.401H4216.57ZM4288.13 712.959C4283.34 712.959 4279.18 711.904 4275.67 709.795C4272.15 707.685 4269.43 704.734 4267.49 700.942C4265.57 697.149 4264.61 692.717 4264.61 687.646C4264.61 682.575 4265.57 678.133 4267.49 674.319C4269.43 670.505 4272.15 667.543 4275.67 665.434C4279.18 663.325 4283.34 662.27 4288.13 662.27C4292.93 662.27 4297.08 663.325 4300.6 665.434C4304.11 667.543 4306.83 670.505 4308.75 674.319C4310.69 678.133 4311.66 682.575 4311.66 687.646C4311.66 692.717 4310.69 697.149 4308.75 700.942C4306.83 704.734 4304.11 707.685 4300.6 709.795C4297.08 711.904 4292.93 712.959 4288.13 712.959ZM4288.2 703.69C4290.8 703.69 4292.97 702.977 4294.72 701.549C4296.46 700.1 4297.76 698.161 4298.62 695.732C4299.49 693.303 4299.93 690.597 4299.93 687.614C4299.93 684.61 4299.49 681.893 4298.62 679.464C4297.76 677.014 4296.46 675.065 4294.72 673.616C4292.97 672.167 4290.8 671.442 4288.2 671.442C4285.53 671.442 4283.32 672.167 4281.55 673.616C4279.8 675.065 4278.49 677.014 4277.62 679.464C4276.77 681.893 4276.34 684.61 4276.34 687.614C4276.34 690.597 4276.77 693.303 4277.62 695.732C4278.49 698.161 4279.8 700.1 4281.55 701.549C4283.32 702.977 4285.53 703.69 4288.2 703.69ZM4316.07 672.401V662.909H4359.02V672.401H4343.14V712H4331.95V672.401H4316.07ZM4376.06 678.889H4390.54C4396.81 678.889 4401.65 680.413 4405.08 683.46C4408.51 686.506 4410.24 690.501 4410.26 695.445C4410.24 698.662 4409.45 701.517 4407.9 704.01C4406.36 706.503 4404.13 708.463 4401.18 709.891C4398.27 711.297 4394.72 712 4390.54 712H4368.23V662.909H4379.39V702.508H4390.54C4393.06 702.508 4395.12 701.869 4396.74 700.59C4398.36 699.29 4399.17 697.629 4399.17 695.604C4399.17 693.474 4398.36 691.737 4396.74 690.395C4395.12 689.053 4393.06 688.381 4390.54 688.381H4376.06V678.889ZM4416.37 712V662.909H4427.94V712H4416.37Z" fill="white"/>
<path d="M2350.52 215V149.545H2375.58C2380.31 149.545 2384.24 150.291 2387.37 151.783C2390.53 153.253 2392.88 155.266 2394.44 157.823C2396.01 160.38 2396.8 163.278 2396.8 166.516C2396.8 169.18 2396.29 171.46 2395.27 173.356C2394.25 175.231 2392.87 176.754 2391.15 177.926C2389.42 179.098 2387.49 179.94 2385.36 180.451V181.09C2387.68 181.218 2389.91 181.932 2392.04 183.232C2394.19 184.51 2395.95 186.321 2397.31 188.665C2398.68 191.009 2399.36 193.842 2399.36 197.166C2399.36 200.554 2398.54 203.601 2396.9 206.307C2395.26 208.991 2392.79 211.112 2389.48 212.667C2386.18 214.222 2382.03 215 2377.02 215H2350.52ZM2362.38 205.092H2375.13C2379.44 205.092 2382.54 204.272 2384.43 202.631C2386.35 200.969 2387.31 198.839 2387.31 196.239C2387.31 194.3 2386.83 192.553 2385.87 190.998C2384.91 189.421 2383.55 188.185 2381.78 187.29C2380.01 186.374 2377.9 185.916 2375.45 185.916H2362.38V205.092ZM2362.38 177.383H2374.11C2376.16 177.383 2378 177.01 2379.64 176.264C2381.28 175.497 2382.57 174.421 2383.51 173.036C2384.47 171.63 2384.95 169.968 2384.95 168.05C2384.95 165.515 2384.05 163.427 2382.26 161.786C2380.49 160.146 2377.86 159.325 2374.37 159.325H2362.38V177.383ZM2416.99 181.889H2431.47C2437.74 181.889 2442.58 183.413 2446.01 186.46C2449.44 189.506 2451.17 193.501 2451.19 198.445C2451.17 201.662 2450.38 204.517 2448.83 207.01C2447.29 209.503 2445.05 211.463 2442.11 212.891C2439.2 214.297 2435.65 215 2431.47 215H2409.16V165.909H2420.32V205.508H2431.47C2433.99 205.508 2436.05 204.869 2437.67 203.59C2439.29 202.29 2440.1 200.629 2440.1 198.604C2440.1 196.474 2439.29 194.737 2437.67 193.395C2436.05 192.053 2433.99 191.381 2431.47 191.381H2416.99V181.889ZM2457.3 215V165.909H2468.87V215H2457.3ZM2490.25 165.909L2500.16 184.031L2510.23 165.909H2522.47L2507.67 190.455L2522.73 215H2510.55L2500.16 197.326L2489.87 215H2477.6L2492.56 190.455L2477.98 165.909H2490.25ZM2550.99 215.959C2546.19 215.959 2542.04 214.904 2538.52 212.795C2535.01 210.685 2532.28 207.734 2530.34 203.942C2528.42 200.149 2527.46 195.717 2527.46 190.646C2527.46 185.575 2528.42 181.133 2530.34 177.319C2532.28 173.505 2535.01 170.543 2538.52 168.434C2542.04 166.325 2546.19 165.27 2550.99 165.27C2555.78 165.27 2559.94 166.325 2563.45 168.434C2566.97 170.543 2569.68 173.505 2571.6 177.319C2573.54 181.133 2574.51 185.575 2574.51 190.646C2574.51 195.717 2573.54 200.149 2571.6 203.942C2569.68 207.734 2566.97 210.685 2563.45 212.795C2559.94 214.904 2555.78 215.959 2550.99 215.959ZM2551.05 206.69C2553.65 206.69 2555.82 205.977 2557.57 204.549C2559.32 203.1 2560.62 201.161 2561.47 198.732C2562.34 196.303 2562.78 193.597 2562.78 190.614C2562.78 187.61 2562.34 184.893 2561.47 182.464C2560.62 180.014 2559.32 178.065 2557.57 176.616C2555.82 175.167 2553.65 174.442 2551.05 174.442C2548.39 174.442 2546.17 175.167 2544.4 176.616C2542.66 178.065 2541.35 180.014 2540.47 182.464C2539.62 184.893 2539.19 187.61 2539.19 190.614C2539.19 193.597 2539.62 196.303 2540.47 198.732C2541.35 201.161 2542.66 203.1 2544.4 204.549C2546.17 205.977 2548.39 206.69 2551.05 206.69ZM2579.98 229.254V205.476H2583.88C2584.93 204.666 2585.8 203.569 2586.5 202.184C2587.21 200.778 2587.78 199.126 2588.23 197.23C2588.7 195.312 2589.08 193.171 2589.38 190.806C2589.68 188.42 2589.94 185.852 2590.18 183.104L2591.58 165.909H2627.06V205.476H2634.67V229.254H2623.48V215H2591.36V229.254H2579.98ZM2595.77 205.476H2616V175.241H2601.62L2600.85 183.104C2600.43 188.303 2599.86 192.756 2599.16 196.463C2598.46 200.17 2597.33 203.175 2595.77 205.476ZM2677.02 185.661V195.153H2650.88V185.661H2677.02ZM2654.46 165.909V215H2643.3V165.909H2654.46ZM2684.6 165.909V215H2673.47V165.909H2684.6ZM2717.72 215.959C2712.92 215.959 2708.77 214.904 2705.25 212.795C2701.74 210.685 2699.01 207.734 2697.07 203.942C2695.15 200.149 2694.19 195.717 2694.19 190.646C2694.19 185.575 2695.15 181.133 2697.07 177.319C2699.01 173.505 2701.74 170.543 2705.25 168.434C2708.77 166.325 2712.92 165.27 2717.72 165.27C2722.51 165.27 2726.66 166.325 2730.18 168.434C2733.7 170.543 2736.41 173.505 2738.33 177.319C2740.27 181.133 2741.24 185.575 2741.24 190.646C2741.24 195.717 2740.27 200.149 2738.33 203.942C2736.41 207.734 2733.7 210.685 2730.18 212.795C2726.66 214.904 2722.51 215.959 2717.72 215.959ZM2717.78 206.69C2720.38 206.69 2722.55 205.977 2724.3 204.549C2726.05 203.1 2727.35 201.161 2728.2 198.732C2729.07 196.303 2729.51 193.597 2729.51 190.614C2729.51 187.61 2729.07 184.893 2728.2 182.464C2727.35 180.014 2726.05 178.065 2724.3 176.616C2722.55 175.167 2720.38 174.442 2717.78 174.442C2715.12 174.442 2712.9 175.167 2711.13 176.616C2709.38 178.065 2708.07 180.014 2707.2 182.464C2706.35 184.893 2705.92 187.61 2705.92 190.614C2705.92 193.597 2706.35 196.303 2707.2 198.732C2708.07 201.161 2709.38 203.1 2711.13 204.549C2712.9 205.977 2715.12 206.69 2717.78 206.69ZM2762.21 199.339L2781.87 165.909H2793.76V215H2782.57V181.538L2762.98 215H2751.06V165.909H2762.21V199.339ZM2778.7 149.034H2787.36C2787.36 152.763 2786.01 155.788 2783.31 158.111C2780.62 160.412 2776.98 161.562 2772.38 161.562C2767.82 161.562 2764.18 160.412 2761.48 158.111C2758.79 155.788 2757.46 152.763 2757.48 149.034H2766.08C2766.08 150.568 2766.55 151.942 2767.49 153.157C2768.44 154.35 2770.07 154.947 2772.38 154.947C2774.63 154.947 2776.24 154.35 2777.2 153.157C2778.18 151.964 2778.68 150.589 2778.7 149.034ZM2849.38 215.959C2844.47 215.959 2840.27 214.883 2836.75 212.731C2833.26 210.579 2830.56 207.607 2828.67 203.814C2826.79 200 2825.85 195.611 2825.85 190.646C2825.85 185.661 2826.81 181.261 2828.73 177.447C2830.65 173.612 2833.35 170.629 2836.85 168.498C2840.36 166.346 2844.52 165.27 2849.31 165.27C2853.3 165.27 2856.82 166.005 2859.89 167.475C2862.98 168.924 2865.44 170.98 2867.27 173.643C2869.11 176.286 2870.15 179.375 2870.41 182.912H2859.35C2858.9 180.547 2857.83 178.576 2856.15 176.999C2854.49 175.401 2852.26 174.602 2849.47 174.602C2847.11 174.602 2845.03 175.241 2843.24 176.52C2841.45 177.777 2840.05 179.588 2839.05 181.953C2838.07 184.318 2837.58 187.152 2837.58 190.455C2837.58 193.8 2838.07 196.676 2839.05 199.084C2840.03 201.47 2841.41 203.313 2843.18 204.613C2844.97 205.891 2847.06 206.531 2849.47 206.531C2851.18 206.531 2852.7 206.211 2854.04 205.572C2855.41 204.911 2856.55 203.963 2857.46 202.727C2858.38 201.491 2859.01 199.989 2859.35 198.221H2870.41C2870.13 201.694 2869.11 204.773 2867.34 207.457C2865.57 210.121 2863.16 212.209 2860.11 213.722C2857.07 215.213 2853.49 215.959 2849.38 215.959ZM2891.06 199.339L2910.72 165.909H2922.6V215H2911.42V181.538L2891.83 215H2879.91V165.909H2891.06V199.339ZM2966.96 165.909V175.401H2945.8V215H2934.49V165.909H2966.96ZM3009.95 185.661V195.153H2983.81V185.661H3009.95ZM2987.39 165.909V215H2976.23V165.909H2987.39ZM3017.53 165.909V215H3006.4V165.909H3017.53ZM3043.36 215.991C3040.25 215.991 3037.45 215.437 3034.95 214.329C3032.48 213.2 3030.52 211.538 3029.07 209.343C3027.64 207.148 3026.93 204.442 3026.93 201.225C3026.93 198.455 3027.44 196.165 3028.46 194.354C3029.49 192.543 3030.88 191.094 3032.65 190.007C3034.42 188.92 3036.41 188.1 3038.63 187.546C3040.87 186.971 3043.18 186.555 3045.56 186.3C3048.44 186.001 3050.77 185.735 3052.56 185.501C3054.35 185.245 3055.65 184.862 3056.46 184.35C3057.29 183.817 3057.71 182.997 3057.71 181.889V181.697C3057.71 179.29 3056.99 177.425 3055.57 176.104C3054.14 174.783 3052.08 174.123 3049.4 174.123C3046.56 174.123 3044.32 174.741 3042.66 175.977C3041.01 177.212 3039.91 178.672 3039.33 180.355L3028.53 178.821C3029.38 175.838 3030.79 173.345 3032.75 171.342C3034.71 169.318 3037.1 167.805 3039.94 166.804C3042.77 165.781 3045.9 165.27 3049.33 165.27C3051.7 165.27 3054.05 165.547 3056.4 166.101C3058.74 166.655 3060.88 167.571 3062.82 168.849C3064.76 170.107 3066.32 171.822 3067.49 173.995C3068.68 176.168 3069.28 178.885 3069.28 182.145V215H3058.16V208.256H3057.77C3057.07 209.62 3056.08 210.898 3054.8 212.092C3053.54 213.263 3051.96 214.212 3050.04 214.936C3048.14 215.639 3045.91 215.991 3043.36 215.991ZM3046.36 207.489C3048.68 207.489 3050.7 207.031 3052.4 206.115C3054.11 205.178 3055.42 203.942 3056.33 202.408C3057.27 200.874 3057.74 199.201 3057.74 197.39V191.605C3057.38 191.903 3056.76 192.18 3055.89 192.436C3055.03 192.692 3054.08 192.915 3053.01 193.107C3051.94 193.299 3050.89 193.469 3049.85 193.619C3048.8 193.768 3047.9 193.896 3047.13 194.002C3045.4 194.237 3043.86 194.62 3042.5 195.153C3041.13 195.685 3040.06 196.431 3039.27 197.39C3038.48 198.327 3038.08 199.542 3038.08 201.033C3038.08 203.164 3038.86 204.773 3040.42 205.859C3041.97 206.946 3043.95 207.489 3046.36 207.489ZM3077.52 215L3077.46 205.476H3079.15C3080.43 205.476 3081.51 205.188 3082.38 204.613C3083.26 204.038 3083.98 203.079 3084.55 201.737C3085.13 200.373 3085.58 198.54 3085.9 196.239C3086.22 193.938 3086.44 191.072 3086.57 187.642L3087.43 165.909H3123.23V215H3112.04V175.401H3097.95L3097.18 191.222C3096.99 195.312 3096.53 198.86 3095.8 201.864C3095.1 204.847 3094.1 207.308 3092.8 209.247C3091.52 211.186 3089.91 212.635 3087.97 213.594C3086.04 214.531 3083.75 215 3081.1 215H3077.52Z" fill="white"/>
<path d="M4006.95 1811.27C4006.95 1818.33 4005.63 1824.37 4002.98 1829.39C4000.36 1834.4 3996.78 1838.24 3992.25 1840.9C3987.73 1843.56 3982.6 1844.89 3976.87 1844.89C3971.14 1844.89 3966.01 1843.56 3961.47 1840.9C3956.95 1838.22 3953.37 1834.37 3950.73 1829.36C3948.11 1824.33 3946.8 1818.3 3946.8 1811.27C3946.8 1804.22 3948.11 1798.19 3950.73 1793.18C3953.37 1788.15 3956.95 1784.31 3961.47 1781.65C3966.01 1778.98 3971.14 1777.65 3976.87 1777.65C3982.6 1777.65 3987.73 1778.98 3992.25 1781.65C3996.78 1784.31 4000.36 1788.15 4002.98 1793.18C4005.63 1798.19 4006.95 1804.22 4006.95 1811.27ZM3995.03 1811.27C3995.03 1806.31 3994.25 1802.12 3992.69 1798.71C3991.16 1795.28 3989.03 1792.69 3986.3 1790.95C3983.57 1789.18 3980.43 1788.29 3976.87 1788.29C3973.31 1788.29 3970.17 1789.18 3967.44 1790.95C3964.72 1792.69 3962.58 1795.28 3961.02 1798.71C3959.49 1802.12 3958.72 1806.31 3958.72 1811.27C3958.72 1816.24 3959.49 1820.43 3961.02 1823.87C3962.58 1827.27 3964.72 1829.86 3967.44 1831.63C3970.17 1833.38 3973.31 1834.25 3976.87 1834.25C3980.43 1834.25 3983.57 1833.38 3986.3 1831.63C3989.03 1829.86 3991.16 1827.27 3992.69 1823.87C3994.25 1820.43 3995.03 1816.24 3995.03 1811.27ZM4039.06 1844.96C4034.16 1844.96 4029.95 1843.88 4026.43 1841.73C4022.94 1839.58 4020.25 1836.61 4018.35 1832.81C4016.47 1829 4015.54 1824.61 4015.54 1819.65C4015.54 1814.66 4016.5 1810.26 4018.41 1806.45C4020.33 1802.61 4023.04 1799.63 4026.53 1797.5C4030.05 1795.35 4034.2 1794.27 4039 1794.27C4042.98 1794.27 4046.51 1795 4049.57 1796.48C4052.66 1797.92 4055.12 1799.98 4056.96 1802.64C4058.79 1805.29 4059.83 1808.37 4060.09 1811.91H4049.03C4048.58 1809.55 4047.52 1807.58 4045.83 1806C4044.17 1804.4 4041.95 1803.6 4039.16 1803.6C4036.79 1803.6 4034.71 1804.24 4032.92 1805.52C4031.13 1806.78 4029.74 1808.59 4028.74 1810.95C4027.76 1813.32 4027.27 1816.15 4027.27 1819.45C4027.27 1822.8 4027.76 1825.68 4028.74 1828.08C4029.72 1830.47 4031.09 1832.31 4032.86 1833.61C4034.65 1834.89 4036.75 1835.53 4039.16 1835.53C4040.86 1835.53 4042.38 1835.21 4043.73 1834.57C4045.09 1833.91 4046.23 1832.96 4047.15 1831.73C4048.06 1830.49 4048.69 1828.99 4049.03 1827.22H4060.09C4059.81 1830.69 4058.79 1833.77 4057.02 1836.46C4055.25 1839.12 4052.84 1841.21 4049.8 1842.72C4046.75 1844.21 4043.17 1844.96 4039.06 1844.96ZM4066.03 1804.4V1794.91H4108.98V1804.4H4093.1V1844H4081.91V1804.4H4066.03ZM4130.3 1844.99C4127.19 1844.99 4124.38 1844.44 4121.89 1843.33C4119.42 1842.2 4117.46 1840.54 4116.01 1838.34C4114.58 1836.15 4113.87 1833.44 4113.87 1830.23C4113.87 1827.46 4114.38 1825.16 4115.4 1823.35C4116.43 1821.54 4117.82 1820.09 4119.59 1819.01C4121.36 1817.92 4123.35 1817.1 4125.57 1816.55C4127.8 1815.97 4130.12 1815.56 4132.5 1815.3C4135.38 1815 4137.71 1814.74 4139.5 1814.5C4141.29 1814.25 4142.59 1813.86 4143.4 1813.35C4144.23 1812.82 4144.65 1812 4144.65 1810.89V1810.7C4144.65 1808.29 4143.93 1806.43 4142.51 1805.1C4141.08 1803.78 4139.02 1803.12 4136.34 1803.12C4133.5 1803.12 4131.26 1803.74 4129.59 1804.98C4127.95 1806.21 4126.85 1807.67 4126.27 1809.36L4115.47 1807.82C4116.32 1804.84 4117.73 1802.35 4119.69 1800.34C4121.65 1798.32 4124.04 1796.81 4126.88 1795.8C4129.71 1794.78 4132.84 1794.27 4136.27 1794.27C4138.64 1794.27 4140.99 1794.55 4143.34 1795.1C4145.68 1795.65 4147.82 1796.57 4149.76 1797.85C4151.7 1799.11 4153.26 1800.82 4154.43 1803C4155.62 1805.17 4156.22 1807.88 4156.22 1811.14V1844H4145.1V1837.26H4144.71C4144.01 1838.62 4143.02 1839.9 4141.74 1841.09C4140.48 1842.26 4138.89 1843.21 4136.98 1843.94C4135.08 1844.64 4132.85 1844.99 4130.3 1844.99ZM4133.3 1836.49C4135.62 1836.49 4137.64 1836.03 4139.34 1835.12C4141.05 1834.18 4142.36 1832.94 4143.27 1831.41C4144.21 1829.87 4144.68 1828.2 4144.68 1826.39V1820.61C4144.32 1820.9 4143.7 1821.18 4142.83 1821.44C4141.97 1821.69 4141.01 1821.92 4139.95 1822.11C4138.88 1822.3 4137.83 1822.47 4136.79 1822.62C4135.74 1822.77 4134.84 1822.9 4134.07 1823C4132.34 1823.24 4130.8 1823.62 4129.43 1824.15C4128.07 1824.69 4127 1825.43 4126.21 1826.39C4125.42 1827.33 4125.02 1828.54 4125.02 1830.03C4125.02 1832.16 4125.8 1833.77 4127.36 1834.86C4128.91 1835.95 4130.89 1836.49 4133.3 1836.49ZM4201.57 1814.66V1824.15H4175.43V1814.66H4201.57ZM4179 1794.91V1844H4167.85V1794.91H4179ZM4209.14 1794.91V1844H4198.02V1794.91H4209.14ZM4242.26 1844.96C4237.47 1844.96 4233.31 1843.9 4229.8 1841.79C4226.28 1839.69 4223.55 1836.73 4221.62 1832.94C4219.7 1829.15 4218.74 1824.72 4218.74 1819.65C4218.74 1814.58 4219.7 1810.13 4221.62 1806.32C4223.55 1802.5 4226.28 1799.54 4229.8 1797.43C4233.31 1795.32 4237.47 1794.27 4242.26 1794.27C4247.06 1794.27 4251.21 1795.32 4254.73 1797.43C4258.24 1799.54 4260.96 1802.5 4262.88 1806.32C4264.82 1810.13 4265.78 1814.58 4265.78 1819.65C4265.78 1824.72 4264.82 1829.15 4262.88 1832.94C4260.96 1836.73 4258.24 1839.69 4254.73 1841.79C4251.21 1843.9 4247.06 1844.96 4242.26 1844.96ZM4242.33 1835.69C4244.93 1835.69 4247.1 1834.98 4248.85 1833.55C4250.59 1832.1 4251.89 1830.16 4252.75 1827.73C4253.62 1825.3 4254.06 1822.6 4254.06 1819.61C4254.06 1816.61 4253.62 1813.89 4252.75 1811.46C4251.89 1809.01 4250.59 1807.06 4248.85 1805.62C4247.1 1804.17 4244.93 1803.44 4242.33 1803.44C4239.66 1803.44 4237.45 1804.17 4235.68 1805.62C4233.93 1807.06 4232.62 1809.01 4231.75 1811.46C4230.9 1813.89 4230.47 1816.61 4230.47 1819.61C4230.47 1822.6 4230.9 1825.3 4231.75 1827.73C4232.62 1830.16 4233.93 1832.1 4235.68 1833.55C4237.45 1834.98 4239.66 1835.69 4242.33 1835.69ZM4275.6 1844V1794.91H4296.22C4302.04 1794.91 4306.63 1796.07 4309.99 1798.39C4313.38 1800.72 4315.08 1803.95 4315.08 1808.11C4315.08 1810.86 4314.12 1813.11 4312.2 1814.85C4310.3 1816.58 4307.71 1817.74 4304.43 1818.34C4307.01 1818.55 4309.27 1819.2 4311.21 1820.29C4313.17 1821.37 4314.7 1822.8 4315.81 1824.57C4316.92 1826.34 4317.47 1828.37 4317.47 1830.67C4317.47 1833.38 4316.76 1835.73 4315.33 1837.74C4313.93 1839.72 4311.87 1841.26 4309.16 1842.37C4306.48 1843.46 4303.22 1844 4299.38 1844H4275.6ZM4286.44 1834.89H4299.38C4301.51 1834.89 4303.19 1834.39 4304.4 1833.39C4305.62 1832.37 4306.22 1830.98 4306.22 1829.23C4306.22 1827.21 4305.62 1825.62 4304.4 1824.47C4303.19 1823.3 4301.51 1822.71 4299.38 1822.71H4286.44V1834.89ZM4286.44 1815.24H4296.44C4298.02 1815.24 4299.37 1815.01 4300.5 1814.56C4301.63 1814.1 4302.49 1813.45 4303.09 1812.62C4303.69 1811.76 4303.99 1810.75 4303.99 1809.58C4303.99 1807.9 4303.29 1806.57 4301.91 1805.62C4300.54 1804.66 4298.65 1804.18 4296.22 1804.18H4286.44V1815.24ZM4327.02 1844V1794.91H4338.59V1814.72H4342.81L4357.57 1794.91H4371.51L4353.32 1819.01L4371.7 1844H4357.7L4344.25 1825.5H4338.59V1844H4327.02ZM4392.39 1844.99C4389.28 1844.99 4386.47 1844.44 4383.98 1843.33C4381.51 1842.2 4379.55 1840.54 4378.1 1838.34C4376.67 1836.15 4375.96 1833.44 4375.96 1830.23C4375.96 1827.46 4376.47 1825.16 4377.49 1823.35C4378.52 1821.54 4379.91 1820.09 4381.68 1819.01C4383.45 1817.92 4385.44 1817.1 4387.66 1816.55C4389.89 1815.97 4392.21 1815.56 4394.59 1815.3C4397.47 1815 4399.8 1814.74 4401.59 1814.5C4403.38 1814.25 4404.68 1813.86 4405.49 1813.35C4406.32 1812.82 4406.74 1812 4406.74 1810.89V1810.7C4406.74 1808.29 4406.02 1806.43 4404.6 1805.1C4403.17 1803.78 4401.11 1803.12 4398.43 1803.12C4395.59 1803.12 4393.35 1803.74 4391.68 1804.98C4390.04 1806.21 4388.94 1807.67 4388.36 1809.36L4377.56 1807.82C4378.41 1804.84 4379.82 1802.35 4381.78 1800.34C4383.74 1798.32 4386.13 1796.81 4388.97 1795.8C4391.8 1794.78 4394.93 1794.27 4398.36 1794.27C4400.73 1794.27 4403.08 1794.55 4405.43 1795.1C4407.77 1795.65 4409.91 1796.57 4411.85 1797.85C4413.79 1799.11 4415.35 1800.82 4416.52 1803C4417.71 1805.17 4418.31 1807.88 4418.31 1811.14V1844H4407.19V1837.26H4406.8C4406.1 1838.62 4405.11 1839.9 4403.83 1841.09C4402.57 1842.26 4400.98 1843.21 4399.07 1843.94C4397.17 1844.64 4394.94 1844.99 4392.39 1844.99ZM4395.39 1836.49C4397.71 1836.49 4399.73 1836.03 4401.43 1835.12C4403.14 1834.18 4404.45 1832.94 4405.36 1831.41C4406.3 1829.87 4406.77 1828.2 4406.77 1826.39V1820.61C4406.41 1820.9 4405.79 1821.18 4404.92 1821.44C4404.06 1821.69 4403.1 1821.92 4402.04 1822.11C4400.97 1822.3 4399.92 1822.47 4398.88 1822.62C4397.83 1822.77 4396.93 1822.9 4396.16 1823C4394.43 1823.24 4392.89 1823.62 4391.52 1824.15C4390.16 1824.69 4389.08 1825.43 4388.3 1826.39C4387.51 1827.33 4387.11 1828.54 4387.11 1830.03C4387.11 1832.16 4387.89 1833.77 4389.45 1834.86C4391 1835.95 4392.98 1836.49 4395.39 1836.49Z" fill="white"/>
<circle cx="1227" cy="2664" r="38" fill="#10CC55"/>
<circle cx="1983" cy="2660" r="38" fill="#16B9FF"/>
<defs>
<linearGradient id="paint0_linear_143_841" x1="3184.94" y1="1801" x2="2250.53" y2="1801" gradientUnits="userSpaceOnUse">
<stop stop-color="#10CC55"/>
<stop offset="1" stop-color="#767382"/>
</linearGradient>
<linearGradient id="paint1_linear_143_841" x1="66.3239" y1="0" x2="803.527" y2="0" gradientUnits="userSpaceOnUse">
<stop stop-color="#10CC55"/>
<stop offset="1" stop-color="#767382"/>
</linearGradient>
<linearGradient id="paint2_linear_143_841" x1="67.3602" y1="0" x2="816.081" y2="0" gradientUnits="userSpaceOnUse">
<stop stop-color="#16B9FF"/>
<stop offset="1" stop-color="#767382"/>
</linearGradient>
<linearGradient id="paint3_linear_143_841" x1="1741.55" y1="874.184" x2="2614.59" y2="609.467" gradientUnits="userSpaceOnUse">
<stop stop-color="#10CC55"/>
<stop offset="1" stop-color="#767382"/>
</linearGradient>
<linearGradient id="paint4_linear_143_841" x1="3776.51" y1="875.553" x2="2892.95" y2="603.823" gradientUnits="userSpaceOnUse">
<stop stop-color="#16B9FF"/>
<stop offset="1" stop-color="#767382"/>
</linearGradient>
<linearGradient id="paint5_linear_143_841" x1="141.458" y1="0" x2="1713.79" y2="3.92486e-10" gradientUnits="userSpaceOnUse">
<stop stop-color="#10CC55"/>
<stop offset="1" stop-color="#767382"/>
</linearGradient>
<linearGradient id="paint6_linear_143_841" x1="144.786" y1="0" x2="1754.11" y2="4.1117e-10" gradientUnits="userSpaceOnUse">
<stop stop-color="#16B9FF"/>
<stop offset="1" stop-color="#767382"/>
</linearGradient>
<linearGradient id="paint7_linear_143_841" x1="2842.17" y1="730.327" x2="3299.72" y2="1678.75" gradientUnits="userSpaceOnUse">
<stop stop-color="#10CC55"/>
<stop offset="1" stop-color="#767382"/>
</linearGradient>
<linearGradient id="paint8_linear_143_841" x1="2196.4" y1="1636.15" x2="2689.9" y2="692.98" gradientUnits="userSpaceOnUse">
<stop stop-color="#10CC55"/>
<stop offset="1" stop-color="#767382"/>
</linearGradient>
<linearGradient id="paint9_linear_143_841" x1="53.3731" y1="0" x2="646.625" y2="0" gradientUnits="userSpaceOnUse">
<stop stop-color="#10CC55"/>
<stop offset="1" stop-color="#767382"/>
</linearGradient>
<linearGradient id="paint10_linear_143_841" x1="2957.49" y1="2668" x2="3285.32" y2="2668" gradientUnits="userSpaceOnUse">
<stop stop-color="#10CC55"/>
<stop offset="1" stop-color="#767382"/>
</linearGradient>
<linearGradient id="paint11_linear_143_841" x1="4379.49" y1="2668" x2="4707.32" y2="2668" gradientUnits="userSpaceOnUse">
<stop stop-color="#10CC55"/>
<stop offset="1" stop-color="#767382"/>
</linearGradient>
<linearGradient id="paint12_linear_143_841" x1="4058.82" y1="2007.86" x2="3489.94" y2="1839.56" gradientUnits="userSpaceOnUse">
<stop stop-color="#16B9FF"/>
<stop offset="1" stop-color="#767382"/>
</linearGradient>
</defs>
</svg>
