<svg width="5075" height="703" viewBox="0 0 5075 703" fill="none" xmlns="http://www.w3.org/2000/svg">
<g clip-path="url(#clip0_143_639)">
<circle cx="482.5" cy="437.5" r="140.5" stroke="#767382" stroke-width="12"/>
<circle cx="1520.5" cy="437.5" r="140.5" stroke="#767382" stroke-width="12"/>
<circle cx="1520.5" cy="437.5" r="189.5" stroke="#10CC55" stroke-width="12"/>
<circle cx="2558.5" cy="437.5" r="140.5" stroke="#767382" stroke-width="12"/>
<circle cx="3596.5" cy="437.5" r="140.5" stroke="#767382" stroke-width="12"/>
<g filter="url(#filter0_d_143_639)">
<circle cx="4634.5" cy="437.5" r="146.5" fill="#10CC55" fill-opacity="0.8" shape-rendering="crispEdges"/>
<circle cx="4634.5" cy="437.5" r="140.5" stroke="#10CC55" stroke-width="12" shape-rendering="crispEdges"/>
</g>
<path d="M2562.24 439.757C2559.9 437.414 2556.1 437.414 2553.76 439.757L2515.57 477.941C2513.23 480.284 2513.23 484.083 2515.57 486.426C2517.92 488.77 2521.72 488.77 2524.06 486.426L2558 452.485L2591.94 486.426C2594.28 488.77 2598.08 488.77 2600.43 486.426C2602.77 484.083 2602.77 480.284 2600.43 477.941L2562.24 439.757ZM2564 658V444H2552V658H2564Z" fill="#767382"/>
<path d="M3601.24 201.757C3598.9 199.414 3595.1 199.414 3592.76 201.757L3554.57 239.941C3552.23 242.284 3552.23 246.083 3554.57 248.426C3556.92 250.77 3560.72 250.77 3563.06 248.426L3597 214.485L3630.94 248.426C3633.28 250.77 3637.08 250.77 3639.43 248.426C3641.77 246.083 3641.77 242.284 3639.43 239.941L3601.24 201.757ZM3603 420V206H3591V420H3603Z" fill="#767382"/>
<path d="M319.503 111V45.5455H331.36V73.255H361.69V45.5455H373.58V111H361.69V83.1946H331.36V111H319.503ZM407.697 111.959C402.775 111.959 398.525 110.936 394.945 108.891C391.387 106.824 388.649 103.905 386.731 100.134C384.814 96.3409 383.855 91.8771 383.855 86.7422C383.855 81.6925 384.814 77.2607 386.731 73.4467C388.67 69.6115 391.376 66.6285 394.849 64.4979C398.322 62.3459 402.402 61.2699 407.09 61.2699C410.115 61.2699 412.971 61.7599 415.655 62.7401C418.361 63.6989 420.748 65.1903 422.814 67.2145C424.902 69.2386 426.543 71.8168 427.736 74.9489C428.929 78.0597 429.526 81.767 429.526 86.071V89.6186H389.288V81.8203H418.436C418.414 79.6044 417.935 77.6335 416.998 75.9077C416.06 74.1605 414.75 72.7862 413.066 71.7848C411.404 70.7834 409.466 70.2827 407.25 70.2827C404.885 70.2827 402.807 70.858 401.017 72.0085C399.228 73.1378 397.832 74.6293 396.831 76.483C395.85 78.3153 395.35 80.3288 395.328 82.5234V89.331C395.328 92.1861 395.85 94.6364 396.895 96.6818C397.939 98.706 399.398 100.261 401.273 101.348C403.148 102.413 405.343 102.946 407.857 102.946C409.54 102.946 411.064 102.712 412.427 102.243C413.791 101.753 414.973 101.039 415.975 100.102C416.976 99.1641 417.733 98.0028 418.244 96.6179L429.047 97.8324C428.365 100.687 427.065 103.18 425.147 105.311C423.251 107.42 420.822 109.061 417.86 110.233C414.899 111.384 411.511 111.959 407.697 111.959ZM450.468 95.3395L470.123 61.9091H482.013V111H470.827V77.5376L451.235 111H439.314V61.9091H450.468V95.3395ZM466.959 45.0341H475.621C475.621 48.7628 474.268 51.7883 471.562 54.1108C468.877 56.4119 465.233 57.5625 460.631 57.5625C456.072 57.5625 452.439 56.4119 449.733 54.1108C447.048 51.7883 445.716 48.7628 445.738 45.0341H454.335C454.335 46.5682 454.804 47.9425 455.741 49.157C456.7 50.3501 458.33 50.9467 460.631 50.9467C462.89 50.9467 464.498 50.3501 465.457 49.157C466.437 47.9638 466.938 46.5895 466.959 45.0341ZM493.894 129.409V61.9091H505.272V70.027H505.943C506.539 68.8338 507.381 67.566 508.468 66.2237C509.554 64.8601 511.025 63.6989 512.878 62.7401C514.732 61.7599 517.097 61.2699 519.973 61.2699C523.766 61.2699 527.186 62.2393 530.233 64.1783C533.301 66.0959 535.73 68.9403 537.52 72.7116C539.331 76.4616 540.236 81.0639 540.236 86.5185C540.236 91.9091 539.352 96.4901 537.583 100.261C535.815 104.033 533.407 106.909 530.36 108.891C527.314 110.872 523.862 111.863 520.005 111.863C517.193 111.863 514.86 111.394 513.006 110.457C511.152 109.519 509.661 108.39 508.532 107.069C507.424 105.727 506.561 104.459 505.943 103.266H505.463V129.409H493.894ZM505.24 86.4545C505.24 89.6293 505.687 92.4098 506.582 94.7962C507.498 97.1825 508.809 99.0469 510.513 100.389C512.239 101.71 514.327 102.371 516.777 102.371C519.334 102.371 521.475 101.689 523.201 100.325C524.927 98.9403 526.227 97.0547 527.1 94.6683C527.995 92.2607 528.443 89.5227 528.443 86.4545C528.443 83.4077 528.006 80.7017 527.132 78.3366C526.259 75.9716 524.959 74.1179 523.233 72.7756C521.507 71.4332 519.355 70.7621 516.777 70.7621C514.306 70.7621 512.207 71.4119 510.481 72.7116C508.755 74.0114 507.445 75.8331 506.55 78.1768C505.676 80.5206 505.24 83.2798 505.24 86.4545ZM571.557 111.959C566.763 111.959 562.608 110.904 559.093 108.795C555.577 106.685 552.85 103.734 550.911 99.9418C548.993 96.1491 548.034 91.7173 548.034 86.6463C548.034 81.5753 548.993 77.1328 550.911 73.3189C552.85 69.505 555.577 66.5433 559.093 64.4339C562.608 62.3246 566.763 61.2699 571.557 61.2699C576.351 61.2699 580.506 62.3246 584.022 64.4339C587.537 66.5433 590.254 69.505 592.172 73.3189C594.11 77.1328 595.08 81.5753 595.08 86.6463C595.08 91.7173 594.11 96.1491 592.172 99.9418C590.254 103.734 587.537 106.685 584.022 108.795C580.506 110.904 576.351 111.959 571.557 111.959ZM571.621 102.69C574.221 102.69 576.394 101.977 578.141 100.549C579.888 99.1001 581.188 97.1612 582.04 94.7322C582.914 92.3033 583.35 89.5973 583.35 86.6143C583.35 83.6101 582.914 80.8935 582.04 78.4645C581.188 76.0142 579.888 74.0646 578.141 72.6158C576.394 71.1669 574.221 70.4425 571.621 70.4425C568.958 70.4425 566.742 71.1669 564.973 72.6158C563.226 74.0646 561.916 76.0142 561.042 78.4645C560.19 80.8935 559.764 83.6101 559.764 86.6143C559.764 89.5973 560.19 92.3033 561.042 94.7322C561.916 97.1612 563.226 99.1001 564.973 100.549C566.742 101.977 568.958 102.69 571.621 102.69ZM638.618 81.6605V91.1527H612.474V81.6605H638.618ZM616.054 61.9091V111H604.9V61.9091H616.054ZM646.192 61.9091V111H635.07V61.9091H646.192Z" fill="white"/>
<path d="M1071.62 118V52.5455H1096.68C1101.41 52.5455 1105.34 53.2912 1108.47 54.7827C1111.63 56.2528 1113.98 58.2663 1115.54 60.8232C1117.11 63.38 1117.9 66.2777 1117.9 69.5163C1117.9 72.1797 1117.39 74.4595 1116.37 76.3558C1115.34 78.2308 1113.97 79.7543 1112.24 80.9261C1110.52 82.098 1108.59 82.9396 1106.46 83.451V84.0902C1108.78 84.218 1111.01 84.9318 1113.14 86.2315C1115.29 87.5099 1117.05 89.321 1118.41 91.6648C1119.78 94.0085 1120.46 96.8423 1120.46 100.166C1120.46 103.554 1119.64 106.601 1118 109.307C1116.36 111.991 1113.88 114.112 1110.58 115.667C1107.28 117.222 1103.12 118 1098.12 118H1071.62ZM1083.48 108.092H1096.23C1100.54 108.092 1103.64 107.272 1105.53 105.631C1107.45 103.969 1108.41 101.839 1108.41 99.2393C1108.41 97.3004 1107.93 95.5533 1106.97 93.9979C1106.01 92.4212 1104.65 91.1854 1102.88 90.2905C1101.11 89.3743 1099 88.9162 1096.55 88.9162H1083.48V108.092ZM1083.48 80.3828H1095.21C1097.25 80.3828 1099.1 80.0099 1100.74 79.2642C1102.38 78.4972 1103.67 77.4212 1104.6 76.0362C1105.56 74.63 1106.04 72.968 1106.04 71.0504C1106.04 68.5149 1105.15 66.4268 1103.36 64.7862C1101.59 63.1456 1098.96 62.3253 1095.46 62.3253H1083.48V80.3828ZM1130.26 118V68.9091H1150.88C1156.69 68.9091 1161.28 70.0703 1164.65 72.3928C1168.04 74.7152 1169.73 77.9538 1169.73 82.1087C1169.73 84.8572 1168.77 87.1051 1166.86 88.8523C1164.96 90.5781 1162.37 91.7393 1159.09 92.3359C1161.67 92.549 1163.93 93.1989 1165.86 94.2855C1167.82 95.3722 1169.36 96.7997 1170.47 98.5682C1171.57 100.337 1172.13 102.371 1172.13 104.673C1172.13 107.379 1171.42 109.733 1169.99 111.736C1168.58 113.717 1166.53 115.262 1163.82 116.37C1161.13 117.457 1157.87 118 1154.04 118H1130.26ZM1141.1 108.891H1154.04C1156.17 108.891 1157.84 108.391 1159.06 107.389C1160.27 106.366 1160.88 104.982 1160.88 103.234C1160.88 101.21 1160.27 99.6229 1159.06 98.4723C1157.84 97.3004 1156.17 96.7145 1154.04 96.7145H1141.1V108.891ZM1141.1 89.2358H1151.1C1152.68 89.2358 1154.03 89.0121 1155.16 88.5646C1156.29 88.0959 1157.15 87.446 1157.75 86.6151C1158.34 85.7628 1158.64 84.7507 1158.64 83.5788C1158.64 81.8956 1157.95 80.5746 1156.56 79.6158C1155.2 78.657 1153.3 78.1776 1150.88 78.1776H1141.1V89.2358ZM1177.33 132.254V108.476H1181.23C1182.27 107.666 1183.15 106.569 1183.85 105.184C1184.55 103.778 1185.13 102.126 1185.58 100.23C1186.04 98.3125 1186.43 96.1712 1186.73 93.8061C1187.03 91.4197 1187.29 88.8523 1187.53 86.1037L1188.93 68.9091H1224.41V108.476H1232.01V132.254H1220.83V118H1188.71V132.254H1177.33ZM1193.12 108.476H1213.35V78.2415H1198.97L1198.2 86.1037C1197.77 91.3026 1197.21 95.7557 1196.51 99.4631C1195.8 103.17 1194.67 106.175 1193.12 108.476ZM1262.38 118.959C1257.46 118.959 1253.21 117.936 1249.63 115.891C1246.07 113.824 1243.34 110.905 1241.42 107.134C1239.5 103.341 1238.54 98.8771 1238.54 93.7422C1238.54 88.6925 1239.5 84.2607 1241.42 80.4467C1243.36 76.6115 1246.06 73.6285 1249.54 71.4979C1253.01 69.3459 1257.09 68.2699 1261.78 68.2699C1264.8 68.2699 1267.66 68.7599 1270.34 69.7401C1273.05 70.6989 1275.44 72.1903 1277.5 74.2145C1279.59 76.2386 1281.23 78.8168 1282.42 81.9489C1283.62 85.0597 1284.21 88.767 1284.21 93.071V96.6186H1243.98V88.8203H1273.12C1273.1 86.6044 1272.62 84.6335 1271.69 82.9077C1270.75 81.1605 1269.44 79.7862 1267.75 78.7848C1266.09 77.7834 1264.15 77.2827 1261.94 77.2827C1259.57 77.2827 1257.49 77.858 1255.7 79.0085C1253.92 80.1378 1252.52 81.6293 1251.52 83.483C1250.54 85.3153 1250.04 87.3288 1250.02 89.5234V96.331C1250.02 99.1861 1250.54 101.636 1251.58 103.682C1252.63 105.706 1254.09 107.261 1255.96 108.348C1257.84 109.413 1260.03 109.946 1262.54 109.946C1264.23 109.946 1265.75 109.712 1267.11 109.243C1268.48 108.753 1269.66 108.039 1270.66 107.102C1271.66 106.164 1272.42 105.003 1272.93 103.618L1283.73 104.832C1283.05 107.687 1281.75 110.18 1279.83 112.311C1277.94 114.42 1275.51 116.061 1272.55 117.233C1269.59 118.384 1266.2 118.959 1262.38 118.959ZM1290.61 118L1290.55 108.476H1292.24C1293.52 108.476 1294.6 108.188 1295.47 107.613C1296.34 107.038 1297.07 106.079 1297.64 104.737C1298.22 103.373 1298.67 101.54 1298.99 99.2393C1299.31 96.9382 1299.53 94.0724 1299.66 90.642L1300.52 68.9091H1336.32V118H1325.13V78.4013H1311.04L1310.27 94.2216C1310.08 98.3125 1309.62 101.86 1308.89 104.864C1308.19 107.847 1307.19 110.308 1305.89 112.247C1304.61 114.186 1303 115.635 1301.06 116.594C1299.13 117.531 1296.84 118 1294.19 118H1290.61ZM1369.7 118.959C1364.78 118.959 1360.53 117.936 1356.95 115.891C1353.39 113.824 1350.65 110.905 1348.73 107.134C1346.82 103.341 1345.86 98.8771 1345.86 93.7422C1345.86 88.6925 1346.82 84.2607 1348.73 80.4467C1350.67 76.6115 1353.38 73.6285 1356.85 71.4979C1360.32 69.3459 1364.4 68.2699 1369.09 68.2699C1372.12 68.2699 1374.97 68.7599 1377.66 69.7401C1380.36 70.6989 1382.75 72.1903 1384.82 74.2145C1386.9 76.2386 1388.54 78.8168 1389.74 81.9489C1390.93 85.0597 1391.53 88.767 1391.53 93.071V96.6186H1351.29V88.8203H1380.44C1380.42 86.6044 1379.94 84.6335 1379 82.9077C1378.06 81.1605 1376.75 79.7862 1375.07 78.7848C1373.41 77.7834 1371.47 77.2827 1369.25 77.2827C1366.89 77.2827 1364.81 77.858 1363.02 79.0085C1361.23 80.1378 1359.83 81.6293 1358.83 83.483C1357.85 85.3153 1357.35 87.3288 1357.33 89.5234V96.331C1357.33 99.1861 1357.85 101.636 1358.9 103.682C1359.94 105.706 1361.4 107.261 1363.28 108.348C1365.15 109.413 1367.34 109.946 1369.86 109.946C1371.54 109.946 1373.07 109.712 1374.43 109.243C1375.79 108.753 1376.98 108.039 1377.98 107.102C1378.98 106.164 1379.73 105.003 1380.25 103.618L1391.05 104.832C1390.37 107.687 1389.07 110.18 1387.15 112.311C1385.25 114.42 1382.82 116.061 1379.86 117.233C1376.9 118.384 1373.51 118.959 1369.7 118.959ZM1435.03 88.6605V98.1527H1408.89V88.6605H1435.03ZM1412.47 68.9091V118H1401.32V68.9091H1412.47ZM1442.61 68.9091V118H1431.49V68.9091H1442.61ZM1488.03 88.6605V98.1527H1461.89V88.6605H1488.03ZM1465.47 68.9091V118H1454.31V68.9091H1465.47ZM1495.61 68.9091V118H1484.48V68.9091H1495.61ZM1515.14 84.8892H1529.62C1535.88 84.8892 1540.73 86.4126 1544.16 89.4595C1547.59 92.5064 1549.32 96.5014 1549.34 101.445C1549.32 104.662 1548.53 107.517 1546.97 110.01C1545.44 112.503 1543.2 114.463 1540.26 115.891C1537.34 117.297 1533.8 118 1529.62 118H1507.31V68.9091H1518.47V108.508H1529.62C1532.13 108.508 1534.2 107.869 1535.82 106.59C1537.44 105.29 1538.25 103.629 1538.25 101.604C1538.25 99.4737 1537.44 97.7372 1535.82 96.3949C1534.2 95.0526 1532.13 94.3814 1529.62 94.3814H1515.14V84.8892ZM1555.44 118V68.9091H1567.01V118H1555.44ZM1590.1 102.339L1609.75 68.9091H1621.64V118H1610.46V84.5376L1590.86 118H1578.94V68.9091H1590.1V102.339ZM1606.59 52.0341H1615.25C1615.25 55.7628 1613.9 58.7883 1611.19 61.1108C1608.51 63.4119 1604.86 64.5625 1600.26 64.5625C1595.7 64.5625 1592.07 63.4119 1589.36 61.1108C1586.68 58.7883 1585.35 55.7628 1585.37 52.0341H1593.96C1593.96 53.5682 1594.43 54.9425 1595.37 56.157C1596.33 57.3501 1597.96 57.9467 1600.26 57.9467C1602.52 57.9467 1604.13 57.3501 1605.09 56.157C1606.07 54.9638 1606.57 53.5895 1606.59 52.0341ZM1689.56 88.6605V98.1527H1663.42V88.6605H1689.56ZM1667 68.9091V118H1655.85V68.9091H1667ZM1697.14 68.9091V118H1686.02V68.9091H1697.14ZM1730.58 118.959C1725.66 118.959 1721.41 117.936 1717.83 115.891C1714.27 113.824 1711.53 110.905 1709.61 107.134C1707.69 103.341 1706.74 98.8771 1706.74 93.7422C1706.74 88.6925 1707.69 84.2607 1709.61 80.4467C1711.55 76.6115 1714.26 73.6285 1717.73 71.4979C1721.2 69.3459 1725.28 68.2699 1729.97 68.2699C1733 68.2699 1735.85 68.7599 1738.54 69.7401C1741.24 70.6989 1743.63 72.1903 1745.7 74.2145C1747.78 76.2386 1749.42 78.8168 1750.62 81.9489C1751.81 85.0597 1752.41 88.767 1752.41 93.071V96.6186H1712.17V88.8203H1741.32C1741.3 86.6044 1740.82 84.6335 1739.88 82.9077C1738.94 81.1605 1737.63 79.7862 1735.95 78.7848C1734.29 77.7834 1732.35 77.2827 1730.13 77.2827C1727.77 77.2827 1725.69 77.858 1723.9 79.0085C1722.11 80.1378 1720.71 81.6293 1719.71 83.483C1718.73 85.3153 1718.23 87.3288 1718.21 89.5234V96.331C1718.21 99.1861 1718.73 101.636 1719.78 103.682C1720.82 105.706 1722.28 107.261 1724.15 108.348C1726.03 109.413 1728.22 109.946 1730.74 109.946C1732.42 109.946 1733.94 109.712 1735.31 109.243C1736.67 108.753 1737.85 108.039 1738.86 107.102C1739.86 106.164 1740.61 105.003 1741.12 103.618L1751.93 104.832C1751.25 107.687 1749.95 110.18 1748.03 112.311C1746.13 114.42 1743.7 116.061 1740.74 117.233C1737.78 118.384 1734.39 118.959 1730.58 118.959ZM1773.35 102.339L1793 68.9091H1804.89V118H1793.71V84.5376L1774.12 118H1762.19V68.9091H1773.35V102.339ZM1789.84 52.0341H1798.5C1798.5 55.7628 1797.15 58.7883 1794.44 61.1108C1791.76 63.4119 1788.11 64.5625 1783.51 64.5625C1778.95 64.5625 1775.32 63.4119 1772.61 61.1108C1769.93 58.7883 1768.6 55.7628 1768.62 52.0341H1777.22C1777.22 53.5682 1777.68 54.9425 1778.62 56.157C1779.58 57.3501 1781.21 57.9467 1783.51 57.9467C1785.77 57.9467 1787.38 57.3501 1788.34 56.157C1789.32 54.9638 1789.82 53.5895 1789.84 52.0341ZM1816.77 136.409V68.9091H1828.15V77.027H1828.82C1829.42 75.8338 1830.26 74.566 1831.35 73.2237C1832.44 71.8601 1833.91 70.6989 1835.76 69.7401C1837.61 68.7599 1839.98 68.2699 1842.85 68.2699C1846.65 68.2699 1850.07 69.2393 1853.11 71.1783C1856.18 73.0959 1858.61 75.9403 1860.4 79.7116C1862.21 83.4616 1863.12 88.0639 1863.12 93.5185C1863.12 98.9091 1862.23 103.49 1860.46 107.261C1858.7 111.033 1856.29 113.909 1853.24 115.891C1850.19 117.872 1846.74 118.863 1842.89 118.863C1840.07 118.863 1837.74 118.394 1835.89 117.457C1834.03 116.519 1832.54 115.39 1831.41 114.069C1830.3 112.727 1829.44 111.459 1828.82 110.266H1828.34V136.409H1816.77ZM1828.12 93.4545C1828.12 96.6293 1828.57 99.4098 1829.46 101.796C1830.38 104.183 1831.69 106.047 1833.39 107.389C1835.12 108.71 1837.21 109.371 1839.66 109.371C1842.22 109.371 1844.36 108.689 1846.08 107.325C1847.81 105.94 1849.11 104.055 1849.98 101.668C1850.88 99.2607 1851.32 96.5227 1851.32 93.4545C1851.32 90.4077 1850.89 87.7017 1850.01 85.3366C1849.14 82.9716 1847.84 81.1179 1846.11 79.7756C1844.39 78.4332 1842.24 77.7621 1839.66 77.7621C1837.19 77.7621 1835.09 78.4119 1833.36 79.7116C1831.64 81.0114 1830.33 82.8331 1829.43 85.1768C1828.56 87.5206 1828.12 90.2798 1828.12 93.4545ZM1894.44 118.959C1889.64 118.959 1885.49 117.904 1881.97 115.795C1878.46 113.685 1875.73 110.734 1873.79 106.942C1871.87 103.149 1870.92 98.7173 1870.92 93.6463C1870.92 88.5753 1871.87 84.1328 1873.79 80.3189C1875.73 76.505 1878.46 73.5433 1881.97 71.4339C1885.49 69.3246 1889.64 68.2699 1894.44 68.2699C1899.23 68.2699 1903.39 69.3246 1906.9 71.4339C1910.42 73.5433 1913.13 76.505 1915.05 80.3189C1916.99 84.1328 1917.96 88.5753 1917.96 93.6463C1917.96 98.7173 1916.99 103.149 1915.05 106.942C1913.13 110.734 1910.42 113.685 1906.9 115.795C1903.39 117.904 1899.23 118.959 1894.44 118.959ZM1894.5 109.69C1897.1 109.69 1899.27 108.977 1901.02 107.549C1902.77 106.1 1904.07 104.161 1904.92 101.732C1905.79 99.3033 1906.23 96.5973 1906.23 93.6143C1906.23 90.6101 1905.79 87.8935 1904.92 85.4645C1904.07 83.0142 1902.77 81.0646 1901.02 79.6158C1899.27 78.1669 1897.1 77.4425 1894.5 77.4425C1891.84 77.4425 1889.62 78.1669 1887.85 79.6158C1886.11 81.0646 1884.8 83.0142 1883.92 85.4645C1883.07 87.8935 1882.64 90.6101 1882.64 93.6143C1882.64 96.5973 1883.07 99.3033 1883.92 101.732C1884.8 104.161 1886.11 106.1 1887.85 107.549C1889.62 108.977 1891.84 109.69 1894.5 109.69ZM1961.5 88.6605V98.1527H1935.36V88.6605H1961.5ZM1938.93 68.9091V118H1927.78V68.9091H1938.93ZM1969.07 68.9091V118H1957.95V68.9091H1969.07Z" fill="white"/>
<path d="M2198.83 118V52.5455H2223.89C2228.62 52.5455 2232.55 53.2912 2235.68 54.7827C2238.83 56.2528 2241.19 58.2663 2242.74 60.8232C2244.32 63.38 2245.11 66.2777 2245.11 69.5163C2245.11 72.1797 2244.6 74.4595 2243.58 76.3558C2242.55 78.2308 2241.18 79.7543 2239.45 80.9261C2237.73 82.098 2235.8 82.9396 2233.67 83.451V84.0902C2235.99 84.218 2238.22 84.9318 2240.35 86.2315C2242.5 87.5099 2244.26 89.321 2245.62 91.6648C2246.98 94.0085 2247.67 96.8423 2247.67 100.166C2247.67 103.554 2246.85 106.601 2245.21 109.307C2243.56 111.991 2241.09 114.112 2237.79 115.667C2234.49 117.222 2230.33 118 2225.33 118H2198.83ZM2210.69 108.092H2223.44C2227.74 108.092 2230.84 107.272 2232.74 105.631C2234.66 103.969 2235.62 101.839 2235.62 99.2393C2235.62 97.3004 2235.14 95.5533 2234.18 93.9979C2233.22 92.4212 2231.86 91.1854 2230.09 90.2905C2228.32 89.3743 2226.21 88.9162 2223.76 88.9162H2210.69V108.092ZM2210.69 80.3828H2222.42C2224.46 80.3828 2226.31 80.0099 2227.95 79.2642C2229.59 78.4972 2230.88 77.4212 2231.81 76.0362C2232.77 74.63 2233.25 72.968 2233.25 71.0504C2233.25 68.5149 2232.36 66.4268 2230.57 64.7862C2228.8 63.1456 2226.17 62.3253 2222.67 62.3253H2210.69V80.3828ZM2266.93 68.9091L2276.84 87.0305L2286.91 68.9091H2299.15L2284.35 93.4545L2299.4 118H2287.22L2276.84 100.326L2266.55 118H2254.27L2269.23 93.4545L2254.66 68.9091H2266.93ZM2327.66 118.959C2322.87 118.959 2318.71 117.904 2315.2 115.795C2311.68 113.685 2308.96 110.734 2307.02 106.942C2305.1 103.149 2304.14 98.7173 2304.14 93.6463C2304.14 88.5753 2305.1 84.1328 2307.02 80.3189C2308.96 76.505 2311.68 73.5433 2315.2 71.4339C2318.71 69.3246 2322.87 68.2699 2327.66 68.2699C2332.46 68.2699 2336.61 69.3246 2340.13 71.4339C2343.64 73.5433 2346.36 76.505 2348.28 80.3189C2350.22 84.1328 2351.19 88.5753 2351.19 93.6463C2351.19 98.7173 2350.22 103.149 2348.28 106.942C2346.36 110.734 2343.64 113.685 2340.13 115.795C2336.61 117.904 2332.46 118.959 2327.66 118.959ZM2327.73 109.69C2330.33 109.69 2332.5 108.977 2334.25 107.549C2335.99 106.1 2337.29 104.161 2338.15 101.732C2339.02 99.3033 2339.46 96.5973 2339.46 93.6143C2339.46 90.6101 2339.02 87.8935 2338.15 85.4645C2337.29 83.0142 2335.99 81.0646 2334.25 79.6158C2332.5 78.1669 2330.33 77.4425 2327.73 77.4425C2325.06 77.4425 2322.85 78.1669 2321.08 79.6158C2319.33 81.0646 2318.02 83.0142 2317.15 85.4645C2316.3 87.8935 2315.87 90.6101 2315.87 93.6143C2315.87 96.5973 2316.3 99.3033 2317.15 101.732C2318.02 104.161 2319.33 106.1 2321.08 107.549C2322.85 108.977 2325.06 109.69 2327.73 109.69ZM2356.66 132.254V108.476H2360.56C2361.6 107.666 2362.48 106.569 2363.18 105.184C2363.88 103.778 2364.46 102.126 2364.9 100.23C2365.37 98.3125 2365.76 96.1712 2366.05 93.8061C2366.35 91.4197 2366.62 88.8523 2366.85 86.1037L2368.26 68.9091H2403.74V108.476H2411.34V132.254H2400.16V118H2368.04V132.254H2356.66ZM2372.45 108.476H2392.68V78.2415H2378.3L2377.53 86.1037C2377.1 91.3026 2376.54 95.7557 2375.83 99.4631C2375.13 103.17 2374 106.175 2372.45 108.476ZM2453.7 88.6605V98.1527H2427.55V88.6605H2453.7ZM2431.13 68.9091V118H2419.98V68.9091H2431.13ZM2461.27 68.9091V118H2450.15V68.9091H2461.27ZM2494.39 118.959C2489.6 118.959 2485.44 117.904 2481.93 115.795C2478.41 113.685 2475.68 110.734 2473.74 106.942C2471.83 103.149 2470.87 98.7173 2470.87 93.6463C2470.87 88.5753 2471.83 84.1328 2473.74 80.3189C2475.68 76.505 2478.41 73.5433 2481.93 71.4339C2485.44 69.3246 2489.6 68.2699 2494.39 68.2699C2499.19 68.2699 2503.34 69.3246 2506.86 71.4339C2510.37 73.5433 2513.09 76.505 2515.01 80.3189C2516.94 84.1328 2517.91 88.5753 2517.91 93.6463C2517.91 98.7173 2516.94 103.149 2515.01 106.942C2513.09 110.734 2510.37 113.685 2506.86 115.795C2503.34 117.904 2499.19 118.959 2494.39 118.959ZM2494.46 109.69C2497.05 109.69 2499.23 108.977 2500.97 107.549C2502.72 106.1 2504.02 104.161 2504.87 101.732C2505.75 99.3033 2506.18 96.5973 2506.18 93.6143C2506.18 90.6101 2505.75 87.8935 2504.87 85.4645C2504.02 83.0142 2502.72 81.0646 2500.97 79.6158C2499.23 78.1669 2497.05 77.4425 2494.46 77.4425C2491.79 77.4425 2489.58 78.1669 2487.81 79.6158C2486.06 81.0646 2484.75 83.0142 2483.88 85.4645C2483.02 87.8935 2482.6 90.6101 2482.6 93.6143C2482.6 96.5973 2483.02 99.3033 2483.88 101.732C2484.75 104.161 2486.06 106.1 2487.81 107.549C2489.58 108.977 2491.79 109.69 2494.46 109.69ZM2538.89 102.339L2558.54 68.9091H2570.43V118H2559.25V84.5376L2539.65 118H2527.73V68.9091H2538.89V102.339ZM2555.38 52.0341H2564.04C2564.04 55.7628 2562.69 58.7883 2559.98 61.1108C2557.3 63.4119 2553.65 64.5625 2549.05 64.5625C2544.49 64.5625 2540.86 63.4119 2538.15 61.1108C2535.47 58.7883 2534.14 55.7628 2534.16 52.0341H2542.75C2542.75 53.5682 2543.22 54.9425 2544.16 56.157C2545.12 57.3501 2546.75 57.9467 2549.05 57.9467C2551.31 57.9467 2552.92 57.3501 2553.88 56.157C2554.86 54.9638 2555.36 53.5895 2555.38 52.0341ZM2638.36 88.6605V98.1527H2612.21V88.6605H2638.36ZM2615.79 68.9091V118H2604.64V68.9091H2615.79ZM2645.93 68.9091V118H2634.81V68.9091H2645.93ZM2679.37 118.959C2674.45 118.959 2670.2 117.936 2666.62 115.891C2663.06 113.824 2660.32 110.905 2658.4 107.134C2656.49 103.341 2655.53 98.8771 2655.53 93.7422C2655.53 88.6925 2656.49 84.2607 2658.4 80.4467C2660.34 76.6115 2663.05 73.6285 2666.52 71.4979C2669.99 69.3459 2674.07 68.2699 2678.76 68.2699C2681.79 68.2699 2684.64 68.7599 2687.33 69.7401C2690.03 70.6989 2692.42 72.1903 2694.49 74.2145C2696.57 76.2386 2698.21 78.8168 2699.41 81.9489C2700.6 85.0597 2701.2 88.767 2701.2 93.071V96.6186H2660.96V88.8203H2690.11C2690.09 86.6044 2689.61 84.6335 2688.67 82.9077C2687.73 81.1605 2686.42 79.7862 2684.74 78.7848C2683.08 77.7834 2681.14 77.2827 2678.92 77.2827C2676.56 77.2827 2674.48 77.858 2672.69 79.0085C2670.9 80.1378 2669.5 81.6293 2668.5 83.483C2667.52 85.3153 2667.02 87.3288 2667 89.5234V96.331C2667 99.1861 2667.52 101.636 2668.57 103.682C2669.61 105.706 2671.07 107.261 2672.94 108.348C2674.82 109.413 2677.01 109.946 2679.53 109.946C2681.21 109.946 2682.74 109.712 2684.1 109.243C2685.46 108.753 2686.65 108.039 2687.65 107.102C2688.65 106.164 2689.4 105.003 2689.92 103.618L2700.72 104.832C2700.04 107.687 2698.74 110.18 2696.82 112.311C2694.92 114.42 2692.49 116.061 2689.53 117.233C2686.57 118.384 2683.18 118.959 2679.37 118.959ZM2722.14 102.339L2741.8 68.9091H2753.68V118H2742.5V84.5376L2722.91 118H2710.99V68.9091H2722.14V102.339ZM2738.63 52.0341H2747.29C2747.29 55.7628 2745.94 58.7883 2743.23 61.1108C2740.55 63.4119 2736.91 64.5625 2732.3 64.5625C2727.74 64.5625 2724.11 63.4119 2721.4 61.1108C2718.72 58.7883 2717.39 55.7628 2717.41 52.0341H2726.01C2726.01 53.5682 2726.48 54.9425 2727.41 56.157C2728.37 57.3501 2730 57.9467 2732.3 57.9467C2734.56 57.9467 2736.17 57.3501 2737.13 56.157C2738.11 54.9638 2738.61 53.5895 2738.63 52.0341ZM2765.57 136.409V68.9091H2776.94V77.027H2777.61C2778.21 75.8338 2779.05 74.566 2780.14 73.2237C2781.23 71.8601 2782.7 70.6989 2784.55 69.7401C2786.4 68.7599 2788.77 68.2699 2791.65 68.2699C2795.44 68.2699 2798.86 69.2393 2801.9 71.1783C2804.97 73.0959 2807.4 75.9403 2809.19 79.7116C2811 83.4616 2811.91 88.0639 2811.91 93.5185C2811.91 98.9091 2811.02 103.49 2809.26 107.261C2807.49 111.033 2805.08 113.909 2802.03 115.891C2798.99 117.872 2795.53 118.863 2791.68 118.863C2788.86 118.863 2786.53 118.394 2784.68 117.457C2782.82 116.519 2781.33 115.39 2780.2 114.069C2779.1 112.727 2778.23 111.459 2777.61 110.266H2777.14V136.409H2765.57ZM2776.91 93.4545C2776.91 96.6293 2777.36 99.4098 2778.25 101.796C2779.17 104.183 2780.48 106.047 2782.19 107.389C2783.91 108.71 2786 109.371 2788.45 109.371C2791.01 109.371 2793.15 108.689 2794.87 107.325C2796.6 105.94 2797.9 104.055 2798.77 101.668C2799.67 99.2607 2800.11 96.5227 2800.11 93.4545C2800.11 90.4077 2799.68 87.7017 2798.8 85.3366C2797.93 82.9716 2796.63 81.1179 2794.91 79.7756C2793.18 78.4332 2791.03 77.7621 2788.45 77.7621C2785.98 77.7621 2783.88 78.4119 2782.15 79.7116C2780.43 81.0114 2779.12 82.8331 2778.22 85.1768C2777.35 87.5206 2776.91 90.2798 2776.91 93.4545ZM2843.23 118.959C2838.44 118.959 2834.28 117.904 2830.76 115.795C2827.25 113.685 2824.52 110.734 2822.58 106.942C2820.67 103.149 2819.71 98.7173 2819.71 93.6463C2819.71 88.5753 2820.67 84.1328 2822.58 80.3189C2824.52 76.505 2827.25 73.5433 2830.76 71.4339C2834.28 69.3246 2838.44 68.2699 2843.23 68.2699C2848.02 68.2699 2852.18 69.3246 2855.69 71.4339C2859.21 73.5433 2861.93 76.505 2863.84 80.3189C2865.78 84.1328 2866.75 88.5753 2866.75 93.6463C2866.75 98.7173 2865.78 103.149 2863.84 106.942C2861.93 110.734 2859.21 113.685 2855.69 115.795C2852.18 117.904 2848.02 118.959 2843.23 118.959ZM2843.29 109.69C2845.89 109.69 2848.07 108.977 2849.81 107.549C2851.56 106.1 2852.86 104.161 2853.71 101.732C2854.59 99.3033 2855.02 96.5973 2855.02 93.6143C2855.02 90.6101 2854.59 87.8935 2853.71 85.4645C2852.86 83.0142 2851.56 81.0646 2849.81 79.6158C2848.07 78.1669 2845.89 77.4425 2843.29 77.4425C2840.63 77.4425 2838.41 78.1669 2836.65 79.6158C2834.9 81.0646 2833.59 83.0142 2832.71 85.4645C2831.86 87.8935 2831.44 90.6101 2831.44 93.6143C2831.44 96.5973 2831.86 99.3033 2832.71 101.732C2833.59 104.161 2834.9 106.1 2836.65 107.549C2838.41 108.977 2840.63 109.69 2843.29 109.69ZM2910.29 88.6605V98.1527H2884.15V88.6605H2910.29ZM2887.73 68.9091V118H2876.57V68.9091H2887.73ZM2917.86 68.9091V118H2906.74V68.9091H2917.86Z" fill="white"/>
<path d="M3201.52 111V45.5455H3226.57C3231.3 45.5455 3235.23 46.2912 3238.37 47.7827C3241.52 49.2528 3243.87 51.2663 3245.43 53.8232C3247.01 56.38 3247.79 59.2777 3247.79 62.5163C3247.79 65.1797 3247.28 67.4595 3246.26 69.3558C3245.24 71.2308 3243.86 72.7543 3242.14 73.9261C3240.41 75.098 3238.48 75.9396 3236.35 76.451V77.0902C3238.67 77.218 3240.9 77.9318 3243.03 79.2315C3245.18 80.5099 3246.94 82.321 3248.31 84.6648C3249.67 87.0085 3250.35 89.8423 3250.35 93.1662C3250.35 96.554 3249.53 99.6009 3247.89 102.307C3246.25 104.991 3243.78 107.112 3240.48 108.667C3237.17 110.222 3233.02 111 3228.01 111H3201.52ZM3213.37 101.092H3226.12C3230.43 101.092 3233.53 100.272 3235.43 98.6314C3237.34 96.9695 3238.3 94.8388 3238.3 92.2393C3238.3 90.3004 3237.82 88.5533 3236.86 86.9979C3235.9 85.4212 3234.54 84.1854 3232.77 83.2905C3231 82.3743 3228.89 81.9162 3226.44 81.9162H3213.37V101.092ZM3213.37 73.3828H3225.1C3227.15 73.3828 3228.99 73.0099 3230.63 72.2642C3232.27 71.4972 3233.56 70.4212 3234.5 69.0362C3235.46 67.63 3235.94 65.968 3235.94 64.0504C3235.94 61.5149 3235.04 59.4268 3233.25 57.7862C3231.48 56.1456 3228.85 55.3253 3225.36 55.3253H3213.37V73.3828ZM3267.98 77.8892H3282.46C3288.73 77.8892 3293.57 79.4126 3297 82.4595C3300.44 85.5064 3302.16 89.5014 3302.18 94.4446C3302.16 97.6619 3301.37 100.517 3299.82 103.01C3298.28 105.503 3296.05 107.463 3293.11 108.891C3290.19 110.297 3286.64 111 3282.46 111H3260.15V61.9091H3271.31V101.508H3282.46C3284.98 101.508 3287.04 100.869 3288.66 99.5902C3290.28 98.2905 3291.09 96.6286 3291.09 94.6044C3291.09 92.4737 3290.28 90.7372 3288.66 89.3949C3287.04 88.0526 3284.98 87.3814 3282.46 87.3814H3267.98V77.8892ZM3308.29 111V61.9091H3319.86V111H3308.29ZM3341.25 61.9091L3351.15 80.0305L3361.22 61.9091H3373.46L3358.66 86.4545L3373.72 111H3361.54L3351.15 93.326L3340.86 111H3328.59L3343.55 86.4545L3328.97 61.9091H3341.25ZM3401.98 111.959C3397.18 111.959 3393.03 110.904 3389.51 108.795C3386 106.685 3383.27 103.734 3381.33 99.9418C3379.41 96.1491 3378.46 91.7173 3378.46 86.6463C3378.46 81.5753 3379.41 77.1328 3381.33 73.3189C3383.27 69.505 3386 66.5433 3389.51 64.4339C3393.03 62.3246 3397.18 61.2699 3401.98 61.2699C3406.77 61.2699 3410.93 62.3246 3414.44 64.4339C3417.96 66.5433 3420.67 69.505 3422.59 73.3189C3424.53 77.1328 3425.5 81.5753 3425.5 86.6463C3425.5 91.7173 3424.53 96.1491 3422.59 99.9418C3420.67 103.734 3417.96 106.685 3414.44 108.795C3410.93 110.904 3406.77 111.959 3401.98 111.959ZM3402.04 102.69C3404.64 102.69 3406.81 101.977 3408.56 100.549C3410.31 99.1001 3411.61 97.1612 3412.46 94.7322C3413.33 92.3033 3413.77 89.5973 3413.77 86.6143C3413.77 83.6101 3413.33 80.8935 3412.46 78.4645C3411.61 76.0142 3410.31 74.0646 3408.56 72.6158C3406.81 71.1669 3404.64 70.4425 3402.04 70.4425C3399.38 70.4425 3397.16 71.1669 3395.39 72.6158C3393.65 74.0646 3392.34 76.0142 3391.46 78.4645C3390.61 80.8935 3390.18 83.6101 3390.18 86.6143C3390.18 89.5973 3390.61 92.3033 3391.46 94.7322C3392.34 97.1612 3393.65 99.1001 3395.39 100.549C3397.16 101.977 3399.38 102.69 3402.04 102.69ZM3430.97 125.254V101.476H3434.87C3435.92 100.666 3436.79 99.5689 3437.49 98.1839C3438.2 96.7777 3438.77 95.1264 3439.22 93.2301C3439.69 91.3125 3440.07 89.1712 3440.37 86.8061C3440.67 84.4197 3440.93 81.8523 3441.17 79.1037L3442.58 61.9091H3478.05V101.476H3485.66V125.254H3474.47V111H3442.35V125.254H3430.97ZM3446.76 101.476H3466.99V71.2415H3452.61L3451.84 79.1037C3451.42 84.3026 3450.85 88.7557 3450.15 92.4631C3449.45 96.1705 3448.32 99.1747 3446.76 101.476ZM3528.01 81.6605V91.1527H3501.87V81.6605H3528.01ZM3505.45 61.9091V111H3494.3V61.9091H3505.45ZM3535.59 61.9091V111H3524.47V61.9091H3535.59ZM3568.71 111.959C3563.91 111.959 3559.76 110.904 3556.24 108.795C3552.73 106.685 3550 103.734 3548.06 99.9418C3546.14 96.1491 3545.18 91.7173 3545.18 86.6463C3545.18 81.5753 3546.14 77.1328 3548.06 73.3189C3550 69.505 3552.73 66.5433 3556.24 64.4339C3559.76 62.3246 3563.91 61.2699 3568.71 61.2699C3573.5 61.2699 3577.66 62.3246 3581.17 64.4339C3584.69 66.5433 3587.4 69.505 3589.32 73.3189C3591.26 77.1328 3592.23 81.5753 3592.23 86.6463C3592.23 91.7173 3591.26 96.1491 3589.32 99.9418C3587.4 103.734 3584.69 106.685 3581.17 108.795C3577.66 110.904 3573.5 111.959 3568.71 111.959ZM3568.77 102.69C3571.37 102.69 3573.54 101.977 3575.29 100.549C3577.04 99.1001 3578.34 97.1612 3579.19 94.7322C3580.06 92.3033 3580.5 89.5973 3580.5 86.6143C3580.5 83.6101 3580.06 80.8935 3579.19 78.4645C3578.34 76.0142 3577.04 74.0646 3575.29 72.6158C3573.54 71.1669 3571.37 70.4425 3568.77 70.4425C3566.11 70.4425 3563.89 71.1669 3562.12 72.6158C3560.38 74.0646 3559.07 76.0142 3558.19 78.4645C3557.34 80.8935 3556.91 83.6101 3556.91 86.6143C3556.91 89.5973 3557.34 92.3033 3558.19 94.7322C3559.07 97.1612 3560.38 99.1001 3562.12 100.549C3563.89 101.977 3566.11 102.69 3568.77 102.69ZM3613.2 95.3395L3632.86 61.9091H3644.75V111H3633.56V77.5376L3613.97 111H3602.05V61.9091H3613.2V95.3395ZM3629.69 45.0341H3638.36C3638.36 48.7628 3637 51.7883 3634.3 54.1108C3631.61 56.4119 3627.97 57.5625 3623.37 57.5625C3618.81 57.5625 3615.17 56.4119 3612.47 54.1108C3609.78 51.7883 3608.45 48.7628 3608.47 45.0341H3617.07C3617.07 46.5682 3617.54 47.9425 3618.48 49.157C3619.44 50.3501 3621.07 50.9467 3623.37 50.9467C3625.63 50.9467 3627.23 50.3501 3628.19 49.157C3629.17 47.9638 3629.67 46.5895 3629.69 45.0341ZM3712.67 81.6605V91.1527H3686.53V81.6605H3712.67ZM3690.11 61.9091V111H3678.95V61.9091H3690.11ZM3720.25 61.9091V111H3709.12V61.9091H3720.25ZM3753.68 111.959C3748.76 111.959 3744.51 110.936 3740.93 108.891C3737.37 106.824 3734.64 103.905 3732.72 100.134C3730.8 96.3409 3729.84 91.8771 3729.84 86.7422C3729.84 81.6925 3730.8 77.2607 3732.72 73.4467C3734.66 69.6115 3737.36 66.6285 3740.84 64.4979C3744.31 62.3459 3748.39 61.2699 3753.08 61.2699C3756.1 61.2699 3758.96 61.7599 3761.64 62.7401C3764.35 63.6989 3766.73 65.1903 3768.8 67.2145C3770.89 69.2386 3772.53 71.8168 3773.72 74.9489C3774.92 78.0597 3775.51 81.767 3775.51 86.071V89.6186H3735.28V81.8203H3764.42C3764.4 79.6044 3763.92 77.6335 3762.98 75.9077C3762.05 74.1605 3760.74 72.7862 3759.05 71.7848C3757.39 70.7834 3755.45 70.2827 3753.24 70.2827C3750.87 70.2827 3748.79 70.858 3747 72.0085C3745.21 73.1378 3743.82 74.6293 3742.82 76.483C3741.84 78.3153 3741.34 80.3288 3741.32 82.5234V89.331C3741.32 92.1861 3741.84 94.6364 3742.88 96.6818C3743.93 98.706 3745.39 100.261 3747.26 101.348C3749.14 102.413 3751.33 102.946 3753.84 102.946C3755.53 102.946 3757.05 102.712 3758.41 102.243C3759.78 101.753 3760.96 101.039 3761.96 100.102C3762.96 99.1641 3763.72 98.0028 3764.23 96.6179L3775.03 97.8324C3774.35 100.687 3773.05 103.18 3771.13 105.311C3769.24 107.42 3766.81 109.061 3763.85 110.233C3760.89 111.384 3757.5 111.959 3753.68 111.959ZM3796.46 95.3395L3816.11 61.9091H3828V111H3816.81V77.5376L3797.22 111H3785.3V61.9091H3796.46V95.3395ZM3812.95 45.0341H3821.61C3821.61 48.7628 3820.25 51.7883 3817.55 54.1108C3814.86 56.4119 3811.22 57.5625 3806.62 57.5625C3802.06 57.5625 3798.43 56.4119 3795.72 54.1108C3793.04 51.7883 3791.7 48.7628 3791.73 45.0341H3800.32C3800.32 46.5682 3800.79 47.9425 3801.73 49.157C3802.69 50.3501 3804.32 50.9467 3806.62 50.9467C3808.88 50.9467 3810.49 50.3501 3811.44 49.157C3812.42 47.9638 3812.93 46.5895 3812.95 45.0341ZM3839.88 129.409V61.9091H3851.26V70.027H3851.93C3852.53 68.8338 3853.37 67.566 3854.45 66.2237C3855.54 64.8601 3857.01 63.6989 3858.87 62.7401C3860.72 61.7599 3863.08 61.2699 3865.96 61.2699C3869.75 61.2699 3873.17 62.2393 3876.22 64.1783C3879.29 66.0959 3881.72 68.9403 3883.51 72.7116C3885.32 76.4616 3886.22 81.0639 3886.22 86.5185C3886.22 91.9091 3885.34 96.4901 3883.57 100.261C3881.8 104.033 3879.39 106.909 3876.35 108.891C3873.3 110.872 3869.85 111.863 3865.99 111.863C3863.18 111.863 3860.85 111.394 3858.99 110.457C3857.14 109.519 3855.65 108.39 3854.52 107.069C3853.41 105.727 3852.55 104.459 3851.93 103.266H3851.45V129.409H3839.88ZM3851.23 86.4545C3851.23 89.6293 3851.67 92.4098 3852.57 94.7962C3853.49 97.1825 3854.8 99.0469 3856.5 100.389C3858.23 101.71 3860.31 102.371 3862.76 102.371C3865.32 102.371 3867.46 101.689 3869.19 100.325C3870.91 98.9403 3872.21 97.0547 3873.09 94.6683C3873.98 92.2607 3874.43 89.5227 3874.43 86.4545C3874.43 83.4077 3873.99 80.7017 3873.12 78.3366C3872.25 75.9716 3870.95 74.1179 3869.22 72.7756C3867.49 71.4332 3865.34 70.7621 3862.76 70.7621C3860.29 70.7621 3858.19 71.4119 3856.47 72.7116C3854.74 74.0114 3853.43 75.8331 3852.54 78.1768C3851.66 80.5206 3851.23 83.2798 3851.23 86.4545ZM3917.54 111.959C3912.75 111.959 3908.6 110.904 3905.08 108.795C3901.56 106.685 3898.84 103.734 3896.9 99.9418C3894.98 96.1491 3894.02 91.7173 3894.02 86.6463C3894.02 81.5753 3894.98 77.1328 3896.9 73.3189C3898.84 69.505 3901.56 66.5433 3905.08 64.4339C3908.6 62.3246 3912.75 61.2699 3917.54 61.2699C3922.34 61.2699 3926.49 62.3246 3930.01 64.4339C3933.52 66.5433 3936.24 69.505 3938.16 73.3189C3940.1 77.1328 3941.07 81.5753 3941.07 86.6463C3941.07 91.7173 3940.1 96.1491 3938.16 99.9418C3936.24 103.734 3933.52 106.685 3930.01 108.795C3926.49 110.904 3922.34 111.959 3917.54 111.959ZM3917.61 102.69C3920.21 102.69 3922.38 101.977 3924.13 100.549C3925.88 99.1001 3927.18 97.1612 3928.03 94.7322C3928.9 92.3033 3929.34 89.5973 3929.34 86.6143C3929.34 83.6101 3928.9 80.8935 3928.03 78.4645C3927.18 76.0142 3925.88 74.0646 3924.13 72.6158C3922.38 71.1669 3920.21 70.4425 3917.61 70.4425C3914.95 70.4425 3912.73 71.1669 3910.96 72.6158C3909.21 74.0646 3907.9 76.0142 3907.03 78.4645C3906.18 80.8935 3905.75 83.6101 3905.75 86.6143C3905.75 89.5973 3906.18 92.3033 3907.03 94.7322C3907.9 97.1612 3909.21 99.1001 3910.96 100.549C3912.73 101.977 3914.95 102.69 3917.61 102.69ZM3984.61 81.6605V91.1527H3958.46V81.6605H3984.61ZM3962.04 61.9091V111H3950.89V61.9091H3962.04ZM3992.18 61.9091V111H3981.06V61.9091H3992.18Z" fill="white"/>
<path d="M4250.21 111H4237.55L4260.59 45.5455H4275.23L4298.31 111H4285.65L4268.17 58.9688H4267.66L4250.21 111ZM4250.62 85.3359H4285.14V94.8601H4250.62V85.3359ZM4306.42 111V61.9091H4317.99V81.7244H4322.2L4336.97 61.9091H4350.9L4332.72 86.0071L4351.1 111H4337.1L4323.64 92.495H4317.99V111H4306.42ZM4354.97 71.4013V61.9091H4397.93V71.4013H4382.04V111H4370.86V71.4013H4354.97ZM4418.29 95.3395L4437.95 61.9091H4449.84V111H4438.65V77.5376L4419.06 111H4407.14V61.9091H4418.29V95.3395ZM4461.72 111V61.9091H4482.33C4488.15 61.9091 4492.74 63.0703 4496.11 65.3928C4499.5 67.7152 4501.19 70.9538 4501.19 75.1087C4501.19 77.8572 4500.23 80.1051 4498.31 81.8523C4496.42 83.5781 4493.83 84.7393 4490.55 85.3359C4493.13 85.549 4495.38 86.1989 4497.32 87.2855C4499.28 88.3722 4500.82 89.7997 4501.92 91.5682C4503.03 93.3366 4503.59 95.3714 4503.59 97.6726C4503.59 100.379 4502.87 102.733 4501.45 104.736C4500.04 106.717 4497.98 108.262 4495.28 109.37C4492.59 110.457 4489.33 111 4485.5 111H4461.72ZM4472.55 101.891H4485.5C4487.63 101.891 4489.3 101.391 4490.52 100.389C4491.73 99.3665 4492.34 97.9815 4492.34 96.2344C4492.34 94.2102 4491.73 92.6229 4490.52 91.4723C4489.3 90.3004 4487.63 89.7145 4485.5 89.7145H4472.55V101.891ZM4472.55 82.2358H4482.56C4484.13 82.2358 4485.49 82.0121 4486.62 81.5646C4487.75 81.0959 4488.61 80.446 4489.2 79.6151C4489.8 78.7628 4490.1 77.7507 4490.1 76.5788C4490.1 74.8956 4489.41 73.5746 4488.02 72.6158C4486.66 71.657 4484.76 71.1776 4482.33 71.1776H4472.55V82.2358ZM4546.85 81.6605V91.1527H4520.71V81.6605H4546.85ZM4524.29 61.9091V111H4513.14V61.9091H4524.29ZM4554.43 61.9091V111H4543.31V61.9091H4554.43ZM4573.96 77.8892H4588.44C4594.71 77.8892 4599.55 79.4126 4602.98 82.4595C4606.41 85.5064 4608.14 89.5014 4608.16 94.4446C4608.14 97.6619 4607.35 100.517 4605.8 103.01C4604.26 105.503 4602.02 107.463 4599.08 108.891C4596.17 110.297 4592.62 111 4588.44 111H4566.13V61.9091H4577.29V101.508H4588.44C4590.96 101.508 4593.02 100.869 4594.64 99.5902C4596.26 98.2905 4597.07 96.6286 4597.07 94.6044C4597.07 92.4737 4596.26 90.7372 4594.64 89.3949C4593.02 88.0526 4590.96 87.3814 4588.44 87.3814H4573.96V77.8892ZM4614.27 111V61.9091H4625.83V111H4614.27ZM4648.92 95.3395L4668.57 61.9091H4680.46V111H4669.28V77.5376L4649.69 111H4637.76V61.9091H4648.92V95.3395ZM4665.41 45.0341H4674.07C4674.07 48.7628 4672.72 51.7883 4670.01 54.1108C4667.33 56.4119 4663.68 57.5625 4659.08 57.5625C4654.52 57.5625 4650.89 56.4119 4648.18 54.1108C4645.5 51.7883 4644.17 48.7628 4644.19 45.0341H4652.79C4652.79 46.5682 4653.25 47.9425 4654.19 49.157C4655.15 50.3501 4656.78 50.9467 4659.08 50.9467C4661.34 50.9467 4662.95 50.3501 4663.91 49.157C4664.89 47.9638 4665.39 46.5895 4665.41 45.0341ZM4748.39 81.6605V91.1527H4722.24V81.6605H4748.39ZM4725.82 61.9091V111H4714.67V61.9091H4725.82ZM4755.96 61.9091V111H4744.84V61.9091H4755.96ZM4789.4 111.959C4784.48 111.959 4780.23 110.936 4776.65 108.891C4773.09 106.824 4770.35 103.905 4768.43 100.134C4766.52 96.3409 4765.56 91.8771 4765.56 86.7422C4765.56 81.6925 4766.52 77.2607 4768.43 73.4467C4770.37 69.6115 4773.08 66.6285 4776.55 64.4979C4780.02 62.3459 4784.1 61.2699 4788.79 61.2699C4791.82 61.2699 4794.67 61.7599 4797.36 62.7401C4800.06 63.6989 4802.45 65.1903 4804.52 67.2145C4806.6 69.2386 4808.25 71.8168 4809.44 74.9489C4810.63 78.0597 4811.23 81.767 4811.23 86.071V89.6186H4770.99V81.8203H4800.14C4800.12 79.6044 4799.64 77.6335 4798.7 75.9077C4797.76 74.1605 4796.45 72.7862 4794.77 71.7848C4793.11 70.7834 4791.17 70.2827 4788.95 70.2827C4786.59 70.2827 4784.51 70.858 4782.72 72.0085C4780.93 73.1378 4779.53 74.6293 4778.53 76.483C4777.55 78.3153 4777.05 80.3288 4777.03 82.5234V89.331C4777.03 92.1861 4777.55 94.6364 4778.6 96.6818C4779.64 98.706 4781.1 100.261 4782.98 101.348C4784.85 102.413 4787.04 102.946 4789.56 102.946C4791.24 102.946 4792.77 102.712 4794.13 102.243C4795.49 101.753 4796.68 101.039 4797.68 100.102C4798.68 99.1641 4799.43 98.0028 4799.95 96.6179L4810.75 97.8324C4810.07 100.687 4808.77 103.18 4806.85 105.311C4804.95 107.42 4802.52 109.061 4799.56 110.233C4796.6 111.384 4793.21 111.959 4789.4 111.959ZM4832.17 95.3395L4851.83 61.9091H4863.71V111H4852.53V77.5376L4832.94 111H4821.02V61.9091H4832.17V95.3395ZM4848.66 45.0341H4857.32C4857.32 48.7628 4855.97 51.7883 4853.26 54.1108C4850.58 56.4119 4846.94 57.5625 4842.33 57.5625C4837.77 57.5625 4834.14 56.4119 4831.43 54.1108C4828.75 51.7883 4827.42 48.7628 4827.44 45.0341H4836.04C4836.04 46.5682 4836.51 47.9425 4837.44 49.157C4838.4 50.3501 4840.03 50.9467 4842.33 50.9467C4844.59 50.9467 4846.2 50.3501 4847.16 49.157C4848.14 47.9638 4848.64 46.5895 4848.66 45.0341ZM4875.6 129.409V61.9091H4886.97V70.027H4887.64C4888.24 68.8338 4889.08 67.566 4890.17 66.2237C4891.26 64.8601 4892.73 63.6989 4894.58 62.7401C4896.43 61.7599 4898.8 61.2699 4901.68 61.2699C4905.47 61.2699 4908.89 62.2393 4911.93 64.1783C4915 66.0959 4917.43 68.9403 4919.22 72.7116C4921.03 76.4616 4921.94 81.0639 4921.94 86.5185C4921.94 91.9091 4921.05 96.4901 4919.29 100.261C4917.52 104.033 4915.11 106.909 4912.06 108.891C4909.02 110.872 4905.56 111.863 4901.71 111.863C4898.89 111.863 4896.56 111.394 4894.71 110.457C4892.85 109.519 4891.36 108.39 4890.23 107.069C4889.13 105.727 4888.26 104.459 4887.64 103.266H4887.17V129.409H4875.6ZM4886.94 86.4545C4886.94 89.6293 4887.39 92.4098 4888.28 94.7962C4889.2 97.1825 4890.51 99.0469 4892.22 100.389C4893.94 101.71 4896.03 102.371 4898.48 102.371C4901.04 102.371 4903.18 101.689 4904.9 100.325C4906.63 98.9403 4907.93 97.0547 4908.8 94.6683C4909.7 92.2607 4910.14 89.5227 4910.14 86.4545C4910.14 83.4077 4909.71 80.7017 4908.83 78.3366C4907.96 75.9716 4906.66 74.1179 4904.94 72.7756C4903.21 71.4332 4901.06 70.7621 4898.48 70.7621C4896.01 70.7621 4893.91 71.4119 4892.18 72.7116C4890.46 74.0114 4889.15 75.8331 4888.25 78.1768C4887.38 80.5206 4886.94 83.2798 4886.94 86.4545ZM4953.26 111.959C4948.47 111.959 4944.31 110.904 4940.79 108.795C4937.28 106.685 4934.55 103.734 4932.61 99.9418C4930.7 96.1491 4929.74 91.7173 4929.74 86.6463C4929.74 81.5753 4930.7 77.1328 4932.61 73.3189C4934.55 69.505 4937.28 66.5433 4940.79 64.4339C4944.31 62.3246 4948.47 61.2699 4953.26 61.2699C4958.05 61.2699 4962.21 62.3246 4965.72 64.4339C4969.24 66.5433 4971.96 69.505 4973.87 73.3189C4975.81 77.1328 4976.78 81.5753 4976.78 86.6463C4976.78 91.7173 4975.81 96.1491 4973.87 99.9418C4971.96 103.734 4969.24 106.685 4965.72 108.795C4962.21 110.904 4958.05 111.959 4953.26 111.959ZM4953.32 102.69C4955.92 102.69 4958.1 101.977 4959.84 100.549C4961.59 99.1001 4962.89 97.1612 4963.74 94.7322C4964.62 92.3033 4965.05 89.5973 4965.05 86.6143C4965.05 83.6101 4964.62 80.8935 4963.74 78.4645C4962.89 76.0142 4961.59 74.0646 4959.84 72.6158C4958.1 71.1669 4955.92 70.4425 4953.32 70.4425C4950.66 70.4425 4948.44 71.1669 4946.68 72.6158C4944.93 74.0646 4943.62 76.0142 4942.74 78.4645C4941.89 80.8935 4941.47 83.6101 4941.47 86.6143C4941.47 89.5973 4941.89 92.3033 4942.74 94.7322C4943.62 97.1612 4944.93 99.1001 4946.68 100.549C4948.44 101.977 4950.66 102.69 4953.32 102.69ZM5020.32 81.6605V91.1527H4994.18V81.6605H5020.32ZM4997.76 61.9091V111H4986.6V61.9091H4997.76ZM5027.89 61.9091V111H5016.77V61.9091H5027.89Z" fill="white"/>
<path d="M300 329.795C295.72 329.795 292.074 328.631 289.062 326.301C286.051 323.953 283.75 320.553 282.159 316.102C280.568 311.633 279.773 306.235 279.773 299.909C279.773 293.621 280.568 288.252 282.159 283.801C283.769 279.331 286.08 275.922 289.091 273.574C292.121 271.206 295.758 270.023 300 270.023C304.242 270.023 307.869 271.206 310.881 273.574C313.911 275.922 316.222 279.331 317.812 283.801C319.422 288.252 320.227 293.621 320.227 299.909C320.227 306.235 319.432 311.633 317.841 316.102C316.25 320.553 313.949 323.953 310.938 326.301C307.926 328.631 304.28 329.795 300 329.795ZM300 323.545C304.242 323.545 307.538 321.5 309.886 317.409C312.235 313.318 313.409 307.485 313.409 299.909C313.409 294.871 312.869 290.581 311.79 287.04C310.729 283.498 309.195 280.799 307.188 278.943C305.199 277.087 302.803 276.159 300 276.159C295.795 276.159 292.509 278.233 290.142 282.381C287.775 286.509 286.591 292.352 286.591 299.909C286.591 304.947 287.121 309.227 288.182 312.75C289.242 316.273 290.767 318.953 292.756 320.79C294.763 322.627 297.178 323.545 300 323.545Z" fill="#767382"/>
<path d="M1300 329.795C1295.72 329.795 1292.07 328.631 1289.06 326.301C1286.05 323.953 1283.75 320.553 1282.16 316.102C1280.57 311.633 1279.77 306.235 1279.77 299.909C1279.77 293.621 1280.57 288.252 1282.16 283.801C1283.77 279.331 1286.08 275.922 1289.09 273.574C1292.12 271.206 1295.76 270.023 1300 270.023C1304.24 270.023 1307.87 271.206 1310.88 273.574C1313.91 275.922 1316.22 279.331 1317.81 283.801C1319.42 288.252 1320.23 293.621 1320.23 299.909C1320.23 306.235 1319.43 311.633 1317.84 316.102C1316.25 320.553 1313.95 323.953 1310.94 326.301C1307.93 328.631 1304.28 329.795 1300 329.795ZM1300 323.545C1304.24 323.545 1307.54 321.5 1309.89 317.409C1312.23 313.318 1313.41 307.485 1313.41 299.909C1313.41 294.871 1312.87 290.581 1311.79 287.04C1310.73 283.498 1309.2 280.799 1307.19 278.943C1305.2 277.087 1302.8 276.159 1300 276.159C1295.8 276.159 1292.51 278.233 1290.14 282.381C1287.77 286.509 1286.59 292.352 1286.59 299.909C1286.59 304.947 1287.12 309.227 1288.18 312.75C1289.24 316.273 1290.77 318.953 1292.76 320.79C1294.76 322.627 1297.18 323.545 1300 323.545Z" fill="#767382"/>
<path d="M2372 333.795C2367.72 333.795 2364.07 332.631 2361.06 330.301C2358.05 327.953 2355.75 324.553 2354.16 320.102C2352.57 315.633 2351.77 310.235 2351.77 303.909C2351.77 297.621 2352.57 292.252 2354.16 287.801C2355.77 283.331 2358.08 279.922 2361.09 277.574C2364.12 275.206 2367.76 274.023 2372 274.023C2376.24 274.023 2379.87 275.206 2382.88 277.574C2385.91 279.922 2388.22 283.331 2389.81 287.801C2391.42 292.252 2392.23 297.621 2392.23 303.909C2392.23 310.235 2391.43 315.633 2389.84 320.102C2388.25 324.553 2385.95 327.953 2382.94 330.301C2379.93 332.631 2376.28 333.795 2372 333.795ZM2372 327.545C2376.24 327.545 2379.54 325.5 2381.89 321.409C2384.23 317.318 2385.41 311.485 2385.41 303.909C2385.41 298.871 2384.87 294.581 2383.79 291.04C2382.73 287.498 2381.2 284.799 2379.19 282.943C2377.2 281.087 2374.8 280.159 2372 280.159C2367.8 280.159 2364.51 282.233 2362.14 286.381C2359.77 290.509 2358.59 296.352 2358.59 303.909C2358.59 308.947 2359.12 313.227 2360.18 316.75C2361.24 320.273 2362.77 322.953 2364.76 324.79C2366.76 326.627 2369.18 327.545 2372 327.545Z" fill="#767382"/>
<path d="M3425 333.795C3420.72 333.795 3417.07 332.631 3414.06 330.301C3411.05 327.953 3408.75 324.553 3407.16 320.102C3405.57 315.633 3404.77 310.235 3404.77 303.909C3404.77 297.621 3405.57 292.252 3407.16 287.801C3408.77 283.331 3411.08 279.922 3414.09 277.574C3417.12 275.206 3420.76 274.023 3425 274.023C3429.24 274.023 3432.87 275.206 3435.88 277.574C3438.91 279.922 3441.22 283.331 3442.81 287.801C3444.42 292.252 3445.23 297.621 3445.23 303.909C3445.23 310.235 3444.43 315.633 3442.84 320.102C3441.25 324.553 3438.95 327.953 3435.94 330.301C3432.93 332.631 3429.28 333.795 3425 333.795ZM3425 327.545C3429.24 327.545 3432.54 325.5 3434.89 321.409C3437.23 317.318 3438.41 311.485 3438.41 303.909C3438.41 298.871 3437.87 294.581 3436.79 291.04C3435.73 287.498 3434.2 284.799 3432.19 282.943C3430.2 281.087 3427.8 280.159 3425 280.159C3420.8 280.159 3417.51 282.233 3415.14 286.381C3412.77 290.509 3411.59 296.352 3411.59 303.909C3411.59 308.947 3412.12 313.227 3413.18 316.75C3414.24 320.273 3415.77 322.953 3417.76 324.79C3419.76 326.627 3422.18 327.545 3425 327.545Z" fill="#767382"/>
<path d="M4382.11 333L4408.14 281.523V281.068H4378.14V274.818H4415.41V281.409L4389.5 333H4382.11ZM4443.73 333.795C4439.45 333.795 4435.8 332.631 4432.79 330.301C4429.78 327.953 4427.48 324.553 4425.89 320.102C4424.29 315.633 4423.5 310.235 4423.5 303.909C4423.5 297.621 4424.29 292.252 4425.89 287.801C4427.5 283.331 4429.81 279.922 4432.82 277.574C4435.85 275.206 4439.48 274.023 4443.73 274.023C4447.97 274.023 4451.6 275.206 4454.61 277.574C4457.64 279.922 4459.95 283.331 4461.54 287.801C4463.15 292.252 4463.95 297.621 4463.95 303.909C4463.95 310.235 4463.16 315.633 4461.57 320.102C4459.98 324.553 4457.68 327.953 4454.66 330.301C4451.65 332.631 4448.01 333.795 4443.73 333.795ZM4443.73 327.545C4447.97 327.545 4451.26 325.5 4453.61 321.409C4455.96 317.318 4457.14 311.485 4457.14 303.909C4457.14 298.871 4456.6 294.581 4455.52 291.04C4454.46 287.498 4452.92 284.799 4450.91 282.943C4448.93 281.087 4446.53 280.159 4443.73 280.159C4439.52 280.159 4436.24 282.233 4433.87 286.381C4431.5 290.509 4430.32 296.352 4430.32 303.909C4430.32 308.947 4430.85 313.227 4431.91 316.75C4432.97 320.273 4434.49 322.953 4436.48 324.79C4438.49 326.627 4440.9 327.545 4443.73 327.545Z" fill="#949494"/>
<path d="M3472.86 693.33V675.531H3476.14C3477.27 674.504 3478.33 673.054 3479.33 671.181C3480.34 669.292 3481.19 666.773 3481.89 663.624C3482.6 660.459 3483.07 656.44 3483.3 651.568L3484.4 630.091H3514.62V675.531H3520.49V693.23H3514.62V681H3478.73V693.33H3472.86ZM3483.5 675.531H3508.76V635.56H3489.97L3489.17 651.568C3488.97 655.28 3488.62 658.644 3488.13 661.661C3487.63 664.66 3486.99 667.32 3486.21 669.64C3485.43 671.943 3484.53 673.907 3483.5 675.531ZM3545.02 681.795C3541.34 681.795 3538.17 680.983 3535.5 679.359C3532.85 677.719 3530.8 675.432 3529.36 672.499C3527.93 669.549 3527.22 666.118 3527.22 662.207C3527.22 658.296 3527.93 654.849 3529.36 651.866C3530.8 648.867 3532.81 646.53 3535.37 644.857C3537.96 643.166 3540.98 642.321 3544.42 642.321C3546.41 642.321 3548.38 642.652 3550.31 643.315C3552.25 643.978 3554.02 645.055 3555.61 646.547C3557.2 648.022 3558.47 649.977 3559.41 652.413C3560.36 654.849 3560.83 657.849 3560.83 661.412V663.898H3531.4V658.827H3554.86C3554.86 656.672 3554.43 654.75 3553.57 653.06C3552.73 651.369 3551.52 650.035 3549.94 649.058C3548.38 648.08 3546.54 647.591 3544.42 647.591C3542.09 647.591 3540.06 648.171 3538.36 649.331C3536.67 650.474 3535.37 651.966 3534.45 653.805C3533.54 655.645 3533.09 657.617 3533.09 659.722V663.102C3533.09 665.986 3533.58 668.43 3534.58 670.435C3535.59 672.424 3536.99 673.94 3538.78 674.984C3540.57 676.012 3542.65 676.526 3545.02 676.526C3546.56 676.526 3547.95 676.31 3549.2 675.879C3550.46 675.432 3551.54 674.769 3552.45 673.891C3553.36 672.996 3554.07 671.885 3554.56 670.56L3560.23 672.151C3559.64 674.073 3558.63 675.763 3557.22 677.222C3555.82 678.663 3554.08 679.79 3552 680.602C3549.93 681.398 3547.6 681.795 3545.02 681.795ZM3566.2 648.287V642.818H3597.22V648.287H3584.69V681H3578.83V648.287H3566.2ZM3615.03 681.895C3612.61 681.895 3610.42 681.439 3608.44 680.528C3606.47 679.6 3604.91 678.266 3603.75 676.526C3602.59 674.769 3602.01 672.648 3602.01 670.162C3602.01 667.974 3602.44 666.201 3603.3 664.842C3604.16 663.467 3605.31 662.39 3606.75 661.611C3608.2 660.832 3609.79 660.252 3611.53 659.871C3613.28 659.473 3615.05 659.158 3616.82 658.926C3619.14 658.628 3621.02 658.404 3622.46 658.255C3623.92 658.089 3624.98 657.816 3625.65 657.435C3626.33 657.054 3626.67 656.391 3626.67 655.446V655.247C3626.67 652.795 3625.99 650.889 3624.65 649.53C3623.33 648.171 3621.31 647.491 3618.61 647.491C3615.81 647.491 3613.61 648.105 3612.02 649.331C3610.43 650.557 3609.31 651.866 3608.67 653.259L3603.1 651.27C3604.09 648.95 3605.42 647.143 3607.08 645.851C3608.75 644.542 3610.57 643.63 3612.55 643.116C3614.53 642.586 3616.49 642.321 3618.41 642.321C3619.64 642.321 3621.05 642.47 3622.64 642.768C3624.25 643.05 3625.8 643.638 3627.29 644.533C3628.79 645.428 3630.05 646.779 3631.04 648.585C3632.03 650.392 3632.53 652.811 3632.53 655.844V681H3626.67V675.83H3626.37C3625.97 676.658 3625.31 677.545 3624.38 678.489C3623.45 679.434 3622.22 680.238 3620.67 680.901C3619.13 681.563 3617.25 681.895 3615.03 681.895ZM3615.93 676.625C3618.25 676.625 3620.2 676.169 3621.79 675.258C3623.4 674.346 3624.61 673.17 3625.42 671.728C3626.25 670.286 3626.67 668.77 3626.67 667.179V661.81C3626.42 662.108 3625.87 662.381 3625.02 662.63C3624.2 662.862 3623.23 663.069 3622.14 663.251C3621.06 663.417 3620.01 663.566 3618.98 663.699C3617.97 663.815 3617.15 663.914 3616.52 663.997C3615 664.196 3613.57 664.519 3612.25 664.967C3610.94 665.397 3609.88 666.052 3609.07 666.93C3608.27 667.792 3607.87 668.969 3607.87 670.46C3607.87 672.499 3608.63 674.04 3610.13 675.084C3611.66 676.111 3613.59 676.625 3615.93 676.625ZM3639.86 681V675.531H3641.25C3642.39 675.531 3643.35 675.308 3644.11 674.86C3644.87 674.396 3645.48 673.592 3645.95 672.449C3646.43 671.289 3646.79 669.681 3647.04 667.626C3647.31 665.555 3647.5 662.92 3647.61 659.722L3648.31 642.818H3673.77V681H3667.9V648.287H3653.88L3653.28 661.909C3653.15 665.041 3652.87 667.8 3652.44 670.187C3652.02 672.557 3651.38 674.545 3650.52 676.153C3649.68 677.76 3648.55 678.97 3647.14 679.782C3645.73 680.594 3643.97 681 3641.85 681H3639.86ZM3690.39 672.349L3708.79 642.818H3715.55V681H3709.68V651.469L3691.39 681H3684.53V642.818H3690.39V672.349Z" fill="#767382"/>
<path d="M2413.86 253.33V235.531H2417.14C2418.27 234.504 2419.33 233.054 2420.33 231.181C2421.34 229.292 2422.19 226.773 2422.89 223.624C2423.6 220.459 2424.07 216.44 2424.3 211.568L2425.4 190.091H2455.62V235.531H2461.49V253.23H2455.62V241H2419.73V253.33H2413.86ZM2424.5 235.531H2449.76V195.56H2430.97L2430.17 211.568C2429.97 215.28 2429.62 218.644 2429.13 221.661C2428.63 224.66 2427.99 227.32 2427.21 229.64C2426.43 231.943 2425.53 233.907 2424.5 235.531ZM2486.02 241.795C2482.34 241.795 2479.17 240.983 2476.5 239.359C2473.85 237.719 2471.8 235.432 2470.36 232.499C2468.93 229.549 2468.22 226.118 2468.22 222.207C2468.22 218.296 2468.93 214.849 2470.36 211.866C2471.8 208.867 2473.81 206.53 2476.37 204.857C2478.96 203.166 2481.98 202.321 2485.42 202.321C2487.41 202.321 2489.38 202.652 2491.31 203.315C2493.25 203.978 2495.02 205.055 2496.61 206.547C2498.2 208.022 2499.47 209.977 2500.41 212.413C2501.36 214.849 2501.83 217.849 2501.83 221.412V223.898H2472.4V218.827H2495.86C2495.86 216.672 2495.43 214.75 2494.57 213.06C2493.73 211.369 2492.52 210.035 2490.94 209.058C2489.38 208.08 2487.54 207.591 2485.42 207.591C2483.09 207.591 2481.06 208.171 2479.36 209.331C2477.67 210.474 2476.37 211.966 2475.45 213.805C2474.54 215.645 2474.09 217.617 2474.09 219.722V223.102C2474.09 225.986 2474.58 228.43 2475.58 230.435C2476.59 232.424 2477.99 233.94 2479.78 234.984C2481.57 236.012 2483.65 236.526 2486.02 236.526C2487.56 236.526 2488.95 236.31 2490.2 235.879C2491.46 235.432 2492.54 234.769 2493.45 233.891C2494.36 232.996 2495.07 231.885 2495.56 230.56L2501.23 232.151C2500.64 234.073 2499.63 235.763 2498.22 237.222C2496.82 238.663 2495.08 239.79 2493 240.602C2490.93 241.398 2488.6 241.795 2486.02 241.795ZM2507.2 208.287V202.818H2538.22V208.287H2525.69V241H2519.83V208.287H2507.2ZM2556.03 241.895C2553.61 241.895 2551.42 241.439 2549.44 240.528C2547.47 239.6 2545.91 238.266 2544.75 236.526C2543.59 234.769 2543.01 232.648 2543.01 230.162C2543.01 227.974 2543.44 226.201 2544.3 224.842C2545.16 223.467 2546.31 222.39 2547.75 221.611C2549.2 220.832 2550.79 220.252 2552.53 219.871C2554.28 219.473 2556.05 219.158 2557.82 218.926C2560.14 218.628 2562.02 218.404 2563.46 218.255C2564.92 218.089 2565.98 217.816 2566.65 217.435C2567.33 217.054 2567.67 216.391 2567.67 215.446V215.247C2567.67 212.795 2566.99 210.889 2565.65 209.53C2564.33 208.171 2562.31 207.491 2559.61 207.491C2556.81 207.491 2554.61 208.105 2553.02 209.331C2551.43 210.557 2550.31 211.866 2549.67 213.259L2544.1 211.27C2545.09 208.95 2546.42 207.143 2548.08 205.851C2549.75 204.542 2551.57 203.63 2553.55 203.116C2555.53 202.586 2557.49 202.321 2559.41 202.321C2560.64 202.321 2562.05 202.47 2563.64 202.768C2565.25 203.05 2566.8 203.638 2568.29 204.533C2569.79 205.428 2571.05 206.779 2572.04 208.585C2573.03 210.392 2573.53 212.811 2573.53 215.844V241H2567.67V235.83H2567.37C2566.97 236.658 2566.31 237.545 2565.38 238.489C2564.45 239.434 2563.22 240.238 2561.67 240.901C2560.13 241.563 2558.25 241.895 2556.03 241.895ZM2556.93 236.625C2559.25 236.625 2561.2 236.169 2562.79 235.258C2564.4 234.346 2565.61 233.17 2566.42 231.728C2567.25 230.286 2567.67 228.77 2567.67 227.179V221.81C2567.42 222.108 2566.87 222.381 2566.02 222.63C2565.2 222.862 2564.23 223.069 2563.14 223.251C2562.06 223.417 2561.01 223.566 2559.98 223.699C2558.97 223.815 2558.15 223.914 2557.52 223.997C2556 224.196 2554.57 224.519 2553.25 224.967C2551.94 225.397 2550.88 226.052 2550.07 226.93C2549.27 227.792 2548.87 228.969 2548.87 230.46C2548.87 232.499 2549.63 234.04 2551.13 235.084C2552.66 236.111 2554.59 236.625 2556.93 236.625ZM2580.86 241V235.531H2582.25C2583.39 235.531 2584.35 235.308 2585.11 234.86C2585.87 234.396 2586.48 233.592 2586.95 232.449C2587.43 231.289 2587.79 229.681 2588.04 227.626C2588.31 225.555 2588.5 222.92 2588.61 219.722L2589.31 202.818H2614.77V241H2608.9V208.287H2594.88L2594.28 221.909C2594.15 225.041 2593.87 227.8 2593.44 230.187C2593.02 232.557 2592.38 234.545 2591.52 236.153C2590.68 237.76 2589.55 238.97 2588.14 239.782C2586.73 240.594 2584.97 241 2582.85 241H2580.86ZM2631.39 232.349L2649.79 202.818H2656.55V241H2650.68V211.469L2632.39 241H2625.53V202.818H2631.39V232.349Z" fill="#767382"/>
</g>
<defs>
<filter id="filter0_d_143_639" x="4358" y="161" width="553" height="553" filterUnits="userSpaceOnUse" color-interpolation-filters="sRGB">
<feFlood flood-opacity="0" result="BackgroundImageFix"/>
<feColorMatrix in="SourceAlpha" type="matrix" values="0 0 0 0 0 0 0 0 0 0 0 0 0 0 0 0 0 0 127 0" result="hardAlpha"/>
<feMorphology radius="10" operator="dilate" in="SourceAlpha" result="effect1_dropShadow_143_639"/>
<feOffset/>
<feGaussianBlur stdDeviation="60"/>
<feComposite in2="hardAlpha" operator="out"/>
<feColorMatrix type="matrix" values="0 0 0 0 0.0627451 0 0 0 0 0.8 0 0 0 0 0.333333 0 0 0 1 0"/>
<feBlend mode="normal" in2="BackgroundImageFix" result="effect1_dropShadow_143_639"/>
<feBlend mode="normal" in="SourceGraphic" in2="effect1_dropShadow_143_639" result="shape"/>
</filter>
<clipPath id="clip0_143_639">
<rect width="5075" height="703" fill="white"/>
</clipPath>
</defs>
</svg>
