<svg width="3912" height="2470" viewBox="0 0 3912 2470" fill="none" xmlns="http://www.w3.org/2000/svg">
<circle cx="1967.5" cy="1268.5" r="863.5" stroke="#10CC55" stroke-width="6"/>
<rect x="483.5" y="168.5" width="270" height="270" rx="55.5" stroke="#62B4FF" stroke-width="9"/>
<rect x="3118.5" y="168.5" width="270" height="270" rx="55.5" stroke="#62B4FF" stroke-width="9"/>
<rect x="3438.5" y="1103.5" width="270" height="270" rx="55.5" stroke="#62B4FF" stroke-width="9"/>
<rect x="3144.5" y="2091.5" width="270" height="270" rx="55.5" stroke="#62B4FF" stroke-width="9"/>
<rect x="204.5" y="1103.5" width="270" height="270" rx="55.5" stroke="#62B4FF" stroke-width="9"/>
<rect x="483.5" y="2091.5" width="270" height="270" rx="55.5" stroke="#62B4FF" stroke-width="9"/>
<path d="M835.196 422.11C833.6 422.554 832.666 424.208 833.11 425.804L840.347 451.816C840.791 453.412 842.445 454.346 844.041 453.902C845.637 453.458 846.571 451.804 846.127 450.208L839.694 427.086L862.816 420.653C864.412 420.209 865.346 418.555 864.902 416.959C864.458 415.363 862.804 414.429 861.208 414.873L835.196 422.11ZM1239.48 649.388L837.475 422.388L834.525 427.612L1236.52 654.612L1239.48 649.388Z" fill="#767382" fill-opacity="0.7"/>
<path d="M2716.2 1813.11C2714.6 1813.55 2713.67 1815.21 2714.11 1816.8L2721.35 1842.82C2721.79 1844.41 2723.44 1845.35 2725.04 1844.9C2726.64 1844.46 2727.57 1842.8 2727.13 1841.21L2720.69 1818.09L2743.82 1811.65C2745.41 1811.21 2746.35 1809.56 2745.9 1807.96C2745.46 1806.36 2743.8 1805.43 2742.21 1805.87L2716.2 1813.11ZM3120.48 2040.39L2718.48 1813.39L2715.52 1818.61L3117.52 2045.61L3120.48 2040.39Z" fill="#767382" fill-opacity="0.7"/>
<path d="M2711.2 723.89C2709.6 723.446 2708.67 721.792 2709.11 720.196L2716.35 694.184C2716.79 692.588 2718.44 691.654 2720.04 692.098C2721.64 692.542 2722.57 694.196 2722.13 695.792L2715.69 718.914L2738.82 725.347C2740.41 725.791 2741.35 727.445 2740.9 729.041C2740.46 730.637 2738.8 731.571 2737.21 731.127L2711.2 723.89ZM3115.48 496.612L2713.48 723.612L2710.52 718.388L3112.52 491.388L3115.48 496.612Z" fill="#767382" fill-opacity="0.7"/>
<path d="M848.196 2137.89C846.6 2137.45 845.666 2135.79 846.11 2134.2L853.347 2108.18C853.791 2106.59 855.445 2105.65 857.041 2106.1C858.637 2106.54 859.571 2108.2 859.127 2109.79L852.694 2132.91L875.816 2139.35C877.412 2139.79 878.346 2141.44 877.902 2143.04C877.458 2144.64 875.804 2145.57 874.208 2145.13L848.196 2137.89ZM1252.48 1910.61L850.475 2137.61L847.525 2132.39L1249.52 1905.39L1252.48 1910.61Z" fill="#767382" fill-opacity="0.7"/>
<path d="M555.088 1288.73C553.928 1287.55 553.946 1285.65 555.128 1284.49L574.402 1265.58C575.585 1264.42 577.484 1264.44 578.644 1265.62C579.805 1266.8 579.787 1268.7 578.604 1269.86L561.472 1286.67L578.279 1303.8C579.44 1304.99 579.422 1306.89 578.239 1308.05C577.056 1309.21 575.157 1309.19 573.996 1308.01L555.088 1288.73ZM1018.84 1294.04L557.201 1289.63L557.258 1283.63L1018.9 1288.04L1018.84 1294.04Z" fill="#767382" fill-opacity="0.7"/>
<path d="M2903.09 1284.73C2901.93 1283.55 2901.95 1281.65 2903.13 1280.49L2922.4 1261.58C2923.58 1260.42 2925.48 1260.44 2926.64 1261.62C2927.8 1262.8 2927.79 1264.7 2926.6 1265.86L2909.47 1282.67L2926.28 1299.8C2927.44 1300.99 2927.42 1302.89 2926.24 1304.05C2925.06 1305.21 2923.16 1305.19 2922 1304.01L2903.09 1284.73ZM3366.84 1290.04L2905.2 1285.63L2905.26 1279.63L3366.9 1284.04L3366.84 1290.04Z" fill="#767382" fill-opacity="0.7"/>
<path d="M1180.8 746.89C1182.4 746.446 1183.33 744.792 1182.89 743.196L1175.65 717.184C1175.21 715.588 1173.56 714.654 1171.96 715.098C1170.36 715.542 1169.43 717.196 1169.87 718.792L1176.31 741.914L1153.18 748.347C1151.59 748.791 1150.65 750.445 1151.1 752.041C1151.54 753.637 1153.2 754.571 1154.79 754.127L1180.8 746.89ZM776.525 519.612L1178.52 746.612L1181.48 741.388L779.475 514.388L776.525 519.612Z" fill="#767382" fill-opacity="0.7"/>
<path d="M3061.8 2137.89C3063.4 2137.45 3064.33 2135.79 3063.89 2134.2L3056.65 2108.18C3056.21 2106.59 3054.56 2105.65 3052.96 2106.1C3051.36 2106.54 3050.43 2108.2 3050.87 2109.79L3057.31 2132.91L3034.18 2139.35C3032.59 2139.79 3031.65 2141.44 3032.1 2143.04C3032.54 2144.64 3034.2 2145.57 3035.79 2145.13L3061.8 2137.89ZM2657.52 1910.61L3059.52 2137.61L3062.48 2132.39L2660.48 1905.39L2657.52 1910.61Z" fill="#767382" fill-opacity="0.7"/>
<path d="M3056.8 399.11C3058.4 399.554 3059.33 401.208 3058.89 402.804L3051.65 428.816C3051.21 430.412 3049.56 431.346 3047.96 430.902C3046.36 430.458 3045.43 428.804 3045.87 427.208L3052.31 404.086L3029.18 397.653C3027.59 397.209 3026.65 395.555 3027.1 393.959C3027.54 392.363 3029.2 391.429 3030.79 391.873L3056.8 399.11ZM2652.52 626.388L3054.52 399.388L3057.48 404.612L2655.48 631.612L2652.52 626.388Z" fill="#767382" fill-opacity="0.7"/>
<path d="M1193.8 1813.11C1195.4 1813.55 1196.33 1815.21 1195.89 1816.8L1188.65 1842.82C1188.21 1844.41 1186.56 1845.35 1184.96 1844.9C1183.36 1844.46 1182.43 1842.8 1182.87 1841.21L1189.31 1818.09L1166.18 1811.65C1164.59 1811.21 1163.65 1809.56 1164.1 1807.96C1164.54 1806.36 1166.2 1805.43 1167.79 1805.87L1193.8 1813.11ZM789.525 2040.39L1191.52 1813.39L1194.48 1818.61L792.475 2045.61L789.525 2040.39Z" fill="#767382" fill-opacity="0.7"/>
<path d="M1016.78 1180.27C1017.94 1181.45 1017.93 1183.35 1016.74 1184.51L997.47 1203.42C996.287 1204.58 994.388 1204.56 993.227 1203.38C992.067 1202.2 992.085 1200.3 993.268 1199.14L1010.4 1182.33L993.592 1165.2C992.432 1164.01 992.45 1162.11 993.633 1160.95C994.815 1159.79 996.715 1159.81 997.875 1160.99L1016.78 1180.27ZM553.029 1174.96L1014.67 1179.37L1014.61 1185.37L552.971 1180.96L553.029 1174.96Z" fill="#767382" fill-opacity="0.7"/>
<path d="M3364.78 1176.27C3365.94 1177.45 3365.93 1179.35 3364.74 1180.51L3345.47 1199.42C3344.29 1200.58 3342.39 1200.56 3341.23 1199.38C3340.07 1198.2 3340.09 1196.3 3341.27 1195.14L3358.4 1178.33L3341.59 1161.2C3340.43 1160.01 3340.45 1158.11 3341.63 1156.95C3342.82 1155.79 3344.71 1155.81 3345.88 1156.99L3364.78 1176.27ZM2901.03 1170.96L3362.67 1175.37L3362.61 1181.37L2900.97 1176.96L2901.03 1170.96Z" fill="#767382" fill-opacity="0.7"/>
<path d="M556.675 76.2678H547.379C547.113 74.7431 546.625 73.3925 545.912 72.2159C545.199 71.0227 544.313 70.0118 543.252 69.1832C542.192 68.3546 540.982 67.7332 539.623 67.3189C538.281 66.888 536.83 66.6726 535.273 66.6726C532.505 66.6726 530.053 67.3686 527.915 68.7607C525.777 70.1361 524.103 72.1579 522.893 74.826C521.684 77.4775 521.079 80.7173 521.079 84.5455C521.079 88.4399 521.684 91.7211 522.893 94.3892C524.12 97.0407 525.794 99.0459 527.915 100.405C530.053 101.747 532.497 102.418 535.248 102.418C536.772 102.418 538.198 102.219 539.523 101.822C540.866 101.407 542.067 100.803 543.128 100.007C544.205 99.2116 545.108 98.2339 545.837 97.0739C546.583 95.9138 547.097 94.5881 547.379 93.0966L556.675 93.1463C556.327 95.5658 555.573 97.8362 554.413 99.9574C553.27 102.079 551.77 103.951 549.914 105.575C548.058 107.183 545.887 108.442 543.401 109.354C540.915 110.249 538.156 110.696 535.124 110.696C530.649 110.696 526.655 109.66 523.142 107.589C519.629 105.517 516.861 102.526 514.839 98.6151C512.818 94.7041 511.807 90.0142 511.807 84.5455C511.807 79.0601 512.826 74.3703 514.864 70.4759C516.903 66.5649 519.679 63.5736 523.192 61.5021C526.705 59.4306 530.682 58.3949 535.124 58.3949C537.957 58.3949 540.592 58.7926 543.028 59.5881C545.464 60.3835 547.635 61.5518 549.541 63.093C551.447 64.6177 553.013 66.4903 554.239 68.7109C555.482 70.915 556.294 73.4339 556.675 76.2678ZM581.627 110.746C577.798 110.746 574.492 109.95 571.708 108.359C568.941 106.752 566.811 104.482 565.32 101.548C563.828 98.5985 563.083 95.1267 563.083 91.1328C563.083 87.2053 563.828 83.7583 565.32 80.7919C566.828 77.8089 568.932 75.4889 571.634 73.8317C574.335 72.1579 577.508 71.321 581.154 71.321C583.508 71.321 585.728 71.7022 587.816 72.4645C589.921 73.2102 591.777 74.3703 593.384 75.9446C595.008 77.5189 596.285 79.5241 597.213 81.9602C598.141 84.3797 598.605 87.2633 598.605 90.6108V93.37H567.308V87.3047H589.979C589.962 85.5812 589.589 84.0483 588.86 82.706C588.131 81.3471 587.112 80.2782 585.803 79.4993C584.51 78.7204 583.002 78.331 581.279 78.331C579.439 78.331 577.823 78.7784 576.431 79.6733C575.039 80.5516 573.954 81.7116 573.175 83.1534C572.413 84.5786 572.023 86.1446 572.007 87.8516V93.1463C572.007 95.367 572.413 97.2727 573.225 98.8636C574.037 100.438 575.172 101.648 576.63 102.493C578.088 103.321 579.795 103.736 581.751 103.736C583.06 103.736 584.245 103.554 585.306 103.189C586.366 102.808 587.286 102.253 588.065 101.523C588.844 100.794 589.432 99.8911 589.83 98.8139L598.232 99.7585C597.701 101.979 596.691 103.918 595.199 105.575C593.724 107.216 591.835 108.492 589.531 109.403C587.228 110.298 584.593 110.746 581.627 110.746ZM606.217 124.318V71.8182H615.067V78.1321H615.589C616.053 77.2041 616.707 76.218 617.553 75.174C618.398 74.1134 619.541 73.2102 620.983 72.4645C622.425 71.7022 624.264 71.321 626.501 71.321C629.451 71.321 632.111 72.075 634.481 73.5831C636.867 75.0746 638.756 77.2869 640.148 80.2202C641.557 83.1368 642.261 86.7164 642.261 90.9588C642.261 95.1515 641.574 98.7145 640.198 101.648C638.823 104.581 636.95 106.818 634.58 108.359C632.21 109.901 629.526 110.671 626.526 110.671C624.339 110.671 622.524 110.307 621.082 109.577C619.641 108.848 618.481 107.97 617.602 106.942C616.741 105.898 616.069 104.912 615.589 103.984H615.216V124.318H606.217ZM615.042 90.9091C615.042 93.3783 615.39 95.541 616.086 97.397C616.799 99.2531 617.818 100.703 619.143 101.747C620.486 102.775 622.11 103.288 624.016 103.288C626.004 103.288 627.67 102.758 629.012 101.697C630.354 100.62 631.365 99.1536 632.045 97.2976C632.741 95.425 633.089 93.2955 633.089 90.9091C633.089 88.5393 632.749 86.4347 632.07 84.5952C631.39 82.7557 630.379 81.3139 629.037 80.2699C627.695 79.2259 626.021 78.7038 624.016 78.7038C622.093 78.7038 620.461 79.2093 619.119 80.2202C617.776 81.2311 616.757 82.648 616.061 84.4709C615.382 86.2938 615.042 88.4399 615.042 90.9091ZM649.967 110V71.8182H666.001C670.525 71.8182 674.096 72.7214 676.714 74.5277C679.349 76.334 680.667 78.853 680.667 82.0845C680.667 84.2223 679.921 85.9706 678.43 87.3295C676.955 88.6719 674.941 89.575 672.389 90.0391C674.394 90.2048 676.151 90.7102 677.659 91.5554C679.184 92.4006 680.377 93.5109 681.239 94.8864C682.1 96.2618 682.531 97.8445 682.531 99.6342C682.531 101.739 681.976 103.57 680.866 105.128C679.772 106.669 678.173 107.871 676.068 108.732C673.98 109.577 671.445 110 668.462 110H649.967ZM658.394 102.915H668.462C670.119 102.915 671.42 102.526 672.364 101.747C673.309 100.952 673.781 99.8745 673.781 98.5156C673.781 96.9413 673.309 95.7067 672.364 94.8118C671.42 93.9003 670.119 93.4446 668.462 93.4446H658.394V102.915ZM658.394 87.6278H666.175C667.401 87.6278 668.453 87.4538 669.332 87.1058C670.21 86.7412 670.881 86.2358 671.345 85.5895C671.809 84.9266 672.041 84.1394 672.041 83.228C672.041 81.9188 671.503 80.8913 670.425 80.1456C669.365 79.3999 667.89 79.027 666.001 79.027H658.394V87.6278ZM706.612 110.746C702.884 110.746 699.652 109.925 696.918 108.285C694.183 106.644 692.062 104.349 690.554 101.399C689.063 98.4493 688.317 95.0024 688.317 91.0582C688.317 87.1141 689.063 83.6589 690.554 80.6925C692.062 77.7261 694.183 75.4226 696.918 73.782C699.652 72.1413 702.884 71.321 706.612 71.321C710.341 71.321 713.573 72.1413 716.307 73.782C719.041 75.4226 721.154 77.7261 722.646 80.6925C724.154 83.6589 724.908 87.1141 724.908 91.0582C724.908 95.0024 724.154 98.4493 722.646 101.399C721.154 104.349 719.041 106.644 716.307 108.285C713.573 109.925 710.341 110.746 706.612 110.746ZM706.662 103.537C708.684 103.537 710.374 102.982 711.733 101.871C713.092 100.745 714.103 99.2365 714.766 97.3473C715.445 95.4581 715.785 93.3535 715.785 91.0334C715.785 88.6967 715.445 86.5838 714.766 84.6946C714.103 82.7888 713.092 81.2725 711.733 80.1456C710.374 79.0187 708.684 78.4553 706.662 78.4553C704.591 78.4553 702.867 79.0187 701.492 80.1456C700.133 81.2725 699.114 82.7888 698.434 84.6946C697.771 86.5838 697.44 88.6967 697.44 91.0334C697.44 93.3535 697.771 95.4581 698.434 97.3473C699.114 99.2365 700.133 100.745 701.492 101.871C702.867 102.982 704.591 103.537 706.662 103.537Z" fill="white"/>
<path d="M141.072 1054.28V1034.47H144.477C145.621 1033.56 146.69 1032.27 147.684 1030.62C148.678 1028.96 149.523 1026.69 150.219 1023.8C150.915 1020.92 151.396 1017.19 151.661 1012.62L153.003 991.091H185.543V1034.47H191.21V1054.23H182.361V1042H149.921V1054.28H141.072ZM155.216 1034.47H176.693V998.822H161.306L160.511 1012.62C160.295 1016.08 159.947 1019.18 159.467 1021.91C158.986 1024.65 158.381 1027.06 157.652 1029.15C156.923 1031.22 156.111 1032.99 155.216 1034.47ZM209.313 1042.77C206.893 1042.77 204.714 1042.34 202.775 1041.48C200.853 1040.6 199.328 1039.31 198.201 1037.6C197.091 1035.89 196.536 1033.79 196.536 1031.29C196.536 1029.13 196.934 1027.35 197.729 1025.94C198.525 1024.53 199.61 1023.41 200.986 1022.56C202.361 1021.72 203.91 1021.08 205.634 1020.65C207.374 1020.2 209.172 1019.88 211.028 1019.68C213.265 1019.45 215.08 1019.24 216.472 1019.06C217.864 1018.86 218.875 1018.56 219.505 1018.16C220.151 1017.75 220.474 1017.11 220.474 1016.25V1016.1C220.474 1014.23 219.919 1012.78 218.809 1011.75C217.698 1010.72 216.099 1010.21 214.011 1010.21C211.807 1010.21 210.059 1010.69 208.766 1011.65C207.49 1012.61 206.628 1013.74 206.181 1015.05L197.779 1013.86C198.442 1011.54 199.535 1009.6 201.06 1008.04C202.585 1006.47 204.449 1005.29 206.653 1004.51C208.857 1003.72 211.293 1003.32 213.961 1003.32C215.801 1003.32 217.632 1003.54 219.455 1003.97C221.278 1004.4 222.943 1005.11 224.451 1006.11C225.959 1007.08 227.169 1008.42 228.081 1010.11C229.009 1011.8 229.473 1013.91 229.473 1016.45V1042H220.822V1036.75H220.524C219.977 1037.82 219.206 1038.81 218.212 1039.74C217.234 1040.65 216 1041.39 214.508 1041.95C213.033 1042.5 211.302 1042.77 209.313 1042.77ZM211.65 1036.16C213.456 1036.16 215.022 1035.8 216.348 1035.09C217.674 1034.36 218.693 1033.4 219.405 1032.21C220.134 1031.01 220.499 1029.71 220.499 1028.3V1023.8C220.217 1024.04 219.737 1024.25 219.057 1024.45C218.394 1024.65 217.649 1024.82 216.82 1024.97C215.991 1025.12 215.171 1025.25 214.359 1025.37C213.547 1025.49 212.843 1025.59 212.246 1025.67C210.904 1025.85 209.702 1026.15 208.642 1026.56C207.581 1026.98 206.744 1027.56 206.131 1028.3C205.518 1029.03 205.211 1029.98 205.211 1031.14C205.211 1032.79 205.816 1034.05 207.026 1034.89C208.236 1035.74 209.777 1036.16 211.65 1036.16ZM235.886 1042L235.836 1034.59H237.154C238.148 1034.59 238.985 1034.37 239.665 1033.92C240.344 1033.47 240.907 1032.73 241.355 1031.68C241.802 1030.62 242.15 1029.2 242.399 1027.41C242.647 1025.62 242.821 1023.39 242.921 1020.72L243.592 1003.82H271.433V1042H262.733V1011.2H251.77L251.174 1023.51C251.025 1026.69 250.668 1029.45 250.105 1031.78C249.558 1034.1 248.779 1036.02 247.768 1037.53C246.774 1039.03 245.523 1040.16 244.015 1040.91C242.507 1041.64 240.725 1042 238.67 1042H235.886ZM286.584 1016.25H297.845C302.717 1016.25 306.487 1017.43 309.155 1019.8C311.823 1022.17 313.165 1025.28 313.182 1029.12C313.165 1031.63 312.552 1033.85 311.342 1035.79C310.149 1037.72 308.409 1039.25 306.122 1040.36C303.852 1041.45 301.093 1042 297.845 1042H280.494V1003.82H289.169V1034.62H297.845C299.8 1034.62 301.408 1034.12 302.667 1033.13C303.926 1032.11 304.556 1030.82 304.556 1029.25C304.556 1027.59 303.926 1026.24 302.667 1025.2C301.408 1024.15 299.8 1023.63 297.845 1023.63H286.584V1016.25ZM347.119 1019.18V1026.56H326.785V1019.18H347.119ZM329.57 1003.82V1042H320.894V1003.82H329.57ZM353.011 1003.82V1042H344.36V1003.82H353.011ZM378.77 1042.75C375.041 1042.75 371.809 1041.93 369.075 1040.28C366.341 1038.64 364.219 1036.35 362.711 1033.4C361.22 1030.45 360.474 1027 360.474 1023.06C360.474 1019.11 361.22 1015.66 362.711 1012.69C364.219 1009.73 366.341 1007.42 369.075 1005.78C371.809 1004.14 375.041 1003.32 378.77 1003.32C382.498 1003.32 385.73 1004.14 388.464 1005.78C391.199 1007.42 393.312 1009.73 394.803 1012.69C396.311 1015.66 397.065 1019.11 397.065 1023.06C397.065 1027 396.311 1030.45 394.803 1033.4C393.312 1036.35 391.199 1038.64 388.464 1040.28C385.73 1041.93 382.498 1042.75 378.77 1042.75ZM378.819 1035.54C380.841 1035.54 382.531 1034.98 383.89 1033.87C385.249 1032.74 386.26 1031.24 386.923 1029.35C387.602 1027.46 387.942 1025.35 387.942 1023.03C387.942 1020.7 387.602 1018.58 386.923 1016.69C386.26 1014.79 385.249 1013.27 383.89 1012.15C382.531 1011.02 380.841 1010.46 378.819 1010.46C376.748 1010.46 375.024 1011.02 373.649 1012.15C372.29 1013.27 371.271 1014.79 370.591 1016.69C369.928 1018.58 369.597 1020.7 369.597 1023.03C369.597 1025.35 369.928 1027.46 370.591 1029.35C371.271 1031.24 372.29 1032.74 373.649 1033.87C375.024 1034.98 376.748 1035.54 378.819 1035.54ZM426.677 1031.53L438.012 1003.82H445.271L429.834 1042H423.545L408.456 1003.82H415.64L426.677 1031.53ZM413.378 1003.82V1042H404.703V1003.82H413.378ZM440.349 1042V1003.82H448.95V1042H440.349ZM474.926 1042.75C471.098 1042.75 467.792 1041.95 465.008 1040.36C462.241 1038.75 460.111 1036.48 458.62 1033.55C457.128 1030.6 456.382 1027.13 456.382 1023.13C456.382 1019.21 457.128 1015.76 458.62 1012.79C460.128 1009.81 462.232 1007.49 464.934 1005.83C467.635 1004.16 470.808 1003.32 474.454 1003.32C476.807 1003.32 479.028 1003.7 481.116 1004.46C483.221 1005.21 485.077 1006.37 486.684 1007.94C488.308 1009.52 489.584 1011.52 490.512 1013.96C491.44 1016.38 491.904 1019.26 491.904 1022.61V1025.37H460.608V1019.3H483.279C483.262 1017.58 482.889 1016.05 482.16 1014.71C481.431 1013.35 480.412 1012.28 479.103 1011.5C477.81 1010.72 476.302 1010.33 474.578 1010.33C472.739 1010.33 471.123 1010.78 469.731 1011.67C468.339 1012.55 467.254 1013.71 466.475 1015.15C465.712 1016.58 465.323 1018.14 465.306 1019.85V1025.15C465.306 1027.37 465.712 1029.27 466.524 1030.86C467.336 1032.44 468.472 1033.65 469.93 1034.49C471.388 1035.32 473.095 1035.74 475.051 1035.74C476.36 1035.74 477.545 1035.55 478.605 1035.19C479.666 1034.81 480.586 1034.25 481.365 1033.52C482.143 1032.79 482.732 1031.89 483.13 1030.81L491.532 1031.76C491.001 1033.98 489.99 1035.92 488.499 1037.58C487.024 1039.22 485.135 1040.49 482.831 1041.4C480.528 1042.3 477.893 1042.75 474.926 1042.75ZM499.517 1056.32V1003.82H508.367V1010.13H508.889C509.353 1009.2 510.007 1008.22 510.852 1007.17C511.698 1006.11 512.841 1005.21 514.283 1004.46C515.725 1003.7 517.564 1003.32 519.801 1003.32C522.751 1003.32 525.411 1004.08 527.781 1005.58C530.167 1007.07 532.056 1009.29 533.448 1012.22C534.857 1015.14 535.561 1018.72 535.561 1022.96C535.561 1027.15 534.873 1030.71 533.498 1033.65C532.122 1036.58 530.25 1038.82 527.88 1040.36C525.51 1041.9 522.826 1042.67 519.826 1042.67C517.639 1042.67 515.824 1042.31 514.382 1041.58C512.94 1040.85 511.78 1039.97 510.902 1038.94C510.04 1037.9 509.369 1036.91 508.889 1035.98H508.516V1056.32H499.517ZM508.342 1022.91C508.342 1025.38 508.69 1027.54 509.386 1029.4C510.098 1031.25 511.118 1032.7 512.443 1033.75C513.786 1034.77 515.41 1035.29 517.315 1035.29C519.304 1035.29 520.97 1034.76 522.312 1033.7C523.654 1032.62 524.665 1031.15 525.345 1029.3C526.041 1027.42 526.389 1025.3 526.389 1022.91C526.389 1020.54 526.049 1018.43 525.369 1016.6C524.69 1014.76 523.679 1013.31 522.337 1012.27C520.994 1011.23 519.321 1010.7 517.315 1010.7C515.393 1010.7 513.761 1011.21 512.418 1012.22C511.076 1013.23 510.057 1014.65 509.361 1016.47C508.681 1018.29 508.342 1020.44 508.342 1022.91Z" fill="white"/>
<path d="M439.122 1975.09H450.407L465.521 2011.98H466.118L481.231 1975.09H492.517V2026H483.667V1991.02H483.195L469.125 2025.85H462.513L448.444 1990.95H447.971V2026H439.122V1975.09ZM510.837 2013.82L526.125 1987.82H535.372V2026H526.672V1999.97L511.434 2026H502.162V1987.82H510.837V2013.82ZM544.613 2026V1987.82H553.611V2003.23H556.893L568.377 1987.82H579.215L565.071 2006.56L579.364 2026H568.476L558.011 2011.61H553.611V2026H544.613ZM584.466 2040.32V1987.82H593.316V1994.13H593.838C594.302 1993.2 594.956 1992.22 595.802 1991.17C596.647 1990.11 597.79 1989.21 599.232 1988.46C600.674 1987.7 602.513 1987.32 604.75 1987.32C607.7 1987.32 610.36 1988.08 612.73 1989.58C615.116 1991.07 617.005 1993.29 618.397 1996.22C619.806 1999.14 620.51 2002.72 620.51 2006.96C620.51 2011.15 619.823 2014.71 618.447 2017.65C617.072 2020.58 615.199 2022.82 612.829 2024.36C610.459 2025.9 607.775 2026.67 604.775 2026.67C602.588 2026.67 600.773 2026.31 599.331 2025.58C597.89 2024.85 596.73 2023.97 595.851 2022.94C594.99 2021.9 594.318 2020.91 593.838 2019.98H593.465V2040.32H584.466ZM593.291 2006.91C593.291 2009.38 593.639 2011.54 594.335 2013.4C595.048 2015.25 596.067 2016.7 597.392 2017.75C598.735 2018.77 600.359 2019.29 602.265 2019.29C604.253 2019.29 605.919 2018.76 607.261 2017.7C608.603 2016.62 609.614 2015.15 610.294 2013.3C610.99 2011.42 611.338 2009.3 611.338 2006.91C611.338 2004.54 610.998 2002.43 610.319 2000.6C609.639 1998.76 608.628 1997.31 607.286 1996.27C605.944 1995.23 604.27 1994.7 602.265 1994.7C600.342 1994.7 598.71 1995.21 597.368 1996.22C596.025 1997.23 595.006 1998.65 594.31 2000.47C593.631 2002.29 593.291 2004.44 593.291 2006.91ZM644.871 2026.75C641.142 2026.75 637.911 2025.93 635.177 2024.28C632.442 2022.64 630.321 2020.35 628.813 2017.4C627.321 2014.45 626.576 2011 626.576 2007.06C626.576 2003.11 627.321 1999.66 628.813 1996.69C630.321 1993.73 632.442 1991.42 635.177 1989.78C637.911 1988.14 641.142 1987.32 644.871 1987.32C648.6 1987.32 651.831 1988.14 654.566 1989.78C657.3 1991.42 659.413 1993.73 660.905 1996.69C662.413 1999.66 663.167 2003.11 663.167 2007.06C663.167 2011 662.413 2014.45 660.905 2017.4C659.413 2020.35 657.3 2022.64 654.566 2024.28C651.831 2025.93 648.6 2026.75 644.871 2026.75ZM644.921 2019.54C646.943 2019.54 648.633 2018.98 649.992 2017.87C651.351 2016.74 652.362 2015.24 653.025 2013.35C653.704 2011.46 654.044 2009.35 654.044 2007.03C654.044 2004.7 653.704 2002.58 653.025 2000.69C652.362 1998.79 651.351 1997.27 649.992 1996.15C648.633 1995.02 646.943 1994.46 644.921 1994.46C642.849 1994.46 641.126 1995.02 639.75 1996.15C638.392 1997.27 637.372 1998.79 636.693 2000.69C636.03 2002.58 635.699 2004.7 635.699 2007.03C635.699 2009.35 636.03 2011.46 636.693 2013.35C637.372 2015.24 638.392 2016.74 639.75 2017.87C641.126 2018.98 642.849 2019.54 644.921 2019.54ZM688.13 2038.98V1975.09H697.154V2038.98H688.13ZM688.13 2026.75C685.33 2026.75 682.769 2026.27 680.449 2025.33C678.129 2024.38 676.124 2023.04 674.434 2021.3C672.76 2019.56 671.459 2017.49 670.531 2015.09C669.619 2012.67 669.164 2009.99 669.164 2007.06C669.164 2004.12 669.619 2001.45 670.531 1999.03C671.459 1996.61 672.76 1994.53 674.434 1992.79C676.124 1991.03 678.129 1989.68 680.449 1988.74C682.769 1987.79 685.33 1987.32 688.13 1987.32H690.044V2026.75H688.13ZM688.13 2019.49H689.249V1994.58H688.13C686.539 1994.58 685.131 1994.91 683.904 1995.57C682.695 1996.22 681.675 1997.12 680.847 1998.28C680.035 1999.43 679.413 2000.75 678.983 2002.26C678.568 2003.75 678.361 2005.35 678.361 2007.06C678.361 2009.33 678.734 2011.41 679.48 2013.3C680.225 2015.17 681.319 2016.67 682.761 2017.8C684.219 2018.92 686.009 2019.49 688.13 2019.49ZM697.154 2026.75H695.24V1987.32H697.154C699.954 1987.32 702.515 1987.79 704.835 1988.74C707.155 1989.68 709.152 1991.03 710.826 1992.79C712.516 1994.53 713.817 1996.61 714.728 1999.03C715.656 2001.45 716.12 2004.12 716.12 2007.06C716.12 2009.99 715.656 2012.67 714.728 2015.09C713.817 2017.49 712.516 2019.56 710.826 2021.3C709.152 2023.04 707.155 2024.38 704.835 2025.33C702.515 2026.27 699.954 2026.75 697.154 2026.75ZM697.154 2019.49C698.761 2019.49 700.17 2019.16 701.38 2018.52C702.589 2017.87 703.6 2016.98 704.412 2015.83C705.241 2014.69 705.862 2013.37 706.277 2011.88C706.691 2010.37 706.898 2008.77 706.898 2007.06C706.898 2004.79 706.533 2002.71 705.804 2000.82C705.075 1998.93 703.981 1997.42 702.523 1996.29C701.081 1995.15 699.291 1994.58 697.154 1994.58H696.035V2019.49H697.154ZM740.369 2026.75C736.641 2026.75 733.409 2025.93 730.675 2024.28C727.94 2022.64 725.819 2020.35 724.311 2017.4C722.82 2014.45 722.074 2011 722.074 2007.06C722.074 2003.11 722.82 1999.66 724.311 1996.69C725.819 1993.73 727.94 1991.42 730.675 1989.78C733.409 1988.14 736.641 1987.32 740.369 1987.32C744.098 1987.32 747.329 1988.14 750.064 1989.78C752.798 1991.42 754.911 1993.73 756.403 1996.69C757.911 1999.66 758.665 2003.11 758.665 2007.06C758.665 2011 757.911 2014.45 756.403 2017.4C754.911 2020.35 752.798 2022.64 750.064 2024.28C747.329 2025.93 744.098 2026.75 740.369 2026.75ZM740.419 2019.54C742.441 2019.54 744.131 2018.98 745.49 2017.87C746.849 2016.74 747.86 2015.24 748.523 2013.35C749.202 2011.46 749.542 2009.35 749.542 2007.03C749.542 2004.7 749.202 2002.58 748.523 2000.69C747.86 1998.79 746.849 1997.27 745.49 1996.15C744.131 1995.02 742.441 1994.46 740.419 1994.46C738.347 1994.46 736.624 1995.02 735.248 1996.15C733.89 1997.27 732.87 1998.79 732.191 2000.69C731.528 2002.58 731.197 2004.7 731.197 2007.03C731.197 2009.35 731.528 2011.46 732.191 2013.35C732.87 2015.24 733.89 2016.74 735.248 2017.87C736.624 2018.98 738.347 2019.54 740.419 2019.54ZM792.527 2003.18V2010.56H772.194V2003.18H792.527ZM774.978 1987.82V2026H766.302V1987.82H774.978ZM798.419 1987.82V2026H789.768V1987.82H798.419Z" fill="white"/>
<path d="M3154.98 103L3138.23 80.7521H3133.7V103H3124.48V52.0909H3133.7V73.0213H3136.02L3154.11 52.0909H3165.47L3145.36 75.3082L3166.34 103H3154.98ZM3183.2 103.771C3180.78 103.771 3178.6 103.34 3176.66 102.478C3174.74 101.6 3173.21 100.307 3172.08 98.6001C3170.97 96.8932 3170.42 94.7886 3170.42 92.2862C3170.42 90.1319 3170.82 88.3504 3171.61 86.9418C3172.41 85.5331 3173.49 84.4062 3174.87 83.5611C3176.24 82.7159 3177.79 82.0779 3179.52 81.647C3181.26 81.1996 3183.05 80.8764 3184.91 80.6776C3187.15 80.4455 3188.96 80.2384 3190.35 80.0561C3191.75 79.8572 3192.76 79.5589 3193.39 79.1612C3194.03 78.7469 3194.36 78.1089 3194.36 77.2472V77.098C3194.36 75.2254 3193.8 73.7753 3192.69 72.7479C3191.58 71.7204 3189.98 71.2067 3187.89 71.2067C3185.69 71.2067 3183.94 71.6873 3182.65 72.6484C3181.37 73.6096 3180.51 74.7448 3180.06 76.054L3171.66 74.8608C3172.32 72.5407 3173.42 70.6018 3174.94 69.044C3176.47 67.4697 3178.33 66.2931 3180.54 65.5142C3182.74 64.7188 3185.18 64.321 3187.84 64.321C3189.68 64.321 3191.51 64.5365 3193.34 64.9673C3195.16 65.3982 3196.83 66.1108 3198.33 67.1051C3199.84 68.0829 3201.05 69.4169 3201.96 71.1072C3202.89 72.7976 3203.36 74.9105 3203.36 77.446V103H3194.7V97.755H3194.41C3193.86 98.8156 3193.09 99.8099 3192.09 100.738C3191.12 101.649 3189.88 102.387 3188.39 102.95C3186.92 103.497 3185.18 103.771 3183.2 103.771ZM3185.53 97.1584C3187.34 97.1584 3188.9 96.8021 3190.23 96.0895C3191.56 95.3603 3192.58 94.3991 3193.29 93.206C3194.02 92.0128 3194.38 90.7119 3194.38 89.3033V84.804C3194.1 85.036 3193.62 85.2514 3192.94 85.4503C3192.28 85.6491 3191.53 85.8232 3190.7 85.9723C3189.87 86.1214 3189.05 86.254 3188.24 86.37C3187.43 86.486 3186.73 86.5855 3186.13 86.6683C3184.79 86.8506 3183.59 87.1489 3182.52 87.5632C3181.46 87.9775 3180.63 88.5575 3180.01 89.3033C3179.4 90.0324 3179.09 90.977 3179.09 92.1371C3179.09 93.7943 3179.7 95.0455 3180.91 95.8906C3182.12 96.7358 3183.66 97.1584 3185.53 97.1584ZM3234.38 92.5348L3245.71 64.8182H3252.97L3237.54 103H3231.25L3216.16 64.8182H3223.34L3234.38 92.5348ZM3221.08 64.8182V103H3212.4V64.8182H3221.08ZM3248.05 103V64.8182H3256.65V103H3248.05ZM3282.63 103.746C3278.8 103.746 3275.49 102.95 3272.71 101.359C3269.94 99.7519 3267.81 97.4815 3266.32 94.5483C3264.83 91.5985 3264.08 88.1267 3264.08 84.1328C3264.08 80.2053 3264.83 76.7583 3266.32 73.7919C3267.83 70.8089 3269.93 68.4889 3272.63 66.8317C3275.34 65.1579 3278.51 64.321 3282.16 64.321C3284.51 64.321 3286.73 64.7022 3288.82 65.4645C3290.92 66.2102 3292.78 67.3703 3294.39 68.9446C3296.01 70.5189 3297.29 72.5241 3298.21 74.9602C3299.14 77.3797 3299.61 80.2633 3299.61 83.6108V86.37H3268.31V80.3047H3290.98C3290.96 78.5812 3290.59 77.0483 3289.86 75.706C3289.13 74.3471 3288.11 73.2782 3286.8 72.4993C3285.51 71.7204 3284 71.331 3282.28 71.331C3280.44 71.331 3278.82 71.7784 3277.43 72.6733C3276.04 73.5516 3274.95 74.7116 3274.18 76.1534C3273.41 77.5786 3273.02 79.1446 3273.01 80.8516V86.1463C3273.01 88.367 3273.41 90.2727 3274.23 91.8636C3275.04 93.438 3276.17 94.6477 3277.63 95.4929C3279.09 96.3215 3280.8 96.7358 3282.75 96.7358C3284.06 96.7358 3285.25 96.5535 3286.31 96.1889C3287.37 95.8078 3288.29 95.2526 3289.07 94.5234C3289.84 93.7943 3290.43 92.8911 3290.83 91.8139L3299.23 92.7585C3298.7 94.9792 3297.69 96.9181 3296.2 98.5753C3294.73 100.216 3292.84 101.492 3290.53 102.403C3288.23 103.298 3285.59 103.746 3282.63 103.746ZM3307.22 117.318V64.8182H3316.07V71.1321H3316.59C3317.05 70.2041 3317.71 69.218 3318.55 68.174C3319.4 67.1134 3320.54 66.2102 3321.98 65.4645C3323.43 64.7022 3325.27 64.321 3327.5 64.321C3330.45 64.321 3333.11 65.075 3335.48 66.5831C3337.87 68.0746 3339.76 70.2869 3341.15 73.2202C3342.56 76.1368 3343.26 79.7164 3343.26 83.9588C3343.26 88.1515 3342.57 91.7145 3341.2 94.6477C3339.82 97.581 3337.95 99.8182 3335.58 101.359C3333.21 102.901 3330.53 103.671 3327.53 103.671C3325.34 103.671 3323.53 103.307 3322.08 102.577C3320.64 101.848 3319.48 100.97 3318.6 99.9425C3317.74 98.8984 3317.07 97.9124 3316.59 96.9844H3316.22V117.318H3307.22ZM3316.04 83.9091C3316.04 86.3783 3316.39 88.541 3317.09 90.397C3317.8 92.2531 3318.82 93.7031 3320.14 94.7472C3321.49 95.7746 3323.11 96.2884 3325.02 96.2884C3327.01 96.2884 3328.67 95.758 3330.01 94.6974C3331.36 93.6203 3332.37 92.1536 3333.05 90.2976C3333.74 88.425 3334.09 86.2955 3334.09 83.9091C3334.09 81.5393 3333.75 79.4347 3333.07 77.5952C3332.39 75.7557 3331.38 74.3139 3330.04 73.2699C3328.7 72.2259 3327.02 71.7038 3325.02 71.7038C3323.09 71.7038 3321.46 72.2093 3320.12 73.2202C3318.78 74.2311 3317.76 75.648 3317.06 77.4709C3316.38 79.2938 3316.04 81.4399 3316.04 83.9091ZM3361.96 103.771C3359.54 103.771 3357.36 103.34 3355.42 102.478C3353.5 101.6 3351.97 100.307 3350.84 98.6001C3349.73 96.8932 3349.18 94.7886 3349.18 92.2862C3349.18 90.1319 3349.58 88.3504 3350.37 86.9418C3351.17 85.5331 3352.25 84.4062 3353.63 83.5611C3355 82.7159 3356.55 82.0779 3358.28 81.647C3360.02 81.1996 3361.81 80.8764 3363.67 80.6776C3365.91 80.4455 3367.72 80.2384 3369.11 80.0561C3370.51 79.8572 3371.52 79.5589 3372.15 79.1612C3372.79 78.7469 3373.12 78.1089 3373.12 77.2472V77.098C3373.12 75.2254 3372.56 73.7753 3371.45 72.7479C3370.34 71.7204 3368.74 71.2067 3366.65 71.2067C3364.45 71.2067 3362.7 71.6873 3361.41 72.6484C3360.13 73.6096 3359.27 74.7448 3358.82 76.054L3350.42 74.8608C3351.08 72.5407 3352.18 70.6018 3353.7 69.044C3355.23 67.4697 3357.09 66.2931 3359.3 65.5142C3361.5 64.7188 3363.94 64.321 3366.6 64.321C3368.44 64.321 3370.27 64.5365 3372.1 64.9673C3373.92 65.3982 3375.59 66.1108 3377.09 67.1051C3378.6 68.0829 3379.81 69.4169 3380.72 71.1072C3381.65 72.7976 3382.12 74.9105 3382.12 77.446V103H3373.46V97.755H3373.17C3372.62 98.8156 3371.85 99.8099 3370.85 100.738C3369.88 101.649 3368.64 102.387 3367.15 102.95C3365.68 103.497 3363.94 103.771 3361.96 103.771ZM3364.29 97.1584C3366.1 97.1584 3367.66 96.8021 3368.99 96.0895C3370.32 95.3603 3371.34 94.3991 3372.05 93.206C3372.78 92.0128 3373.14 90.7119 3373.14 89.3033V84.804C3372.86 85.036 3372.38 85.2514 3371.7 85.4503C3371.04 85.6491 3370.29 85.8232 3369.46 85.9723C3368.63 86.1214 3367.81 86.254 3367 86.37C3366.19 86.486 3365.49 86.5855 3364.89 86.6683C3363.55 86.8506 3362.34 87.1489 3361.28 87.5632C3360.22 87.9775 3359.39 88.5575 3358.77 89.3033C3358.16 90.0324 3357.85 90.977 3357.85 92.1371C3357.85 93.7943 3358.46 95.0455 3359.67 95.8906C3360.88 96.7358 3362.42 97.1584 3364.29 97.1584Z" fill="white"/>
<path d="M3410.8 1038.28V1018.47H3414.2C3415.35 1017.56 3416.41 1016.27 3417.41 1014.62C3418.4 1012.96 3419.25 1010.69 3419.94 1007.8C3420.64 1004.92 3421.12 1001.19 3421.39 996.618L3422.73 975.091H3455.27V1018.47H3460.93V1038.23H3452.09V1026H3419.65V1038.28H3410.8ZM3424.94 1018.47H3446.42V982.822H3431.03L3430.24 996.618C3430.02 1000.08 3429.67 1003.18 3429.19 1005.91C3428.71 1008.65 3428.11 1011.06 3427.38 1013.15C3426.65 1015.22 3425.84 1016.99 3424.94 1018.47ZM3476.73 1013.82L3492.01 987.818H3501.26V1026H3492.56V999.974L3477.32 1026H3468.05V987.818H3476.73V1013.82ZM3536.73 1003.18V1010.56H3516.39V1003.18H3536.73ZM3519.18 987.818V1026H3510.5V987.818H3519.18ZM3542.62 987.818V1026H3533.97V987.818H3542.62ZM3562.71 1026.77C3560.29 1026.77 3558.11 1026.34 3556.17 1025.48C3554.25 1024.6 3552.72 1023.31 3551.6 1021.6C3550.49 1019.89 3549.93 1017.79 3549.93 1015.29C3549.93 1013.13 3550.33 1011.35 3551.13 1009.94C3551.92 1008.53 3553.01 1007.41 3554.38 1006.56C3555.76 1005.72 3557.31 1005.08 3559.03 1004.65C3560.77 1004.2 3562.57 1003.88 3564.42 1003.68C3566.66 1003.45 3568.48 1003.24 3569.87 1003.06C3571.26 1002.86 3572.27 1002.56 3572.9 1002.16C3573.55 1001.75 3573.87 1001.11 3573.87 1000.25V1000.1C3573.87 998.225 3573.32 996.775 3572.21 995.748C3571.09 994.72 3569.5 994.207 3567.41 994.207C3565.2 994.207 3563.46 994.687 3562.16 995.648C3560.89 996.61 3560.02 997.745 3559.58 999.054L3551.18 997.861C3551.84 995.541 3552.93 993.602 3554.46 992.044C3555.98 990.47 3557.85 989.293 3560.05 988.514C3562.25 987.719 3564.69 987.321 3567.36 987.321C3569.2 987.321 3571.03 987.536 3572.85 987.967C3574.67 988.398 3576.34 989.111 3577.85 990.105C3579.36 991.083 3580.57 992.417 3581.48 994.107C3582.41 995.798 3582.87 997.911 3582.87 1000.45V1026H3574.22V1020.75H3573.92C3573.37 1021.82 3572.6 1022.81 3571.61 1023.74C3570.63 1024.65 3569.4 1025.39 3567.9 1025.95C3566.43 1026.5 3564.7 1026.77 3562.71 1026.77ZM3565.05 1020.16C3566.85 1020.16 3568.42 1019.8 3569.74 1019.09C3571.07 1018.36 3572.09 1017.4 3572.8 1016.21C3573.53 1015.01 3573.9 1013.71 3573.9 1012.3V1007.8C3573.61 1008.04 3573.13 1008.25 3572.45 1008.45C3571.79 1008.65 3571.05 1008.82 3570.22 1008.97C3569.39 1009.12 3568.57 1009.25 3567.76 1009.37C3566.94 1009.49 3566.24 1009.59 3565.64 1009.67C3564.3 1009.85 3563.1 1010.15 3562.04 1010.56C3560.98 1010.98 3560.14 1011.56 3559.53 1012.3C3558.91 1013.03 3558.61 1013.98 3558.61 1015.14C3558.61 1016.79 3559.21 1018.05 3560.42 1018.89C3561.63 1019.74 3563.17 1020.16 3565.05 1020.16ZM3613.89 1015.53L3625.23 987.818H3632.49L3617.05 1026H3610.76L3595.67 987.818H3602.86L3613.89 1015.53ZM3600.59 987.818V1026H3591.92V987.818H3600.59ZM3627.56 1026V987.818H3636.16V1026H3627.56ZM3653.91 1013.82L3669.2 987.818H3678.45V1026H3669.75V999.974L3654.51 1026H3645.24V987.818H3653.91V1013.82ZM3687.69 1026V987.818H3696.69V1003.23H3699.97L3711.45 987.818H3722.29L3708.15 1006.56L3722.44 1026H3711.55L3701.09 1011.61H3696.69V1026H3687.69Z" fill="white"/>
<path d="M3145.2 1971.09V1978.82H3121.68V2022H3112.46V1971.09H3145.2ZM3157.31 2009.82L3172.6 1983.82H3181.84V2022H3173.14V1995.97L3157.91 2022H3148.63V1983.82H3157.31V2009.82ZM3191.08 2036.32V1983.82H3199.93V1990.13H3200.46C3200.92 1989.2 3201.57 1988.22 3202.42 1987.17C3203.26 1986.11 3204.41 1985.21 3205.85 1984.46C3207.29 1983.7 3209.13 1983.32 3211.37 1983.32C3214.32 1983.32 3216.98 1984.08 3219.35 1985.58C3221.73 1987.07 3223.62 1989.29 3225.02 1992.22C3226.42 1995.14 3227.13 1998.72 3227.13 2002.96C3227.13 2007.15 3226.44 2010.71 3225.07 2013.65C3223.69 2016.58 3221.82 2018.82 3219.45 2020.36C3217.08 2021.9 3214.39 2022.67 3211.39 2022.67C3209.21 2022.67 3207.39 2022.31 3205.95 2021.58C3204.51 2020.85 3203.35 2019.97 3202.47 2018.94C3201.61 2017.9 3200.94 2016.91 3200.46 2015.98H3200.08V2036.32H3191.08ZM3199.91 2002.91C3199.91 2005.38 3200.26 2007.54 3200.95 2009.4C3201.67 2011.25 3202.68 2012.7 3204.01 2013.75C3205.35 2014.77 3206.98 2015.29 3208.88 2015.29C3210.87 2015.29 3212.54 2014.76 3213.88 2013.7C3215.22 2012.62 3216.23 2011.15 3216.91 2009.3C3217.61 2007.42 3217.96 2005.3 3217.96 2002.91C3217.96 2000.54 3217.62 1998.43 3216.94 1996.6C3216.26 1994.76 3215.25 1993.31 3213.9 1992.27C3212.56 1991.23 3210.89 1990.7 3208.88 1990.7C3206.96 1990.7 3205.33 1991.21 3203.99 1992.22C3202.64 1993.23 3201.62 1994.65 3200.93 1996.47C3200.25 1998.29 3199.91 2000.44 3199.91 2002.91ZM3251.49 2022.75C3247.76 2022.75 3244.53 2021.93 3241.79 2020.28C3239.06 2018.64 3236.94 2016.35 3235.43 2013.4C3233.94 2010.45 3233.19 2007 3233.19 2003.06C3233.19 1999.11 3233.94 1995.66 3235.43 1992.69C3236.94 1989.73 3239.06 1987.42 3241.79 1985.78C3244.53 1984.14 3247.76 1983.32 3251.49 1983.32C3255.22 1983.32 3258.45 1984.14 3261.18 1985.78C3263.92 1987.42 3266.03 1989.73 3267.52 1992.69C3269.03 1995.66 3269.78 1999.11 3269.78 2003.06C3269.78 2007 3269.03 2010.45 3267.52 2013.4C3266.03 2016.35 3263.92 2018.64 3261.18 2020.28C3258.45 2021.93 3255.22 2022.75 3251.49 2022.75ZM3251.54 2015.54C3253.56 2015.54 3255.25 2014.98 3256.61 2013.87C3257.97 2012.74 3258.98 2011.24 3259.64 2009.35C3260.32 2007.46 3260.66 2005.35 3260.66 2003.03C3260.66 2000.7 3260.32 1998.58 3259.64 1996.69C3258.98 1994.79 3257.97 1993.27 3256.61 1992.15C3255.25 1991.02 3253.56 1990.46 3251.54 1990.46C3249.47 1990.46 3247.74 1991.02 3246.37 1992.15C3245.01 1993.27 3243.99 1994.79 3243.31 1996.69C3242.65 1998.58 3242.32 2000.7 3242.32 2003.03C3242.32 2005.35 3242.65 2007.46 3243.31 2009.35C3243.99 2011.24 3245.01 2012.74 3246.37 2013.87C3247.74 2014.98 3249.47 2015.54 3251.54 2015.54ZM3294.08 2022.75C3290.27 2022.75 3286.99 2021.91 3284.26 2020.24C3281.54 2018.56 3279.44 2016.25 3277.97 2013.3C3276.51 2010.33 3275.78 2006.92 3275.78 2003.06C3275.78 1999.18 3276.53 1995.76 3278.02 1992.79C3279.51 1989.81 3281.62 1987.49 3284.33 1985.83C3287.07 1984.16 3290.3 1983.32 3294.03 1983.32C3297.13 1983.32 3299.87 1983.89 3302.26 1985.04C3304.66 1986.16 3306.57 1987.76 3308 1989.83C3309.42 1991.89 3310.23 1994.29 3310.43 1997.04H3301.83C3301.48 1995.2 3300.66 1993.67 3299.35 1992.44C3298.05 1991.2 3296.32 1990.58 3294.15 1990.58C3292.31 1990.58 3290.7 1991.08 3289.3 1992.07C3287.91 1993.05 3286.83 1994.46 3286.05 1996.3C3285.29 1998.14 3284.9 2000.34 3284.9 2002.91C3284.9 2005.51 3285.29 2007.75 3286.05 2009.62C3286.81 2011.48 3287.88 2012.91 3289.25 2013.92C3290.65 2014.92 3292.28 2015.41 3294.15 2015.41C3295.48 2015.41 3296.66 2015.16 3297.71 2014.67C3298.77 2014.15 3299.65 2013.42 3300.37 2012.45C3301.08 2011.49 3301.57 2010.33 3301.83 2008.95H3310.43C3310.22 2011.65 3309.42 2014.05 3308.05 2016.13C3306.67 2018.21 3304.8 2019.83 3302.43 2021.01C3300.06 2022.17 3297.28 2022.75 3294.08 2022.75ZM3317.82 2022V1983.82H3326.82V1999.23H3330.1L3341.59 1983.82H3352.43L3338.28 2002.56L3352.57 2022H3341.69L3331.22 2007.61H3326.82V2022H3317.82ZM3372.76 2022.75C3369.03 2022.75 3365.8 2021.93 3363.06 2020.28C3360.33 2018.64 3358.21 2016.35 3356.7 2013.4C3355.21 2010.45 3354.46 2007 3354.46 2003.06C3354.46 1999.11 3355.21 1995.66 3356.7 1992.69C3358.21 1989.73 3360.33 1987.42 3363.06 1985.78C3365.8 1984.14 3369.03 1983.32 3372.76 1983.32C3376.49 1983.32 3379.72 1984.14 3382.45 1985.78C3385.19 1987.42 3387.3 1989.73 3388.79 1992.69C3390.3 1995.66 3391.05 1999.11 3391.05 2003.06C3391.05 2007 3390.3 2010.45 3388.79 2013.4C3387.3 2016.35 3385.19 2018.64 3382.45 2020.28C3379.72 2021.93 3376.49 2022.75 3372.76 2022.75ZM3372.81 2015.54C3374.83 2015.54 3376.52 2014.98 3377.88 2013.87C3379.24 2012.74 3380.25 2011.24 3380.91 2009.35C3381.59 2007.46 3381.93 2005.35 3381.93 2003.03C3381.93 2000.7 3381.59 1998.58 3380.91 1996.69C3380.25 1994.79 3379.24 1993.27 3377.88 1992.15C3376.52 1991.02 3374.83 1990.46 3372.81 1990.46C3370.74 1990.46 3369.01 1991.02 3367.64 1992.15C3366.28 1993.27 3365.26 1994.79 3364.58 1996.69C3363.92 1998.58 3363.59 2000.7 3363.59 2003.03C3363.59 2005.35 3363.92 2007.46 3364.58 2009.35C3365.26 2011.24 3366.28 2012.74 3367.64 2013.87C3369.01 2014.98 3370.74 2015.54 3372.81 2015.54ZM3398.69 2022V1983.82H3430.93V2022H3422.26V1991.2H3407.29V2022H3398.69Z" fill="white"/>
<circle cx="1519.5" cy="929.5" r="45" stroke="#767382" stroke-width="7"/>
<circle cx="1519.5" cy="817.5" r="45" stroke="#767382" stroke-width="7"/>
<circle cx="1519.5" cy="700.5" r="45" stroke="#767382" stroke-width="7"/>
<circle cx="1404.5" cy="929.5" r="45" stroke="#767382" stroke-width="7"/>
<circle cx="1404.5" cy="819.5" r="45" stroke="#767382" stroke-width="7"/>
<circle cx="1293.5" cy="932.5" r="45" stroke="#767382" stroke-width="7"/>
<circle cx="1637.5" cy="1047.5" r="45" stroke="#767382" stroke-width="7"/>
<circle cx="2095.5" cy="1047.5" r="45" stroke="#767382" stroke-width="7"/>
<circle cx="2554.5" cy="1047.5" r="45" stroke="#767382" stroke-width="7"/>
<circle cx="1870.5" cy="1613.5" r="45" stroke="#767382" stroke-width="7"/>
<circle cx="1408.5" cy="1046.5" r="45" stroke="#767382" stroke-width="7"/>
<circle cx="1866.5" cy="1046.5" r="45" stroke="#767382" stroke-width="7"/>
<path d="M2369.5 1046.5C2369.5 1071.39 2349.54 1091.5 2325 1091.5C2300.46 1091.5 2280.5 1071.39 2280.5 1046.5C2280.5 1021.61 2300.46 1001.5 2325 1001.5C2349.54 1001.5 2369.5 1021.61 2369.5 1046.5Z" stroke="#767382" stroke-width="7"/>
<circle cx="1641.5" cy="1612.5" r="45" stroke="#767382" stroke-width="7"/>
<circle cx="2099.5" cy="1612.5" r="45" stroke="#767382" stroke-width="7"/>
<circle cx="1637.5" cy="1160.5" r="45" stroke="#767382" stroke-width="7"/>
<circle cx="1637.5" cy="1386.5" r="45" stroke="#767382" stroke-width="7"/>
<circle cx="2095.5" cy="1160.5" r="45" stroke="#767382" stroke-width="7"/>
<circle cx="2095.5" cy="1386.5" r="45" stroke="#767382" stroke-width="7"/>
<circle cx="2554.5" cy="1160.5" r="45" stroke="#767382" stroke-width="7"/>
<circle cx="2554.5" cy="1386.5" r="45" stroke="#767382" stroke-width="7"/>
<circle cx="1864.5" cy="593.5" r="45" stroke="#767382" stroke-width="7"/>
<circle cx="1870.5" cy="1726.5" r="45" stroke="#767382" stroke-width="7"/>
<circle cx="1864.5" cy="819.5" r="45" stroke="#767382" stroke-width="7"/>
<circle cx="1870.5" cy="1952.5" r="45" stroke="#767382" stroke-width="7"/>
<circle cx="1408.5" cy="1159.5" r="45" stroke="#767382" stroke-width="7"/>
<circle cx="1408.5" cy="1385.5" r="45" stroke="#767382" stroke-width="7"/>
<circle cx="1866.5" cy="1159.5" r="45" stroke="#767382" stroke-width="7"/>
<circle cx="1866.5" cy="1385.5" r="45" stroke="#767382" stroke-width="7"/>
<path d="M2369.5 1159.5C2369.5 1184.39 2349.54 1204.5 2325 1204.5C2300.46 1204.5 2280.5 1184.39 2280.5 1159.5C2280.5 1134.61 2300.46 1114.5 2325 1114.5C2349.54 1114.5 2369.5 1134.61 2369.5 1159.5Z" stroke="#767382" stroke-width="7"/>
<path d="M2369.5 1385.5C2369.5 1410.39 2349.54 1430.5 2325 1430.5C2300.46 1430.5 2280.5 1410.39 2280.5 1385.5C2280.5 1360.61 2300.46 1340.5 2325 1340.5C2349.54 1340.5 2369.5 1360.61 2369.5 1385.5Z" stroke="#767382" stroke-width="7"/>
<circle cx="1635.5" cy="592.5" r="45" stroke="#767382" stroke-width="7"/>
<circle cx="1641.5" cy="1725.5" r="45" stroke="#767382" stroke-width="7"/>
<circle cx="1635.5" cy="818.5" r="45" stroke="#767382" stroke-width="7"/>
<circle cx="1641.5" cy="1951.5" r="45" stroke="#767382" stroke-width="7"/>
<circle cx="2093.5" cy="592.5" r="45" stroke="#767382" stroke-width="7"/>
<circle cx="2099.5" cy="1725.5" r="45" stroke="#767382" stroke-width="7"/>
<circle cx="2093.5" cy="818.5" r="45" stroke="#767382" stroke-width="7"/>
<circle cx="2099.5" cy="1951.5" r="45" stroke="#767382" stroke-width="7"/>
<circle cx="1293.5" cy="1160.5" r="45" stroke="#767382" stroke-width="7"/>
<circle cx="1293.5" cy="1386.5" r="45" stroke="#767382" stroke-width="7"/>
<circle cx="1751.5" cy="1160.5" r="45" stroke="#767382" stroke-width="7"/>
<circle cx="1751.5" cy="1386.5" r="45" stroke="#767382" stroke-width="7"/>
<circle cx="2210.5" cy="1160.5" r="45" stroke="#767382" stroke-width="7"/>
<circle cx="2210.5" cy="1386.5" r="45" stroke="#767382" stroke-width="7"/>
<circle cx="2668.5" cy="1160.5" r="45" stroke="#767382" stroke-width="7"/>
<circle cx="2668.5" cy="1386.5" r="45" stroke="#767382" stroke-width="7"/>
<circle cx="1979.5" cy="593.5" r="45" stroke="#767382" stroke-width="7"/>
<circle cx="1985.5" cy="1726.5" r="45" stroke="#767382" stroke-width="7"/>
<circle cx="1979.5" cy="819.5" r="45" stroke="#767382" stroke-width="7"/>
<circle cx="1985.5" cy="1952.5" r="45" stroke="#767382" stroke-width="7"/>
<circle cx="1522.5" cy="1159.5" r="45" stroke="#767382" stroke-width="7"/>
<circle cx="1522.5" cy="1385.5" r="45" stroke="#767382" stroke-width="7"/>
<circle cx="1981.5" cy="1159.5" r="45" stroke="#767382" stroke-width="7"/>
<circle cx="1981.5" cy="1385.5" r="45" stroke="#767382" stroke-width="7"/>
<circle cx="2439.5" cy="1159.5" r="45" stroke="#767382" stroke-width="7"/>
<circle cx="2439.5" cy="1385.5" r="45" stroke="#767382" stroke-width="7"/>
<circle cx="1750.5" cy="592.5" r="45" stroke="#767382" stroke-width="7"/>
<circle cx="1756.5" cy="1725.5" r="45" stroke="#767382" stroke-width="7"/>
<circle cx="1750.5" cy="818.5" r="45" stroke="#767382" stroke-width="7"/>
<circle cx="1756.5" cy="1951.5" r="45" stroke="#767382" stroke-width="7"/>
<circle cx="2208.5" cy="592.5" r="45" stroke="#767382" stroke-width="7"/>
<circle cx="2214.5" cy="1725.5" r="45" stroke="#767382" stroke-width="7"/>
<circle cx="2208.5" cy="818.5" r="45" stroke="#767382" stroke-width="7"/>
<circle cx="2214.5" cy="1951.5" r="45" stroke="#767382" stroke-width="7"/>
<circle cx="2323.5" cy="592.5" r="45" stroke="#767382" stroke-width="7"/>
<circle cx="2329.5" cy="1725.5" r="45" stroke="#767382" stroke-width="7"/>
<circle cx="2323.5" cy="818.5" r="45" stroke="#767382" stroke-width="7"/>
<circle cx="2329.5" cy="1951.5" r="45" stroke="#767382" stroke-width="7"/>
<circle cx="1522.5" cy="1613.5" r="45" stroke="#767382" stroke-width="7"/>
<circle cx="1522.5" cy="1725.5" r="45" stroke="#767382" stroke-width="7"/>
<circle cx="1522.5" cy="1839.5" r="45" stroke="#767382" stroke-width="7"/>
<circle cx="1403.5" cy="1724.5" r="45" stroke="#767382" stroke-width="7"/>
<circle cx="1403.5" cy="1612.5" r="45" stroke="#767382" stroke-width="7"/>
<circle cx="1290.5" cy="1612.5" r="45" stroke="#767382" stroke-width="7"/>
<circle cx="1637.5" cy="1273.5" r="45" stroke="#767382" stroke-width="7"/>
<circle cx="1637.5" cy="1499.5" r="45" stroke="#767382" stroke-width="7"/>
<circle cx="2095.5" cy="1273.5" r="45" stroke="#767382" stroke-width="7"/>
<circle cx="2095.5" cy="1499.5" r="45" stroke="#767382" stroke-width="7"/>
<circle cx="2554.5" cy="1273.5" r="45" stroke="#767382" stroke-width="7"/>
<circle cx="2554.5" cy="1499.5" r="45" stroke="#767382" stroke-width="7"/>
<circle cx="1864.5" cy="706.5" r="45" stroke="#767382" stroke-width="7"/>
<circle cx="1870.5" cy="1839.5" r="45" stroke="#767382" stroke-width="7"/>
<circle cx="1864.5" cy="932.5" r="45" stroke="#767382" stroke-width="7"/>
<circle cx="1408.5" cy="1272.5" r="45" stroke="#767382" stroke-width="7"/>
<circle cx="1408.5" cy="1498.5" r="45" stroke="#767382" stroke-width="7"/>
<circle cx="1866.5" cy="1272.5" r="45" stroke="#767382" stroke-width="7"/>
<circle cx="1866.5" cy="1498.5" r="45" stroke="#767382" stroke-width="7"/>
<path d="M2369.5 1272.5C2369.5 1297.39 2349.54 1317.5 2325 1317.5C2300.46 1317.5 2280.5 1297.39 2280.5 1272.5C2280.5 1247.61 2300.46 1227.5 2325 1227.5C2349.54 1227.5 2369.5 1247.61 2369.5 1272.5Z" stroke="#767382" stroke-width="7"/>
<path d="M2369.5 1498.5C2369.5 1523.39 2349.54 1543.5 2325 1543.5C2300.46 1543.5 2280.5 1523.39 2280.5 1498.5C2280.5 1473.61 2300.46 1453.5 2325 1453.5C2349.54 1453.5 2369.5 1473.61 2369.5 1498.5Z" stroke="#767382" stroke-width="7"/>
<circle cx="1635.5" cy="705.5" r="45" stroke="#767382" stroke-width="7"/>
<circle cx="1641.5" cy="1838.5" r="45" stroke="#767382" stroke-width="7"/>
<circle cx="1635.5" cy="931.5" r="45" stroke="#767382" stroke-width="7"/>
<circle cx="2093.5" cy="705.5" r="45" stroke="#767382" stroke-width="7"/>
<circle cx="2099.5" cy="1838.5" r="45" stroke="#767382" stroke-width="7"/>
<circle cx="2093.5" cy="931.5" r="45" stroke="#767382" stroke-width="7"/>
<circle cx="1293.5" cy="1273.5" r="45" stroke="#767382" stroke-width="7"/>
<circle cx="1293.5" cy="1499.5" r="45" stroke="#767382" stroke-width="7"/>
<circle cx="1751.5" cy="1273.5" r="45" stroke="#767382" stroke-width="7"/>
<circle cx="1751.5" cy="1499.5" r="45" stroke="#767382" stroke-width="7"/>
<circle cx="2210.5" cy="1273.5" r="45" stroke="#767382" stroke-width="7"/>
<circle cx="2210.5" cy="1499.5" r="45" stroke="#767382" stroke-width="7"/>
<circle cx="2668.5" cy="1273.5" r="45" stroke="#767382" stroke-width="7"/>
<circle cx="2668.5" cy="1499.5" r="45" stroke="#767382" stroke-width="7"/>
<circle cx="1979.5" cy="706.5" r="45" stroke="#767382" stroke-width="7"/>
<circle cx="1985.5" cy="1839.5" r="45" stroke="#767382" stroke-width="7"/>
<circle cx="1979.5" cy="932.5" r="45" stroke="#767382" stroke-width="7"/>
<circle cx="1522.5" cy="1272.5" r="45" stroke="#767382" stroke-width="7"/>
<circle cx="1522.5" cy="1498.5" r="45" stroke="#767382" stroke-width="7"/>
<circle cx="1981.5" cy="1272.5" r="45" stroke="#767382" stroke-width="7"/>
<circle cx="1981.5" cy="1498.5" r="45" stroke="#767382" stroke-width="7"/>
<circle cx="2439.5" cy="1272.5" r="45" stroke="#767382" stroke-width="7"/>
<circle cx="2439.5" cy="1498.5" r="45" stroke="#767382" stroke-width="7"/>
<circle cx="1750.5" cy="705.5" r="45" stroke="#767382" stroke-width="7"/>
<circle cx="1756.5" cy="1838.5" r="45" stroke="#767382" stroke-width="7"/>
<circle cx="1750.5" cy="931.5" r="45" stroke="#767382" stroke-width="7"/>
<circle cx="2208.5" cy="705.5" r="45" stroke="#767382" stroke-width="7"/>
<circle cx="2214.5" cy="1838.5" r="45" stroke="#767382" stroke-width="7"/>
<circle cx="2208.5" cy="931.5" r="45" stroke="#767382" stroke-width="7"/>
<circle cx="2323.5" cy="705.5" r="45" stroke="#767382" stroke-width="7"/>
<circle cx="2329.5" cy="1838.5" r="45" stroke="#767382" stroke-width="7"/>
<circle cx="2323.5" cy="931.5" r="45" stroke="#767382" stroke-width="7"/>
<circle cx="1293.5" cy="1047.5" r="45" stroke="#767382" stroke-width="7"/>
<circle cx="1751.5" cy="1047.5" r="45" stroke="#767382" stroke-width="7"/>
<circle cx="2210.5" cy="1047.5" r="45" stroke="#767382" stroke-width="7"/>
<circle cx="2668.5" cy="1047.5" r="45" stroke="#767382" stroke-width="7"/>
<circle cx="1985.5" cy="1613.5" r="45" stroke="#767382" stroke-width="7"/>
<circle cx="1522.5" cy="1046.5" r="45" stroke="#767382" stroke-width="7"/>
<circle cx="1981.5" cy="1046.5" r="45" stroke="#767382" stroke-width="7"/>
<circle cx="2439.5" cy="1046.5" r="45" stroke="#767382" stroke-width="7"/>
<circle cx="2439.5" cy="932.5" r="45" stroke="#767382" stroke-width="7"/>
<circle cx="2439.5" cy="819.5" r="45" stroke="#767382" stroke-width="7"/>
<circle cx="2439.5" cy="705.5" r="45" stroke="#767382" stroke-width="7"/>
<circle cx="2553.5" cy="817.5" r="45" stroke="#767382" stroke-width="7"/>
<circle cx="2553.5" cy="929.5" r="45" stroke="#767382" stroke-width="7"/>
<circle cx="2658.5" cy="934.5" r="45" stroke="#767382" stroke-width="7"/>
<circle cx="1756.5" cy="1612.5" r="45" stroke="#767382" stroke-width="7"/>
<circle cx="2214.5" cy="1612.5" r="45" stroke="#767382" stroke-width="7"/>
<circle cx="2329.5" cy="1612.5" r="45" stroke="#767382" stroke-width="7"/>
<circle cx="2439.5" cy="1612.5" r="45" stroke="#767382" stroke-width="7"/>
<circle cx="2553.5" cy="1612.5" r="45" stroke="#767382" stroke-width="7"/>
<circle cx="2667.5" cy="1612.5" r="45" stroke="#767382" stroke-width="7"/>
<circle cx="2439.5" cy="1726.5" r="45" stroke="#767382" stroke-width="7"/>
<circle cx="2553.5" cy="1726.5" r="45" stroke="#767382" stroke-width="7"/>
<circle cx="2439.5" cy="1840.5" r="45" stroke="#767382" stroke-width="7"/>
<line x1="1323.82" y1="1186.28" x2="1374.82" y2="1240.28" stroke="#767382" stroke-opacity="0.7" stroke-width="5"/>
<line x1="1490.02" y1="1078.94" x2="1438.58" y2="1132.52" stroke="#767382" stroke-opacity="0.7" stroke-width="5"/>
<line x1="1608.24" y1="1303.73" x2="1556.8" y2="1357.31" stroke="#767382" stroke-opacity="0.7" stroke-width="5"/>
<line x1="1837.24" y1="1303.73" x2="1785.8" y2="1357.31" stroke="#767382" stroke-opacity="0.7" stroke-width="5"/>
<path d="M2074.5 1197.5L2005 1347" stroke="#767382" stroke-opacity="0.7" stroke-width="5"/>
<path d="M2532.5 1080.4L2463 1229.9" stroke="#767382" stroke-opacity="0.7" stroke-width="5"/>
<path d="M1956.5 631.4L1887 780.9" stroke="#767382" stroke-opacity="0.7" stroke-width="5"/>
<path d="M1962.5 1764.4L1893 1913.9" stroke="#767382" stroke-opacity="0.7" stroke-width="5"/>
<path d="M2185.5 744.4L2116 893.9" stroke="#767382" stroke-opacity="0.7" stroke-width="5"/>
<path d="M2080.5 1647.4L2011 1796.9" stroke="#767382" stroke-opacity="0.7" stroke-width="5"/>
<path d="M2302.5 1311.4L2233 1460.9" stroke="#767382" stroke-opacity="0.7" stroke-width="5"/>
<path d="M2400.5 1411L2248.5 1476" stroke="#767382" stroke-opacity="0.7" stroke-width="5"/>
<path d="M2630 1184.98L2478 1249.98" stroke="#767382" stroke-opacity="0.7" stroke-width="5"/>
<path d="M2630 1405.98L2478 1470.98" stroke="#767382" stroke-opacity="0.7" stroke-width="5"/>
<path d="M2286 1183.98L2134 1248.98" stroke="#767382" stroke-opacity="0.7" stroke-width="5"/>
<path d="M1941 1067.98L1789 1132.98" stroke="#767382" stroke-opacity="0.7" stroke-width="5"/>
<path d="M2172 1411.98L2020 1476.98" stroke="#767382" stroke-opacity="0.7" stroke-width="5"/>
<path d="M1829 1410.98L1677 1475.98" stroke="#767382" stroke-opacity="0.7" stroke-width="5"/>
<path d="M1483 1409.98L1331 1474.98" stroke="#767382" stroke-opacity="0.7" stroke-width="5"/>
<path d="M1715 1247.5L1560 1187" stroke="#767382" stroke-opacity="0.7" stroke-width="5"/>
<path d="M1715.76 1134.5L1560.76 1074" stroke="#767382" stroke-opacity="0.7" stroke-width="5"/>
<path d="M2062.76 1248.5L1907.76 1188" stroke="#767382" stroke-opacity="0.7" stroke-width="5"/>
<path d="M2284.76 1134.5L2129.76 1074" stroke="#767382" stroke-opacity="0.7" stroke-width="5"/>
<path d="M2631.76 1134.5L2476.76 1074" stroke="#767382" stroke-opacity="0.7" stroke-width="5"/>
<path d="M1943.76 681.5L1788.76 621.001" stroke="#767382" stroke-opacity="0.7" stroke-width="5"/>
<path d="M1949.76 1814.5L1794.76 1754" stroke="#767382" stroke-opacity="0.7" stroke-width="5"/>
<path d="M2172.76 793.5L2017.76 733.001" stroke="#767382" stroke-opacity="0.7" stroke-width="5"/>
<path d="M2178.76 1926.5L2023.76 1866" stroke="#767382" stroke-opacity="0.7" stroke-width="5"/>
<path d="M2286.76 681.5L2131.76 621.001" stroke="#767382" stroke-opacity="0.7" stroke-width="5"/>
<path d="M2292.76 1814.5L2137.76 1754" stroke="#767382" stroke-opacity="0.7" stroke-width="5"/>
<path d="M1883.81 1309L1963 1456.5" stroke="#767382" stroke-opacity="0.7" stroke-width="5"/>
<path d="M2000.37 1087L2079.56 1234.5" stroke="#767382" stroke-opacity="0.7" stroke-width="5"/>
<path d="M2114.37 1313L2193.56 1460.5" stroke="#767382" stroke-opacity="0.7" stroke-width="5"/>
<path d="M2575.37 1313L2654.56 1460.5" stroke="#767382" stroke-opacity="0.7" stroke-width="5"/>
<path d="M1769.37 746L1848.56 893.5" stroke="#767382" stroke-opacity="0.7" stroke-width="5"/>
<path d="M1656.37 1199L1735.56 1346.5" stroke="#767382" stroke-opacity="0.7" stroke-width="5"/>
<path d="M1311.37 1081L1390.56 1228.5" stroke="#767382" stroke-opacity="0.7" stroke-width="5"/>
<path d="M1499.5 1199.4L1430 1348.9" stroke="#767382" stroke-opacity="0.7" stroke-width="5"/>
<path d="M1958.5 1084.4L1889 1233.9" stroke="#767382" stroke-opacity="0.7" stroke-width="5"/>
<line x1="2410.24" y1="1191.73" x2="2358.8" y2="1245.31" stroke="#767382" stroke-opacity="0.7" stroke-width="5"/>
<line x1="2179.24" y1="737.731" x2="2127.8" y2="791.312" stroke="#767382" stroke-opacity="0.7" stroke-width="5"/>
<line x1="2185.24" y1="1870.73" x2="2133.8" y2="1924.31" stroke="#767382" stroke-opacity="0.7" stroke-width="5"/>
<line x1="2300.24" y1="1641.73" x2="2248.8" y2="1695.31" stroke="#767382" stroke-opacity="0.7" stroke-width="5"/>
<line x1="2069.24" y1="1078.73" x2="2017.8" y2="1132.31" stroke="#767382" stroke-opacity="0.7" stroke-width="5"/>
<line x1="2047" y1="1049.5" x2="2030" y2="1049.5" stroke="#767382" stroke-opacity="0.7" stroke-width="5"/>
<line x1="1817" y1="1049.5" x2="1800" y2="1049.5" stroke="#767382" stroke-opacity="0.7" stroke-width="5"/>
<line x1="1817" y1="1163.5" x2="1800" y2="1163.5" stroke="#767382" stroke-opacity="0.7" stroke-width="5"/>
<line x1="2390" y1="1162.5" x2="2373" y2="1162.5" stroke="#767382" stroke-opacity="0.7" stroke-width="5"/>
<line x1="2620" y1="1276.5" x2="2603" y2="1276.5" stroke="#767382" stroke-opacity="0.7" stroke-width="5"/>
<line x1="1699" y1="594.5" x2="1682" y2="594.5" stroke="#767382" stroke-opacity="0.7" stroke-width="5"/>
<line x1="1707" y1="1727.5" x2="1690" y2="1727.5" stroke="#767382" stroke-opacity="0.7" stroke-width="5"/>
<line x1="1937" y1="1616.5" x2="1915" y2="1616.5" stroke="#767382" stroke-opacity="0.7" stroke-width="5"/>
<line x1="2162" y1="595.5" x2="2140" y2="595.5" stroke="#767382" stroke-opacity="0.7" stroke-width="5"/>
<line x1="2168" y1="1728.5" x2="2146" y2="1728.5" stroke="#767382" stroke-opacity="0.7" stroke-width="5"/>
<line x1="2277" y1="709.5" x2="2255" y2="709.5" stroke="#767382" stroke-opacity="0.7" stroke-width="5"/>
<line x1="2283" y1="1842.5" x2="2261" y2="1842.5" stroke="#767382" stroke-opacity="0.7" stroke-width="5"/>
<line x1="2279" y1="935.5" x2="2257" y2="935.5" stroke="#767382" stroke-opacity="0.7" stroke-width="5"/>
<line x1="2043" y1="934.5" x2="2021" y2="934.5" stroke="#767382" stroke-opacity="0.7" stroke-width="5"/>
<line x1="1978.5" y1="886" x2="1978.5" y2="864" stroke="#767382" stroke-opacity="0.7" stroke-width="5"/>
<line x1="1748.5" y1="884" x2="1748.5" y2="862" stroke="#767382" stroke-opacity="0.7" stroke-width="5"/>
<line x1="1977.5" y1="770" x2="1977.5" y2="748" stroke="#767382" stroke-opacity="0.7" stroke-width="5"/>
<line x1="1983.5" y1="1903" x2="1983.5" y2="1881" stroke="#767382" stroke-opacity="0.7" stroke-width="5"/>
<line x1="1984.5" y1="1677" x2="1984.5" y2="1655" stroke="#767382" stroke-opacity="0.7" stroke-width="5"/>
<line x1="2212.5" y1="1677" x2="2212.5" y2="1655" stroke="#767382" stroke-opacity="0.7" stroke-width="5"/>
<line x1="1754.5" y1="1681" x2="1754.5" y2="1659" stroke="#767382" stroke-opacity="0.7" stroke-width="5"/>
<line x1="2666.5" y1="1115" x2="2666.5" y2="1093" stroke="#767382" stroke-opacity="0.7" stroke-width="5"/>
<line x1="2666.5" y1="1341" x2="2666.5" y2="1319" stroke="#767382" stroke-opacity="0.7" stroke-width="5"/>
<line x1="2437.5" y1="1340" x2="2437.5" y2="1318" stroke="#767382" stroke-opacity="0.7" stroke-width="5"/>
<line x1="2093.5" y1="1341" x2="2093.5" y2="1319" stroke="#767382" stroke-opacity="0.7" stroke-width="5"/>
<line x1="1979.5" y1="1451" x2="1979.5" y2="1429" stroke="#767382" stroke-opacity="0.7" stroke-width="5"/>
<line x1="1635.5" y1="1451" x2="1635.5" y2="1429" stroke="#767382" stroke-opacity="0.7" stroke-width="5"/>
<line x1="1519.5" y1="1451" x2="1519.5" y2="1429" stroke="#767382" stroke-opacity="0.7" stroke-width="5"/>
<line x1="1290.5" y1="1338" x2="1290.5" y2="1316" stroke="#767382" stroke-opacity="0.7" stroke-width="5"/>
<line x1="1752.5" y1="1338" x2="1752.5" y2="1316" stroke="#767382" stroke-opacity="0.7" stroke-width="5"/>
<line x1="1864.5" y1="1226" x2="1864.5" y2="1204" stroke="#767382" stroke-opacity="0.7" stroke-width="5"/>
<line x1="2322.5" y1="1221" x2="2322.5" y2="1199" stroke="#767382" stroke-opacity="0.7" stroke-width="5"/>
<line x1="2437.5" y1="1111" x2="2437.5" y2="1089" stroke="#767382" stroke-opacity="0.7" stroke-width="5"/>
<line x1="1748.5" y1="658" x2="1748.5" y2="636" stroke="#767382" stroke-opacity="0.7" stroke-width="5"/>
<line x1="1754.5" y1="1791" x2="1754.5" y2="1769" stroke="#767382" stroke-opacity="0.7" stroke-width="5"/>
<line x1="1868.5" y1="1678" x2="1868.5" y2="1656" stroke="#767382" stroke-opacity="0.7" stroke-width="5"/>
<line x1="2505" y1="1389.5" x2="2488" y2="1389.5" stroke="#767382" stroke-opacity="0.7" stroke-width="5"/>
<line x1="2161" y1="1502.5" x2="2144" y2="1502.5" stroke="#767382" stroke-opacity="0.7" stroke-width="5"/>
<line x1="1817" y1="1502.5" x2="1800" y2="1502.5" stroke="#767382" stroke-opacity="0.7" stroke-width="5"/>
<line x1="1588" y1="1502.5" x2="1571" y2="1502.5" stroke="#767382" stroke-opacity="0.7" stroke-width="5"/>
<line x1="1471" y1="1388.5" x2="1454" y2="1388.5" stroke="#767382" stroke-opacity="0.7" stroke-width="5"/>
<line x1="1476" y1="1163.5" x2="1459" y2="1163.5" stroke="#767382" stroke-opacity="0.7" stroke-width="5"/>
<line x1="1356" y1="1049.5" x2="1339" y2="1049.5" stroke="#767382" stroke-opacity="0.7" stroke-width="5"/>
<line x1="1719.24" y1="1078.73" x2="1667.8" y2="1132.31" stroke="#767382" stroke-opacity="0.7" stroke-width="5"/>
<line x1="1786.82" y1="1188.28" x2="1837.82" y2="1242.28" stroke="#767382" stroke-opacity="0.7" stroke-width="5"/>
<line x1="2015.82" y1="1300.28" x2="2066.82" y2="1354.28" stroke="#767382" stroke-opacity="0.7" stroke-width="5"/>
<line x1="1556.82" y1="1415.28" x2="1607.82" y2="1469.28" stroke="#767382" stroke-opacity="0.7" stroke-width="5"/>
<line x1="2243.82" y1="1078.28" x2="2294.82" y2="1132.28" stroke="#767382" stroke-opacity="0.7" stroke-width="5"/>
<line x1="2473.82" y1="1301.28" x2="2524.82" y2="1355.28" stroke="#767382" stroke-opacity="0.7" stroke-width="5"/>
<line x1="1789.82" y1="1641.28" x2="1840.82" y2="1695.28" stroke="#767382" stroke-opacity="0.7" stroke-width="5"/>
<line x1="2013.82" y1="621.283" x2="2064.82" y2="675.283" stroke="#767382" stroke-opacity="0.7" stroke-width="5"/>
<line x1="2019.82" y1="1754.28" x2="2070.82" y2="1808.28" stroke="#767382" stroke-opacity="0.7" stroke-width="5"/>
<line x1="2010.82" y1="848.283" x2="2061.82" y2="902.283" stroke="#767382" stroke-opacity="0.7" stroke-width="5"/>
<line x1="2242.82" y1="848.283" x2="2293.82" y2="902.283" stroke="#767382" stroke-opacity="0.7" stroke-width="5"/>
<line x1="1669.82" y1="734.283" x2="1720.82" y2="788.283" stroke="#767382" stroke-opacity="0.7" stroke-width="5"/>
<line x1="1675.82" y1="1867.28" x2="1726.82" y2="1921.28" stroke="#767382" stroke-opacity="0.7" stroke-width="5"/>
</svg>
