<svg width="5075" height="1329" viewBox="0 0 5075 1329" fill="none" xmlns="http://www.w3.org/2000/svg">
<g filter="url(#filter0_d_143_679)">
<path d="M421.083 85.2727C421.083 92.3253 419.762 98.3658 417.12 103.394C414.499 108.401 410.919 112.237 406.381 114.9C401.864 117.563 396.74 118.895 391.008 118.895C385.277 118.895 380.142 117.563 375.603 114.9C371.086 112.215 367.507 108.369 364.865 103.362C362.244 98.3338 360.934 92.304 360.934 85.2727C360.934 78.2202 362.244 72.1903 364.865 67.1832C367.507 62.1548 371.086 58.3089 375.603 55.6456C380.142 52.9822 385.277 51.6506 391.008 51.6506C396.74 51.6506 401.864 52.9822 406.381 55.6456C410.919 58.3089 414.499 62.1548 417.12 67.1832C419.762 72.1903 421.083 78.2202 421.083 85.2727ZM409.162 85.2727C409.162 80.3082 408.384 76.1214 406.829 72.7124C405.294 69.282 403.164 66.6932 400.437 64.946C397.709 63.1776 394.566 62.2933 391.008 62.2933C387.45 62.2933 384.307 63.1776 381.58 64.946C378.853 66.6932 376.711 69.282 375.156 72.7124C373.622 76.1214 372.855 80.3082 372.855 85.2727C372.855 90.2372 373.622 94.4347 375.156 97.8651C376.711 101.274 378.853 103.863 381.58 105.631C384.307 107.379 387.45 108.252 391.008 108.252C394.566 108.252 397.709 107.379 400.437 105.631C403.164 103.863 405.294 101.274 406.829 97.8651C408.384 94.4347 409.162 90.2372 409.162 85.2727ZM427.435 132.254V108.476H431.334C432.378 107.666 433.252 106.569 433.955 105.184C434.658 103.778 435.233 102.126 435.681 100.23C436.149 98.3125 436.533 96.1712 436.831 93.8061C437.13 91.4197 437.396 88.8523 437.63 86.1037L439.036 68.9091H474.512V108.476H482.119V132.254H470.933V118H438.813V132.254H427.435ZM443.223 108.476H463.454V78.2415H449.072L448.305 86.1037C447.879 91.3026 447.314 95.7557 446.611 99.4631C445.908 103.17 444.779 106.175 443.223 108.476ZM501.91 102.339L521.566 68.9091H533.455V118H522.269V84.5376L502.677 118H490.756V68.9091H501.91V102.339ZM579.054 88.6605V98.1527H552.911V88.6605H579.054ZM556.49 68.9091V118H545.336V68.9091H556.49ZM586.629 68.9091V118H575.507V68.9091H586.629ZM620.658 118V68.9091H641.273C647.09 68.9091 651.681 70.0703 655.048 72.3928C658.435 74.7152 660.129 77.9538 660.129 82.1087C660.129 84.8572 659.171 87.1051 657.253 88.8523C655.357 90.5781 652.768 91.7393 649.487 92.3359C652.065 92.549 654.323 93.1989 656.262 94.2855C658.222 95.3722 659.756 96.7997 660.864 98.5682C661.972 100.337 662.526 102.371 662.526 104.673C662.526 107.379 661.813 109.733 660.385 111.736C658.979 113.717 656.923 115.262 654.217 116.37C651.532 117.457 648.272 118 644.437 118H620.658ZM631.493 108.891H644.437C646.568 108.891 648.24 108.391 649.455 107.389C650.669 106.366 651.276 104.982 651.276 103.234C651.276 101.21 650.669 99.6229 649.455 98.4723C648.24 97.3004 646.568 96.7145 644.437 96.7145H631.493V108.891ZM631.493 89.2358H641.497C643.073 89.2358 644.426 89.0121 645.555 88.5646C646.685 88.0959 647.548 87.446 648.144 86.6151C648.741 85.7628 649.039 84.7507 649.039 83.5788C649.039 81.8956 648.347 80.5746 646.962 79.6158C645.598 78.657 643.702 78.1776 641.273 78.1776H631.493V89.2358ZM679.905 84.8892H694.383C700.647 84.8892 705.494 86.4126 708.925 89.4595C712.355 92.5064 714.081 96.5014 714.102 101.445C714.081 104.662 713.293 107.517 711.737 110.01C710.203 112.503 707.966 114.463 705.025 115.891C702.106 117.297 698.559 118 694.383 118H672.074V68.9091H683.229V108.508H694.383C696.897 108.508 698.964 107.869 700.583 106.59C702.202 105.29 703.012 103.629 703.012 101.604C703.012 99.4737 702.202 97.7372 700.583 96.3949C698.964 95.0526 696.897 94.3814 694.383 94.3814H679.905V84.8892ZM720.207 118V68.9091H731.776V118H720.207ZM753.166 68.9091L763.073 87.0305L773.141 68.9091H785.381L770.584 93.4545L785.637 118H773.46L763.073 100.326L752.782 118H740.509L755.467 93.4545L740.893 68.9091H753.166ZM813.898 118.959C809.104 118.959 804.949 117.904 801.434 115.795C797.918 113.685 795.191 110.734 793.252 106.942C791.334 103.149 790.375 98.7173 790.375 93.6463C790.375 88.5753 791.334 84.1328 793.252 80.3189C795.191 76.505 797.918 73.5433 801.434 71.4339C804.949 69.3246 809.104 68.2699 813.898 68.2699C818.692 68.2699 822.847 69.3246 826.362 71.4339C829.878 73.5433 832.595 76.505 834.512 80.3189C836.451 84.1328 837.421 88.5753 837.421 93.6463C837.421 98.7173 836.451 103.149 834.512 106.942C832.595 110.734 829.878 113.685 826.362 115.795C822.847 117.904 818.692 118.959 813.898 118.959ZM813.962 109.69C816.561 109.69 818.735 108.977 820.482 107.549C822.229 106.1 823.529 104.161 824.381 101.732C825.255 99.3033 825.691 96.5973 825.691 93.6143C825.691 90.6101 825.255 87.8935 824.381 85.4645C823.529 83.0142 822.229 81.0646 820.482 79.6158C818.735 78.1669 816.561 77.4425 813.962 77.4425C811.299 77.4425 809.083 78.1669 807.314 79.6158C805.567 81.0646 804.257 83.0142 803.383 85.4645C802.531 87.8935 802.105 90.6101 802.105 93.6143C802.105 96.5973 802.531 99.3033 803.383 101.732C804.257 104.161 805.567 106.1 807.314 107.549C809.083 108.977 811.299 109.69 813.962 109.69ZM842.894 132.254V108.476H846.793C847.837 107.666 848.711 106.569 849.414 105.184C850.117 103.778 850.692 102.126 851.14 100.23C851.608 98.3125 851.992 96.1712 852.29 93.8061C852.589 91.4197 852.855 88.8523 853.089 86.1037L854.495 68.9091H889.971V108.476H897.578V132.254H886.392V118H854.272V132.254H842.894ZM858.682 108.476H878.913V78.2415H864.531L863.764 86.1037C863.338 91.3026 862.773 95.7557 862.07 99.4631C861.367 103.17 860.238 106.175 858.682 108.476ZM939.933 88.6605V98.1527H913.79V88.6605H939.933ZM917.369 68.9091V118H906.215V68.9091H917.369ZM947.508 68.9091V118H936.386V68.9091H947.508ZM980.627 118.959C975.832 118.959 971.678 117.904 968.162 115.795C964.646 113.685 961.919 110.734 959.98 106.942C958.063 103.149 957.104 98.7173 957.104 93.6463C957.104 88.5753 958.063 84.1328 959.98 80.3189C961.919 76.505 964.646 73.5433 968.162 71.4339C971.678 69.3246 975.832 68.2699 980.627 68.2699C985.421 68.2699 989.575 69.3246 993.091 71.4339C996.607 73.5433 999.323 76.505 1001.24 80.3189C1003.18 84.1328 1004.15 88.5753 1004.15 93.6463C1004.15 98.7173 1003.18 103.149 1001.24 106.942C999.323 110.734 996.607 113.685 993.091 115.795C989.575 117.904 985.421 118.959 980.627 118.959ZM980.69 109.69C983.29 109.69 985.463 108.977 987.21 107.549C988.957 106.1 990.257 104.161 991.109 101.732C991.983 99.3033 992.42 96.5973 992.42 93.6143C992.42 90.6101 991.983 87.8935 991.109 85.4645C990.257 83.0142 988.957 81.0646 987.21 79.6158C985.463 78.1669 983.29 77.4425 980.69 77.4425C978.027 77.4425 975.811 78.1669 974.043 79.6158C972.296 81.0646 970.985 83.0142 970.112 85.4645C969.259 87.8935 968.833 90.6101 968.833 93.6143C968.833 96.5973 969.259 99.3033 970.112 101.732C970.985 104.161 972.296 106.1 974.043 107.549C975.811 108.977 978.027 109.69 980.69 109.69ZM1025.12 102.339L1044.78 68.9091H1056.67V118H1045.48V84.5376L1025.89 118H1013.97V68.9091H1025.12V102.339ZM1041.61 52.0341H1050.28C1050.28 55.7628 1048.92 58.7883 1046.22 61.1108C1043.53 63.4119 1039.89 64.5625 1035.29 64.5625C1030.73 64.5625 1027.09 63.4119 1024.39 61.1108C1021.7 58.7883 1020.37 55.7628 1020.39 52.0341H1028.99C1028.99 53.5682 1029.46 54.9425 1030.4 56.157C1031.36 57.3501 1032.99 57.9467 1035.29 57.9467C1037.55 57.9467 1039.15 57.3501 1040.11 56.157C1041.09 54.9638 1041.59 53.5895 1041.61 52.0341ZM1124.59 88.6605V98.1527H1098.45V88.6605H1124.59ZM1102.03 68.9091V118H1090.87V68.9091H1102.03ZM1132.17 68.9091V118H1121.04V68.9091H1132.17ZM1165.6 118.959C1160.68 118.959 1156.43 117.936 1152.85 115.891C1149.29 113.824 1146.56 110.905 1144.64 107.134C1142.72 103.341 1141.76 98.8771 1141.76 93.7422C1141.76 88.6925 1142.72 84.2607 1144.64 80.4467C1146.58 76.6115 1149.28 73.6285 1152.76 71.4979C1156.23 69.3459 1160.31 68.2699 1165 68.2699C1168.02 68.2699 1170.88 68.7599 1173.56 69.7401C1176.27 70.6989 1178.65 72.1903 1180.72 74.2145C1182.81 76.2386 1184.45 78.8168 1185.64 81.9489C1186.84 85.0597 1187.43 88.767 1187.43 93.071V96.6186H1147.2V88.8203H1176.34C1176.32 86.6044 1175.84 84.6335 1174.9 82.9077C1173.97 81.1605 1172.66 79.7862 1170.97 78.7848C1169.31 77.7834 1167.37 77.2827 1165.16 77.2827C1162.79 77.2827 1160.71 77.858 1158.92 79.0085C1157.13 80.1378 1155.74 81.6293 1154.74 83.483C1153.76 85.3153 1153.26 87.3288 1153.24 89.5234V96.331C1153.24 99.1861 1153.76 101.636 1154.8 103.682C1155.85 105.706 1157.31 107.261 1159.18 108.348C1161.06 109.413 1163.25 109.946 1165.76 109.946C1167.45 109.946 1168.97 109.712 1170.33 109.243C1171.7 108.753 1172.88 108.039 1173.88 107.102C1174.88 106.164 1175.64 105.003 1176.15 103.618L1186.95 104.832C1186.27 107.687 1184.97 110.18 1183.05 112.311C1181.16 114.42 1178.73 116.061 1175.77 117.233C1172.81 118.384 1169.42 118.959 1165.6 118.959ZM1208.38 102.339L1228.03 68.9091H1239.92V118H1228.73V84.5376L1209.14 118H1197.22V68.9091H1208.38V102.339ZM1224.87 52.0341H1233.53C1233.53 55.7628 1232.17 58.7883 1229.47 61.1108C1226.78 63.4119 1223.14 64.5625 1218.54 64.5625C1213.98 64.5625 1210.35 63.4119 1207.64 61.1108C1204.96 58.7883 1203.62 55.7628 1203.64 52.0341H1212.24C1212.24 53.5682 1212.71 54.9425 1213.65 56.157C1214.61 57.3501 1216.24 57.9467 1218.54 57.9467C1220.8 57.9467 1222.41 57.3501 1223.36 56.157C1224.34 54.9638 1224.85 53.5895 1224.87 52.0341ZM1251.8 136.409V68.9091H1263.18V77.027H1263.85C1264.45 75.8338 1265.29 74.566 1266.37 73.2237C1267.46 71.8601 1268.93 70.6989 1270.79 69.7401C1272.64 68.7599 1275 68.2699 1277.88 68.2699C1281.67 68.2699 1285.09 69.2393 1288.14 71.1783C1291.21 73.0959 1293.64 75.9403 1295.43 79.7116C1297.24 83.4616 1298.14 88.0639 1298.14 93.5185C1298.14 98.9091 1297.26 103.49 1295.49 107.261C1293.72 111.033 1291.31 113.909 1288.27 115.891C1285.22 117.872 1281.77 118.863 1277.91 118.863C1275.1 118.863 1272.77 118.394 1270.91 117.457C1269.06 116.519 1267.57 115.39 1266.44 114.069C1265.33 112.727 1264.47 111.459 1263.85 110.266H1263.37V136.409H1251.8ZM1263.15 93.4545C1263.15 96.6293 1263.59 99.4098 1264.49 101.796C1265.41 104.183 1266.72 106.047 1268.42 107.389C1270.15 108.71 1272.23 109.371 1274.68 109.371C1277.24 109.371 1279.38 108.689 1281.11 107.325C1282.83 105.94 1284.13 104.055 1285.01 101.668C1285.9 99.2607 1286.35 96.5227 1286.35 93.4545C1286.35 90.4077 1285.91 87.7017 1285.04 85.3366C1284.17 82.9716 1282.87 81.1179 1281.14 79.7756C1279.41 78.4332 1277.26 77.7621 1274.68 77.7621C1272.21 77.7621 1270.11 78.4119 1268.39 79.7116C1266.66 81.0114 1265.35 82.8331 1264.46 85.1768C1263.58 87.5206 1263.15 90.2798 1263.15 93.4545ZM1329.46 118.959C1324.67 118.959 1320.52 117.904 1317 115.795C1313.48 113.685 1310.76 110.734 1308.82 106.942C1306.9 103.149 1305.94 98.7173 1305.94 93.6463C1305.94 88.5753 1306.9 84.1328 1308.82 80.3189C1310.76 76.505 1313.48 73.5433 1317 71.4339C1320.52 69.3246 1324.67 68.2699 1329.46 68.2699C1334.26 68.2699 1338.41 69.3246 1341.93 71.4339C1345.44 73.5433 1348.16 76.505 1350.08 80.3189C1352.02 84.1328 1352.99 88.5753 1352.99 93.6463C1352.99 98.7173 1352.02 103.149 1350.08 106.942C1348.16 110.734 1345.44 113.685 1341.93 115.795C1338.41 117.904 1334.26 118.959 1329.46 118.959ZM1329.53 109.69C1332.13 109.69 1334.3 108.977 1336.05 107.549C1337.8 106.1 1339.1 104.161 1339.95 101.732C1340.82 99.3033 1341.26 96.5973 1341.26 93.6143C1341.26 90.6101 1340.82 87.8935 1339.95 85.4645C1339.1 83.0142 1337.8 81.0646 1336.05 79.6158C1334.3 78.1669 1332.13 77.4425 1329.53 77.4425C1326.86 77.4425 1324.65 78.1669 1322.88 79.6158C1321.13 81.0646 1319.82 83.0142 1318.95 85.4645C1318.1 87.8935 1317.67 90.6101 1317.67 93.6143C1317.67 96.5973 1318.1 99.3033 1318.95 101.732C1319.82 104.161 1321.13 106.1 1322.88 107.549C1324.65 108.977 1326.86 109.69 1329.53 109.69ZM1396.52 88.6605V98.1527H1370.38V88.6605H1396.52ZM1373.96 68.9091V118H1362.81V68.9091H1373.96ZM1404.1 68.9091V118H1392.98V68.9091H1404.1Z" fill="white"/>
<path d="M1884.73 118.895C1880.12 118.895 1876.03 118.107 1872.45 116.53C1868.89 114.953 1866.08 112.759 1864.02 109.946C1861.95 107.134 1860.85 103.884 1860.72 100.198H1872.74C1872.85 101.967 1873.43 103.511 1874.5 104.832C1875.56 106.132 1876.98 107.144 1878.75 107.869C1880.52 108.593 1882.5 108.955 1884.69 108.955C1887.04 108.955 1889.11 108.55 1890.93 107.741C1892.74 106.91 1894.15 105.759 1895.18 104.289C1896.2 102.819 1896.7 101.125 1896.68 99.2074C1896.7 97.2259 1896.19 95.4787 1895.14 93.9659C1894.1 92.4531 1892.59 91.2706 1890.61 90.4183C1888.65 89.5661 1886.28 89.1399 1883.51 89.1399H1877.73V79.9993H1883.51C1885.79 79.9993 1887.78 79.6051 1889.49 78.8168C1891.21 78.0284 1892.57 76.9205 1893.55 75.4929C1894.53 74.044 1895.01 72.3714 1894.98 70.4751C1895.01 68.6214 1894.59 67.0128 1893.74 65.6491C1892.91 64.2642 1891.72 63.1882 1890.19 62.4212C1888.68 61.6541 1886.9 61.2706 1884.85 61.2706C1882.85 61.2706 1881 61.6328 1879.29 62.3572C1877.59 63.0817 1876.21 64.1151 1875.17 65.4574C1874.13 66.7784 1873.57 68.3551 1873.51 70.1875H1862.1C1862.18 66.5227 1863.24 63.3054 1865.26 60.5355C1867.31 57.7443 1870.03 55.571 1873.44 54.0156C1876.85 52.4389 1880.68 51.6506 1884.92 51.6506C1889.29 51.6506 1893.08 52.4709 1896.3 54.1115C1899.53 55.7308 1902.04 57.9148 1903.81 60.6634C1905.57 63.4119 1906.46 66.4482 1906.46 69.772C1906.48 73.4581 1905.39 76.5476 1903.2 79.0405C1901.03 81.5334 1898.17 83.1634 1894.63 83.9304V84.4418C1899.24 85.081 1902.76 86.7855 1905.21 89.5554C1907.68 92.304 1908.91 95.7237 1908.89 99.8146C1908.89 103.479 1907.84 106.761 1905.76 109.658C1903.69 112.535 1900.83 114.793 1897.19 116.434C1893.57 118.075 1889.41 118.895 1884.73 118.895ZM1942.31 118V68.9091H1962.92C1968.74 68.9091 1973.33 70.0703 1976.7 72.3928C1980.09 74.7152 1981.78 77.9538 1981.78 82.1087C1981.78 84.8572 1980.82 87.1051 1978.9 88.8523C1977.01 90.5781 1974.42 91.7393 1971.14 92.3359C1973.72 92.549 1975.97 93.1989 1977.91 94.2855C1979.87 95.3722 1981.41 96.7997 1982.52 98.5682C1983.62 100.337 1984.18 102.371 1984.18 104.673C1984.18 107.379 1983.46 109.733 1982.04 111.736C1980.63 113.717 1978.57 115.262 1975.87 116.37C1973.18 117.457 1969.92 118 1966.09 118H1942.31ZM1953.14 108.891H1966.09C1968.22 108.891 1969.89 108.391 1971.11 107.389C1972.32 106.366 1972.93 104.982 1972.93 103.234C1972.93 101.21 1972.32 99.6229 1971.11 98.4723C1969.89 97.3004 1968.22 96.7145 1966.09 96.7145H1953.14V108.891ZM1953.14 89.2358H1963.15C1964.72 89.2358 1966.08 89.0121 1967.21 88.5646C1968.34 88.0959 1969.2 87.446 1969.8 86.6151C1970.39 85.7628 1970.69 84.7507 1970.69 83.5788C1970.69 81.8956 1970 80.5746 1968.61 79.6158C1967.25 78.657 1965.35 78.1776 1962.92 78.1776H1953.14V89.2358ZM2003.19 68.9091L2013.09 87.0305L2023.16 68.9091H2035.4L2020.6 93.4545L2035.66 118H2023.48L2013.09 100.326L2002.8 118H1990.53L2005.49 93.4545L1990.91 68.9091H2003.19ZM2063.92 118.959C2059.12 118.959 2054.97 117.904 2051.45 115.795C2047.94 113.685 2045.21 110.734 2043.27 106.942C2041.35 103.149 2040.4 98.7173 2040.4 93.6463C2040.4 88.5753 2041.35 84.1328 2043.27 80.3189C2045.21 76.505 2047.94 73.5433 2051.45 71.4339C2054.97 69.3246 2059.12 68.2699 2063.92 68.2699C2068.71 68.2699 2072.87 69.3246 2076.38 71.4339C2079.9 73.5433 2082.62 76.505 2084.53 80.3189C2086.47 84.1328 2087.44 88.5753 2087.44 93.6463C2087.44 98.7173 2086.47 103.149 2084.53 106.942C2082.62 110.734 2079.9 113.685 2076.38 115.795C2072.87 117.904 2068.71 118.959 2063.92 118.959ZM2063.98 109.69C2066.58 109.69 2068.76 108.977 2070.5 107.549C2072.25 106.1 2073.55 104.161 2074.4 101.732C2075.28 99.3033 2075.71 96.5973 2075.71 93.6143C2075.71 90.6101 2075.28 87.8935 2074.4 85.4645C2073.55 83.0142 2072.25 81.0646 2070.5 79.6158C2068.76 78.1669 2066.58 77.4425 2063.98 77.4425C2061.32 77.4425 2059.1 78.1669 2057.33 79.6158C2055.59 81.0646 2054.28 83.0142 2053.4 85.4645C2052.55 87.8935 2052.13 90.6101 2052.13 93.6143C2052.13 96.5973 2052.55 99.3033 2053.4 101.732C2054.28 104.161 2055.59 106.1 2057.33 107.549C2059.1 108.977 2061.32 109.69 2063.98 109.69ZM2092.91 132.254V108.476H2096.81C2097.86 107.666 2098.73 106.569 2099.43 105.184C2100.14 103.778 2100.71 102.126 2101.16 100.23C2101.63 98.3125 2102.01 96.1712 2102.31 93.8061C2102.61 91.4197 2102.88 88.8523 2103.11 86.1037L2104.52 68.9091H2139.99V108.476H2147.6V132.254H2136.41V118H2104.29V132.254H2092.91ZM2108.7 108.476H2128.93V78.2415H2114.55L2113.78 86.1037C2113.36 91.3026 2112.79 95.7557 2112.09 99.4631C2111.39 103.17 2110.26 106.175 2108.7 108.476ZM2189.95 88.6605V98.1527H2163.81V88.6605H2189.95ZM2167.39 68.9091V118H2156.24V68.9091H2167.39ZM2197.53 68.9091V118H2186.41V68.9091H2197.53ZM2217.06 84.8892H2231.54C2237.81 84.8892 2242.65 86.4126 2246.08 89.4595C2249.51 92.5064 2251.24 96.5014 2251.26 101.445C2251.24 104.662 2250.45 107.517 2248.9 110.01C2247.36 112.503 2245.13 114.463 2242.18 115.891C2239.27 117.297 2235.72 118 2231.54 118H2209.23V68.9091H2220.39V108.508H2231.54C2234.06 108.508 2236.12 107.869 2237.74 106.59C2239.36 105.29 2240.17 103.629 2240.17 101.604C2240.17 99.4737 2239.36 97.7372 2237.74 96.3949C2236.12 95.0526 2234.06 94.3814 2231.54 94.3814H2217.06V84.8892ZM2257.37 118V68.9091H2268.94V118H2257.37ZM2290.32 68.9091L2300.23 87.0305L2310.3 68.9091H2322.54L2307.74 93.4545L2322.8 118H2310.62L2300.23 100.326L2289.94 118H2277.67L2292.63 93.4545L2278.05 68.9091H2290.32ZM2380.31 52.5455V118H2368.45V64.0831H2368.07L2352.76 73.8629V62.9964L2369.03 52.5455H2380.31ZM2419.38 118V68.9091H2439.99C2445.81 68.9091 2450.4 70.0703 2453.77 72.3928C2457.16 74.7152 2458.85 77.9538 2458.85 82.1087C2458.85 84.8572 2457.89 87.1051 2455.97 88.8523C2454.08 90.5781 2451.49 91.7393 2448.21 92.3359C2450.79 92.549 2453.04 93.1989 2454.98 94.2855C2456.94 95.3722 2458.48 96.7997 2459.59 98.5682C2460.69 100.337 2461.25 102.371 2461.25 104.673C2461.25 107.379 2460.53 109.733 2459.11 111.736C2457.7 113.717 2455.64 115.262 2452.94 116.37C2450.25 117.457 2446.99 118 2443.16 118H2419.38ZM2430.21 108.891H2443.16C2445.29 108.891 2446.96 108.391 2448.18 107.389C2449.39 106.366 2450 104.982 2450 103.234C2450 101.21 2449.39 99.6229 2448.18 98.4723C2446.96 97.3004 2445.29 96.7145 2443.16 96.7145H2430.21V108.891ZM2430.21 89.2358H2440.22C2441.79 89.2358 2443.15 89.0121 2444.28 88.5646C2445.41 88.0959 2446.27 87.446 2446.87 86.6151C2447.46 85.7628 2447.76 84.7507 2447.76 83.5788C2447.76 81.8956 2447.07 80.5746 2445.68 79.6158C2444.32 78.657 2442.42 78.1776 2439.99 78.1776H2430.21V89.2358ZM2478.63 84.8892H2493.1C2499.37 84.8892 2504.22 86.4126 2507.65 89.4595C2511.08 92.5064 2512.8 96.5014 2512.82 101.445C2512.8 104.662 2512.01 107.517 2510.46 110.01C2508.92 112.503 2506.69 114.463 2503.75 115.891C2500.83 117.297 2497.28 118 2493.1 118H2470.8V68.9091H2481.95V108.508H2493.1C2495.62 108.508 2497.69 107.869 2499.3 106.59C2500.92 105.29 2501.73 103.629 2501.73 101.604C2501.73 99.4737 2500.92 97.7372 2499.3 96.3949C2497.69 95.0526 2495.62 94.3814 2493.1 94.3814H2478.63V84.8892ZM2518.93 118V68.9091H2530.5V118H2518.93ZM2551.89 68.9091L2561.79 87.0305L2571.86 68.9091H2584.1L2569.31 93.4545L2584.36 118H2572.18L2561.79 100.326L2551.5 118H2539.23L2554.19 93.4545L2539.61 68.9091H2551.89ZM2612.62 118.959C2607.83 118.959 2603.67 117.904 2600.16 115.795C2596.64 113.685 2593.91 110.734 2591.97 106.942C2590.06 103.149 2589.1 98.7173 2589.1 93.6463C2589.1 88.5753 2590.06 84.1328 2591.97 80.3189C2593.91 76.505 2596.64 73.5433 2600.16 71.4339C2603.67 69.3246 2607.83 68.2699 2612.62 68.2699C2617.41 68.2699 2621.57 69.3246 2625.08 71.4339C2628.6 73.5433 2631.32 76.505 2633.23 80.3189C2635.17 84.1328 2636.14 88.5753 2636.14 93.6463C2636.14 98.7173 2635.17 103.149 2633.23 106.942C2631.32 110.734 2628.6 113.685 2625.08 115.795C2621.57 117.904 2617.41 118.959 2612.62 118.959ZM2612.68 109.69C2615.28 109.69 2617.46 108.977 2619.2 107.549C2620.95 106.1 2622.25 104.161 2623.1 101.732C2623.98 99.3033 2624.41 96.5973 2624.41 93.6143C2624.41 90.6101 2623.98 87.8935 2623.1 85.4645C2622.25 83.0142 2620.95 81.0646 2619.2 79.6158C2617.46 78.1669 2615.28 77.4425 2612.68 77.4425C2610.02 77.4425 2607.8 78.1669 2606.04 79.6158C2604.29 81.0646 2602.98 83.0142 2602.1 85.4645C2601.25 87.8935 2600.83 90.6101 2600.83 93.6143C2600.83 96.5973 2601.25 99.3033 2602.1 101.732C2602.98 104.161 2604.29 106.1 2606.04 107.549C2607.8 108.977 2610.02 109.69 2612.68 109.69ZM2641.62 132.254V108.476H2645.51C2646.56 107.666 2647.43 106.569 2648.14 105.184C2648.84 103.778 2649.41 102.126 2649.86 100.23C2650.33 98.3125 2650.71 96.1712 2651.01 93.8061C2651.31 91.4197 2651.58 88.8523 2651.81 86.1037L2653.22 68.9091H2688.69V108.476H2696.3V132.254H2685.11V118H2652.99V132.254H2641.62ZM2657.4 108.476H2677.63V78.2415H2663.25L2662.49 86.1037C2662.06 91.3026 2661.49 95.7557 2660.79 99.4631C2660.09 103.17 2658.96 106.175 2657.4 108.476ZM2738.65 88.6605V98.1527H2712.51V88.6605H2738.65ZM2716.09 68.9091V118H2704.94V68.9091H2716.09ZM2746.23 68.9091V118H2735.11V68.9091H2746.23ZM2779.35 118.959C2774.55 118.959 2770.4 117.904 2766.88 115.795C2763.37 113.685 2760.64 110.734 2758.7 106.942C2756.78 103.149 2755.83 98.7173 2755.83 93.6463C2755.83 88.5753 2756.78 84.1328 2758.7 80.3189C2760.64 76.505 2763.37 73.5433 2766.88 71.4339C2770.4 69.3246 2774.55 68.2699 2779.35 68.2699C2784.14 68.2699 2788.3 69.3246 2791.81 71.4339C2795.33 73.5433 2798.04 76.505 2799.96 80.3189C2801.9 84.1328 2802.87 88.5753 2802.87 93.6463C2802.87 98.7173 2801.9 103.149 2799.96 106.942C2798.04 110.734 2795.33 113.685 2791.81 115.795C2788.3 117.904 2784.14 118.959 2779.35 118.959ZM2779.41 109.69C2782.01 109.69 2784.18 108.977 2785.93 107.549C2787.68 106.1 2788.98 104.161 2789.83 101.732C2790.7 99.3033 2791.14 96.5973 2791.14 93.6143C2791.14 90.6101 2790.7 87.8935 2789.83 85.4645C2788.98 83.0142 2787.68 81.0646 2785.93 79.6158C2784.18 78.1669 2782.01 77.4425 2779.41 77.4425C2776.75 77.4425 2774.53 78.1669 2772.76 79.6158C2771.02 81.0646 2769.71 83.0142 2768.83 85.4645C2767.98 87.8935 2767.55 90.6101 2767.55 93.6143C2767.55 96.5973 2767.98 99.3033 2768.83 101.732C2769.71 104.161 2771.02 106.1 2772.76 107.549C2774.53 108.977 2776.75 109.69 2779.41 109.69ZM2823.84 102.339L2843.5 68.9091H2855.39V118H2844.2V84.5376L2824.61 118H2812.69V68.9091H2823.84V102.339ZM2840.34 52.0341H2849C2849 55.7628 2847.64 58.7883 2844.94 61.1108C2842.25 63.4119 2838.61 64.5625 2834.01 64.5625C2829.45 64.5625 2825.82 63.4119 2823.11 61.1108C2820.43 58.7883 2819.09 55.7628 2819.11 52.0341H2827.71C2827.71 53.5682 2828.18 54.9425 2829.12 56.157C2830.08 57.3501 2831.71 57.9467 2834.01 57.9467C2836.27 57.9467 2837.88 57.3501 2838.83 56.157C2839.81 54.9638 2840.31 53.5895 2840.34 52.0341ZM2923.31 88.6605V98.1527H2897.17V88.6605H2923.31ZM2900.75 68.9091V118H2889.59V68.9091H2900.75ZM2930.89 68.9091V118H2919.77V68.9091H2930.89ZM2964.33 118.959C2959.4 118.959 2955.15 117.936 2951.57 115.891C2948.02 113.824 2945.28 110.905 2943.36 107.134C2941.44 103.341 2940.48 98.8771 2940.48 93.7422C2940.48 88.6925 2941.44 84.2607 2943.36 80.4467C2945.3 76.6115 2948 73.6285 2951.48 71.4979C2954.95 69.3459 2959.03 68.2699 2963.72 68.2699C2966.74 68.2699 2969.6 68.7599 2972.28 69.7401C2974.99 70.6989 2977.38 72.1903 2979.44 74.2145C2981.53 76.2386 2983.17 78.8168 2984.37 81.9489C2985.56 85.0597 2986.15 88.767 2986.15 93.071V96.6186H2945.92V88.8203H2975.06C2975.04 86.6044 2974.56 84.6335 2973.63 82.9077C2972.69 81.1605 2971.38 79.7862 2969.7 78.7848C2968.03 77.7834 2966.09 77.2827 2963.88 77.2827C2961.51 77.2827 2959.44 77.858 2957.65 79.0085C2955.86 80.1378 2954.46 81.6293 2953.46 83.483C2952.48 85.3153 2951.98 87.3288 2951.96 89.5234V96.331C2951.96 99.1861 2952.48 101.636 2953.52 103.682C2954.57 105.706 2956.03 107.261 2957.9 108.348C2959.78 109.413 2961.97 109.946 2964.49 109.946C2966.17 109.946 2967.69 109.712 2969.06 109.243C2970.42 108.753 2971.6 108.039 2972.6 107.102C2973.61 106.164 2974.36 105.003 2974.87 103.618L2985.68 104.832C2984.99 107.687 2983.69 110.18 2981.78 112.311C2979.88 114.42 2977.45 116.061 2974.49 117.233C2971.53 118.384 2968.14 118.959 2964.33 118.959ZM3007.1 102.339L3026.75 68.9091H3038.64V118H3027.46V84.5376L3007.86 118H2995.94V68.9091H3007.1V102.339ZM3023.59 52.0341H3032.25C3032.25 55.7628 3030.9 58.7883 3028.19 61.1108C3025.51 63.4119 3021.86 64.5625 3017.26 64.5625C3012.7 64.5625 3009.07 63.4119 3006.36 61.1108C3003.68 58.7883 3002.35 55.7628 3002.37 52.0341H3010.96C3010.96 53.5682 3011.43 54.9425 3012.37 56.157C3013.33 57.3501 3014.96 57.9467 3017.26 57.9467C3019.52 57.9467 3021.13 57.3501 3022.09 56.157C3023.07 54.9638 3023.57 53.5895 3023.59 52.0341ZM3050.52 136.409V68.9091H3061.9V77.027H3062.57C3063.17 75.8338 3064.01 74.566 3065.1 73.2237C3066.18 71.8601 3067.65 70.6989 3069.51 69.7401C3071.36 68.7599 3073.73 68.2699 3076.6 68.2699C3080.39 68.2699 3083.81 69.2393 3086.86 71.1783C3089.93 73.0959 3092.36 75.9403 3094.15 79.7116C3095.96 83.4616 3096.87 88.0639 3096.87 93.5185C3096.87 98.9091 3095.98 103.49 3094.21 107.261C3092.44 111.033 3090.04 113.909 3086.99 115.891C3083.94 117.872 3080.49 118.863 3076.63 118.863C3073.82 118.863 3071.49 118.394 3069.63 117.457C3067.78 116.519 3066.29 115.39 3065.16 114.069C3064.05 112.727 3063.19 111.459 3062.57 110.266H3062.09V136.409H3050.52ZM3061.87 93.4545C3061.87 96.6293 3062.32 99.4098 3063.21 101.796C3064.13 104.183 3065.44 106.047 3067.14 107.389C3068.87 108.71 3070.96 109.371 3073.41 109.371C3075.96 109.371 3078.1 108.689 3079.83 107.325C3081.56 105.94 3082.86 104.055 3083.73 101.668C3084.62 99.2607 3085.07 96.5227 3085.07 93.4545C3085.07 90.4077 3084.63 87.7017 3083.76 85.3366C3082.89 82.9716 3081.59 81.1179 3079.86 79.7756C3078.14 78.4332 3075.98 77.7621 3073.41 77.7621C3070.93 77.7621 3068.84 78.4119 3067.11 79.7116C3065.38 81.0114 3064.07 82.8331 3063.18 85.1768C3062.31 87.5206 3061.87 90.2798 3061.87 93.4545ZM3128.19 118.959C3123.39 118.959 3119.24 117.904 3115.72 115.795C3112.21 113.685 3109.48 110.734 3107.54 106.942C3105.62 103.149 3104.66 98.7173 3104.66 93.6463C3104.66 88.5753 3105.62 84.1328 3107.54 80.3189C3109.48 76.505 3112.21 73.5433 3115.72 71.4339C3119.24 69.3246 3123.39 68.2699 3128.19 68.2699C3132.98 68.2699 3137.13 69.3246 3140.65 71.4339C3144.17 73.5433 3146.88 76.505 3148.8 80.3189C3150.74 84.1328 3151.71 88.5753 3151.71 93.6463C3151.71 98.7173 3150.74 103.149 3148.8 106.942C3146.88 110.734 3144.17 113.685 3140.65 115.795C3137.13 117.904 3132.98 118.959 3128.19 118.959ZM3128.25 109.69C3130.85 109.69 3133.02 108.977 3134.77 107.549C3136.52 106.1 3137.82 104.161 3138.67 101.732C3139.54 99.3033 3139.98 96.5973 3139.98 93.6143C3139.98 90.6101 3139.54 87.8935 3138.67 85.4645C3137.82 83.0142 3136.52 81.0646 3134.77 79.6158C3133.02 78.1669 3130.85 77.4425 3128.25 77.4425C3125.59 77.4425 3123.37 78.1669 3121.6 79.6158C3119.86 81.0646 3118.54 83.0142 3117.67 85.4645C3116.82 87.8935 3116.39 90.6101 3116.39 93.6143C3116.39 96.5973 3116.82 99.3033 3117.67 101.732C3118.54 104.161 3119.86 106.1 3121.6 107.549C3123.37 108.977 3125.59 109.69 3128.25 109.69ZM3195.25 88.6605V98.1527H3169.1V88.6605H3195.25ZM3172.68 68.9091V118H3161.53V68.9091H3172.68ZM3202.82 68.9091V118H3191.7V68.9091H3202.82Z" fill="white"/>
<path d="M3498.03 105.855V96.4268L3525.81 52.5455H3533.67V65.9688H3528.88L3510.18 95.5959V96.1072H3548.95V105.855H3498.03ZM3529.26 118V102.979L3529.39 98.7599V52.5455H3540.57V118H3529.26ZM3581.61 118V68.9091H3602.22C3608.04 68.9091 3612.63 70.0703 3616 72.3928C3619.39 74.7152 3621.08 77.9538 3621.08 82.1087C3621.08 84.8572 3620.12 87.1051 3618.21 88.8523C3616.31 90.5781 3613.72 91.7393 3610.44 92.3359C3613.02 92.549 3615.28 93.1989 3617.21 94.2855C3619.17 95.3722 3620.71 96.7997 3621.82 98.5682C3622.92 100.337 3623.48 102.371 3623.48 104.673C3623.48 107.379 3622.76 109.733 3621.34 111.736C3619.93 113.717 3617.87 115.262 3615.17 116.37C3612.48 117.457 3609.22 118 3605.39 118H3581.61ZM3592.45 108.891H3605.39C3607.52 108.891 3609.19 108.391 3610.41 107.389C3611.62 106.366 3612.23 104.982 3612.23 103.234C3612.23 101.21 3611.62 99.6229 3610.41 98.4723C3609.19 97.3004 3607.52 96.7145 3605.39 96.7145H3592.45V108.891ZM3592.45 89.2358H3602.45C3604.03 89.2358 3605.38 89.0121 3606.51 88.5646C3607.64 88.0959 3608.5 87.446 3609.1 86.6151C3609.69 85.7628 3609.99 84.7507 3609.99 83.5788C3609.99 81.8956 3609.3 80.5746 3607.91 79.6158C3606.55 78.657 3604.65 78.1776 3602.22 78.1776H3592.45V89.2358ZM3642.49 68.9091L3652.39 87.0305L3662.46 68.9091H3674.7L3659.91 93.4545L3674.96 118H3662.78L3652.39 100.326L3642.1 118H3629.83L3644.79 93.4545L3630.21 68.9091H3642.49ZM3703.22 118.959C3698.43 118.959 3694.27 117.904 3690.75 115.795C3687.24 113.685 3684.51 110.734 3682.57 106.942C3680.66 103.149 3679.7 98.7173 3679.7 93.6463C3679.7 88.5753 3680.66 84.1328 3682.57 80.3189C3684.51 76.505 3687.24 73.5433 3690.75 71.4339C3694.27 69.3246 3698.43 68.2699 3703.22 68.2699C3708.01 68.2699 3712.17 69.3246 3715.68 71.4339C3719.2 73.5433 3721.92 76.505 3723.83 80.3189C3725.77 84.1328 3726.74 88.5753 3726.74 93.6463C3726.74 98.7173 3725.77 103.149 3723.83 106.942C3721.92 110.734 3719.2 113.685 3715.68 115.795C3712.17 117.904 3708.01 118.959 3703.22 118.959ZM3703.28 109.69C3705.88 109.69 3708.06 108.977 3709.8 107.549C3711.55 106.1 3712.85 104.161 3713.7 101.732C3714.58 99.3033 3715.01 96.5973 3715.01 93.6143C3715.01 90.6101 3714.58 87.8935 3713.7 85.4645C3712.85 83.0142 3711.55 81.0646 3709.8 79.6158C3708.06 78.1669 3705.88 77.4425 3703.28 77.4425C3700.62 77.4425 3698.4 78.1669 3696.64 79.6158C3694.89 81.0646 3693.58 83.0142 3692.7 85.4645C3691.85 87.8935 3691.43 90.6101 3691.43 93.6143C3691.43 96.5973 3691.85 99.3033 3692.7 101.732C3693.58 104.161 3694.89 106.1 3696.64 107.549C3698.4 108.977 3700.62 109.69 3703.28 109.69ZM3732.22 132.254V108.476H3736.11C3737.16 107.666 3738.03 106.569 3738.74 105.184C3739.44 103.778 3740.01 102.126 3740.46 100.23C3740.93 98.3125 3741.31 96.1712 3741.61 93.8061C3741.91 91.4197 3742.18 88.8523 3742.41 86.1037L3743.82 68.9091H3779.29V108.476H3786.9V132.254H3775.71V118H3743.59V132.254H3732.22ZM3748 108.476H3768.23V78.2415H3753.85L3753.09 86.1037C3752.66 91.3026 3752.09 95.7557 3751.39 99.4631C3750.69 103.17 3749.56 106.175 3748 108.476ZM3829.25 88.6605V98.1527H3803.11V88.6605H3829.25ZM3806.69 68.9091V118H3795.54V68.9091H3806.69ZM3836.83 68.9091V118H3825.71V68.9091H3836.83ZM3856.36 84.8892H3870.84C3877.11 84.8892 3881.95 86.4126 3885.38 89.4595C3888.81 92.5064 3890.54 96.5014 3890.56 101.445C3890.54 104.662 3889.75 107.517 3888.2 110.01C3886.66 112.503 3884.43 114.463 3881.49 115.891C3878.57 117.297 3875.02 118 3870.84 118H3848.53V68.9091H3859.69V108.508H3870.84C3873.36 108.508 3875.42 107.869 3877.04 106.59C3878.66 105.29 3879.47 103.629 3879.47 101.604C3879.47 99.4737 3878.66 97.7372 3877.04 96.3949C3875.42 95.0526 3873.36 94.3814 3870.84 94.3814H3856.36V84.8892ZM3896.67 118V68.9091H3908.24V118H3896.67ZM3929.63 68.9091L3939.53 87.0305L3949.6 68.9091H3961.84L3947.04 93.4545L3962.1 118H3949.92L3939.53 100.326L3929.24 118H3916.97L3931.93 93.4545L3917.35 68.9091H3929.63ZM4016.96 118.895C4013.82 118.874 4010.77 118.33 4007.78 117.265C4004.8 116.178 4002.12 114.42 3999.73 111.991C3997.34 109.541 3995.45 106.292 3994.04 102.244C3992.64 98.174 3991.94 93.1349 3991.96 87.1264C3991.96 81.5227 3992.56 76.5263 3993.75 72.1371C3994.95 67.7479 3996.66 64.0405 3998.9 61.0149C4001.14 57.968 4003.83 55.6456 4006.99 54.0476C4010.16 52.4496 4013.71 51.6506 4017.63 51.6506C4021.74 51.6506 4025.38 52.4602 4028.56 54.0795C4031.75 55.6989 4034.33 57.9148 4036.29 60.7273C4038.25 63.5185 4039.47 66.6719 4039.94 70.1875H4028.27C4027.67 67.6733 4026.45 65.6705 4024.6 64.179C4022.76 62.6662 4020.44 61.9098 4017.63 61.9098C4013.09 61.9098 4009.6 63.8807 4007.15 67.8224C4004.72 71.7642 4003.49 77.1761 4003.47 84.0582H4003.92C4004.96 82.1832 4006.31 80.5746 4007.98 79.2322C4009.64 77.8899 4011.51 76.8565 4013.6 76.1321C4015.71 75.3864 4017.94 75.0135 4020.28 75.0135C4024.12 75.0135 4027.56 75.9297 4030.6 77.7621C4033.67 79.5945 4036.1 82.1193 4037.89 85.3366C4039.68 88.5327 4040.56 92.1974 4040.54 96.331C4040.56 100.635 4039.58 104.502 4037.6 107.933C4035.62 111.342 4032.86 114.026 4029.33 115.987C4025.79 117.947 4021.67 118.916 4016.96 118.895ZM4016.89 109.307C4019.22 109.307 4021.29 108.742 4023.13 107.613C4024.96 106.484 4026.41 104.96 4027.47 103.043C4028.54 101.125 4029.06 98.973 4029.04 96.5866C4029.06 94.2429 4028.55 92.1229 4027.5 90.2266C4026.48 88.3303 4025.06 86.8281 4023.25 85.7202C4021.44 84.6122 4019.38 84.0582 4017.05 84.0582C4015.33 84.0582 4013.72 84.3885 4012.23 85.049C4010.74 85.7095 4009.44 86.6257 4008.33 87.7976C4007.22 88.9482 4006.35 90.2905 4005.71 91.8246C4005.09 93.3374 4004.77 94.9567 4004.75 96.6825C4004.77 98.9624 4005.3 101.061 4006.35 102.979C4007.39 104.896 4008.83 106.43 4010.66 107.581C4012.49 108.732 4014.57 109.307 4016.89 109.307ZM4073.8 118V68.9091H4094.41C4100.23 68.9091 4104.82 70.0703 4108.19 72.3928C4111.58 74.7152 4113.27 77.9538 4113.27 82.1087C4113.27 84.8572 4112.31 87.1051 4110.39 88.8523C4108.5 90.5781 4105.91 91.7393 4102.63 92.3359C4105.2 92.549 4107.46 93.1989 4109.4 94.2855C4111.36 95.3722 4112.9 96.7997 4114 98.5682C4115.11 100.337 4115.67 102.371 4115.67 104.673C4115.67 107.379 4114.95 109.733 4113.52 111.736C4112.12 113.717 4110.06 115.262 4107.36 116.37C4104.67 117.457 4101.41 118 4097.58 118H4073.8ZM4084.63 108.891H4097.58C4099.71 108.891 4101.38 108.391 4102.59 107.389C4103.81 106.366 4104.42 104.982 4104.42 103.234C4104.42 101.21 4103.81 99.6229 4102.59 98.4723C4101.38 97.3004 4099.71 96.7145 4097.58 96.7145H4084.63V108.891ZM4084.63 89.2358H4094.64C4096.21 89.2358 4097.57 89.0121 4098.7 88.5646C4099.82 88.0959 4100.69 87.446 4101.28 86.6151C4101.88 85.7628 4102.18 84.7507 4102.18 83.5788C4102.18 81.8956 4101.49 80.5746 4100.1 79.6158C4098.74 78.657 4096.84 78.1776 4094.41 78.1776H4084.63V89.2358ZM4133.04 84.8892H4147.52C4153.79 84.8892 4158.63 86.4126 4162.06 89.4595C4165.49 92.5064 4167.22 96.5014 4167.24 101.445C4167.22 104.662 4166.43 107.517 4164.88 110.01C4163.34 112.503 4161.11 114.463 4158.17 115.891C4155.25 117.297 4151.7 118 4147.52 118H4125.21V68.9091H4136.37V108.508H4147.52C4150.04 108.508 4152.1 107.869 4153.72 106.59C4155.34 105.29 4156.15 103.629 4156.15 101.604C4156.15 99.4737 4155.34 97.7372 4153.72 96.3949C4152.1 95.0526 4150.04 94.3814 4147.52 94.3814H4133.04V84.8892ZM4173.35 118V68.9091H4184.92V118H4173.35ZM4206.31 68.9091L4216.21 87.0305L4226.28 68.9091H4238.52L4223.72 93.4545L4238.78 118H4226.6L4216.21 100.326L4205.92 118H4193.65L4208.61 93.4545L4194.03 68.9091H4206.31ZM4267.04 118.959C4262.24 118.959 4258.09 117.904 4254.57 115.795C4251.06 113.685 4248.33 110.734 4246.39 106.942C4244.47 103.149 4243.51 98.7173 4243.51 93.6463C4243.51 88.5753 4244.47 84.1328 4246.39 80.3189C4248.33 76.505 4251.06 73.5433 4254.57 71.4339C4258.09 69.3246 4262.24 68.2699 4267.04 68.2699C4271.83 68.2699 4275.99 69.3246 4279.5 71.4339C4283.02 73.5433 4285.73 76.505 4287.65 80.3189C4289.59 84.1328 4290.56 88.5753 4290.56 93.6463C4290.56 98.7173 4289.59 103.149 4287.65 106.942C4285.73 110.734 4283.02 113.685 4279.5 115.795C4275.99 117.904 4271.83 118.959 4267.04 118.959ZM4267.1 109.69C4269.7 109.69 4271.87 108.977 4273.62 107.549C4275.37 106.1 4276.67 104.161 4277.52 101.732C4278.39 99.3033 4278.83 96.5973 4278.83 93.6143C4278.83 90.6101 4278.39 87.8935 4277.52 85.4645C4276.67 83.0142 4275.37 81.0646 4273.62 79.6158C4271.87 78.1669 4269.7 77.4425 4267.1 77.4425C4264.44 77.4425 4262.22 78.1669 4260.45 79.6158C4258.71 81.0646 4257.4 83.0142 4256.52 85.4645C4255.67 87.8935 4255.24 90.6101 4255.24 93.6143C4255.24 96.5973 4255.67 99.3033 4256.52 101.732C4257.4 104.161 4258.71 106.1 4260.45 107.549C4262.22 108.977 4264.44 109.69 4267.1 109.69ZM4296.03 132.254V108.476H4299.93C4300.98 107.666 4301.85 106.569 4302.55 105.184C4303.26 103.778 4303.83 102.126 4304.28 100.23C4304.75 98.3125 4305.13 96.1712 4305.43 93.8061C4305.73 91.4197 4305.99 88.8523 4306.23 86.1037L4307.64 68.9091H4343.11V108.476H4350.72V132.254H4339.53V118H4307.41V132.254H4296.03ZM4311.82 108.476H4332.05V78.2415H4317.67L4316.9 86.1037C4316.48 91.3026 4315.91 95.7557 4315.21 99.4631C4314.51 103.17 4313.38 106.175 4311.82 108.476ZM4393.07 88.6605V98.1527H4366.93V88.6605H4393.07ZM4370.51 68.9091V118H4359.35V68.9091H4370.51ZM4400.65 68.9091V118H4389.53V68.9091H4400.65ZM4420.18 84.8892H4434.66C4440.93 84.8892 4445.77 86.4126 4449.2 89.4595C4452.63 92.5064 4454.36 96.5014 4454.38 101.445C4454.36 104.662 4453.57 107.517 4452.02 110.01C4450.48 112.503 4448.24 114.463 4445.3 115.891C4442.38 117.297 4438.84 118 4434.66 118H4412.35V68.9091H4423.51V108.508H4434.66C4437.18 108.508 4439.24 107.869 4440.86 106.59C4442.48 105.29 4443.29 103.629 4443.29 101.604C4443.29 99.4737 4442.48 97.7372 4440.86 96.3949C4439.24 95.0526 4437.18 94.3814 4434.66 94.3814H4420.18V84.8892ZM4460.48 118V68.9091H4472.05V118H4460.48ZM4493.44 68.9091L4503.35 87.0305L4513.42 68.9091H4525.66L4510.86 93.4545L4525.92 118H4513.74L4503.35 100.326L4493.06 118H4480.79L4495.75 93.4545L4481.17 68.9091H4493.44ZM4590.65 88.6605V98.1527H4564.51V88.6605H4590.65ZM4568.09 68.9091V118H4556.93V68.9091H4568.09ZM4598.23 68.9091V118H4587.1V68.9091H4598.23ZM4631.66 118.959C4626.74 118.959 4622.49 117.936 4618.91 115.891C4615.35 113.824 4612.62 110.905 4610.7 107.134C4608.78 103.341 4607.82 98.8771 4607.82 93.7422C4607.82 88.6925 4608.78 84.2607 4610.7 80.4467C4612.64 76.6115 4615.34 73.6285 4618.82 71.4979C4622.29 69.3459 4626.37 68.2699 4631.06 68.2699C4634.08 68.2699 4636.94 68.7599 4639.62 69.7401C4642.33 70.6989 4644.71 72.1903 4646.78 74.2145C4648.87 76.2386 4650.51 78.8168 4651.7 81.9489C4652.9 85.0597 4653.49 88.767 4653.49 93.071V96.6186H4613.25V88.8203H4642.4C4642.38 86.6044 4641.9 84.6335 4640.96 82.9077C4640.03 81.1605 4638.72 79.7862 4637.03 78.7848C4635.37 77.7834 4633.43 77.2827 4631.22 77.2827C4628.85 77.2827 4626.77 77.858 4624.98 79.0085C4623.19 80.1378 4621.8 81.6293 4620.8 83.483C4619.82 85.3153 4619.32 87.3288 4619.3 89.5234V96.331C4619.3 99.1861 4619.82 101.636 4620.86 103.682C4621.91 105.706 4623.36 107.261 4625.24 108.348C4627.11 109.413 4629.31 109.946 4631.82 109.946C4633.51 109.946 4635.03 109.712 4636.39 109.243C4637.76 108.753 4638.94 108.039 4639.94 107.102C4640.94 106.164 4641.7 105.003 4642.21 103.618L4653.01 104.832C4652.33 107.687 4651.03 110.18 4649.11 112.311C4647.22 114.42 4644.79 116.061 4641.83 117.233C4638.87 118.384 4635.48 118.959 4631.66 118.959ZM4674.43 102.339L4694.09 68.9091H4705.98V118H4694.79V84.5376L4675.2 118H4663.28V68.9091H4674.43V102.339ZM4690.93 52.0341H4699.59C4699.59 55.7628 4698.23 58.7883 4695.53 61.1108C4692.84 63.4119 4689.2 64.5625 4684.6 64.5625C4680.04 64.5625 4676.41 63.4119 4673.7 61.1108C4671.01 58.7883 4669.68 55.7628 4669.7 52.0341H4678.3C4678.3 53.5682 4678.77 54.9425 4679.71 56.157C4680.67 57.3501 4682.3 57.9467 4684.6 57.9467C4686.86 57.9467 4688.47 57.3501 4689.42 56.157C4690.4 54.9638 4690.9 53.5895 4690.93 52.0341ZM4717.86 136.409V68.9091H4729.24V77.027H4729.91C4730.51 75.8338 4731.35 74.566 4732.43 73.2237C4733.52 71.8601 4734.99 70.6989 4736.84 69.7401C4738.7 68.7599 4741.06 68.2699 4743.94 68.2699C4747.73 68.2699 4751.15 69.2393 4754.2 71.1783C4757.27 73.0959 4759.7 75.9403 4761.49 79.7116C4763.3 83.4616 4764.2 88.0639 4764.2 93.5185C4764.2 98.9091 4763.32 103.49 4761.55 107.261C4759.78 111.033 4757.37 113.909 4754.33 115.891C4751.28 117.872 4747.83 118.863 4743.97 118.863C4741.16 118.863 4738.83 118.394 4736.97 117.457C4735.12 116.519 4733.63 115.39 4732.5 114.069C4731.39 112.727 4730.53 111.459 4729.91 110.266H4729.43V136.409H4717.86ZM4729.21 93.4545C4729.21 96.6293 4729.65 99.4098 4730.55 101.796C4731.47 104.183 4732.78 106.047 4734.48 107.389C4736.21 108.71 4738.29 109.371 4740.74 109.371C4743.3 109.371 4745.44 108.689 4747.17 107.325C4748.89 105.94 4750.19 104.055 4751.07 101.668C4751.96 99.2607 4752.41 96.5227 4752.41 93.4545C4752.41 90.4077 4751.97 87.7017 4751.1 85.3366C4750.23 82.9716 4748.93 81.1179 4747.2 79.7756C4745.47 78.4332 4743.32 77.7621 4740.74 77.7621C4738.27 77.7621 4736.17 78.4119 4734.45 79.7116C4732.72 81.0114 4731.41 82.8331 4730.52 85.1768C4729.64 87.5206 4729.21 90.2798 4729.21 93.4545ZM4795.52 118.959C4790.73 118.959 4786.58 117.904 4783.06 115.795C4779.54 113.685 4776.82 110.734 4774.88 106.942C4772.96 103.149 4772 98.7173 4772 93.6463C4772 88.5753 4772.96 84.1328 4774.88 80.3189C4776.82 76.505 4779.54 73.5433 4783.06 71.4339C4786.58 69.3246 4790.73 68.2699 4795.52 68.2699C4800.32 68.2699 4804.47 69.3246 4807.99 71.4339C4811.5 73.5433 4814.22 76.505 4816.14 80.3189C4818.08 84.1328 4819.05 88.5753 4819.05 93.6463C4819.05 98.7173 4818.08 103.149 4816.14 106.942C4814.22 110.734 4811.5 113.685 4807.99 115.795C4804.47 117.904 4800.32 118.959 4795.52 118.959ZM4795.59 109.69C4798.19 109.69 4800.36 108.977 4802.11 107.549C4803.85 106.1 4805.15 104.161 4806.01 101.732C4806.88 99.3033 4807.32 96.5973 4807.32 93.6143C4807.32 90.6101 4806.88 87.8935 4806.01 85.4645C4805.15 83.0142 4803.85 81.0646 4802.11 79.6158C4800.36 78.1669 4798.19 77.4425 4795.59 77.4425C4792.92 77.4425 4790.71 78.1669 4788.94 79.6158C4787.19 81.0646 4785.88 83.0142 4785.01 85.4645C4784.16 87.8935 4783.73 90.6101 4783.73 93.6143C4783.73 96.5973 4784.16 99.3033 4785.01 101.732C4785.88 104.161 4787.19 106.1 4788.94 107.549C4790.71 108.977 4792.92 109.69 4795.59 109.69ZM4862.58 88.6605V98.1527H4836.44V88.6605H4862.58ZM4840.02 68.9091V118H4828.87V68.9091H4840.02ZM4870.16 68.9091V118H4859.04V68.9091H4870.16ZM4895.99 118.991C4892.88 118.991 4890.08 118.437 4887.59 117.329C4885.11 116.2 4883.15 114.538 4881.7 112.343C4880.28 110.148 4879.56 107.442 4879.56 104.225C4879.56 101.455 4880.07 99.1648 4881.1 97.3537C4882.12 95.5426 4883.52 94.0938 4885.28 93.0071C4887.05 91.9205 4889.04 91.1001 4891.26 90.5462C4893.5 89.9709 4895.81 89.5554 4898.2 89.2997C4901.07 89.0014 4903.41 88.7351 4905.2 88.5007C4906.99 88.245 4908.28 87.8615 4909.09 87.3501C4909.93 86.8175 4910.34 85.9972 4910.34 84.8892V84.6974C4910.34 82.2898 4909.63 80.4254 4908.2 79.1044C4906.77 77.7834 4904.72 77.1229 4902.03 77.1229C4899.2 77.1229 4896.95 77.7408 4895.29 78.9766C4893.65 80.2124 4892.54 81.6719 4891.96 83.3551L4881.16 81.821C4882.01 78.8381 4883.42 76.3452 4885.38 74.3423C4887.34 72.3182 4889.74 70.8054 4892.57 69.804C4895.41 68.7812 4898.54 68.2699 4901.97 68.2699C4904.33 68.2699 4906.69 68.5469 4909.03 69.1009C4911.37 69.6548 4913.52 70.571 4915.45 71.8494C4917.39 73.1065 4918.95 74.8217 4920.12 76.995C4921.31 79.1683 4921.91 81.8849 4921.91 85.1449V118H4910.79V111.256H4910.41C4909.7 112.62 4908.71 113.898 4907.43 115.092C4906.18 116.263 4904.59 117.212 4902.67 117.936C4900.77 118.639 4898.55 118.991 4895.99 118.991ZM4899 110.489C4901.32 110.489 4903.33 110.031 4905.04 109.115C4906.74 108.178 4908.05 106.942 4908.97 105.408C4909.9 103.874 4910.37 102.201 4910.37 100.39V94.6051C4910.01 94.9034 4909.39 95.1804 4908.52 95.4361C4907.67 95.6918 4906.71 95.9155 4905.64 96.1072C4904.58 96.299 4903.52 96.4695 4902.48 96.6186C4901.43 96.7678 4900.53 96.8956 4899.76 97.0021C4898.04 97.2365 4896.49 97.62 4895.13 98.1527C4893.76 98.6854 4892.69 99.4311 4891.9 100.39C4891.11 101.327 4890.72 102.542 4890.72 104.033C4890.72 106.164 4891.5 107.773 4893.05 108.859C4894.61 109.946 4896.59 110.489 4899 110.489Z" fill="white"/>
<rect x="792.5" y="675.5" width="191" height="197" rx="45.5" stroke="#767382" stroke-width="9"/>
<rect x="2402.5" y="510.5" width="203" height="530" rx="65.5" stroke="#767382" stroke-width="9"/>
<rect x="4145.5" y="297.5" width="203" height="1001" rx="65.5" stroke="#767382" stroke-width="9"/>
<path d="M839.983 586.455V633H834.528L809.165 596.455H808.71V633H803.074V586.455H808.528L833.983 623.091H834.438V586.455H839.983ZM860.807 633.818C858.595 633.818 856.587 633.402 854.784 632.568C852.981 631.72 851.549 630.5 850.489 628.909C849.428 627.303 848.898 625.364 848.898 623.091C848.898 621.091 849.292 619.47 850.08 618.227C850.867 616.97 851.92 615.985 853.239 615.273C854.557 614.561 856.011 614.03 857.602 613.682C859.208 613.318 860.822 613.03 862.443 612.818C864.564 612.545 866.284 612.341 867.602 612.205C868.936 612.053 869.905 611.803 870.511 611.455C871.133 611.106 871.443 610.5 871.443 609.636V609.455C871.443 607.212 870.83 605.47 869.602 604.227C868.39 602.985 866.549 602.364 864.08 602.364C861.519 602.364 859.511 602.924 858.057 604.045C856.602 605.167 855.58 606.364 854.989 607.636L849.898 605.818C850.807 603.697 852.019 602.045 853.534 600.864C855.064 599.667 856.731 598.833 858.534 598.364C860.352 597.879 862.14 597.636 863.898 597.636C865.019 597.636 866.307 597.773 867.761 598.045C869.231 598.303 870.648 598.841 872.011 599.659C873.39 600.477 874.534 601.712 875.443 603.364C876.352 605.015 876.807 607.227 876.807 610V633H871.443V628.273H871.17C870.807 629.03 870.201 629.841 869.352 630.705C868.504 631.568 867.375 632.303 865.966 632.909C864.557 633.515 862.837 633.818 860.807 633.818ZM861.625 629C863.746 629 865.534 628.583 866.989 627.75C868.458 626.917 869.564 625.841 870.307 624.523C871.064 623.205 871.443 621.818 871.443 620.364V615.455C871.216 615.727 870.716 615.977 869.943 616.205C869.186 616.417 868.307 616.606 867.307 616.773C866.322 616.924 865.36 617.061 864.42 617.182C863.496 617.288 862.746 617.379 862.17 617.455C860.777 617.636 859.473 617.932 858.261 618.341C857.064 618.735 856.095 619.333 855.352 620.136C854.625 620.924 854.261 622 854.261 623.364C854.261 625.227 854.951 626.636 856.33 627.591C857.723 628.53 859.489 629 861.625 629ZM886.597 633V598.091H891.778V603.545H892.233C892.96 601.682 894.134 600.235 895.756 599.205C897.377 598.159 899.324 597.636 901.597 597.636C903.9 597.636 905.816 598.159 907.347 599.205C908.892 600.235 910.097 601.682 910.96 603.545H911.324C912.218 601.742 913.559 600.311 915.347 599.25C917.134 598.174 919.278 597.636 921.778 597.636C924.9 597.636 927.453 598.614 929.438 600.568C931.422 602.508 932.415 605.53 932.415 609.636V633H927.051V609.636C927.051 607.061 926.347 605.22 924.938 604.114C923.528 603.008 921.869 602.455 919.96 602.455C917.506 602.455 915.604 603.197 914.256 604.682C912.907 606.152 912.233 608.015 912.233 610.273V633H906.778V609.091C906.778 607.106 906.134 605.508 904.847 604.295C903.559 603.068 901.9 602.455 899.869 602.455C898.475 602.455 897.172 602.826 895.96 603.568C894.763 604.311 893.794 605.341 893.051 606.659C892.324 607.962 891.96 609.47 891.96 611.182V633H886.597ZM956.858 633.727C953.494 633.727 950.593 632.985 948.153 631.5C945.729 630 943.858 627.909 942.54 625.227C941.237 622.53 940.585 619.394 940.585 615.818C940.585 612.242 941.237 609.091 942.54 606.364C943.858 603.621 945.691 601.485 948.04 599.955C950.403 598.409 953.161 597.636 956.312 597.636C958.131 597.636 959.926 597.939 961.699 598.545C963.472 599.152 965.085 600.136 966.54 601.5C967.994 602.848 969.153 604.636 970.017 606.864C970.881 609.091 971.312 611.833 971.312 615.091V617.364H944.403V612.727H965.858C965.858 610.758 965.464 609 964.676 607.455C963.903 605.909 962.797 604.689 961.358 603.795C959.934 602.902 958.252 602.455 956.312 602.455C954.176 602.455 952.328 602.985 950.767 604.045C949.222 605.091 948.032 606.455 947.199 608.136C946.366 609.818 945.949 611.621 945.949 613.545V616.636C945.949 619.273 946.403 621.508 947.312 623.341C948.237 625.159 949.517 626.545 951.153 627.5C952.79 628.439 954.691 628.909 956.858 628.909C958.267 628.909 959.54 628.712 960.676 628.318C961.828 627.909 962.82 627.303 963.653 626.5C964.487 625.682 965.131 624.667 965.585 623.455L970.767 624.909C970.222 626.667 969.305 628.212 968.017 629.545C966.729 630.864 965.138 631.894 963.244 632.636C961.35 633.364 959.222 633.727 956.858 633.727Z" fill="#767382"/>
<path d="M4189.98 210.455V257H4184.53L4159.16 220.455H4158.71V257H4153.07V210.455H4158.53L4183.98 247.091H4184.44V210.455H4189.98ZM4210.81 257.818C4208.59 257.818 4206.59 257.402 4204.78 256.568C4202.98 255.72 4201.55 254.5 4200.49 252.909C4199.43 251.303 4198.9 249.364 4198.9 247.091C4198.9 245.091 4199.29 243.47 4200.08 242.227C4200.87 240.97 4201.92 239.985 4203.24 239.273C4204.56 238.561 4206.01 238.03 4207.6 237.682C4209.21 237.318 4210.82 237.03 4212.44 236.818C4214.56 236.545 4216.28 236.341 4217.6 236.205C4218.94 236.053 4219.91 235.803 4220.51 235.455C4221.13 235.106 4221.44 234.5 4221.44 233.636V233.455C4221.44 231.212 4220.83 229.47 4219.6 228.227C4218.39 226.985 4216.55 226.364 4214.08 226.364C4211.52 226.364 4209.51 226.924 4208.06 228.045C4206.6 229.167 4205.58 230.364 4204.99 231.636L4199.9 229.818C4200.81 227.697 4202.02 226.045 4203.53 224.864C4205.06 223.667 4206.73 222.833 4208.53 222.364C4210.35 221.879 4212.14 221.636 4213.9 221.636C4215.02 221.636 4216.31 221.773 4217.76 222.045C4219.23 222.303 4220.65 222.841 4222.01 223.659C4223.39 224.477 4224.53 225.712 4225.44 227.364C4226.35 229.015 4226.81 231.227 4226.81 234V257H4221.44V252.273H4221.17C4220.81 253.03 4220.2 253.841 4219.35 254.705C4218.5 255.568 4217.38 256.303 4215.97 256.909C4214.56 257.515 4212.84 257.818 4210.81 257.818ZM4211.62 253C4213.75 253 4215.53 252.583 4216.99 251.75C4218.46 250.917 4219.56 249.841 4220.31 248.523C4221.06 247.205 4221.44 245.818 4221.44 244.364V239.455C4221.22 239.727 4220.72 239.977 4219.94 240.205C4219.19 240.417 4218.31 240.606 4217.31 240.773C4216.32 240.924 4215.36 241.061 4214.42 241.182C4213.5 241.288 4212.75 241.379 4212.17 241.455C4210.78 241.636 4209.47 241.932 4208.26 242.341C4207.06 242.735 4206.09 243.333 4205.35 244.136C4204.63 244.924 4204.26 246 4204.26 247.364C4204.26 249.227 4204.95 250.636 4206.33 251.591C4207.72 252.53 4209.49 253 4211.62 253ZM4236.6 257V222.091H4241.78V227.545H4242.23C4242.96 225.682 4244.13 224.235 4245.76 223.205C4247.38 222.159 4249.32 221.636 4251.6 221.636C4253.9 221.636 4255.82 222.159 4257.35 223.205C4258.89 224.235 4260.1 225.682 4260.96 227.545H4261.32C4262.22 225.742 4263.56 224.311 4265.35 223.25C4267.13 222.174 4269.28 221.636 4271.78 221.636C4274.9 221.636 4277.45 222.614 4279.44 224.568C4281.42 226.508 4282.41 229.53 4282.41 233.636V257H4277.05V233.636C4277.05 231.061 4276.35 229.22 4274.94 228.114C4273.53 227.008 4271.87 226.455 4269.96 226.455C4267.51 226.455 4265.6 227.197 4264.26 228.682C4262.91 230.152 4262.23 232.015 4262.23 234.273V257H4256.78V233.091C4256.78 231.106 4256.13 229.508 4254.85 228.295C4253.56 227.068 4251.9 226.455 4249.87 226.455C4248.48 226.455 4247.17 226.826 4245.96 227.568C4244.76 228.311 4243.79 229.341 4243.05 230.659C4242.32 231.962 4241.96 233.47 4241.96 235.182V257H4236.6ZM4306.86 257.727C4303.49 257.727 4300.59 256.985 4298.15 255.5C4295.73 254 4293.86 251.909 4292.54 249.227C4291.24 246.53 4290.59 243.394 4290.59 239.818C4290.59 236.242 4291.24 233.091 4292.54 230.364C4293.86 227.621 4295.69 225.485 4298.04 223.955C4300.4 222.409 4303.16 221.636 4306.31 221.636C4308.13 221.636 4309.93 221.939 4311.7 222.545C4313.47 223.152 4315.09 224.136 4316.54 225.5C4317.99 226.848 4319.15 228.636 4320.02 230.864C4320.88 233.091 4321.31 235.833 4321.31 239.091V241.364H4294.4V236.727H4315.86C4315.86 234.758 4315.46 233 4314.68 231.455C4313.9 229.909 4312.8 228.689 4311.36 227.795C4309.93 226.902 4308.25 226.455 4306.31 226.455C4304.18 226.455 4302.33 226.985 4300.77 228.045C4299.22 229.091 4298.03 230.455 4297.2 232.136C4296.37 233.818 4295.95 235.621 4295.95 237.545V240.636C4295.95 243.273 4296.4 245.508 4297.31 247.341C4298.24 249.159 4299.52 250.545 4301.15 251.5C4302.79 252.439 4304.69 252.909 4306.86 252.909C4308.27 252.909 4309.54 252.712 4310.68 252.318C4311.83 251.909 4312.82 251.303 4313.65 250.5C4314.49 249.682 4315.13 248.667 4315.59 247.455L4320.77 248.909C4320.22 250.667 4319.3 252.212 4318.02 253.545C4316.73 254.864 4315.14 255.894 4313.24 256.636C4311.35 257.364 4309.22 257.727 4306.86 257.727Z" fill="#767382"/>
<path d="M2457.98 418.455V465H2452.53L2427.16 428.455H2426.71V465H2421.07V418.455H2426.53L2451.98 455.091H2452.44V418.455H2457.98ZM2478.81 465.818C2476.59 465.818 2474.59 465.402 2472.78 464.568C2470.98 463.72 2469.55 462.5 2468.49 460.909C2467.43 459.303 2466.9 457.364 2466.9 455.091C2466.9 453.091 2467.29 451.47 2468.08 450.227C2468.87 448.97 2469.92 447.985 2471.24 447.273C2472.56 446.561 2474.01 446.03 2475.6 445.682C2477.21 445.318 2478.82 445.03 2480.44 444.818C2482.56 444.545 2484.28 444.341 2485.6 444.205C2486.94 444.053 2487.91 443.803 2488.51 443.455C2489.13 443.106 2489.44 442.5 2489.44 441.636V441.455C2489.44 439.212 2488.83 437.47 2487.6 436.227C2486.39 434.985 2484.55 434.364 2482.08 434.364C2479.52 434.364 2477.51 434.924 2476.06 436.045C2474.6 437.167 2473.58 438.364 2472.99 439.636L2467.9 437.818C2468.81 435.697 2470.02 434.045 2471.53 432.864C2473.06 431.667 2474.73 430.833 2476.53 430.364C2478.35 429.879 2480.14 429.636 2481.9 429.636C2483.02 429.636 2484.31 429.773 2485.76 430.045C2487.23 430.303 2488.65 430.841 2490.01 431.659C2491.39 432.477 2492.53 433.712 2493.44 435.364C2494.35 437.015 2494.81 439.227 2494.81 442V465H2489.44V460.273H2489.17C2488.81 461.03 2488.2 461.841 2487.35 462.705C2486.5 463.568 2485.38 464.303 2483.97 464.909C2482.56 465.515 2480.84 465.818 2478.81 465.818ZM2479.62 461C2481.75 461 2483.53 460.583 2484.99 459.75C2486.46 458.917 2487.56 457.841 2488.31 456.523C2489.06 455.205 2489.44 453.818 2489.44 452.364V447.455C2489.22 447.727 2488.72 447.977 2487.94 448.205C2487.19 448.417 2486.31 448.606 2485.31 448.773C2484.32 448.924 2483.36 449.061 2482.42 449.182C2481.5 449.288 2480.75 449.379 2480.17 449.455C2478.78 449.636 2477.47 449.932 2476.26 450.341C2475.06 450.735 2474.09 451.333 2473.35 452.136C2472.63 452.924 2472.26 454 2472.26 455.364C2472.26 457.227 2472.95 458.636 2474.33 459.591C2475.72 460.53 2477.49 461 2479.62 461ZM2504.6 465V430.091H2509.78V435.545H2510.23C2510.96 433.682 2512.13 432.235 2513.76 431.205C2515.38 430.159 2517.32 429.636 2519.6 429.636C2521.9 429.636 2523.82 430.159 2525.35 431.205C2526.89 432.235 2528.1 433.682 2528.96 435.545H2529.32C2530.22 433.742 2531.56 432.311 2533.35 431.25C2535.13 430.174 2537.28 429.636 2539.78 429.636C2542.9 429.636 2545.45 430.614 2547.44 432.568C2549.42 434.508 2550.41 437.53 2550.41 441.636V465H2545.05V441.636C2545.05 439.061 2544.35 437.22 2542.94 436.114C2541.53 435.008 2539.87 434.455 2537.96 434.455C2535.51 434.455 2533.6 435.197 2532.26 436.682C2530.91 438.152 2530.23 440.015 2530.23 442.273V465H2524.78V441.091C2524.78 439.106 2524.13 437.508 2522.85 436.295C2521.56 435.068 2519.9 434.455 2517.87 434.455C2516.48 434.455 2515.17 434.826 2513.96 435.568C2512.76 436.311 2511.79 437.341 2511.05 438.659C2510.32 439.962 2509.96 441.47 2509.96 443.182V465H2504.6ZM2574.86 465.727C2571.49 465.727 2568.59 464.985 2566.15 463.5C2563.73 462 2561.86 459.909 2560.54 457.227C2559.24 454.53 2558.59 451.394 2558.59 447.818C2558.59 444.242 2559.24 441.091 2560.54 438.364C2561.86 435.621 2563.69 433.485 2566.04 431.955C2568.4 430.409 2571.16 429.636 2574.31 429.636C2576.13 429.636 2577.93 429.939 2579.7 430.545C2581.47 431.152 2583.09 432.136 2584.54 433.5C2585.99 434.848 2587.15 436.636 2588.02 438.864C2588.88 441.091 2589.31 443.833 2589.31 447.091V449.364H2562.4V444.727H2583.86C2583.86 442.758 2583.46 441 2582.68 439.455C2581.9 437.909 2580.8 436.689 2579.36 435.795C2577.93 434.902 2576.25 434.455 2574.31 434.455C2572.18 434.455 2570.33 434.985 2568.77 436.045C2567.22 437.091 2566.03 438.455 2565.2 440.136C2564.37 441.818 2563.95 443.621 2563.95 445.545V448.636C2563.95 451.273 2564.4 453.508 2565.31 455.341C2566.24 457.159 2567.52 458.545 2569.15 459.5C2570.79 460.439 2572.69 460.909 2574.86 460.909C2576.27 460.909 2577.54 460.712 2578.68 460.318C2579.83 459.909 2580.82 459.303 2581.65 458.5C2582.49 457.682 2583.13 456.667 2583.59 455.455L2588.77 456.909C2588.22 458.667 2587.3 460.212 2586.02 461.545C2584.73 462.864 2583.14 463.894 2581.24 464.636C2579.35 465.364 2577.22 465.727 2574.86 465.727Z" fill="#767382"/>
<circle cx="2605" cy="615" r="59.5" fill="#242230" stroke="#767382" stroke-width="9"/>
<circle cx="4349" cy="401" r="59.5" fill="#242230" stroke="#767382" stroke-width="9"/>
<circle cx="2400" cy="615" r="59.5" fill="#242230" stroke="#767382" stroke-width="9"/>
<circle cx="4147" cy="401" r="59.5" fill="#242230" stroke="#767382" stroke-width="9"/>
<circle cx="4147" cy="555" r="59.5" fill="#242230" stroke="#767382" stroke-width="9"/>
<circle cx="4147" cy="714" r="59.5" fill="#242230" stroke="#767382" stroke-width="9"/>
<circle cx="4147" cy="876" r="59.5" fill="#242230" stroke="#767382" stroke-width="9"/>
<circle cx="985" cy="770" r="59.5" fill="#242230" stroke="#767382" stroke-width="9"/>
<circle cx="2400" cy="769" r="59.5" fill="#242230" stroke="#767382" stroke-width="9"/>
<circle cx="4349" cy="555" r="59.5" fill="#242230" stroke="#767382" stroke-width="9"/>
<circle cx="2400" cy="928" r="59.5" fill="#242230" stroke="#767382" stroke-width="9"/>
<circle cx="4349" cy="714" r="59.5" fill="#242230" stroke="#767382" stroke-width="9"/>
<circle cx="4349" cy="875" r="59.5" fill="#242230" stroke="#767382" stroke-width="9"/>
<circle cx="4349" cy="1036" r="59.5" fill="#242230" stroke="#767382" stroke-width="9"/>
<circle cx="4349" cy="1190" r="59.5" fill="#242230" stroke="#767382" stroke-width="9"/>
</g>
<defs>
<filter id="filter0_d_143_679" x="-4" y="0" width="5083" height="1337" filterUnits="userSpaceOnUse" color-interpolation-filters="sRGB">
<feFlood flood-opacity="0" result="BackgroundImageFix"/>
<feColorMatrix in="SourceAlpha" type="matrix" values="0 0 0 0 0 0 0 0 0 0 0 0 0 0 0 0 0 0 127 0" result="hardAlpha"/>
<feOffset dy="4"/>
<feGaussianBlur stdDeviation="2"/>
<feComposite in2="hardAlpha" operator="out"/>
<feColorMatrix type="matrix" values="0 0 0 0 0 0 0 0 0 0 0 0 0 0 0 0 0 0 0.25 0"/>
<feBlend mode="normal" in2="BackgroundImageFix" result="effect1_dropShadow_143_679"/>
<feBlend mode="normal" in="SourceGraphic" in2="effect1_dropShadow_143_679" result="shape"/>
</filter>
</defs>
</svg>
