<svg width="5075" height="1370" viewBox="0 0 5075 1370" fill="none" xmlns="http://www.w3.org/2000/svg">
<g filter="url(#filter0_d_143_660)">
<circle cx="452" cy="1185" r="89.5" stroke="#767382" stroke-width="9"/>
<circle cx="2044" cy="1185" r="89.5" stroke="#767382" stroke-width="9"/>
<circle cx="3701" cy="1185" r="89.5" stroke="#767382" stroke-width="9"/>
<circle cx="1371" cy="481" r="89.5" stroke="#767382" stroke-width="9"/>
<circle cx="2963" cy="481" r="89.5" stroke="#767382" stroke-width="9"/>
<circle cx="4620" cy="481" r="89.5" stroke="#767382" stroke-width="9"/>
<path d="M523.156 52.5455V118H511.395V62.3892H482.759V118H470.997V52.5455H523.156ZM536.827 136.409V68.9091H548.205V77.027H548.876C549.473 75.8338 550.315 74.566 551.401 73.2237C552.488 71.8601 553.958 70.6989 555.812 69.7401C557.665 68.7599 560.031 68.2699 562.907 68.2699C566.7 68.2699 570.119 69.2393 573.166 71.1783C576.234 73.0959 578.663 75.9403 580.453 79.7116C582.264 83.4616 583.17 88.0639 583.17 93.5185C583.17 98.9091 582.286 103.49 580.517 107.261C578.749 111.033 576.341 113.909 573.294 115.891C570.247 117.872 566.795 118.863 562.939 118.863C560.126 118.863 557.793 118.394 555.94 117.457C554.086 116.519 552.594 115.39 551.465 114.069C550.357 112.727 549.494 111.459 548.876 110.266H548.397V136.409H536.827ZM548.173 93.4545C548.173 96.6293 548.621 99.4098 549.516 101.796C550.432 104.183 551.742 106.047 553.447 107.389C555.173 108.71 557.261 109.371 559.711 109.371C562.268 109.371 564.409 108.689 566.135 107.325C567.861 105.94 569.161 104.055 570.034 101.668C570.929 99.2607 571.376 96.5227 571.376 93.4545C571.376 90.4077 570.94 87.7017 570.066 85.3366C569.192 82.9716 567.893 81.1179 566.167 79.7756C564.441 78.4332 562.289 77.7621 559.711 77.7621C557.239 77.7621 555.141 78.4119 553.415 79.7116C551.689 81.0114 550.379 82.8331 549.484 85.1768C548.61 87.5206 548.173 90.2798 548.173 93.4545ZM622.097 118V78.3054H611.614C608.951 78.3054 606.906 78.9233 605.478 80.1591C604.05 81.3949 603.347 82.929 603.369 84.7614C603.347 86.5938 604.018 88.1065 605.382 89.2997C606.746 90.4929 608.695 91.0895 611.231 91.0895H625.741V99.527H611.231C607.31 99.527 603.923 98.9091 601.067 97.6733C598.212 96.4375 596.018 94.6903 594.484 92.4318C592.95 90.1733 592.183 87.5312 592.183 84.5057C592.183 81.3523 592.96 78.6143 594.516 76.2919C596.092 73.9482 598.33 72.1371 601.227 70.8587C604.146 69.5589 607.609 68.9091 611.614 68.9091H632.932V118H622.097ZM590.393 118L604.104 92.8153H615.513L601.771 118H590.393ZM672.834 104.545L687.408 68.9091H696.74L676.893 118H668.807L649.407 68.9091H658.644L672.834 104.545ZM655.735 68.9091V118H644.581V68.9091H655.735ZM690.412 118V68.9091H701.471V118H690.412ZM734.549 118.959C729.755 118.959 725.6 117.904 722.085 115.795C718.569 113.685 715.842 110.734 713.903 106.942C711.985 103.149 711.027 98.7173 711.027 93.6463C711.027 88.5753 711.985 84.1328 713.903 80.3189C715.842 76.505 718.569 73.5433 722.085 71.4339C725.6 69.3246 729.755 68.2699 734.549 68.2699C739.343 68.2699 743.498 69.3246 747.014 71.4339C750.529 73.5433 753.246 76.505 755.164 80.3189C757.103 84.1328 758.072 88.5753 758.072 93.6463C758.072 98.7173 757.103 103.149 755.164 106.942C753.246 110.734 750.529 113.685 747.014 115.795C743.498 117.904 739.343 118.959 734.549 118.959ZM734.613 109.69C737.213 109.69 739.386 108.977 741.133 107.549C742.88 106.1 744.18 104.161 745.032 101.732C745.906 99.3033 746.343 96.5973 746.343 93.6143C746.343 90.6101 745.906 87.8935 745.032 85.4645C744.18 83.0142 742.88 81.0646 741.133 79.6158C739.386 78.1669 737.213 77.4425 734.613 77.4425C731.95 77.4425 729.734 78.1669 727.966 79.6158C726.218 81.0646 724.908 83.0142 724.034 85.4645C723.182 87.8935 722.756 90.6101 722.756 93.6143C722.756 96.5973 723.182 99.3033 724.034 101.732C724.908 104.161 726.218 106.1 727.966 107.549C729.734 108.977 731.95 109.69 734.613 109.69ZM800.363 68.9091V78.4013H779.206V118H767.892V68.9091H800.363ZM829.032 118.959C824.238 118.959 820.083 117.904 816.567 115.795C813.052 113.685 810.324 110.734 808.385 106.942C806.468 103.149 805.509 98.7173 805.509 93.6463C805.509 88.5753 806.468 84.1328 808.385 80.3189C810.324 76.505 813.052 73.5433 816.567 71.4339C820.083 69.3246 824.238 68.2699 829.032 68.2699C833.826 68.2699 837.981 69.3246 841.496 71.4339C845.012 73.5433 847.729 76.505 849.646 80.3189C851.585 84.1328 852.555 88.5753 852.555 93.6463C852.555 98.7173 851.585 103.149 849.646 106.942C847.729 110.734 845.012 113.685 841.496 115.795C837.981 117.904 833.826 118.959 829.032 118.959ZM829.096 109.69C831.695 109.69 833.868 108.977 835.616 107.549C837.363 106.1 838.662 104.161 839.515 101.732C840.388 99.3033 840.825 96.5973 840.825 93.6143C840.825 90.6101 840.388 87.8935 839.515 85.4645C838.662 83.0142 837.363 81.0646 835.616 79.6158C833.868 78.1669 831.695 77.4425 829.096 77.4425C826.432 77.4425 824.216 78.1669 822.448 79.6158C820.701 81.0646 819.39 83.0142 818.517 85.4645C817.665 87.8935 817.238 90.6101 817.238 93.6143C817.238 96.5973 817.665 99.3033 818.517 101.732C819.39 104.161 820.701 106.1 822.448 107.549C824.216 108.977 826.432 109.69 829.096 109.69ZM880.352 132.254V108.476H884.251C885.295 107.666 886.169 106.569 886.872 105.184C887.575 103.778 888.15 102.126 888.598 100.23C889.066 98.3125 889.45 96.1712 889.748 93.8061C890.047 91.4197 890.313 88.8523 890.547 86.1037L891.953 68.9091H927.429V108.476H935.036V132.254H923.85V118H891.73V132.254H880.352ZM896.14 108.476H916.371V78.2415H901.989L901.222 86.1037C900.796 91.3026 900.231 95.7557 899.528 99.4631C898.825 103.17 897.696 106.175 896.14 108.476ZM965.406 118.959C960.484 118.959 956.233 117.936 952.654 115.891C949.096 113.824 946.358 110.905 944.44 107.134C942.523 103.341 941.564 98.8771 941.564 93.7422C941.564 88.6925 942.523 84.2607 944.44 80.4467C946.379 76.6115 949.085 73.6285 952.558 71.4979C956.031 69.3459 960.111 68.2699 964.799 68.2699C967.824 68.2699 970.68 68.7599 973.364 69.7401C976.07 70.6989 978.457 72.1903 980.523 74.2145C982.611 76.2386 984.252 78.8168 985.445 81.9489C986.638 85.0597 987.235 88.767 987.235 93.071V96.6186H946.997V88.8203H976.145C976.123 86.6044 975.644 84.6335 974.707 82.9077C973.769 81.1605 972.459 79.7862 970.775 78.7848C969.113 77.7834 967.175 77.2827 964.959 77.2827C962.594 77.2827 960.516 77.858 958.726 79.0085C956.937 80.1378 955.541 81.6293 954.54 83.483C953.559 85.3153 953.059 87.3288 953.037 89.5234V96.331C953.037 99.1861 953.559 101.636 954.604 103.682C955.648 105.706 957.107 107.261 958.982 108.348C960.857 109.413 963.052 109.946 965.566 109.946C967.249 109.946 968.773 109.712 970.136 109.243C971.5 108.753 972.682 108.039 973.684 107.102C974.685 106.164 975.442 105.003 975.953 103.618L986.756 104.832C986.074 107.687 984.774 110.18 982.856 112.311C980.96 114.42 978.531 116.061 975.569 117.233C972.608 118.384 969.22 118.959 965.406 118.959ZM1008.18 102.339L1027.83 68.9091H1039.72V118H1028.54V84.5376L1008.94 118H997.023V68.9091H1008.18V102.339ZM1024.67 52.0341H1033.33C1033.33 55.7628 1031.98 58.7883 1029.27 61.1108C1026.59 63.4119 1022.94 64.5625 1018.34 64.5625C1013.78 64.5625 1010.15 63.4119 1007.44 61.1108C1004.76 58.7883 1003.43 55.7628 1003.45 52.0341H1012.04C1012.04 53.5682 1012.51 54.9425 1013.45 56.157C1014.41 57.3501 1016.04 57.9467 1018.34 57.9467C1020.6 57.9467 1022.21 57.3501 1023.17 56.157C1024.15 54.9638 1024.65 53.5895 1024.67 52.0341ZM1073.02 118.959C1068.12 118.959 1063.91 117.883 1060.39 115.731C1056.9 113.579 1054.2 110.607 1052.31 106.814C1050.43 103 1049.49 98.6108 1049.49 93.6463C1049.49 88.6605 1050.45 84.2607 1052.37 80.4467C1054.29 76.6115 1056.99 73.6285 1060.49 71.4979C1064 69.3459 1068.16 68.2699 1072.95 68.2699C1076.94 68.2699 1080.46 69.005 1083.53 70.4751C1086.62 71.924 1089.08 73.9801 1090.91 76.6435C1092.75 79.2855 1093.79 82.375 1094.05 85.9119H1082.99C1082.54 83.5469 1081.47 81.576 1079.79 79.9993C1078.13 78.4013 1075.9 77.6023 1073.11 77.6023C1070.75 77.6023 1068.67 78.2415 1066.88 79.5199C1065.09 80.777 1063.69 82.5881 1062.69 84.9531C1061.71 87.3182 1061.22 90.152 1061.22 93.4545C1061.22 96.7997 1061.71 99.6761 1062.69 102.084C1063.67 104.47 1065.05 106.313 1066.82 107.613C1068.61 108.891 1070.7 109.531 1073.11 109.531C1074.82 109.531 1076.34 109.211 1077.68 108.572C1079.05 107.911 1080.19 106.963 1081.1 105.727C1082.02 104.491 1082.65 102.989 1082.99 101.221H1094.05C1093.77 104.694 1092.75 107.773 1090.98 110.457C1089.21 113.121 1086.8 115.209 1083.75 116.722C1080.71 118.213 1077.13 118.959 1073.02 118.959ZM1099.98 78.4013V68.9091H1142.94V78.4013H1127.05V118H1115.87V78.4013H1099.98ZM1152.15 118V68.9091H1172.76C1178.58 68.9091 1183.17 70.0703 1186.54 72.3928C1189.93 74.7152 1191.62 77.9538 1191.62 82.1087C1191.62 84.8572 1190.66 87.1051 1188.74 88.8523C1186.85 90.5781 1184.26 91.7393 1180.98 92.3359C1183.56 92.549 1185.81 93.1989 1187.75 94.2855C1189.71 95.3722 1191.25 96.7997 1192.36 98.5682C1193.46 100.337 1194.02 102.371 1194.02 104.673C1194.02 107.379 1193.3 109.733 1191.88 111.736C1190.47 113.717 1188.41 115.262 1185.71 116.37C1183.02 117.457 1179.76 118 1175.93 118H1152.15ZM1162.98 108.891H1175.93C1178.06 108.891 1179.73 108.391 1180.95 107.389C1182.16 106.366 1182.77 104.982 1182.77 103.234C1182.77 101.21 1182.16 99.6229 1180.95 98.4723C1179.73 97.3004 1178.06 96.7145 1175.93 96.7145H1162.98V108.891ZM1162.98 89.2358H1172.99C1174.56 89.2358 1175.92 89.0121 1177.05 88.5646C1178.18 88.0959 1179.04 87.446 1179.64 86.6151C1180.23 85.7628 1180.53 84.7507 1180.53 83.5788C1180.53 81.8956 1179.84 80.5746 1178.45 79.6158C1177.09 78.657 1175.19 78.1776 1172.76 78.1776H1162.98V89.2358ZM1214.72 102.339L1234.38 68.9091H1246.26V118H1235.08V84.5376L1215.49 118H1203.57V68.9091H1214.72V102.339ZM1287.17 118V78.3054H1276.68C1274.02 78.3054 1271.97 78.9233 1270.55 80.1591C1269.12 81.3949 1268.42 82.929 1268.44 84.7614C1268.42 86.5938 1269.09 88.1065 1270.45 89.2997C1271.81 90.4929 1273.76 91.0895 1276.3 91.0895H1290.81V99.527H1276.3C1272.38 99.527 1268.99 98.9091 1266.14 97.6733C1263.28 96.4375 1261.09 94.6903 1259.55 92.4318C1258.02 90.1733 1257.25 87.5312 1257.25 84.5057C1257.25 81.3523 1258.03 78.6143 1259.58 76.2919C1261.16 73.9482 1263.4 72.1371 1266.3 70.8587C1269.21 69.5589 1272.68 68.9091 1276.68 68.9091H1298V118H1287.17ZM1255.46 118L1269.17 92.8153H1280.58L1266.84 118H1255.46Z" fill="white"/>
<path d="M2127.8 52.5455H2142.31L2161.74 99.9744H2162.51L2181.94 52.5455H2196.45V118H2185.08V73.032H2184.47L2166.38 117.808H2157.88L2139.79 72.9361H2139.18V118H2127.8V52.5455ZM2230.27 118.959C2225.47 118.959 2221.32 117.904 2217.8 115.795C2214.29 113.685 2211.56 110.734 2209.62 106.942C2207.7 103.149 2206.74 98.7173 2206.74 93.6463C2206.74 88.5753 2207.7 84.1328 2209.62 80.3189C2211.56 76.505 2214.29 73.5433 2217.8 71.4339C2221.32 69.3246 2225.47 68.2699 2230.27 68.2699C2235.06 68.2699 2239.22 69.3246 2242.73 71.4339C2246.25 73.5433 2248.96 76.505 2250.88 80.3189C2252.82 84.1328 2253.79 88.5753 2253.79 93.6463C2253.79 98.7173 2252.82 103.149 2250.88 106.942C2248.96 110.734 2246.25 113.685 2242.73 115.795C2239.22 117.904 2235.06 118.959 2230.27 118.959ZM2230.33 109.69C2232.93 109.69 2235.1 108.977 2236.85 107.549C2238.6 106.1 2239.9 104.161 2240.75 101.732C2241.62 99.3033 2242.06 96.5973 2242.06 93.6143C2242.06 90.6101 2241.62 87.8935 2240.75 85.4645C2239.9 83.0142 2238.6 81.0646 2236.85 79.6158C2235.1 78.1669 2232.93 77.4425 2230.33 77.4425C2227.67 77.4425 2225.45 78.1669 2223.68 79.6158C2221.94 81.0646 2220.63 83.0142 2219.75 85.4645C2218.9 87.8935 2218.47 90.6101 2218.47 93.6143C2218.47 96.5973 2218.9 99.3033 2219.75 101.732C2220.63 104.161 2221.94 106.1 2223.68 107.549C2225.45 108.977 2227.67 109.69 2230.33 109.69ZM2259.26 132.254V108.476H2263.16C2264.21 107.666 2265.08 106.569 2265.78 105.184C2266.49 103.778 2267.06 102.126 2267.51 100.23C2267.98 98.3125 2268.36 96.1712 2268.66 93.8061C2268.96 91.4197 2269.22 88.8523 2269.46 86.1037L2270.86 68.9091H2306.34V108.476H2313.95V132.254H2302.76V118H2270.64V132.254H2259.26ZM2275.05 108.476H2295.28V78.2415H2280.9L2280.13 86.1037C2279.71 91.3026 2279.14 95.7557 2278.44 99.4631C2277.74 103.17 2276.61 106.175 2275.05 108.476ZM2329.78 136.409C2328.2 136.409 2326.74 136.281 2325.4 136.026C2324.08 135.791 2323.02 135.514 2322.23 135.195L2324.92 126.182C2326.6 126.672 2328.1 126.906 2329.42 126.885C2330.74 126.864 2331.91 126.448 2332.91 125.638C2333.93 124.85 2334.79 123.529 2335.5 121.675L2336.49 119.023L2318.69 68.9091H2330.96L2342.27 105.983H2342.78L2354.13 68.9091H2366.43L2346.78 123.945C2345.86 126.544 2344.65 128.771 2343.13 130.624C2341.62 132.499 2339.77 133.927 2337.57 134.907C2335.4 135.908 2332.8 136.409 2329.78 136.409ZM2367.01 118L2366.95 108.476H2368.64C2369.92 108.476 2370.99 108.188 2371.87 107.613C2372.74 107.038 2373.46 106.079 2374.04 104.737C2374.62 103.373 2375.06 101.54 2375.38 99.2393C2375.7 96.9382 2375.93 94.0724 2376.05 90.642L2376.92 68.9091H2412.71V118H2401.53V78.4013H2387.43L2386.66 94.2216C2386.47 98.3125 2386.01 101.86 2385.29 104.864C2384.59 107.847 2383.59 110.308 2382.29 112.247C2381.01 114.186 2379.4 115.635 2377.46 116.594C2375.52 117.531 2373.23 118 2370.59 118H2367.01ZM2435.52 102.339L2455.17 68.9091H2467.06V118H2455.87V84.5376L2436.28 118H2424.36V68.9091H2435.52V102.339ZM2478.94 136.409V68.9091H2490.32V77.027H2490.99C2491.59 75.8338 2492.43 74.566 2493.52 73.2237C2494.6 71.8601 2496.07 70.6989 2497.93 69.7401C2499.78 68.7599 2502.14 68.2699 2505.02 68.2699C2508.81 68.2699 2512.23 69.2393 2515.28 71.1783C2518.35 73.0959 2520.78 75.9403 2522.57 79.7116C2524.38 83.4616 2525.28 88.0639 2525.28 93.5185C2525.28 98.9091 2524.4 103.49 2522.63 107.261C2520.86 111.033 2518.46 113.909 2515.41 115.891C2512.36 117.872 2508.91 118.863 2505.05 118.863C2502.24 118.863 2499.91 118.394 2498.05 117.457C2496.2 116.519 2494.71 115.39 2493.58 114.069C2492.47 112.727 2491.61 111.459 2490.99 110.266H2490.51V136.409H2478.94ZM2490.29 93.4545C2490.29 96.6293 2490.73 99.4098 2491.63 101.796C2492.55 104.183 2493.86 106.047 2495.56 107.389C2497.29 108.71 2499.37 109.371 2501.83 109.371C2504.38 109.371 2506.52 108.689 2508.25 107.325C2509.98 105.94 2511.27 104.055 2512.15 101.668C2513.04 99.2607 2513.49 96.5227 2513.49 93.4545C2513.49 90.4077 2513.05 87.7017 2512.18 85.3366C2511.31 82.9716 2510.01 81.1179 2508.28 79.7756C2506.56 78.4332 2504.4 77.7621 2501.83 77.7621C2499.35 77.7621 2497.25 78.4119 2495.53 79.7116C2493.8 81.0114 2492.49 82.8331 2491.6 85.1768C2490.72 87.5206 2490.29 90.2798 2490.29 93.4545ZM2540.71 136.409C2539.14 136.409 2537.68 136.281 2536.33 136.026C2535.01 135.791 2533.96 135.514 2533.17 135.195L2535.85 126.182C2537.54 126.672 2539.04 126.906 2540.36 126.885C2541.68 126.864 2542.84 126.448 2543.84 125.638C2544.87 124.85 2545.73 123.529 2546.43 121.675L2547.42 119.023L2529.62 68.9091H2541.9L2553.21 105.983H2553.72L2565.07 68.9091H2577.37L2557.72 123.945C2556.8 126.544 2555.58 128.771 2554.07 130.624C2552.56 132.499 2550.71 133.927 2548.51 134.907C2546.34 135.908 2543.74 136.409 2540.71 136.409ZM2611.3 89.0121V98.5362H2584.87V89.0121H2611.3ZM2594.04 68.9091V118H2582.44V68.9091H2594.04ZM2626.13 118.959C2621.4 118.959 2617.29 117.883 2613.82 115.731C2610.37 113.579 2607.7 110.596 2605.8 106.782C2603.9 102.968 2602.96 98.5575 2602.96 93.5504C2602.96 88.5433 2603.9 84.1435 2605.8 80.3509C2607.7 76.5582 2610.37 73.5966 2613.82 71.4659C2617.29 69.3352 2621.4 68.2699 2626.13 68.2699C2630.84 68.2699 2634.92 69.3352 2638.37 71.4659C2641.84 73.5966 2644.52 76.5582 2646.42 80.3509C2648.34 84.1435 2649.3 88.5433 2649.3 93.5504C2649.3 98.5575 2648.34 102.968 2646.42 106.782C2644.52 110.596 2641.84 113.579 2638.37 115.731C2634.92 117.883 2630.84 118.959 2626.13 118.959ZM2626.13 109.371C2628.92 109.371 2631.2 108.668 2632.97 107.261C2634.73 105.855 2636.03 103.959 2636.87 101.572C2637.7 99.1861 2638.11 96.5121 2638.11 93.5504C2638.11 90.5888 2637.7 87.9148 2636.87 85.5284C2636.03 83.142 2634.73 81.2564 2632.97 79.8714C2631.2 78.4652 2628.92 77.7621 2626.13 77.7621C2623.31 77.7621 2621.01 78.4652 2619.22 79.8714C2617.45 81.2564 2616.15 83.142 2615.32 85.5284C2614.49 87.9148 2614.08 90.5888 2614.08 93.5504C2614.08 96.5334 2614.49 99.218 2615.32 101.604C2616.15 103.991 2617.45 105.887 2619.22 107.293C2621.01 108.678 2623.31 109.371 2626.13 109.371ZM2733.29 108.508L2732.33 132.062H2721.43V118H2715.65V108.508H2733.29ZM2659.56 68.9091H2670.71V108.476H2686.15V68.9091H2697.3V108.476H2712.74V68.9091H2723.89V118H2659.56V68.9091ZM2753.59 102.339L2773.25 68.9091H2785.14V118H2773.95V84.5376L2754.36 118H2742.44V68.9091H2753.59V102.339ZM2808.17 102.339L2827.83 68.9091H2839.72V118H2828.53V84.5376L2808.94 118H2797.02V68.9091H2808.17V102.339ZM2824.66 52.0341H2833.32C2833.32 55.7628 2831.97 58.7883 2829.27 61.1108C2826.58 63.4119 2822.94 64.5625 2818.34 64.5625C2813.78 64.5625 2810.14 63.4119 2807.44 61.1108C2804.75 58.7883 2803.42 55.7628 2803.44 52.0341H2812.04C2812.04 53.5682 2812.51 54.9425 2813.45 56.157C2814.4 57.3501 2816.03 57.9467 2818.34 57.9467C2820.59 57.9467 2822.2 57.3501 2823.16 56.157C2824.14 54.9638 2824.64 53.5895 2824.66 52.0341Z" fill="white"/>
<path d="M3658.9 81.1499V90.8977H3631.12V81.1499H3658.9ZM3612.91 96.8743H3624.83C3625.21 100.923 3626.5 103.991 3628.69 106.079C3630.91 108.167 3634.28 109.211 3638.79 109.211C3642.29 109.211 3645.12 108.337 3647.3 106.59C3649.47 104.822 3651.06 102.371 3652.06 99.2393C3653.06 96.1072 3653.56 92.4638 3653.56 88.3089V82.3643C3653.56 77.9964 3652.99 74.2571 3651.87 71.1463C3650.74 68.0355 3649.05 65.6598 3646.82 64.0192C3644.58 62.3572 3641.81 61.5263 3638.51 61.5263C3635.37 61.5263 3632.85 62.027 3630.93 63.0284C3629.01 64.0298 3627.58 65.4787 3626.62 67.375C3625.66 69.25 3625.04 71.4979 3624.76 74.1186H3612.84C3613.27 69.8572 3614.48 66.0327 3616.49 62.6449C3618.49 59.2571 3621.31 56.5831 3624.95 54.6229C3628.6 52.6413 3633.12 51.6506 3638.51 51.6506C3643.98 51.6506 3648.72 52.9077 3652.73 55.4219C3656.76 57.9361 3659.87 61.4943 3662.06 66.0966C3664.28 70.6989 3665.38 76.1108 3665.38 82.3324V88.4048C3665.38 94.6264 3664.3 100.028 3662.12 104.609C3659.97 109.168 3656.92 112.695 3652.95 115.188C3648.99 117.659 3644.27 118.895 3638.79 118.895C3633.49 118.895 3628.97 117.957 3625.24 116.082C3621.51 114.186 3618.62 111.587 3616.55 108.284C3614.48 104.96 3613.27 101.157 3612.91 96.8743ZM3672.74 118L3672.68 108.476H3674.37C3675.65 108.476 3676.73 108.188 3677.6 107.613C3678.47 107.038 3679.2 106.079 3679.77 104.737C3680.35 103.373 3680.8 101.54 3681.12 99.2393C3681.44 96.9382 3681.66 94.0724 3681.79 90.642L3682.65 68.9091H3718.45V118H3707.26V78.4013H3693.17L3692.4 94.2216C3692.21 98.3125 3691.75 101.86 3691.02 104.864C3690.32 107.847 3689.32 110.308 3688.02 112.247C3686.74 114.186 3685.13 115.635 3683.19 116.594C3681.26 117.531 3678.96 118 3676.32 118H3672.74ZM3751.83 118.959C3746.91 118.959 3742.66 117.936 3739.08 115.891C3735.52 113.824 3732.78 110.905 3730.86 107.134C3728.95 103.341 3727.99 98.8771 3727.99 93.7422C3727.99 88.6925 3728.95 84.2607 3730.86 80.4467C3732.8 76.6115 3735.51 73.6285 3738.98 71.4979C3742.45 69.3459 3746.53 68.2699 3751.22 68.2699C3754.25 68.2699 3757.1 68.7599 3759.79 69.7401C3762.49 70.6989 3764.88 72.1903 3766.95 74.2145C3769.03 76.2386 3770.67 78.8168 3771.87 81.9489C3773.06 85.0597 3773.66 88.767 3773.66 93.071V96.6186H3733.42V88.8203H3762.57C3762.55 86.6044 3762.07 84.6335 3761.13 82.9077C3760.19 81.1605 3758.88 79.7862 3757.2 78.7848C3755.54 77.7834 3753.6 77.2827 3751.38 77.2827C3749.02 77.2827 3746.94 77.858 3745.15 79.0085C3743.36 80.1378 3741.96 81.6293 3740.96 83.483C3739.98 85.3153 3739.48 87.3288 3739.46 89.5234V96.331C3739.46 99.1861 3739.98 101.636 3741.03 103.682C3742.07 105.706 3743.53 107.261 3745.4 108.348C3747.28 109.413 3749.47 109.946 3751.99 109.946C3753.67 109.946 3755.2 109.712 3756.56 109.243C3757.92 108.753 3759.11 108.039 3760.11 107.102C3761.11 106.164 3761.86 105.003 3762.38 103.618L3773.18 104.832C3772.5 107.687 3771.2 110.18 3769.28 112.311C3767.38 114.42 3764.95 116.061 3761.99 117.233C3759.03 118.384 3755.64 118.959 3751.83 118.959ZM3783.45 118V68.9091H3795.02V88.7244H3799.23L3814 68.9091H3827.93L3809.75 93.0071L3828.13 118H3814.13L3800.67 99.495H3795.02V118H3783.45ZM3832 78.4013V68.9091H3874.96V78.4013H3859.07V118H3847.89V78.4013H3832ZM3884.17 136.409V68.9091H3895.55V77.027H3896.22C3896.81 75.8338 3897.66 74.566 3898.74 73.2237C3899.83 71.8601 3901.3 70.6989 3903.15 69.7401C3905.01 68.7599 3907.37 68.2699 3910.25 68.2699C3914.04 68.2699 3917.46 69.2393 3920.51 71.1783C3923.58 73.0959 3926 75.9403 3927.79 79.7116C3929.61 83.4616 3930.51 88.0639 3930.51 93.5185C3930.51 98.9091 3929.63 103.49 3927.86 107.261C3926.09 111.033 3923.68 113.909 3920.63 115.891C3917.59 117.872 3914.14 118.863 3910.28 118.863C3907.47 118.863 3905.13 118.394 3903.28 117.457C3901.43 116.519 3899.94 115.39 3898.81 114.069C3897.7 112.727 3896.84 111.459 3896.22 110.266H3895.74V136.409H3884.17ZM3895.51 93.4545C3895.51 96.6293 3895.96 99.4098 3896.86 101.796C3897.77 104.183 3899.08 106.047 3900.79 107.389C3902.51 108.71 3904.6 109.371 3907.05 109.371C3909.61 109.371 3911.75 108.689 3913.48 107.325C3915.2 105.94 3916.5 104.055 3917.37 101.668C3918.27 99.2607 3918.72 96.5227 3918.72 93.4545C3918.72 90.4077 3918.28 87.7017 3917.41 85.3366C3916.53 82.9716 3915.23 81.1179 3913.51 79.7756C3911.78 78.4332 3909.63 77.7621 3907.05 77.7621C3904.58 77.7621 3902.48 78.4119 3900.76 79.7116C3899.03 81.0114 3897.72 82.8331 3896.82 85.1768C3895.95 87.5206 3895.51 90.2798 3895.51 93.4545ZM3951.57 102.339L3971.23 68.9091H3983.12V118H3971.93V84.5376L3952.34 118H3940.42V68.9091H3951.57V102.339ZM4036 68.9091V118H4024.88V68.9091H4036ZM4030.79 91.0895V100.55C4029.54 101.104 4028.11 101.604 4026.51 102.052C4024.93 102.478 4023.26 102.819 4021.49 103.075C4019.75 103.33 4018 103.458 4016.25 103.458C4009.69 103.458 4004.5 101.988 4000.69 99.0476C3996.89 96.0859 3995 91.473 3995 85.2088V68.8452H4006.06V85.2088C4006.06 87.3182 4006.43 89.0121 4007.18 90.2905C4007.92 91.5689 4009.05 92.5064 4010.56 93.103C4012.08 93.6783 4013.97 93.9659 4016.25 93.9659C4018.81 93.9659 4021.24 93.7102 4023.54 93.1989C4025.84 92.6875 4028.26 91.9844 4030.79 91.0895ZM4069.38 118.959C4064.46 118.959 4060.21 117.936 4056.63 115.891C4053.07 113.824 4050.33 110.905 4048.41 107.134C4046.49 103.341 4045.54 98.8771 4045.54 93.7422C4045.54 88.6925 4046.49 84.2607 4048.41 80.4467C4050.35 76.6115 4053.06 73.6285 4056.53 71.4979C4060 69.3459 4064.08 68.2699 4068.77 68.2699C4071.8 68.2699 4074.65 68.7599 4077.34 69.7401C4080.04 70.6989 4082.43 72.1903 4084.49 74.2145C4086.58 76.2386 4088.22 78.8168 4089.42 81.9489C4090.61 85.0597 4091.21 88.767 4091.21 93.071V96.6186H4050.97V88.8203H4080.12C4080.1 86.6044 4079.62 84.6335 4078.68 82.9077C4077.74 81.1605 4076.43 79.7862 4074.75 78.7848C4073.09 77.7834 4071.15 77.2827 4068.93 77.2827C4066.57 77.2827 4064.49 77.858 4062.7 79.0085C4060.91 80.1378 4059.51 81.6293 4058.51 83.483C4057.53 85.3153 4057.03 87.3288 4057.01 89.5234V96.331C4057.01 99.1861 4057.53 101.636 4058.58 103.682C4059.62 105.706 4061.08 107.261 4062.95 108.348C4064.83 109.413 4067.02 109.946 4069.54 109.946C4071.22 109.946 4072.74 109.712 4074.11 109.243C4075.47 108.753 4076.65 108.039 4077.66 107.102C4078.66 106.164 4079.41 105.003 4079.92 103.618L4090.73 104.832C4090.05 107.687 4088.75 110.18 4086.83 112.311C4084.93 114.42 4082.5 116.061 4079.54 117.233C4076.58 118.384 4073.19 118.959 4069.38 118.959ZM4122.41 118.959C4117.51 118.959 4113.3 117.883 4109.78 115.731C4106.29 113.579 4103.59 110.607 4101.7 106.814C4099.82 103 4098.89 98.6108 4098.89 93.6463C4098.89 88.6605 4099.84 84.2607 4101.76 80.4467C4103.68 76.6115 4106.39 73.6285 4109.88 71.4979C4113.39 69.3459 4117.55 68.2699 4122.34 68.2699C4126.33 68.2699 4129.85 69.005 4132.92 70.4751C4136.01 71.924 4138.47 73.9801 4140.31 76.6435C4142.14 79.2855 4143.18 82.375 4143.44 85.9119H4132.38C4131.93 83.5469 4130.87 81.576 4129.18 79.9993C4127.52 78.4013 4125.29 77.6023 4122.5 77.6023C4120.14 77.6023 4118.06 78.2415 4116.27 79.5199C4114.48 80.777 4113.09 82.5881 4112.08 84.9531C4111.1 87.3182 4110.61 90.152 4110.61 93.4545C4110.61 96.7997 4111.1 99.6761 4112.08 102.084C4113.06 104.47 4114.44 106.313 4116.21 107.613C4118 108.891 4120.1 109.531 4122.5 109.531C4124.21 109.531 4125.73 109.211 4127.07 108.572C4128.44 107.911 4129.58 106.963 4130.49 105.727C4131.41 104.491 4132.04 102.989 4132.38 101.221H4143.44C4143.16 104.694 4142.14 107.773 4140.37 110.457C4138.6 113.121 4136.19 115.209 4133.15 116.722C4130.1 118.213 4126.52 118.959 4122.41 118.959ZM4152.94 118V68.9091H4164.51V88.7244H4168.73L4183.49 68.9091H4197.43L4179.24 93.0071L4197.62 118H4183.62L4170.16 99.495H4164.51V118H4152.94ZM4215.33 102.339L4234.99 68.9091H4246.88V118H4235.69V84.5376L4216.1 118H4204.18V68.9091H4215.33V102.339ZM4269.91 102.339L4289.57 68.9091H4301.46V118H4290.27V84.5376L4270.68 118H4258.76V68.9091H4269.91V102.339ZM4286.4 52.0341H4295.06C4295.06 55.7628 4293.71 58.7883 4291.01 61.1108C4288.32 63.4119 4284.68 64.5625 4280.08 64.5625C4275.52 64.5625 4271.88 63.4119 4269.18 61.1108C4266.49 58.7883 4265.16 55.7628 4265.18 52.0341H4273.78C4273.78 53.5682 4274.25 54.9425 4275.19 56.157C4276.14 57.3501 4277.77 57.9467 4280.08 57.9467C4282.33 57.9467 4283.94 57.3501 4284.9 56.157C4285.88 54.9638 4286.38 53.5895 4286.4 52.0341ZM4338.54 91.3132C4338.54 83.3232 4339.59 75.983 4341.7 69.2926C4343.83 62.581 4347 56.3807 4351.2 50.6918H4362.09C4360.47 52.8011 4358.96 55.3899 4357.56 58.4581C4356.15 61.505 4354.92 64.8501 4353.88 68.4936C4352.86 72.1158 4352.05 75.8764 4351.45 79.7756C4350.88 83.6747 4350.59 87.5206 4350.59 91.3132C4350.59 96.3629 4351.09 101.477 4352.09 106.654C4353.11 111.832 4354.49 116.626 4356.21 121.036C4357.96 125.468 4359.92 129.09 4362.09 131.903H4351.2C4347 126.214 4343.83 120.024 4341.7 113.334C4339.59 106.622 4338.54 99.282 4338.54 91.3132ZM4388.6 77.794C4386.98 77.8153 4385.49 78.1669 4384.12 78.8487C4382.76 79.5305 4381.66 80.4574 4380.83 81.6293C4380.02 82.7798 4379.62 84.1222 4379.62 85.6562H4368.97C4368.97 83.1847 4369.48 80.8835 4370.51 78.7528C4371.53 76.6222 4372.94 74.7685 4374.73 73.1918C4376.54 71.6151 4378.62 70.3899 4380.99 69.5163C4383.38 68.6214 4385.91 68.174 4388.6 68.174C4393.37 68.174 4397.4 69.282 4400.68 71.4979C4403.98 73.7138 4406.47 76.6967 4408.16 80.4467C4409.86 84.1754 4410.71 88.3089 4410.71 92.8473V94.2216C4410.71 98.7599 4409.87 102.904 4408.19 106.654C4406.5 110.383 4404.01 113.355 4400.71 115.571C4397.43 117.787 4393.39 118.895 4388.6 118.895C4384.76 118.895 4381.36 118.117 4378.4 116.562C4375.46 114.985 4373.15 112.79 4371.47 109.978C4369.8 107.165 4368.97 103.884 4368.97 100.134H4379.62C4379.62 101.754 4380 103.256 4380.77 104.641C4381.53 106.004 4382.59 107.102 4383.93 107.933C4385.29 108.763 4386.85 109.19 4388.6 109.211C4391.22 109.19 4393.33 108.412 4394.92 106.878C4396.54 105.344 4397.72 103.426 4398.44 101.125C4399.19 98.8239 4399.56 96.5227 4399.56 94.2216V92.8473C4399.56 90.3757 4399.19 88 4398.44 85.7202C4397.72 83.419 4396.54 81.5334 4394.92 80.0632C4393.33 78.5717 4391.22 77.8153 4388.6 77.794ZM4403.17 89.5554V97.2259H4384.47V89.5554H4403.17ZM4442.75 134.683V52.5455H4454.35V134.683H4442.75ZM4442.75 118.959C4439.15 118.959 4435.86 118.352 4432.88 117.137C4429.89 115.923 4427.32 114.197 4425.14 111.96C4422.99 109.722 4421.32 107.059 4420.13 103.969C4418.95 100.859 4418.37 97.4176 4418.37 93.6463C4418.37 89.875 4418.95 86.4339 4420.13 83.3232C4421.32 80.2124 4422.99 77.5384 4425.14 75.3011C4427.32 73.0426 4429.89 71.3061 4432.88 70.0916C4435.86 68.8771 4439.15 68.2699 4442.75 68.2699H4445.21V118.959H4442.75ZM4442.75 109.626H4444.19V77.6023H4442.75C4440.71 77.6023 4438.9 78.0284 4437.32 78.8807C4435.76 79.7116 4434.45 80.8729 4433.39 82.3643C4432.34 83.8345 4431.55 85.5391 4430.99 87.478C4430.46 89.3956 4430.19 91.4517 4430.19 93.6463C4430.19 96.5653 4430.67 99.2393 4431.63 101.668C4432.59 104.076 4434 106.004 4435.85 107.453C4437.72 108.902 4440.03 109.626 4442.75 109.626ZM4454.35 118.959H4451.89V68.2699H4454.35C4457.96 68.2699 4461.25 68.8771 4464.23 70.0916C4467.21 71.3061 4469.78 73.0426 4471.93 75.3011C4474.11 77.5384 4475.78 80.2124 4476.95 83.3232C4478.14 86.4339 4478.74 89.875 4478.74 93.6463C4478.74 97.4176 4478.14 100.859 4476.95 103.969C4475.78 107.059 4474.11 109.722 4471.93 111.96C4469.78 114.197 4467.21 115.923 4464.23 117.137C4461.25 118.352 4457.96 118.959 4454.35 118.959ZM4454.35 109.626C4456.42 109.626 4458.23 109.211 4459.79 108.38C4461.34 107.549 4462.64 106.398 4463.69 104.928C4464.75 103.458 4465.55 101.764 4466.08 99.8466C4466.62 97.9077 4466.88 95.8409 4466.88 93.6463C4466.88 90.7273 4466.41 88.0533 4465.48 85.6243C4464.54 83.1953 4463.13 81.2564 4461.26 79.8075C4459.4 78.3374 4457.1 77.6023 4454.35 77.6023H4452.92V109.626H4454.35ZM4502.63 118.991C4499.52 118.991 4496.72 118.437 4494.23 117.329C4491.75 116.2 4489.79 114.538 4488.34 112.343C4486.92 110.148 4486.2 107.442 4486.2 104.225C4486.2 101.455 4486.71 99.1648 4487.74 97.3537C4488.76 95.5426 4490.16 94.0938 4491.92 93.0071C4493.69 91.9205 4495.68 91.1001 4497.9 90.5462C4500.14 89.9709 4502.45 89.5554 4504.84 89.2997C4507.71 89.0014 4510.05 88.7351 4511.84 88.5007C4513.62 88.245 4514.92 87.8615 4515.73 87.3501C4516.57 86.8175 4516.98 85.9972 4516.98 84.8892V84.6974C4516.98 82.2898 4516.27 80.4254 4514.84 79.1044C4513.41 77.7834 4511.36 77.1229 4508.67 77.1229C4505.84 77.1229 4503.59 77.7408 4501.93 78.9766C4500.29 80.2124 4499.18 81.6719 4498.6 83.3551L4487.8 81.821C4488.65 78.8381 4490.06 76.3452 4492.02 74.3423C4493.98 72.3182 4496.38 70.8054 4499.21 69.804C4502.04 68.7812 4505.18 68.2699 4508.61 68.2699C4510.97 68.2699 4513.33 68.5469 4515.67 69.1009C4518.01 69.6548 4520.16 70.571 4522.09 71.8494C4524.03 73.1065 4525.59 74.8217 4526.76 76.995C4527.95 79.1683 4528.55 81.8849 4528.55 85.1449V118H4517.43V111.256H4517.04C4516.34 112.62 4515.35 113.898 4514.07 115.092C4512.82 116.263 4511.23 117.212 4509.31 117.936C4507.41 118.639 4505.19 118.991 4502.63 118.991ZM4505.63 110.489C4507.96 110.489 4509.97 110.031 4511.68 109.115C4513.38 108.178 4514.69 106.942 4515.61 105.408C4516.54 103.874 4517.01 102.201 4517.01 100.39V94.6051C4516.65 94.9034 4516.03 95.1804 4515.16 95.4361C4514.31 95.6918 4513.35 95.9155 4512.28 96.1072C4511.22 96.299 4510.16 96.4695 4509.12 96.6186C4508.07 96.7678 4507.17 96.8956 4506.4 97.0021C4504.68 97.2365 4503.13 97.62 4501.77 98.1527C4500.4 98.6854 4499.33 99.4311 4498.54 100.39C4497.75 101.327 4497.36 102.542 4497.36 104.033C4497.36 106.164 4498.13 107.773 4499.69 108.859C4501.25 109.946 4503.23 110.489 4505.63 110.489ZM4540.18 118V68.9091H4581.64V118H4570.48V78.4013H4551.24V118H4540.18ZM4614.95 118.959C4610.05 118.959 4605.84 117.883 4602.32 115.731C4598.83 113.579 4596.13 110.607 4594.24 106.814C4592.36 103 4591.42 98.6108 4591.42 93.6463C4591.42 88.6605 4592.38 84.2607 4594.3 80.4467C4596.22 76.6115 4598.92 73.6285 4602.42 71.4979C4605.93 69.3459 4610.09 68.2699 4614.88 68.2699C4618.87 68.2699 4622.39 69.005 4625.46 70.4751C4628.55 71.924 4631.01 73.9801 4632.84 76.6435C4634.68 79.2855 4635.72 82.375 4635.98 85.9119H4624.92C4624.47 83.5469 4623.41 81.576 4621.72 79.9993C4620.06 78.4013 4617.83 77.6023 4615.04 77.6023C4612.68 77.6023 4610.6 78.2415 4608.81 79.5199C4607.02 80.777 4605.63 82.5881 4604.62 84.9531C4603.64 87.3182 4603.15 90.152 4603.15 93.4545C4603.15 96.7997 4603.64 99.6761 4604.62 102.084C4605.6 104.47 4606.98 106.313 4608.75 107.613C4610.54 108.891 4612.64 109.531 4615.04 109.531C4616.75 109.531 4618.27 109.211 4619.61 108.572C4620.98 107.911 4622.12 106.963 4623.03 105.727C4623.95 104.491 4624.58 102.989 4624.92 101.221H4635.98C4635.7 104.694 4634.68 107.773 4632.91 110.457C4631.14 113.121 4628.73 115.209 4625.69 116.722C4622.64 118.213 4619.06 118.959 4614.95 118.959ZM4666.12 91.3132C4666.12 99.282 4665.06 106.622 4662.93 113.334C4660.82 120.024 4657.66 126.214 4653.47 131.903H4642.57C4644.21 129.793 4645.72 127.215 4647.11 124.168C4648.51 121.121 4649.73 117.776 4650.75 114.133C4651.79 110.489 4652.6 106.718 4653.18 102.819C4653.78 98.9197 4654.07 95.0845 4654.07 91.3132C4654.07 86.2635 4653.56 81.1499 4652.54 75.9723C4651.54 70.7947 4650.16 65.9901 4648.42 61.5582C4646.69 57.1264 4644.74 53.5043 4642.57 50.6918H4653.47C4657.66 56.3807 4660.82 62.581 4662.93 69.2926C4665.06 75.983 4666.12 83.3232 4666.12 91.3132Z" fill="white"/>
<path d="M337 1091.6C333.79 1091.6 331.055 1090.72 328.797 1088.98C326.538 1087.21 324.813 1084.66 323.619 1081.33C322.426 1077.97 321.83 1073.93 321.83 1069.18C321.83 1064.47 322.426 1060.44 323.619 1057.1C324.827 1053.75 326.56 1051.19 328.818 1049.43C331.091 1047.65 333.818 1046.77 337 1046.77C340.182 1046.77 342.902 1047.65 345.161 1049.43C347.433 1051.19 349.166 1053.75 350.359 1057.1C351.567 1060.44 352.17 1064.47 352.17 1069.18C352.17 1073.93 351.574 1077.97 350.381 1081.33C349.188 1084.66 347.462 1087.21 345.203 1088.98C342.945 1090.72 340.21 1091.6 337 1091.6ZM337 1086.91C340.182 1086.91 342.653 1085.37 344.415 1082.31C346.176 1079.24 347.057 1074.86 347.057 1069.18C347.057 1065.4 346.652 1062.19 345.842 1059.53C345.047 1056.87 343.896 1054.85 342.391 1053.46C340.899 1052.07 339.102 1051.37 337 1051.37C333.847 1051.37 331.382 1052.92 329.607 1056.04C327.831 1059.13 326.943 1063.51 326.943 1069.18C326.943 1072.96 327.341 1076.17 328.136 1078.81C328.932 1081.45 330.075 1083.46 331.567 1084.84C333.072 1086.22 334.884 1086.91 337 1086.91Z" fill="#767382"/>
<path d="M1929 1091.6C1925.79 1091.6 1923.06 1090.72 1920.8 1088.98C1918.54 1087.21 1916.81 1084.66 1915.62 1081.33C1914.43 1077.97 1913.83 1073.93 1913.83 1069.18C1913.83 1064.47 1914.43 1060.44 1915.62 1057.1C1916.83 1053.75 1918.56 1051.19 1920.82 1049.43C1923.09 1047.65 1925.82 1046.77 1929 1046.77C1932.18 1046.77 1934.9 1047.65 1937.16 1049.43C1939.43 1051.19 1941.17 1053.75 1942.36 1057.1C1943.57 1060.44 1944.17 1064.47 1944.17 1069.18C1944.17 1073.93 1943.57 1077.97 1942.38 1081.33C1941.19 1084.66 1939.46 1087.21 1937.2 1088.98C1934.94 1090.72 1932.21 1091.6 1929 1091.6ZM1929 1086.91C1932.18 1086.91 1934.65 1085.37 1936.41 1082.31C1938.18 1079.24 1939.06 1074.86 1939.06 1069.18C1939.06 1065.4 1938.65 1062.19 1937.84 1059.53C1937.05 1056.87 1935.9 1054.85 1934.39 1053.46C1932.9 1052.07 1931.1 1051.37 1929 1051.37C1925.85 1051.37 1923.38 1052.92 1921.61 1056.04C1919.83 1059.13 1918.94 1063.51 1918.94 1069.18C1918.94 1072.96 1919.34 1076.17 1920.14 1078.81C1920.93 1081.45 1922.08 1083.46 1923.57 1084.84C1925.07 1086.22 1926.88 1086.91 1929 1086.91Z" fill="#767382"/>
<path d="M3586 1091.6C3582.79 1091.6 3580.06 1090.72 3577.8 1088.98C3575.54 1087.21 3573.81 1084.66 3572.62 1081.33C3571.43 1077.97 3570.83 1073.93 3570.83 1069.18C3570.83 1064.47 3571.43 1060.44 3572.62 1057.1C3573.83 1053.75 3575.56 1051.19 3577.82 1049.43C3580.09 1047.65 3582.82 1046.77 3586 1046.77C3589.18 1046.77 3591.9 1047.65 3594.16 1049.43C3596.43 1051.19 3598.17 1053.75 3599.36 1057.1C3600.57 1060.44 3601.17 1064.47 3601.17 1069.18C3601.17 1073.93 3600.57 1077.97 3599.38 1081.33C3598.19 1084.66 3596.46 1087.21 3594.2 1088.98C3591.94 1090.72 3589.21 1091.6 3586 1091.6ZM3586 1086.91C3589.18 1086.91 3591.65 1085.37 3593.41 1082.31C3595.18 1079.24 3596.06 1074.86 3596.06 1069.18C3596.06 1065.4 3595.65 1062.19 3594.84 1059.53C3594.05 1056.87 3592.9 1054.85 3591.39 1053.46C3589.9 1052.07 3588.1 1051.37 3586 1051.37C3582.85 1051.37 3580.38 1052.92 3578.61 1056.04C3576.83 1059.13 3575.94 1063.51 3575.94 1069.18C3575.94 1072.96 3576.34 1076.17 3577.14 1078.81C3577.93 1081.45 3579.08 1083.46 3580.57 1084.84C3582.07 1086.22 3583.88 1086.91 3586 1086.91Z" fill="#767382"/>
<path d="M1258 387.597C1254.79 387.597 1252.06 386.723 1249.8 384.976C1247.54 383.214 1245.81 380.665 1244.62 377.327C1243.43 373.974 1242.83 369.926 1242.83 365.182C1242.83 360.466 1243.43 356.439 1244.62 353.101C1245.83 349.749 1247.56 347.192 1249.82 345.43C1252.09 343.655 1254.82 342.767 1258 342.767C1261.18 342.767 1263.9 343.655 1266.16 345.43C1268.43 347.192 1270.17 349.749 1271.36 353.101C1272.57 356.439 1273.17 360.466 1273.17 365.182C1273.17 369.926 1272.57 373.974 1271.38 377.327C1270.19 380.665 1268.46 383.214 1266.2 384.976C1263.94 386.723 1261.21 387.597 1258 387.597ZM1258 382.909C1261.18 382.909 1263.65 381.375 1265.41 378.307C1267.18 375.239 1268.06 370.864 1268.06 365.182C1268.06 361.403 1267.65 358.186 1266.84 355.53C1266.05 352.874 1264.9 350.849 1263.39 349.457C1261.9 348.065 1260.1 347.369 1258 347.369C1254.85 347.369 1252.38 348.925 1250.61 352.036C1248.83 355.132 1247.94 359.514 1247.94 365.182C1247.94 368.96 1248.34 372.17 1249.14 374.812C1249.93 377.455 1251.08 379.464 1252.57 380.842C1254.07 382.22 1255.88 382.909 1258 382.909Z" fill="#767382"/>
<path d="M2850 387.597C2846.79 387.597 2844.06 386.723 2841.8 384.976C2839.54 383.214 2837.81 380.665 2836.62 377.327C2835.43 373.974 2834.83 369.926 2834.83 365.182C2834.83 360.466 2835.43 356.439 2836.62 353.101C2837.83 349.749 2839.56 347.192 2841.82 345.43C2844.09 343.655 2846.82 342.767 2850 342.767C2853.18 342.767 2855.9 343.655 2858.16 345.43C2860.43 347.192 2862.17 349.749 2863.36 353.101C2864.57 356.439 2865.17 360.466 2865.17 365.182C2865.17 369.926 2864.57 373.974 2863.38 377.327C2862.19 380.665 2860.46 383.214 2858.2 384.976C2855.94 386.723 2853.21 387.597 2850 387.597ZM2850 382.909C2853.18 382.909 2855.65 381.375 2857.41 378.307C2859.18 375.239 2860.06 370.864 2860.06 365.182C2860.06 361.403 2859.65 358.186 2858.84 355.53C2858.05 352.874 2856.9 350.849 2855.39 349.457C2853.9 348.065 2852.1 347.369 2850 347.369C2846.85 347.369 2844.38 348.925 2842.61 352.036C2840.83 355.132 2839.94 359.514 2839.94 365.182C2839.94 368.96 2840.34 372.17 2841.14 374.812C2841.93 377.455 2843.08 379.464 2844.57 380.842C2846.07 382.22 2847.88 382.909 2850 382.909Z" fill="#767382"/>
<path d="M4507 387.597C4503.79 387.597 4501.06 386.723 4498.8 384.976C4496.54 383.214 4494.81 380.665 4493.62 377.327C4492.43 373.974 4491.83 369.926 4491.83 365.182C4491.83 360.466 4492.43 356.439 4493.62 353.101C4494.83 349.749 4496.56 347.192 4498.82 345.43C4501.09 343.655 4503.82 342.767 4507 342.767C4510.18 342.767 4512.9 343.655 4515.16 345.43C4517.43 347.192 4519.17 349.749 4520.36 353.101C4521.57 356.439 4522.17 360.466 4522.17 365.182C4522.17 369.926 4521.57 373.974 4520.38 377.327C4519.19 380.665 4517.46 383.214 4515.2 384.976C4512.94 386.723 4510.21 387.597 4507 387.597ZM4507 382.909C4510.18 382.909 4512.65 381.375 4514.41 378.307C4516.18 375.239 4517.06 370.864 4517.06 365.182C4517.06 361.403 4516.65 358.186 4515.84 355.53C4515.05 352.874 4513.9 350.849 4512.39 349.457C4510.9 348.065 4509.1 347.369 4507 347.369C4503.85 347.369 4501.38 348.925 4499.61 352.036C4497.83 355.132 4496.94 359.514 4496.94 365.182C4496.94 368.96 4497.34 372.17 4498.14 374.812C4498.93 377.455 4500.08 379.464 4501.57 380.842C4503.07 382.22 4504.88 382.909 4507 382.909Z" fill="#767382"/>
<line x1="523.863" y1="1129.23" x2="1295.86" y2="534.228" stroke="#767382" stroke-width="7"/>
<line x1="523.863" y1="1129.23" x2="1295.86" y2="534.228" stroke="url(#paint0_linear_143_660)" stroke-width="7"/>
<line x1="2115.86" y1="1129.23" x2="2887.86" y2="534.228" stroke="#767382" stroke-width="7" stroke-dasharray="30 30"/>
<line x1="2115.86" y1="1129.23" x2="2887.86" y2="534.228" stroke="url(#paint1_linear_143_660)" stroke-width="7" stroke-dasharray="30 30"/>
<line x1="3772.86" y1="1129.23" x2="4544.86" y2="534.228" stroke="#767382" stroke-width="7" stroke-dasharray="14 14"/>
<line x1="3772.86" y1="1129.23" x2="4544.86" y2="534.228" stroke="url(#paint2_linear_143_660)" stroke-width="7" stroke-dasharray="14 14"/>
</g>
<defs>
<filter id="filter0_d_143_660" x="-4" y="0" width="5083" height="1378" filterUnits="userSpaceOnUse" color-interpolation-filters="sRGB">
<feFlood flood-opacity="0" result="BackgroundImageFix"/>
<feColorMatrix in="SourceAlpha" type="matrix" values="0 0 0 0 0 0 0 0 0 0 0 0 0 0 0 0 0 0 127 0" result="hardAlpha"/>
<feOffset dy="4"/>
<feGaussianBlur stdDeviation="2"/>
<feComposite in2="hardAlpha" operator="out"/>
<feColorMatrix type="matrix" values="0 0 0 0 0 0 0 0 0 0 0 0 0 0 0 0 0 0 0.25 0"/>
<feBlend mode="normal" in2="BackgroundImageFix" result="effect1_dropShadow_143_660"/>
<feBlend mode="normal" in="SourceGraphic" in2="effect1_dropShadow_143_660" result="shape"/>
</filter>
<linearGradient id="paint0_linear_143_660" x1="526" y1="1132" x2="1298" y2="537" gradientUnits="userSpaceOnUse">
<stop stop-color="#10CC55"/>
<stop offset="1" stop-color="#767382"/>
</linearGradient>
<linearGradient id="paint1_linear_143_660" x1="2118" y1="1132" x2="2890" y2="537" gradientUnits="userSpaceOnUse">
<stop stop-color="#10CC55"/>
<stop offset="1" stop-color="#767382"/>
</linearGradient>
<linearGradient id="paint2_linear_143_660" x1="3775" y1="1132" x2="4547" y2="537" gradientUnits="userSpaceOnUse">
<stop stop-color="#10CC55"/>
<stop offset="1" stop-color="#767382"/>
</linearGradient>
</defs>
</svg>
