<svg width="1140" height="567" viewBox="0 0 1140 567" fill="none" xmlns="http://www.w3.org/2000/svg">
<rect x="315.5" y="95.5" width="501" height="76" rx="18.5" stroke="#00CC22"/>
<rect x="37.5" y="389.5" width="1064" height="80" rx="18.5" stroke="#4EEC54"/>
<path d="M72.5069 370.917C72.4612 371.19 72.6449 371.447 72.9172 371.493L77.3552 372.238C77.6275 372.284 77.8853 372.1 77.931 371.828C77.9767 371.555 77.793 371.297 77.5207 371.252L73.5759 370.59L74.2379 366.645C74.2836 366.372 74.0998 366.115 73.8275 366.069C73.5552 366.023 73.2974 366.207 73.2517 366.479L72.5069 370.917ZM327.493 190.083C327.539 189.81 327.355 189.553 327.083 189.507L322.645 188.762C322.372 188.716 322.115 188.9 322.069 189.172C322.023 189.445 322.207 189.703 322.479 189.748L326.424 190.41L325.762 194.355C325.716 194.628 325.9 194.885 326.172 194.931C326.445 194.977 326.703 194.793 326.748 194.521L327.493 190.083ZM73.2902 371.407L327.29 190.407L326.71 189.593L72.7098 370.593L73.2902 371.407Z" fill="#58606E"/>
<path d="M114.504 370.935C114.468 371.208 114.661 371.46 114.935 371.496L119.396 372.084C119.67 372.12 119.921 371.928 119.957 371.654C119.993 371.38 119.801 371.129 119.527 371.093L115.561 370.57L116.084 366.604C116.12 366.33 115.928 366.079 115.654 366.043C115.38 366.007 115.129 366.199 115.093 366.473L114.504 370.935ZM351.496 190.065C351.532 189.792 351.339 189.54 351.065 189.504L346.604 188.916C346.33 188.88 346.079 189.072 346.043 189.346C346.007 189.62 346.199 189.871 346.473 189.907L350.439 190.43L349.916 194.396C349.88 194.67 350.072 194.921 350.346 194.957C350.62 194.993 350.871 194.801 350.907 194.527L351.496 190.065ZM115.304 371.397L351.304 190.397L350.696 189.603L114.696 370.603L115.304 371.397Z" fill="#58606E"/>
<path d="M162.501 370.962C162.48 371.237 162.687 371.477 162.962 371.499L167.449 371.842C167.724 371.863 167.964 371.657 167.985 371.382C168.006 371.106 167.8 370.866 167.525 370.845L163.537 370.54L163.842 366.551C163.863 366.276 163.657 366.036 163.382 366.015C163.106 365.994 162.866 366.2 162.845 366.475L162.501 370.962ZM374.499 190.038C374.52 189.763 374.313 189.523 374.038 189.501L369.551 189.158C369.276 189.137 369.036 189.343 369.015 189.618C368.994 189.894 369.2 190.134 369.475 190.155L373.463 190.46L373.158 194.449C373.137 194.724 373.343 194.964 373.618 194.985C373.894 195.006 374.134 194.8 374.155 194.525L374.499 190.038ZM163.326 371.38L374.326 190.379L373.674 189.62L162.674 370.62L163.326 371.38Z" fill="#58606E"/>
<path d="M212.5 370.995C212.497 371.271 212.718 371.497 212.995 371.5L217.494 371.549C217.77 371.552 217.997 371.331 218 371.055C218.003 370.779 217.781 370.552 217.505 370.549L213.505 370.505L213.549 366.506C213.552 366.23 213.331 366.003 213.055 366C212.779 365.997 212.552 366.219 212.549 366.495L212.5 370.995ZM398.5 190.005C398.503 189.729 398.282 189.503 398.005 189.5L393.506 189.451C393.23 189.448 393.003 189.669 393 189.945C392.997 190.221 393.219 190.448 393.495 190.451L397.495 190.495L397.451 194.494C397.448 194.77 397.669 194.997 397.945 195C398.221 195.003 398.448 194.781 398.451 194.505L398.5 190.005ZM213.35 371.357L398.35 190.357L397.65 189.643L212.65 370.643L213.35 371.357Z" fill="#58606E"/>
<path d="M257.501 371.025C257.514 371.3 257.749 371.513 258.025 371.499L262.519 371.278C262.795 371.264 263.008 371.03 262.994 370.754C262.98 370.478 262.746 370.266 262.47 370.279L258.475 370.476L258.278 366.481C258.264 366.205 258.03 365.992 257.754 366.006C257.478 366.02 257.266 366.254 257.279 366.53L257.501 371.025ZM422.499 189.975C422.486 189.7 422.251 189.487 421.975 189.501L417.481 189.722C417.205 189.736 416.992 189.97 417.006 190.246C417.02 190.522 417.254 190.734 417.53 190.721L421.525 190.524L421.722 194.519C421.736 194.795 421.97 195.008 422.246 194.994C422.522 194.98 422.734 194.746 422.721 194.47L422.499 189.975ZM258.371 371.336L422.371 190.336L421.629 189.664L257.629 370.664L258.371 371.336Z" fill="#58606E"/>
<path d="M298.502 371.05C298.53 371.325 298.775 371.525 299.05 371.498L303.527 371.048C303.802 371.021 304.003 370.776 303.975 370.501C303.947 370.226 303.702 370.026 303.428 370.053L299.448 370.453L299.048 366.473C299.021 366.198 298.776 365.997 298.501 366.025C298.226 366.053 298.026 366.298 298.053 366.572L298.502 371.05ZM447.498 189.95C447.47 189.675 447.225 189.475 446.95 189.502L442.473 189.952C442.198 189.979 441.997 190.224 442.025 190.499C442.053 190.774 442.298 190.974 442.572 190.947L446.552 190.547L446.952 194.527C446.979 194.802 447.224 195.003 447.499 194.975C447.774 194.947 447.974 194.702 447.947 194.428L447.498 189.95ZM299.387 371.317L447.387 190.316L446.613 189.683L298.613 370.683L299.387 371.317Z" fill="#58606E"/>
<path d="M350.51 371.101C350.566 371.372 350.831 371.546 351.101 371.49L355.508 370.579C355.778 370.523 355.952 370.258 355.897 369.988C355.841 369.718 355.576 369.544 355.306 369.6L351.388 370.409L350.579 366.492C350.523 366.222 350.258 366.048 349.988 366.103C349.718 366.159 349.544 366.424 349.6 366.694L350.51 371.101ZM470.49 189.899C470.434 189.628 470.169 189.454 469.899 189.51L465.492 190.421C465.222 190.477 465.048 190.742 465.103 191.012C465.159 191.282 465.424 191.456 465.694 191.4L469.612 190.591L470.421 194.508C470.477 194.778 470.742 194.952 471.012 194.897C471.282 194.841 471.456 194.576 471.4 194.306L470.49 189.899ZM351.418 371.275L470.418 190.275L469.582 189.725L350.582 370.725L351.418 371.275Z" fill="#58606E"/>
<path d="M397.524 371.153C397.608 371.416 397.89 371.56 398.153 371.476L402.437 370.1C402.7 370.016 402.845 369.734 402.761 369.471C402.676 369.208 402.394 369.063 402.132 369.148L398.323 370.371L397.1 366.563C397.016 366.3 396.734 366.155 396.471 366.239C396.208 366.324 396.063 366.606 396.148 366.868L397.524 371.153ZM491.476 189.847C491.392 189.584 491.11 189.44 490.847 189.524L486.563 190.9C486.3 190.984 486.155 191.266 486.239 191.529C486.324 191.792 486.606 191.937 486.868 191.852L490.677 190.629L491.9 194.437C491.984 194.7 492.266 194.845 492.529 194.76C492.792 194.676 492.937 194.394 492.852 194.132L491.476 189.847ZM398.445 371.229L491.445 190.228L490.555 189.771L397.555 370.771L398.445 371.229Z" fill="#58606E"/>
<path d="M446.549 371.215C446.668 371.465 446.966 371.57 447.215 371.451L451.276 369.512C451.525 369.393 451.631 369.095 451.512 368.845C451.393 368.596 451.094 368.491 450.845 368.61L447.236 370.333L445.512 366.724C445.393 366.475 445.095 366.369 444.845 366.488C444.596 366.607 444.491 366.906 444.61 367.155L446.549 371.215ZM511.451 189.785C511.332 189.535 511.034 189.43 510.785 189.549L506.724 191.488C506.475 191.607 506.369 191.905 506.488 192.155C506.607 192.404 506.906 192.509 507.155 192.39L510.764 190.667L512.488 194.276C512.607 194.525 512.905 194.631 513.155 194.512C513.404 194.393 513.509 194.094 513.39 193.845L511.451 189.785ZM447.471 371.167L511.471 190.167L510.529 189.833L446.529 370.833L447.471 371.167Z" fill="#58606E"/>
<path d="M490.578 371.269C490.727 371.502 491.036 371.57 491.269 371.422L495.063 369.001C495.295 368.853 495.364 368.543 495.215 368.311C495.067 368.078 494.758 368.01 494.525 368.158L491.153 370.31L489.001 366.937C488.853 366.705 488.543 366.636 488.311 366.785C488.078 366.933 488.01 367.242 488.158 367.475L490.578 371.269ZM531.422 189.731C531.273 189.498 530.964 189.43 530.731 189.578L526.937 191.999C526.705 192.147 526.636 192.457 526.785 192.689C526.933 192.922 527.242 192.99 527.475 192.842L530.847 190.69L532.999 194.063C533.147 194.295 533.457 194.364 533.689 194.215C533.922 194.067 533.99 193.758 533.842 193.525L531.422 189.731ZM491.488 371.108L531.488 190.108L530.512 189.892L490.512 370.892L491.488 371.108Z" fill="#58606E"/>
<path d="M543.629 371.336C543.815 371.54 544.131 371.556 544.336 371.371L547.672 368.351C547.876 368.165 547.892 367.849 547.707 367.644C547.521 367.44 547.205 367.424 547.001 367.609L544.035 370.294L541.351 367.328C541.165 367.124 540.849 367.108 540.644 367.293C540.44 367.479 540.424 367.795 540.609 367.999L543.629 371.336ZM553.371 189.664C553.185 189.46 552.869 189.444 552.664 189.629L549.328 192.649C549.124 192.835 549.108 193.151 549.293 193.356C549.479 193.56 549.795 193.576 549.999 193.391L552.965 190.706L555.649 193.672C555.835 193.876 556.151 193.892 556.356 193.707C556.56 193.521 556.576 193.205 556.391 193.001L553.371 189.664ZM544.499 371.025L553.499 190.025L552.501 189.975L543.501 370.975L544.499 371.025Z" fill="#58606E"/>
<path d="M1058.49 370.917C1058.54 371.19 1058.36 371.447 1058.08 371.493L1053.64 372.238C1053.37 372.284 1053.11 372.1 1053.07 371.828C1053.02 371.555 1053.21 371.297 1053.48 371.252L1057.42 370.59L1056.76 366.645C1056.72 366.372 1056.9 366.115 1057.17 366.069C1057.44 366.023 1057.7 366.207 1057.75 366.479L1058.49 370.917ZM803.507 190.083C803.461 189.81 803.645 189.553 803.917 189.507L808.355 188.762C808.628 188.716 808.885 188.9 808.931 189.172C808.977 189.445 808.793 189.703 808.521 189.748L804.576 190.41L805.238 194.355C805.284 194.628 805.1 194.885 804.828 194.931C804.555 194.977 804.297 194.793 804.252 194.521L803.507 190.083ZM1057.71 371.407L803.71 190.407L804.29 189.593L1058.29 370.593L1057.71 371.407Z" fill="#58606E"/>
<path d="M1016.5 370.935C1016.53 371.208 1016.34 371.46 1016.07 371.496L1011.6 372.084C1011.33 372.12 1011.08 371.928 1011.04 371.654C1011.01 371.38 1011.2 371.129 1011.47 371.093L1015.44 370.57L1014.92 366.604C1014.88 366.33 1015.07 366.079 1015.35 366.043C1015.62 366.007 1015.87 366.199 1015.91 366.473L1016.5 370.935ZM779.504 190.065C779.468 189.792 779.661 189.54 779.935 189.504L784.396 188.916C784.67 188.88 784.921 189.072 784.957 189.346C784.993 189.62 784.801 189.871 784.527 189.907L780.561 190.43L781.084 194.396C781.12 194.67 780.928 194.921 780.654 194.957C780.38 194.993 780.129 194.801 780.093 194.527L779.504 190.065ZM1015.7 371.397L779.696 190.397L780.304 189.603L1016.3 370.603L1015.7 371.397Z" fill="#58606E"/>
<path d="M968.499 370.962C968.52 371.237 968.313 371.477 968.038 371.499L963.551 371.842C963.276 371.863 963.036 371.657 963.015 371.382C962.994 371.106 963.2 370.866 963.475 370.845L967.463 370.54L967.158 366.551C967.137 366.276 967.343 366.036 967.618 366.015C967.894 365.994 968.134 366.2 968.155 366.475L968.499 370.962ZM756.501 190.038C756.48 189.763 756.687 189.523 756.962 189.501L761.449 189.158C761.724 189.137 761.964 189.343 761.985 189.618C762.006 189.894 761.8 190.134 761.525 190.155L757.537 190.46L757.842 194.449C757.863 194.724 757.657 194.964 757.382 194.985C757.106 195.006 756.866 194.8 756.845 194.525L756.501 190.038ZM967.674 371.38L756.674 190.379L757.326 189.62L968.326 370.62L967.674 371.38Z" fill="#58606E"/>
<path d="M918.5 370.995C918.503 371.271 918.282 371.497 918.005 371.5L913.506 371.549C913.23 371.552 913.003 371.331 913 371.055C912.997 370.779 913.219 370.552 913.495 370.549L917.495 370.505L917.451 366.506C917.448 366.23 917.669 366.003 917.945 366C918.221 365.997 918.448 366.219 918.451 366.495L918.5 370.995ZM732.5 190.005C732.497 189.729 732.718 189.503 732.995 189.5L737.494 189.451C737.77 189.448 737.997 189.669 738 189.945C738.003 190.221 737.781 190.448 737.505 190.451L733.505 190.495L733.549 194.494C733.552 194.77 733.331 194.997 733.055 195C732.779 195.003 732.552 194.781 732.549 194.505L732.5 190.005ZM917.65 371.357L732.65 190.357L733.35 189.643L918.35 370.643L917.65 371.357Z" fill="#58606E"/>
<path d="M873.499 371.025C873.486 371.3 873.251 371.513 872.975 371.499L868.481 371.278C868.205 371.264 867.992 371.03 868.006 370.754C868.02 370.478 868.254 370.266 868.53 370.279L872.525 370.476L872.722 366.481C872.736 366.205 872.97 365.992 873.246 366.006C873.522 366.02 873.734 366.254 873.721 366.53L873.499 371.025ZM708.501 189.975C708.514 189.7 708.749 189.487 709.025 189.501L713.519 189.722C713.795 189.736 714.008 189.97 713.994 190.246C713.98 190.522 713.746 190.734 713.47 190.721L709.475 190.524L709.278 194.519C709.264 194.795 709.03 195.008 708.754 194.994C708.478 194.98 708.266 194.746 708.279 194.47L708.501 189.975ZM872.629 371.336L708.629 190.336L709.371 189.664L873.371 370.664L872.629 371.336Z" fill="#58606E"/>
<path d="M832.498 371.05C832.47 371.325 832.225 371.525 831.95 371.498L827.473 371.048C827.198 371.021 826.997 370.776 827.025 370.501C827.053 370.226 827.298 370.026 827.572 370.053L831.552 370.453L831.952 366.473C831.979 366.198 832.224 365.997 832.499 366.025C832.774 366.053 832.974 366.298 832.947 366.572L832.498 371.05ZM683.502 189.95C683.53 189.675 683.775 189.475 684.05 189.502L688.527 189.952C688.802 189.979 689.003 190.224 688.975 190.499C688.947 190.774 688.702 190.974 688.428 190.947L684.448 190.547L684.048 194.527C684.021 194.802 683.776 195.003 683.501 194.975C683.226 194.947 683.026 194.702 683.053 194.428L683.502 189.95ZM831.613 371.317L683.613 190.316L684.387 189.683L832.387 370.683L831.613 371.317Z" fill="#58606E"/>
<path d="M780.49 371.101C780.434 371.372 780.169 371.546 779.899 371.49L775.492 370.579C775.222 370.523 775.048 370.258 775.103 369.988C775.159 369.718 775.424 369.544 775.694 369.6L779.612 370.409L780.421 366.492C780.477 366.222 780.742 366.048 781.012 366.103C781.282 366.159 781.456 366.424 781.4 366.694L780.49 371.101ZM660.51 189.899C660.566 189.628 660.831 189.454 661.101 189.51L665.508 190.421C665.778 190.477 665.952 190.742 665.897 191.012C665.841 191.282 665.576 191.456 665.306 191.4L661.388 190.591L660.579 194.508C660.523 194.778 660.258 194.952 659.988 194.897C659.718 194.841 659.544 194.576 659.6 194.306L660.51 189.899ZM779.582 371.275L660.582 190.275L661.418 189.725L780.418 370.725L779.582 371.275Z" fill="#58606E"/>
<path d="M733.476 371.153C733.392 371.416 733.11 371.56 732.847 371.476L728.563 370.1C728.3 370.016 728.155 369.734 728.239 369.471C728.324 369.208 728.606 369.063 728.868 369.148L732.677 370.371L733.9 366.563C733.984 366.3 734.266 366.155 734.529 366.239C734.792 366.324 734.937 366.606 734.852 366.868L733.476 371.153ZM639.524 189.847C639.608 189.584 639.89 189.44 640.153 189.524L644.437 190.9C644.7 190.984 644.845 191.266 644.761 191.529C644.676 191.792 644.394 191.937 644.132 191.852L640.323 190.629L639.1 194.437C639.016 194.7 638.734 194.845 638.471 194.76C638.208 194.676 638.063 194.394 638.148 194.132L639.524 189.847ZM732.555 371.229L639.555 190.228L640.445 189.771L733.445 370.771L732.555 371.229Z" fill="#58606E"/>
<path d="M684.451 371.215C684.332 371.465 684.034 371.57 683.785 371.451L679.724 369.512C679.475 369.393 679.369 369.095 679.488 368.845C679.607 368.596 679.906 368.491 680.155 368.61L683.764 370.333L685.488 366.724C685.607 366.475 685.905 366.369 686.155 366.488C686.404 366.607 686.509 366.906 686.39 367.155L684.451 371.215ZM619.549 189.785C619.668 189.535 619.966 189.43 620.215 189.549L624.276 191.488C624.525 191.607 624.631 191.905 624.512 192.155C624.393 192.404 624.094 192.509 623.845 192.39L620.236 190.667L618.512 194.276C618.393 194.525 618.095 194.631 617.845 194.512C617.596 194.393 617.491 194.094 617.61 193.845L619.549 189.785ZM683.529 371.167L619.529 190.167L620.471 189.833L684.471 370.833L683.529 371.167Z" fill="#58606E"/>
<path d="M640.422 371.269C640.273 371.502 639.964 371.57 639.731 371.422L635.937 369.001C635.705 368.853 635.636 368.543 635.785 368.311C635.933 368.078 636.242 368.01 636.475 368.158L639.847 370.31L641.999 366.937C642.147 366.705 642.457 366.636 642.689 366.785C642.922 366.933 642.99 367.242 642.842 367.475L640.422 371.269ZM599.578 189.731C599.727 189.498 600.036 189.43 600.269 189.578L604.063 191.999C604.295 192.147 604.364 192.457 604.215 192.689C604.067 192.922 603.758 192.99 603.525 192.842L600.153 190.69L598.001 194.063C597.853 194.295 597.543 194.364 597.311 194.215C597.078 194.067 597.01 193.758 597.158 193.525L599.578 189.731ZM639.512 371.108L599.512 190.108L600.488 189.892L640.488 370.892L639.512 371.108Z" fill="#58606E"/>
<path d="M587.371 371.336C587.185 371.54 586.869 371.556 586.664 371.371L583.328 368.351C583.124 368.165 583.108 367.849 583.293 367.644C583.479 367.44 583.795 367.424 583.999 367.609L586.965 370.294L589.649 367.328C589.835 367.124 590.151 367.108 590.356 367.293C590.56 367.479 590.576 367.795 590.391 367.999L587.371 371.336ZM577.629 189.664C577.815 189.46 578.131 189.444 578.336 189.629L581.672 192.649C581.876 192.835 581.892 193.151 581.707 193.356C581.521 193.56 581.205 193.576 581.001 193.391L578.035 190.706L575.351 193.672C575.165 193.876 574.849 193.892 574.644 193.707C574.44 193.521 574.424 193.205 574.609 193.001L577.629 189.664ZM586.501 371.025L577.501 190.025L578.499 189.975L587.499 370.975L586.501 371.025Z" fill="#58606E"/>
<circle cx="70.5" cy="429.5" r="22" stroke="#58606E"/>
<circle cx="458.5" cy="429.5" r="22" stroke="#58606E"/>
<circle cx="126.5" cy="429.5" r="22" stroke="#58606E"/>
<circle cx="181.5" cy="429.5" r="22" stroke="#58606E"/>
<circle cx="237.5" cy="429.5" r="22" stroke="#58606E"/>
<path d="M315.5 429.5C315.5 441.64 305.437 451.5 293 451.5C280.563 451.5 270.5 441.64 270.5 429.5C270.5 417.36 280.563 407.5 293 407.5C305.437 407.5 315.5 417.36 315.5 429.5Z" stroke="#58606E"/>
<circle cx="680.5" cy="429.5" r="22" stroke="#58606E"/>
<path d="M370.5 429.5C370.5 441.64 360.437 451.5 348 451.5C335.563 451.5 325.5 441.64 325.5 429.5C325.5 417.36 335.563 407.5 348 407.5C360.437 407.5 370.5 417.36 370.5 429.5Z" stroke="#58606E"/>
<path d="M758.5 429.5C758.5 441.64 748.437 451.5 736 451.5C723.563 451.5 713.5 441.64 713.5 429.5C713.5 417.36 723.563 407.5 736 407.5C748.437 407.5 758.5 417.36 758.5 429.5Z" stroke="#58606E"/>
<path d="M425.5 429.5C425.5 441.64 415.437 451.5 403 451.5C390.563 451.5 380.5 441.64 380.5 429.5C380.5 417.36 390.563 407.5 403 407.5C415.437 407.5 425.5 417.36 425.5 429.5Z" stroke="#58606E"/>
<path d="M813.5 429.5C813.5 441.64 803.437 451.5 791 451.5C778.563 451.5 768.5 441.64 768.5 429.5C768.5 417.36 778.563 407.5 791 407.5C803.437 407.5 813.5 417.36 813.5 429.5Z" stroke="#58606E"/>
<path d="M868.5 429.5C868.5 441.64 858.437 451.5 846 451.5C833.563 451.5 823.5 441.64 823.5 429.5C823.5 417.36 833.563 407.5 846 407.5C858.437 407.5 868.5 417.36 868.5 429.5Z" stroke="#58606E"/>
<circle cx="901.5" cy="429.5" r="22" stroke="#58606E"/>
<circle cx="957.5" cy="429.5" r="22" stroke="#58606E"/>
<circle cx="1012.5" cy="429.5" r="22" stroke="#58606E"/>
<circle cx="1068.5" cy="429.5" r="22" stroke="#58606E"/>
<path d="M484.367 142V118H499.977V121.645H488.715V128.16H499.168V131.805H488.715V138.355H500.07V142H484.367ZM520.303 124L513.893 142H509.205L502.795 124H507.318L511.455 137.371H511.643L515.791 124H520.303ZM530.595 142.352C528.79 142.352 527.231 141.977 525.919 141.227C524.614 140.469 523.61 139.398 522.907 138.016C522.204 136.625 521.853 134.988 521.853 133.105C521.853 131.254 522.204 129.629 522.907 128.23C523.618 126.824 524.61 125.73 525.884 124.949C527.157 124.16 528.653 123.766 530.372 123.766C531.481 123.766 532.528 123.945 533.513 124.305C534.505 124.656 535.38 125.203 536.138 125.945C536.903 126.687 537.505 127.633 537.942 128.781C538.38 129.922 538.599 131.281 538.599 132.859V134.16H523.845V131.301H534.532C534.524 130.488 534.349 129.766 534.005 129.133C533.661 128.492 533.181 127.988 532.563 127.621C531.954 127.254 531.243 127.07 530.431 127.07C529.563 127.07 528.802 127.281 528.146 127.703C527.489 128.117 526.978 128.664 526.61 129.344C526.251 130.016 526.067 130.754 526.06 131.559V134.055C526.06 135.102 526.251 136 526.634 136.75C527.017 137.492 527.552 138.062 528.239 138.461C528.927 138.852 529.731 139.047 530.653 139.047C531.271 139.047 531.829 138.961 532.329 138.789C532.829 138.609 533.263 138.348 533.63 138.004C533.997 137.66 534.274 137.234 534.462 136.727L538.423 137.172C538.173 138.219 537.696 139.133 536.993 139.914C536.298 140.687 535.407 141.289 534.321 141.719C533.235 142.141 531.993 142.352 530.595 142.352ZM546.43 131.453V142H542.188V124H546.242V127.059H546.453C546.867 126.051 547.527 125.25 548.434 124.656C549.348 124.063 550.477 123.766 551.82 123.766C553.063 123.766 554.145 124.031 555.066 124.562C555.996 125.094 556.715 125.863 557.223 126.871C557.738 127.879 557.992 129.102 557.984 130.539V142H553.742V131.195C553.742 129.992 553.43 129.051 552.805 128.371C552.188 127.691 551.332 127.352 550.238 127.352C549.496 127.352 548.836 127.516 548.258 127.844C547.688 128.164 547.238 128.629 546.91 129.238C546.59 129.848 546.43 130.586 546.43 131.453ZM571.285 124V127.281H560.938V124H571.285ZM563.492 119.687H567.734V136.586C567.734 137.156 567.82 137.594 567.992 137.898C568.172 138.195 568.406 138.398 568.695 138.508C568.984 138.617 569.305 138.672 569.656 138.672C569.922 138.672 570.164 138.652 570.383 138.613C570.609 138.574 570.781 138.539 570.898 138.508L571.613 141.824C571.387 141.902 571.063 141.988 570.641 142.082C570.227 142.176 569.719 142.23 569.117 142.246C568.055 142.277 567.098 142.117 566.246 141.766C565.395 141.406 564.719 140.852 564.219 140.102C563.727 139.352 563.484 138.414 563.492 137.289V119.687ZM575.407 142V118H579.755V138.355H590.325V142H575.407ZM601.763 142.352C600.005 142.352 598.481 141.965 597.192 141.191C595.903 140.418 594.903 139.336 594.192 137.945C593.489 136.555 593.138 134.93 593.138 133.07C593.138 131.211 593.489 129.582 594.192 128.184C594.903 126.785 595.903 125.699 597.192 124.926C598.481 124.152 600.005 123.766 601.763 123.766C603.521 123.766 605.044 124.152 606.333 124.926C607.622 125.699 608.618 126.785 609.321 128.184C610.032 129.582 610.388 131.211 610.388 133.07C610.388 134.93 610.032 136.555 609.321 137.945C608.618 139.336 607.622 140.418 606.333 141.191C605.044 141.965 603.521 142.352 601.763 142.352ZM601.786 138.953C602.739 138.953 603.536 138.691 604.177 138.168C604.817 137.637 605.294 136.926 605.606 136.035C605.927 135.145 606.087 134.152 606.087 133.059C606.087 131.957 605.927 130.961 605.606 130.07C605.294 129.172 604.817 128.457 604.177 127.926C603.536 127.395 602.739 127.129 601.786 127.129C600.81 127.129 599.997 127.395 599.349 127.926C598.708 128.457 598.228 129.172 597.907 130.07C597.595 130.961 597.438 131.957 597.438 133.059C597.438 134.152 597.595 135.145 597.907 136.035C598.228 136.926 598.708 137.637 599.349 138.168C599.997 138.691 600.81 138.953 601.786 138.953ZM621.84 142.352C620.082 142.352 618.559 141.965 617.27 141.191C615.98 140.418 614.98 139.336 614.27 137.945C613.566 136.555 613.215 134.93 613.215 133.07C613.215 131.211 613.566 129.582 614.27 128.184C614.98 126.785 615.98 125.699 617.27 124.926C618.559 124.152 620.082 123.766 621.84 123.766C623.598 123.766 625.121 124.152 626.41 124.926C627.699 125.699 628.695 126.785 629.398 128.184C630.109 129.582 630.465 131.211 630.465 133.07C630.465 134.93 630.109 136.555 629.398 137.945C628.695 139.336 627.699 140.418 626.41 141.191C625.121 141.965 623.598 142.352 621.84 142.352ZM621.863 138.953C622.816 138.953 623.613 138.691 624.254 138.168C624.895 137.637 625.371 136.926 625.684 136.035C626.004 135.145 626.164 134.152 626.164 133.059C626.164 131.957 626.004 130.961 625.684 130.07C625.371 129.172 624.895 128.457 624.254 127.926C623.613 127.395 622.816 127.129 621.863 127.129C620.887 127.129 620.074 127.395 619.426 127.926C618.785 128.457 618.305 129.172 617.984 130.07C617.672 130.961 617.516 131.957 617.516 133.059C617.516 134.152 617.672 135.145 617.984 136.035C618.305 136.926 618.785 137.637 619.426 138.168C620.074 138.691 620.887 138.953 621.863 138.953ZM634.065 148.75V124H638.237V126.977H638.483C638.702 126.539 639.011 126.074 639.409 125.582C639.808 125.082 640.347 124.656 641.026 124.305C641.706 123.945 642.573 123.766 643.628 123.766C645.019 123.766 646.272 124.121 647.39 124.832C648.515 125.535 649.405 126.578 650.062 127.961C650.726 129.336 651.058 131.023 651.058 133.023C651.058 135 650.733 136.68 650.085 138.062C649.437 139.445 648.554 140.5 647.437 141.227C646.319 141.953 645.054 142.316 643.64 142.316C642.608 142.316 641.753 142.145 641.073 141.801C640.394 141.457 639.847 141.043 639.433 140.559C639.026 140.066 638.71 139.602 638.483 139.164H638.308V148.75H634.065ZM638.226 133C638.226 134.164 638.39 135.184 638.718 136.059C639.054 136.934 639.534 137.617 640.159 138.109C640.792 138.594 641.558 138.836 642.456 138.836C643.394 138.836 644.179 138.586 644.812 138.086C645.444 137.578 645.921 136.887 646.241 136.012C646.569 135.129 646.733 134.125 646.733 133C646.733 131.883 646.573 130.891 646.253 130.023C645.933 129.156 645.456 128.477 644.823 127.984C644.19 127.492 643.401 127.246 642.456 127.246C641.55 127.246 640.78 127.484 640.147 127.961C639.515 128.437 639.034 129.105 638.706 129.965C638.386 130.824 638.226 131.836 638.226 133Z" fill="white"/>
<path d="M523.09 415V439H519.223L507.914 422.652H507.715V439H503.367V415H507.258L518.555 431.359H518.766V415H523.09ZM535.608 439.352C533.804 439.352 532.245 438.977 530.933 438.227C529.628 437.469 528.624 436.398 527.921 435.016C527.218 433.625 526.866 431.988 526.866 430.105C526.866 428.254 527.218 426.629 527.921 425.23C528.632 423.824 529.624 422.73 530.897 421.949C532.171 421.16 533.667 420.766 535.386 420.766C536.495 420.766 537.542 420.945 538.526 421.305C539.519 421.656 540.394 422.203 541.151 422.945C541.917 423.687 542.519 424.633 542.956 425.781C543.394 426.922 543.612 428.281 543.612 429.859V431.16H528.858V428.301H539.546C539.538 427.488 539.362 426.766 539.019 426.133C538.675 425.492 538.194 424.988 537.577 424.621C536.968 424.254 536.257 424.07 535.444 424.07C534.577 424.07 533.815 424.281 533.159 424.703C532.503 425.117 531.991 425.664 531.624 426.344C531.265 427.016 531.081 427.754 531.073 428.559V431.055C531.073 432.102 531.265 433 531.647 433.75C532.03 434.492 532.565 435.062 533.253 435.461C533.94 435.852 534.745 436.047 535.667 436.047C536.284 436.047 536.843 435.961 537.343 435.789C537.843 435.609 538.276 435.348 538.644 435.004C539.011 434.66 539.288 434.234 539.476 433.727L543.437 434.172C543.187 435.219 542.71 436.133 542.007 436.914C541.312 437.687 540.421 438.289 539.335 438.719C538.249 439.141 537.007 439.352 535.608 439.352ZM558.674 431.43V421H562.916V439H558.803V435.801H558.615C558.209 436.809 557.541 437.633 556.611 438.273C555.689 438.914 554.553 439.234 553.201 439.234C552.021 439.234 550.979 438.973 550.072 438.449C549.174 437.918 548.471 437.148 547.963 436.141C547.455 435.125 547.201 433.898 547.201 432.461V421H551.443V431.805C551.443 432.945 551.756 433.852 552.381 434.523C553.006 435.195 553.826 435.531 554.842 435.531C555.467 435.531 556.072 435.379 556.658 435.074C557.244 434.77 557.725 434.316 558.1 433.715C558.482 433.105 558.674 432.344 558.674 431.43ZM567.278 439V421H571.392V424H571.579C571.907 422.961 572.47 422.16 573.267 421.598C574.071 421.027 574.989 420.742 576.021 420.742C576.255 420.742 576.517 420.754 576.806 420.777C577.103 420.793 577.349 420.82 577.544 420.859V424.762C577.364 424.699 577.079 424.645 576.688 424.598C576.306 424.543 575.935 424.516 575.575 424.516C574.802 424.516 574.106 424.684 573.489 425.02C572.88 425.348 572.399 425.805 572.048 426.391C571.696 426.977 571.521 427.652 571.521 428.418V439H567.278ZM587.473 439.352C585.715 439.352 584.191 438.965 582.902 438.191C581.613 437.418 580.613 436.336 579.902 434.945C579.199 433.555 578.848 431.93 578.848 430.07C578.848 428.211 579.199 426.582 579.902 425.184C580.613 423.785 581.613 422.699 582.902 421.926C584.191 421.152 585.715 420.766 587.473 420.766C589.23 420.766 590.754 421.152 592.043 421.926C593.332 422.699 594.328 423.785 595.031 425.184C595.742 426.582 596.098 428.211 596.098 430.07C596.098 431.93 595.742 433.555 595.031 434.945C594.328 436.336 593.332 437.418 592.043 438.191C590.754 438.965 589.23 439.352 587.473 439.352ZM587.496 435.953C588.449 435.953 589.246 435.691 589.887 435.168C590.527 434.637 591.004 433.926 591.316 433.035C591.637 432.145 591.797 431.152 591.797 430.059C591.797 428.957 591.637 427.961 591.316 427.07C591.004 426.172 590.527 425.457 589.887 424.926C589.246 424.395 588.449 424.129 587.496 424.129C586.52 424.129 585.707 424.395 585.059 424.926C584.418 425.457 583.938 426.172 583.617 427.07C583.305 427.961 583.148 428.957 583.148 430.059C583.148 431.152 583.305 432.145 583.617 433.035C583.938 433.926 584.418 434.637 585.059 435.168C585.707 435.691 586.52 435.953 587.496 435.953ZM603.94 428.453V439H599.698V421H603.753V424.059H603.964C604.378 423.051 605.038 422.25 605.944 421.656C606.858 421.063 607.987 420.766 609.331 420.766C610.573 420.766 611.655 421.031 612.577 421.562C613.507 422.094 614.226 422.863 614.733 423.871C615.249 424.879 615.503 426.102 615.495 427.539V439H611.253V428.195C611.253 426.992 610.94 426.051 610.315 425.371C609.698 424.691 608.843 424.352 607.749 424.352C607.007 424.352 606.347 424.516 605.769 424.844C605.198 425.164 604.749 425.629 604.421 426.238C604.101 426.848 603.94 427.586 603.94 428.453ZM634.034 425.758L630.167 426.18C630.058 425.789 629.866 425.422 629.593 425.078C629.327 424.734 628.968 424.457 628.515 424.246C628.062 424.035 627.507 423.93 626.851 423.93C625.968 423.93 625.226 424.121 624.624 424.504C624.03 424.887 623.737 425.383 623.745 425.992C623.737 426.516 623.929 426.941 624.319 427.27C624.718 427.598 625.374 427.867 626.288 428.078L629.358 428.734C631.062 429.102 632.327 429.684 633.155 430.48C633.991 431.277 634.413 432.32 634.421 433.609C634.413 434.742 634.081 435.742 633.425 436.609C632.776 437.469 631.874 438.141 630.718 438.625C629.562 439.109 628.233 439.352 626.733 439.352C624.53 439.352 622.757 438.891 621.413 437.969C620.069 437.039 619.269 435.746 619.011 434.09L623.147 433.691C623.335 434.504 623.733 435.117 624.343 435.531C624.952 435.945 625.745 436.152 626.722 436.152C627.729 436.152 628.538 435.945 629.147 435.531C629.765 435.117 630.073 434.605 630.073 433.996C630.073 433.48 629.874 433.055 629.476 432.719C629.085 432.383 628.476 432.125 627.647 431.945L624.577 431.301C622.851 430.941 621.573 430.336 620.745 429.484C619.917 428.625 619.507 427.539 619.515 426.227C619.507 425.117 619.808 424.156 620.417 423.344C621.034 422.523 621.89 421.891 622.983 421.445C624.085 420.992 625.354 420.766 626.792 420.766C628.901 420.766 630.562 421.215 631.772 422.113C632.991 423.012 633.745 424.227 634.034 425.758Z" fill="white"/>
<path d="M551.313 39H548.375C548.156 37.9062 547.76 36.8958 547.188 35.9687C546.625 35.0312 545.917 34.2135 545.063 33.5156C544.208 32.8177 543.24 32.276 542.156 31.8906C541.073 31.5052 539.901 31.3125 538.641 31.3125C536.62 31.3125 534.776 31.8385 533.109 32.8906C531.453 33.9427 530.125 35.4896 529.125 37.5312C528.135 39.5625 527.641 42.0521 527.641 45C527.641 47.9687 528.135 50.4687 529.125 52.5C530.125 54.5312 531.453 56.0729 533.109 57.125C534.776 58.1667 536.62 58.6875 538.641 58.6875C539.901 58.6875 541.073 58.4948 542.156 58.1094C543.24 57.724 544.208 57.1875 545.063 56.5C545.917 55.8021 546.625 54.9844 547.188 54.0469C547.76 53.1094 548.156 52.0937 548.375 51H551.313C551.052 52.4687 550.563 53.8385 549.844 55.1094C549.135 56.3698 548.229 57.474 547.125 58.4219C546.031 59.3698 544.771 60.1094 543.344 60.6406C541.917 61.1719 540.349 61.4375 538.641 61.4375C535.953 61.4375 533.568 60.7656 531.484 59.4219C529.401 58.0677 527.766 56.1615 526.578 53.7031C525.401 51.2448 524.812 48.3437 524.812 45C524.812 41.6562 525.401 38.7552 526.578 36.2969C527.766 33.8385 529.401 31.9375 531.484 30.5937C533.568 29.2396 535.953 28.5625 538.641 28.5625C540.349 28.5625 541.917 28.8281 543.344 29.3594C544.771 29.8802 546.031 30.6198 547.125 31.5781C548.229 32.526 549.135 33.6302 549.844 34.8906C550.563 36.151 551.052 37.5208 551.313 39ZM558.176 61V29H568.504C570.775 29 572.671 29.4375 574.191 30.3125C575.723 31.1771 576.874 32.3542 577.645 33.8438C578.426 35.3333 578.816 37.0104 578.816 38.875C578.816 40.7396 578.431 42.4219 577.66 43.9219C576.889 45.4115 575.743 46.5937 574.223 47.4688C572.702 48.3333 570.811 48.7656 568.551 48.7656H560.426V46.1406H568.473C570.15 46.1406 571.54 45.8281 572.645 45.2031C573.749 44.5677 574.572 43.7031 575.113 42.6094C575.665 41.5156 575.941 40.2708 575.941 38.875C575.941 37.4792 575.665 36.2344 575.113 35.1406C574.572 34.0469 573.743 33.1875 572.629 32.5625C571.525 31.9375 570.124 31.625 568.426 31.625H561.098V61H558.176ZM607.004 29H609.926V50.1875C609.926 52.3646 609.415 54.3125 608.395 56.0312C607.374 57.7396 605.952 59.0885 604.129 60.0781C602.316 61.0573 600.207 61.5469 597.801 61.5469C595.405 61.5469 593.296 61.0521 591.473 60.0625C589.65 59.0729 588.228 57.724 587.207 56.0156C586.186 54.3073 585.676 52.3646 585.676 50.1875V29H588.598V49.9844C588.598 51.6823 588.978 53.1979 589.738 54.5312C590.499 55.8542 591.566 56.8958 592.941 57.6562C594.327 58.4167 595.947 58.7969 597.801 58.7969C599.655 58.7969 601.275 58.4167 602.66 57.6562C604.046 56.8958 605.113 55.8542 605.863 54.5312C606.624 53.1979 607.004 51.6823 607.004 49.9844V29Z" fill="white"/>
<path d="M548.391 515C548.099 513.937 547.672 512.943 547.109 512.016C546.547 511.078 545.849 510.26 545.016 509.562C544.193 508.854 543.24 508.302 542.156 507.906C541.083 507.51 539.885 507.312 538.563 507.312C536.479 507.312 534.615 507.854 532.969 508.937C531.323 510.021 530.021 511.583 529.063 513.625C528.115 515.667 527.641 518.125 527.641 521C527.641 523.865 528.12 526.318 529.078 528.359C530.036 530.401 531.349 531.969 533.016 533.062C534.693 534.146 536.609 534.687 538.766 534.687C540.734 534.687 542.474 534.25 543.984 533.375C545.495 532.5 546.672 531.25 547.516 529.625C548.37 528 548.786 526.068 548.766 523.828L549.703 524.125H539.453V521.5H551.609V524.125C551.609 526.854 551.057 529.214 549.953 531.203C548.849 533.193 547.333 534.729 545.406 535.812C543.479 536.896 541.266 537.437 538.766 537.437C535.974 537.437 533.531 536.766 531.438 535.422C529.344 534.068 527.714 532.161 526.547 529.703C525.391 527.234 524.812 524.333 524.812 521C524.812 518.49 525.146 516.224 525.812 514.203C526.479 512.182 527.422 510.453 528.641 509.016C529.87 507.578 531.323 506.479 533 505.719C534.677 504.948 536.531 504.562 538.563 504.562C540.313 504.562 541.911 504.839 543.359 505.391C544.818 505.943 546.099 506.703 547.203 507.672C548.318 508.63 549.229 509.74 549.938 511C550.656 512.25 551.141 513.583 551.391 515H548.391ZM558.863 537V505H569.191C571.462 505 573.358 505.437 574.879 506.312C576.41 507.177 577.561 508.354 578.332 509.844C579.113 511.333 579.504 513.01 579.504 514.875C579.504 516.74 579.118 518.422 578.348 519.922C577.577 521.411 576.431 522.594 574.91 523.469C573.389 524.333 571.499 524.766 569.238 524.766H561.113V522.141H569.16C570.837 522.141 572.228 521.828 573.332 521.203C574.436 520.568 575.259 519.703 575.801 518.609C576.353 517.516 576.629 516.271 576.629 514.875C576.629 513.479 576.353 512.234 575.801 511.141C575.259 510.047 574.431 509.188 573.316 508.563C572.212 507.937 570.811 507.625 569.113 507.625H561.785V537H558.863ZM607.691 505H610.613V526.187C610.613 528.365 610.103 530.312 609.082 532.031C608.061 533.74 606.639 535.089 604.816 536.078C603.004 537.057 600.895 537.547 598.488 537.547C596.092 537.547 593.983 537.052 592.16 536.062C590.337 535.073 588.915 533.724 587.895 532.016C586.874 530.307 586.363 528.365 586.363 526.187V505H589.285V525.984C589.285 527.682 589.665 529.198 590.426 530.531C591.186 531.854 592.254 532.896 593.629 533.656C595.014 534.417 596.634 534.797 598.488 534.797C600.342 534.797 601.962 534.417 603.348 533.656C604.733 532.896 605.801 531.854 606.551 530.531C607.311 529.198 607.691 527.682 607.691 525.984V505Z" fill="white"/>
</svg>
