<svg width="4075" height="2391" viewBox="0 0 4075 2391" fill="none" xmlns="http://www.w3.org/2000/svg">
<rect x="1374.5" y="137.5" width="2437" height="592" rx="57.5" stroke="#10CC55" stroke-width="5"/>
<circle cx="1446.5" cy="207.5" r="44" stroke="#767382" stroke-width="9"/>
<circle cx="1905.5" cy="207.5" r="44" stroke="#767382" stroke-width="9"/>
<circle cx="2363.5" cy="207.5" r="44" stroke="#767382" stroke-width="9"/>
<circle cx="2822.5" cy="207.5" r="44" stroke="#767382" stroke-width="9"/>
<circle cx="3280.5" cy="207.5" r="44" stroke="#767382" stroke-width="9"/>
<circle cx="1676.5" cy="206.5" r="44" stroke="#767382" stroke-width="9"/>
<circle cx="2134.5" cy="206.5" r="44" stroke="#767382" stroke-width="9"/>
<path d="M2636.5 206.5C2636.5 230.845 2616.98 250.5 2593 250.5C2569.02 250.5 2549.5 230.845 2549.5 206.5C2549.5 182.155 2569.02 162.5 2593 162.5C2616.98 162.5 2636.5 182.155 2636.5 206.5Z" stroke="#767382" stroke-width="9"/>
<circle cx="3051.5" cy="206.5" r="44" stroke="#767382" stroke-width="9"/>
<circle cx="3509.5" cy="206.5" r="44" stroke="#767382" stroke-width="9"/>
<circle cx="1446.5" cy="320.5" r="44" stroke="#767382" stroke-width="9"/>
<circle cx="1446.5" cy="546.5" r="44" stroke="#767382" stroke-width="9"/>
<circle cx="1905.5" cy="320.5" r="44" stroke="#767382" stroke-width="9"/>
<circle cx="1905.5" cy="546.5" r="44" stroke="#767382" stroke-width="9"/>
<circle cx="2363.5" cy="320.5" r="44" stroke="#767382" stroke-width="9"/>
<circle cx="2363.5" cy="546.5" r="44" stroke="#767382" stroke-width="9"/>
<circle cx="2822.5" cy="320.5" r="44" stroke="#767382" stroke-width="9"/>
<circle cx="2822.5" cy="546.5" r="44" stroke="#767382" stroke-width="9"/>
<circle cx="3280.5" cy="320.5" r="44" stroke="#767382" stroke-width="9"/>
<circle cx="3280.5" cy="546.5" r="44" stroke="#767382" stroke-width="9"/>
<circle cx="1676.5" cy="319.5" r="44" stroke="#767382" stroke-width="9"/>
<circle cx="1676.5" cy="545.5" r="44" stroke="#767382" stroke-width="9"/>
<circle cx="2134.5" cy="319.5" r="44" stroke="#767382" stroke-width="9"/>
<circle cx="2134.5" cy="545.5" r="44" stroke="#767382" stroke-width="9"/>
<path d="M2636.5 319.5C2636.5 343.845 2616.98 363.5 2593 363.5C2569.02 363.5 2549.5 343.845 2549.5 319.5C2549.5 295.155 2569.02 275.5 2593 275.5C2616.98 275.5 2636.5 295.155 2636.5 319.5Z" stroke="#767382" stroke-width="9"/>
<path d="M2636.5 545.5C2636.5 569.845 2616.98 589.5 2593 589.5C2569.02 589.5 2549.5 569.845 2549.5 545.5C2549.5 521.155 2569.02 501.5 2593 501.5C2616.98 501.5 2636.5 521.155 2636.5 545.5Z" stroke="#767382" stroke-width="9"/>
<circle cx="3051.5" cy="319.5" r="44" stroke="#767382" stroke-width="9"/>
<circle cx="3051.5" cy="545.5" r="44" stroke="#767382" stroke-width="9"/>
<circle cx="3509.5" cy="319.5" r="44" stroke="#767382" stroke-width="9"/>
<circle cx="3509.5" cy="545.5" r="44" stroke="#767382" stroke-width="9"/>
<circle cx="1561.5" cy="320.5" r="44" stroke="#767382" stroke-width="9"/>
<circle cx="1561.5" cy="546.5" r="44" stroke="#767382" stroke-width="9"/>
<circle cx="2019.5" cy="320.5" r="44" stroke="#767382" stroke-width="9"/>
<circle cx="2019.5" cy="546.5" r="44" stroke="#767382" stroke-width="9"/>
<circle cx="2478.5" cy="320.5" r="44" stroke="#767382" stroke-width="9"/>
<circle cx="2478.5" cy="546.5" r="44" stroke="#767382" stroke-width="9"/>
<circle cx="2936.5" cy="320.5" r="44" stroke="#767382" stroke-width="9"/>
<circle cx="2936.5" cy="546.5" r="44" stroke="#767382" stroke-width="9"/>
<circle cx="3395.5" cy="320.5" r="44" stroke="#767382" stroke-width="9"/>
<circle cx="3395.5" cy="546.5" r="44" stroke="#767382" stroke-width="9"/>
<circle cx="1790.5" cy="319.5" r="44" stroke="#767382" stroke-width="9"/>
<circle cx="1790.5" cy="545.5" r="44" stroke="#767382" stroke-width="9"/>
<circle cx="2249.5" cy="319.5" r="44" stroke="#767382" stroke-width="9"/>
<circle cx="2249.5" cy="545.5" r="44" stroke="#767382" stroke-width="9"/>
<circle cx="2707.5" cy="319.5" r="44" stroke="#767382" stroke-width="9"/>
<circle cx="2707.5" cy="545.5" r="44" stroke="#767382" stroke-width="9"/>
<circle cx="3166.5" cy="319.5" r="44" stroke="#767382" stroke-width="9"/>
<circle cx="3166.5" cy="545.5" r="44" stroke="#767382" stroke-width="9"/>
<circle cx="3624.5" cy="319.5" r="44" stroke="#767382" stroke-width="9"/>
<circle cx="3624.5" cy="545.5" r="44" stroke="#767382" stroke-width="9"/>
<circle cx="3739.5" cy="319.5" r="44" stroke="#767382" stroke-width="9"/>
<circle cx="3739.5" cy="545.5" r="44" stroke="#767382" stroke-width="9"/>
<circle cx="1446.5" cy="433.5" r="44" stroke="#767382" stroke-width="9"/>
<circle cx="1446.5" cy="659.5" r="44" stroke="#767382" stroke-width="9"/>
<circle cx="1905.5" cy="433.5" r="44" stroke="#767382" stroke-width="9"/>
<circle cx="1905.5" cy="659.5" r="44" stroke="#767382" stroke-width="9"/>
<circle cx="2363.5" cy="433.5" r="44" stroke="#767382" stroke-width="9"/>
<circle cx="2363.5" cy="659.5" r="44" stroke="#767382" stroke-width="9"/>
<circle cx="2822.5" cy="433.5" r="44" stroke="#767382" stroke-width="9"/>
<circle cx="2822.5" cy="659.5" r="44" stroke="#767382" stroke-width="9"/>
<circle cx="3280.5" cy="433.5" r="44" stroke="#767382" stroke-width="9"/>
<circle cx="3280.5" cy="659.5" r="44" stroke="#767382" stroke-width="9"/>
<circle cx="1676.5" cy="432.5" r="44" stroke="#767382" stroke-width="9"/>
<circle cx="1676.5" cy="658.5" r="44" stroke="#767382" stroke-width="9"/>
<circle cx="2134.5" cy="432.5" r="44" stroke="#767382" stroke-width="9"/>
<circle cx="2134.5" cy="658.5" r="44" stroke="#767382" stroke-width="9"/>
<path d="M2636.5 432.5C2636.5 456.845 2616.98 476.5 2593 476.5C2569.02 476.5 2549.5 456.845 2549.5 432.5C2549.5 408.155 2569.02 388.5 2593 388.5C2616.98 388.5 2636.5 408.155 2636.5 432.5Z" stroke="#767382" stroke-width="9"/>
<path d="M2636.5 658.5C2636.5 682.845 2616.98 702.5 2593 702.5C2569.02 702.5 2549.5 682.845 2549.5 658.5C2549.5 634.155 2569.02 614.5 2593 614.5C2616.98 614.5 2636.5 634.155 2636.5 658.5Z" stroke="#767382" stroke-width="9"/>
<circle cx="3051.5" cy="432.5" r="44" stroke="#767382" stroke-width="9"/>
<circle cx="3051.5" cy="658.5" r="44" stroke="#767382" stroke-width="9"/>
<circle cx="3509.5" cy="432.5" r="44" stroke="#767382" stroke-width="9"/>
<circle cx="3509.5" cy="658.5" r="44" stroke="#767382" stroke-width="9"/>
<circle cx="1561.5" cy="433.5" r="44" stroke="#767382" stroke-width="9"/>
<circle cx="1561.5" cy="659.5" r="44" stroke="#767382" stroke-width="9"/>
<circle cx="2019.5" cy="433.5" r="44" stroke="#767382" stroke-width="9"/>
<circle cx="2019.5" cy="659.5" r="44" stroke="#767382" stroke-width="9"/>
<circle cx="2478.5" cy="433.5" r="44" stroke="#767382" stroke-width="9"/>
<circle cx="2478.5" cy="659.5" r="44" stroke="#767382" stroke-width="9"/>
<circle cx="2936.5" cy="433.5" r="44" stroke="#767382" stroke-width="9"/>
<circle cx="2936.5" cy="659.5" r="44" stroke="#767382" stroke-width="9"/>
<circle cx="3395.5" cy="433.5" r="44" stroke="#767382" stroke-width="9"/>
<circle cx="3395.5" cy="659.5" r="44" stroke="#767382" stroke-width="9"/>
<circle cx="1790.5" cy="432.5" r="44" stroke="#767382" stroke-width="9"/>
<circle cx="1790.5" cy="658.5" r="44" stroke="#767382" stroke-width="9"/>
<circle cx="2249.5" cy="432.5" r="44" stroke="#767382" stroke-width="9"/>
<circle cx="2249.5" cy="658.5" r="44" stroke="#767382" stroke-width="9"/>
<circle cx="2707.5" cy="432.5" r="44" stroke="#767382" stroke-width="9"/>
<circle cx="2707.5" cy="658.5" r="44" stroke="#767382" stroke-width="9"/>
<circle cx="3166.5" cy="432.5" r="44" stroke="#767382" stroke-width="9"/>
<circle cx="3166.5" cy="658.5" r="44" stroke="#767382" stroke-width="9"/>
<circle cx="3624.5" cy="432.5" r="44" stroke="#767382" stroke-width="9"/>
<circle cx="3624.5" cy="658.5" r="44" stroke="#767382" stroke-width="9"/>
<circle cx="3739.5" cy="432.5" r="44" stroke="#767382" stroke-width="9"/>
<circle cx="3739.5" cy="658.5" r="44" stroke="#767382" stroke-width="9"/>
<circle cx="1561.5" cy="207.5" r="44" stroke="#767382" stroke-width="9"/>
<circle cx="2019.5" cy="207.5" r="44" stroke="#767382" stroke-width="9"/>
<circle cx="2478.5" cy="207.5" r="44" stroke="#767382" stroke-width="9"/>
<circle cx="2936.5" cy="207.5" r="44" stroke="#767382" stroke-width="9"/>
<circle cx="3395.5" cy="207.5" r="44" stroke="#767382" stroke-width="9"/>
<circle cx="1790.5" cy="206.5" r="44" stroke="#767382" stroke-width="9"/>
<circle cx="2249.5" cy="206.5" r="44" stroke="#767382" stroke-width="9"/>
<circle cx="2707.5" cy="206.5" r="44" stroke="#767382" stroke-width="9"/>
<circle cx="3166.5" cy="206.5" r="44" stroke="#767382" stroke-width="9"/>
<circle cx="3624.5" cy="206.5" r="44" stroke="#767382" stroke-width="9"/>
<circle cx="3739.5" cy="206.5" r="44" stroke="#767382" stroke-width="9"/>
<path d="M279.61 142.545V208H269.063L238.222 163.415H237.678V208H225.821V142.545H236.432L267.242 187.162H267.817V142.545H279.61ZM313.752 208.959C308.83 208.959 304.579 207.936 301 205.891C297.441 203.824 294.703 200.905 292.786 197.134C290.868 193.341 289.909 188.877 289.909 183.742C289.909 178.692 290.868 174.261 292.786 170.447C294.725 166.612 297.431 163.629 300.904 161.498C304.377 159.346 308.457 158.27 313.145 158.27C316.17 158.27 319.025 158.76 321.71 159.74C324.416 160.699 326.802 162.19 328.869 164.214C330.957 166.239 332.598 168.817 333.791 171.949C334.984 175.06 335.581 178.767 335.581 183.071V186.619H295.343V178.82H324.49C324.469 176.604 323.99 174.634 323.052 172.908C322.115 171.161 320.804 169.786 319.121 168.785C317.459 167.783 315.52 167.283 313.304 167.283C310.939 167.283 308.862 167.858 307.072 169.009C305.282 170.138 303.887 171.629 302.885 173.483C301.905 175.315 301.404 177.329 301.383 179.523V186.331C301.383 189.186 301.905 191.636 302.949 193.682C303.993 195.706 305.453 197.261 307.328 198.348C309.203 199.413 311.397 199.946 313.912 199.946C315.595 199.946 317.118 199.712 318.482 199.243C319.846 198.753 321.028 198.039 322.029 197.102C323.031 196.164 323.787 195.003 324.299 193.618L335.101 194.832C334.419 197.687 333.12 200.18 331.202 202.311C329.306 204.42 326.877 206.061 323.915 207.233C320.953 208.384 317.566 208.959 313.752 208.959ZM376.657 187.354V158.909H388.227V208H377.009V199.275H376.498C375.39 202.023 373.568 204.271 371.032 206.018C368.518 207.766 365.418 208.639 361.732 208.639C358.515 208.639 355.67 207.925 353.199 206.498C350.748 205.049 348.831 202.95 347.446 200.202C346.061 197.432 345.368 194.087 345.368 190.166V158.909H356.938V188.376C356.938 191.487 357.79 193.959 359.495 195.791C361.199 197.624 363.437 198.54 366.207 198.54C367.911 198.54 369.562 198.124 371.16 197.293C372.758 196.462 374.069 195.227 375.091 193.586C376.135 191.924 376.657 189.847 376.657 187.354ZM400.124 208V158.909H411.342V167.091H411.854C412.749 164.257 414.283 162.073 416.456 160.539C418.651 158.984 421.154 158.206 423.967 158.206C424.606 158.206 425.32 158.238 426.108 158.302C426.918 158.344 427.589 158.419 428.121 158.526V169.168C427.631 168.998 426.854 168.849 425.788 168.721C424.744 168.572 423.732 168.497 422.752 168.497C420.643 168.497 418.746 168.955 417.063 169.871C415.401 170.766 414.091 172.013 413.132 173.611C412.173 175.209 411.694 177.052 411.694 179.14V208H400.124ZM449.055 208.991C445.945 208.991 443.143 208.437 440.65 207.329C438.178 206.2 436.218 204.538 434.769 202.343C433.342 200.148 432.628 197.442 432.628 194.225C432.628 191.455 433.139 189.165 434.162 187.354C435.185 185.543 436.58 184.094 438.349 183.007C440.117 181.92 442.109 181.1 444.325 180.546C446.563 179.971 448.874 179.555 451.261 179.3C454.137 179.001 456.47 178.735 458.26 178.501C460.05 178.245 461.349 177.862 462.159 177.35C462.99 176.817 463.406 175.997 463.406 174.889V174.697C463.406 172.29 462.692 170.425 461.264 169.104C459.837 167.783 457.781 167.123 455.096 167.123C452.262 167.123 450.014 167.741 448.352 168.977C446.712 170.212 445.604 171.672 445.028 173.355L434.226 171.821C435.078 168.838 436.484 166.345 438.445 164.342C440.405 162.318 442.802 160.805 445.636 159.804C448.469 158.781 451.602 158.27 455.032 158.27C457.397 158.27 459.751 158.547 462.095 159.101C464.439 159.655 466.58 160.571 468.519 161.849C470.458 163.107 472.013 164.822 473.185 166.995C474.379 169.168 474.975 171.885 474.975 175.145V208H463.853V201.256H463.469C462.766 202.62 461.776 203.898 460.497 205.092C459.24 206.263 457.653 207.212 455.735 207.936C453.839 208.639 451.612 208.991 449.055 208.991ZM452.06 200.489C454.382 200.489 456.396 200.031 458.1 199.115C459.805 198.178 461.115 196.942 462.031 195.408C462.969 193.874 463.438 192.201 463.438 190.39V184.605C463.075 184.903 462.457 185.18 461.584 185.436C460.732 185.692 459.773 185.915 458.707 186.107C457.642 186.299 456.587 186.469 455.543 186.619C454.499 186.768 453.594 186.896 452.827 187.002C451.101 187.237 449.556 187.62 448.192 188.153C446.829 188.685 445.753 189.431 444.964 190.39C444.176 191.327 443.782 192.542 443.782 194.033C443.782 196.164 444.56 197.773 446.115 198.859C447.67 199.946 449.652 200.489 452.06 200.489ZM498.178 142.545V208H486.609V142.545H498.178ZM553.749 227.432C549.594 227.432 546.025 226.867 543.042 225.738C540.059 224.63 537.662 223.138 535.851 221.263C534.04 219.388 532.783 217.311 532.08 215.031L542.499 212.506C542.968 213.465 543.65 214.413 544.545 215.351C545.439 216.31 546.643 217.098 548.156 217.716C549.69 218.355 551.618 218.675 553.941 218.675C557.222 218.675 559.939 217.876 562.091 216.278C564.243 214.701 565.319 212.102 565.319 208.479V199.179H564.743C564.147 200.372 563.273 201.597 562.123 202.854C560.993 204.112 559.491 205.166 557.616 206.018C555.763 206.871 553.43 207.297 550.617 207.297C546.846 207.297 543.426 206.413 540.358 204.644C537.311 202.854 534.882 200.191 533.071 196.654C531.281 193.096 530.386 188.643 530.386 183.295C530.386 177.904 531.281 173.355 533.071 169.648C534.882 165.919 537.322 163.096 540.39 161.178C543.458 159.239 546.878 158.27 550.649 158.27C553.525 158.27 555.89 158.76 557.744 159.74C559.619 160.699 561.111 161.86 562.219 163.224C563.327 164.566 564.168 165.834 564.743 167.027H565.383V158.909H576.792V208.799C576.792 212.996 575.791 216.469 573.788 219.218C571.785 221.967 569.047 224.023 565.574 225.386C562.101 226.75 558.16 227.432 553.749 227.432ZM553.845 198.22C556.295 198.22 558.383 197.624 560.109 196.43C561.835 195.237 563.145 193.522 564.04 191.285C564.935 189.048 565.383 186.363 565.383 183.231C565.383 180.141 564.935 177.435 564.04 175.113C563.167 172.79 561.867 170.99 560.141 169.712C558.437 168.412 556.338 167.762 553.845 167.762C551.267 167.762 549.115 168.433 547.389 169.776C545.663 171.118 544.363 172.961 543.49 175.305C542.616 177.627 542.18 180.269 542.18 183.231C542.18 186.235 542.616 188.866 543.49 191.125C544.385 193.362 545.695 195.109 547.421 196.366C549.168 197.602 551.309 198.22 553.845 198.22ZM588.65 208V158.909H599.868V167.091H600.379C601.274 164.257 602.808 162.073 604.981 160.539C607.176 158.984 609.68 158.206 612.492 158.206C613.131 158.206 613.845 158.238 614.633 158.302C615.443 158.344 616.114 158.419 616.647 158.526V169.168C616.157 168.998 615.379 168.849 614.314 168.721C613.27 168.572 612.258 168.497 611.278 168.497C609.168 168.497 607.272 168.955 605.589 169.871C603.927 170.766 602.616 172.013 601.657 173.611C600.699 175.209 600.219 177.052 600.219 179.14V208H588.65ZM637.581 208.991C634.47 208.991 631.668 208.437 629.175 207.329C626.704 206.2 624.743 204.538 623.295 202.343C621.867 200.148 621.153 197.442 621.153 194.225C621.153 191.455 621.665 189.165 622.687 187.354C623.71 185.543 625.106 184.094 626.874 183.007C628.643 181.92 630.635 181.1 632.851 180.546C635.088 179.971 637.4 179.555 639.786 179.3C642.662 179.001 644.996 178.735 646.785 178.501C648.575 178.245 649.875 177.862 650.684 177.35C651.515 176.817 651.931 175.997 651.931 174.889V174.697C651.931 172.29 651.217 170.425 649.79 169.104C648.362 167.783 646.306 167.123 643.621 167.123C640.787 167.123 638.54 167.741 636.878 168.977C635.237 170.212 634.129 171.672 633.554 173.355L622.751 171.821C623.604 168.838 625.01 166.345 626.97 164.342C628.93 162.318 631.327 160.805 634.161 159.804C636.995 158.781 640.127 158.27 643.557 158.27C645.922 158.27 648.277 158.547 650.621 159.101C652.964 159.655 655.106 160.571 657.045 161.849C658.983 163.107 660.539 164.822 661.711 166.995C662.904 169.168 663.501 171.885 663.501 175.145V208H652.378V201.256H651.995C651.292 202.62 650.301 203.898 649.023 205.092C647.765 206.263 646.178 207.212 644.26 207.936C642.364 208.639 640.138 208.991 637.581 208.991ZM640.585 200.489C642.907 200.489 644.921 200.031 646.626 199.115C648.33 198.178 649.64 196.942 650.557 195.408C651.494 193.874 651.963 192.201 651.963 190.39V184.605C651.601 184.903 650.983 185.18 650.109 185.436C649.257 185.692 648.298 185.915 647.233 186.107C646.167 186.299 645.113 186.469 644.069 186.619C643.025 186.768 642.119 186.896 641.352 187.002C639.626 187.237 638.081 187.62 636.718 188.153C635.354 188.685 634.278 189.431 633.49 190.39C632.702 191.327 632.307 192.542 632.307 194.033C632.307 196.164 633.085 197.773 634.64 198.859C636.196 199.946 638.177 200.489 640.585 200.489ZM675.134 226.409V158.909H686.512V167.027H687.183C687.78 165.834 688.621 164.566 689.708 163.224C690.795 161.86 692.265 160.699 694.118 159.74C695.972 158.76 698.337 158.27 701.214 158.27C705.006 158.27 708.426 159.239 711.473 161.178C714.541 163.096 716.97 165.94 718.76 169.712C720.571 173.462 721.476 178.064 721.476 183.518C721.476 188.909 720.592 193.49 718.824 197.261C717.055 201.033 714.648 203.909 711.601 205.891C708.554 207.872 705.102 208.863 701.246 208.863C698.433 208.863 696.1 208.394 694.246 207.457C692.393 206.519 690.901 205.39 689.772 204.069C688.664 202.727 687.801 201.459 687.183 200.266H686.704V226.409H675.134ZM686.48 183.455C686.48 186.629 686.927 189.41 687.822 191.796C688.738 194.183 690.049 196.047 691.753 197.389C693.479 198.71 695.567 199.371 698.018 199.371C700.574 199.371 702.716 198.689 704.442 197.325C706.167 195.94 707.467 194.055 708.341 191.668C709.236 189.261 709.683 186.523 709.683 183.455C709.683 180.408 709.246 177.702 708.373 175.337C707.499 172.972 706.199 171.118 704.474 169.776C702.748 168.433 700.596 167.762 698.018 167.762C695.546 167.762 693.447 168.412 691.721 169.712C689.996 171.011 688.685 172.833 687.79 175.177C686.917 177.521 686.48 180.28 686.48 183.455ZM742.954 179.236V208H731.384V142.545H742.698V167.251H743.273C744.424 164.481 746.203 162.297 748.611 160.699C751.04 159.08 754.129 158.27 757.879 158.27C761.288 158.27 764.26 158.984 766.796 160.411C769.331 161.839 771.292 163.927 772.677 166.675C774.083 169.424 774.786 172.78 774.786 176.743V208H763.216V178.533C763.216 175.23 762.364 172.663 760.66 170.83C758.976 168.977 756.611 168.05 753.564 168.05C751.519 168.05 749.687 168.497 748.067 169.392C746.469 170.266 745.212 171.533 744.296 173.195C743.401 174.857 742.954 176.871 742.954 179.236Z" fill="white"/>
<path d="M226.561 1231V1165.55H269.132V1175.49H238.419V1193.25H266.927V1203.19H238.419V1221.06H269.388V1231H226.561ZM324.567 1181.91L307.085 1231H294.301L276.819 1181.91H289.156L300.438 1218.38H300.949L312.263 1181.91H324.567ZM352.637 1231.96C347.715 1231.96 343.464 1230.94 339.884 1228.89C336.326 1226.82 333.588 1223.9 331.671 1220.13C329.753 1216.34 328.794 1211.88 328.794 1206.74C328.794 1201.69 329.753 1197.26 331.671 1193.45C333.61 1189.61 336.316 1186.63 339.789 1184.5C343.262 1182.35 347.342 1181.27 352.029 1181.27C355.055 1181.27 357.91 1181.76 360.595 1182.74C363.301 1183.7 365.687 1185.19 367.754 1187.21C369.842 1189.24 371.482 1191.82 372.676 1194.95C373.869 1198.06 374.465 1201.77 374.465 1206.07V1209.62H334.227V1201.82H363.375C363.354 1199.6 362.874 1197.63 361.937 1195.91C360.999 1194.16 359.689 1192.79 358.006 1191.78C356.344 1190.78 354.405 1190.28 352.189 1190.28C349.824 1190.28 347.747 1190.86 345.957 1192.01C344.167 1193.14 342.771 1194.63 341.77 1196.48C340.79 1198.32 340.289 1200.33 340.268 1202.52V1209.33C340.268 1212.19 340.79 1214.64 341.834 1216.68C342.878 1218.71 344.338 1220.26 346.213 1221.35C348.088 1222.41 350.282 1222.95 352.796 1222.95C354.48 1222.95 356.003 1222.71 357.367 1222.24C358.73 1221.75 359.913 1221.04 360.914 1220.1C361.916 1219.16 362.672 1218 363.183 1216.62L373.986 1217.83C373.304 1220.69 372.004 1223.18 370.087 1225.31C368.191 1227.42 365.762 1229.06 362.8 1230.23C359.838 1231.38 356.45 1231.96 352.637 1231.96ZM395.823 1202.24V1231H384.253V1181.91H395.311V1190.25H395.887C397.016 1187.5 398.816 1185.32 401.288 1183.7C403.781 1182.08 406.86 1181.27 410.525 1181.27C413.912 1181.27 416.863 1181.99 419.377 1183.44C421.913 1184.89 423.873 1186.99 425.258 1189.74C426.664 1192.49 427.357 1195.82 427.336 1199.74V1231H415.766V1201.53C415.766 1198.25 414.914 1195.68 413.209 1193.83C411.526 1191.98 409.193 1191.05 406.21 1191.05C404.186 1191.05 402.385 1191.5 400.809 1192.39C399.253 1193.27 398.028 1194.53 397.133 1196.2C396.26 1197.86 395.823 1199.87 395.823 1202.24ZM463.61 1181.91V1190.86H435.39V1181.91H463.61ZM442.357 1170.15H453.926V1216.23C453.926 1217.79 454.161 1218.98 454.63 1219.81C455.12 1220.62 455.759 1221.18 456.547 1221.48C457.336 1221.77 458.209 1221.92 459.168 1221.92C459.892 1221.92 460.553 1221.87 461.15 1221.76C461.767 1221.66 462.236 1221.56 462.556 1221.48L464.505 1230.52C463.887 1230.73 463.003 1230.97 461.853 1231.22C460.723 1231.48 459.338 1231.63 457.698 1231.67C454.8 1231.76 452.19 1231.32 449.868 1230.36C447.545 1229.38 445.702 1227.87 444.338 1225.82C442.996 1223.78 442.336 1221.22 442.357 1218.15V1170.15ZM507.18 1165.55V1231H495.611V1165.55H507.18ZM540.491 1231.96C535.697 1231.96 531.542 1230.9 528.026 1228.79C524.511 1226.69 521.783 1223.73 519.844 1219.94C517.927 1216.15 516.968 1211.72 516.968 1206.65C516.968 1201.58 517.927 1197.13 519.844 1193.32C521.783 1189.5 524.511 1186.54 528.026 1184.43C531.542 1182.32 535.697 1181.27 540.491 1181.27C545.285 1181.27 549.44 1182.32 552.955 1184.43C556.471 1186.54 559.188 1189.5 561.105 1193.32C563.044 1197.13 564.013 1201.58 564.013 1206.65C564.013 1211.72 563.044 1216.15 561.105 1219.94C559.188 1223.73 556.471 1226.69 552.955 1228.79C549.44 1230.9 545.285 1231.96 540.491 1231.96ZM540.555 1222.69C543.154 1222.69 545.327 1221.98 547.075 1220.55C548.822 1219.1 550.121 1217.16 550.974 1214.73C551.847 1212.3 552.284 1209.6 552.284 1206.61C552.284 1203.61 551.847 1200.89 550.974 1198.46C550.121 1196.01 548.822 1194.06 547.075 1192.62C545.327 1191.17 543.154 1190.44 540.555 1190.44C537.891 1190.44 535.675 1191.17 533.907 1192.62C532.16 1194.06 530.849 1196.01 529.976 1198.46C529.124 1200.89 528.697 1203.61 528.697 1206.61C528.697 1209.6 529.124 1212.3 529.976 1214.73C530.849 1217.16 532.16 1219.1 533.907 1220.55C535.675 1221.98 537.891 1222.69 540.555 1222.69ZM595.247 1231.96C590.453 1231.96 586.298 1230.9 582.782 1228.79C579.267 1226.69 576.539 1223.73 574.6 1219.94C572.683 1216.15 571.724 1211.72 571.724 1206.65C571.724 1201.58 572.683 1197.13 574.6 1193.32C576.539 1189.5 579.267 1186.54 582.782 1184.43C586.298 1182.32 590.453 1181.27 595.247 1181.27C600.041 1181.27 604.195 1182.32 607.711 1184.43C611.227 1186.54 613.943 1189.5 615.861 1193.32C617.8 1197.13 618.769 1201.58 618.769 1206.65C618.769 1211.72 617.8 1216.15 615.861 1219.94C613.943 1223.73 611.227 1226.69 607.711 1228.79C604.195 1230.9 600.041 1231.96 595.247 1231.96ZM595.311 1222.69C597.91 1222.69 600.083 1221.98 601.83 1220.55C603.578 1219.1 604.877 1217.16 605.73 1214.73C606.603 1212.3 607.04 1209.6 607.04 1206.61C607.04 1203.61 606.603 1200.89 605.73 1198.46C604.877 1196.01 603.578 1194.06 601.83 1192.62C600.083 1191.17 597.91 1190.44 595.311 1190.44C592.647 1190.44 590.431 1191.17 588.663 1192.62C586.916 1194.06 585.605 1196.01 584.732 1198.46C583.879 1200.89 583.453 1203.61 583.453 1206.61C583.453 1209.6 583.879 1212.3 584.732 1214.73C585.605 1217.16 586.916 1219.1 588.663 1220.55C590.431 1221.98 592.647 1222.69 595.311 1222.69ZM628.589 1249.41V1181.91H639.967V1190.03H640.638C641.235 1188.83 642.076 1187.57 643.163 1186.22C644.25 1184.86 645.72 1183.7 647.574 1182.74C649.427 1181.76 651.792 1181.27 654.669 1181.27C658.461 1181.27 661.881 1182.24 664.928 1184.18C667.996 1186.1 670.425 1188.94 672.215 1192.71C674.026 1196.46 674.931 1201.06 674.931 1206.52C674.931 1211.91 674.047 1216.49 672.279 1220.26C670.51 1224.03 668.103 1226.91 665.056 1228.89C662.009 1230.87 658.557 1231.86 654.701 1231.86C651.888 1231.86 649.555 1231.39 647.701 1230.46C645.848 1229.52 644.356 1228.39 643.227 1227.07C642.119 1225.73 641.256 1224.46 640.638 1223.27H640.159V1249.41H628.589ZM639.935 1206.45C639.935 1209.63 640.382 1212.41 641.277 1214.8C642.194 1217.18 643.504 1219.05 645.208 1220.39C646.934 1221.71 649.022 1222.37 651.473 1222.37C654.029 1222.37 656.171 1221.69 657.897 1220.33C659.623 1218.94 660.922 1217.05 661.796 1214.67C662.691 1212.26 663.138 1209.52 663.138 1206.45C663.138 1203.41 662.701 1200.7 661.828 1198.34C660.954 1195.97 659.654 1194.12 657.929 1192.78C656.203 1191.43 654.051 1190.76 651.473 1190.76C649.001 1190.76 646.902 1191.41 645.176 1192.71C643.451 1194.01 642.14 1195.83 641.245 1198.18C640.372 1200.52 639.935 1203.28 639.935 1206.45Z" fill="white"/>
<path d="M278.62 1783.63H266.667C266.326 1781.67 265.697 1779.93 264.781 1778.42C263.865 1776.89 262.725 1775.59 261.361 1774.52C259.998 1773.46 258.442 1772.66 256.695 1772.12C254.969 1771.57 253.105 1771.29 251.102 1771.29C247.544 1771.29 244.391 1772.19 241.642 1773.98C238.893 1775.75 236.741 1778.35 235.186 1781.78C233.631 1785.19 232.853 1789.35 232.853 1794.27C232.853 1799.28 233.631 1803.5 235.186 1806.93C236.763 1810.34 238.915 1812.92 241.642 1814.66C244.391 1816.39 247.533 1817.25 251.07 1817.25C253.03 1817.25 254.863 1817 256.567 1816.49C258.293 1815.95 259.838 1815.17 261.202 1814.15C262.587 1813.13 263.748 1811.87 264.685 1810.38C265.644 1808.89 266.305 1807.18 266.667 1805.27L278.62 1805.33C278.172 1808.44 277.203 1811.36 275.712 1814.09C274.241 1816.82 272.313 1819.22 269.927 1821.31C267.54 1823.38 264.749 1825 261.553 1826.17C258.357 1827.32 254.81 1827.89 250.91 1827.89C245.158 1827.89 240.023 1826.56 235.506 1823.9C230.989 1821.24 227.43 1817.39 224.831 1812.36C222.231 1807.33 220.932 1801.3 220.932 1794.27C220.932 1787.22 222.242 1781.19 224.863 1776.18C227.484 1771.15 231.052 1767.31 235.57 1764.65C240.087 1761.98 245.2 1760.65 250.91 1760.65C254.554 1760.65 257.942 1761.16 261.074 1762.18C264.206 1763.21 266.997 1764.71 269.447 1766.69C271.898 1768.65 273.911 1771.06 275.488 1773.91C277.086 1776.75 278.13 1779.99 278.62 1783.63ZM310.38 1827.96C305.586 1827.96 301.432 1826.9 297.916 1824.79C294.4 1822.69 291.673 1819.73 289.734 1815.94C287.816 1812.15 286.858 1807.72 286.858 1802.65C286.858 1797.58 287.816 1793.13 289.734 1789.32C291.673 1785.5 294.4 1782.54 297.916 1780.43C301.432 1778.32 305.586 1777.27 310.38 1777.27C315.174 1777.27 319.329 1778.32 322.845 1780.43C326.361 1782.54 329.077 1785.5 330.995 1789.32C332.934 1793.13 333.903 1797.58 333.903 1802.65C333.903 1807.72 332.934 1812.15 330.995 1815.94C329.077 1819.73 326.361 1822.69 322.845 1824.79C319.329 1826.9 315.174 1827.96 310.38 1827.96ZM310.444 1818.69C313.044 1818.69 315.217 1817.98 316.964 1816.55C318.711 1815.1 320.011 1813.16 320.863 1810.73C321.737 1808.3 322.174 1805.6 322.174 1802.61C322.174 1799.61 321.737 1796.89 320.863 1794.46C320.011 1792.01 318.711 1790.06 316.964 1788.62C315.217 1787.17 313.044 1786.44 310.444 1786.44C307.781 1786.44 305.565 1787.17 303.797 1788.62C302.049 1790.06 300.739 1792.01 299.866 1794.46C299.013 1796.89 298.587 1799.61 298.587 1802.61C298.587 1805.6 299.013 1808.3 299.866 1810.73C300.739 1813.16 302.049 1815.1 303.797 1816.55C305.565 1817.98 307.781 1818.69 310.444 1818.69ZM343.723 1827V1777.91H354.781V1786.25H355.356C356.379 1783.44 358.073 1781.24 360.438 1779.67C362.803 1778.07 365.626 1777.27 368.908 1777.27C372.231 1777.27 375.033 1778.08 377.313 1779.7C379.614 1781.3 381.234 1783.48 382.171 1786.25H382.682C383.769 1783.52 385.601 1781.35 388.18 1779.73C390.779 1778.09 393.858 1777.27 397.416 1777.27C401.933 1777.27 405.619 1778.7 408.474 1781.55C411.329 1784.41 412.757 1788.57 412.757 1794.05V1827H401.155V1795.84C401.155 1792.79 400.346 1790.57 398.726 1789.16C397.107 1787.73 395.126 1787.02 392.782 1787.02C389.991 1787.02 387.807 1787.89 386.23 1789.64C384.675 1791.36 383.897 1793.61 383.897 1796.38V1827H372.551V1795.36C372.551 1792.82 371.784 1790.8 370.25 1789.29C368.737 1787.77 366.756 1787.02 364.305 1787.02C362.643 1787.02 361.131 1787.44 359.767 1788.3C358.403 1789.13 357.317 1790.31 356.507 1791.84C355.697 1793.36 355.293 1795.12 355.293 1797.15V1827H343.723ZM424.494 1845.41V1777.91H435.872V1786.03H436.543C437.14 1784.83 437.982 1783.57 439.068 1782.22C440.155 1780.86 441.625 1779.7 443.479 1778.74C445.332 1777.76 447.698 1777.27 450.574 1777.27C454.367 1777.27 457.786 1778.24 460.833 1780.18C463.901 1782.1 466.33 1784.94 468.12 1788.71C469.931 1792.46 470.837 1797.06 470.837 1802.52C470.837 1807.91 469.953 1812.49 468.184 1816.26C466.416 1820.03 464.008 1822.91 460.961 1824.89C457.914 1826.87 454.462 1827.86 450.606 1827.86C447.793 1827.86 445.46 1827.39 443.607 1826.46C441.753 1825.52 440.261 1824.39 439.132 1823.07C438.024 1821.73 437.161 1820.46 436.543 1819.27H436.064V1845.41H424.494ZM435.84 1802.45C435.84 1805.63 436.288 1808.41 437.183 1810.8C438.099 1813.18 439.409 1815.05 441.114 1816.39C442.84 1817.71 444.928 1818.37 447.378 1818.37C449.935 1818.37 452.076 1817.69 453.802 1816.33C455.528 1814.94 456.828 1813.05 457.701 1810.67C458.596 1808.26 459.043 1805.52 459.043 1802.45C459.043 1799.41 458.607 1796.7 457.733 1794.34C456.859 1791.97 455.56 1790.12 453.834 1788.78C452.108 1787.43 449.956 1786.76 447.378 1786.76C444.906 1786.76 442.808 1787.41 441.082 1788.71C439.356 1790.01 438.046 1791.83 437.151 1794.18C436.277 1796.52 435.84 1799.28 435.84 1802.45ZM512.033 1806.35V1777.91H523.603V1827H512.385V1818.27H511.874C510.766 1821.02 508.944 1823.27 506.408 1825.02C503.894 1826.77 500.794 1827.64 497.108 1827.64C493.891 1827.64 491.046 1826.93 488.575 1825.5C486.124 1824.05 484.207 1821.95 482.822 1819.2C481.437 1816.43 480.744 1813.09 480.744 1809.17V1777.91H492.314V1807.38C492.314 1810.49 493.166 1812.96 494.871 1814.79C496.575 1816.62 498.813 1817.54 501.582 1817.54C503.287 1817.54 504.938 1817.12 506.536 1816.29C508.134 1815.46 509.445 1814.23 510.467 1812.59C511.511 1810.92 512.033 1808.85 512.033 1806.35ZM560.014 1777.91V1786.86H531.793V1777.91H560.014ZM538.76 1766.15H550.33V1812.23C550.33 1813.79 550.564 1814.98 551.033 1815.81C551.523 1816.62 552.162 1817.18 552.951 1817.48C553.739 1817.77 554.612 1817.92 555.571 1817.92C556.296 1817.92 556.956 1817.87 557.553 1817.76C558.171 1817.66 558.639 1817.56 558.959 1817.48L560.909 1826.52C560.291 1826.73 559.407 1826.97 558.256 1827.22C557.127 1827.48 555.742 1827.63 554.101 1827.67C551.203 1827.76 548.593 1827.32 546.271 1826.36C543.948 1825.38 542.105 1823.87 540.742 1821.82C539.399 1819.78 538.739 1817.22 538.76 1814.15V1766.15ZM583.816 1827.99C580.705 1827.99 577.903 1827.44 575.411 1826.33C572.939 1825.2 570.979 1823.54 569.53 1821.34C568.102 1819.15 567.389 1816.44 567.389 1813.23C567.389 1810.46 567.9 1808.16 568.923 1806.35C569.945 1804.54 571.341 1803.09 573.109 1802.01C574.878 1800.92 576.87 1800.1 579.086 1799.55C581.323 1798.97 583.635 1798.56 586.021 1798.3C588.898 1798 591.231 1797.74 593.021 1797.5C594.81 1797.25 596.11 1796.86 596.92 1796.35C597.751 1795.82 598.166 1795 598.166 1793.89V1793.7C598.166 1791.29 597.453 1789.43 596.025 1788.1C594.597 1786.78 592.541 1786.12 589.857 1786.12C587.023 1786.12 584.775 1786.74 583.113 1787.98C581.472 1789.21 580.364 1790.67 579.789 1792.36L568.987 1790.82C569.839 1787.84 571.245 1785.35 573.205 1783.34C575.166 1781.32 577.563 1779.81 580.396 1778.8C583.23 1777.78 586.362 1777.27 589.793 1777.27C592.158 1777.27 594.512 1777.55 596.856 1778.1C599.2 1778.65 601.341 1779.57 603.28 1780.85C605.219 1782.11 606.774 1783.82 607.946 1786C609.139 1788.17 609.736 1790.88 609.736 1794.14V1827H598.614V1820.26H598.23C597.527 1821.62 596.536 1822.9 595.258 1824.09C594.001 1825.26 592.413 1826.21 590.496 1826.94C588.6 1827.64 586.373 1827.99 583.816 1827.99ZM586.82 1819.49C589.143 1819.49 591.156 1819.03 592.861 1818.12C594.565 1817.18 595.876 1815.94 596.792 1814.41C597.729 1812.87 598.198 1811.2 598.198 1809.39V1803.61C597.836 1803.9 597.218 1804.18 596.345 1804.44C595.492 1804.69 594.533 1804.92 593.468 1805.11C592.403 1805.3 591.348 1805.47 590.304 1805.62C589.26 1805.77 588.354 1805.9 587.587 1806C585.862 1806.24 584.317 1806.62 582.953 1807.15C581.59 1807.69 580.514 1808.43 579.725 1809.39C578.937 1810.33 578.543 1811.54 578.543 1813.03C578.543 1815.16 579.32 1816.77 580.876 1817.86C582.431 1818.95 584.413 1819.49 586.82 1819.49ZM645.883 1777.91V1786.86H617.662V1777.91H645.883ZM624.629 1766.15H636.199V1812.23C636.199 1813.79 636.433 1814.98 636.902 1815.81C637.392 1816.62 638.031 1817.18 638.82 1817.48C639.608 1817.77 640.482 1817.92 641.44 1817.92C642.165 1817.92 642.825 1817.87 643.422 1817.76C644.04 1817.66 644.509 1817.56 644.828 1817.48L646.778 1826.52C646.16 1826.73 645.276 1826.97 644.125 1827.22C642.996 1827.48 641.611 1827.63 639.97 1827.67C637.073 1827.76 634.462 1827.32 632.14 1826.36C629.818 1825.38 627.975 1823.87 626.611 1821.82C625.269 1819.78 624.608 1817.22 624.629 1814.15V1766.15ZM655.559 1827V1777.91H667.128V1827H655.559ZM661.376 1770.94C659.543 1770.94 657.967 1770.33 656.646 1769.12C655.324 1767.88 654.664 1766.4 654.664 1764.68C654.664 1762.93 655.324 1761.45 656.646 1760.24C657.967 1759 659.543 1758.38 661.376 1758.38C663.229 1758.38 664.806 1759 666.106 1760.24C667.427 1761.45 668.087 1762.93 668.087 1764.68C668.087 1766.4 667.427 1767.88 666.106 1769.12C664.806 1770.33 663.229 1770.94 661.376 1770.94ZM700.439 1827.96C695.645 1827.96 691.49 1826.9 687.975 1824.79C684.459 1822.69 681.732 1819.73 679.793 1815.94C677.875 1812.15 676.916 1807.72 676.916 1802.65C676.916 1797.58 677.875 1793.13 679.793 1789.32C681.732 1785.5 684.459 1782.54 687.975 1780.43C691.49 1778.32 695.645 1777.27 700.439 1777.27C705.233 1777.27 709.388 1778.32 712.903 1780.43C716.419 1782.54 719.136 1785.5 721.053 1789.32C722.992 1793.13 723.962 1797.58 723.962 1802.65C723.962 1807.72 722.992 1812.15 721.053 1815.94C719.136 1819.73 716.419 1822.69 712.903 1824.79C709.388 1826.9 705.233 1827.96 700.439 1827.96ZM700.503 1818.69C703.102 1818.69 705.276 1817.98 707.023 1816.55C708.77 1815.1 710.07 1813.16 710.922 1810.73C711.796 1808.3 712.232 1805.6 712.232 1802.61C712.232 1799.61 711.796 1796.89 710.922 1794.46C710.07 1792.01 708.77 1790.06 707.023 1788.62C705.276 1787.17 703.102 1786.44 700.503 1786.44C697.84 1786.44 695.624 1787.17 693.855 1788.62C692.108 1790.06 690.798 1792.01 689.924 1794.46C689.072 1796.89 688.646 1799.61 688.646 1802.61C688.646 1805.6 689.072 1808.3 689.924 1810.73C690.798 1813.16 692.108 1815.1 693.855 1816.55C695.624 1817.98 697.84 1818.69 700.503 1818.69ZM745.351 1798.24V1827H733.782V1777.91H744.84V1786.25H745.415C746.544 1783.5 748.345 1781.32 750.816 1779.7C753.309 1778.08 756.388 1777.27 760.053 1777.27C763.441 1777.27 766.392 1777.99 768.906 1779.44C771.441 1780.89 773.402 1782.99 774.786 1785.74C776.193 1788.49 776.885 1791.82 776.864 1795.74V1827H765.294V1797.53C765.294 1794.25 764.442 1791.68 762.737 1789.83C761.054 1787.98 758.721 1787.05 755.738 1787.05C753.714 1787.05 751.914 1787.5 750.337 1788.39C748.782 1789.27 747.556 1790.53 746.661 1792.2C745.788 1793.86 745.351 1795.87 745.351 1798.24ZM802.752 1827.99C799.641 1827.99 796.839 1827.44 794.346 1826.33C791.875 1825.2 789.914 1823.54 788.465 1821.34C787.038 1819.15 786.324 1816.44 786.324 1813.23C786.324 1810.46 786.835 1808.16 787.858 1806.35C788.881 1804.54 790.277 1803.09 792.045 1802.01C793.813 1800.92 795.806 1800.1 798.022 1799.55C800.259 1798.97 802.571 1798.56 804.957 1798.3C807.833 1798 810.166 1797.74 811.956 1797.5C813.746 1797.25 815.046 1796.86 815.855 1796.35C816.686 1795.82 817.102 1795 817.102 1793.89V1793.7C817.102 1791.29 816.388 1789.43 814.96 1788.1C813.533 1786.78 811.477 1786.12 808.792 1786.12C805.958 1786.12 803.71 1786.74 802.049 1787.98C800.408 1789.21 799.3 1790.67 798.725 1792.36L787.922 1790.82C788.774 1787.84 790.181 1785.35 792.141 1783.34C794.101 1781.32 796.498 1779.81 799.332 1778.8C802.166 1777.78 805.298 1777.27 808.728 1777.27C811.093 1777.27 813.448 1777.55 815.791 1778.1C818.135 1778.65 820.277 1779.57 822.215 1780.85C824.154 1782.11 825.71 1783.82 826.882 1786C828.075 1788.17 828.671 1790.88 828.671 1794.14V1827H817.549V1820.26H817.166C816.463 1821.62 815.472 1822.9 814.193 1824.09C812.936 1825.26 811.349 1826.21 809.431 1826.94C807.535 1827.64 805.309 1827.99 802.752 1827.99ZM805.756 1819.49C808.078 1819.49 810.092 1819.03 811.796 1818.12C813.501 1817.18 814.811 1815.94 815.728 1814.41C816.665 1812.87 817.134 1811.2 817.134 1809.39V1803.61C816.772 1803.9 816.154 1804.18 815.28 1804.44C814.428 1804.69 813.469 1804.92 812.404 1805.11C811.338 1805.3 810.284 1805.47 809.24 1805.62C808.196 1805.77 807.29 1805.9 806.523 1806C804.797 1806.24 803.252 1806.62 801.889 1807.15C800.525 1807.69 799.449 1808.43 798.661 1809.39C797.872 1810.33 797.478 1811.54 797.478 1813.03C797.478 1815.16 798.256 1816.77 799.811 1817.86C801.367 1818.95 803.348 1819.49 805.756 1819.49ZM851.875 1761.55V1827H840.305V1761.55H851.875ZM907.509 1827.96C902.609 1827.96 898.401 1826.88 894.885 1824.73C891.391 1822.58 888.695 1819.61 886.799 1815.81C884.924 1812 883.987 1807.61 883.987 1802.65C883.987 1797.66 884.945 1793.26 886.863 1789.45C888.781 1785.61 891.487 1782.63 894.981 1780.5C898.497 1778.35 902.651 1777.27 907.445 1777.27C911.43 1777.27 914.956 1778 918.024 1779.48C921.114 1780.92 923.575 1782.98 925.407 1785.64C927.239 1788.29 928.283 1791.37 928.539 1794.91H917.481C917.033 1792.55 915.968 1790.58 914.285 1789C912.623 1787.4 910.396 1786.6 907.605 1786.6C905.24 1786.6 903.163 1787.24 901.373 1788.52C899.583 1789.78 898.188 1791.59 897.186 1793.95C896.206 1796.32 895.716 1799.15 895.716 1802.45C895.716 1805.8 896.206 1808.68 897.186 1811.08C898.166 1813.47 899.541 1815.31 901.309 1816.61C903.099 1817.89 905.198 1818.53 907.605 1818.53C909.31 1818.53 910.833 1818.21 912.176 1817.57C913.539 1816.91 914.679 1815.96 915.595 1814.73C916.511 1813.49 917.14 1811.99 917.481 1810.22H928.539C928.262 1813.69 927.239 1816.77 925.471 1819.46C923.703 1822.12 921.295 1824.21 918.248 1825.72C915.201 1827.21 911.622 1827.96 907.509 1827.96ZM959.453 1827.96C954.659 1827.96 950.504 1826.9 946.988 1824.79C943.473 1822.69 940.745 1819.73 938.806 1815.94C936.889 1812.15 935.93 1807.72 935.93 1802.65C935.93 1797.58 936.889 1793.13 938.806 1789.32C940.745 1785.5 943.473 1782.54 946.988 1780.43C950.504 1778.32 954.659 1777.27 959.453 1777.27C964.247 1777.27 968.402 1778.32 971.917 1780.43C975.433 1782.54 978.149 1785.5 980.067 1789.32C982.006 1793.13 982.975 1797.58 982.975 1802.65C982.975 1807.72 982.006 1812.15 980.067 1815.94C978.149 1819.73 975.433 1822.69 971.917 1824.79C968.402 1826.9 964.247 1827.96 959.453 1827.96ZM959.517 1818.69C962.116 1818.69 964.289 1817.98 966.036 1816.55C967.784 1815.1 969.083 1813.16 969.936 1810.73C970.809 1808.3 971.246 1805.6 971.246 1802.61C971.246 1799.61 970.809 1796.89 969.936 1794.46C969.083 1792.01 967.784 1790.06 966.036 1788.62C964.289 1787.17 962.116 1786.44 959.517 1786.44C956.853 1786.44 954.637 1787.17 952.869 1788.62C951.122 1790.06 949.811 1792.01 948.938 1794.46C948.085 1796.89 947.659 1799.61 947.659 1802.61C947.659 1805.6 948.085 1808.3 948.938 1810.73C949.811 1813.16 951.122 1815.1 952.869 1816.55C954.637 1817.98 956.853 1818.69 959.517 1818.69ZM992.795 1827V1777.91H1004.01V1786.09H1004.52C1005.42 1783.26 1006.95 1781.07 1009.13 1779.54C1011.32 1777.98 1013.83 1777.21 1016.64 1777.21C1017.28 1777.21 1017.99 1777.24 1018.78 1777.3C1019.59 1777.34 1020.26 1777.42 1020.79 1777.53V1788.17C1020.3 1788 1019.52 1787.85 1018.46 1787.72C1017.42 1787.57 1016.4 1787.5 1015.42 1787.5C1013.31 1787.5 1011.42 1787.96 1009.73 1788.87C1008.07 1789.77 1006.76 1791.01 1005.8 1792.61C1004.84 1794.21 1004.36 1796.05 1004.36 1798.14V1827H992.795ZM1048.19 1827.96C1043.27 1827.96 1039.02 1826.94 1035.44 1824.89C1031.88 1822.82 1029.14 1819.9 1027.22 1816.13C1025.31 1812.34 1024.35 1807.88 1024.35 1802.74C1024.35 1797.69 1025.31 1793.26 1027.22 1789.45C1029.16 1785.61 1031.87 1782.63 1035.34 1780.5C1038.82 1778.35 1042.9 1777.27 1047.58 1777.27C1050.61 1777.27 1053.46 1777.76 1056.15 1778.74C1058.85 1779.7 1061.24 1781.19 1063.31 1783.21C1065.4 1785.24 1067.04 1787.82 1068.23 1790.95C1069.42 1794.06 1070.02 1797.77 1070.02 1802.07V1805.62H1029.78V1797.82H1058.93C1058.91 1795.6 1058.43 1793.63 1057.49 1791.91C1056.55 1790.16 1055.24 1788.79 1053.56 1787.78C1051.9 1786.78 1049.96 1786.28 1047.74 1786.28C1045.38 1786.28 1043.3 1786.86 1041.51 1788.01C1039.72 1789.14 1038.33 1790.63 1037.32 1792.48C1036.34 1794.32 1035.84 1796.33 1035.82 1798.52V1805.33C1035.82 1808.19 1036.34 1810.64 1037.39 1812.68C1038.43 1814.71 1039.89 1816.26 1041.77 1817.35C1043.64 1818.41 1045.84 1818.95 1048.35 1818.95C1050.03 1818.95 1051.56 1818.71 1052.92 1818.24C1054.28 1817.75 1055.47 1817.04 1056.47 1816.1C1057.47 1815.16 1058.23 1814 1058.74 1812.62L1069.54 1813.83C1068.86 1816.69 1067.56 1819.18 1065.64 1821.31C1063.74 1823.42 1061.32 1825.06 1058.35 1826.23C1055.39 1827.38 1052 1827.96 1048.19 1827.96Z" fill="white"/>
<rect x="1376.5" y="1171.5" width="2435" height="229" rx="57.5" stroke="#62B4FF" stroke-width="5"/>
<rect x="1397.5" y="1755.5" width="2448" height="512" rx="57.5" stroke="#FAFF08" stroke-width="5"/>
<rect x="1442.5" y="1799.5" width="120" height="118" stroke="#767382" stroke-width="9"/>
<rect x="1442.5" y="1951.5" width="120" height="119" stroke="#767382" stroke-width="9"/>
<rect x="1442.5" y="2104.5" width="120" height="120" stroke="#767382" stroke-width="9"/>
<rect x="2189.5" y="1799.5" width="119" height="118" stroke="#767382" stroke-width="9"/>
<rect x="2189.5" y="1951.5" width="119" height="119" stroke="#767382" stroke-width="9"/>
<rect x="2189.5" y="2104.5" width="119" height="120" stroke="#767382" stroke-width="9"/>
<rect x="1591.5" y="1799.5" width="120" height="118" stroke="#767382" stroke-width="9"/>
<rect x="1591.5" y="1951.5" width="120" height="119" stroke="#767382" stroke-width="9"/>
<rect x="1591.5" y="2104.5" width="120" height="120" stroke="#767382" stroke-width="9"/>
<rect x="2337.5" y="1799.5" width="120" height="118" stroke="#767382" stroke-width="9"/>
<rect x="2337.5" y="1951.5" width="120" height="119" stroke="#767382" stroke-width="9"/>
<rect x="2337.5" y="2104.5" width="120" height="120" stroke="#767382" stroke-width="9"/>
<rect x="1741.5" y="1799.5" width="119" height="118" stroke="#767382" stroke-width="9"/>
<rect x="1741.5" y="1951.5" width="119" height="119" stroke="#767382" stroke-width="9"/>
<rect x="1741.5" y="2104.5" width="119" height="120" stroke="#767382" stroke-width="9"/>
<rect x="2487.5" y="1799.5" width="118" height="118" stroke="#767382" stroke-width="9"/>
<rect x="2487.5" y="1951.5" width="118" height="119" stroke="#767382" stroke-width="9"/>
<rect x="2487.5" y="2104.5" width="118" height="120" stroke="#767382" stroke-width="9"/>
<rect x="1890.5" y="1799.5" width="120" height="118" stroke="#767382" stroke-width="9"/>
<rect x="1890.5" y="1951.5" width="120" height="119" stroke="#767382" stroke-width="9"/>
<rect x="1890.5" y="2104.5" width="120" height="120" stroke="#767382" stroke-width="9"/>
<rect x="2636.5" y="1799.5" width="120" height="118" stroke="#767382" stroke-width="9"/>
<rect x="3234.5" y="1799.5" width="120" height="118" stroke="#767382" stroke-width="9"/>
<rect x="2636.5" y="1951.5" width="120" height="119" stroke="#767382" stroke-width="9"/>
<rect x="3234.5" y="1951.5" width="120" height="119" stroke="#767382" stroke-width="9"/>
<rect x="2636.5" y="2104.5" width="120" height="120" stroke="#767382" stroke-width="9"/>
<rect x="3234.5" y="2104.5" width="120" height="120" stroke="#767382" stroke-width="9"/>
<rect x="2039.5" y="1799.5" width="119" height="118" stroke="#767382" stroke-width="9"/>
<rect x="2039.5" y="1951.5" width="119" height="119" stroke="#767382" stroke-width="9"/>
<rect x="2039.5" y="2104.5" width="119" height="120" stroke="#767382" stroke-width="9"/>
<rect x="2785.5" y="1799.5" width="120" height="118" stroke="#767382" stroke-width="9"/>
<rect x="3383.5" y="1799.5" width="120" height="118" stroke="#767382" stroke-width="9"/>
<rect x="2785.5" y="1951.5" width="120" height="119" stroke="#767382" stroke-width="9"/>
<rect x="3383.5" y="1951.5" width="120" height="119" stroke="#767382" stroke-width="9"/>
<rect x="2785.5" y="2104.5" width="120" height="120" stroke="#767382" stroke-width="9"/>
<rect x="3383.5" y="2104.5" width="120" height="120" stroke="#767382" stroke-width="9"/>
<rect x="2935.5" y="1799.5" width="119" height="118" stroke="#767382" stroke-width="9"/>
<rect x="3533.5" y="1799.5" width="119" height="118" stroke="#767382" stroke-width="9"/>
<rect x="2935.5" y="1951.5" width="119" height="119" stroke="#767382" stroke-width="9"/>
<rect x="3533.5" y="1951.5" width="119" height="119" stroke="#767382" stroke-width="9"/>
<rect x="2935.5" y="2104.5" width="119" height="120" stroke="#767382" stroke-width="9"/>
<rect x="3533.5" y="2104.5" width="119" height="120" stroke="#767382" stroke-width="9"/>
<rect x="3083.5" y="1799.5" width="120" height="118" stroke="#767382" stroke-width="9"/>
<rect x="3681.5" y="1799.5" width="120" height="118" stroke="#767382" stroke-width="9"/>
<rect x="3083.5" y="1951.5" width="120" height="119" stroke="#767382" stroke-width="9"/>
<rect x="3681.5" y="1951.5" width="120" height="119" stroke="#767382" stroke-width="9"/>
<rect x="3083.5" y="2104.5" width="120" height="120" stroke="#767382" stroke-width="9"/>
<rect x="3681.5" y="2104.5" width="120" height="120" stroke="#767382" stroke-width="9"/>
<rect x="1418.5" y="1203.5" width="29" height="165" stroke="#767382" stroke-width="9"/>
<rect x="2665.5" y="1203.5" width="29" height="165" stroke="#767382" stroke-width="9"/>
<rect x="2041.5" y="1203.5" width="28" height="165" stroke="#767382" stroke-width="9"/>
<rect x="3289.5" y="1203.5" width="28" height="165" stroke="#767382" stroke-width="9"/>
<rect x="1475.5" y="1203.5" width="28" height="165" stroke="#767382" stroke-width="9"/>
<rect x="2722.5" y="1203.5" width="29" height="165" stroke="#767382" stroke-width="9"/>
<rect x="2097.5" y="1203.5" width="29" height="165" stroke="#767382" stroke-width="9"/>
<rect x="3345.5" y="1203.5" width="28" height="165" stroke="#767382" stroke-width="9"/>
<rect x="1531.5" y="1203.5" width="29" height="165" stroke="#767382" stroke-width="9"/>
<rect x="2779.5" y="1203.5" width="28" height="165" stroke="#767382" stroke-width="9"/>
<rect x="2154.5" y="1203.5" width="28" height="165" stroke="#767382" stroke-width="9"/>
<rect x="3401.5" y="1203.5" width="29" height="165" stroke="#767382" stroke-width="9"/>
<rect x="1588.5" y="1203.5" width="28" height="165" stroke="#767382" stroke-width="9"/>
<rect x="2835.5" y="1203.5" width="29" height="165" stroke="#767382" stroke-width="9"/>
<rect x="2212.5" y="1203.5" width="28" height="165" stroke="#767382" stroke-width="9"/>
<rect x="3458.5" y="1203.5" width="28" height="165" stroke="#767382" stroke-width="9"/>
<rect x="1645.5" y="1203.5" width="28" height="165" stroke="#767382" stroke-width="9"/>
<rect x="2891.5" y="1203.5" width="29" height="165" stroke="#767382" stroke-width="9"/>
<rect x="2268.5" y="1203.5" width="29" height="165" stroke="#767382" stroke-width="9"/>
<rect x="3515.5" y="1203.5" width="27" height="165" stroke="#767382" stroke-width="9"/>
<rect x="1702.5" y="1203.5" width="28" height="165" stroke="#767382" stroke-width="9"/>
<rect x="2949.5" y="1203.5" width="27" height="165" stroke="#767382" stroke-width="9"/>
<rect x="2324.5" y="1203.5" width="29" height="165" stroke="#767382" stroke-width="9"/>
<rect x="3571.5" y="1203.5" width="29" height="165" stroke="#767382" stroke-width="9"/>
<rect x="1758.5" y="1203.5" width="29" height="165" stroke="#767382" stroke-width="9"/>
<rect x="3005.5" y="1203.5" width="29" height="165" stroke="#767382" stroke-width="9"/>
<rect x="2382.5" y="1203.5" width="27" height="165" stroke="#767382" stroke-width="9"/>
<rect x="3627.5" y="1203.5" width="29" height="165" stroke="#767382" stroke-width="9"/>
<rect x="1815.5" y="1203.5" width="28" height="165" stroke="#767382" stroke-width="9"/>
<rect x="3061.5" y="1203.5" width="29" height="165" stroke="#767382" stroke-width="9"/>
<rect x="2438.5" y="1203.5" width="28" height="165" stroke="#767382" stroke-width="9"/>
<rect x="3684.5" y="1203.5" width="28" height="165" stroke="#767382" stroke-width="9"/>
<rect x="1872.5" y="1203.5" width="27" height="165" stroke="#767382" stroke-width="9"/>
<rect x="3118.5" y="1203.5" width="28" height="165" stroke="#767382" stroke-width="9"/>
<rect x="2494.5" y="1203.5" width="29" height="165" stroke="#767382" stroke-width="9"/>
<rect x="3742.5" y="1203.5" width="28" height="165" stroke="#767382" stroke-width="9"/>
<rect x="1928.5" y="1203.5" width="29" height="165" stroke="#767382" stroke-width="9"/>
<rect x="3174.5" y="1203.5" width="29" height="165" stroke="#767382" stroke-width="9"/>
<rect x="2551.5" y="1203.5" width="28" height="165" stroke="#767382" stroke-width="9"/>
<rect x="1984.5" y="1203.5" width="29" height="165" stroke="#767382" stroke-width="9"/>
<rect x="3232.5" y="1203.5" width="28" height="165" stroke="#767382" stroke-width="9"/>
<rect x="2607.5" y="1203.5" width="28" height="165" stroke="#767382" stroke-width="9"/>
<path d="M2589.82 1080.18C2591.58 1081.94 2594.42 1081.94 2596.18 1080.18L2624.82 1051.54C2626.58 1049.79 2626.58 1046.94 2624.82 1045.18C2623.06 1043.42 2620.21 1043.42 2618.46 1045.18L2593 1070.64L2567.54 1045.18C2565.79 1043.42 2562.94 1043.42 2561.18 1045.18C2559.42 1046.94 2559.42 1049.79 2561.18 1051.54L2589.82 1080.18ZM2588.5 830L2588.5 1077L2597.5 1077L2597.5 830L2588.5 830Z" fill="#767382" fill-opacity="0.7"/>
<path d="M2834.82 1683.18C2836.58 1684.94 2839.42 1684.94 2841.18 1683.18L2869.82 1654.54C2871.58 1652.79 2871.58 1649.94 2869.82 1648.18C2868.06 1646.42 2865.21 1646.42 2863.46 1648.18L2838 1673.64L2812.54 1648.18C2810.79 1646.42 2807.94 1646.42 2806.18 1648.18C2804.42 1649.94 2804.42 1652.79 2806.18 1654.54L2834.82 1683.18ZM2833.5 1476L2833.5 1680L2842.5 1680L2842.5 1476L2833.5 1476Z" fill="#767382" fill-opacity="0.7"/>
<path d="M3278.82 1077.18C3280.58 1078.94 3283.42 1078.94 3285.18 1077.18L3313.82 1048.54C3315.58 1046.79 3315.58 1043.94 3313.82 1042.18C3312.06 1040.42 3309.21 1040.42 3307.46 1042.18L3282 1067.64L3256.54 1042.18C3254.79 1040.42 3251.94 1040.42 3250.18 1042.18C3248.42 1043.94 3248.42 1046.79 3250.18 1048.54L3278.82 1077.18ZM3277.5 827L3277.5 1074L3286.5 1074L3286.5 827L3277.5 827Z" fill="#767382" fill-opacity="0.7"/>
<path d="M1904.82 1077.18C1906.58 1078.94 1909.42 1078.94 1911.18 1077.18L1939.82 1048.54C1941.58 1046.79 1941.58 1043.94 1939.82 1042.18C1938.06 1040.42 1935.21 1040.42 1933.46 1042.18L1908 1067.64L1882.54 1042.18C1880.79 1040.42 1877.94 1040.42 1876.18 1042.18C1874.42 1043.94 1874.42 1046.79 1876.18 1048.54L1904.82 1077.18ZM1903.5 827L1903.5 1074L1912.5 1074L1912.5 827L1903.5 827Z" fill="#767382" fill-opacity="0.7"/>
<path d="M1564.82 1077.18C1566.58 1078.94 1569.42 1078.94 1571.18 1077.18L1599.82 1048.54C1601.58 1046.79 1601.58 1043.94 1599.82 1042.18C1598.06 1040.42 1595.21 1040.42 1593.46 1042.18L1568 1067.64L1542.54 1042.18C1540.79 1040.42 1537.94 1040.42 1536.18 1042.18C1534.42 1043.94 1534.42 1046.79 1536.18 1048.54L1564.82 1077.18ZM1563.5 827L1563.5 1074L1572.5 1074L1572.5 827L1563.5 827Z" fill="#767382" fill-opacity="0.7"/>
<path d="M2819.82 1077.18C2821.58 1078.94 2824.42 1078.94 2826.18 1077.18L2854.82 1048.54C2856.58 1046.79 2856.58 1043.94 2854.82 1042.18C2853.06 1040.42 2850.21 1040.42 2848.46 1042.18L2823 1067.64L2797.54 1042.18C2795.79 1040.42 2792.94 1040.42 2791.18 1042.18C2789.42 1043.94 2789.42 1046.79 2791.18 1048.54L2819.82 1077.18ZM2818.5 827L2818.5 1074L2827.5 1074L2827.5 827L2818.5 827Z" fill="#767382" fill-opacity="0.7"/>
<path d="M3508.82 1074.18C3510.58 1075.94 3513.42 1075.94 3515.18 1074.18L3543.82 1045.54C3545.58 1043.79 3545.58 1040.94 3543.82 1039.18C3542.06 1037.42 3539.21 1037.42 3537.46 1039.18L3512 1064.64L3486.54 1039.18C3484.79 1037.42 3481.94 1037.42 3480.18 1039.18C3478.42 1040.94 3478.42 1043.79 3480.18 1045.54L3508.82 1074.18ZM3507.5 824L3507.5 1071L3516.5 1071L3516.5 824L3507.5 824Z" fill="#767382" fill-opacity="0.7"/>
<path d="M2134.82 1074.18C2136.58 1075.94 2139.42 1075.94 2141.18 1074.18L2169.82 1045.54C2171.58 1043.79 2171.58 1040.94 2169.82 1039.18C2168.06 1037.42 2165.21 1037.42 2163.46 1039.18L2138 1064.64L2112.54 1039.18C2110.79 1037.42 2107.94 1037.42 2106.18 1039.18C2104.42 1040.94 2104.42 1043.79 2106.18 1045.54L2134.82 1074.18ZM2133.5 824L2133.5 1071L2142.5 1071L2142.5 824L2133.5 824Z" fill="#767382" fill-opacity="0.7"/>
<path d="M3049.82 1077.18C3051.58 1078.94 3054.42 1078.94 3056.18 1077.18L3084.82 1048.54C3086.58 1046.79 3086.58 1043.94 3084.82 1042.18C3083.06 1040.42 3080.21 1040.42 3078.46 1042.18L3053 1067.64L3027.54 1042.18C3025.79 1040.42 3022.94 1040.42 3021.18 1042.18C3019.42 1043.94 3019.42 1046.79 3021.18 1048.54L3049.82 1077.18ZM3048.5 827L3048.5 1074L3057.5 1074L3057.5 827L3048.5 827Z" fill="#767382" fill-opacity="0.7"/>
<path d="M3738.82 1074.18C3740.58 1075.94 3743.42 1075.94 3745.18 1074.18L3773.82 1045.54C3775.58 1043.79 3775.58 1040.94 3773.82 1039.18C3772.06 1037.42 3769.21 1037.42 3767.46 1039.18L3742 1064.64L3716.54 1039.18C3714.79 1037.42 3711.94 1037.42 3710.18 1039.18C3708.42 1040.94 3708.42 1043.79 3710.18 1045.54L3738.82 1074.18ZM3737.5 824L3737.5 1071L3746.5 1071L3746.5 824L3737.5 824Z" fill="#767382" fill-opacity="0.7"/>
<path d="M2364.82 1074.18C2366.58 1075.94 2369.42 1075.94 2371.18 1074.18L2399.82 1045.54C2401.58 1043.79 2401.58 1040.94 2399.82 1039.18C2398.06 1037.42 2395.21 1037.42 2393.46 1039.18L2368 1064.64L2342.54 1039.18C2340.79 1037.42 2337.94 1037.42 2336.18 1039.18C2334.42 1040.94 2334.42 1043.79 2336.18 1045.54L2364.82 1074.18ZM2363.5 824L2363.5 1071L2372.5 1071L2372.5 824L2363.5 824Z" fill="#767382" fill-opacity="0.7"/>
<path d="M2474.82 826.818C2476.58 825.061 2479.42 825.061 2481.18 826.818L2509.82 855.456C2511.58 857.213 2511.58 860.062 2509.82 861.82C2508.06 863.577 2505.21 863.577 2503.46 861.82L2478 836.364L2452.54 861.82C2450.79 863.577 2447.94 863.577 2446.18 861.82C2444.42 860.062 2444.42 857.213 2446.18 855.456L2474.82 826.818ZM2473.5 1077L2473.5 830L2482.5 830L2482.5 1077L2473.5 1077Z" fill="#767382" fill-opacity="0.7"/>
<path d="M2311.82 1472.82C2313.58 1471.06 2316.42 1471.06 2318.18 1472.82L2346.82 1501.46C2348.58 1503.21 2348.58 1506.06 2346.82 1507.82C2345.06 1509.58 2342.21 1509.58 2340.46 1507.82L2315 1482.36L2289.54 1507.82C2287.79 1509.58 2284.94 1509.58 2283.18 1507.82C2281.42 1506.06 2281.42 1503.21 2283.18 1501.46L2311.82 1472.82ZM2310.5 1680L2310.5 1476L2319.5 1476L2319.5 1680L2310.5 1680Z" fill="#767382" fill-opacity="0.7"/>
<path d="M3163.82 823.818C3165.58 822.061 3168.42 822.061 3170.18 823.818L3198.82 852.456C3200.58 854.213 3200.58 857.062 3198.82 858.82C3197.06 860.577 3194.21 860.577 3192.46 858.82L3167 833.364L3141.54 858.82C3139.79 860.577 3136.94 860.577 3135.18 858.82C3133.42 857.062 3133.42 854.213 3135.18 852.456L3163.82 823.818ZM3162.5 1074L3162.5 827L3171.5 827L3171.5 1074L3162.5 1074Z" fill="#767382" fill-opacity="0.7"/>
<path d="M1789.82 823.818C1791.58 822.061 1794.42 822.061 1796.18 823.818L1824.82 852.456C1826.58 854.213 1826.58 857.062 1824.82 858.82C1823.06 860.577 1820.21 860.577 1818.46 858.82L1793 833.364L1767.54 858.82C1765.79 860.577 1762.94 860.577 1761.18 858.82C1759.42 857.062 1759.42 854.213 1761.18 852.456L1789.82 823.818ZM1788.5 1074L1788.5 827L1797.5 827L1797.5 1074L1788.5 1074Z" fill="#767382" fill-opacity="0.7"/>
<path d="M1449.82 823.818C1451.58 822.061 1454.42 822.061 1456.18 823.818L1484.82 852.456C1486.58 854.213 1486.58 857.062 1484.82 858.82C1483.06 860.577 1480.21 860.577 1478.46 858.82L1453 833.364L1427.54 858.82C1425.79 860.577 1422.94 860.577 1421.18 858.82C1419.42 857.062 1419.42 854.213 1421.18 852.456L1449.82 823.818ZM1448.5 1074L1448.5 827L1457.5 827L1457.5 1074L1448.5 1074Z" fill="#767382" fill-opacity="0.7"/>
<path d="M2704.82 823.818C2706.58 822.061 2709.42 822.061 2711.18 823.818L2739.82 852.456C2741.58 854.213 2741.58 857.062 2739.82 858.82C2738.06 860.577 2735.21 860.577 2733.46 858.82L2708 833.364L2682.54 858.82C2680.79 860.577 2677.94 860.577 2676.18 858.82C2674.42 857.062 2674.42 854.213 2676.18 852.456L2704.82 823.818ZM2703.5 1074L2703.5 827L2712.5 827L2712.5 1074L2703.5 1074Z" fill="#767382" fill-opacity="0.7"/>
<path d="M3393.82 820.818C3395.58 819.061 3398.42 819.061 3400.18 820.818L3428.82 849.456C3430.58 851.213 3430.58 854.062 3428.82 855.82C3427.06 857.577 3424.21 857.577 3422.46 855.82L3397 830.364L3371.54 855.82C3369.79 857.577 3366.94 857.577 3365.18 855.82C3363.42 854.062 3363.42 851.213 3365.18 849.456L3393.82 820.818ZM3392.5 1071L3392.5 824L3401.5 824L3401.5 1071L3392.5 1071Z" fill="#767382" fill-opacity="0.7"/>
<path d="M2019.82 820.818C2021.58 819.061 2024.42 819.061 2026.18 820.818L2054.82 849.456C2056.58 851.213 2056.58 854.062 2054.82 855.82C2053.06 857.577 2050.21 857.577 2048.46 855.82L2023 830.364L1997.54 855.82C1995.79 857.577 1992.94 857.577 1991.18 855.82C1989.42 854.062 1989.42 851.213 1991.18 849.456L2019.82 820.818ZM2018.5 1071L2018.5 824L2027.5 824L2027.5 1071L2018.5 1071Z" fill="#767382" fill-opacity="0.7"/>
<path d="M1679.82 820.818C1681.58 819.061 1684.42 819.061 1686.18 820.818L1714.82 849.456C1716.58 851.213 1716.58 854.062 1714.82 855.82C1713.06 857.577 1710.21 857.577 1708.46 855.82L1683 830.364L1657.54 855.82C1655.79 857.577 1652.94 857.577 1651.18 855.82C1649.42 854.062 1649.42 851.213 1651.18 849.456L1679.82 820.818ZM1678.5 1071L1678.5 824L1687.5 824L1687.5 1071L1678.5 1071Z" fill="#767382" fill-opacity="0.7"/>
<path d="M2934.82 823.818C2936.58 822.061 2939.42 822.061 2941.18 823.818L2969.82 852.456C2971.58 854.213 2971.58 857.062 2969.82 858.82C2968.06 860.577 2965.21 860.577 2963.46 858.82L2938 833.364L2912.54 858.82C2910.79 860.577 2907.94 860.577 2906.18 858.82C2904.42 857.062 2904.42 854.213 2906.18 852.456L2934.82 823.818ZM2933.5 1074L2933.5 827L2942.5 827L2942.5 1074L2933.5 1074Z" fill="#767382" fill-opacity="0.7"/>
<path d="M3623.82 820.818C3625.58 819.061 3628.42 819.061 3630.18 820.818L3658.82 849.456C3660.58 851.213 3660.58 854.062 3658.82 855.82C3657.06 857.577 3654.21 857.577 3652.46 855.82L3627 830.364L3601.54 855.82C3599.79 857.577 3596.94 857.577 3595.18 855.82C3593.42 854.062 3593.42 851.213 3595.18 849.456L3623.82 820.818ZM3622.5 1071L3622.5 824L3631.5 824L3631.5 1071L3622.5 1071Z" fill="#767382" fill-opacity="0.7"/>
<path d="M2249.82 820.818C2251.58 819.061 2254.42 819.061 2256.18 820.818L2284.82 849.456C2286.58 851.213 2286.58 854.062 2284.82 855.82C2283.06 857.577 2280.21 857.577 2278.46 855.82L2253 830.364L2227.54 855.82C2225.79 857.577 2222.94 857.577 2221.18 855.82C2219.42 854.062 2219.42 851.213 2221.18 849.456L2249.82 820.818ZM2248.5 1071L2248.5 824L2257.5 824L2257.5 1071L2248.5 1071Z" fill="#767382" fill-opacity="0.7"/>
<path d="M229.887 363V283H255.707C261.384 283 266.124 284.029 269.926 286.086C273.754 288.117 276.632 290.943 278.559 294.562C280.512 298.156 281.488 302.284 281.488 306.945C281.488 311.607 280.512 315.721 278.559 319.289C276.632 322.857 273.767 325.643 269.965 327.648C266.163 329.654 261.449 330.656 255.824 330.656H233.832V323.977H255.629C259.796 323.977 263.259 323.286 266.02 321.906C268.806 320.526 270.876 318.56 272.23 316.008C273.611 313.456 274.301 310.435 274.301 306.945C274.301 303.456 273.611 300.409 272.23 297.805C270.85 295.174 268.767 293.143 265.98 291.711C263.22 290.279 259.73 289.562 255.512 289.562H237.191V363H229.887ZM265.16 326.906L284.848 363H276.41L256.918 326.906H265.16ZM299.398 363H291.742L320.844 283H328.656L357.758 363H350.102L325.023 292.492H324.477L299.398 363ZM304.906 332.336H344.594V338.898H304.906V332.336ZM371.469 283H379.906L408.93 352.688H409.633L438.656 283H447.094V363H440.219V298.43H439.594L412.602 363H405.961L378.969 298.43H378.344V363H371.469V283Z" fill="white" fill-opacity="0.7"/>
<path d="M296.571 1333H289.228C288.681 1330.27 287.691 1327.74 286.259 1325.42C284.853 1323.08 283.082 1321.03 280.946 1319.29C278.811 1317.54 276.389 1316.19 273.681 1315.23C270.972 1314.26 268.043 1313.78 264.892 1313.78C259.84 1313.78 255.23 1315.1 251.063 1317.73C246.923 1320.36 243.603 1324.22 241.103 1329.33C238.629 1334.41 237.392 1340.63 237.392 1348C237.392 1355.42 238.629 1361.67 241.103 1366.75C243.603 1371.83 246.923 1375.68 251.063 1378.31C255.23 1380.92 259.84 1382.22 264.892 1382.22C268.043 1382.22 270.972 1381.74 273.681 1380.77C276.389 1379.81 278.811 1378.47 280.946 1376.75C283.082 1375.01 284.853 1372.96 286.259 1370.62C287.691 1368.27 288.681 1365.73 289.228 1363H296.571C295.92 1366.67 294.696 1370.1 292.899 1373.27C291.129 1376.42 288.863 1379.18 286.103 1381.55C283.368 1383.92 280.217 1385.77 276.649 1387.1C273.082 1388.43 269.162 1389.09 264.892 1389.09C258.173 1389.09 252.209 1387.41 247.001 1384.05C241.793 1380.67 237.704 1375.9 234.735 1369.76C231.793 1363.61 230.321 1356.36 230.321 1348C230.321 1339.64 231.793 1332.39 234.735 1326.24C237.704 1320.1 241.793 1315.34 247.001 1311.98C252.209 1308.6 258.173 1306.91 264.892 1306.91C269.162 1306.91 273.082 1307.57 276.649 1308.9C280.217 1310.2 283.368 1312.05 286.103 1314.45C288.863 1316.82 291.129 1319.58 292.899 1322.73C294.696 1325.88 295.92 1329.3 296.571 1333ZM313.729 1388V1308H339.55C345.227 1308 349.966 1309.09 353.769 1311.28C357.597 1313.44 360.474 1316.39 362.401 1320.11C364.354 1323.83 365.331 1328.03 365.331 1332.69C365.331 1337.35 364.368 1341.55 362.44 1345.3C360.513 1349.03 357.649 1351.98 353.847 1354.17C350.045 1356.33 345.318 1357.41 339.667 1357.41H319.354V1350.85H339.472C343.664 1350.85 347.141 1350.07 349.901 1348.51C352.662 1346.92 354.719 1344.76 356.073 1342.02C357.453 1339.29 358.144 1336.18 358.144 1332.69C358.144 1329.2 357.453 1326.09 356.073 1323.35C354.719 1320.62 352.649 1318.47 349.862 1316.91C347.102 1315.34 343.599 1314.56 339.354 1314.56H321.034V1388H313.729ZM435.8 1308H443.104V1360.97C443.104 1366.41 441.828 1371.28 439.276 1375.58C436.724 1379.85 433.17 1383.22 428.612 1385.7C424.081 1388.14 418.808 1389.37 412.792 1389.37C406.802 1389.37 401.529 1388.13 396.972 1385.66C392.414 1383.18 388.86 1379.81 386.308 1375.54C383.756 1371.27 382.479 1366.41 382.479 1360.97V1308H389.784V1360.46C389.784 1364.71 390.735 1368.49 392.636 1371.83C394.537 1375.14 397.206 1377.74 400.644 1379.64C404.107 1381.54 408.157 1382.49 412.792 1382.49C417.427 1382.49 421.477 1381.54 424.94 1379.64C428.404 1377.74 431.073 1375.14 432.948 1371.83C434.849 1368.49 435.8 1364.71 435.8 1360.46V1308Z" fill="white" fill-opacity="0.7"/>
<path d="M280.407 1931C279.678 1928.34 278.61 1925.86 277.204 1923.54C275.798 1921.2 274.053 1919.15 271.97 1917.41C269.912 1915.64 267.53 1914.26 264.821 1913.27C262.139 1912.28 259.144 1911.78 255.837 1911.78C250.629 1911.78 245.967 1913.14 241.853 1915.84C237.738 1918.55 234.483 1922.46 232.087 1927.56C229.717 1932.67 228.532 1938.81 228.532 1946C228.532 1953.16 229.73 1959.29 232.126 1964.4C234.522 1969.5 237.803 1973.42 241.97 1976.16C246.162 1978.86 250.954 1980.22 256.345 1980.22C261.267 1980.22 265.616 1979.12 269.392 1976.94C273.168 1974.75 276.11 1971.62 278.22 1967.56C280.355 1963.5 281.397 1958.67 281.345 1953.07L283.688 1953.81H258.063V1947.25H288.454V1953.81C288.454 1960.64 287.074 1966.53 284.313 1971.51C281.553 1976.48 277.764 1980.32 272.946 1983.03C268.129 1985.74 262.595 1987.09 256.345 1987.09C249.366 1987.09 243.259 1985.41 238.024 1982.05C232.79 1978.67 228.715 1973.9 225.798 1967.76C222.907 1961.59 221.462 1954.33 221.462 1946C221.462 1939.72 222.295 1934.06 223.962 1929.01C225.629 1923.96 227.985 1919.63 231.032 1916.04C234.105 1912.45 237.738 1909.7 241.931 1907.8C246.123 1905.87 250.759 1904.91 255.837 1904.91C260.212 1904.91 264.209 1905.6 267.829 1906.98C271.475 1908.36 274.678 1910.26 277.438 1912.68C280.225 1915.08 282.504 1917.85 284.274 1921C286.071 1924.12 287.282 1927.46 287.907 1931H280.407ZM306.589 1986V1906H332.409C338.086 1906 342.826 1907.09 346.628 1909.28C350.456 1911.44 353.334 1914.39 355.261 1918.11C357.214 1921.83 358.19 1926.03 358.19 1930.69C358.19 1935.35 357.227 1939.55 355.3 1943.3C353.373 1947.03 350.508 1949.98 346.706 1952.17C342.904 1954.33 338.177 1955.41 332.526 1955.41H312.214V1948.85H332.331C336.524 1948.85 340 1948.07 342.761 1946.51C345.521 1944.92 347.578 1942.76 348.933 1940.02C350.313 1937.29 351.003 1934.18 351.003 1930.69C351.003 1927.2 350.313 1924.09 348.933 1921.35C347.578 1918.62 345.508 1916.47 342.722 1914.91C339.961 1913.34 336.459 1912.56 332.214 1912.56H313.894V1986H306.589ZM428.659 1906H435.964V1958.97C435.964 1964.41 434.688 1969.28 432.136 1973.58C429.584 1977.85 426.029 1981.22 421.472 1983.7C416.94 1986.14 411.667 1987.37 405.651 1987.37C399.662 1987.37 394.388 1986.13 389.831 1983.66C385.274 1981.18 381.719 1977.81 379.167 1973.54C376.615 1969.27 375.339 1964.41 375.339 1958.97V1906H382.644V1958.46C382.644 1962.71 383.594 1966.49 385.495 1969.83C387.396 1973.14 390.065 1975.74 393.503 1977.64C396.966 1979.54 401.016 1980.49 405.651 1980.49C410.287 1980.49 414.336 1979.54 417.8 1977.64C421.263 1975.74 423.933 1973.14 425.808 1969.83C427.709 1966.49 428.659 1962.71 428.659 1958.46V1906Z" fill="white" fill-opacity="0.7"/>
<circle cx="119" cy="176" r="34" fill="#10CC55"/>
<circle cx="119" cy="1200" r="34" fill="#62B4FF"/>
<circle cx="119" cy="1795" r="34" fill="#FAFF08"/>
<line x1="1591.82" y1="346.283" x2="1642.82" y2="400.283" stroke="#767382" stroke-opacity="0.7" stroke-width="5"/>
<line x1="1758.02" y1="238.94" x2="1706.58" y2="292.521" stroke="#767382" stroke-opacity="0.7" stroke-width="5"/>
<line x1="1876.24" y1="463.731" x2="1824.8" y2="517.312" stroke="#767382" stroke-opacity="0.7" stroke-width="5"/>
<line x1="2105.24" y1="463.731" x2="2053.8" y2="517.312" stroke="#767382" stroke-opacity="0.7" stroke-width="5"/>
<path d="M2342.5 357.5L2273 507" stroke="#767382" stroke-opacity="0.7" stroke-width="5"/>
<path d="M2800.5 240.4L2731 389.9" stroke="#767382" stroke-opacity="0.7" stroke-width="5"/>
<path d="M3031.5 472.4L2962 621.9" stroke="#767382" stroke-opacity="0.7" stroke-width="5"/>
<path d="M3372.5 358.4L3303 507.9" stroke="#767382" stroke-opacity="0.7" stroke-width="5"/>
<path d="M3601.5 471.4L3532 620.9" stroke="#767382" stroke-opacity="0.7" stroke-width="5"/>
<path d="M3490.5 241.4L3421 390.9" stroke="#767382" stroke-opacity="0.7" stroke-width="5"/>
<path d="M2570.5 471.4L2501 620.9" stroke="#767382" stroke-opacity="0.7" stroke-width="5"/>
<path d="M2668.5 571L2516.5 636" stroke="#767382" stroke-opacity="0.7" stroke-width="5"/>
<path d="M2898 344.984L2746 409.984" stroke="#767382" stroke-opacity="0.7" stroke-width="5"/>
<path d="M2898 565.984L2746 630.984" stroke="#767382" stroke-opacity="0.7" stroke-width="5"/>
<path d="M2554 343.984L2402 408.984" stroke="#767382" stroke-opacity="0.7" stroke-width="5"/>
<path d="M2209 227.984L2057 292.984" stroke="#767382" stroke-opacity="0.7" stroke-width="5"/>
<path d="M3126 343.984L2974 408.984" stroke="#767382" stroke-opacity="0.7" stroke-width="5"/>
<path d="M2440 571.984L2288 636.984" stroke="#767382" stroke-opacity="0.7" stroke-width="5"/>
<path d="M2097 570.984L1945 635.984" stroke="#767382" stroke-opacity="0.7" stroke-width="5"/>
<path d="M1751 569.984L1599 634.984" stroke="#767382" stroke-opacity="0.7" stroke-width="5"/>
<path d="M1637 343.984L1485 408.984" stroke="#767382" stroke-opacity="0.7" stroke-width="5"/>
<path d="M1983 407.5L1828 347.001" stroke="#767382" stroke-opacity="0.7" stroke-width="5"/>
<path d="M1983.76 294.5L1828.76 234.001" stroke="#767382" stroke-opacity="0.7" stroke-width="5"/>
<path d="M2330.76 408.5L2175.76 348.001" stroke="#767382" stroke-opacity="0.7" stroke-width="5"/>
<path d="M2552.76 294.5L2397.76 234.001" stroke="#767382" stroke-opacity="0.7" stroke-width="5"/>
<path d="M2899.76 294.5L2744.76 234.001" stroke="#767382" stroke-opacity="0.7" stroke-width="5"/>
<path d="M3359.76 408.5L3204.76 348.001" stroke="#767382" stroke-opacity="0.7" stroke-width="5"/>
<path d="M3588.76 520.5L3433.76 460.001" stroke="#767382" stroke-opacity="0.7" stroke-width="5"/>
<path d="M3702.76 408.5L3547.76 348.001" stroke="#767382" stroke-opacity="0.7" stroke-width="5"/>
<path d="M2151.81 469L2231 616.5" stroke="#767382" stroke-opacity="0.7" stroke-width="5"/>
<path d="M2268.37 247L2347.56 394.5" stroke="#767382" stroke-opacity="0.7" stroke-width="5"/>
<path d="M2382.37 473L2461.56 620.5" stroke="#767382" stroke-opacity="0.7" stroke-width="5"/>
<path d="M2843.37 473L2922.56 620.5" stroke="#767382" stroke-opacity="0.7" stroke-width="5"/>
<path d="M3185.37 473L3264.56 620.5" stroke="#767382" stroke-opacity="0.7" stroke-width="5"/>
<path d="M1924.37 359L2003.56 506.5" stroke="#767382" stroke-opacity="0.7" stroke-width="5"/>
<path d="M1579.37 241L1658.56 388.5" stroke="#767382" stroke-opacity="0.7" stroke-width="5"/>
<path d="M1767.5 359.4L1698 508.9" stroke="#767382" stroke-opacity="0.7" stroke-width="5"/>
<path d="M1540.5 244.4L1471 393.9" stroke="#767382" stroke-opacity="0.7" stroke-width="5"/>
<path d="M2226.5 244.4L2157 393.9" stroke="#767382" stroke-opacity="0.7" stroke-width="5"/>
<line x1="2678.24" y1="351.731" x2="2626.8" y2="405.312" stroke="#767382" stroke-opacity="0.7" stroke-width="5"/>
<line x1="3022.24" y1="238.731" x2="2970.8" y2="292.312" stroke="#767382" stroke-opacity="0.7" stroke-width="5"/>
<line x1="3595.24" y1="464.731" x2="3543.8" y2="518.312" stroke="#767382" stroke-opacity="0.7" stroke-width="5"/>
<line x1="3710.24" y1="235.731" x2="3658.8" y2="289.312" stroke="#767382" stroke-opacity="0.7" stroke-width="5"/>
<line x1="2337.24" y1="238.731" x2="2285.8" y2="292.312" stroke="#767382" stroke-opacity="0.7" stroke-width="5"/>
<line x1="2315" y1="209.5" x2="2298" y2="209.5" stroke="#767382" stroke-opacity="0.7" stroke-width="5"/>
<line x1="2085" y1="209.5" x2="2068" y2="209.5" stroke="#767382" stroke-opacity="0.7" stroke-width="5"/>
<line x1="2085" y1="323.5" x2="2068" y2="323.5" stroke="#767382" stroke-opacity="0.7" stroke-width="5"/>
<line x1="2658" y1="322.5" x2="2641" y2="322.5" stroke="#767382" stroke-opacity="0.7" stroke-width="5"/>
<line x1="2888" y1="436.5" x2="2871" y2="436.5" stroke="#767382" stroke-opacity="0.7" stroke-width="5"/>
<line x1="3117" y1="321.5" x2="3100" y2="321.5" stroke="#767382" stroke-opacity="0.7" stroke-width="5"/>
<line x1="3347" y1="210.5" x2="3325" y2="210.5" stroke="#767382" stroke-opacity="0.7" stroke-width="5"/>
<line x1="3578" y1="322.5" x2="3556" y2="322.5" stroke="#767382" stroke-opacity="0.7" stroke-width="5"/>
<line x1="3693" y1="436.5" x2="3671" y2="436.5" stroke="#767382" stroke-opacity="0.7" stroke-width="5"/>
<line x1="3691" y1="662.5" x2="3669" y2="662.5" stroke="#767382" stroke-opacity="0.7" stroke-width="5"/>
<line x1="3461" y1="661.5" x2="3439" y2="661.5" stroke="#767382" stroke-opacity="0.7" stroke-width="5"/>
<line x1="3394.5" y1="613" x2="3394.5" y2="591" stroke="#767382" stroke-opacity="0.7" stroke-width="5"/>
<line x1="3164.5" y1="611" x2="3164.5" y2="589" stroke="#767382" stroke-opacity="0.7" stroke-width="5"/>
<line x1="3393.5" y1="497" x2="3393.5" y2="475" stroke="#767382" stroke-opacity="0.7" stroke-width="5"/>
<line x1="3394.5" y1="271" x2="3394.5" y2="249" stroke="#767382" stroke-opacity="0.7" stroke-width="5"/>
<line x1="3622.5" y1="271" x2="3622.5" y2="249" stroke="#767382" stroke-opacity="0.7" stroke-width="5"/>
<line x1="3164.5" y1="275" x2="3164.5" y2="253" stroke="#767382" stroke-opacity="0.7" stroke-width="5"/>
<line x1="2934.5" y1="275" x2="2934.5" y2="253" stroke="#767382" stroke-opacity="0.7" stroke-width="5"/>
<line x1="2934.5" y1="501" x2="2934.5" y2="479" stroke="#767382" stroke-opacity="0.7" stroke-width="5"/>
<line x1="2705.5" y1="500" x2="2705.5" y2="478" stroke="#767382" stroke-opacity="0.7" stroke-width="5"/>
<line x1="2361.5" y1="501" x2="2361.5" y2="479" stroke="#767382" stroke-opacity="0.7" stroke-width="5"/>
<line x1="2247.5" y1="611" x2="2247.5" y2="589" stroke="#767382" stroke-opacity="0.7" stroke-width="5"/>
<line x1="1903.5" y1="611" x2="1903.5" y2="589" stroke="#767382" stroke-opacity="0.7" stroke-width="5"/>
<line x1="1787.5" y1="611" x2="1787.5" y2="589" stroke="#767382" stroke-opacity="0.7" stroke-width="5"/>
<line x1="1558.5" y1="498" x2="1558.5" y2="476" stroke="#767382" stroke-opacity="0.7" stroke-width="5"/>
<line x1="1443.5" y1="385" x2="1443.5" y2="363" stroke="#767382" stroke-opacity="0.7" stroke-width="5"/>
<line x1="1443.5" y1="610" x2="1443.5" y2="588" stroke="#767382" stroke-opacity="0.7" stroke-width="5"/>
<line x1="2020.5" y1="498" x2="2020.5" y2="476" stroke="#767382" stroke-opacity="0.7" stroke-width="5"/>
<line x1="2132.5" y1="386" x2="2132.5" y2="364" stroke="#767382" stroke-opacity="0.7" stroke-width="5"/>
<line x1="2590.5" y1="381" x2="2590.5" y2="359" stroke="#767382" stroke-opacity="0.7" stroke-width="5"/>
<line x1="2705.5" y1="271" x2="2705.5" y2="249" stroke="#767382" stroke-opacity="0.7" stroke-width="5"/>
<line x1="3164.5" y1="385" x2="3164.5" y2="363" stroke="#767382" stroke-opacity="0.7" stroke-width="5"/>
<line x1="3278.5" y1="272" x2="3278.5" y2="250" stroke="#767382" stroke-opacity="0.7" stroke-width="5"/>
<line x1="3049.5" y1="611" x2="3049.5" y2="589" stroke="#767382" stroke-opacity="0.7" stroke-width="5"/>
<line x1="2773" y1="549.5" x2="2756" y2="549.5" stroke="#767382" stroke-opacity="0.7" stroke-width="5"/>
<line x1="2429" y1="662.5" x2="2412" y2="662.5" stroke="#767382" stroke-opacity="0.7" stroke-width="5"/>
<line x1="2085" y1="662.5" x2="2068" y2="662.5" stroke="#767382" stroke-opacity="0.7" stroke-width="5"/>
<line x1="1856" y1="662.5" x2="1839" y2="662.5" stroke="#767382" stroke-opacity="0.7" stroke-width="5"/>
<line x1="1739" y1="548.5" x2="1722" y2="548.5" stroke="#767382" stroke-opacity="0.7" stroke-width="5"/>
<line x1="1744" y1="323.5" x2="1727" y2="323.5" stroke="#767382" stroke-opacity="0.7" stroke-width="5"/>
<line x1="1624" y1="209.5" x2="1607" y2="209.5" stroke="#767382" stroke-opacity="0.7" stroke-width="5"/>
<line x1="1510" y1="436.5" x2="1493" y2="436.5" stroke="#767382" stroke-opacity="0.7" stroke-width="5"/>
<line x1="1987.24" y1="238.731" x2="1935.8" y2="292.312" stroke="#767382" stroke-opacity="0.7" stroke-width="5"/>
<line x1="1528.24" y1="576.731" x2="1476.8" y2="630.312" stroke="#767382" stroke-opacity="0.7" stroke-width="5"/>
<line x1="2054.82" y1="348.283" x2="2105.82" y2="402.283" stroke="#767382" stroke-opacity="0.7" stroke-width="5"/>
<line x1="2283.82" y1="460.283" x2="2334.82" y2="514.283" stroke="#767382" stroke-opacity="0.7" stroke-width="5"/>
<line x1="1824.82" y1="575.283" x2="1875.82" y2="629.283" stroke="#767382" stroke-opacity="0.7" stroke-width="5"/>
<line x1="2511.82" y1="238.283" x2="2562.82" y2="292.283" stroke="#767382" stroke-opacity="0.7" stroke-width="5"/>
<line x1="2741.82" y1="461.283" x2="2792.82" y2="515.283" stroke="#767382" stroke-opacity="0.7" stroke-width="5"/>
<line x1="3199.82" y1="235.283" x2="3250.82" y2="289.283" stroke="#767382" stroke-opacity="0.7" stroke-width="5"/>
<line x1="3429.82" y1="348.283" x2="3480.82" y2="402.283" stroke="#767382" stroke-opacity="0.7" stroke-width="5"/>
<line x1="3426.82" y1="575.283" x2="3477.82" y2="629.283" stroke="#767382" stroke-opacity="0.7" stroke-width="5"/>
<line x1="3658.82" y1="575.283" x2="3709.82" y2="629.283" stroke="#767382" stroke-opacity="0.7" stroke-width="5"/>
<line x1="3085.82" y1="461.283" x2="3136.82" y2="515.283" stroke="#767382" stroke-opacity="0.7" stroke-width="5"/>
</svg>
