<svg width="5075" height="1329" viewBox="0 0 5075 1329" fill="none" xmlns="http://www.w3.org/2000/svg">
<g filter="url(#filter0_d_110_105)">
<path d="M149.631 135.895C145.37 135.895 141.556 135.096 138.189 133.498C134.823 131.879 132.149 129.663 130.167 126.85C128.207 124.038 127.163 120.82 127.035 117.198H138.541C138.754 119.883 139.915 122.077 142.025 123.782C144.134 125.465 146.669 126.307 149.631 126.307C151.953 126.307 154.02 125.774 155.831 124.709C157.642 123.643 159.07 122.163 160.114 120.266C161.158 118.37 161.669 116.207 161.648 113.778C161.669 111.307 161.147 109.112 160.082 107.195C159.017 105.277 157.557 103.775 155.703 102.688C153.85 101.58 151.719 101.026 149.311 101.026C147.351 101.005 145.423 101.367 143.527 102.113C141.63 102.859 140.128 103.839 139.02 105.053L128.314 103.295L131.733 69.5455H169.702V79.4531H141.545L139.659 96.8075H140.043C141.257 95.38 142.973 94.1974 145.189 93.2599C147.404 92.3011 149.833 91.8217 152.475 91.8217C156.439 91.8217 159.975 92.7592 163.086 94.6342C166.197 96.4879 168.647 99.0447 170.437 102.305C172.227 105.565 173.122 109.293 173.122 113.491C173.122 117.816 172.12 121.673 170.118 125.06C168.136 128.427 165.377 131.08 161.84 133.018C158.324 134.936 154.255 135.895 149.631 135.895ZM217.85 106.236V135H206.281V85.9091H217.339V94.2507H217.914C219.043 91.5021 220.844 89.3182 223.315 87.6989C225.808 86.0795 228.887 85.2699 232.552 85.2699C235.94 85.2699 238.891 85.9943 241.405 87.4432C243.94 88.892 245.901 90.9908 247.286 93.7393C248.692 96.4879 249.384 99.8224 249.363 103.743V135H237.793V105.533C237.793 102.251 236.941 99.6839 235.237 97.8303C233.553 95.9766 231.22 95.0497 228.237 95.0497C226.213 95.0497 224.413 95.4972 222.836 96.392C221.281 97.2656 220.055 98.5334 219.161 100.195C218.287 101.857 217.85 103.871 217.85 106.236ZM282.857 135.959C277.935 135.959 273.685 134.936 270.105 132.891C266.547 130.824 263.809 127.905 261.891 124.134C259.974 120.341 259.015 115.877 259.015 110.742C259.015 105.692 259.974 101.261 261.891 97.4467C263.83 93.6115 266.536 90.6285 270.009 88.4979C273.482 86.3459 277.562 85.2699 282.25 85.2699C285.276 85.2699 288.131 85.7599 290.815 86.7401C293.521 87.6989 295.908 89.1903 297.974 91.2145C300.063 93.2386 301.703 95.8168 302.896 98.9489C304.089 102.06 304.686 105.767 304.686 110.071V113.619H264.448V105.82H293.596C293.575 103.604 293.095 101.634 292.158 99.9077C291.22 98.1605 289.91 96.7862 288.227 95.7848C286.565 94.7834 284.626 94.2827 282.41 94.2827C280.045 94.2827 277.967 94.858 276.178 96.0085C274.388 97.1378 272.992 98.6293 271.991 100.483C271.011 102.315 270.51 104.329 270.489 106.523V113.331C270.489 116.186 271.011 118.636 272.055 120.682C273.099 122.706 274.558 124.261 276.433 125.348C278.308 126.413 280.503 126.946 283.017 126.946C284.7 126.946 286.224 126.712 287.587 126.243C288.951 125.753 290.134 125.039 291.135 124.102C292.136 123.164 292.893 122.003 293.404 120.618L304.207 121.832C303.525 124.687 302.225 127.18 300.308 129.311C298.411 131.42 295.982 133.061 293.021 134.233C290.059 135.384 286.671 135.959 282.857 135.959ZM345.763 114.354V85.9091H357.333V135H346.115V126.275H345.603C344.495 129.023 342.673 131.271 340.138 133.018C337.624 134.766 334.524 135.639 330.838 135.639C327.62 135.639 324.776 134.925 322.304 133.498C319.854 132.049 317.936 129.95 316.551 127.202C315.166 124.432 314.474 121.087 314.474 117.166V85.9091H326.044V115.376C326.044 118.487 326.896 120.959 328.6 122.791C330.305 124.624 332.542 125.54 335.312 125.54C337.017 125.54 338.668 125.124 340.266 124.293C341.864 123.462 343.174 122.227 344.197 120.586C345.241 118.924 345.763 116.847 345.763 114.354ZM369.23 135V85.9091H380.448V94.0909H380.959C381.854 91.2571 383.388 89.0732 385.561 87.5391C387.756 85.9837 390.26 85.206 393.072 85.206C393.711 85.206 394.425 85.2379 395.213 85.3018C396.023 85.3445 396.694 85.419 397.227 85.5256V96.1683C396.737 95.9979 395.959 95.8487 394.894 95.7209C393.85 95.5717 392.838 95.4972 391.858 95.4972C389.748 95.4972 387.852 95.9553 386.169 96.8714C384.507 97.7663 383.196 99.0128 382.238 100.611C381.279 102.209 380.799 104.052 380.799 106.14V135H369.23ZM424.305 135.959C419.511 135.959 415.356 134.904 411.841 132.795C408.325 130.685 405.598 127.734 403.659 123.942C401.741 120.149 400.782 115.717 400.782 110.646C400.782 105.575 401.741 101.133 403.659 97.3189C405.598 93.505 408.325 90.5433 411.841 88.4339C415.356 86.3246 419.511 85.2699 424.305 85.2699C429.099 85.2699 433.254 86.3246 436.77 88.4339C440.285 90.5433 443.002 93.505 444.92 97.3189C446.858 101.133 447.828 105.575 447.828 110.646C447.828 115.717 446.858 120.149 444.92 123.942C443.002 127.734 440.285 130.685 436.77 132.795C433.254 134.904 429.099 135.959 424.305 135.959ZM424.369 126.69C426.969 126.69 429.142 125.977 430.889 124.549C432.636 123.1 433.936 121.161 434.788 118.732C435.662 116.303 436.099 113.597 436.099 110.614C436.099 107.61 435.662 104.893 434.788 102.464C433.936 100.014 432.636 98.0646 430.889 96.6158C429.142 95.1669 426.969 94.4425 424.369 94.4425C421.706 94.4425 419.49 95.1669 417.721 96.6158C415.974 98.0646 414.664 100.014 413.79 102.464C412.938 104.893 412.512 107.61 412.512 110.614C412.512 113.597 412.938 116.303 413.79 118.732C414.664 121.161 415.974 123.1 417.721 124.549C419.49 125.977 421.706 126.69 424.369 126.69ZM469.217 106.236V135H457.648V85.9091H468.706V94.2507H469.281C470.411 91.5021 472.211 89.3182 474.683 87.6989C477.175 86.0795 480.254 85.2699 483.919 85.2699C487.307 85.2699 490.258 85.9943 492.772 87.4432C495.308 88.892 497.268 90.9908 498.653 93.7393C500.059 96.4879 500.751 99.8224 500.73 103.743V135H489.161V105.533C489.161 102.251 488.308 99.6839 486.604 97.8303C484.92 95.9766 482.587 95.0497 479.604 95.0497C477.58 95.0497 475.78 95.4972 474.203 96.392C472.648 97.2656 471.423 98.5334 470.528 100.195C469.654 101.857 469.217 103.871 469.217 106.236ZM551.291 98.8849L540.744 100.036C540.446 98.9702 539.924 97.9688 539.178 97.0312C538.454 96.0938 537.474 95.3374 536.238 94.7621C535.002 94.1868 533.489 93.8991 531.7 93.8991C529.292 93.8991 527.268 94.4212 525.627 95.4652C524.008 96.5092 523.209 97.8622 523.23 99.5241C523.209 100.952 523.731 102.113 524.796 103.008C525.883 103.903 527.673 104.638 530.165 105.213L538.539 107.003C543.184 108.004 546.636 109.592 548.894 111.765C551.174 113.938 552.325 116.783 552.346 120.298C552.325 123.388 551.419 126.115 549.629 128.48C547.861 130.824 545.4 132.656 542.246 133.977C539.093 135.298 535.471 135.959 531.38 135.959C525.371 135.959 520.535 134.702 516.87 132.188C513.205 129.652 511.021 126.126 510.318 121.609L521.6 120.522C522.112 122.738 523.198 124.411 524.86 125.54C526.522 126.669 528.685 127.234 531.348 127.234C534.097 127.234 536.302 126.669 537.964 125.54C539.647 124.411 540.489 123.015 540.489 121.353C540.489 119.947 539.945 118.786 538.859 117.869C537.793 116.953 536.131 116.25 533.873 115.76L525.499 114.002C520.79 113.022 517.307 111.371 515.048 109.048C512.79 106.705 511.671 103.743 511.692 100.163C511.671 97.1378 512.491 94.517 514.153 92.3011C515.837 90.0639 518.17 88.3381 521.153 87.1236C524.157 85.8878 527.619 85.2699 531.54 85.2699C537.293 85.2699 541.82 86.495 545.123 88.9453C548.447 91.3956 550.503 94.7088 551.291 98.8849Z" fill="white"/>
<path d="M1102.93 135V126.435L1125.65 104.158C1127.83 101.964 1129.64 100.014 1131.09 98.3097C1132.54 96.6051 1133.62 94.9538 1134.35 93.3558C1135.07 91.7578 1135.43 90.0533 1135.43 88.2422C1135.43 86.1754 1134.96 84.407 1134.03 82.9368C1133.09 81.4453 1131.8 80.2947 1130.16 79.4851C1128.52 78.6754 1126.66 78.2706 1124.57 78.2706C1122.42 78.2706 1120.53 78.718 1118.91 79.6129C1117.29 80.4865 1116.03 81.733 1115.14 83.3523C1114.27 84.9716 1113.83 86.8999 1113.83 89.1371H1102.55C1102.55 84.9822 1103.49 81.3707 1105.39 78.3026C1107.29 75.2344 1109.9 72.8587 1113.22 71.1754C1116.57 69.4922 1120.4 68.6506 1124.73 68.6506C1129.12 68.6506 1132.97 69.4709 1136.3 71.1115C1139.62 72.7521 1142.2 75 1144.03 77.8551C1145.88 80.7102 1146.81 83.9702 1146.81 87.6349C1146.81 90.0852 1146.34 92.4929 1145.41 94.858C1144.47 97.223 1142.82 99.8437 1140.45 102.72C1138.11 105.597 1134.82 109.08 1130.58 113.171L1119.29 124.645V125.092H1147.8V135H1102.93ZM1183.02 136.246C1177.76 136.246 1173.24 134.915 1169.47 132.251C1165.72 129.567 1162.83 125.7 1160.81 120.65C1158.81 115.579 1157.81 109.474 1157.81 102.337C1157.83 95.1989 1158.84 89.1264 1160.84 84.1193C1162.87 79.0909 1165.75 75.2557 1169.5 72.6136C1173.27 69.9716 1177.78 68.6506 1183.02 68.6506C1188.26 68.6506 1192.77 69.9716 1196.54 72.6136C1200.31 75.2557 1203.2 79.0909 1205.2 84.1193C1207.23 89.1477 1208.24 95.2202 1208.24 102.337C1208.24 109.496 1207.23 115.611 1205.2 120.682C1203.2 125.732 1200.31 129.588 1196.54 132.251C1192.79 134.915 1188.29 136.246 1183.02 136.246ZM1183.02 126.243C1187.11 126.243 1190.34 124.229 1192.71 120.202C1195.09 116.154 1196.29 110.199 1196.29 102.337C1196.29 97.1378 1195.74 92.7699 1194.66 89.233C1193.57 85.696 1192.04 83.0327 1190.05 81.2429C1188.07 79.4318 1185.73 78.5263 1183.02 78.5263C1178.95 78.5263 1175.74 80.5504 1173.37 84.5987C1171.01 88.6257 1169.81 94.5384 1169.79 102.337C1169.77 107.557 1170.29 111.946 1171.36 115.504C1172.44 119.062 1173.98 121.747 1175.96 123.558C1177.94 125.348 1180.3 126.243 1183.02 126.243ZM1252.88 106.236V135H1241.31V85.9091H1252.37V94.2507H1252.94C1254.07 91.5021 1255.87 89.3182 1258.34 87.6989C1260.84 86.0795 1263.92 85.2699 1267.58 85.2699C1270.97 85.2699 1273.92 85.9943 1276.43 87.4432C1278.97 88.892 1280.93 90.9908 1282.31 93.7393C1283.72 96.4879 1284.41 99.8224 1284.39 103.743V135H1272.82V105.533C1272.82 102.251 1271.97 99.6839 1270.27 97.8303C1268.58 95.9766 1266.25 95.0497 1263.27 95.0497C1261.24 95.0497 1259.44 95.4972 1257.87 96.392C1256.31 97.2656 1255.08 98.5334 1254.19 100.195C1253.32 101.857 1252.88 103.871 1252.88 106.236ZM1317.89 135.959C1312.96 135.959 1308.71 134.936 1305.13 132.891C1301.58 130.824 1298.84 127.905 1296.92 124.134C1295 120.341 1294.04 115.877 1294.04 110.742C1294.04 105.692 1295 101.261 1296.92 97.4467C1298.86 93.6115 1301.57 90.6285 1305.04 88.4979C1308.51 86.3459 1312.59 85.2699 1317.28 85.2699C1320.3 85.2699 1323.16 85.7599 1325.84 86.7401C1328.55 87.6989 1330.94 89.1903 1333 91.2145C1335.09 93.2386 1336.73 95.8168 1337.93 98.9489C1339.12 102.06 1339.72 105.767 1339.72 110.071V113.619H1299.48V105.82H1328.63C1328.6 103.604 1328.12 101.634 1327.19 99.9077C1326.25 98.1605 1324.94 96.7862 1323.26 95.7848C1321.59 94.7834 1319.66 94.2827 1317.44 94.2827C1315.07 94.2827 1313 94.858 1311.21 96.0085C1309.42 97.1378 1308.02 98.6293 1307.02 100.483C1306.04 102.315 1305.54 104.329 1305.52 106.523V113.331C1305.52 116.186 1306.04 118.636 1307.08 120.682C1308.13 122.706 1309.59 124.261 1311.46 125.348C1313.34 126.413 1315.53 126.946 1318.05 126.946C1319.73 126.946 1321.25 126.712 1322.62 126.243C1323.98 125.753 1325.16 125.039 1326.16 124.102C1327.17 123.164 1327.92 122.003 1328.43 120.618L1339.24 121.832C1338.55 124.687 1337.25 127.18 1335.34 129.311C1333.44 131.42 1331.01 133.061 1328.05 134.233C1325.09 135.384 1321.7 135.959 1317.89 135.959ZM1380.79 114.354V85.9091H1392.36V135H1381.14V126.275H1380.63C1379.52 129.023 1377.7 131.271 1375.17 133.018C1372.65 134.766 1369.55 135.639 1365.87 135.639C1362.65 135.639 1359.81 134.925 1357.33 133.498C1354.88 132.049 1352.97 129.95 1351.58 127.202C1350.2 124.432 1349.5 121.087 1349.5 117.166V85.9091H1361.07V115.376C1361.07 118.487 1361.93 120.959 1363.63 122.791C1365.33 124.624 1367.57 125.54 1370.34 125.54C1372.05 125.54 1373.7 125.124 1375.3 124.293C1376.89 123.462 1378.2 122.227 1379.23 120.586C1380.27 118.924 1380.79 116.847 1380.79 114.354ZM1404.26 135V85.9091H1415.48V94.0909H1415.99C1416.88 91.2571 1418.42 89.0732 1420.59 87.5391C1422.79 85.9837 1425.29 85.206 1428.1 85.206C1428.74 85.206 1429.45 85.2379 1430.24 85.3018C1431.05 85.3445 1431.72 85.419 1432.26 85.5256V96.1683C1431.77 95.9979 1430.99 95.8487 1429.92 95.7209C1428.88 95.5717 1427.87 95.4972 1426.89 95.4972C1424.78 95.4972 1422.88 95.9553 1421.2 96.8714C1419.54 97.7663 1418.23 99.0128 1417.27 100.611C1416.31 102.209 1415.83 104.052 1415.83 106.14V135H1404.26ZM1459.33 135.959C1454.54 135.959 1450.39 134.904 1446.87 132.795C1443.35 130.685 1440.63 127.734 1438.69 123.942C1436.77 120.149 1435.81 115.717 1435.81 110.646C1435.81 105.575 1436.77 101.133 1438.69 97.3189C1440.63 93.505 1443.35 90.5433 1446.87 88.4339C1450.39 86.3246 1454.54 85.2699 1459.33 85.2699C1464.13 85.2699 1468.28 86.3246 1471.8 88.4339C1475.31 90.5433 1478.03 93.505 1479.95 97.3189C1481.89 101.133 1482.86 105.575 1482.86 110.646C1482.86 115.717 1481.89 120.149 1479.95 123.942C1478.03 127.734 1475.31 130.685 1471.8 132.795C1468.28 134.904 1464.13 135.959 1459.33 135.959ZM1459.4 126.69C1462 126.69 1464.17 125.977 1465.92 124.549C1467.67 123.1 1468.97 121.161 1469.82 118.732C1470.69 116.303 1471.13 113.597 1471.13 110.614C1471.13 107.61 1470.69 104.893 1469.82 102.464C1468.97 100.014 1467.67 98.0646 1465.92 96.6158C1464.17 95.1669 1462 94.4425 1459.4 94.4425C1456.74 94.4425 1454.52 95.1669 1452.75 96.6158C1451 98.0646 1449.69 100.014 1448.82 102.464C1447.97 104.893 1447.54 107.61 1447.54 110.614C1447.54 113.597 1447.97 116.303 1448.82 118.732C1449.69 121.161 1451 123.1 1452.75 124.549C1454.52 125.977 1456.74 126.69 1459.4 126.69ZM1504.25 106.236V135H1492.68V85.9091H1503.74V94.2507H1504.31C1505.44 91.5021 1507.24 89.3182 1509.71 87.6989C1512.2 86.0795 1515.28 85.2699 1518.95 85.2699C1522.34 85.2699 1525.29 85.9943 1527.8 87.4432C1530.34 88.892 1532.3 90.9908 1533.68 93.7393C1535.09 96.4879 1535.78 99.8224 1535.76 103.743V135H1524.19V105.533C1524.19 102.251 1523.34 99.6839 1521.63 97.8303C1519.95 95.9766 1517.62 95.0497 1514.63 95.0497C1512.61 95.0497 1510.81 95.4972 1509.23 96.392C1507.68 97.2656 1506.45 98.5334 1505.56 100.195C1504.68 101.857 1504.25 103.871 1504.25 106.236ZM1586.32 98.8849L1575.77 100.036C1575.48 98.9702 1574.95 97.9688 1574.21 97.0312C1573.48 96.0938 1572.5 95.3374 1571.27 94.7621C1570.03 94.1868 1568.52 93.8991 1566.73 93.8991C1564.32 93.8991 1562.3 94.4212 1560.66 95.4652C1559.04 96.5092 1558.24 97.8622 1558.26 99.5241C1558.24 100.952 1558.76 102.113 1559.83 103.008C1560.91 103.903 1562.7 104.638 1565.19 105.213L1573.57 107.003C1578.21 108.004 1581.66 109.592 1583.92 111.765C1586.2 113.938 1587.35 116.783 1587.38 120.298C1587.35 123.388 1586.45 126.115 1584.66 128.48C1582.89 130.824 1580.43 132.656 1577.28 133.977C1574.12 135.298 1570.5 135.959 1566.41 135.959C1560.4 135.959 1555.56 134.702 1551.9 132.188C1548.23 129.652 1546.05 126.126 1545.35 121.609L1556.63 120.522C1557.14 122.738 1558.23 124.411 1559.89 125.54C1561.55 126.669 1563.71 127.234 1566.38 127.234C1569.13 127.234 1571.33 126.669 1572.99 125.54C1574.68 124.411 1575.52 123.015 1575.52 121.353C1575.52 119.947 1574.97 118.786 1573.89 117.869C1572.82 116.953 1571.16 116.25 1568.9 115.76L1560.53 114.002C1555.82 113.022 1552.34 111.371 1550.08 109.048C1547.82 106.705 1546.7 103.743 1546.72 100.163C1546.7 97.1378 1547.52 94.517 1549.18 92.3011C1550.87 90.0639 1553.2 88.3381 1556.18 87.1236C1559.19 85.8878 1562.65 85.2699 1566.57 85.2699C1572.32 85.2699 1576.85 86.495 1580.15 88.9453C1583.48 91.3956 1585.53 94.7088 1586.32 98.8849ZM1622.12 102.273C1622.12 94.2827 1623.17 86.9425 1625.28 80.2521C1627.41 73.5405 1630.57 67.3402 1634.77 61.6513H1645.67C1644.05 63.7607 1642.54 66.3494 1641.13 69.4176C1639.73 72.4645 1638.5 75.8097 1637.46 79.4531C1636.43 83.0753 1635.62 86.8359 1635.03 90.7351C1634.45 94.6342 1634.16 98.4801 1634.16 102.273C1634.16 107.322 1634.67 112.436 1635.67 117.614C1636.69 122.791 1638.06 127.596 1639.79 132.028C1641.54 136.438 1643.5 140.05 1645.67 142.862H1634.77C1630.57 137.173 1627.41 130.984 1625.28 124.293C1623.17 117.582 1622.12 110.241 1622.12 102.273ZM1678.02 135.895C1673.42 135.895 1669.33 135.107 1665.75 133.53C1662.19 131.953 1659.38 129.759 1657.31 126.946C1655.25 124.134 1654.15 120.884 1654.02 117.198H1666.04C1666.14 118.967 1666.73 120.511 1667.8 121.832C1668.86 123.132 1670.28 124.144 1672.05 124.869C1673.81 125.593 1675.8 125.955 1677.99 125.955C1680.33 125.955 1682.41 125.55 1684.22 124.741C1686.03 123.91 1687.45 122.759 1688.47 121.289C1689.5 119.819 1690 118.125 1689.98 116.207C1690 114.226 1689.49 112.479 1688.44 110.966C1687.4 109.453 1685.88 108.271 1683.9 107.418C1681.94 106.566 1679.58 106.14 1676.81 106.14H1671.02V96.9993H1676.81C1679.09 96.9993 1681.08 96.6051 1682.78 95.8168C1684.51 95.0284 1685.86 93.9205 1686.84 92.4929C1687.82 91.044 1688.3 89.3714 1688.28 87.4751C1688.3 85.6214 1687.89 84.0128 1687.04 82.6491C1686.2 81.2642 1685.02 80.1882 1683.49 79.4212C1681.97 78.6541 1680.2 78.2706 1678.15 78.2706C1676.15 78.2706 1674.29 78.6328 1672.59 79.3572C1670.88 80.0817 1669.51 81.1151 1668.47 82.4574C1667.42 83.7784 1666.87 85.3551 1666.8 87.1875H1655.39C1655.48 83.5227 1656.53 80.3054 1658.56 77.5355C1660.6 74.7443 1663.33 72.571 1666.74 71.0156C1670.15 69.4389 1673.97 68.6506 1678.21 68.6506C1682.58 68.6506 1686.37 69.4709 1689.59 71.1115C1692.83 72.7308 1695.33 74.9148 1697.1 77.6634C1698.87 80.4119 1699.76 83.4482 1699.76 86.772C1699.78 90.4581 1698.69 93.5476 1696.5 96.0405C1694.32 98.5334 1691.47 100.163 1687.93 100.93V101.442C1692.53 102.081 1696.06 103.786 1698.51 106.555C1700.98 109.304 1702.21 112.724 1702.18 116.815C1702.18 120.479 1701.14 123.761 1699.05 126.658C1696.99 129.535 1694.13 131.793 1690.49 133.434C1686.86 135.075 1682.71 135.895 1678.02 135.895ZM1735.61 135V85.9091H1747.18V135H1735.61ZM1741.42 78.9418C1739.59 78.9418 1738.01 78.3345 1736.69 77.12C1735.37 75.8842 1734.71 74.4034 1734.71 72.6776C1734.71 70.9304 1735.37 69.4496 1736.69 68.2351C1738.01 66.9993 1739.59 66.3814 1741.42 66.3814C1743.28 66.3814 1744.85 66.9993 1746.15 68.2351C1747.47 69.4496 1748.14 70.9304 1748.14 72.6776C1748.14 74.4034 1747.47 75.8842 1746.15 77.12C1744.85 78.3345 1743.28 78.9418 1741.42 78.9418ZM1770.64 106.236V135H1759.07V85.9091H1770.13V94.2507H1770.71C1771.84 91.5021 1773.64 89.3182 1776.11 87.6989C1778.6 86.0795 1781.68 85.2699 1785.34 85.2699C1788.73 85.2699 1791.68 85.9943 1794.2 87.4432C1796.73 88.892 1798.69 90.9908 1800.08 93.7393C1801.48 96.4879 1802.18 99.8224 1802.16 103.743V135H1790.59V105.533C1790.59 102.251 1789.73 99.6839 1788.03 97.8303C1786.35 95.9766 1784.01 95.0497 1781.03 95.0497C1779.01 95.0497 1777.21 95.4972 1775.63 96.392C1774.07 97.2656 1772.85 98.5334 1771.95 100.195C1771.08 101.857 1770.64 103.871 1770.64 106.236ZM1827.5 126.051L1827.08 129.567C1826.79 132.251 1826.25 134.979 1825.49 137.749C1824.74 140.54 1823.95 143.107 1823.12 145.451C1822.29 147.795 1821.62 149.638 1821.11 150.98H1813.31C1813.61 149.68 1814.01 147.912 1814.52 145.675C1815.06 143.438 1815.57 140.923 1816.06 138.132C1816.55 135.341 1816.88 132.507 1817.05 129.631L1817.27 126.051H1827.5ZM1884.13 135.895C1879.52 135.895 1875.43 135.107 1871.85 133.53C1868.29 131.953 1865.48 129.759 1863.42 126.946C1861.35 124.134 1860.25 120.884 1860.12 117.198H1872.14C1872.25 118.967 1872.83 120.511 1873.9 121.832C1874.96 123.132 1876.38 124.144 1878.15 124.869C1879.92 125.593 1881.9 125.955 1884.09 125.955C1886.44 125.955 1888.52 125.55 1890.33 124.741C1892.14 123.91 1893.55 122.759 1894.58 121.289C1895.6 119.819 1896.1 118.125 1896.08 116.207C1896.1 114.226 1895.59 112.479 1894.54 110.966C1893.5 109.453 1891.99 108.271 1890.01 107.418C1888.05 106.566 1885.68 106.14 1882.91 106.14H1877.13V96.9993H1882.91C1885.19 96.9993 1887.18 96.6051 1888.89 95.8168C1890.61 95.0284 1891.97 93.9205 1892.95 92.4929C1893.93 91.044 1894.41 89.3714 1894.39 87.4751C1894.41 85.6214 1893.99 84.0128 1893.14 82.6491C1892.31 81.2642 1891.13 80.1882 1889.59 79.4212C1888.08 78.6541 1886.3 78.2706 1884.25 78.2706C1882.25 78.2706 1880.4 78.6328 1878.69 79.3572C1876.99 80.0817 1875.61 81.1151 1874.57 82.4574C1873.53 83.7784 1872.97 85.3551 1872.91 87.1875H1861.5C1861.58 83.5227 1862.64 80.3054 1864.66 77.5355C1866.71 74.7443 1869.43 72.571 1872.84 71.0156C1876.25 69.4389 1880.08 68.6506 1884.32 68.6506C1888.69 68.6506 1892.48 69.4709 1895.7 71.1115C1898.93 72.7308 1901.44 74.9148 1903.21 77.6634C1904.97 80.4119 1905.86 83.4482 1905.86 86.772C1905.88 90.4581 1904.79 93.5476 1902.6 96.0405C1900.43 98.5334 1897.57 100.163 1894.03 100.93V101.442C1898.64 102.081 1902.16 103.786 1904.61 106.555C1907.08 109.304 1908.31 112.724 1908.29 116.815C1908.29 120.479 1907.24 123.761 1905.16 126.658C1903.09 129.535 1900.23 131.793 1896.59 133.434C1892.97 135.075 1888.81 135.895 1884.13 135.895ZM1963.12 135.959C1958.33 135.959 1954.17 134.904 1950.66 132.795C1947.14 130.685 1944.42 127.734 1942.48 123.942C1940.56 120.149 1939.6 115.717 1939.6 110.646C1939.6 105.575 1940.56 101.133 1942.48 97.3189C1944.42 93.505 1947.14 90.5433 1950.66 88.4339C1954.17 86.3246 1958.33 85.2699 1963.12 85.2699C1967.92 85.2699 1972.07 86.3246 1975.59 88.4339C1979.1 90.5433 1981.82 93.505 1983.74 97.3189C1985.68 101.133 1986.65 105.575 1986.65 110.646C1986.65 115.717 1985.68 120.149 1983.74 123.942C1981.82 127.734 1979.1 130.685 1975.59 132.795C1972.07 134.904 1967.92 135.959 1963.12 135.959ZM1963.19 126.69C1965.79 126.69 1967.96 125.977 1969.71 124.549C1971.45 123.1 1972.75 121.161 1973.61 118.732C1974.48 116.303 1974.92 113.597 1974.92 110.614C1974.92 107.61 1974.48 104.893 1973.61 102.464C1972.75 100.014 1971.45 98.0646 1969.71 96.6158C1967.96 95.1669 1965.79 94.4425 1963.19 94.4425C1960.52 94.4425 1958.31 95.1669 1956.54 96.6158C1954.79 98.0646 1953.48 100.014 1952.61 102.464C1951.76 104.893 1951.33 107.61 1951.33 110.614C1951.33 113.597 1951.76 116.303 1952.61 118.732C1953.48 121.161 1954.79 123.1 1956.54 124.549C1958.31 125.977 1960.52 126.69 1963.19 126.69ZM2027.76 114.354V85.9091H2039.32V135H2028.11V126.275H2027.6C2026.49 129.023 2024.67 131.271 2022.13 133.018C2019.62 134.766 2016.52 135.639 2012.83 135.639C2009.61 135.639 2006.77 134.925 2004.3 133.498C2001.85 132.049 1999.93 129.95 1998.54 127.202C1997.16 124.432 1996.47 121.087 1996.47 117.166V85.9091H2008.04V115.376C2008.04 118.487 2008.89 120.959 2010.59 122.791C2012.3 124.624 2014.53 125.54 2017.3 125.54C2019.01 125.54 2020.66 125.124 2022.26 124.293C2023.86 123.462 2025.17 122.227 2026.19 120.586C2027.23 118.924 2027.76 116.847 2027.76 114.354ZM2075.74 85.9091V94.858H2047.51V85.9091H2075.74ZM2054.48 74.1477H2066.05V120.234C2066.05 121.79 2066.29 122.983 2066.75 123.814C2067.24 124.624 2067.88 125.178 2068.67 125.476C2069.46 125.774 2070.33 125.923 2071.29 125.923C2072.02 125.923 2072.68 125.87 2073.27 125.763C2073.89 125.657 2074.36 125.561 2074.68 125.476L2076.63 134.521C2076.01 134.734 2075.13 134.968 2073.98 135.224C2072.85 135.479 2071.46 135.629 2069.82 135.671C2066.93 135.756 2064.31 135.32 2061.99 134.361C2059.67 133.381 2057.83 131.868 2056.46 129.822C2055.12 127.777 2054.46 125.22 2054.48 122.152V74.1477ZM2106.06 108.313C2106.06 116.282 2104.99 123.622 2102.86 130.334C2100.75 137.024 2097.6 143.214 2093.4 148.903H2082.5C2084.14 146.793 2085.66 144.215 2087.04 141.168C2088.45 138.121 2089.66 134.776 2090.68 131.133C2091.73 127.489 2092.54 123.718 2093.11 119.819C2093.71 115.92 2094.01 112.085 2094.01 108.313C2094.01 103.263 2093.5 98.1499 2092.47 92.9723C2091.47 87.7947 2090.1 82.9901 2088.35 78.5582C2086.63 74.1264 2084.68 70.5043 2082.5 67.6918H2093.4C2097.6 73.3807 2100.75 79.581 2102.86 86.2926C2104.99 92.983 2106.06 100.323 2106.06 108.313Z" fill="white"/>
<path d="M2528.02 135.895C2523.76 135.895 2519.95 135.096 2516.58 133.498C2513.21 131.879 2510.54 129.663 2508.56 126.85C2506.6 124.038 2505.55 120.82 2505.42 117.198H2516.93C2517.14 119.883 2518.3 122.077 2520.41 123.782C2522.52 125.465 2525.06 126.307 2528.02 126.307C2530.34 126.307 2532.41 125.774 2534.22 124.709C2536.03 123.643 2537.46 122.163 2538.5 120.266C2539.55 118.37 2540.06 116.207 2540.04 113.778C2540.06 111.307 2539.54 109.112 2538.47 107.195C2537.41 105.277 2535.95 103.775 2534.09 102.688C2532.24 101.58 2530.11 101.026 2527.7 101.026C2525.74 101.005 2523.81 101.367 2521.92 102.113C2520.02 102.859 2518.52 103.839 2517.41 105.053L2506.7 103.295L2510.12 69.5455H2548.09V79.4531H2519.93L2518.05 96.8075H2518.43C2519.65 95.38 2521.36 94.1974 2523.58 93.2599C2525.79 92.3011 2528.22 91.8217 2530.87 91.8217C2534.83 91.8217 2538.37 92.7592 2541.48 94.6342C2544.59 96.4879 2547.04 99.0447 2548.83 102.305C2550.62 105.565 2551.51 109.293 2551.51 113.491C2551.51 117.816 2550.51 121.673 2548.51 125.06C2546.53 128.427 2543.77 131.08 2540.23 133.018C2536.71 134.936 2532.64 135.895 2528.02 135.895ZM2586.41 136.246C2581.15 136.246 2576.63 134.915 2572.86 132.251C2569.11 129.567 2566.22 125.7 2564.2 120.65C2562.2 115.579 2561.2 109.474 2561.2 102.337C2561.22 95.1989 2562.23 89.1264 2564.23 84.1193C2566.26 79.0909 2569.14 75.2557 2572.89 72.6136C2576.66 69.9716 2581.17 68.6506 2586.41 68.6506C2591.65 68.6506 2596.16 69.9716 2599.93 72.6136C2603.7 75.2557 2606.59 79.0909 2608.59 84.1193C2610.62 89.1477 2611.63 95.2202 2611.63 102.337C2611.63 109.496 2610.62 115.611 2608.59 120.682C2606.59 125.732 2603.7 129.588 2599.93 132.251C2596.18 134.915 2591.67 136.246 2586.41 136.246ZM2586.41 126.243C2590.5 126.243 2593.73 124.229 2596.1 120.202C2598.48 116.154 2599.68 110.199 2599.68 102.337C2599.68 97.1378 2599.13 92.7699 2598.05 89.233C2596.96 85.696 2595.42 83.0327 2593.44 81.2429C2591.46 79.4318 2589.12 78.5263 2586.41 78.5263C2582.34 78.5263 2579.13 80.5504 2576.76 84.5987C2574.39 88.6257 2573.2 94.5384 2573.18 102.337C2573.16 107.557 2573.68 111.946 2574.75 115.504C2575.83 119.062 2577.37 121.747 2579.35 123.558C2581.33 125.348 2583.68 126.243 2586.41 126.243ZM2656.27 106.236V135H2644.7V85.9091H2655.76V94.2507H2656.33C2657.46 91.5021 2659.26 89.3182 2661.73 87.6989C2664.23 86.0795 2667.31 85.2699 2670.97 85.2699C2674.36 85.2699 2677.31 85.9943 2679.82 87.4432C2682.36 88.892 2684.32 90.9908 2685.7 93.7393C2687.11 96.4879 2687.8 99.8224 2687.78 103.743V135H2676.21V105.533C2676.21 102.251 2675.36 99.6839 2673.66 97.8303C2671.97 95.9766 2669.64 95.0497 2666.66 95.0497C2664.63 95.0497 2662.83 95.4972 2661.25 96.392C2659.7 97.2656 2658.47 98.5334 2657.58 100.195C2656.71 101.857 2656.27 103.871 2656.27 106.236ZM2721.28 135.959C2716.35 135.959 2712.1 134.936 2708.52 132.891C2704.97 130.824 2702.23 127.905 2700.31 124.134C2698.39 120.341 2697.43 115.877 2697.43 110.742C2697.43 105.692 2698.39 101.261 2700.31 97.4467C2702.25 93.6115 2704.96 90.6285 2708.43 88.4979C2711.9 86.3459 2715.98 85.2699 2720.67 85.2699C2723.69 85.2699 2726.55 85.7599 2729.23 86.7401C2731.94 87.6989 2734.33 89.1903 2736.39 91.2145C2738.48 93.2386 2740.12 95.8168 2741.32 98.9489C2742.51 102.06 2743.11 105.767 2743.11 110.071V113.619H2702.87V105.82H2732.01C2731.99 103.604 2731.51 101.634 2730.58 99.9077C2729.64 98.1605 2728.33 96.7862 2726.65 95.7848C2724.98 94.7834 2723.04 94.2827 2720.83 94.2827C2718.46 94.2827 2716.39 94.858 2714.6 96.0085C2712.81 97.1378 2711.41 98.6293 2710.41 100.483C2709.43 102.315 2708.93 104.329 2708.91 106.523V113.331C2708.91 116.186 2709.43 118.636 2710.47 120.682C2711.52 122.706 2712.98 124.261 2714.85 125.348C2716.73 126.413 2718.92 126.946 2721.44 126.946C2723.12 126.946 2724.64 126.712 2726.01 126.243C2727.37 125.753 2728.55 125.039 2729.55 124.102C2730.56 123.164 2731.31 122.003 2731.82 120.618L2742.63 121.832C2741.94 124.687 2740.64 127.18 2738.73 129.311C2736.83 131.42 2734.4 133.061 2731.44 134.233C2728.48 135.384 2725.09 135.959 2721.28 135.959ZM2784.18 114.354V85.9091H2795.75V135H2784.53V126.275H2784.02C2782.91 129.023 2781.09 131.271 2778.56 133.018C2776.04 134.766 2772.94 135.639 2769.26 135.639C2766.04 135.639 2763.19 134.925 2760.72 133.498C2758.27 132.049 2756.36 129.95 2754.97 127.202C2753.59 124.432 2752.89 121.087 2752.89 117.166V85.9091H2764.46V115.376C2764.46 118.487 2765.31 120.959 2767.02 122.791C2768.72 124.624 2770.96 125.54 2773.73 125.54C2775.44 125.54 2777.09 125.124 2778.68 124.293C2780.28 123.462 2781.59 122.227 2782.62 120.586C2783.66 118.924 2784.18 116.847 2784.18 114.354ZM2807.65 135V85.9091H2818.87V94.0909H2819.38C2820.27 91.2571 2821.81 89.0732 2823.98 87.5391C2826.17 85.9837 2828.68 85.206 2831.49 85.206C2832.13 85.206 2832.84 85.2379 2833.63 85.3018C2834.44 85.3445 2835.11 85.419 2835.65 85.5256V96.1683C2835.16 95.9979 2834.38 95.8487 2833.31 95.7209C2832.27 95.5717 2831.26 95.4972 2830.28 95.4972C2828.17 95.4972 2826.27 95.9553 2824.59 96.8714C2822.93 97.7663 2821.62 99.0128 2820.66 100.611C2819.7 102.209 2819.22 104.052 2819.22 106.14V135H2807.65ZM2862.72 135.959C2857.93 135.959 2853.78 134.904 2850.26 132.795C2846.74 130.685 2844.02 127.734 2842.08 123.942C2840.16 120.149 2839.2 115.717 2839.2 110.646C2839.2 105.575 2840.16 101.133 2842.08 97.3189C2844.02 93.505 2846.74 90.5433 2850.26 88.4339C2853.78 86.3246 2857.93 85.2699 2862.72 85.2699C2867.52 85.2699 2871.67 86.3246 2875.19 88.4339C2878.7 90.5433 2881.42 93.505 2883.34 97.3189C2885.28 101.133 2886.25 105.575 2886.25 110.646C2886.25 115.717 2885.28 120.149 2883.34 123.942C2881.42 127.734 2878.7 130.685 2875.19 132.795C2871.67 134.904 2867.52 135.959 2862.72 135.959ZM2862.79 126.69C2865.39 126.69 2867.56 125.977 2869.31 124.549C2871.06 123.1 2872.35 121.161 2873.21 118.732C2874.08 116.303 2874.52 113.597 2874.52 110.614C2874.52 107.61 2874.08 104.893 2873.21 102.464C2872.35 100.014 2871.06 98.0646 2869.31 96.6158C2867.56 95.1669 2865.39 94.4425 2862.79 94.4425C2860.12 94.4425 2857.91 95.1669 2856.14 96.6158C2854.39 98.0646 2853.08 100.014 2852.21 102.464C2851.36 104.893 2850.93 107.61 2850.93 110.614C2850.93 113.597 2851.36 116.303 2852.21 118.732C2853.08 121.161 2854.39 123.1 2856.14 124.549C2857.91 125.977 2860.12 126.69 2862.79 126.69ZM2907.64 106.236V135H2896.07V85.9091H2907.12V94.2507H2907.7C2908.83 91.5021 2910.63 89.3182 2913.1 87.6989C2915.59 86.0795 2918.67 85.2699 2922.34 85.2699C2925.73 85.2699 2928.68 85.9943 2931.19 87.4432C2933.73 88.892 2935.69 90.9908 2937.07 93.7393C2938.48 96.4879 2939.17 99.8224 2939.15 103.743V135H2927.58V105.533C2927.58 102.251 2926.73 99.6839 2925.02 97.8303C2923.34 95.9766 2921.01 95.0497 2918.02 95.0497C2916 95.0497 2914.2 95.4972 2912.62 96.392C2911.07 97.2656 2909.84 98.5334 2908.95 100.195C2908.07 101.857 2907.64 103.871 2907.64 106.236ZM2989.71 98.8849L2979.16 100.036C2978.86 98.9702 2978.34 97.9688 2977.6 97.0312C2976.87 96.0938 2975.89 95.3374 2974.66 94.7621C2973.42 94.1868 2971.91 93.8991 2970.12 93.8991C2967.71 93.8991 2965.69 94.4212 2964.05 95.4652C2962.43 96.5092 2961.63 97.8622 2961.65 99.5241C2961.63 100.952 2962.15 102.113 2963.22 103.008C2964.3 103.903 2966.09 104.638 2968.58 105.213L2976.96 107.003C2981.6 108.004 2985.05 109.592 2987.31 111.765C2989.59 113.938 2990.74 116.783 2990.76 120.298C2990.74 123.388 2989.84 126.115 2988.05 128.48C2986.28 130.824 2983.82 132.656 2980.67 133.977C2977.51 135.298 2973.89 135.959 2969.8 135.959C2963.79 135.959 2958.95 134.702 2955.29 132.188C2951.62 129.652 2949.44 126.126 2948.74 121.609L2960.02 120.522C2960.53 122.738 2961.62 124.411 2963.28 125.54C2964.94 126.669 2967.1 127.234 2969.77 127.234C2972.52 127.234 2974.72 126.669 2976.38 125.54C2978.07 124.411 2978.91 123.015 2978.91 121.353C2978.91 119.947 2978.36 118.786 2977.28 117.869C2976.21 116.953 2974.55 116.25 2972.29 115.76L2963.92 114.002C2959.21 113.022 2955.73 111.371 2953.47 109.048C2951.21 106.705 2950.09 103.743 2950.11 100.163C2950.09 97.1378 2950.91 94.517 2952.57 92.3011C2954.26 90.0639 2956.59 88.3381 2959.57 87.1236C2962.58 85.8878 2966.04 85.2699 2969.96 85.2699C2975.71 85.2699 2980.24 86.495 2983.54 88.9453C2986.87 91.3956 2988.92 94.7088 2989.71 98.8849ZM3025.51 102.273C3025.51 94.2827 3026.56 86.9425 3028.67 80.2521C3030.8 73.5405 3033.96 67.3402 3038.16 61.6513H3049.06C3047.44 63.7607 3045.93 66.3494 3044.52 69.4176C3043.12 72.4645 3041.89 75.8097 3040.85 79.4531C3039.82 83.0753 3039.01 86.8359 3038.42 90.7351C3037.84 94.6342 3037.55 98.4801 3037.55 102.273C3037.55 107.322 3038.06 112.436 3039.06 117.614C3040.08 122.791 3041.45 127.596 3043.18 132.028C3044.93 136.438 3046.89 140.05 3049.06 142.862H3038.16C3033.96 137.173 3030.8 130.984 3028.67 124.293C3026.56 117.582 3025.51 110.241 3025.51 102.273ZM3057.92 135V126.435L3080.64 104.158C3082.82 101.964 3084.63 100.014 3086.08 98.3097C3087.53 96.6051 3088.61 94.9538 3089.34 93.3558C3090.06 91.7578 3090.42 90.0533 3090.42 88.2422C3090.42 86.1754 3089.96 84.407 3089.02 82.9368C3088.08 81.4453 3086.79 80.2947 3085.15 79.4851C3083.51 78.6754 3081.65 78.2706 3079.56 78.2706C3077.41 78.2706 3075.52 78.718 3073.9 79.6129C3072.28 80.4865 3071.02 81.733 3070.13 83.3523C3069.26 84.9716 3068.82 86.8999 3068.82 89.1371H3057.54C3057.54 84.9822 3058.49 81.3707 3060.38 78.3026C3062.28 75.2344 3064.89 72.8587 3068.21 71.1754C3071.56 69.4922 3075.39 68.6506 3079.72 68.6506C3084.11 68.6506 3087.96 69.4709 3091.29 71.1115C3094.61 72.7521 3097.19 75 3099.02 77.8551C3100.88 80.7102 3101.8 83.9702 3101.8 87.6349C3101.8 90.0852 3101.33 92.4929 3100.4 94.858C3099.46 97.223 3097.81 99.8437 3095.44 102.72C3093.1 105.597 3089.81 109.08 3085.57 113.171L3074.28 124.645V125.092H3102.79V135H3057.92ZM3136.27 135V85.9091H3147.84V135H3136.27ZM3142.09 78.9418C3140.26 78.9418 3138.68 78.3345 3137.36 77.12C3136.04 75.8842 3135.38 74.4034 3135.38 72.6776C3135.38 70.9304 3136.04 69.4496 3137.36 68.2351C3138.68 66.9993 3140.26 66.3814 3142.09 66.3814C3143.94 66.3814 3145.52 66.9993 3146.82 68.2351C3148.14 69.4496 3148.8 70.9304 3148.8 72.6776C3148.8 74.4034 3148.14 75.8842 3146.82 77.12C3145.52 78.3345 3143.94 78.9418 3142.09 78.9418ZM3171.31 106.236V135H3159.74V85.9091H3170.8V94.2507H3171.37C3172.5 91.5021 3174.3 89.3182 3176.77 87.6989C3179.27 86.0795 3182.35 85.2699 3186.01 85.2699C3189.4 85.2699 3192.35 85.9943 3194.86 87.4432C3197.4 88.892 3199.36 90.9908 3200.74 93.7393C3202.15 96.4879 3202.84 99.8224 3202.82 103.743V135H3191.25V105.533C3191.25 102.251 3190.4 99.6839 3188.69 97.8303C3187.01 95.9766 3184.68 95.0497 3181.7 95.0497C3179.67 95.0497 3177.87 95.4972 3176.29 96.392C3174.74 97.2656 3173.51 98.5334 3172.62 100.195C3171.74 101.857 3171.31 103.871 3171.31 106.236ZM3228.17 126.051L3227.75 129.567C3227.45 132.251 3226.92 134.979 3226.15 137.749C3225.41 140.54 3224.62 143.107 3223.79 145.451C3222.96 147.795 3222.28 149.638 3221.77 150.98H3213.98C3214.27 149.68 3214.68 147.912 3215.19 145.675C3215.72 143.438 3216.23 140.923 3216.72 138.132C3217.21 135.341 3217.54 132.507 3217.71 129.631L3217.94 126.051H3228.17ZM3284.79 135.895C3280.19 135.895 3276.1 135.107 3272.52 133.53C3268.96 131.953 3266.15 129.759 3264.08 126.946C3262.01 124.134 3260.92 120.884 3260.79 117.198H3272.81C3272.91 118.967 3273.5 120.511 3274.56 121.832C3275.63 123.132 3277.05 124.144 3278.81 124.869C3280.58 125.593 3282.56 125.955 3284.76 125.955C3287.1 125.955 3289.18 125.55 3290.99 124.741C3292.8 123.91 3294.22 122.759 3295.24 121.289C3296.26 119.819 3296.77 118.125 3296.74 116.207C3296.77 114.226 3296.25 112.479 3295.21 110.966C3294.17 109.453 3292.65 108.271 3290.67 107.418C3288.71 106.566 3286.35 106.14 3283.58 106.14H3277.79V96.9993H3283.58C3285.86 96.9993 3287.85 96.6051 3289.55 95.8168C3291.28 95.0284 3292.63 93.9205 3293.61 92.4929C3294.59 91.044 3295.07 89.3714 3295.05 87.4751C3295.07 85.6214 3294.66 84.0128 3293.8 82.6491C3292.97 81.2642 3291.79 80.1882 3290.26 79.4212C3288.74 78.6541 3286.96 78.2706 3284.92 78.2706C3282.92 78.2706 3281.06 78.6328 3279.36 79.3572C3277.65 80.0817 3276.28 81.1151 3275.23 82.4574C3274.19 83.7784 3273.64 85.3551 3273.57 87.1875H3262.16C3262.25 83.5227 3263.3 80.3054 3265.33 77.5355C3267.37 74.7443 3270.1 72.571 3273.51 71.0156C3276.92 69.4389 3280.74 68.6506 3284.98 68.6506C3289.35 68.6506 3293.14 69.4709 3296.36 71.1115C3299.6 72.7308 3302.1 74.9148 3303.87 77.6634C3305.64 80.4119 3306.52 83.4482 3306.52 86.772C3306.55 90.4581 3305.46 93.5476 3303.26 96.0405C3301.09 98.5334 3298.24 100.163 3294.7 100.93V101.442C3299.3 102.081 3302.83 103.786 3305.28 106.555C3307.75 109.304 3308.97 112.724 3308.95 116.815C3308.95 120.479 3307.91 123.761 3305.82 126.658C3303.75 129.535 3300.9 131.793 3297.26 133.434C3293.63 135.075 3289.48 135.895 3284.79 135.895ZM3363.79 135.959C3358.99 135.959 3354.84 134.904 3351.32 132.795C3347.81 130.685 3345.08 127.734 3343.14 123.942C3341.22 120.149 3340.27 115.717 3340.27 110.646C3340.27 105.575 3341.22 101.133 3343.14 97.3189C3345.08 93.505 3347.81 90.5433 3351.32 88.4339C3354.84 86.3246 3358.99 85.2699 3363.79 85.2699C3368.58 85.2699 3372.74 86.3246 3376.25 88.4339C3379.77 90.5433 3382.49 93.505 3384.4 97.3189C3386.34 101.133 3387.31 105.575 3387.31 110.646C3387.31 115.717 3386.34 120.149 3384.4 123.942C3382.49 127.734 3379.77 130.685 3376.25 132.795C3372.74 134.904 3368.58 135.959 3363.79 135.959ZM3363.85 126.69C3366.45 126.69 3368.63 125.977 3370.37 124.549C3372.12 123.1 3373.42 121.161 3374.27 118.732C3375.15 116.303 3375.58 113.597 3375.58 110.614C3375.58 107.61 3375.15 104.893 3374.27 102.464C3373.42 100.014 3372.12 98.0646 3370.37 96.6158C3368.63 95.1669 3366.45 94.4425 3363.85 94.4425C3361.19 94.4425 3358.97 95.1669 3357.2 96.6158C3355.46 98.0646 3354.15 100.014 3353.27 102.464C3352.42 104.893 3352 107.61 3352 110.614C3352 113.597 3352.42 116.303 3353.27 118.732C3354.15 121.161 3355.46 123.1 3357.2 124.549C3358.97 125.977 3361.19 126.69 3363.85 126.69ZM3428.42 114.354V85.9091H3439.99V135H3428.77V126.275H3428.26C3427.15 129.023 3425.33 131.271 3422.8 133.018C3420.28 134.766 3417.18 135.639 3413.49 135.639C3410.28 135.639 3407.43 134.925 3404.96 133.498C3402.51 132.049 3400.59 129.95 3399.21 127.202C3397.82 124.432 3397.13 121.087 3397.13 117.166V85.9091H3408.7V115.376C3408.7 118.487 3409.55 120.959 3411.26 122.791C3412.96 124.624 3415.2 125.54 3417.97 125.54C3419.67 125.54 3421.33 125.124 3422.92 124.293C3424.52 123.462 3425.83 122.227 3426.85 120.586C3427.9 118.924 3428.42 116.847 3428.42 114.354ZM3476.4 85.9091V94.858H3448.18V85.9091H3476.4ZM3455.15 74.1477H3466.72V120.234C3466.72 121.79 3466.95 122.983 3467.42 123.814C3467.91 124.624 3468.55 125.178 3469.34 125.476C3470.13 125.774 3471 125.923 3471.96 125.923C3472.68 125.923 3473.34 125.87 3473.94 125.763C3474.56 125.657 3475.03 125.561 3475.35 125.476L3477.3 134.521C3476.68 134.734 3475.79 134.968 3474.64 135.224C3473.51 135.479 3472.13 135.629 3470.49 135.671C3467.59 135.756 3464.98 135.32 3462.66 134.361C3460.34 133.381 3458.49 131.868 3457.13 129.822C3455.79 127.777 3455.13 125.22 3455.15 122.152V74.1477ZM3506.72 108.313C3506.72 116.282 3505.66 123.622 3503.53 130.334C3501.42 137.024 3498.26 143.214 3494.07 148.903H3483.17C3484.81 146.793 3486.32 144.215 3487.71 141.168C3489.11 138.121 3490.33 134.776 3491.35 131.133C3492.39 127.489 3493.2 123.718 3493.78 119.819C3494.38 115.92 3494.67 112.085 3494.67 108.313C3494.67 103.263 3494.16 98.1499 3493.14 92.9723C3492.14 87.7947 3490.76 82.9901 3489.02 78.5582C3487.29 74.1264 3485.34 70.5043 3483.17 67.6918H3494.07C3498.26 73.3807 3501.42 79.581 3503.53 86.2926C3505.66 92.983 3506.72 100.323 3506.72 108.313Z" fill="white"/>
<path d="M3781.47 69.5455V135H3769.62V81.0831H3769.23L3753.92 90.8629V79.9964L3770.19 69.5455H3781.47ZM3821.36 135.895C3816.61 135.895 3812.39 135.096 3808.7 133.498C3805.04 131.9 3802.16 129.716 3800.07 126.946C3798.01 124.155 3796.99 120.991 3797.01 117.454C3796.99 114.705 3797.58 112.18 3798.8 109.879C3800.01 107.578 3801.65 105.661 3803.72 104.126C3805.81 102.571 3808.13 101.58 3810.69 101.154V100.707C3807.32 99.9609 3804.59 98.2457 3802.5 95.5611C3800.44 92.8551 3799.41 89.7337 3799.44 86.1967C3799.41 82.8303 3800.35 79.826 3802.25 77.1839C3804.14 74.5419 3806.74 72.4645 3810.05 70.9517C3813.35 69.4176 3817.12 68.6506 3821.36 68.6506C3825.56 68.6506 3829.3 69.4176 3832.58 70.9517C3835.88 72.4645 3838.48 74.5419 3840.38 77.1839C3842.29 79.826 3843.25 82.8303 3843.25 86.1967C3843.25 89.7337 3842.2 92.8551 3840.09 95.5611C3838 98.2457 3835.31 99.9609 3832 100.707V101.154C3834.56 101.58 3836.86 102.571 3838.91 104.126C3840.97 105.661 3842.61 107.578 3843.83 109.879C3845.06 112.18 3845.68 114.705 3845.68 117.454C3845.68 120.991 3844.64 124.155 3842.55 126.946C3840.46 129.716 3837.59 131.9 3833.92 133.498C3830.28 135.096 3826.09 135.895 3821.36 135.895ZM3821.36 126.754C3823.81 126.754 3825.94 126.339 3827.75 125.508C3829.56 124.656 3830.97 123.462 3831.97 121.928C3832.97 120.394 3833.48 118.626 3833.51 116.623C3833.48 114.535 3832.94 112.692 3831.88 111.094C3830.83 109.474 3829.39 108.207 3827.56 107.29C3825.75 106.374 3823.68 105.916 3821.36 105.916C3819.02 105.916 3816.93 106.374 3815.1 107.29C3813.26 108.207 3811.81 109.474 3810.75 111.094C3809.71 112.692 3809.19 114.535 3809.22 116.623C3809.19 118.626 3809.68 120.394 3810.69 121.928C3811.69 123.441 3813.09 124.624 3814.9 125.476C3816.74 126.328 3818.89 126.754 3821.36 126.754ZM3821.36 96.9354C3823.36 96.9354 3825.13 96.5305 3826.67 95.7209C3828.22 94.9112 3829.45 93.782 3830.34 92.3331C3831.24 90.8842 3831.69 89.2116 3831.72 87.3153C3831.69 85.4403 3831.25 83.7997 3830.37 82.3935C3829.5 80.9659 3828.28 79.8686 3826.73 79.1016C3825.17 78.3132 3823.38 77.919 3821.36 77.919C3819.29 77.919 3817.47 78.3132 3815.89 79.1016C3814.34 79.8686 3813.13 80.9659 3812.25 82.3935C3811.4 83.7997 3810.98 85.4403 3811.01 87.3153C3810.98 89.2116 3811.41 90.8842 3812.28 92.3331C3813.18 93.7607 3814.4 94.8899 3815.96 95.7209C3817.54 96.5305 3819.34 96.9354 3821.36 96.9354ZM3880.38 136.246C3875.12 136.246 3870.6 134.915 3866.83 132.251C3863.08 129.567 3860.19 125.7 3858.17 120.65C3856.17 115.579 3855.17 109.474 3855.17 102.337C3855.19 95.1989 3856.2 89.1264 3858.2 84.1193C3860.23 79.0909 3863.11 75.2557 3866.86 72.6136C3870.63 69.9716 3875.14 68.6506 3880.38 68.6506C3885.62 68.6506 3890.13 69.9716 3893.9 72.6136C3897.67 75.2557 3900.56 79.0909 3902.56 84.1193C3904.59 89.1477 3905.6 95.2202 3905.6 102.337C3905.6 109.496 3904.59 115.611 3902.56 120.682C3900.56 125.732 3897.67 129.588 3893.9 132.251C3890.15 134.915 3885.65 136.246 3880.38 136.246ZM3880.38 126.243C3884.47 126.243 3887.7 124.229 3890.07 120.202C3892.45 116.154 3893.65 110.199 3893.65 102.337C3893.65 97.1378 3893.1 92.7699 3892.02 89.233C3890.93 85.696 3889.4 83.0327 3887.41 81.2429C3885.43 79.4318 3883.09 78.5263 3880.38 78.5263C3876.31 78.5263 3873.1 80.5504 3870.73 84.5987C3868.37 88.6257 3867.17 94.5384 3867.15 102.337C3867.13 107.557 3867.65 111.946 3868.72 115.504C3869.8 119.062 3871.34 121.747 3873.32 123.558C3875.3 125.348 3877.66 126.243 3880.38 126.243ZM3950.24 106.236V135H3938.67V85.9091H3949.73V94.2507H3950.3C3951.43 91.5021 3953.23 89.3182 3955.7 87.6989C3958.2 86.0795 3961.28 85.2699 3964.94 85.2699C3968.33 85.2699 3971.28 85.9943 3973.79 87.4432C3976.33 88.892 3978.29 90.9908 3979.68 93.7393C3981.08 96.4879 3981.77 99.8224 3981.75 103.743V135H3970.18V105.533C3970.18 102.251 3969.33 99.6839 3967.63 97.8303C3965.94 95.9766 3963.61 95.0497 3960.63 95.0497C3958.6 95.0497 3956.8 95.4972 3955.23 96.392C3953.67 97.2656 3952.45 98.5334 3951.55 100.195C3950.68 101.857 3950.24 103.871 3950.24 106.236ZM4015.25 135.959C4010.33 135.959 4006.07 134.936 4002.49 132.891C3998.94 130.824 3996.2 127.905 3994.28 124.134C3992.36 120.341 3991.4 115.877 3991.4 110.742C3991.4 105.692 3992.36 101.261 3994.28 97.4467C3996.22 93.6115 3998.93 90.6285 4002.4 88.4979C4005.87 86.3459 4009.95 85.2699 4014.64 85.2699C4017.67 85.2699 4020.52 85.7599 4023.2 86.7401C4025.91 87.6989 4028.3 89.1903 4030.36 91.2145C4032.45 93.2386 4034.09 95.8168 4035.29 98.9489C4036.48 102.06 4037.08 105.767 4037.08 110.071V113.619H3996.84V105.82H4025.99C4025.96 103.604 4025.48 101.634 4024.55 99.9077C4023.61 98.1605 4022.3 96.7862 4020.62 95.7848C4018.95 94.7834 4017.02 94.2827 4014.8 94.2827C4012.43 94.2827 4010.36 94.858 4008.57 96.0085C4006.78 97.1378 4005.38 98.6293 4004.38 100.483C4003.4 102.315 4002.9 104.329 4002.88 106.523V113.331C4002.88 116.186 4003.4 118.636 4004.44 120.682C4005.49 122.706 4006.95 124.261 4008.82 125.348C4010.7 126.413 4012.89 126.946 4015.41 126.946C4017.09 126.946 4018.61 126.712 4019.98 126.243C4021.34 125.753 4022.52 125.039 4023.52 124.102C4024.53 123.164 4025.28 122.003 4025.79 120.618L4036.6 121.832C4035.91 124.687 4034.61 127.18 4032.7 129.311C4030.8 131.42 4028.37 133.061 4025.41 134.233C4022.45 135.384 4019.06 135.959 4015.25 135.959ZM4078.15 114.354V85.9091H4089.72V135H4078.5V126.275H4077.99C4076.88 129.023 4075.06 131.271 4072.53 133.018C4070.01 134.766 4066.91 135.639 4063.23 135.639C4060.01 135.639 4057.17 134.925 4054.69 133.498C4052.24 132.049 4050.33 129.95 4048.94 127.202C4047.56 124.432 4046.86 121.087 4046.86 117.166V85.9091H4058.43V115.376C4058.43 118.487 4059.29 120.959 4060.99 122.791C4062.69 124.624 4064.93 125.54 4067.7 125.54C4069.41 125.54 4071.06 125.124 4072.66 124.293C4074.25 123.462 4075.56 122.227 4076.59 120.586C4077.63 118.924 4078.15 116.847 4078.15 114.354ZM4101.62 135V85.9091H4112.84V94.0909H4113.35C4114.24 91.2571 4115.78 89.0732 4117.95 87.5391C4120.15 85.9837 4122.65 85.206 4125.46 85.206C4126.1 85.206 4126.81 85.2379 4127.6 85.3018C4128.41 85.3445 4129.08 85.419 4129.62 85.5256V96.1683C4129.13 95.9979 4128.35 95.8487 4127.28 95.7209C4126.24 95.5717 4125.23 95.4972 4124.25 95.4972C4122.14 95.4972 4120.24 95.9553 4118.56 96.8714C4116.9 97.7663 4115.59 99.0128 4114.63 100.611C4113.67 102.209 4113.19 104.052 4113.19 106.14V135H4101.62ZM4156.69 135.959C4151.9 135.959 4147.75 134.904 4144.23 132.795C4140.71 130.685 4137.99 127.734 4136.05 123.942C4134.13 120.149 4133.17 115.717 4133.17 110.646C4133.17 105.575 4134.13 101.133 4136.05 97.3189C4137.99 93.505 4140.71 90.5433 4144.23 88.4339C4147.75 86.3246 4151.9 85.2699 4156.69 85.2699C4161.49 85.2699 4165.64 86.3246 4169.16 88.4339C4172.67 90.5433 4175.39 93.505 4177.31 97.3189C4179.25 101.133 4180.22 105.575 4180.22 110.646C4180.22 115.717 4179.25 120.149 4177.31 123.942C4175.39 127.734 4172.67 130.685 4169.16 132.795C4165.64 134.904 4161.49 135.959 4156.69 135.959ZM4156.76 126.69C4159.36 126.69 4161.53 125.977 4163.28 124.549C4165.03 123.1 4166.33 121.161 4167.18 118.732C4168.05 116.303 4168.49 113.597 4168.49 110.614C4168.49 107.61 4168.05 104.893 4167.18 102.464C4166.33 100.014 4165.03 98.0646 4163.28 96.6158C4161.53 95.1669 4159.36 94.4425 4156.76 94.4425C4154.1 94.4425 4151.88 95.1669 4150.11 96.6158C4148.36 98.0646 4147.05 100.014 4146.18 102.464C4145.33 104.893 4144.9 107.61 4144.9 110.614C4144.9 113.597 4145.33 116.303 4146.18 118.732C4147.05 121.161 4148.36 123.1 4150.11 124.549C4151.88 125.977 4154.1 126.69 4156.76 126.69ZM4201.61 106.236V135H4190.04V85.9091H4201.1V94.2507H4201.67C4202.8 91.5021 4204.6 89.3182 4207.07 87.6989C4209.57 86.0795 4212.64 85.2699 4216.31 85.2699C4219.7 85.2699 4222.65 85.9943 4225.16 87.4432C4227.7 88.892 4229.66 90.9908 4231.04 93.7393C4232.45 96.4879 4233.14 99.8224 4233.12 103.743V135H4221.55V105.533C4221.55 102.251 4220.7 99.6839 4218.99 97.8303C4217.31 95.9766 4214.98 95.0497 4211.99 95.0497C4209.97 95.0497 4208.17 95.4972 4206.59 96.392C4205.04 97.2656 4203.81 98.5334 4202.92 100.195C4202.04 101.857 4201.61 103.871 4201.61 106.236ZM4283.68 98.8849L4273.13 100.036C4272.84 98.9702 4272.31 97.9688 4271.57 97.0312C4270.84 96.0938 4269.86 95.3374 4268.63 94.7621C4267.39 94.1868 4265.88 93.8991 4264.09 93.8991C4261.68 93.8991 4259.66 94.4212 4258.02 95.4652C4256.4 96.5092 4255.6 97.8622 4255.62 99.5241C4255.6 100.952 4256.12 102.113 4257.19 103.008C4258.27 103.903 4260.06 104.638 4262.56 105.213L4270.93 107.003C4275.57 108.004 4279.03 109.592 4281.28 111.765C4283.56 113.938 4284.71 116.783 4284.74 120.298C4284.71 123.388 4283.81 126.115 4282.02 128.48C4280.25 130.824 4277.79 132.656 4274.64 133.977C4271.48 135.298 4267.86 135.959 4263.77 135.959C4257.76 135.959 4252.92 134.702 4249.26 132.188C4245.59 129.652 4243.41 126.126 4242.71 121.609L4253.99 120.522C4254.5 122.738 4255.59 124.411 4257.25 125.54C4258.91 126.669 4261.07 127.234 4263.74 127.234C4266.49 127.234 4268.69 126.669 4270.35 125.54C4272.04 124.411 4272.88 123.015 4272.88 121.353C4272.88 119.947 4272.33 118.786 4271.25 117.869C4270.18 116.953 4268.52 116.25 4266.26 115.76L4257.89 114.002C4253.18 113.022 4249.7 111.371 4247.44 109.048C4245.18 106.705 4244.06 103.743 4244.08 100.163C4244.06 97.1378 4244.88 94.517 4246.54 92.3011C4248.23 90.0639 4250.56 88.3381 4253.54 87.1236C4256.55 85.8878 4260.01 85.2699 4263.93 85.2699C4269.68 85.2699 4274.21 86.495 4277.51 88.9453C4280.84 91.3956 4282.89 94.7088 4283.68 98.8849ZM4319.48 102.273C4319.48 94.2827 4320.53 86.9425 4322.64 80.2521C4324.77 73.5405 4327.94 67.3402 4332.13 61.6513H4343.03C4341.41 63.7607 4339.9 66.3494 4338.49 69.4176C4337.09 72.4645 4335.86 75.8097 4334.82 79.4531C4333.79 83.0753 4332.98 86.8359 4332.39 90.7351C4331.81 94.6342 4331.53 98.4801 4331.53 102.273C4331.53 107.322 4332.03 112.436 4333.03 117.614C4334.05 122.791 4335.42 127.596 4337.15 132.028C4338.9 136.438 4340.86 140.05 4343.03 142.862H4332.13C4327.94 137.173 4324.77 130.984 4322.64 124.293C4320.53 117.582 4319.48 110.241 4319.48 102.273ZM4374.65 135.895C4370.39 135.895 4366.57 135.096 4363.21 133.498C4359.84 131.879 4357.17 129.663 4355.18 126.85C4353.22 124.038 4352.18 120.82 4352.05 117.198H4363.56C4363.77 119.883 4364.93 122.077 4367.04 123.782C4369.15 125.465 4371.69 126.307 4374.65 126.307C4376.97 126.307 4379.04 125.774 4380.85 124.709C4382.66 123.643 4384.09 122.163 4385.13 120.266C4386.17 118.37 4386.69 116.207 4386.66 113.778C4386.69 111.307 4386.16 109.112 4385.1 107.195C4384.03 105.277 4382.57 103.775 4380.72 102.688C4378.87 101.58 4376.74 101.026 4374.33 101.026C4372.37 101.005 4370.44 101.367 4368.54 102.113C4366.65 102.859 4365.14 103.839 4364.04 105.053L4353.33 103.295L4356.75 69.5455H4394.72V79.4531H4366.56L4364.68 96.8075H4365.06C4366.27 95.38 4367.99 94.1974 4370.21 93.2599C4372.42 92.3011 4374.85 91.8217 4377.49 91.8217C4381.46 91.8217 4384.99 92.7592 4388.1 94.6342C4391.21 96.4879 4393.66 99.0447 4395.45 102.305C4397.24 105.565 4398.14 109.293 4398.14 113.491C4398.14 117.816 4397.14 121.673 4395.13 125.06C4393.15 128.427 4390.39 131.08 4386.86 133.018C4383.34 134.936 4379.27 135.895 4374.65 135.895ZM4433.04 136.246C4427.78 136.246 4423.26 134.915 4419.49 132.251C4415.74 129.567 4412.85 125.7 4410.83 120.65C4408.82 115.579 4407.82 109.474 4407.82 102.337C4407.84 95.1989 4408.86 89.1264 4410.86 84.1193C4412.88 79.0909 4415.77 75.2557 4419.52 72.6136C4423.29 69.9716 4427.8 68.6506 4433.04 68.6506C4438.28 68.6506 4442.79 69.9716 4446.56 72.6136C4450.33 75.2557 4453.22 79.0909 4455.22 84.1193C4457.24 89.1477 4458.26 95.2202 4458.26 102.337C4458.26 109.496 4457.24 115.611 4455.22 120.682C4453.22 125.732 4450.33 129.588 4446.56 132.251C4442.81 134.915 4438.3 136.246 4433.04 136.246ZM4433.04 126.243C4437.13 126.243 4440.36 124.229 4442.72 120.202C4445.11 116.154 4446.3 110.199 4446.3 102.337C4446.3 97.1378 4445.76 92.7699 4444.67 89.233C4443.59 85.696 4442.05 83.0327 4440.07 81.2429C4438.09 79.4318 4435.74 78.5263 4433.04 78.5263C4428.97 78.5263 4425.75 80.5504 4423.39 84.5987C4421.02 88.6257 4419.83 94.5384 4419.81 102.337C4419.79 107.557 4420.31 111.946 4421.37 115.504C4422.46 119.062 4423.99 121.747 4425.98 123.558C4427.96 125.348 4430.31 126.243 4433.04 126.243ZM4491.33 135V85.9091H4502.9V135H4491.33ZM4497.14 78.9418C4495.31 78.9418 4493.73 78.3345 4492.41 77.12C4491.09 75.8842 4490.43 74.4034 4490.43 72.6776C4490.43 70.9304 4491.09 69.4496 4492.41 68.2351C4493.73 66.9993 4495.31 66.3814 4497.14 66.3814C4499 66.3814 4500.57 66.9993 4501.87 68.2351C4503.19 69.4496 4503.85 70.9304 4503.85 72.6776C4503.85 74.4034 4503.19 75.8842 4501.87 77.12C4500.57 78.3345 4499 78.9418 4497.14 78.9418ZM4526.36 106.236V135H4514.79V85.9091H4525.85V94.2507H4526.43C4527.56 91.5021 4529.36 89.3182 4531.83 87.6989C4534.32 86.0795 4537.4 85.2699 4541.06 85.2699C4544.45 85.2699 4547.4 85.9943 4549.92 87.4432C4552.45 88.892 4554.41 90.9908 4555.8 93.7393C4557.2 96.4879 4557.9 99.8224 4557.88 103.743V135H4546.31V105.533C4546.31 102.251 4545.45 99.6839 4543.75 97.8303C4542.07 95.9766 4539.73 95.0497 4536.75 95.0497C4534.73 95.0497 4532.93 95.4972 4531.35 96.392C4529.79 97.2656 4528.57 98.5334 4527.67 100.195C4526.8 101.857 4526.36 103.871 4526.36 106.236ZM4583.22 126.051L4582.8 129.567C4582.51 132.251 4581.97 134.979 4581.21 137.749C4580.46 140.54 4579.67 143.107 4578.84 145.451C4578.01 147.795 4577.34 149.638 4576.83 150.98H4569.03C4569.33 149.68 4569.73 147.912 4570.24 145.675C4570.78 143.438 4571.29 140.923 4571.78 138.132C4572.27 135.341 4572.6 132.507 4572.77 129.631L4572.99 126.051H4583.22ZM4639.11 135.895C4634.85 135.895 4631.04 135.096 4627.67 133.498C4624.3 131.879 4621.63 129.663 4619.65 126.85C4617.69 124.038 4616.64 120.82 4616.51 117.198H4628.02C4628.23 119.883 4629.39 122.077 4631.5 123.782C4633.61 125.465 4636.15 126.307 4639.11 126.307C4641.43 126.307 4643.5 125.774 4645.31 124.709C4647.12 123.643 4648.55 122.163 4649.59 120.266C4650.64 118.37 4651.15 116.207 4651.13 113.778C4651.15 111.307 4650.63 109.112 4649.56 107.195C4648.5 105.277 4647.04 103.775 4645.18 102.688C4643.33 101.58 4641.2 101.026 4638.79 101.026C4636.83 101.005 4634.9 101.367 4633.01 102.113C4631.11 102.859 4629.61 103.839 4628.5 105.053L4617.79 103.295L4621.21 69.5455H4659.18V79.4531H4631.02L4629.14 96.8075H4629.52C4630.74 95.38 4632.45 94.1974 4634.67 93.2599C4636.88 92.3011 4639.31 91.8217 4641.95 91.8217C4645.92 91.8217 4649.45 92.7592 4652.57 94.6342C4655.68 96.4879 4658.13 99.0447 4659.92 102.305C4661.71 105.565 4662.6 109.293 4662.6 113.491C4662.6 117.816 4661.6 121.673 4659.6 125.06C4657.62 128.427 4654.86 131.08 4651.32 133.018C4647.8 134.936 4643.73 135.895 4639.11 135.895ZM4697.5 136.246C4692.24 136.246 4687.72 134.915 4683.95 132.251C4680.2 129.567 4677.31 125.7 4675.29 120.65C4673.29 115.579 4672.29 109.474 4672.29 102.337C4672.31 95.1989 4673.32 89.1264 4675.32 84.1193C4677.35 79.0909 4680.23 75.2557 4683.98 72.6136C4687.75 69.9716 4692.26 68.6506 4697.5 68.6506C4702.74 68.6506 4707.25 69.9716 4711.02 72.6136C4714.79 75.2557 4717.68 79.0909 4719.68 84.1193C4721.71 89.1477 4722.72 95.2202 4722.72 102.337C4722.72 109.496 4721.71 115.611 4719.68 120.682C4717.68 125.732 4714.79 129.588 4711.02 132.251C4707.27 134.915 4702.76 136.246 4697.5 136.246ZM4697.5 126.243C4701.59 126.243 4704.82 124.229 4707.19 120.202C4709.57 116.154 4710.77 110.199 4710.77 102.337C4710.77 97.1378 4710.22 92.7699 4709.14 89.233C4708.05 85.696 4706.51 83.0327 4704.53 81.2429C4702.55 79.4318 4700.21 78.5263 4697.5 78.5263C4693.43 78.5263 4690.21 80.5504 4687.85 84.5987C4685.48 88.6257 4684.29 94.5384 4684.27 102.337C4684.25 107.557 4684.77 111.946 4685.84 115.504C4686.92 119.062 4688.46 121.747 4690.44 123.558C4692.42 125.348 4694.77 126.243 4697.5 126.243ZM4777.2 135.959C4772.41 135.959 4768.25 134.904 4764.74 132.795C4761.22 130.685 4758.5 127.734 4756.56 123.942C4754.64 120.149 4753.68 115.717 4753.68 110.646C4753.68 105.575 4754.64 101.133 4756.56 97.3189C4758.5 93.505 4761.22 90.5433 4764.74 88.4339C4768.25 86.3246 4772.41 85.2699 4777.2 85.2699C4782 85.2699 4786.15 86.3246 4789.67 88.4339C4793.18 90.5433 4795.9 93.505 4797.82 97.3189C4799.76 101.133 4800.73 105.575 4800.73 110.646C4800.73 115.717 4799.76 120.149 4797.82 123.942C4795.9 127.734 4793.18 130.685 4789.67 132.795C4786.15 134.904 4782 135.959 4777.2 135.959ZM4777.27 126.69C4779.87 126.69 4782.04 125.977 4783.79 124.549C4785.53 123.1 4786.83 121.161 4787.69 118.732C4788.56 116.303 4789 113.597 4789 110.614C4789 107.61 4788.56 104.893 4787.69 102.464C4786.83 100.014 4785.53 98.0646 4783.79 96.6158C4782.04 95.1669 4779.87 94.4425 4777.27 94.4425C4774.6 94.4425 4772.39 95.1669 4770.62 96.6158C4768.87 98.0646 4767.56 100.014 4766.69 102.464C4765.84 104.893 4765.41 107.61 4765.41 110.614C4765.41 113.597 4765.84 116.303 4766.69 118.732C4767.56 121.161 4768.87 123.1 4770.62 124.549C4772.39 125.977 4774.6 126.69 4777.27 126.69ZM4841.83 114.354V85.9091H4853.4V135H4842.19V126.275H4841.67C4840.57 129.023 4838.74 131.271 4836.21 133.018C4833.7 134.766 4830.59 135.639 4826.91 135.639C4823.69 135.639 4820.85 134.925 4818.38 133.498C4815.93 132.049 4814.01 129.95 4812.62 127.202C4811.24 124.432 4810.55 121.087 4810.55 117.166V85.9091H4822.11V115.376C4822.11 118.487 4822.97 120.959 4824.67 122.791C4826.38 124.624 4828.61 125.54 4831.38 125.54C4833.09 125.54 4834.74 125.124 4836.34 124.293C4837.94 123.462 4839.25 122.227 4840.27 120.586C4841.31 118.924 4841.83 116.847 4841.83 114.354ZM4889.81 85.9091V94.858H4861.59V85.9091H4889.81ZM4868.56 74.1477H4880.13V120.234C4880.13 121.79 4880.36 122.983 4880.83 123.814C4881.32 124.624 4881.96 125.178 4882.75 125.476C4883.54 125.774 4884.41 125.923 4885.37 125.923C4886.1 125.923 4886.76 125.87 4887.35 125.763C4887.97 125.657 4888.44 125.561 4888.76 125.476L4890.71 134.521C4890.09 134.734 4889.21 134.968 4888.06 135.224C4886.93 135.479 4885.54 135.629 4883.9 135.671C4881 135.756 4878.39 135.32 4876.07 134.361C4873.75 133.381 4871.91 131.868 4870.54 129.822C4869.2 127.777 4868.54 125.22 4868.56 122.152V74.1477ZM4920.14 108.313C4920.14 116.282 4919.07 123.622 4916.94 130.334C4914.83 137.024 4911.68 143.214 4907.48 148.903H4896.58C4898.22 146.793 4899.74 144.215 4901.12 141.168C4902.53 138.121 4903.74 134.776 4904.76 131.133C4905.81 127.489 4906.62 123.718 4907.19 119.819C4907.79 115.92 4908.09 112.085 4908.09 108.313C4908.09 103.263 4907.58 98.1499 4906.55 92.9723C4905.55 87.7947 4904.18 82.9901 4902.43 78.5582C4900.7 74.1264 4898.76 70.5043 4896.58 67.6918H4907.48C4911.68 73.3807 4914.83 79.581 4916.94 86.2926C4919.07 92.983 4920.14 100.323 4920.14 108.313Z" fill="white"/>
<rect x="177.5" y="518.5" width="322" height="453" rx="75.5" stroke="#767382" stroke-width="9"/>
<rect x="1305.5" y="366.5" width="605" height="735" rx="75.5" stroke="#767382" stroke-width="9"/>
<rect x="2776.5" y="400.5" width="462" height="666" rx="75.5" stroke="#767382" stroke-width="9"/>
<rect x="4151.5" y="279.5" width="370" height="1005" rx="75.5" stroke="#767382" stroke-width="9"/>
<path d="M280.983 418.455V465H275.528L250.165 428.455H249.71V465H244.074V418.455H249.528L274.983 455.091H275.438V418.455H280.983ZM301.807 465.818C299.595 465.818 297.587 465.402 295.784 464.568C293.981 463.72 292.549 462.5 291.489 460.909C290.428 459.303 289.898 457.364 289.898 455.091C289.898 453.091 290.292 451.47 291.08 450.227C291.867 448.97 292.92 447.985 294.239 447.273C295.557 446.561 297.011 446.03 298.602 445.682C300.208 445.318 301.822 445.03 303.443 444.818C305.564 444.545 307.284 444.341 308.602 444.205C309.936 444.053 310.905 443.803 311.511 443.455C312.133 443.106 312.443 442.5 312.443 441.636V441.455C312.443 439.212 311.83 437.47 310.602 436.227C309.39 434.985 307.549 434.364 305.08 434.364C302.519 434.364 300.511 434.924 299.057 436.045C297.602 437.167 296.58 438.364 295.989 439.636L290.898 437.818C291.807 435.697 293.019 434.045 294.534 432.864C296.064 431.667 297.731 430.833 299.534 430.364C301.352 429.879 303.14 429.636 304.898 429.636C306.019 429.636 307.307 429.773 308.761 430.045C310.231 430.303 311.648 430.841 313.011 431.659C314.39 432.477 315.534 433.712 316.443 435.364C317.352 437.015 317.807 439.227 317.807 442V465H312.443V460.273H312.17C311.807 461.03 311.201 461.841 310.352 462.705C309.504 463.568 308.375 464.303 306.966 464.909C305.557 465.515 303.837 465.818 301.807 465.818ZM302.625 461C304.746 461 306.534 460.583 307.989 459.75C309.458 458.917 310.564 457.841 311.307 456.523C312.064 455.205 312.443 453.818 312.443 452.364V447.455C312.216 447.727 311.716 447.977 310.943 448.205C310.186 448.417 309.307 448.606 308.307 448.773C307.322 448.924 306.36 449.061 305.42 449.182C304.496 449.288 303.746 449.379 303.17 449.455C301.777 449.636 300.473 449.932 299.261 450.341C298.064 450.735 297.095 451.333 296.352 452.136C295.625 452.924 295.261 454 295.261 455.364C295.261 457.227 295.951 458.636 297.33 459.591C298.723 460.53 300.489 461 302.625 461ZM327.597 465V430.091H332.778V435.545H333.233C333.96 433.682 335.134 432.235 336.756 431.205C338.377 430.159 340.324 429.636 342.597 429.636C344.9 429.636 346.816 430.159 348.347 431.205C349.892 432.235 351.097 433.682 351.96 435.545H352.324C353.218 433.742 354.559 432.311 356.347 431.25C358.134 430.174 360.278 429.636 362.778 429.636C365.9 429.636 368.453 430.614 370.438 432.568C372.422 434.508 373.415 437.53 373.415 441.636V465H368.051V441.636C368.051 439.061 367.347 437.22 365.938 436.114C364.528 435.008 362.869 434.455 360.96 434.455C358.506 434.455 356.604 435.197 355.256 436.682C353.907 438.152 353.233 440.015 353.233 442.273V465H347.778V441.091C347.778 439.106 347.134 437.508 345.847 436.295C344.559 435.068 342.9 434.455 340.869 434.455C339.475 434.455 338.172 434.826 336.96 435.568C335.763 436.311 334.794 437.341 334.051 438.659C333.324 439.962 332.96 441.47 332.96 443.182V465H327.597ZM397.858 465.727C394.494 465.727 391.593 464.985 389.153 463.5C386.729 462 384.858 459.909 383.54 457.227C382.237 454.53 381.585 451.394 381.585 447.818C381.585 444.242 382.237 441.091 383.54 438.364C384.858 435.621 386.691 433.485 389.04 431.955C391.403 430.409 394.161 429.636 397.312 429.636C399.131 429.636 400.926 429.939 402.699 430.545C404.472 431.152 406.085 432.136 407.54 433.5C408.994 434.848 410.153 436.636 411.017 438.864C411.881 441.091 412.312 443.833 412.312 447.091V449.364H385.403V444.727H406.858C406.858 442.758 406.464 441 405.676 439.455C404.903 437.909 403.797 436.689 402.358 435.795C400.934 434.902 399.252 434.455 397.312 434.455C395.176 434.455 393.328 434.985 391.767 436.045C390.222 437.091 389.032 438.455 388.199 440.136C387.366 441.818 386.949 443.621 386.949 445.545V448.636C386.949 451.273 387.403 453.508 388.312 455.341C389.237 457.159 390.517 458.545 392.153 459.5C393.79 460.439 395.691 460.909 397.858 460.909C399.267 460.909 400.54 460.712 401.676 460.318C402.828 459.909 403.82 459.303 404.653 458.5C405.487 457.682 406.131 456.667 406.585 455.455L411.767 456.909C411.222 458.667 410.305 460.212 409.017 461.545C407.729 462.864 406.138 463.894 404.244 464.636C402.35 465.364 400.222 465.727 397.858 465.727Z" fill="#767382"/>
<path d="M1544.98 279.455V326H1539.53L1514.16 289.455H1513.71V326H1508.07V279.455H1513.53L1538.98 316.091H1539.44V279.455H1544.98ZM1565.81 326.818C1563.59 326.818 1561.59 326.402 1559.78 325.568C1557.98 324.72 1556.55 323.5 1555.49 321.909C1554.43 320.303 1553.9 318.364 1553.9 316.091C1553.9 314.091 1554.29 312.47 1555.08 311.227C1555.87 309.97 1556.92 308.985 1558.24 308.273C1559.56 307.561 1561.01 307.03 1562.6 306.682C1564.21 306.318 1565.82 306.03 1567.44 305.818C1569.56 305.545 1571.28 305.341 1572.6 305.205C1573.94 305.053 1574.91 304.803 1575.51 304.455C1576.13 304.106 1576.44 303.5 1576.44 302.636V302.455C1576.44 300.212 1575.83 298.47 1574.6 297.227C1573.39 295.985 1571.55 295.364 1569.08 295.364C1566.52 295.364 1564.51 295.924 1563.06 297.045C1561.6 298.167 1560.58 299.364 1559.99 300.636L1554.9 298.818C1555.81 296.697 1557.02 295.045 1558.53 293.864C1560.06 292.667 1561.73 291.833 1563.53 291.364C1565.35 290.879 1567.14 290.636 1568.9 290.636C1570.02 290.636 1571.31 290.773 1572.76 291.045C1574.23 291.303 1575.65 291.841 1577.01 292.659C1578.39 293.477 1579.53 294.712 1580.44 296.364C1581.35 298.015 1581.81 300.227 1581.81 303V326H1576.44V321.273H1576.17C1575.81 322.03 1575.2 322.841 1574.35 323.705C1573.5 324.568 1572.38 325.303 1570.97 325.909C1569.56 326.515 1567.84 326.818 1565.81 326.818ZM1566.62 322C1568.75 322 1570.53 321.583 1571.99 320.75C1573.46 319.917 1574.56 318.841 1575.31 317.523C1576.06 316.205 1576.44 314.818 1576.44 313.364V308.455C1576.22 308.727 1575.72 308.977 1574.94 309.205C1574.19 309.417 1573.31 309.606 1572.31 309.773C1571.32 309.924 1570.36 310.061 1569.42 310.182C1568.5 310.288 1567.75 310.379 1567.17 310.455C1565.78 310.636 1564.47 310.932 1563.26 311.341C1562.06 311.735 1561.09 312.333 1560.35 313.136C1559.63 313.924 1559.26 315 1559.26 316.364C1559.26 318.227 1559.95 319.636 1561.33 320.591C1562.72 321.53 1564.49 322 1566.62 322ZM1591.6 326V291.091H1596.78V296.545H1597.23C1597.96 294.682 1599.13 293.235 1600.76 292.205C1602.38 291.159 1604.32 290.636 1606.6 290.636C1608.9 290.636 1610.82 291.159 1612.35 292.205C1613.89 293.235 1615.1 294.682 1615.96 296.545H1616.32C1617.22 294.742 1618.56 293.311 1620.35 292.25C1622.13 291.174 1624.28 290.636 1626.78 290.636C1629.9 290.636 1632.45 291.614 1634.44 293.568C1636.42 295.508 1637.41 298.53 1637.41 302.636V326H1632.05V302.636C1632.05 300.061 1631.35 298.22 1629.94 297.114C1628.53 296.008 1626.87 295.455 1624.96 295.455C1622.51 295.455 1620.6 296.197 1619.26 297.682C1617.91 299.152 1617.23 301.015 1617.23 303.273V326H1611.78V302.091C1611.78 300.106 1611.13 298.508 1609.85 297.295C1608.56 296.068 1606.9 295.455 1604.87 295.455C1603.48 295.455 1602.17 295.826 1600.96 296.568C1599.76 297.311 1598.79 298.341 1598.05 299.659C1597.32 300.962 1596.96 302.47 1596.96 304.182V326H1591.6ZM1661.86 326.727C1658.49 326.727 1655.59 325.985 1653.15 324.5C1650.73 323 1648.86 320.909 1647.54 318.227C1646.24 315.53 1645.59 312.394 1645.59 308.818C1645.59 305.242 1646.24 302.091 1647.54 299.364C1648.86 296.621 1650.69 294.485 1653.04 292.955C1655.4 291.409 1658.16 290.636 1661.31 290.636C1663.13 290.636 1664.93 290.939 1666.7 291.545C1668.47 292.152 1670.09 293.136 1671.54 294.5C1672.99 295.848 1674.15 297.636 1675.02 299.864C1675.88 302.091 1676.31 304.833 1676.31 308.091V310.364H1649.4V305.727H1670.86C1670.86 303.758 1670.46 302 1669.68 300.455C1668.9 298.909 1667.8 297.689 1666.36 296.795C1664.93 295.902 1663.25 295.455 1661.31 295.455C1659.18 295.455 1657.33 295.985 1655.77 297.045C1654.22 298.091 1653.03 299.455 1652.2 301.136C1651.37 302.818 1650.95 304.621 1650.95 306.545V309.636C1650.95 312.273 1651.4 314.508 1652.31 316.341C1653.24 318.159 1654.52 319.545 1656.15 320.5C1657.79 321.439 1659.69 321.909 1661.86 321.909C1663.27 321.909 1664.54 321.712 1665.68 321.318C1666.83 320.909 1667.82 320.303 1668.65 319.5C1669.49 318.682 1670.13 317.667 1670.59 316.455L1675.77 317.909C1675.22 319.667 1674.3 321.212 1673.02 322.545C1671.73 323.864 1670.14 324.894 1668.24 325.636C1666.35 326.364 1664.22 326.727 1661.86 326.727Z" fill="#767382"/>
<path d="M2960.98 313.455V360H2955.53L2930.16 323.455H2929.71V360H2924.07V313.455H2929.53L2954.98 350.091H2955.44V313.455H2960.98ZM2981.81 360.818C2979.59 360.818 2977.59 360.402 2975.78 359.568C2973.98 358.72 2972.55 357.5 2971.49 355.909C2970.43 354.303 2969.9 352.364 2969.9 350.091C2969.9 348.091 2970.29 346.47 2971.08 345.227C2971.87 343.97 2972.92 342.985 2974.24 342.273C2975.56 341.561 2977.01 341.03 2978.6 340.682C2980.21 340.318 2981.82 340.03 2983.44 339.818C2985.56 339.545 2987.28 339.341 2988.6 339.205C2989.94 339.053 2990.91 338.803 2991.51 338.455C2992.13 338.106 2992.44 337.5 2992.44 336.636V336.455C2992.44 334.212 2991.83 332.47 2990.6 331.227C2989.39 329.985 2987.55 329.364 2985.08 329.364C2982.52 329.364 2980.51 329.924 2979.06 331.045C2977.6 332.167 2976.58 333.364 2975.99 334.636L2970.9 332.818C2971.81 330.697 2973.02 329.045 2974.53 327.864C2976.06 326.667 2977.73 325.833 2979.53 325.364C2981.35 324.879 2983.14 324.636 2984.9 324.636C2986.02 324.636 2987.31 324.773 2988.76 325.045C2990.23 325.303 2991.65 325.841 2993.01 326.659C2994.39 327.477 2995.53 328.712 2996.44 330.364C2997.35 332.015 2997.81 334.227 2997.81 337V360H2992.44V355.273H2992.17C2991.81 356.03 2991.2 356.841 2990.35 357.705C2989.5 358.568 2988.38 359.303 2986.97 359.909C2985.56 360.515 2983.84 360.818 2981.81 360.818ZM2982.62 356C2984.75 356 2986.53 355.583 2987.99 354.75C2989.46 353.917 2990.56 352.841 2991.31 351.523C2992.06 350.205 2992.44 348.818 2992.44 347.364V342.455C2992.22 342.727 2991.72 342.977 2990.94 343.205C2990.19 343.417 2989.31 343.606 2988.31 343.773C2987.32 343.924 2986.36 344.061 2985.42 344.182C2984.5 344.288 2983.75 344.379 2983.17 344.455C2981.78 344.636 2980.47 344.932 2979.26 345.341C2978.06 345.735 2977.09 346.333 2976.35 347.136C2975.63 347.924 2975.26 349 2975.26 350.364C2975.26 352.227 2975.95 353.636 2977.33 354.591C2978.72 355.53 2980.49 356 2982.62 356ZM3007.6 360V325.091H3012.78V330.545H3013.23C3013.96 328.682 3015.13 327.235 3016.76 326.205C3018.38 325.159 3020.32 324.636 3022.6 324.636C3024.9 324.636 3026.82 325.159 3028.35 326.205C3029.89 327.235 3031.1 328.682 3031.96 330.545H3032.32C3033.22 328.742 3034.56 327.311 3036.35 326.25C3038.13 325.174 3040.28 324.636 3042.78 324.636C3045.9 324.636 3048.45 325.614 3050.44 327.568C3052.42 329.508 3053.41 332.53 3053.41 336.636V360H3048.05V336.636C3048.05 334.061 3047.35 332.22 3045.94 331.114C3044.53 330.008 3042.87 329.455 3040.96 329.455C3038.51 329.455 3036.6 330.197 3035.26 331.682C3033.91 333.152 3033.23 335.015 3033.23 337.273V360H3027.78V336.091C3027.78 334.106 3027.13 332.508 3025.85 331.295C3024.56 330.068 3022.9 329.455 3020.87 329.455C3019.48 329.455 3018.17 329.826 3016.96 330.568C3015.76 331.311 3014.79 332.341 3014.05 333.659C3013.32 334.962 3012.96 336.47 3012.96 338.182V360H3007.6ZM3077.86 360.727C3074.49 360.727 3071.59 359.985 3069.15 358.5C3066.73 357 3064.86 354.909 3063.54 352.227C3062.24 349.53 3061.59 346.394 3061.59 342.818C3061.59 339.242 3062.24 336.091 3063.54 333.364C3064.86 330.621 3066.69 328.485 3069.04 326.955C3071.4 325.409 3074.16 324.636 3077.31 324.636C3079.13 324.636 3080.93 324.939 3082.7 325.545C3084.47 326.152 3086.09 327.136 3087.54 328.5C3088.99 329.848 3090.15 331.636 3091.02 333.864C3091.88 336.091 3092.31 338.833 3092.31 342.091V344.364H3065.4V339.727H3086.86C3086.86 337.758 3086.46 336 3085.68 334.455C3084.9 332.909 3083.8 331.689 3082.36 330.795C3080.93 329.902 3079.25 329.455 3077.31 329.455C3075.18 329.455 3073.33 329.985 3071.77 331.045C3070.22 332.091 3069.03 333.455 3068.2 335.136C3067.37 336.818 3066.95 338.621 3066.95 340.545V343.636C3066.95 346.273 3067.4 348.508 3068.31 350.341C3069.24 352.159 3070.52 353.545 3072.15 354.5C3073.79 355.439 3075.69 355.909 3077.86 355.909C3079.27 355.909 3080.54 355.712 3081.68 355.318C3082.83 354.909 3083.82 354.303 3084.65 353.5C3085.49 352.682 3086.13 351.667 3086.59 350.455L3091.77 351.909C3091.22 353.667 3090.3 355.212 3089.02 356.545C3087.73 357.864 3086.14 358.894 3084.24 359.636C3082.35 360.364 3080.22 360.727 3077.86 360.727Z" fill="#767382"/>
<path d="M4292.98 196.455V243H4287.53L4262.16 206.455H4261.71V243H4256.07V196.455H4261.53L4286.98 233.091H4287.44V196.455H4292.98ZM4313.81 243.818C4311.59 243.818 4309.59 243.402 4307.78 242.568C4305.98 241.72 4304.55 240.5 4303.49 238.909C4302.43 237.303 4301.9 235.364 4301.9 233.091C4301.9 231.091 4302.29 229.47 4303.08 228.227C4303.87 226.97 4304.92 225.985 4306.24 225.273C4307.56 224.561 4309.01 224.03 4310.6 223.682C4312.21 223.318 4313.82 223.03 4315.44 222.818C4317.56 222.545 4319.28 222.341 4320.6 222.205C4321.94 222.053 4322.91 221.803 4323.51 221.455C4324.13 221.106 4324.44 220.5 4324.44 219.636V219.455C4324.44 217.212 4323.83 215.47 4322.6 214.227C4321.39 212.985 4319.55 212.364 4317.08 212.364C4314.52 212.364 4312.51 212.924 4311.06 214.045C4309.6 215.167 4308.58 216.364 4307.99 217.636L4302.9 215.818C4303.81 213.697 4305.02 212.045 4306.53 210.864C4308.06 209.667 4309.73 208.833 4311.53 208.364C4313.35 207.879 4315.14 207.636 4316.9 207.636C4318.02 207.636 4319.31 207.773 4320.76 208.045C4322.23 208.303 4323.65 208.841 4325.01 209.659C4326.39 210.477 4327.53 211.712 4328.44 213.364C4329.35 215.015 4329.81 217.227 4329.81 220V243H4324.44V238.273H4324.17C4323.81 239.03 4323.2 239.841 4322.35 240.705C4321.5 241.568 4320.38 242.303 4318.97 242.909C4317.56 243.515 4315.84 243.818 4313.81 243.818ZM4314.62 239C4316.75 239 4318.53 238.583 4319.99 237.75C4321.46 236.917 4322.56 235.841 4323.31 234.523C4324.06 233.205 4324.44 231.818 4324.44 230.364V225.455C4324.22 225.727 4323.72 225.977 4322.94 226.205C4322.19 226.417 4321.31 226.606 4320.31 226.773C4319.32 226.924 4318.36 227.061 4317.42 227.182C4316.5 227.288 4315.75 227.379 4315.17 227.455C4313.78 227.636 4312.47 227.932 4311.26 228.341C4310.06 228.735 4309.09 229.333 4308.35 230.136C4307.63 230.924 4307.26 232 4307.26 233.364C4307.26 235.227 4307.95 236.636 4309.33 237.591C4310.72 238.53 4312.49 239 4314.62 239ZM4339.6 243V208.091H4344.78V213.545H4345.23C4345.96 211.682 4347.13 210.235 4348.76 209.205C4350.38 208.159 4352.32 207.636 4354.6 207.636C4356.9 207.636 4358.82 208.159 4360.35 209.205C4361.89 210.235 4363.1 211.682 4363.96 213.545H4364.32C4365.22 211.742 4366.56 210.311 4368.35 209.25C4370.13 208.174 4372.28 207.636 4374.78 207.636C4377.9 207.636 4380.45 208.614 4382.44 210.568C4384.42 212.508 4385.41 215.53 4385.41 219.636V243H4380.05V219.636C4380.05 217.061 4379.35 215.22 4377.94 214.114C4376.53 213.008 4374.87 212.455 4372.96 212.455C4370.51 212.455 4368.6 213.197 4367.26 214.682C4365.91 216.152 4365.23 218.015 4365.23 220.273V243H4359.78V219.091C4359.78 217.106 4359.13 215.508 4357.85 214.295C4356.56 213.068 4354.9 212.455 4352.87 212.455C4351.48 212.455 4350.17 212.826 4348.96 213.568C4347.76 214.311 4346.79 215.341 4346.05 216.659C4345.32 217.962 4344.96 219.47 4344.96 221.182V243H4339.6ZM4409.86 243.727C4406.49 243.727 4403.59 242.985 4401.15 241.5C4398.73 240 4396.86 237.909 4395.54 235.227C4394.24 232.53 4393.59 229.394 4393.59 225.818C4393.59 222.242 4394.24 219.091 4395.54 216.364C4396.86 213.621 4398.69 211.485 4401.04 209.955C4403.4 208.409 4406.16 207.636 4409.31 207.636C4411.13 207.636 4412.93 207.939 4414.7 208.545C4416.47 209.152 4418.09 210.136 4419.54 211.5C4420.99 212.848 4422.15 214.636 4423.02 216.864C4423.88 219.091 4424.31 221.833 4424.31 225.091V227.364H4397.4V222.727H4418.86C4418.86 220.758 4418.46 219 4417.68 217.455C4416.9 215.909 4415.8 214.689 4414.36 213.795C4412.93 212.902 4411.25 212.455 4409.31 212.455C4407.18 212.455 4405.33 212.985 4403.77 214.045C4402.22 215.091 4401.03 216.455 4400.2 218.136C4399.37 219.818 4398.95 221.621 4398.95 223.545V226.636C4398.95 229.273 4399.4 231.508 4400.31 233.341C4401.24 235.159 4402.52 236.545 4404.15 237.5C4405.79 238.439 4407.69 238.909 4409.86 238.909C4411.27 238.909 4412.54 238.712 4413.68 238.318C4414.83 237.909 4415.82 237.303 4416.65 236.5C4417.49 235.682 4418.13 234.667 4418.59 233.455L4423.77 234.909C4423.22 236.667 4422.3 238.212 4421.02 239.545C4419.73 240.864 4418.14 241.894 4416.24 242.636C4414.35 243.364 4412.22 243.727 4409.86 243.727Z" fill="#767382"/>
<circle cx="266.5" cy="604.5" r="56" stroke="#767382" stroke-width="9"/>
<circle cx="1394.5" cy="452.5" r="56" stroke="#767382" stroke-width="9"/>
<circle cx="2865.5" cy="486.5" r="56" stroke="#767382" stroke-width="9"/>
<circle cx="3008.5" cy="702.5" r="101" stroke="#767382" stroke-width="9"/>
<circle cx="4339.5" cy="742.5" r="101" stroke="#767382" stroke-width="9"/>
<circle cx="4339.5" cy="424.5" r="101" stroke="#767382" stroke-width="9"/>
<circle cx="4339.5" cy="1091.5" r="101" stroke="#767382" stroke-width="9"/>
<path d="M2979.6 867.253V862.015L2995.03 837.636H2999.4V845.094H2996.74L2986.35 861.553V861.837H3007.89V867.253H2979.6ZM2996.95 874V865.655L2997.02 863.311V837.636H3003.24V874H2996.95ZM3026.2 874.497C3023.84 874.497 3021.72 874.053 3019.85 873.165C3017.98 872.266 3016.49 871.035 3015.39 869.472C3014.3 867.91 3013.72 866.122 3013.65 864.11H3020.04C3020.16 865.602 3020.81 866.821 3021.98 867.768C3023.15 868.703 3024.56 869.17 3026.2 869.17C3027.49 869.17 3028.64 868.875 3029.65 868.283C3030.65 867.691 3031.45 866.868 3032.03 865.815C3032.61 864.761 3032.89 863.56 3032.88 862.21C3032.89 860.837 3032.6 859.618 3032.01 858.553C3031.42 857.487 3030.61 856.653 3029.58 856.049C3028.55 855.433 3027.36 855.126 3026.03 855.126C3024.94 855.114 3023.87 855.315 3022.81 855.729C3021.76 856.144 3020.92 856.688 3020.31 857.363L3014.36 856.386L3016.26 837.636H3037.35V843.141H3021.71L3020.66 852.782H3020.88C3021.55 851.989 3022.5 851.332 3023.74 850.811C3024.97 850.278 3026.32 850.012 3027.78 850.012C3029.99 850.012 3031.95 850.533 3033.68 851.575C3035.41 852.604 3036.77 854.025 3037.76 855.836C3038.76 857.647 3039.25 859.719 3039.25 862.05C3039.25 864.453 3038.7 866.596 3037.59 868.478C3036.48 870.348 3034.95 871.822 3032.99 872.899C3031.03 873.964 3028.77 874.497 3026.2 874.497Z" fill="#767382"/>
<path d="M4323.35 914.497C4320.71 914.497 4318.36 914.053 4316.31 913.165C4314.28 912.278 4312.68 911.064 4311.52 909.526C4310.37 907.975 4309.8 906.217 4309.82 904.252C4309.8 902.725 4310.13 901.322 4310.81 900.044C4311.48 898.766 4312.4 897.7 4313.54 896.848C4314.7 895.984 4315.99 895.433 4317.41 895.197V894.948C4315.54 894.534 4314.03 893.581 4312.87 892.089C4311.72 890.586 4311.15 888.852 4311.16 886.887C4311.15 885.017 4311.67 883.348 4312.73 881.88C4313.78 880.412 4315.22 879.258 4317.06 878.418C4318.89 877.565 4320.99 877.139 4323.35 877.139C4325.68 877.139 4327.75 877.565 4329.58 878.418C4331.41 879.258 4332.86 880.412 4333.91 881.88C4334.98 883.348 4335.51 885.017 4335.51 886.887C4335.51 888.852 4334.92 890.586 4333.75 892.089C4332.59 893.581 4331.09 894.534 4329.26 894.948V895.197C4330.68 895.433 4331.96 895.984 4333.09 896.848C4334.24 897.7 4335.15 898.766 4335.83 900.044C4336.51 901.322 4336.86 902.725 4336.86 904.252C4336.86 906.217 4336.28 907.975 4335.12 909.526C4333.96 911.064 4332.36 912.278 4330.32 913.165C4328.3 914.053 4325.97 914.497 4323.35 914.497ZM4323.35 909.419C4324.71 909.419 4325.89 909.188 4326.9 908.727C4327.9 908.253 4328.68 907.59 4329.24 906.738C4329.8 905.886 4330.08 904.903 4330.09 903.79C4330.08 902.63 4329.78 901.607 4329.19 900.719C4328.61 899.819 4327.81 899.115 4326.79 898.606C4325.78 898.097 4324.64 897.842 4323.35 897.842C4322.04 897.842 4320.88 898.097 4319.87 898.606C4318.85 899.115 4318.04 899.819 4317.45 900.719C4316.87 901.607 4316.59 902.63 4316.6 903.79C4316.59 904.903 4316.86 905.886 4317.41 906.738C4317.97 907.578 4318.75 908.235 4319.76 908.709C4320.78 909.182 4321.97 909.419 4323.35 909.419ZM4323.35 892.853C4324.46 892.853 4325.44 892.628 4326.29 892.178C4327.16 891.728 4327.84 891.101 4328.33 890.296C4328.83 889.491 4329.09 888.562 4329.1 887.509C4329.09 886.467 4328.84 885.555 4328.35 884.774C4327.87 883.981 4327.19 883.371 4326.33 882.945C4325.46 882.507 4324.47 882.288 4323.35 882.288C4322.2 882.288 4321.18 882.507 4320.31 882.945C4319.44 883.371 4318.77 883.981 4318.28 884.774C4317.81 885.555 4317.58 886.467 4317.59 887.509C4317.58 888.562 4317.82 889.491 4318.3 890.296C4318.8 891.089 4319.48 891.717 4320.34 892.178C4321.22 892.628 4322.22 892.853 4323.35 892.853ZM4356.14 914.692C4353.21 914.692 4350.7 913.953 4348.61 912.473C4346.52 910.982 4344.92 908.833 4343.8 906.028C4342.68 903.21 4342.13 899.819 4342.13 895.854C4342.14 891.888 4342.7 888.515 4343.81 885.733C4344.94 882.939 4346.54 880.809 4348.62 879.341C4350.72 877.873 4353.22 877.139 4356.14 877.139C4359.05 877.139 4361.55 877.873 4363.65 879.341C4365.74 880.809 4367.35 882.939 4368.46 885.733C4369.58 888.527 4370.14 891.9 4370.14 895.854C4370.14 899.831 4369.58 903.228 4368.46 906.045C4367.35 908.851 4365.74 910.993 4363.65 912.473C4361.56 913.953 4359.06 914.692 4356.14 914.692ZM4356.14 909.135C4358.41 909.135 4360.2 908.016 4361.52 905.779C4362.84 903.53 4363.5 900.222 4363.5 895.854C4363.5 892.965 4363.2 890.539 4362.6 888.574C4361.99 886.609 4361.14 885.129 4360.04 884.135C4358.94 883.129 4357.64 882.626 4356.14 882.626C4353.87 882.626 4352.09 883.75 4350.77 885.999C4349.46 888.237 4348.8 891.521 4348.78 895.854C4348.77 898.754 4349.06 901.192 4349.65 903.169C4350.26 905.146 4351.11 906.637 4352.21 907.643C4353.31 908.638 4354.62 909.135 4356.14 909.135Z" fill="#767382"/>
<path d="M4323.88 596.497C4321.51 596.497 4319.39 596.053 4317.52 595.165C4315.65 594.266 4314.17 593.035 4313.07 591.472C4311.98 589.91 4311.4 588.122 4311.33 586.11H4317.72C4317.84 587.602 4318.48 588.821 4319.65 589.768C4320.82 590.703 4322.23 591.17 4323.88 591.17C4325.17 591.17 4326.32 590.875 4327.32 590.283C4328.33 589.691 4329.12 588.868 4329.7 587.815C4330.28 586.761 4330.57 585.56 4330.55 584.21C4330.57 582.837 4330.28 581.618 4329.68 580.553C4329.09 579.487 4328.28 578.653 4327.25 578.049C4326.22 577.433 4325.04 577.126 4323.7 577.126C4322.61 577.114 4321.54 577.315 4320.49 577.729C4319.43 578.144 4318.6 578.688 4317.98 579.363L4312.04 578.386L4313.94 559.636H4335.03V565.141H4319.39L4318.34 574.782H4318.55C4319.23 573.989 4320.18 573.332 4321.41 572.811C4322.64 572.278 4323.99 572.012 4325.46 572.012C4327.66 572.012 4329.63 572.533 4331.35 573.575C4333.08 574.604 4334.44 576.025 4335.44 577.836C4336.43 579.647 4336.93 581.719 4336.93 584.05C4336.93 586.453 4336.37 588.596 4335.26 590.478C4334.16 592.348 4332.63 593.822 4330.66 594.899C4328.71 595.964 4326.45 596.497 4323.88 596.497ZM4356.32 596.692C4353.39 596.692 4350.88 595.953 4348.79 594.473C4346.71 592.982 4345.1 590.833 4343.98 588.028C4342.87 585.21 4342.31 581.819 4342.31 577.854C4342.32 573.888 4342.88 570.515 4344 567.733C4345.12 564.939 4346.72 562.809 4348.81 561.341C4350.9 559.873 4353.41 559.139 4356.32 559.139C4359.23 559.139 4361.73 559.873 4363.83 561.341C4365.92 562.809 4367.53 564.939 4368.64 567.733C4369.77 570.527 4370.33 573.9 4370.33 577.854C4370.33 581.831 4369.77 585.228 4368.64 588.045C4367.53 590.851 4365.92 592.993 4363.83 594.473C4361.75 595.953 4359.24 596.692 4356.32 596.692ZM4356.32 591.135C4358.59 591.135 4360.38 590.016 4361.7 587.779C4363.02 585.53 4363.69 582.222 4363.69 577.854C4363.69 574.965 4363.38 572.539 4362.78 570.574C4362.18 568.609 4361.33 567.129 4360.22 566.135C4359.12 565.129 4357.82 564.626 4356.32 564.626C4354.06 564.626 4352.27 565.75 4350.96 567.999C4349.64 570.237 4348.98 573.521 4348.97 577.854C4348.96 580.754 4349.25 583.192 4349.84 585.169C4350.44 587.146 4351.29 588.637 4352.39 589.643C4353.49 590.638 4354.8 591.135 4356.32 591.135Z" fill="#767382"/>
<path d="M4323.88 1263.5C4321.51 1263.5 4319.39 1263.05 4317.52 1262.17C4315.65 1261.27 4314.17 1260.03 4313.07 1258.47C4311.98 1256.91 4311.4 1255.12 4311.33 1253.11H4317.72C4317.84 1254.6 4318.48 1255.82 4319.65 1256.77C4320.82 1257.7 4322.23 1258.17 4323.88 1258.17C4325.17 1258.17 4326.32 1257.87 4327.32 1257.28C4328.33 1256.69 4329.12 1255.87 4329.7 1254.81C4330.28 1253.76 4330.57 1252.56 4330.55 1251.21C4330.57 1249.84 4330.28 1248.62 4329.68 1247.55C4329.09 1246.49 4328.28 1245.65 4327.25 1245.05C4326.22 1244.43 4325.04 1244.13 4323.7 1244.13C4322.61 1244.11 4321.54 1244.32 4320.49 1244.73C4319.43 1245.14 4318.6 1245.69 4317.98 1246.36L4312.04 1245.39L4313.94 1226.64H4335.03V1232.14H4319.39L4318.34 1241.78H4318.55C4319.23 1240.99 4320.18 1240.33 4321.41 1239.81C4322.64 1239.28 4323.99 1239.01 4325.46 1239.01C4327.66 1239.01 4329.63 1239.53 4331.35 1240.57C4333.08 1241.6 4334.44 1243.02 4335.44 1244.84C4336.43 1246.65 4336.93 1248.72 4336.93 1251.05C4336.93 1253.45 4336.37 1255.6 4335.26 1257.48C4334.16 1259.35 4332.63 1260.82 4330.66 1261.9C4328.71 1262.96 4326.45 1263.5 4323.88 1263.5ZM4356.32 1263.69C4353.39 1263.69 4350.88 1262.95 4348.79 1261.47C4346.71 1259.98 4345.1 1257.83 4343.98 1255.03C4342.87 1252.21 4342.31 1248.82 4342.31 1244.85C4342.32 1240.89 4342.88 1237.51 4344 1234.73C4345.12 1231.94 4346.72 1229.81 4348.81 1228.34C4350.9 1226.87 4353.41 1226.14 4356.32 1226.14C4359.23 1226.14 4361.73 1226.87 4363.83 1228.34C4365.92 1229.81 4367.53 1231.94 4368.64 1234.73C4369.77 1237.53 4370.33 1240.9 4370.33 1244.85C4370.33 1248.83 4369.77 1252.23 4368.64 1255.05C4367.53 1257.85 4365.92 1259.99 4363.83 1261.47C4361.75 1262.95 4359.24 1263.69 4356.32 1263.69ZM4356.32 1258.13C4358.59 1258.13 4360.38 1257.02 4361.7 1254.78C4363.02 1252.53 4363.69 1249.22 4363.69 1244.85C4363.69 1241.97 4363.38 1239.54 4362.78 1237.57C4362.18 1235.61 4361.33 1234.13 4360.22 1233.13C4359.12 1232.13 4357.82 1231.63 4356.32 1231.63C4354.06 1231.63 4352.27 1232.75 4350.96 1235C4349.64 1237.24 4348.98 1240.52 4348.97 1244.85C4348.96 1247.75 4349.25 1250.19 4349.84 1252.17C4350.44 1254.15 4351.29 1255.64 4352.39 1256.64C4353.49 1257.64 4354.8 1258.13 4356.32 1258.13Z" fill="#767382"/>
<circle cx="1680.5" cy="451.5" r="56" stroke="#767382" stroke-width="9"/>
<circle cx="3151.5" cy="485.5" r="56" stroke="#767382" stroke-width="9"/>
<circle cx="266.5" cy="745.5" r="56" stroke="#767382" stroke-width="9"/>
<circle cx="1394.5" cy="593.5" r="56" stroke="#767382" stroke-width="9"/>
<circle cx="1680.5" cy="592.5" r="56" stroke="#767382" stroke-width="9"/>
<circle cx="409.5" cy="745.5" r="56" stroke="#767382" stroke-width="9"/>
<circle cx="1537.5" cy="593.5" r="56" stroke="#767382" stroke-width="9"/>
<circle cx="1823.5" cy="592.5" r="56" stroke="#767382" stroke-width="9"/>
<circle cx="266.5" cy="886.5" r="56" stroke="#767382" stroke-width="9"/>
<circle cx="1394.5" cy="734.5" r="56" stroke="#767382" stroke-width="9"/>
<circle cx="1394.5" cy="875.5" r="56" stroke="#767382" stroke-width="9"/>
<circle cx="1394.5" cy="1016.5" r="56" stroke="#767382" stroke-width="9"/>
<circle cx="1680.5" cy="733.5" r="56" stroke="#767382" stroke-width="9"/>
<circle cx="1680.5" cy="874.5" r="56" stroke="#767382" stroke-width="9"/>
<circle cx="1680.5" cy="1015.5" r="56" stroke="#767382" stroke-width="9"/>
<circle cx="3079.5" cy="977.5" r="56" stroke="#767382" stroke-width="9"/>
<circle cx="1537.5" cy="734.5" r="56" stroke="#767382" stroke-width="9"/>
<circle cx="1537.5" cy="875.5" r="56" stroke="#767382" stroke-width="9"/>
<circle cx="1537.5" cy="1016.5" r="56" stroke="#767382" stroke-width="9"/>
<circle cx="2936.5" cy="978.5" r="56" stroke="#767382" stroke-width="9"/>
<circle cx="1823.5" cy="733.5" r="56" stroke="#767382" stroke-width="9"/>
<circle cx="1823.5" cy="874.5" r="56" stroke="#767382" stroke-width="9"/>
<circle cx="1823.5" cy="1015.5" r="56" stroke="#767382" stroke-width="9"/>
<circle cx="409.5" cy="604.5" r="56" stroke="#767382" stroke-width="9"/>
<circle cx="1537.5" cy="452.5" r="56" stroke="#767382" stroke-width="9"/>
<circle cx="3008.5" cy="486.5" r="56" stroke="#767382" stroke-width="9"/>
<circle cx="1823.5" cy="451.5" r="56" stroke="#767382" stroke-width="9"/>
<path d="M1396.12 445.879C1394.95 444.707 1393.05 444.707 1391.88 445.879L1372.79 464.971C1371.62 466.142 1371.62 468.042 1372.79 469.213C1373.96 470.385 1375.86 470.385 1377.03 469.213L1394 452.243L1410.97 469.213C1412.14 470.385 1414.04 470.385 1415.21 469.213C1416.38 468.042 1416.38 466.142 1415.21 464.971L1396.12 445.879ZM1397 533L1397 448L1391 448L1391 533L1397 533Z" fill="#767382"/>
<path d="M2867.12 483.879C2865.95 482.707 2864.05 482.707 2862.88 483.879L2843.79 502.971C2842.62 504.142 2842.62 506.042 2843.79 507.213C2844.96 508.385 2846.86 508.385 2848.03 507.213L2865 490.243L2881.97 507.213C2883.14 508.385 2885.04 508.385 2886.21 507.213C2887.38 506.042 2887.38 504.142 2886.21 502.971L2867.12 483.879ZM2868 571L2868 486L2862 486L2862 571L2868 571Z" fill="#767382"/>
<path d="M1539.12 444.879C1537.95 443.707 1536.05 443.707 1534.88 444.879L1515.79 463.971C1514.62 465.142 1514.62 467.042 1515.79 468.213C1516.96 469.385 1518.86 469.385 1520.03 468.213L1537 451.243L1553.97 468.213C1555.14 469.385 1557.04 469.385 1558.21 468.213C1559.38 467.042 1559.38 465.142 1558.21 463.971L1539.12 444.879ZM1540 532L1540 447L1534 447L1534 532L1540 532Z" fill="#767382"/>
<path d="M3010.12 483.879C3008.95 482.707 3007.05 482.707 3005.88 483.879L2986.79 502.971C2985.62 504.142 2985.62 506.042 2986.79 507.213C2987.96 508.385 2989.86 508.385 2991.03 507.213L3008 490.243L3024.97 507.213C3026.14 508.385 3028.04 508.385 3029.21 507.213C3030.38 506.042 3030.38 504.142 3029.21 502.971L3010.12 483.879ZM3011 571L3011 486L3005 486L3005 571L3011 571Z" fill="#767382"/>
<path d="M1682.12 444.879C1680.95 443.707 1679.05 443.707 1677.88 444.879L1658.79 463.971C1657.62 465.142 1657.62 467.042 1658.79 468.213C1659.96 469.385 1661.86 469.385 1663.03 468.213L1680 451.243L1696.97 468.213C1698.14 469.385 1700.04 469.385 1701.21 468.213C1702.38 467.042 1702.38 465.142 1701.21 463.971L1682.12 444.879ZM1683 532L1683 447L1677 447L1677 532L1683 532Z" fill="#767382"/>
<path d="M3154.12 483.879C3152.95 482.707 3151.05 482.707 3149.88 483.879L3130.79 502.971C3129.62 504.142 3129.62 506.042 3130.79 507.213C3131.96 508.385 3133.86 508.385 3135.03 507.213L3152 490.243L3168.97 507.213C3170.14 508.385 3172.04 508.385 3173.21 507.213C3174.38 506.042 3174.38 504.142 3173.21 502.971L3154.12 483.879ZM3155 571L3155 486L3149 486L3149 571L3155 571Z" fill="#767382"/>
<path d="M4344.18 410.818C4342.42 409.061 4339.58 409.061 4337.82 410.818L4309.18 439.456C4307.42 441.213 4307.42 444.062 4309.18 445.82C4310.94 447.577 4313.79 447.577 4315.54 445.82L4341 420.364L4366.46 445.82C4368.21 447.577 4371.06 447.577 4372.82 445.82C4374.58 444.062 4374.58 441.213 4372.82 439.456L4344.18 410.818ZM4345.5 558L4345.5 414L4336.5 414L4336.5 558L4345.5 558Z" fill="#767382"/>
<path d="M4344.18 935.818C4342.42 934.061 4339.58 934.061 4337.82 935.818L4309.18 964.456C4307.42 966.213 4307.42 969.062 4309.18 970.82C4310.94 972.577 4313.79 972.577 4315.54 970.82L4341 945.364L4366.46 970.82C4368.21 972.577 4371.06 972.577 4372.82 970.82C4374.58 969.062 4374.58 966.213 4372.82 964.456L4344.18 935.818ZM4345.5 1092L4345.5 939L4336.5 939L4336.5 1092L4345.5 1092Z" fill="#767382"/>
<path d="M1682.12 930.879C1680.95 929.707 1679.05 929.707 1677.88 930.879L1658.79 949.971C1657.62 951.142 1657.62 953.042 1658.79 954.213C1659.96 955.385 1661.86 955.385 1663.03 954.213L1680 937.243L1696.97 954.213C1698.14 955.385 1700.04 955.385 1701.21 954.213C1702.38 953.042 1702.38 951.142 1701.21 949.971L1682.12 930.879ZM1683 1018L1683 933L1677 933L1677 1018L1683 1018Z" fill="#767382"/>
<path d="M3082.12 883.879C3080.95 882.707 3079.05 882.707 3077.88 883.879L3058.79 902.971C3057.62 904.142 3057.62 906.042 3058.79 907.213C3059.96 908.385 3061.86 908.385 3063.03 907.213L3080 890.243L3096.97 907.213C3098.14 908.385 3100.04 908.385 3101.21 907.213C3102.38 906.042 3102.38 904.142 3101.21 902.971L3082.12 883.879ZM3083 971L3083 886L3077 886L3077 971L3083 971Z" fill="#767382"/>
<path d="M1825.12 929.879C1823.95 928.707 1822.05 928.707 1820.88 929.879L1801.79 948.971C1800.62 950.142 1800.62 952.042 1801.79 953.213C1802.96 954.385 1804.86 954.385 1806.03 953.213L1823 936.243L1839.97 953.213C1841.14 954.385 1843.04 954.385 1844.21 953.213C1845.38 952.042 1845.38 950.142 1844.21 948.971L1825.12 929.879ZM1826 1017L1826 932L1820 932L1820 1017L1826 1017Z" fill="#767382"/>
<path d="M1539.12 928.879C1537.95 927.707 1536.05 927.707 1534.88 928.879L1515.79 947.971C1514.62 949.142 1514.62 951.042 1515.79 952.213C1516.96 953.385 1518.86 953.385 1520.03 952.213L1537 935.243L1553.97 952.213C1555.14 953.385 1557.04 953.385 1558.21 952.213C1559.38 951.042 1559.38 949.142 1558.21 947.971L1539.12 928.879ZM1540 1016L1540 931L1534 931L1534 1016L1540 1016Z" fill="#767382"/>
<path d="M2938.12 883.879C2936.95 882.707 2935.05 882.707 2933.88 883.879L2914.79 902.971C2913.62 904.142 2913.62 906.042 2914.79 907.213C2915.96 908.385 2917.86 908.385 2919.03 907.213L2936 890.243L2952.97 907.213C2954.14 908.385 2956.04 908.385 2957.21 907.213C2958.38 906.042 2958.38 904.142 2957.21 902.971L2938.12 883.879ZM2939 971L2939 886L2933 886L2933 971L2939 971Z" fill="#767382"/>
</g>
<defs>
<filter id="filter0_d_110_105" x="-4" y="0" width="5083" height="1337" filterUnits="userSpaceOnUse" color-interpolation-filters="sRGB">
<feFlood flood-opacity="0" result="BackgroundImageFix"/>
<feColorMatrix in="SourceAlpha" type="matrix" values="0 0 0 0 0 0 0 0 0 0 0 0 0 0 0 0 0 0 127 0" result="hardAlpha"/>
<feOffset dy="4"/>
<feGaussianBlur stdDeviation="2"/>
<feComposite in2="hardAlpha" operator="out"/>
<feColorMatrix type="matrix" values="0 0 0 0 0 0 0 0 0 0 0 0 0 0 0 0 0 0 0.25 0"/>
<feBlend mode="normal" in2="BackgroundImageFix" result="effect1_dropShadow_110_105"/>
<feBlend mode="normal" in="SourceGraphic" in2="effect1_dropShadow_110_105" result="shape"/>
</filter>
</defs>
</svg>
