<svg width="5633" height="1319" viewBox="0 0 5633 1319" fill="none" xmlns="http://www.w3.org/2000/svg">
<g clip-path="url(#clip0_115_247)">
<path d="M801.138 1053.86C815.039 1087.88 825.347 1100.37 842.983 1133.61C860.099 1165.87 834.734 1198.29 801.138 1198.29C767.54 1198.29 742.174 1165.87 759.295 1133.61C776.924 1100.38 786.618 1087.88 801.138 1053.86V1053.86Z" fill="#62B4FF" fill-opacity="0.5"/>
<path d="M584.985 458.388C593.006 476.517 598.953 483.177 609.129 500.889C619.004 518.081 604.369 535.353 584.985 535.353C565.6 535.353 550.965 518.079 560.843 500.889C571.014 483.178 576.607 476.518 584.985 458.388V458.388Z" fill="#62B4FF" fill-opacity="0.5"/>
<path d="M667.241 487.674C672.557 499.771 676.499 504.215 683.243 516.034C689.788 527.506 680.089 539.031 667.241 539.031C654.393 539.031 644.693 527.505 651.24 516.034C657.981 504.216 661.689 499.772 667.241 487.674V487.674Z" fill="#62B4FF" fill-opacity="0.5"/>
<path d="M846.045 497.752C853.693 515.051 859.364 521.405 869.066 538.307C878.482 554.711 864.528 571.192 846.045 571.192C827.562 571.192 813.607 554.709 823.026 538.307C832.724 521.407 838.057 515.052 846.045 497.752V497.752Z" fill="#62B4FF" fill-opacity="0.5"/>
<path d="M1015.96 480.324C1021.27 492.421 1025.21 496.865 1031.96 508.685C1038.5 520.156 1028.8 531.682 1015.96 531.682C1003.11 531.682 993.408 520.155 999.955 508.685C1006.7 496.866 1010.4 492.422 1015.96 480.324V480.324Z" fill="#62B4FF" fill-opacity="0.5"/>
<path d="M932.43 455.45C936.72 465.276 939.901 468.885 945.344 478.485C950.626 487.803 942.798 497.164 932.43 497.164C922.061 497.164 914.233 487.802 919.517 478.485C924.957 468.886 927.949 465.277 932.43 455.45V455.45Z" fill="#62B4FF" fill-opacity="0.5"/>
<path d="M755.531 439C762.34 454.5 767.388 460.194 776.026 475.337C784.408 490.035 771.985 504.802 755.531 504.802C739.077 504.802 726.654 490.034 735.039 475.337C743.673 460.195 748.42 454.501 755.531 439V439Z" fill="#62B4FF" fill-opacity="0.5"/>
<path d="M4825.47 1074.86C4839.37 1108.88 4849.68 1121.38 4867.32 1154.61C4884.43 1186.87 4859.07 1219.29 4825.47 1219.29C4791.87 1219.29 4766.51 1186.87 4783.63 1154.61C4801.26 1121.38 4810.95 1108.88 4825.47 1074.86V1074.86Z" fill="#10CC55" fill-opacity="0.5"/>
<path d="M4609.32 479.388C4617.34 497.517 4623.29 504.177 4633.46 521.889C4643.34 539.081 4628.7 556.353 4609.32 556.353C4589.93 556.353 4575.3 539.079 4585.18 521.889C4595.35 504.178 4600.94 497.518 4609.32 479.388V479.388Z" fill="#10CC55" fill-opacity="0.5"/>
<path d="M4691.57 508.674C4696.89 520.771 4700.83 525.215 4707.58 537.034C4714.12 548.506 4704.42 560.031 4691.57 560.031C4678.73 560.031 4669.03 548.505 4675.57 537.034C4682.31 525.216 4686.02 520.772 4691.57 508.674V508.674Z" fill="#10CC55" fill-opacity="0.5"/>
<path d="M4870.38 518.752C4878.03 536.051 4883.7 542.405 4893.4 559.307C4902.81 575.711 4888.86 592.192 4870.38 592.192C4851.9 592.192 4837.94 575.709 4847.36 559.307C4857.06 542.407 4862.39 536.052 4870.38 518.752V518.752Z" fill="#10CC55" fill-opacity="0.5"/>
<path d="M5040.29 501.325C5045.61 513.422 5049.55 517.866 5056.29 529.686C5062.84 541.157 5053.14 552.683 5040.29 552.683C5027.44 552.683 5017.74 541.156 5024.29 529.686C5031.03 517.867 5034.74 513.423 5040.29 501.325V501.325Z" fill="#10CC55" fill-opacity="0.5"/>
<path d="M4956.76 476.45C4961.05 486.276 4964.23 489.885 4969.68 499.485C4974.96 508.803 4967.13 518.164 4956.76 518.164C4946.39 518.164 4938.57 508.802 4943.85 499.485C4949.29 489.886 4952.28 486.277 4956.76 476.45V476.45Z" fill="#10CC55" fill-opacity="0.5"/>
<path d="M4779.86 460C4786.67 475.499 4791.72 481.194 4800.36 496.337C4808.74 511.035 4796.32 525.802 4779.86 525.802C4763.41 525.802 4750.99 511.034 4759.37 496.337C4768.01 481.195 4772.75 475.501 4779.86 460V460Z" fill="#10CC55" fill-opacity="0.5"/>
<path d="M761.333 976C775.564 976.637 780.624 988.747 780.624 997.67L780.308 1034M816.675 1034V1015.68C816.675 1015.68 816.675 1001.18 816.675 997.67C816.675 994.165 817.624 976 835.333 976" stroke="#767382" stroke-width="12" stroke-linecap="round" stroke-linejoin="round"/>
<path d="M4785.67 976C4799.9 976.637 4804.96 988.747 4804.96 997.67L4804.64 1034M4841.01 1034V1015.68C4841.01 1015.68 4841.01 1001.18 4841.01 997.67C4841.01 994.165 4841.96 976 4859.67 976" stroke="#767382" stroke-width="12" stroke-linecap="round" stroke-linejoin="round"/>
<path d="M763.835 971.402H603.988C603.988 971.402 590.494 971.227 574.115 965.36C563.893 961.698 553.182 955.042 543.29 947.214C533.887 939.774 523.744 927.173 518.503 915.388C508.334 896.293 508.333 874.97 508.333 874.97V776.946V645.824C508.333 645.824 530.261 637.549 557.273 637.549C584.285 637.549 584.285 645.824 608.754 645.824C633.224 645.824 639.262 643.915 656.422 639.459C673.583 635.003 682.163 636.276 682.163 636.276C682.163 636.276 712.353 637.331 730.785 644.232C749.216 651.134 763.835 643.914 774.004 640.797C784.173 637.679 803.558 636.276 819.13 636.276C834.701 636.276 858.853 647.733 887.454 647.733C916.055 647.733 931.626 639.14 950.376 635.003C969.125 630.866 989.781 640.731 1008.21 642.8C1026.64 644.869 1035.22 638.185 1054.29 635.003C1073.36 631.821 1094.33 644.869 1094.33 644.869V881.335C1094.33 881.335 1093.7 913.161 1064.78 942.44C1035.86 971.72 999.951 971.084 999.951 971.084H832.794C832.794 971.084 823.579 972.357 818.176 979.04C812.774 985.724 812.774 990.816 812.774 990.816C812.774 990.816 809.278 1001 799.109 1001C788.94 1001 785.444 990.816 785.444 990.816C785.444 990.816 783.22 983.178 778.453 978.404C773.686 973.63 763.835 971.402 763.835 971.402Z" fill="#62B4FF" fill-opacity="0.5"/>
<path d="M4788.17 971.402H4628.32C4628.32 971.402 4614.83 971.227 4598.45 965.36C4588.23 961.698 4577.52 955.042 4567.62 947.214C4558.22 939.774 4548.08 927.173 4542.84 915.388C4532.67 896.293 4532.67 874.97 4532.67 874.97V776.946V645.824C4532.67 645.824 4554.59 637.549 4581.61 637.549C4608.62 637.549 4608.62 645.824 4633.09 645.824C4657.56 645.824 4663.6 643.915 4680.76 639.459C4697.92 635.003 4706.5 636.276 4706.5 636.276C4706.5 636.276 4736.69 637.331 4755.12 644.232C4773.55 651.134 4788.17 643.914 4798.34 640.797C4808.51 637.679 4827.89 636.276 4843.46 636.276C4859.03 636.276 4883.19 647.733 4911.79 647.733C4940.39 647.733 4955.96 639.14 4974.71 635.003C4993.46 630.866 5014.11 640.731 5032.55 642.8C5050.98 644.869 5059.56 638.185 5078.63 635.003C5097.69 631.821 5118.67 644.869 5118.67 644.869V881.335C5118.67 881.335 5118.03 913.161 5089.11 942.44C5060.19 971.72 5024.28 971.084 5024.28 971.084H4857.13C4857.13 971.084 4847.91 972.357 4842.51 979.04C4837.11 985.724 4837.11 990.816 4837.11 990.816C4837.11 990.816 4833.61 1001 4823.44 1001C4813.27 1001 4809.78 990.816 4809.78 990.816C4809.78 990.816 4807.55 983.178 4802.79 978.404C4798.02 973.63 4788.17 971.402 4788.17 971.402Z" fill="#10CC55" fill-opacity="0.5"/>
<path d="M564.957 118V372.686C564.957 372.686 559.856 376.691 555.435 382.893C551.014 389.095 550.333 395.684 550.333 395.684C550.333 395.684 560.309 400.593 578.22 400.981C596.131 401.369 606.333 395.684 606.333 395.684C606.333 395.684 604.633 387.803 600.665 382.893C596.698 377.983 590.576 372.686 590.576 372.686V118" stroke="#767382" stroke-width="6"/>
<path d="M4589.29 118V372.686C4589.29 372.686 4584.19 376.691 4579.77 382.893C4575.35 389.095 4574.67 395.684 4574.67 395.684C4574.67 395.684 4584.64 400.593 4602.55 400.981C4620.46 401.369 4630.67 395.684 4630.67 395.684C4630.67 395.684 4628.97 387.803 4625 382.893C4621.03 377.983 4614.91 372.686 4614.91 372.686V118" stroke="#767382" stroke-width="6"/>
<path d="M657.018 119V399.743C657.018 399.743 648.026 403.74 643.526 409.929C639.026 416.119 638.333 422.694 638.333 422.694C638.333 422.694 648.487 427.594 666.718 427.981C684.949 428.368 695.333 422.694 695.333 422.694C695.333 422.694 693.603 414.829 689.564 409.929C685.526 405.03 675.495 399.743 675.495 399.743V119" stroke="#767382" stroke-width="6"/>
<path d="M4681.35 119V399.743C4681.35 399.743 4672.36 403.74 4667.86 409.929C4663.36 416.119 4662.67 422.694 4662.67 422.694C4662.67 422.694 4672.82 427.594 4691.05 427.981C4709.28 428.368 4719.67 422.694 4719.67 422.694C4719.67 422.694 4717.94 414.829 4713.9 409.929C4709.86 405.03 4699.83 399.743 4699.83 399.743V119" stroke="#767382" stroke-width="6"/>
<path d="M738.613 118V360.033C738.613 360.033 732.236 364.033 726.71 370.226C721.184 376.42 720.333 383 720.333 383C720.333 383 732.803 375.859 755.192 376.246C777.58 376.633 790.333 383 790.333 383C790.333 383 788.208 375.129 783.248 370.226C778.289 365.323 770.637 360.033 770.637 360.033V118" stroke="#767382" stroke-width="6"/>
<path d="M4762.95 118V360.033C4762.95 360.033 4756.57 364.033 4751.04 370.226C4745.52 376.42 4744.67 383 4744.67 383C4744.67 383 4757.14 375.859 4779.53 376.246C4801.91 376.633 4814.67 383 4814.67 383C4814.67 383 4812.54 375.129 4807.58 370.226C4802.62 365.323 4794.97 360.033 4794.97 360.033V118" stroke="#767382" stroke-width="6"/>
<path d="M830.218 120V410.775C830.218 410.775 825.026 414.768 820.526 420.95C816.026 427.132 815.333 433.701 815.333 433.701C815.333 433.701 825.487 438.595 843.718 438.981C861.949 439.367 872.333 433.701 872.333 433.701C872.333 433.701 870.603 425.844 866.564 420.95C862.526 416.056 856.295 410.775 856.295 410.775V120" stroke="#767382" stroke-width="6"/>
<path d="M4854.55 120V410.775C4854.55 410.775 4849.36 414.768 4844.86 420.95C4840.36 427.132 4839.67 433.701 4839.67 433.701C4839.67 433.701 4849.82 438.595 4868.05 438.981C4886.28 439.367 4896.67 433.701 4896.67 433.701C4896.67 433.701 4894.94 425.844 4890.9 420.95C4886.86 416.056 4880.63 410.775 4880.63 410.775V120" stroke="#767382" stroke-width="6"/>
<path d="M923.061 118V268.254V372.735C923.061 372.735 914.026 376.733 909.526 382.924C905.026 389.115 904.333 395.693 904.333 395.693C904.333 395.693 914.487 400.594 932.718 400.981C950.949 401.368 961.333 395.693 961.333 395.693C961.333 395.693 959.603 387.825 955.564 382.924C951.526 378.023 941.452 372.735 941.452 372.735V268.254V118" stroke="#767382" stroke-width="6"/>
<path d="M4947.39 118V268.254V372.735C4947.39 372.735 4938.36 376.733 4933.86 382.924C4929.36 389.115 4928.67 395.693 4928.67 395.693C4928.67 395.693 4938.82 400.594 4957.05 400.981C4975.28 401.368 4985.67 395.693 4985.67 395.693C4985.67 395.693 4983.94 387.825 4979.9 382.924C4975.86 378.023 4965.79 372.735 4965.79 372.735V268.254V118" stroke="#767382" stroke-width="6"/>
<path d="M1002.22 118V400.024C1002.22 400.024 997.026 404.026 992.526 410.221C988.026 416.417 987.333 423 987.333 423C987.333 423 997.487 418.565 1015.72 418.953C1033.95 419.34 1044.33 423 1044.33 423C1044.33 423 1042.6 415.126 1038.56 410.221C1034.53 405.316 1028.3 400.024 1028.3 400.024V118" stroke="#767382" stroke-width="6"/>
<path d="M5026.55 118V400.024C5026.55 400.024 5021.36 404.026 5016.86 410.221C5012.36 416.417 5011.67 423 5011.67 423C5011.67 423 5021.82 418.565 5040.05 418.953C5058.28 419.34 5068.67 423 5068.67 423C5068.67 423 5066.94 415.126 5062.9 410.221C5058.86 405.316 5052.63 400.024 5052.63 400.024V118" stroke="#767382" stroke-width="6"/>
<path d="M4596.64 111.133V66.8999H4606.67V111.133H4596.64ZM4579.54 94.0341V83.9986H4623.77V94.0341H4579.54Z" fill="#10CC55"/>
<path d="M4685.14 111.133V66.8999H4695.17V111.133H4685.14ZM4668.04 94.0341V83.9986H4712.27V94.0341H4668.04Z" fill="#10CC55"/>
<path d="M4864.64 111.133V66.8999H4874.67V111.133H4864.64ZM4847.54 94.0341V83.9986H4891.77V94.0341H4847.54Z" fill="#10CC55"/>
<path d="M4773.3 111.133V66.8999H4783.34V111.133H4773.3ZM4756.21 94.0341V83.9986H4800.44V94.0341H4756.21Z" fill="#10CC55"/>
<path d="M4952.14 111.133V66.8999H4962.17V111.133H4952.14ZM4935.04 94.0341V83.9986H4979.27V94.0341H4935.04Z" fill="#10CC55"/>
<path d="M5033.8 111.133V66.8999H5043.84V111.133H5033.8ZM5016.71 94.0341V83.9986H5060.94V94.0341H5016.71Z" fill="#10CC55"/>
<path d="M1029.07 82.9759V92.5H999.604V82.9759H1029.07Z" fill="#62B4FF"/>
<path d="M770.071 85.9759V95.5H740.604V85.9759H770.071Z" fill="#62B4FF"/>
<path d="M858.071 83.9759V93.5H828.604V83.9759H858.071Z" fill="#62B4FF"/>
<path d="M945.071 83.9759V93.5H915.604V83.9759H945.071Z" fill="#62B4FF"/>
<path d="M681.071 86.9759V96.5H651.604V86.9759H681.071Z" fill="#62B4FF"/>
<path d="M593.071 85.9759V95.5H563.604V85.9759H593.071Z" fill="#62B4FF"/>
<path fill-rule="evenodd" clip-rule="evenodd" d="M1002.72 211.637H857.677V223.637H922.884V212.042H941.776V223.637H1002.72V211.637ZM1028.31 223.637H1142.9H1177.71C1166.37 225.863 1155.71 229.977 1146.06 235.637C1115.97 253.283 1095.77 285.963 1095.77 323.36V882.314C1090.09 933.064 1047.04 972.517 994.779 972.517H834.713V980.139H761.667V972.517H607.953C551.824 972.517 506.323 927.016 506.323 870.888V333.455V321.455H506.322H506.322C506.1 285.201 486.895 253.449 458.147 235.637C449.536 230.302 440.07 226.217 430.001 223.637H461.458H564.659V212.203H591.337V223.637H657.182V211.637H430.001C423.954 211.637 418.852 216.136 418.095 222.135C417.339 228.135 421.164 233.76 427.022 235.261C465.554 245.136 494.068 279.998 494.322 321.528C494.322 321.576 494.323 321.624 494.323 321.672V870.888C494.323 933.644 545.197 984.517 607.953 984.517H801.366H994.779C1053.22 984.517 1101.35 940.403 1107.7 883.648C1107.75 883.205 1107.77 882.76 1107.77 882.314V323.36C1107.77 279.813 1138.84 243.497 1180.03 235.412C1186.09 234.222 1190.26 228.624 1189.66 222.476C1189.06 216.327 1183.89 211.637 1177.71 211.637H1028.31V223.637ZM829.644 211.637H771.141V223.637H829.644V211.637ZM675.464 211.637H738.233V223.637H675.464V211.637Z" fill="#767382"/>
<path fill-rule="evenodd" clip-rule="evenodd" d="M5027.05 211.637H4882.01V223.637H4947.22V212.042H4966.11V223.637H5027.05V211.637ZM5052.65 223.637H5167.23H5202.05C5190.71 225.863 5180.04 229.977 5170.39 235.637C5140.31 253.283 5120.11 285.963 5120.11 323.36V882.314C5114.43 933.064 5071.38 972.517 5019.11 972.517H4859.05V980.139H4786V972.517H4632.29C4576.16 972.517 4530.66 927.016 4530.66 870.888V333.455V321.455H4530.66H4530.66C4530.43 285.201 4511.23 253.449 4482.48 235.637C4473.87 230.302 4464.4 226.217 4454.33 223.637H4485.79H4588.99V212.203H4615.67V223.637H4681.52V211.637H4454.33C4448.29 211.637 4443.19 216.136 4442.43 222.135C4441.67 228.135 4445.5 233.76 4451.36 235.261C4489.89 245.136 4518.4 279.998 4518.66 321.528C4518.66 321.576 4518.66 321.624 4518.66 321.672V870.888C4518.66 933.644 4569.53 984.517 4632.29 984.517H4825.7H5019.11C5077.56 984.517 5125.68 940.403 5132.03 883.648C5132.08 883.205 5132.11 882.76 5132.11 882.314V323.36C5132.11 279.813 5163.17 243.497 5204.36 235.412C5210.42 234.222 5214.59 228.624 5213.99 222.476C5213.39 216.327 5208.23 211.637 5202.05 211.637H5052.65V223.637ZM4853.98 211.637H4795.47V223.637H4853.98V211.637ZM4699.8 211.637H4762.57V223.637H4699.8V211.637Z" fill="#767382"/>
<circle cx="2827.83" cy="223.5" r="69.5" stroke="#767382" stroke-width="20"/>
<mask id="path-46-inside-1_115_247" fill="white">
<path fill-rule="evenodd" clip-rule="evenodd" d="M3743.56 1205.68C3746.66 1244.34 3715 1276 3676.2 1276H1973.9C1935.11 1276 1903.44 1244.34 1906.54 1205.68C1944.63 731.74 2341.31 359 2825.05 359C3308.79 359 3705.47 731.741 3743.56 1205.68Z"/>
</mask>
<path d="M3743.56 1205.68L3755.52 1204.72L3743.56 1205.68ZM1973.9 1288H3676.2V1264H1973.9V1288ZM1918.51 1206.64C1956.09 738.886 2347.61 371 2825.05 371V347C2335 347 1933.16 724.595 1894.58 1204.72L1918.51 1206.64ZM2825.05 371C3302.49 371 3694.01 738.886 3731.6 1206.64L3755.52 1204.72C3716.94 724.595 3315.1 347 2825.05 347V371ZM3676.2 1288C3721.4 1288 3759.23 1250.96 3755.52 1204.72L3731.6 1206.64C3734.09 1237.73 3708.59 1264 3676.2 1264V1288ZM1973.9 1264C1941.51 1264 1916.01 1237.73 1918.51 1206.64L1894.58 1204.72C1890.87 1250.96 1928.71 1288 1973.9 1288V1264Z" fill="#767382" mask="url(#path-46-inside-1_115_247)"/>
<circle cx="2827.83" cy="1262.5" r="43.5" fill="#767382"/>
<circle cx="2828" cy="223" r="22" fill="#767382"/>
<path fill-rule="evenodd" clip-rule="evenodd" d="M2759.33 212H1170.33V234H2759.33V212ZM2897.33 234H4456.33V212H2897.33V234Z" fill="#767382"/>
<path d="M2827.5 505L2851.27 1150.84C2851.77 1164.31 2840.98 1175.5 2827.5 1175.5V1175.5C2814.02 1175.5 2803.23 1164.31 2803.73 1150.83L2827.5 505Z" fill="#767382"/>
<circle cx="2827.33" cy="409" r="8" fill="#767382"/>
<circle cx="3036.33" cy="442" r="8" fill="#767382"/>
<circle cx="3211.33" cy="507" r="8" fill="#767382"/>
<circle cx="2443.33" cy="507" r="8" fill="#767382"/>
<circle cx="2283.33" cy="613" r="8" fill="#767382"/>
<circle cx="2136.33" cy="763" r="8" fill="#767382"/>
<circle cx="3504.33" cy="763" r="8" fill="#767382"/>
<circle cx="3603.33" cy="921" r="8" fill="#767382"/>
<circle cx="2051.33" cy="921" r="8" fill="#767382"/>
<circle cx="1993.33" cy="1106" r="8" fill="#767382"/>
<circle cx="3636.33" cy="1106" r="8" fill="#767382"/>
<circle cx="3371.33" cy="613" r="8" fill="#767382"/>
<circle cx="2618.33" cy="442" r="8" fill="#767382"/>
<path d="M3190.39 967.085V826.46H3214.25V967.085H3190.39ZM3132.01 908.705V884.841H3272.63V908.705H3132.01Z" fill="#10CC55"/>
<path d="M2483.1 879.744V903.182H2387.65V879.744H2483.1Z" fill="#62B4FF"/>
<line x1="2828" y1="369" x2="2828" y2="291" stroke="#767382" stroke-width="50"/>
</g>
<defs>
<clipPath id="clip0_115_247">
<rect width="5633" height="1319" fill="white"/>
</clipPath>
</defs>
</svg>
