<svg width="5075" height="703" viewBox="0 0 5075 703" fill="none" xmlns="http://www.w3.org/2000/svg">
<g clip-path="url(#clip0_106_2)">
<circle cx="482.5" cy="437.5" r="140.5" stroke="#767382" stroke-width="12"/>
<circle cx="1520.5" cy="437.5" r="140.5" stroke="#767382" stroke-width="12"/>
<circle cx="1520.5" cy="437.5" r="189.5" stroke="#10CC55" stroke-width="12"/>
<circle cx="2558.5" cy="437.5" r="140.5" stroke="#767382" stroke-width="12"/>
<circle cx="3596.5" cy="437.5" r="140.5" stroke="#767382" stroke-width="12"/>
<g filter="url(#filter0_d_106_2)">
<circle cx="4634.5" cy="437.5" r="146.5" fill="#10CC55" fill-opacity="0.8" shape-rendering="crispEdges"/>
<circle cx="4634.5" cy="437.5" r="140.5" stroke="#10CC55" stroke-width="12" shape-rendering="crispEdges"/>
</g>
<path d="M2562.24 439.757C2559.9 437.414 2556.1 437.414 2553.76 439.757L2515.57 477.941C2513.23 480.284 2513.23 484.083 2515.57 486.426C2517.92 488.77 2521.72 488.77 2524.06 486.426L2558 452.485L2591.94 486.426C2594.28 488.77 2598.08 488.77 2600.43 486.426C2602.77 484.083 2602.77 480.284 2600.43 477.941L2562.24 439.757ZM2564 658V444H2552V658H2564Z" fill="#767382"/>
<path d="M3601.24 201.757C3598.9 199.414 3595.1 199.414 3592.76 201.757L3554.57 239.941C3552.23 242.284 3552.23 246.083 3554.57 248.426C3556.92 250.77 3560.72 250.77 3563.06 248.426L3597 214.485L3630.94 248.426C3633.28 250.77 3637.08 250.77 3639.43 248.426C3641.77 246.083 3641.77 242.284 3639.43 239.941L3601.24 201.757ZM3603 420V206H3591V420H3603Z" fill="#767382"/>
<path d="M383.707 45.5455V111H373.16L342.318 66.4155H341.775V111H329.918V45.5455H340.529L371.338 90.1619H371.914V45.5455H383.707ZM417.848 111.959C412.927 111.959 408.676 110.936 405.096 108.891C401.538 106.824 398.8 103.905 396.883 100.134C394.965 96.3409 394.006 91.8771 394.006 86.7422C394.006 81.6925 394.965 77.2607 396.883 73.4467C398.821 69.6115 401.527 66.6285 405 64.4979C408.473 62.3459 412.554 61.2699 417.241 61.2699C420.267 61.2699 423.122 61.7599 425.807 62.7401C428.513 63.6989 430.899 65.1903 432.966 67.2145C435.054 69.2386 436.694 71.8168 437.888 74.9489C439.081 78.0597 439.677 81.767 439.677 86.071V89.6186H399.439V81.8203H428.587C428.566 79.6044 428.086 77.6335 427.149 75.9077C426.211 74.1605 424.901 72.7862 423.218 71.7848C421.556 70.7834 419.617 70.2827 417.401 70.2827C415.036 70.2827 412.959 70.858 411.169 72.0085C409.379 73.1378 407.983 74.6293 406.982 76.483C406.002 78.3153 405.501 80.3288 405.48 82.5234V89.331C405.48 92.1861 406.002 94.6364 407.046 96.6818C408.09 98.706 409.549 100.261 411.424 101.348C413.299 102.413 415.494 102.946 418.008 102.946C419.691 102.946 421.215 102.712 422.579 102.243C423.942 101.753 425.125 101.039 426.126 100.102C427.128 99.1641 427.884 98.0028 428.395 96.6179L439.198 97.8324C438.516 100.687 437.216 103.18 435.299 105.311C433.402 107.42 430.973 109.061 428.012 110.233C425.05 111.384 421.662 111.959 417.848 111.959ZM480.754 90.3537V61.9091H492.324V111H481.106V102.275H480.594C479.486 105.023 477.665 107.271 475.129 109.018C472.615 110.766 469.515 111.639 465.829 111.639C462.611 111.639 459.767 110.925 457.295 109.498C454.845 108.049 452.927 105.95 451.543 103.202C450.158 100.432 449.465 97.0866 449.465 93.1662V61.9091H461.035V91.3764C461.035 94.4872 461.887 96.9588 463.592 98.7912C465.296 100.624 467.533 101.54 470.303 101.54C472.008 101.54 473.659 101.124 475.257 100.293C476.855 99.4624 478.165 98.2266 479.188 96.5859C480.232 94.924 480.754 92.8466 480.754 90.3537ZM504.221 111V61.9091H515.439V70.0909H515.95C516.845 67.2571 518.379 65.0732 520.553 63.5391C522.747 61.9837 525.251 61.206 528.063 61.206C528.703 61.206 529.416 61.2379 530.205 61.3018C531.014 61.3445 531.685 61.419 532.218 61.5256V72.1683C531.728 71.9979 530.95 71.8487 529.885 71.7209C528.841 71.5717 527.829 71.4972 526.849 71.4972C524.739 71.4972 522.843 71.9553 521.16 72.8714C519.498 73.7663 518.188 75.0128 517.229 76.6108C516.27 78.2088 515.791 80.0518 515.791 82.1399V111H504.221ZM559.296 111.959C554.502 111.959 550.348 110.904 546.832 108.795C543.316 106.685 540.589 103.734 538.65 99.9418C536.733 96.1491 535.774 91.7173 535.774 86.6463C535.774 81.5753 536.733 77.1328 538.65 73.3189C540.589 69.505 543.316 66.5433 546.832 64.4339C550.348 62.3246 554.502 61.2699 559.296 61.2699C564.09 61.2699 568.245 62.3246 571.761 64.4339C575.277 66.5433 577.993 69.505 579.911 73.3189C581.85 77.1328 582.819 81.5753 582.819 86.6463C582.819 91.7173 581.85 96.1491 579.911 99.9418C577.993 103.734 575.277 106.685 571.761 108.795C568.245 110.904 564.09 111.959 559.296 111.959ZM559.36 102.69C561.96 102.69 564.133 101.977 565.88 100.549C567.627 99.1001 568.927 97.1612 569.779 94.7322C570.653 92.3033 571.09 89.5973 571.09 86.6143C571.09 83.6101 570.653 80.8935 569.779 78.4645C568.927 76.0142 567.627 74.0646 565.88 72.6158C564.133 71.1669 561.96 70.4425 559.36 70.4425C556.697 70.4425 554.481 71.1669 552.713 72.6158C550.965 74.0646 549.655 76.0142 548.782 78.4645C547.929 80.8935 547.503 83.6101 547.503 86.6143C547.503 89.5973 547.929 92.3033 548.782 94.7322C549.655 97.1612 550.965 99.1001 552.713 100.549C554.481 101.977 556.697 102.69 559.36 102.69ZM604.209 82.2358V111H592.639V61.9091H603.697V70.2507H604.272C605.402 67.5021 607.202 65.3182 609.674 63.6989C612.167 62.0795 615.245 61.2699 618.91 61.2699C622.298 61.2699 625.249 61.9943 627.763 63.4432C630.299 64.892 632.259 66.9908 633.644 69.7393C635.05 72.4879 635.743 75.8224 635.721 79.7429V111H624.152V81.5327C624.152 78.2514 623.299 75.6839 621.595 73.8303C619.912 71.9766 617.579 71.0497 614.596 71.0497C612.571 71.0497 610.771 71.4972 609.194 72.392C607.639 73.2656 606.414 74.5334 605.519 76.1953C604.645 77.8572 604.209 79.8707 604.209 82.2358Z" fill="white"/>
<path d="M1206.13 70.5391C1205.83 67.7479 1204.58 65.5746 1202.36 64.0192C1200.17 62.4638 1197.31 61.6861 1193.79 61.6861C1191.32 61.6861 1189.2 62.0589 1187.43 62.8047C1185.67 63.5504 1184.31 64.5625 1183.38 65.8409C1182.44 67.1193 1181.96 68.5788 1181.94 70.2195C1181.94 71.5831 1182.25 72.7656 1182.86 73.767C1183.5 74.7685 1184.37 75.6207 1185.45 76.3239C1186.54 77.0057 1187.74 77.581 1189.06 78.0497C1190.39 78.5185 1191.72 78.9126 1193.06 79.2322L1199.2 80.7663C1201.67 81.3416 1204.04 82.1193 1206.32 83.0994C1208.62 84.0795 1210.68 85.3153 1212.49 86.8068C1214.32 88.2983 1215.77 90.0987 1216.84 92.2081C1217.9 94.3175 1218.44 96.7891 1218.44 99.6229C1218.44 103.458 1217.46 106.835 1215.5 109.754C1213.54 112.652 1210.7 114.921 1206.99 116.562C1203.31 118.181 1198.84 118.991 1193.6 118.991C1188.51 118.991 1184.09 118.202 1180.34 116.626C1176.61 115.049 1173.69 112.748 1171.58 109.722C1169.49 106.697 1168.36 103.011 1168.19 98.6641H1179.86C1180.03 100.944 1180.73 102.84 1181.97 104.353C1183.21 105.866 1184.81 106.995 1186.8 107.741C1188.8 108.487 1191.04 108.859 1193.51 108.859C1196.09 108.859 1198.34 108.476 1200.28 107.709C1202.24 106.92 1203.78 105.834 1204.88 104.449C1205.99 103.043 1206.56 101.402 1206.58 99.527C1206.56 97.8224 1206.06 96.4162 1205.08 95.3082C1204.1 94.179 1202.72 93.2415 1200.95 92.4957C1199.21 91.7287 1197.16 91.0469 1194.82 90.4503L1187.37 88.5327C1181.98 87.1477 1177.72 85.049 1174.59 82.2365C1171.48 79.4027 1169.92 75.642 1169.92 70.9545C1169.92 67.098 1170.96 63.7209 1173.05 60.8232C1175.16 57.9254 1178.03 55.6776 1181.65 54.0795C1185.27 52.4602 1189.37 51.6506 1193.95 51.6506C1198.6 51.6506 1202.67 52.4602 1206.16 54.0795C1209.68 55.6776 1212.44 57.9041 1214.44 60.7592C1216.44 63.593 1217.48 66.853 1217.54 70.5391H1206.13ZM1250.23 118.959C1245.31 118.959 1241.06 117.936 1237.48 115.891C1233.92 113.824 1231.18 110.905 1229.26 107.134C1227.34 103.341 1226.39 98.8771 1226.39 93.7422C1226.39 88.6925 1227.34 84.2607 1229.26 80.4467C1231.2 76.6115 1233.91 73.6285 1237.38 71.4979C1240.85 69.3459 1244.93 68.2699 1249.62 68.2699C1252.65 68.2699 1255.5 68.7599 1258.19 69.7401C1260.89 70.6989 1263.28 72.1903 1265.35 74.2145C1267.43 76.2386 1269.07 78.8168 1270.27 81.9489C1271.46 85.0597 1272.06 88.767 1272.06 93.071V96.6186H1231.82V88.8203H1260.97C1260.95 86.6044 1260.47 84.6335 1259.53 82.9077C1258.59 81.1605 1257.28 79.7862 1255.6 78.7848C1253.94 77.7834 1252 77.2827 1249.78 77.2827C1247.42 77.2827 1245.34 77.858 1243.55 79.0085C1241.76 80.1378 1240.36 81.6293 1239.36 83.483C1238.38 85.3153 1237.88 87.3288 1237.86 89.5234V96.331C1237.86 99.1861 1238.38 101.636 1239.43 103.682C1240.47 105.706 1241.93 107.261 1243.8 108.348C1245.68 109.413 1247.87 109.946 1250.39 109.946C1252.07 109.946 1253.59 109.712 1254.96 109.243C1256.32 108.753 1257.5 108.039 1258.51 107.102C1259.51 106.164 1260.26 105.003 1260.78 103.618L1271.58 104.832C1270.9 107.687 1269.6 110.18 1267.68 112.311C1265.78 114.42 1263.35 116.061 1260.39 117.233C1257.43 118.384 1254.04 118.959 1250.23 118.959ZM1293.41 52.5455V118H1281.84V52.5455H1293.41ZM1327.04 118.959C1322.12 118.959 1317.87 117.936 1314.29 115.891C1310.73 113.824 1308 110.905 1306.08 107.134C1304.16 103.341 1303.2 98.8771 1303.2 93.7422C1303.2 88.6925 1304.16 84.2607 1306.08 80.4467C1308.02 76.6115 1310.72 73.6285 1314.2 71.4979C1317.67 69.3459 1321.75 68.2699 1326.44 68.2699C1329.46 68.2699 1332.32 68.7599 1335 69.7401C1337.71 70.6989 1340.1 72.1903 1342.16 74.2145C1344.25 76.2386 1345.89 78.8168 1347.08 81.9489C1348.28 85.0597 1348.87 88.767 1348.87 93.071V96.6186H1308.64V88.8203H1337.78C1337.76 86.6044 1337.28 84.6335 1336.35 82.9077C1335.41 81.1605 1334.1 79.7862 1332.41 78.7848C1330.75 77.7834 1328.81 77.2827 1326.6 77.2827C1324.23 77.2827 1322.15 77.858 1320.37 79.0085C1318.58 80.1378 1317.18 81.6293 1316.18 83.483C1315.2 85.3153 1314.7 87.3288 1314.68 89.5234V96.331C1314.68 99.1861 1315.2 101.636 1316.24 103.682C1317.29 105.706 1318.75 107.261 1320.62 108.348C1322.5 109.413 1324.69 109.946 1327.2 109.946C1328.89 109.946 1330.41 109.712 1331.77 109.243C1333.14 108.753 1334.32 108.039 1335.32 107.102C1336.32 106.164 1337.08 105.003 1337.59 103.618L1348.39 104.832C1347.71 107.687 1346.41 110.18 1344.5 112.311C1342.6 114.42 1340.17 116.061 1337.21 117.233C1334.25 118.384 1330.86 118.959 1327.04 118.959ZM1380.07 118.959C1375.17 118.959 1370.97 117.883 1367.45 115.731C1363.96 113.579 1361.26 110.607 1359.36 106.814C1357.49 103 1356.55 98.6108 1356.55 93.6463C1356.55 88.6605 1357.51 84.2607 1359.43 80.4467C1361.35 76.6115 1364.05 73.6285 1367.55 71.4979C1371.06 69.3459 1375.22 68.2699 1380.01 68.2699C1384 68.2699 1387.52 69.005 1390.59 70.4751C1393.68 71.924 1396.14 73.9801 1397.97 76.6435C1399.8 79.2855 1400.85 82.375 1401.1 85.9119H1390.05C1389.6 83.5469 1388.53 81.576 1386.85 79.9993C1385.19 78.4013 1382.96 77.6023 1380.17 77.6023C1377.81 77.6023 1375.73 78.2415 1373.94 79.5199C1372.15 80.777 1370.75 82.5881 1369.75 84.9531C1368.77 87.3182 1368.28 90.152 1368.28 93.4545C1368.28 96.7997 1368.77 99.6761 1369.75 102.084C1370.73 104.47 1372.11 106.313 1373.87 107.613C1375.66 108.891 1377.76 109.531 1380.17 109.531C1381.88 109.531 1383.4 109.211 1384.74 108.572C1386.1 107.911 1387.24 106.963 1388.16 105.727C1389.08 104.491 1389.71 102.989 1390.05 101.221H1401.1C1400.83 104.694 1399.8 107.773 1398.04 110.457C1396.27 113.121 1393.86 115.209 1390.81 116.722C1387.77 118.213 1384.19 118.959 1380.07 118.959ZM1435.12 68.9091V77.858H1406.9V68.9091H1435.12ZM1413.86 57.1477H1425.43V103.234C1425.43 104.79 1425.67 105.983 1426.14 106.814C1426.63 107.624 1427.27 108.178 1428.06 108.476C1428.84 108.774 1429.72 108.923 1430.68 108.923C1431.4 108.923 1432.06 108.87 1432.66 108.763C1433.28 108.657 1433.74 108.561 1434.06 108.476L1436.01 117.521C1435.4 117.734 1434.51 117.968 1433.36 118.224C1432.23 118.479 1430.85 118.629 1429.21 118.671C1426.31 118.756 1423.7 118.32 1421.38 117.361C1419.05 116.381 1417.21 114.868 1415.85 112.822C1414.5 110.777 1413.84 108.22 1413.86 105.152V57.1477ZM1466 118.959C1461.08 118.959 1456.83 117.936 1453.25 115.891C1449.69 113.824 1446.95 110.905 1445.03 107.134C1443.12 103.341 1442.16 98.8771 1442.16 93.7422C1442.16 88.6925 1443.12 84.2607 1445.03 80.4467C1446.97 76.6115 1449.68 73.6285 1453.15 71.4979C1456.62 69.3459 1460.71 68.2699 1465.39 68.2699C1468.42 68.2699 1471.27 68.7599 1473.96 69.7401C1476.66 70.6989 1479.05 72.1903 1481.12 74.2145C1483.21 76.2386 1484.85 78.8168 1486.04 81.9489C1487.23 85.0597 1487.83 88.767 1487.83 93.071V96.6186H1447.59V88.8203H1476.74C1476.72 86.6044 1476.24 84.6335 1475.3 82.9077C1474.36 81.1605 1473.05 79.7862 1471.37 78.7848C1469.71 77.7834 1467.77 77.2827 1465.55 77.2827C1463.19 77.2827 1461.11 77.858 1459.32 79.0085C1457.53 80.1378 1456.13 81.6293 1455.13 83.483C1454.15 85.3153 1453.65 87.3288 1453.63 89.5234V96.331C1453.63 99.1861 1454.15 101.636 1455.2 103.682C1456.24 105.706 1457.7 107.261 1459.58 108.348C1461.45 109.413 1463.65 109.946 1466.16 109.946C1467.84 109.946 1469.37 109.712 1470.73 109.243C1472.09 108.753 1473.28 108.039 1474.28 107.102C1475.28 106.164 1476.04 105.003 1476.55 103.618L1487.35 104.832C1486.67 107.687 1485.37 110.18 1483.45 112.311C1481.55 114.42 1479.12 116.061 1476.16 117.233C1473.2 118.384 1469.81 118.959 1466 118.959ZM1515.83 118.863C1511.98 118.863 1508.53 117.872 1505.48 115.891C1502.43 113.909 1500.02 111.033 1498.26 107.261C1496.49 103.49 1495.6 98.9091 1495.6 93.5185C1495.6 88.0639 1496.5 83.4616 1498.29 79.7116C1500.1 75.9403 1502.54 73.0959 1505.61 71.1783C1508.67 69.2393 1512.09 68.2699 1515.87 68.2699C1518.74 68.2699 1521.11 68.7599 1522.96 69.7401C1524.81 70.6989 1526.28 71.8601 1527.37 73.2237C1528.46 74.566 1529.3 75.8338 1529.9 77.027H1530.38V52.5455H1541.98V118H1530.6V110.266H1529.9C1529.3 111.459 1528.44 112.727 1527.31 114.069C1526.18 115.39 1524.69 116.519 1522.83 117.457C1520.98 118.394 1518.65 118.863 1515.83 118.863ZM1519.06 109.371C1521.51 109.371 1523.6 108.71 1525.33 107.389C1527.05 106.047 1528.36 104.183 1529.26 101.796C1530.15 99.4098 1530.6 96.6293 1530.6 93.4545C1530.6 90.2798 1530.15 87.5206 1529.26 85.1768C1528.38 82.8331 1527.08 81.0114 1525.36 79.7116C1523.65 78.4119 1521.55 77.7621 1519.06 77.7621C1516.48 77.7621 1514.33 78.4332 1512.61 79.7756C1510.88 81.1179 1509.58 82.9716 1508.71 85.3366C1507.83 87.7017 1507.4 90.4077 1507.4 93.4545C1507.4 96.5227 1507.83 99.2607 1508.71 101.668C1509.6 104.055 1510.91 105.94 1512.64 107.325C1514.38 108.689 1516.53 109.371 1519.06 109.371ZM1588.2 89.2358V118H1576.63V68.9091H1587.69V77.2507H1588.26C1589.39 74.5021 1591.19 72.3182 1593.66 70.6989C1596.16 69.0795 1599.24 68.2699 1602.9 68.2699C1606.29 68.2699 1609.24 68.9943 1611.75 70.4432C1614.29 71.892 1616.25 73.9908 1617.64 76.7393C1619.04 79.4879 1619.73 82.8224 1619.71 86.7429V118H1608.14V88.5327C1608.14 85.2514 1607.29 82.6839 1605.59 80.8303C1603.9 78.9766 1601.57 78.0497 1598.59 78.0497C1596.56 78.0497 1594.76 78.4972 1593.19 79.392C1591.63 80.2656 1590.41 81.5334 1589.51 83.1953C1588.64 84.8572 1588.2 86.8707 1588.2 89.2358ZM1653.21 118.959C1648.28 118.959 1644.03 117.936 1640.45 115.891C1636.9 113.824 1634.16 110.905 1632.24 107.134C1630.32 103.341 1629.36 98.8771 1629.36 93.7422C1629.36 88.6925 1630.32 84.2607 1632.24 80.4467C1634.18 76.6115 1636.89 73.6285 1640.36 71.4979C1643.83 69.3459 1647.91 68.2699 1652.6 68.2699C1655.63 68.2699 1658.48 68.7599 1661.16 69.7401C1663.87 70.6989 1666.26 72.1903 1668.32 74.2145C1670.41 76.2386 1672.05 78.8168 1673.25 81.9489C1674.44 85.0597 1675.04 88.767 1675.04 93.071V96.6186H1634.8V88.8203H1663.95C1663.92 86.6044 1663.44 84.6335 1662.51 82.9077C1661.57 81.1605 1660.26 79.7862 1658.58 78.7848C1656.91 77.7834 1654.98 77.2827 1652.76 77.2827C1650.39 77.2827 1648.32 77.858 1646.53 79.0085C1644.74 80.1378 1643.34 81.6293 1642.34 83.483C1641.36 85.3153 1640.86 87.3288 1640.84 89.5234V96.331C1640.84 99.1861 1641.36 101.636 1642.4 103.682C1643.45 105.706 1644.91 107.261 1646.78 108.348C1648.66 109.413 1650.85 109.946 1653.37 109.946C1655.05 109.946 1656.57 109.712 1657.94 109.243C1659.3 108.753 1660.48 108.039 1661.48 107.102C1662.49 106.164 1663.24 105.003 1663.75 103.618L1674.56 104.832C1673.87 107.687 1672.57 110.18 1670.66 112.311C1668.76 114.42 1666.33 116.061 1663.37 117.233C1660.41 118.384 1657.02 118.959 1653.21 118.959ZM1716.11 97.3537V68.9091H1727.68V118H1716.46V109.275H1715.95C1714.84 112.023 1713.02 114.271 1710.49 116.018C1707.97 117.766 1704.87 118.639 1701.19 118.639C1697.97 118.639 1695.13 117.925 1692.65 116.498C1690.2 115.049 1688.29 112.95 1686.9 110.202C1685.52 107.432 1684.82 104.087 1684.82 100.166V68.9091H1696.39V98.3764C1696.39 101.487 1697.25 103.959 1698.95 105.791C1700.65 107.624 1702.89 108.54 1705.66 108.54C1707.37 108.54 1709.02 108.124 1710.62 107.293C1712.21 106.462 1713.52 105.227 1714.55 103.586C1715.59 101.924 1716.11 99.8466 1716.11 97.3537ZM1739.58 118V68.9091H1750.8V77.0909H1751.31C1752.2 74.2571 1753.74 72.0732 1755.91 70.5391C1758.11 68.9837 1760.61 68.206 1763.42 68.206C1764.06 68.206 1764.77 68.2379 1765.56 68.3018C1766.37 68.3445 1767.04 68.419 1767.58 68.5256V79.1683C1767.09 78.9979 1766.31 78.8487 1765.24 78.7209C1764.2 78.5717 1763.19 78.4972 1762.21 78.4972C1760.1 78.4972 1758.2 78.9553 1756.52 79.8714C1754.86 80.7663 1753.55 82.0128 1752.59 83.6108C1751.63 85.2088 1751.15 87.0518 1751.15 89.1399V118H1739.58ZM1794.65 118.959C1789.86 118.959 1785.71 117.904 1782.19 115.795C1778.67 113.685 1775.95 110.734 1774.01 106.942C1772.09 103.149 1771.13 98.7173 1771.13 93.6463C1771.13 88.5753 1772.09 84.1328 1774.01 80.3189C1775.95 76.505 1778.67 73.5433 1782.19 71.4339C1785.71 69.3246 1789.86 68.2699 1794.65 68.2699C1799.45 68.2699 1803.6 69.3246 1807.12 71.4339C1810.63 73.5433 1813.35 76.505 1815.27 80.3189C1817.21 84.1328 1818.18 88.5753 1818.18 93.6463C1818.18 98.7173 1817.21 103.149 1815.27 106.942C1813.35 110.734 1810.63 113.685 1807.12 115.795C1803.6 117.904 1799.45 118.959 1794.65 118.959ZM1794.72 109.69C1797.32 109.69 1799.49 108.977 1801.24 107.549C1802.99 106.1 1804.29 104.161 1805.14 101.732C1806.01 99.3033 1806.45 96.5973 1806.45 93.6143C1806.45 90.6101 1806.01 87.8935 1805.14 85.4645C1804.29 83.0142 1802.99 81.0646 1801.24 79.6158C1799.49 78.1669 1797.32 77.4425 1794.72 77.4425C1792.06 77.4425 1789.84 78.1669 1788.07 79.6158C1786.32 81.0646 1785.01 83.0142 1784.14 85.4645C1783.29 87.8935 1782.86 90.6101 1782.86 93.6143C1782.86 96.5973 1783.29 99.3033 1784.14 101.732C1785.01 104.161 1786.32 106.1 1788.07 107.549C1789.84 108.977 1792.06 109.69 1794.72 109.69ZM1839.57 89.2358V118H1828V68.9091H1839.06V77.2507H1839.63C1840.76 74.5021 1842.56 72.3182 1845.03 70.6989C1847.53 69.0795 1850.6 68.2699 1854.27 68.2699C1857.66 68.2699 1860.61 68.9943 1863.12 70.4432C1865.66 71.892 1867.62 73.9908 1869 76.7393C1870.41 79.4879 1871.1 82.8224 1871.08 86.7429V118H1859.51V88.5327C1859.51 85.2514 1858.66 82.6839 1856.95 80.8303C1855.27 78.9766 1852.94 78.0497 1849.95 78.0497C1847.93 78.0497 1846.13 78.4972 1844.55 79.392C1843 80.2656 1841.77 81.5334 1840.88 83.1953C1840 84.8572 1839.57 86.8707 1839.57 89.2358Z" fill="white"/>
<path d="M2299.68 52.5455V118H2287.82V52.5455H2299.68ZM2323.58 89.2358V118H2312.01V68.9091H2323.06V77.2507H2323.64C2324.77 74.5021 2326.57 72.3182 2329.04 70.6989C2331.53 69.0795 2334.61 68.2699 2338.28 68.2699C2341.67 68.2699 2344.62 68.9943 2347.13 70.4432C2349.67 71.892 2351.63 73.9908 2353.01 76.7393C2354.42 79.4879 2355.11 82.8224 2355.09 86.7429V118H2343.52V88.5327C2343.52 85.2514 2342.67 82.6839 2340.96 80.8303C2339.28 78.9766 2336.95 78.0497 2333.96 78.0497C2331.94 78.0497 2330.14 78.4972 2328.56 79.392C2327.01 80.2656 2325.78 81.5334 2324.89 83.1953C2324.01 84.8572 2323.58 86.8707 2323.58 89.2358ZM2366.85 136.409V68.9091H2378.23V77.027H2378.9C2379.5 75.8338 2380.34 74.566 2381.42 73.2237C2382.51 71.8601 2383.98 70.6989 2385.83 69.7401C2387.69 68.7599 2390.05 68.2699 2392.93 68.2699C2396.72 68.2699 2400.14 69.2393 2403.19 71.1783C2406.26 73.0959 2408.69 75.9403 2410.48 79.7116C2412.29 83.4616 2413.19 88.0639 2413.19 93.5185C2413.19 98.9091 2412.31 103.49 2410.54 107.261C2408.77 111.033 2406.36 113.909 2403.32 115.891C2400.27 117.872 2396.82 118.863 2392.96 118.863C2390.15 118.863 2387.82 118.394 2385.96 117.457C2384.11 116.519 2382.62 115.39 2381.49 114.069C2380.38 112.727 2379.52 111.459 2378.9 110.266H2378.42V136.409H2366.85ZM2378.2 93.4545C2378.2 96.6293 2378.64 99.4098 2379.54 101.796C2380.45 104.183 2381.76 106.047 2383.47 107.389C2385.2 108.71 2387.28 109.371 2389.73 109.371C2392.29 109.371 2394.43 108.689 2396.16 107.325C2397.88 105.94 2399.18 104.055 2400.06 101.668C2400.95 99.2607 2401.4 96.5227 2401.4 93.4545C2401.4 90.4077 2400.96 87.7017 2400.09 85.3366C2399.21 82.9716 2397.92 81.1179 2396.19 79.7756C2394.46 78.4332 2392.31 77.7621 2389.73 77.7621C2387.26 77.7621 2385.16 78.4119 2383.44 79.7116C2381.71 81.0114 2380.4 82.8331 2379.51 85.1768C2378.63 87.5206 2378.2 90.2798 2378.2 93.4545ZM2454.39 97.3537V68.9091H2465.96V118H2454.74V109.275H2454.23C2453.12 112.023 2451.3 114.271 2448.76 116.018C2446.25 117.766 2443.15 118.639 2439.46 118.639C2436.25 118.639 2433.4 117.925 2430.93 116.498C2428.48 115.049 2426.56 112.95 2425.18 110.202C2423.79 107.432 2423.1 104.087 2423.1 100.166V68.9091H2434.67V98.3764C2434.67 101.487 2435.52 103.959 2437.23 105.791C2438.93 107.624 2441.17 108.54 2443.94 108.54C2445.64 108.54 2447.29 108.124 2448.89 107.293C2450.49 106.462 2451.8 105.227 2452.82 103.586C2453.87 101.924 2454.39 99.8466 2454.39 97.3537ZM2502.37 68.9091V77.858H2474.15V68.9091H2502.37ZM2481.12 57.1477H2492.69V103.234C2492.69 104.79 2492.92 105.983 2493.39 106.814C2493.88 107.624 2494.52 108.178 2495.31 108.476C2496.09 108.774 2496.97 108.923 2497.93 108.923C2498.65 108.923 2499.31 108.87 2499.91 108.763C2500.53 108.657 2500.99 108.561 2501.31 108.476L2503.26 117.521C2502.65 117.734 2501.76 117.968 2500.61 118.224C2499.48 118.479 2498.1 118.629 2496.46 118.671C2493.56 118.756 2490.95 118.32 2488.63 117.361C2486.3 116.381 2484.46 114.868 2483.1 112.822C2481.75 110.777 2481.09 108.22 2481.12 105.152V57.1477ZM2545.94 89.2358V118H2534.37V68.9091H2545.43V77.2507H2546C2547.13 74.5021 2548.93 72.3182 2551.4 70.6989C2553.9 69.0795 2556.98 68.2699 2560.64 68.2699C2564.03 68.2699 2566.98 68.9943 2569.49 70.4432C2572.03 71.892 2573.99 73.9908 2575.37 76.7393C2576.78 79.4879 2577.47 82.8224 2577.45 86.7429V118H2565.88V88.5327C2565.88 85.2514 2565.03 82.6839 2563.33 80.8303C2561.64 78.9766 2559.31 78.0497 2556.33 78.0497C2554.3 78.0497 2552.5 78.4972 2550.92 79.392C2549.37 80.2656 2548.14 81.5334 2547.25 83.1953C2546.38 84.8572 2545.94 86.8707 2545.94 89.2358ZM2610.95 118.959C2606.02 118.959 2601.77 117.936 2598.19 115.891C2594.64 113.824 2591.9 110.905 2589.98 107.134C2588.06 103.341 2587.1 98.8771 2587.1 93.7422C2587.1 88.6925 2588.06 84.2607 2589.98 80.4467C2591.92 76.6115 2594.63 73.6285 2598.1 71.4979C2601.57 69.3459 2605.65 68.2699 2610.34 68.2699C2613.36 68.2699 2616.22 68.7599 2618.9 69.7401C2621.61 70.6989 2624 72.1903 2626.06 74.2145C2628.15 76.2386 2629.79 78.8168 2630.99 81.9489C2632.18 85.0597 2632.77 88.767 2632.77 93.071V96.6186H2592.54V88.8203H2621.68C2621.66 86.6044 2621.18 84.6335 2620.25 82.9077C2619.31 81.1605 2618 79.7862 2616.32 78.7848C2614.65 77.7834 2612.71 77.2827 2610.5 77.2827C2608.13 77.2827 2606.06 77.858 2604.27 79.0085C2602.48 80.1378 2601.08 81.6293 2600.08 83.483C2599.1 85.3153 2598.6 87.3288 2598.58 89.5234V96.331C2598.58 99.1861 2599.1 101.636 2600.14 103.682C2601.19 105.706 2602.65 107.261 2604.52 108.348C2606.4 109.413 2608.59 109.946 2611.11 109.946C2612.79 109.946 2614.31 109.712 2615.68 109.243C2617.04 108.753 2618.22 108.039 2619.22 107.102C2620.23 106.164 2620.98 105.003 2621.49 103.618L2632.3 104.832C2631.61 107.687 2630.31 110.18 2628.4 112.311C2626.5 114.42 2624.07 116.061 2621.11 117.233C2618.15 118.384 2614.76 118.959 2610.95 118.959ZM2673.85 97.3537V68.9091H2685.42V118H2674.2V109.275H2673.69C2672.58 112.023 2670.76 114.271 2668.23 116.018C2665.71 117.766 2662.61 118.639 2658.93 118.639C2655.71 118.639 2652.86 117.925 2650.39 116.498C2647.94 115.049 2646.03 112.95 2644.64 110.202C2643.26 107.432 2642.56 104.087 2642.56 100.166V68.9091H2654.13V98.3764C2654.13 101.487 2654.98 103.959 2656.69 105.791C2658.39 107.624 2660.63 108.54 2663.4 108.54C2665.11 108.54 2666.76 108.124 2668.35 107.293C2669.95 106.462 2671.26 105.227 2672.29 103.586C2673.33 101.924 2673.85 99.8466 2673.85 97.3537ZM2697.32 118V68.9091H2708.54V77.0909H2709.05C2709.94 74.2571 2711.48 72.0732 2713.65 70.5391C2715.84 68.9837 2718.35 68.206 2721.16 68.206C2721.8 68.206 2722.51 68.2379 2723.3 68.3018C2724.11 68.3445 2724.78 68.419 2725.32 68.5256V79.1683C2724.83 78.9979 2724.05 78.8487 2722.98 78.7209C2721.94 78.5717 2720.93 78.4972 2719.95 78.4972C2717.84 78.4972 2715.94 78.9553 2714.26 79.8714C2712.6 80.7663 2711.29 82.0128 2710.33 83.6108C2709.37 85.2088 2708.89 87.0518 2708.89 89.1399V118H2697.32ZM2752.39 118.959C2747.6 118.959 2743.45 117.904 2739.93 115.795C2736.41 113.685 2733.69 110.734 2731.75 106.942C2729.83 103.149 2728.87 98.7173 2728.87 93.6463C2728.87 88.5753 2729.83 84.1328 2731.75 80.3189C2733.69 76.505 2736.41 73.5433 2739.93 71.4339C2743.45 69.3246 2747.6 68.2699 2752.39 68.2699C2757.19 68.2699 2761.34 69.3246 2764.86 71.4339C2768.37 73.5433 2771.09 76.505 2773.01 80.3189C2774.95 84.1328 2775.92 88.5753 2775.92 93.6463C2775.92 98.7173 2774.95 103.149 2773.01 106.942C2771.09 110.734 2768.37 113.685 2764.86 115.795C2761.34 117.904 2757.19 118.959 2752.39 118.959ZM2752.46 109.69C2755.06 109.69 2757.23 108.977 2758.98 107.549C2760.73 106.1 2762.02 104.161 2762.88 101.732C2763.75 99.3033 2764.19 96.5973 2764.19 93.6143C2764.19 90.6101 2763.75 87.8935 2762.88 85.4645C2762.02 83.0142 2760.73 81.0646 2758.98 79.6158C2757.23 78.1669 2755.06 77.4425 2752.46 77.4425C2749.79 77.4425 2747.58 78.1669 2745.81 79.6158C2744.06 81.0646 2742.75 83.0142 2741.88 85.4645C2741.03 87.8935 2740.6 90.6101 2740.6 93.6143C2740.6 96.5973 2741.03 99.3033 2741.88 101.732C2742.75 104.161 2744.06 106.1 2745.81 107.549C2747.58 108.977 2749.79 109.69 2752.46 109.69ZM2797.31 89.2358V118H2785.74V68.9091H2796.79V77.2507H2797.37C2798.5 74.5021 2800.3 72.3182 2802.77 70.6989C2805.26 69.0795 2808.34 68.2699 2812.01 68.2699C2815.4 68.2699 2818.35 68.9943 2820.86 70.4432C2823.4 71.892 2825.36 73.9908 2826.74 76.7393C2828.15 79.4879 2828.84 82.8224 2828.82 86.7429V118H2817.25V88.5327C2817.25 85.2514 2816.4 82.6839 2814.69 80.8303C2813.01 78.9766 2810.68 78.0497 2807.69 78.0497C2805.67 78.0497 2803.87 78.4972 2802.29 79.392C2800.74 80.2656 2799.51 81.5334 2798.62 83.1953C2797.74 84.8572 2797.31 86.8707 2797.31 89.2358Z" fill="white"/>
<path d="M3345.26 78.2727C3345.26 85.3253 3343.94 91.3658 3341.29 96.3942C3338.67 101.401 3335.09 105.237 3330.55 107.9C3326.04 110.563 3320.91 111.895 3315.18 111.895C3309.45 111.895 3304.32 110.563 3299.78 107.9C3295.26 105.215 3291.68 101.369 3289.04 96.3622C3286.42 91.3338 3285.11 85.304 3285.11 78.2727C3285.11 71.2202 3286.42 65.1903 3289.04 60.1832C3291.68 55.1548 3295.26 51.3089 3299.78 48.6456C3304.32 45.9822 3309.45 44.6506 3315.18 44.6506C3320.91 44.6506 3326.04 45.9822 3330.55 48.6456C3335.09 51.3089 3338.67 55.1548 3341.29 60.1832C3343.94 65.1903 3345.26 71.2202 3345.26 78.2727ZM3333.34 78.2727C3333.34 73.3082 3332.56 69.1214 3331 65.7124C3329.47 62.282 3327.34 59.6932 3324.61 57.946C3321.88 56.1776 3318.74 55.2933 3315.18 55.2933C3311.62 55.2933 3308.48 56.1776 3305.75 57.946C3303.03 59.6932 3300.89 62.282 3299.33 65.7124C3297.8 69.1214 3297.03 73.3082 3297.03 78.2727C3297.03 83.2372 3297.8 87.4347 3299.33 90.8651C3300.89 94.2741 3303.03 96.8629 3305.75 98.6314C3308.48 100.379 3311.62 101.252 3315.18 101.252C3318.74 101.252 3321.88 100.379 3324.61 98.6314C3327.34 96.8629 3329.47 94.2741 3331 90.8651C3332.56 87.4347 3333.34 83.2372 3333.34 78.2727ZM3387.24 90.3537V61.9091H3398.81V111H3387.6V102.275H3387.08C3385.98 105.023 3384.15 107.271 3381.62 109.018C3379.11 110.766 3376.01 111.639 3372.32 111.639C3369.1 111.639 3366.26 110.925 3363.79 109.498C3361.34 108.049 3359.42 105.95 3358.03 103.202C3356.65 100.432 3355.96 97.0866 3355.96 93.1662V61.9091H3367.52V91.3764C3367.52 94.4872 3368.38 96.9588 3370.08 98.7912C3371.79 100.624 3374.02 101.54 3376.79 101.54C3378.5 101.54 3380.15 101.124 3381.75 100.293C3383.35 99.4624 3384.66 98.2266 3385.68 96.5859C3386.72 94.924 3387.24 92.8466 3387.24 90.3537ZM3435.22 61.9091V70.858H3407V61.9091H3435.22ZM3413.97 50.1477H3425.54V96.2344C3425.54 97.7898 3425.78 98.983 3426.24 99.8139C3426.73 100.624 3427.37 101.178 3428.16 101.476C3428.95 101.774 3429.82 101.923 3430.78 101.923C3431.51 101.923 3432.17 101.87 3432.76 101.763C3433.38 101.657 3433.85 101.561 3434.17 101.476L3436.12 110.521C3435.5 110.734 3434.62 110.968 3433.47 111.224C3432.34 111.479 3430.95 111.629 3429.31 111.671C3426.41 111.756 3423.8 111.32 3421.48 110.361C3419.16 109.381 3417.32 107.868 3415.95 105.822C3414.61 103.777 3413.95 101.22 3413.97 98.152V50.1477ZM3444.9 129.409V61.9091H3456.28V70.027H3456.95C3457.55 68.8338 3458.39 67.566 3459.47 66.2237C3460.56 64.8601 3462.03 63.6989 3463.89 62.7401C3465.74 61.7599 3468.1 61.2699 3470.98 61.2699C3474.77 61.2699 3478.19 62.2393 3481.24 64.1783C3484.31 66.0959 3486.74 68.9403 3488.53 72.7116C3490.34 76.4616 3491.24 81.0639 3491.24 86.5185C3491.24 91.9091 3490.36 96.4901 3488.59 100.261C3486.82 104.033 3484.41 106.909 3481.37 108.891C3478.32 110.872 3474.87 111.863 3471.01 111.863C3468.2 111.863 3465.87 111.394 3464.01 110.457C3462.16 109.519 3460.67 108.39 3459.54 107.069C3458.43 105.727 3457.57 104.459 3456.95 103.266H3456.47V129.409H3444.9ZM3456.25 86.4545C3456.25 89.6293 3456.69 92.4098 3457.59 94.7962C3458.51 97.1825 3459.82 99.0469 3461.52 100.389C3463.25 101.71 3465.33 102.371 3467.78 102.371C3470.34 102.371 3472.48 101.689 3474.21 100.325C3475.93 98.9403 3477.23 97.0547 3478.11 94.6683C3479 92.2607 3479.45 89.5227 3479.45 86.4545C3479.45 83.4077 3479.01 80.7017 3478.14 78.3366C3477.27 75.9716 3475.97 74.1179 3474.24 72.7756C3472.51 71.4332 3470.36 70.7621 3467.78 70.7621C3465.31 70.7621 3463.21 71.4119 3461.49 72.7116C3459.76 74.0114 3458.45 75.8331 3457.56 78.1768C3456.68 80.5206 3456.25 83.2798 3456.25 86.4545ZM3532.44 90.3537V61.9091H3544.01V111H3532.79V102.275H3532.28C3531.17 105.023 3529.35 107.271 3526.81 109.018C3524.3 110.766 3521.2 111.639 3517.51 111.639C3514.3 111.639 3511.45 110.925 3508.98 109.498C3506.53 108.049 3504.61 105.95 3503.23 103.202C3501.84 100.432 3501.15 97.0866 3501.15 93.1662V61.9091H3512.72V91.3764C3512.72 94.4872 3513.57 96.9588 3515.28 98.7912C3516.98 100.624 3519.22 101.54 3521.99 101.54C3523.69 101.54 3525.34 101.124 3526.94 100.293C3528.54 99.4624 3529.85 98.2266 3530.87 96.5859C3531.92 94.924 3532.44 92.8466 3532.44 90.3537ZM3580.42 61.9091V70.858H3552.2V61.9091H3580.42ZM3559.17 50.1477H3570.74V96.2344C3570.74 97.7898 3570.97 98.983 3571.44 99.8139C3571.93 100.624 3572.57 101.178 3573.36 101.476C3574.15 101.774 3575.02 101.923 3575.98 101.923C3576.7 101.923 3577.36 101.87 3577.96 101.763C3578.58 101.657 3579.05 101.561 3579.37 101.476L3581.31 110.521C3580.7 110.734 3579.81 110.968 3578.66 111.224C3577.53 111.479 3576.15 111.629 3574.51 111.671C3571.61 111.756 3569 111.32 3566.68 110.361C3564.35 109.381 3562.51 107.868 3561.15 105.822C3559.81 103.777 3559.15 101.22 3559.17 98.152V50.1477ZM3623.99 82.2358V111H3612.42V61.9091H3623.48V70.2507H3624.05C3625.18 67.5021 3626.98 65.3182 3629.45 63.6989C3631.95 62.0795 3635.03 61.2699 3638.69 61.2699C3642.08 61.2699 3645.03 61.9943 3647.54 63.4432C3650.08 64.892 3652.04 66.9908 3653.43 69.7393C3654.83 72.4879 3655.52 75.8224 3655.5 79.7429V111H3643.93V81.5327C3643.93 78.2514 3643.08 75.6839 3641.38 73.8303C3639.69 71.9766 3637.36 71.0497 3634.38 71.0497C3632.35 71.0497 3630.55 71.4972 3628.98 72.392C3627.42 73.2656 3626.2 74.5334 3625.3 76.1953C3624.43 77.8572 3623.99 79.8707 3623.99 82.2358ZM3689 111.959C3684.08 111.959 3679.82 110.936 3676.24 108.891C3672.69 106.824 3669.95 103.905 3668.03 100.134C3666.11 96.3409 3665.15 91.8771 3665.15 86.7422C3665.15 81.6925 3666.11 77.2607 3668.03 73.4467C3669.97 69.6115 3672.68 66.6285 3676.15 64.4979C3679.62 62.3459 3683.7 61.2699 3688.39 61.2699C3691.42 61.2699 3694.27 61.7599 3696.95 62.7401C3699.66 63.6989 3702.05 65.1903 3704.11 67.2145C3706.2 69.2386 3707.84 71.8168 3709.04 74.9489C3710.23 78.0597 3710.83 81.767 3710.83 86.071V89.6186H3670.59V81.8203H3699.74C3699.71 79.6044 3699.23 77.6335 3698.3 75.9077C3697.36 74.1605 3696.05 72.7862 3694.37 71.7848C3692.7 70.7834 3690.77 70.2827 3688.55 70.2827C3686.18 70.2827 3684.11 70.858 3682.32 72.0085C3680.53 73.1378 3679.13 74.6293 3678.13 76.483C3677.15 78.3153 3676.65 80.3288 3676.63 82.5234V89.331C3676.63 92.1861 3677.15 94.6364 3678.19 96.6818C3679.24 98.706 3680.7 100.261 3682.57 101.348C3684.45 102.413 3686.64 102.946 3689.16 102.946C3690.84 102.946 3692.36 102.712 3693.73 102.243C3695.09 101.753 3696.27 101.039 3697.27 100.102C3698.28 99.1641 3699.03 98.0028 3699.54 96.6179L3710.35 97.8324C3709.66 100.687 3708.36 103.18 3706.45 105.311C3704.55 107.42 3702.12 109.061 3699.16 110.233C3696.2 111.384 3692.81 111.959 3689 111.959ZM3751.9 90.3537V61.9091H3763.47V111H3752.25V102.275H3751.74C3750.63 105.023 3748.81 107.271 3746.28 109.018C3743.76 110.766 3740.66 111.639 3736.98 111.639C3733.76 111.639 3730.92 110.925 3728.44 109.498C3725.99 108.049 3724.08 105.95 3722.69 103.202C3721.31 100.432 3720.61 97.0866 3720.61 93.1662V61.9091H3732.18V91.3764C3732.18 94.4872 3733.04 96.9588 3734.74 98.7912C3736.44 100.624 3738.68 101.54 3741.45 101.54C3743.16 101.54 3744.81 101.124 3746.41 100.293C3748 99.4624 3749.31 98.2266 3750.34 96.5859C3751.38 94.924 3751.9 92.8466 3751.9 90.3537ZM3775.37 111V61.9091H3786.59V70.0909H3787.1C3787.99 67.2571 3789.53 65.0732 3791.7 63.5391C3793.9 61.9837 3796.4 61.206 3799.21 61.206C3799.85 61.206 3800.56 61.2379 3801.35 61.3018C3802.16 61.3445 3802.83 61.419 3803.37 61.5256V72.1683C3802.88 71.9979 3802.1 71.8487 3801.03 71.7209C3799.99 71.5717 3798.98 71.4972 3798 71.4972C3795.89 71.4972 3793.99 71.9553 3792.31 72.8714C3790.65 73.7663 3789.34 75.0128 3788.38 76.6108C3787.42 78.2088 3786.94 80.0518 3786.94 82.1399V111H3775.37ZM3830.44 111.959C3825.65 111.959 3821.5 110.904 3817.98 108.795C3814.46 106.685 3811.74 103.734 3809.8 99.9418C3807.88 96.1491 3806.92 91.7173 3806.92 86.6463C3806.92 81.5753 3807.88 77.1328 3809.8 73.3189C3811.74 69.505 3814.46 66.5433 3817.98 64.4339C3821.5 62.3246 3825.65 61.2699 3830.44 61.2699C3835.24 61.2699 3839.39 62.3246 3842.91 64.4339C3846.42 66.5433 3849.14 69.505 3851.06 73.3189C3853 77.1328 3853.97 81.5753 3853.97 86.6463C3853.97 91.7173 3853 96.1491 3851.06 99.9418C3849.14 103.734 3846.42 106.685 3842.91 108.795C3839.39 110.904 3835.24 111.959 3830.44 111.959ZM3830.51 102.69C3833.11 102.69 3835.28 101.977 3837.03 100.549C3838.78 99.1001 3840.08 97.1612 3840.93 94.7322C3841.8 92.3033 3842.24 89.5973 3842.24 86.6143C3842.24 83.6101 3841.8 80.8935 3840.93 78.4645C3840.08 76.0142 3838.78 74.0646 3837.03 72.6158C3835.28 71.1669 3833.11 70.4425 3830.51 70.4425C3827.85 70.4425 3825.63 71.1669 3823.86 72.6158C3822.11 74.0646 3820.8 76.0142 3819.93 78.4645C3819.08 80.8935 3818.65 83.6101 3818.65 86.6143C3818.65 89.5973 3819.08 92.3033 3819.93 94.7322C3820.8 97.1612 3822.11 99.1001 3823.86 100.549C3825.63 101.977 3827.85 102.69 3830.51 102.69ZM3875.36 82.2358V111H3863.79V61.9091H3874.85V70.2507H3875.42C3876.55 67.5021 3878.35 65.3182 3880.82 63.6989C3883.32 62.0795 3886.39 61.2699 3890.06 61.2699C3893.45 61.2699 3896.4 61.9943 3898.91 63.4432C3901.45 64.892 3903.41 66.9908 3904.79 69.7393C3906.2 72.4879 3906.89 75.8224 3906.87 79.7429V111H3895.3V81.5327C3895.3 78.2514 3894.45 75.6839 3892.74 73.8303C3891.06 71.9766 3888.73 71.0497 3885.74 71.0497C3883.72 71.0497 3881.92 71.4972 3880.34 72.392C3878.79 73.2656 3877.56 74.5334 3876.67 76.1953C3875.79 77.8572 3875.36 79.8707 3875.36 82.2358Z" fill="white"/>
<path d="M4353.47 111V45.5455H4395.4V55.4851H4365.32V73.255H4392.52V83.1946H4365.32V111H4353.47ZM4405.69 111V61.9091H4417.26V111H4405.69ZM4411.51 54.9418C4409.67 54.9418 4408.1 54.3345 4406.78 53.12C4405.45 51.8842 4404.79 50.4034 4404.79 48.6776C4404.79 46.9304 4405.45 45.4496 4406.78 44.2351C4408.1 42.9993 4409.67 42.3814 4411.51 42.3814C4413.36 42.3814 4414.94 42.9993 4416.24 44.2351C4417.56 45.4496 4418.22 46.9304 4418.22 48.6776C4418.22 50.4034 4417.56 51.8842 4416.24 53.12C4414.94 54.3345 4413.36 54.9418 4411.51 54.9418ZM4429.16 111V61.9091H4440.37V70.0909H4440.88C4441.78 67.2571 4443.31 65.0732 4445.49 63.5391C4447.68 61.9837 4450.19 61.206 4453 61.206C4453.64 61.206 4454.35 61.2379 4455.14 61.3018C4455.95 61.3445 4456.62 61.419 4457.15 61.5256V72.1683C4456.66 71.9979 4455.88 71.8487 4454.82 71.7209C4453.78 71.5717 4452.76 71.4972 4451.78 71.4972C4449.67 71.4972 4447.78 71.9553 4446.09 72.8714C4444.43 73.7663 4443.12 75.0128 4442.16 76.6108C4441.2 78.2088 4440.73 80.0518 4440.73 82.1399V111H4429.16ZM4464.84 111V61.9091H4476.41V111H4464.84ZM4470.66 54.9418C4468.82 54.9418 4467.25 54.3345 4465.93 53.12C4464.6 51.8842 4463.94 50.4034 4463.94 48.6776C4463.94 46.9304 4464.6 45.4496 4465.93 44.2351C4467.25 42.9993 4468.82 42.3814 4470.66 42.3814C4472.51 42.3814 4474.09 42.9993 4475.39 44.2351C4476.71 45.4496 4477.37 46.9304 4477.37 48.6776C4477.37 50.4034 4476.71 51.8842 4475.39 53.12C4474.09 54.3345 4472.51 54.9418 4470.66 54.9418ZM4499.88 82.2358V111H4488.31V61.9091H4499.36V70.2507H4499.94C4501.07 67.5021 4502.87 65.3182 4505.34 63.6989C4507.83 62.0795 4510.91 61.2699 4514.58 61.2699C4517.97 61.2699 4520.92 61.9943 4523.43 63.4432C4525.97 64.892 4527.93 66.9908 4529.31 69.7393C4530.72 72.4879 4531.41 75.8224 4531.39 79.7429V111H4519.82V81.5327C4519.82 78.2514 4518.97 75.6839 4517.26 73.8303C4515.58 71.9766 4513.25 71.0497 4510.26 71.0497C4508.24 71.0497 4506.44 71.4972 4504.86 72.392C4503.31 73.2656 4502.08 74.5334 4501.19 76.1953C4500.31 77.8572 4499.88 79.8707 4499.88 82.2358ZM4564.5 130.432C4560.34 130.432 4556.78 129.867 4553.79 128.738C4550.81 127.63 4548.41 126.138 4546.6 124.263C4544.79 122.388 4543.53 120.311 4542.83 118.031L4553.25 115.506C4553.72 116.465 4554.4 117.413 4555.29 118.351C4556.19 119.31 4557.39 120.098 4558.91 120.716C4560.44 121.355 4562.37 121.675 4564.69 121.675C4567.97 121.675 4570.69 120.876 4572.84 119.278C4574.99 117.701 4576.07 115.102 4576.07 111.479V102.179H4575.49C4574.9 103.372 4574.02 104.597 4572.87 105.854C4571.74 107.112 4570.24 108.166 4568.37 109.018C4566.51 109.871 4564.18 110.297 4561.37 110.297C4557.6 110.297 4554.18 109.413 4551.11 107.644C4548.06 105.854 4545.63 103.191 4543.82 99.6541C4542.03 96.0959 4541.14 91.6428 4541.14 86.2947C4541.14 80.9041 4542.03 76.3551 4543.82 72.6477C4545.63 68.919 4548.07 66.0959 4551.14 64.1783C4554.21 62.2393 4557.63 61.2699 4561.4 61.2699C4564.28 61.2699 4566.64 61.7599 4568.49 62.7401C4570.37 63.6989 4571.86 64.8601 4572.97 66.2237C4574.08 67.566 4574.92 68.8338 4575.49 70.027H4576.13V61.9091H4587.54V111.799C4587.54 115.996 4586.54 119.469 4584.54 122.218C4582.54 124.967 4579.8 127.023 4576.32 128.386C4572.85 129.75 4568.91 130.432 4564.5 130.432ZM4564.59 101.22C4567.05 101.22 4569.13 100.624 4570.86 99.4304C4572.59 98.2372 4573.9 96.522 4574.79 94.2848C4575.69 92.0476 4576.13 89.3629 4576.13 86.2308C4576.13 83.1413 4575.69 80.4354 4574.79 78.1129C4573.92 75.7905 4572.62 73.9901 4570.89 72.7116C4569.19 71.4119 4567.09 70.7621 4564.59 70.7621C4562.02 70.7621 4559.86 71.4332 4558.14 72.7756C4556.41 74.1179 4555.11 75.9609 4554.24 78.3047C4553.37 80.6271 4552.93 83.2692 4552.93 86.2308C4552.93 89.2351 4553.37 91.8665 4554.24 94.125C4555.13 96.3622 4556.45 98.1094 4558.17 99.3665C4559.92 100.602 4562.06 101.22 4564.59 101.22ZM4633.29 82.2358V111H4621.72V61.9091H4632.78V70.2507H4633.36C4634.49 67.5021 4636.29 65.3182 4638.76 63.6989C4641.25 62.0795 4644.33 61.2699 4648 61.2699C4651.38 61.2699 4654.33 61.9943 4656.85 63.4432C4659.38 64.892 4661.34 66.9908 4662.73 69.7393C4664.14 72.4879 4664.83 75.8224 4664.81 79.7429V111H4653.24V81.5327C4653.24 78.2514 4652.38 75.6839 4650.68 73.8303C4649 71.9766 4646.66 71.0497 4643.68 71.0497C4641.66 71.0497 4639.86 71.4972 4638.28 72.392C4636.72 73.2656 4635.5 74.5334 4634.6 76.1953C4633.73 77.8572 4633.29 79.8707 4633.29 82.2358ZM4698.3 111.959C4693.38 111.959 4689.13 110.936 4685.55 108.891C4681.99 106.824 4679.25 103.905 4677.33 100.134C4675.42 96.3409 4674.46 91.8771 4674.46 86.7422C4674.46 81.6925 4675.42 77.2607 4677.33 73.4467C4679.27 69.6115 4681.98 66.6285 4685.45 64.4979C4688.93 62.3459 4693.01 61.2699 4697.69 61.2699C4700.72 61.2699 4703.57 61.7599 4706.26 62.7401C4708.96 63.6989 4711.35 65.1903 4713.42 67.2145C4715.51 69.2386 4717.15 71.8168 4718.34 74.9489C4719.53 78.0597 4720.13 81.767 4720.13 86.071V89.6186H4679.89V81.8203H4709.04C4709.02 79.6044 4708.54 77.6335 4707.6 75.9077C4706.66 74.1605 4705.35 72.7862 4703.67 71.7848C4702.01 70.7834 4700.07 70.2827 4697.85 70.2827C4695.49 70.2827 4693.41 70.858 4691.62 72.0085C4689.83 73.1378 4688.44 74.6293 4687.43 76.483C4686.45 78.3153 4685.95 80.3288 4685.93 82.5234V89.331C4685.93 92.1861 4686.45 94.6364 4687.5 96.6818C4688.54 98.706 4690 100.261 4691.88 101.348C4693.75 102.413 4695.95 102.946 4698.46 102.946C4700.14 102.946 4701.67 102.712 4703.03 102.243C4704.39 101.753 4705.58 101.039 4706.58 100.102C4707.58 99.1641 4708.34 98.0028 4708.85 96.6179L4719.65 97.8324C4718.97 100.687 4717.67 103.18 4715.75 105.311C4713.85 107.42 4711.43 109.061 4708.46 110.233C4705.5 111.384 4702.11 111.959 4698.3 111.959ZM4761.21 90.3537V61.9091H4772.78V111H4761.56V102.275H4761.05C4759.94 105.023 4758.12 107.271 4755.58 109.018C4753.07 110.766 4749.97 111.639 4746.28 111.639C4743.06 111.639 4740.22 110.925 4737.75 109.498C4735.3 108.049 4733.38 105.95 4731.99 103.202C4730.61 100.432 4729.92 97.0866 4729.92 93.1662V61.9091H4741.49V91.3764C4741.49 94.4872 4742.34 96.9588 4744.04 98.7912C4745.75 100.624 4747.99 101.54 4750.76 101.54C4752.46 101.54 4754.11 101.124 4755.71 100.293C4757.31 99.4624 4758.62 98.2266 4759.64 96.5859C4760.68 94.924 4761.21 92.8466 4761.21 90.3537ZM4784.67 111V61.9091H4795.89V70.0909H4796.4C4797.3 67.2571 4798.83 65.0732 4801 63.5391C4803.2 61.9837 4805.7 61.206 4808.52 61.206C4809.15 61.206 4809.87 61.2379 4810.66 61.3018C4811.47 61.3445 4812.14 61.419 4812.67 61.5256V72.1683C4812.18 71.9979 4811.4 71.8487 4810.34 71.7209C4809.29 71.5717 4808.28 71.4972 4807.3 71.4972C4805.19 71.4972 4803.3 71.9553 4801.61 72.8714C4799.95 73.7663 4798.64 75.0128 4797.68 76.6108C4796.72 78.2088 4796.24 80.0518 4796.24 82.1399V111H4784.67ZM4839.75 111.959C4834.95 111.959 4830.8 110.904 4827.28 108.795C4823.77 106.685 4821.04 103.734 4819.1 99.9418C4817.18 96.1491 4816.23 91.7173 4816.23 86.6463C4816.23 81.5753 4817.18 77.1328 4819.1 73.3189C4821.04 69.505 4823.77 66.5433 4827.28 64.4339C4830.8 62.3246 4834.95 61.2699 4839.75 61.2699C4844.54 61.2699 4848.7 62.3246 4852.21 64.4339C4855.73 66.5433 4858.45 69.505 4860.36 73.3189C4862.3 77.1328 4863.27 81.5753 4863.27 86.6463C4863.27 91.7173 4862.3 96.1491 4860.36 99.9418C4858.45 103.734 4855.73 106.685 4852.21 108.795C4848.7 110.904 4844.54 111.959 4839.75 111.959ZM4839.81 102.69C4842.41 102.69 4844.59 101.977 4846.33 100.549C4848.08 99.1001 4849.38 97.1612 4850.23 94.7322C4851.11 92.3033 4851.54 89.5973 4851.54 86.6143C4851.54 83.6101 4851.11 80.8935 4850.23 78.4645C4849.38 76.0142 4848.08 74.0646 4846.33 72.6158C4844.59 71.1669 4842.41 70.4425 4839.81 70.4425C4837.15 70.4425 4834.93 71.1669 4833.16 72.6158C4831.42 74.0646 4830.11 76.0142 4829.23 78.4645C4828.38 80.8935 4827.96 83.6101 4827.96 86.6143C4827.96 89.5973 4828.38 92.3033 4829.23 94.7322C4830.11 97.1612 4831.42 99.1001 4833.16 100.549C4834.93 101.977 4837.15 102.69 4839.81 102.69ZM4884.66 82.2358V111H4873.09V61.9091H4884.15V70.2507H4884.72C4885.85 67.5021 4887.65 65.3182 4890.13 63.6989C4892.62 62.0795 4895.7 61.2699 4899.36 61.2699C4902.75 61.2699 4905.7 61.9943 4908.22 63.4432C4910.75 64.892 4912.71 66.9908 4914.1 69.7393C4915.5 72.4879 4916.19 75.8224 4916.17 79.7429V111H4904.6V81.5327C4904.6 78.2514 4903.75 75.6839 4902.05 73.8303C4900.36 71.9766 4898.03 71.0497 4895.05 71.0497C4893.02 71.0497 4891.22 71.4972 4889.65 72.392C4888.09 73.2656 4886.87 74.5334 4885.97 76.1953C4885.1 77.8572 4884.66 79.8707 4884.66 82.2358Z" fill="white"/>
<path d="M300 329.795C295.72 329.795 292.074 328.631 289.062 326.301C286.051 323.953 283.75 320.553 282.159 316.102C280.568 311.633 279.773 306.235 279.773 299.909C279.773 293.621 280.568 288.252 282.159 283.801C283.769 279.331 286.08 275.922 289.091 273.574C292.121 271.206 295.758 270.023 300 270.023C304.242 270.023 307.869 271.206 310.881 273.574C313.911 275.922 316.222 279.331 317.812 283.801C319.422 288.252 320.227 293.621 320.227 299.909C320.227 306.235 319.432 311.633 317.841 316.102C316.25 320.553 313.949 323.953 310.938 326.301C307.926 328.631 304.28 329.795 300 329.795ZM300 323.545C304.242 323.545 307.538 321.5 309.886 317.409C312.235 313.318 313.409 307.485 313.409 299.909C313.409 294.871 312.869 290.581 311.79 287.04C310.729 283.498 309.195 280.799 307.188 278.943C305.199 277.087 302.803 276.159 300 276.159C295.795 276.159 292.509 278.233 290.142 282.381C287.775 286.509 286.591 292.352 286.591 299.909C286.591 304.947 287.121 309.227 288.182 312.75C289.242 316.273 290.767 318.953 292.756 320.79C294.763 322.627 297.178 323.545 300 323.545Z" fill="#767382"/>
<path d="M1300 329.795C1295.72 329.795 1292.07 328.631 1289.06 326.301C1286.05 323.953 1283.75 320.553 1282.16 316.102C1280.57 311.633 1279.77 306.235 1279.77 299.909C1279.77 293.621 1280.57 288.252 1282.16 283.801C1283.77 279.331 1286.08 275.922 1289.09 273.574C1292.12 271.206 1295.76 270.023 1300 270.023C1304.24 270.023 1307.87 271.206 1310.88 273.574C1313.91 275.922 1316.22 279.331 1317.81 283.801C1319.42 288.252 1320.23 293.621 1320.23 299.909C1320.23 306.235 1319.43 311.633 1317.84 316.102C1316.25 320.553 1313.95 323.953 1310.94 326.301C1307.93 328.631 1304.28 329.795 1300 329.795ZM1300 323.545C1304.24 323.545 1307.54 321.5 1309.89 317.409C1312.23 313.318 1313.41 307.485 1313.41 299.909C1313.41 294.871 1312.87 290.581 1311.79 287.04C1310.73 283.498 1309.2 280.799 1307.19 278.943C1305.2 277.087 1302.8 276.159 1300 276.159C1295.8 276.159 1292.51 278.233 1290.14 282.381C1287.77 286.509 1286.59 292.352 1286.59 299.909C1286.59 304.947 1287.12 309.227 1288.18 312.75C1289.24 316.273 1290.77 318.953 1292.76 320.79C1294.76 322.627 1297.18 323.545 1300 323.545Z" fill="#767382"/>
<path d="M2372 333.795C2367.72 333.795 2364.07 332.631 2361.06 330.301C2358.05 327.953 2355.75 324.553 2354.16 320.102C2352.57 315.633 2351.77 310.235 2351.77 303.909C2351.77 297.621 2352.57 292.252 2354.16 287.801C2355.77 283.331 2358.08 279.922 2361.09 277.574C2364.12 275.206 2367.76 274.023 2372 274.023C2376.24 274.023 2379.87 275.206 2382.88 277.574C2385.91 279.922 2388.22 283.331 2389.81 287.801C2391.42 292.252 2392.23 297.621 2392.23 303.909C2392.23 310.235 2391.43 315.633 2389.84 320.102C2388.25 324.553 2385.95 327.953 2382.94 330.301C2379.93 332.631 2376.28 333.795 2372 333.795ZM2372 327.545C2376.24 327.545 2379.54 325.5 2381.89 321.409C2384.23 317.318 2385.41 311.485 2385.41 303.909C2385.41 298.871 2384.87 294.581 2383.79 291.04C2382.73 287.498 2381.2 284.799 2379.19 282.943C2377.2 281.087 2374.8 280.159 2372 280.159C2367.8 280.159 2364.51 282.233 2362.14 286.381C2359.77 290.509 2358.59 296.352 2358.59 303.909C2358.59 308.947 2359.12 313.227 2360.18 316.75C2361.24 320.273 2362.77 322.953 2364.76 324.79C2366.76 326.627 2369.18 327.545 2372 327.545Z" fill="#767382"/>
<path d="M3425 333.795C3420.72 333.795 3417.07 332.631 3414.06 330.301C3411.05 327.953 3408.75 324.553 3407.16 320.102C3405.57 315.633 3404.77 310.235 3404.77 303.909C3404.77 297.621 3405.57 292.252 3407.16 287.801C3408.77 283.331 3411.08 279.922 3414.09 277.574C3417.12 275.206 3420.76 274.023 3425 274.023C3429.24 274.023 3432.87 275.206 3435.88 277.574C3438.91 279.922 3441.22 283.331 3442.81 287.801C3444.42 292.252 3445.23 297.621 3445.23 303.909C3445.23 310.235 3444.43 315.633 3442.84 320.102C3441.25 324.553 3438.95 327.953 3435.94 330.301C3432.93 332.631 3429.28 333.795 3425 333.795ZM3425 327.545C3429.24 327.545 3432.54 325.5 3434.89 321.409C3437.23 317.318 3438.41 311.485 3438.41 303.909C3438.41 298.871 3437.87 294.581 3436.79 291.04C3435.73 287.498 3434.2 284.799 3432.19 282.943C3430.2 281.087 3427.8 280.159 3425 280.159C3420.8 280.159 3417.51 282.233 3415.14 286.381C3412.77 290.509 3411.59 296.352 3411.59 303.909C3411.59 308.947 3412.12 313.227 3413.18 316.75C3414.24 320.273 3415.77 322.953 3417.76 324.79C3419.76 326.627 3422.18 327.545 3425 327.545Z" fill="#767382"/>
<path d="M4382.11 333L4408.14 281.523V281.068H4378.14V274.818H4415.41V281.409L4389.5 333H4382.11ZM4443.73 333.795C4439.45 333.795 4435.8 332.631 4432.79 330.301C4429.78 327.953 4427.48 324.553 4425.89 320.102C4424.29 315.633 4423.5 310.235 4423.5 303.909C4423.5 297.621 4424.29 292.252 4425.89 287.801C4427.5 283.331 4429.81 279.922 4432.82 277.574C4435.85 275.206 4439.48 274.023 4443.73 274.023C4447.97 274.023 4451.6 275.206 4454.61 277.574C4457.64 279.922 4459.95 283.331 4461.54 287.801C4463.15 292.252 4463.95 297.621 4463.95 303.909C4463.95 310.235 4463.16 315.633 4461.57 320.102C4459.98 324.553 4457.68 327.953 4454.66 330.301C4451.65 332.631 4448.01 333.795 4443.73 333.795ZM4443.73 327.545C4447.97 327.545 4451.26 325.5 4453.61 321.409C4455.96 317.318 4457.14 311.485 4457.14 303.909C4457.14 298.871 4456.6 294.581 4455.52 291.04C4454.46 287.498 4452.92 284.799 4450.91 282.943C4448.93 281.087 4446.53 280.159 4443.73 280.159C4439.52 280.159 4436.24 282.233 4433.87 286.381C4431.5 290.509 4430.32 296.352 4430.32 303.909C4430.32 308.947 4430.85 313.227 4431.91 316.75C4432.97 320.273 4434.49 322.953 4436.48 324.79C4438.49 326.627 4440.9 327.545 4443.73 327.545Z" fill="#949494"/>
<path d="M3526.48 681H3520.02L3538.71 630.091H3545.08L3563.77 681H3557.31L3542.09 638.145H3541.69L3526.48 681ZM3528.87 661.114H3554.92V666.582H3528.87V661.114ZM3576.77 630.091V681H3570.9V630.091H3576.77ZM3587.51 681V642.818H3593.38V681H3587.51ZM3590.5 636.455C3589.35 636.455 3588.37 636.065 3587.54 635.286C3586.73 634.507 3586.32 633.571 3586.32 632.477C3586.32 631.384 3586.73 630.447 3587.54 629.668C3588.37 628.889 3589.35 628.5 3590.5 628.5C3591.64 628.5 3592.62 628.889 3593.43 629.668C3594.26 630.447 3594.67 631.384 3594.67 632.477C3594.67 633.571 3594.26 634.507 3593.43 635.286C3592.62 636.065 3591.64 636.455 3590.5 636.455ZM3615.36 681.895C3612.94 681.895 3610.75 681.439 3608.77 680.528C3606.8 679.6 3605.24 678.266 3604.08 676.526C3602.92 674.769 3602.34 672.648 3602.34 670.162C3602.34 667.974 3602.77 666.201 3603.63 664.842C3604.49 663.467 3605.64 662.39 3607.08 661.611C3608.53 660.832 3610.12 660.252 3611.86 659.871C3613.61 659.473 3615.38 659.158 3617.15 658.926C3619.47 658.628 3621.35 658.404 3622.79 658.255C3624.25 658.089 3625.31 657.816 3625.98 657.435C3626.65 657.054 3626.99 656.391 3626.99 655.446V655.247C3626.99 652.795 3626.32 650.889 3624.98 649.53C3623.66 648.171 3621.64 647.491 3618.94 647.491C3616.14 647.491 3613.94 648.105 3612.35 649.331C3610.76 650.557 3609.64 651.866 3609 653.259L3603.43 651.27C3604.42 648.95 3605.75 647.143 3607.41 645.851C3609.08 644.542 3610.9 643.63 3612.88 643.116C3614.86 642.586 3616.82 642.321 3618.74 642.321C3619.97 642.321 3621.38 642.47 3622.97 642.768C3624.57 643.05 3626.12 643.638 3627.62 644.533C3629.12 645.428 3630.38 646.779 3631.37 648.585C3632.36 650.392 3632.86 652.811 3632.86 655.844V681H3626.99V675.83H3626.7C3626.3 676.658 3625.64 677.545 3624.71 678.489C3623.78 679.434 3622.54 680.238 3621 680.901C3619.46 681.563 3617.58 681.895 3615.36 681.895ZM3616.26 676.625C3618.58 676.625 3620.53 676.169 3622.12 675.258C3623.73 674.346 3624.94 673.17 3625.75 671.728C3626.58 670.286 3626.99 668.77 3626.99 667.179V661.81C3626.75 662.108 3626.2 662.381 3625.35 662.63C3624.53 662.862 3623.56 663.069 3622.47 663.251C3621.39 663.417 3620.34 663.566 3619.31 663.699C3618.3 663.815 3617.48 663.914 3616.85 663.997C3615.33 664.196 3613.9 664.519 3612.58 664.967C3611.27 665.397 3610.21 666.052 3609.4 666.93C3608.6 667.792 3608.2 668.969 3608.2 670.46C3608.2 672.499 3608.96 674.04 3610.46 675.084C3611.99 676.111 3613.92 676.625 3616.26 676.625ZM3670.61 651.369L3665.34 652.861C3665.01 651.982 3664.52 651.129 3663.88 650.3C3663.25 649.455 3662.39 648.759 3661.29 648.212C3660.2 647.665 3658.8 647.392 3657.09 647.392C3654.75 647.392 3652.81 647.931 3651.25 649.008C3649.71 650.068 3648.94 651.419 3648.94 653.06C3648.94 654.518 3649.47 655.67 3650.53 656.515C3651.59 657.36 3653.25 658.064 3655.5 658.628L3661.17 660.02C3664.58 660.848 3667.13 662.116 3668.8 663.823C3670.47 665.513 3671.31 667.693 3671.31 670.361C3671.31 672.548 3670.68 674.504 3669.42 676.227C3668.18 677.951 3666.44 679.31 3664.2 680.304C3661.96 681.298 3659.36 681.795 3656.4 681.795C3652.5 681.795 3649.28 680.95 3646.73 679.26C3644.17 677.57 3642.56 675.1 3641.88 671.852L3647.45 670.46C3647.98 672.515 3648.98 674.056 3650.45 675.084C3651.95 676.111 3653.89 676.625 3656.3 676.625C3659.03 676.625 3661.2 676.045 3662.81 674.885C3664.43 673.708 3665.24 672.3 3665.24 670.659C3665.24 669.333 3664.78 668.223 3663.85 667.328C3662.92 666.417 3661.5 665.737 3659.58 665.29L3653.21 663.798C3649.72 662.97 3647.15 661.685 3645.51 659.945C3643.88 658.189 3643.07 655.993 3643.07 653.358C3643.07 651.204 3643.68 649.298 3644.89 647.641C3646.11 645.983 3647.78 644.683 3649.88 643.738C3652 642.793 3654.41 642.321 3657.09 642.321C3660.87 642.321 3663.84 643.15 3665.99 644.807C3668.16 646.464 3669.7 648.652 3670.61 651.369Z" fill="#767382"/>
<path d="M2467.48 241H2461.02L2479.71 190.091H2486.08L2504.77 241H2498.31L2483.09 198.145H2482.69L2467.48 241ZM2469.87 221.114H2495.92V226.582H2469.87V221.114ZM2517.77 190.091V241H2511.9V190.091H2517.77ZM2528.51 241V202.818H2534.38V241H2528.51ZM2531.5 196.455C2530.35 196.455 2529.37 196.065 2528.54 195.286C2527.73 194.507 2527.32 193.571 2527.32 192.477C2527.32 191.384 2527.73 190.447 2528.54 189.668C2529.37 188.889 2530.35 188.5 2531.5 188.5C2532.64 188.5 2533.62 188.889 2534.43 189.668C2535.26 190.447 2535.67 191.384 2535.67 192.477C2535.67 193.571 2535.26 194.507 2534.43 195.286C2533.62 196.065 2532.64 196.455 2531.5 196.455ZM2556.36 241.895C2553.94 241.895 2551.75 241.439 2549.77 240.528C2547.8 239.6 2546.24 238.266 2545.08 236.526C2543.92 234.769 2543.34 232.648 2543.34 230.162C2543.34 227.974 2543.77 226.201 2544.63 224.842C2545.49 223.467 2546.64 222.39 2548.08 221.611C2549.53 220.832 2551.12 220.252 2552.86 219.871C2554.61 219.473 2556.38 219.158 2558.15 218.926C2560.47 218.628 2562.35 218.404 2563.79 218.255C2565.25 218.089 2566.31 217.816 2566.98 217.435C2567.65 217.054 2567.99 216.391 2567.99 215.446V215.247C2567.99 212.795 2567.32 210.889 2565.98 209.53C2564.66 208.171 2562.64 207.491 2559.94 207.491C2557.14 207.491 2554.94 208.105 2553.35 209.331C2551.76 210.557 2550.64 211.866 2550 213.259L2544.43 211.27C2545.42 208.95 2546.75 207.143 2548.41 205.851C2550.08 204.542 2551.9 203.63 2553.88 203.116C2555.86 202.586 2557.82 202.321 2559.74 202.321C2560.97 202.321 2562.38 202.47 2563.97 202.768C2565.57 203.05 2567.12 203.638 2568.62 204.533C2570.12 205.428 2571.38 206.779 2572.37 208.585C2573.36 210.392 2573.86 212.811 2573.86 215.844V241H2567.99V235.83H2567.7C2567.3 236.658 2566.64 237.545 2565.71 238.489C2564.78 239.434 2563.54 240.238 2562 240.901C2560.46 241.563 2558.58 241.895 2556.36 241.895ZM2557.26 236.625C2559.58 236.625 2561.53 236.169 2563.12 235.258C2564.73 234.346 2565.94 233.17 2566.75 231.728C2567.58 230.286 2567.99 228.77 2567.99 227.179V221.81C2567.75 222.108 2567.2 222.381 2566.35 222.63C2565.53 222.862 2564.56 223.069 2563.47 223.251C2562.39 223.417 2561.34 223.566 2560.31 223.699C2559.3 223.815 2558.48 223.914 2557.85 223.997C2556.33 224.196 2554.9 224.519 2553.58 224.967C2552.27 225.397 2551.21 226.052 2550.4 226.93C2549.6 227.792 2549.2 228.969 2549.2 230.46C2549.2 232.499 2549.96 234.04 2551.46 235.084C2552.99 236.111 2554.92 236.625 2557.26 236.625ZM2611.61 211.369L2606.34 212.861C2606.01 211.982 2605.52 211.129 2604.88 210.3C2604.25 209.455 2603.39 208.759 2602.29 208.212C2601.2 207.665 2599.8 207.392 2598.09 207.392C2595.75 207.392 2593.81 207.931 2592.25 209.008C2590.71 210.068 2589.94 211.419 2589.94 213.06C2589.94 214.518 2590.47 215.67 2591.53 216.515C2592.59 217.36 2594.25 218.064 2596.5 218.628L2602.17 220.02C2605.58 220.848 2608.13 222.116 2609.8 223.823C2611.47 225.513 2612.31 227.693 2612.31 230.361C2612.31 232.548 2611.68 234.504 2610.42 236.227C2609.18 237.951 2607.44 239.31 2605.2 240.304C2602.96 241.298 2600.36 241.795 2597.4 241.795C2593.5 241.795 2590.28 240.95 2587.73 239.26C2585.17 237.57 2583.56 235.1 2582.88 231.852L2588.45 230.46C2588.98 232.515 2589.98 234.056 2591.45 235.084C2592.95 236.111 2594.89 236.625 2597.3 236.625C2600.03 236.625 2602.2 236.045 2603.81 234.885C2605.43 233.708 2606.24 232.3 2606.24 230.659C2606.24 229.333 2605.78 228.223 2604.85 227.328C2603.92 226.417 2602.5 225.737 2600.58 225.29L2594.21 223.798C2590.72 222.97 2588.15 221.685 2586.51 219.945C2584.88 218.189 2584.07 215.993 2584.07 213.358C2584.07 211.204 2584.68 209.298 2585.89 207.641C2587.11 205.983 2588.78 204.683 2590.88 203.738C2593 202.793 2595.41 202.321 2598.09 202.321C2601.87 202.321 2604.84 203.15 2606.99 204.807C2609.16 206.464 2610.7 208.652 2611.61 211.369Z" fill="#767382"/>
</g>
<defs>
<filter id="filter0_d_106_2" x="4358" y="161" width="553" height="553" filterUnits="userSpaceOnUse" color-interpolation-filters="sRGB">
<feFlood flood-opacity="0" result="BackgroundImageFix"/>
<feColorMatrix in="SourceAlpha" type="matrix" values="0 0 0 0 0 0 0 0 0 0 0 0 0 0 0 0 0 0 127 0" result="hardAlpha"/>
<feMorphology radius="10" operator="dilate" in="SourceAlpha" result="effect1_dropShadow_106_2"/>
<feOffset/>
<feGaussianBlur stdDeviation="60"/>
<feComposite in2="hardAlpha" operator="out"/>
<feColorMatrix type="matrix" values="0 0 0 0 0.0627451 0 0 0 0 0.8 0 0 0 0 0.333333 0 0 0 1 0"/>
<feBlend mode="normal" in2="BackgroundImageFix" result="effect1_dropShadow_106_2"/>
<feBlend mode="normal" in="SourceGraphic" in2="effect1_dropShadow_106_2" result="shape"/>
</filter>
<clipPath id="clip0_106_2">
<rect width="5075" height="703" fill="white"/>
</clipPath>
</defs>
</svg>
