<svg width="5075" height="1329" viewBox="0 0 5075 1329" fill="none" xmlns="http://www.w3.org/2000/svg">
<g filter="url(#filter0_d_108_64)">
<path d="M470.238 70.5391C469.939 67.7479 468.682 65.5746 466.466 64.0192C464.272 62.4638 461.417 61.6861 457.901 61.6861C455.429 61.6861 453.309 62.0589 451.541 62.8047C449.772 63.5504 448.419 64.5625 447.482 65.8409C446.544 67.1193 446.065 68.5788 446.044 70.2195C446.044 71.5831 446.353 72.7656 446.971 73.767C447.61 74.7685 448.473 75.6207 449.559 76.3239C450.646 77.0057 451.85 77.581 453.171 78.0497C454.492 78.5185 455.824 78.9126 457.166 79.2322L463.302 80.7663C465.774 81.3416 468.15 82.1193 470.429 83.0994C472.731 84.0795 474.787 85.3153 476.598 86.8068C478.43 88.2983 479.879 90.0987 480.944 92.2081C482.01 94.3175 482.542 96.7891 482.542 99.6229C482.542 103.458 481.562 106.835 479.602 109.754C477.642 112.652 474.808 114.921 471.101 116.562C467.415 118.181 462.951 118.991 457.709 118.991C452.617 118.991 448.196 118.202 444.446 116.626C440.717 115.049 437.798 112.748 435.689 109.722C433.601 106.697 432.471 103.011 432.301 98.6641H443.966C444.137 100.944 444.84 102.84 446.076 104.353C447.312 105.866 448.92 106.995 450.902 107.741C452.905 108.487 455.142 108.859 457.613 108.859C460.191 108.859 462.45 108.476 464.389 107.709C466.349 106.92 467.883 105.834 468.991 104.449C470.099 103.043 470.664 101.402 470.685 99.527C470.664 97.8224 470.163 96.4162 469.183 95.3082C468.203 94.179 466.829 93.2415 465.06 92.4957C463.313 91.7287 461.267 91.0469 458.924 90.4503L451.477 88.5327C446.086 87.1477 441.825 85.049 438.693 82.2365C435.582 79.4027 434.027 75.642 434.027 70.9545C434.027 67.098 435.071 63.7209 437.159 60.8232C439.268 57.9254 442.134 55.6776 445.756 54.0795C449.378 52.4602 453.48 51.6506 458.061 51.6506C462.706 51.6506 466.775 52.4602 470.27 54.0795C473.785 55.6776 476.544 57.9041 478.547 60.7592C480.55 63.593 481.584 66.853 481.647 70.5391H470.238ZM492.602 118V68.9091H504.171V118H492.602ZM498.419 61.9418C496.586 61.9418 495.009 61.3345 493.688 60.12C492.367 58.8842 491.707 57.4034 491.707 55.6776C491.707 53.9304 492.367 52.4496 493.688 51.2351C495.009 49.9993 496.586 49.3814 498.419 49.3814C500.272 49.3814 501.849 49.9993 503.149 51.2351C504.47 52.4496 505.13 53.9304 505.13 55.6776C505.13 57.4034 504.47 58.8842 503.149 60.12C501.849 61.3345 500.272 61.9418 498.419 61.9418ZM527.638 89.2358V118H516.069V68.9091H527.127V77.2507H527.702C528.831 74.5021 530.632 72.3182 533.103 70.6989C535.596 69.0795 538.675 68.2699 542.34 68.2699C545.728 68.2699 548.679 68.9943 551.193 70.4432C553.728 71.892 555.689 73.9908 557.074 76.7393C558.48 79.4879 559.172 82.8224 559.151 86.7429V118H547.581V88.5327C547.581 85.2514 546.729 82.6839 545.025 80.8303C543.341 78.9766 541.008 78.0497 538.025 78.0497C536.001 78.0497 534.201 78.4972 532.624 79.392C531.069 80.2656 529.843 81.5334 528.949 83.1953C528.075 84.8572 527.638 86.8707 527.638 89.2358ZM592.262 137.432C588.107 137.432 584.538 136.867 581.555 135.738C578.572 134.63 576.175 133.138 574.364 131.263C572.553 129.388 571.296 127.311 570.593 125.031L581.012 122.506C581.481 123.465 582.162 124.413 583.057 125.351C583.952 126.31 585.156 127.098 586.669 127.716C588.203 128.355 590.131 128.675 592.454 128.675C595.735 128.675 598.451 127.876 600.603 126.278C602.755 124.701 603.831 122.102 603.831 118.479V109.179H603.256C602.66 110.372 601.786 111.597 600.635 112.854C599.506 114.112 598.004 115.166 596.129 116.018C594.275 116.871 591.942 117.297 589.13 117.297C585.358 117.297 581.939 116.413 578.87 114.644C575.824 112.854 573.395 110.191 571.584 106.654C569.794 103.096 568.899 98.6428 568.899 93.2947C568.899 87.9041 569.794 83.3551 571.584 79.6477C573.395 75.919 575.834 73.0959 578.902 71.1783C581.971 69.2393 585.39 68.2699 589.162 68.2699C592.038 68.2699 594.403 68.7599 596.257 69.7401C598.132 70.6989 599.623 71.8601 600.731 73.2237C601.839 74.566 602.681 75.8338 603.256 77.027H603.895V68.9091H615.305V118.799C615.305 122.996 614.304 126.469 612.301 129.218C610.298 131.967 607.56 134.023 604.087 135.386C600.614 136.75 596.672 137.432 592.262 137.432ZM592.358 108.22C594.808 108.22 596.896 107.624 598.622 106.43C600.348 105.237 601.658 103.522 602.553 101.285C603.448 99.0476 603.895 96.3629 603.895 93.2308C603.895 90.1413 603.448 87.4354 602.553 85.1129C601.679 82.7905 600.38 80.9901 598.654 79.7116C596.949 78.4119 594.851 77.7621 592.358 77.7621C589.78 77.7621 587.628 78.4332 585.902 79.7756C584.176 81.1179 582.876 82.9609 582.003 85.3047C581.129 87.6271 580.692 90.2692 580.692 93.2308C580.692 96.2351 581.129 98.8665 582.003 101.125C582.897 103.362 584.208 105.109 585.934 106.366C587.681 107.602 589.822 108.22 592.358 108.22ZM638.732 52.5455V118H627.162V52.5455H638.732ZM672.362 118.959C667.44 118.959 663.19 117.936 659.61 115.891C656.052 113.824 653.314 110.905 651.396 107.134C649.479 103.341 648.52 98.8771 648.52 93.7422C648.52 88.6925 649.479 84.2607 651.396 80.4467C653.335 76.6115 656.041 73.6285 659.514 71.4979C662.987 69.3459 667.067 68.2699 671.755 68.2699C674.78 68.2699 677.636 68.7599 680.32 69.7401C683.026 70.6989 685.413 72.1903 687.479 74.2145C689.567 76.2386 691.208 78.8168 692.401 81.9489C693.594 85.0597 694.191 88.767 694.191 93.071V96.6186H653.953V88.8203H683.101C683.079 86.6044 682.6 84.6335 681.663 82.9077C680.725 81.1605 679.415 79.7862 677.731 78.7848C676.07 77.7834 674.131 77.2827 671.915 77.2827C669.55 77.2827 667.472 77.858 665.682 79.0085C663.893 80.1378 662.497 81.6293 661.496 83.483C660.516 85.3153 660.015 87.3288 659.994 89.5234V96.331C659.994 99.1861 660.516 101.636 661.56 103.682C662.604 105.706 664.063 107.261 665.938 108.348C667.813 109.413 670.008 109.946 672.522 109.946C674.205 109.946 675.729 109.712 677.092 109.243C678.456 108.753 679.638 108.039 680.64 107.102C681.641 106.164 682.398 105.003 682.909 103.618L693.712 104.832C693.03 107.687 691.73 110.18 689.812 112.311C687.916 114.42 685.487 116.061 682.525 117.233C679.564 118.384 676.176 118.959 672.362 118.959ZM747.716 118.959C742.922 118.959 738.767 117.904 735.252 115.795C731.736 113.685 729.009 110.734 727.07 106.942C725.152 103.149 724.194 98.7173 724.194 93.6463C724.194 88.5753 725.152 84.1328 727.07 80.3189C729.009 76.505 731.736 73.5433 735.252 71.4339C738.767 69.3246 742.922 68.2699 747.716 68.2699C752.51 68.2699 756.665 69.3246 760.181 71.4339C763.696 73.5433 766.413 76.505 768.331 80.3189C770.27 84.1328 771.239 88.5753 771.239 93.6463C771.239 98.7173 770.27 103.149 768.331 106.942C766.413 110.734 763.696 113.685 760.181 115.795C756.665 117.904 752.51 118.959 747.716 118.959ZM747.78 109.69C750.38 109.69 752.553 108.977 754.3 107.549C756.047 106.1 757.347 104.161 758.199 101.732C759.073 99.3033 759.51 96.5973 759.51 93.6143C759.51 90.6101 759.073 87.8935 758.199 85.4645C757.347 83.0142 756.047 81.0646 754.3 79.6158C752.553 78.1669 750.38 77.4425 747.78 77.4425C745.117 77.4425 742.901 78.1669 741.133 79.6158C739.385 81.0646 738.075 83.0142 737.201 85.4645C736.349 87.8935 735.923 90.6101 735.923 93.6143C735.923 96.5973 736.349 99.3033 737.201 101.732C738.075 104.161 739.385 106.1 741.133 107.549C742.901 108.977 745.117 109.69 747.78 109.69ZM812.348 97.3537V68.9091H823.918V118H812.699V109.275H812.188C811.08 112.023 809.258 114.271 806.723 116.018C804.209 117.766 801.109 118.639 797.422 118.639C794.205 118.639 791.361 117.925 788.889 116.498C786.439 115.049 784.521 112.95 783.136 110.202C781.751 107.432 781.059 104.087 781.059 100.166V68.9091H792.628V98.3764C792.628 101.487 793.481 103.959 795.185 105.791C796.89 107.624 799.127 108.54 801.897 108.54C803.601 108.54 805.253 108.124 806.851 107.293C808.449 106.462 809.759 105.227 810.782 103.586C811.826 101.924 812.348 99.8466 812.348 97.3537ZM860.328 68.9091V77.858H832.107V68.9091H860.328ZM839.075 57.1477H850.644V103.234C850.644 104.79 850.879 105.983 851.347 106.814C851.837 107.624 852.477 108.178 853.265 108.476C854.053 108.774 854.927 108.923 855.886 108.923C856.61 108.923 857.271 108.87 857.867 108.763C858.485 108.657 858.954 108.561 859.274 108.476L861.223 117.521C860.605 117.734 859.721 117.968 858.57 118.224C857.441 118.479 856.056 118.629 854.416 118.671C851.518 118.756 848.908 118.32 846.585 117.361C844.263 116.381 842.42 114.868 841.056 112.822C839.714 110.777 839.053 108.22 839.075 105.152V57.1477ZM870.004 136.409V68.9091H881.382V77.027H882.053C882.65 75.8338 883.491 74.566 884.578 73.2237C885.665 71.8601 887.135 70.6989 888.989 69.7401C890.842 68.7599 893.207 68.2699 896.084 68.2699C899.876 68.2699 903.296 69.2393 906.343 71.1783C909.411 73.0959 911.84 75.9403 913.63 79.7116C915.441 83.4616 916.347 88.0639 916.347 93.5185C916.347 98.9091 915.462 103.49 913.694 107.261C911.925 111.033 909.518 113.909 906.471 115.891C903.424 117.872 899.972 118.863 896.116 118.863C893.303 118.863 890.97 118.394 889.116 117.457C887.263 116.519 885.771 115.39 884.642 114.069C883.534 112.727 882.671 111.459 882.053 110.266H881.574V136.409H870.004ZM881.35 93.4545C881.35 96.6293 881.797 99.4098 882.692 101.796C883.609 104.183 884.919 106.047 886.623 107.389C888.349 108.71 890.437 109.371 892.888 109.371C895.445 109.371 897.586 108.689 899.312 107.325C901.038 105.94 902.337 104.055 903.211 101.668C904.106 99.2607 904.553 96.5227 904.553 93.4545C904.553 90.4077 904.116 87.7017 903.243 85.3366C902.369 82.9716 901.07 81.1179 899.344 79.7756C897.618 78.4332 895.466 77.7621 892.888 77.7621C890.416 77.7621 888.317 78.4119 886.592 79.7116C884.866 81.0114 883.555 82.8331 882.66 85.1768C881.787 87.5206 881.35 90.2798 881.35 93.4545ZM957.543 97.3537V68.9091H969.113V118H957.895V109.275H957.383C956.275 112.023 954.454 114.271 951.918 116.018C949.404 117.766 946.304 118.639 942.618 118.639C939.4 118.639 936.556 117.925 934.084 116.498C931.634 115.049 929.717 112.95 928.332 110.202C926.947 107.432 926.254 104.087 926.254 100.166V68.9091H937.824V98.3764C937.824 101.487 938.676 103.959 940.381 105.791C942.085 107.624 944.322 108.54 947.092 108.54C948.797 108.54 950.448 108.124 952.046 107.293C953.644 106.462 954.954 105.227 955.977 103.586C957.021 101.924 957.543 99.8466 957.543 97.3537ZM1005.52 68.9091V77.858H977.303V68.9091H1005.52ZM984.27 57.1477H995.84V103.234C995.84 104.79 996.074 105.983 996.543 106.814C997.033 107.624 997.672 108.178 998.46 108.476C999.249 108.774 1000.12 108.923 1001.08 108.923C1001.81 108.923 1002.47 108.87 1003.06 108.763C1003.68 108.657 1004.15 108.561 1004.47 108.476L1006.42 117.521C1005.8 117.734 1004.92 117.968 1003.77 118.224C1002.64 118.479 1001.25 118.629 999.611 118.671C996.713 118.756 994.103 118.32 991.781 117.361C989.458 116.381 987.615 114.868 986.252 112.822C984.909 110.777 984.249 108.22 984.27 105.152V57.1477ZM1049.09 89.2358V118H1037.52V68.9091H1048.58V77.2507H1049.16C1050.29 74.5021 1052.09 72.3182 1054.56 70.6989C1057.05 69.0795 1060.13 68.2699 1063.8 68.2699C1067.18 68.2699 1070.13 68.9943 1072.65 70.4432C1075.18 71.892 1077.14 73.9908 1078.53 76.7393C1079.93 79.4879 1080.63 82.8224 1080.61 86.7429V118H1069.04V88.5327C1069.04 85.2514 1068.18 82.6839 1066.48 80.8303C1064.8 78.9766 1062.46 78.0497 1059.48 78.0497C1057.46 78.0497 1055.66 78.4972 1054.08 79.392C1052.52 80.2656 1051.3 81.5334 1050.4 83.1953C1049.53 84.8572 1049.09 86.8707 1049.09 89.2358ZM1114.1 118.959C1109.18 118.959 1104.93 117.936 1101.35 115.891C1097.79 113.824 1095.05 110.905 1093.13 107.134C1091.22 103.341 1090.26 98.8771 1090.26 93.7422C1090.26 88.6925 1091.22 84.2607 1093.13 80.4467C1095.07 76.6115 1097.78 73.6285 1101.25 71.4979C1104.73 69.3459 1108.81 68.2699 1113.49 68.2699C1116.52 68.2699 1119.37 68.7599 1122.06 69.7401C1124.76 70.6989 1127.15 72.1903 1129.22 74.2145C1131.31 76.2386 1132.95 78.8168 1134.14 81.9489C1135.33 85.0597 1135.93 88.767 1135.93 93.071V96.6186H1095.69V88.8203H1124.84C1124.82 86.6044 1124.34 84.6335 1123.4 82.9077C1122.46 81.1605 1121.15 79.7862 1119.47 78.7848C1117.81 77.7834 1115.87 77.2827 1113.65 77.2827C1111.29 77.2827 1109.21 77.858 1107.42 79.0085C1105.63 80.1378 1104.24 81.6293 1103.23 83.483C1102.25 85.3153 1101.75 87.3288 1101.73 89.5234V96.331C1101.73 99.1861 1102.25 101.636 1103.3 103.682C1104.34 105.706 1105.8 107.261 1107.68 108.348C1109.55 109.413 1111.75 109.946 1114.26 109.946C1115.94 109.946 1117.47 109.712 1118.83 109.243C1120.19 108.753 1121.38 108.039 1122.38 107.102C1123.38 106.164 1124.14 105.003 1124.65 103.618L1135.45 104.832C1134.77 107.687 1133.47 110.18 1131.55 112.311C1129.65 114.42 1127.23 116.061 1124.26 117.233C1121.3 118.384 1117.91 118.959 1114.1 118.959ZM1177.01 97.3537V68.9091H1188.58V118H1177.36V109.275H1176.85C1175.74 112.023 1173.92 114.271 1171.38 116.018C1168.87 117.766 1165.77 118.639 1162.08 118.639C1158.86 118.639 1156.02 117.925 1153.55 116.498C1151.1 115.049 1149.18 112.95 1147.79 110.202C1146.41 107.432 1145.72 104.087 1145.72 100.166V68.9091H1157.29V98.3764C1157.29 101.487 1158.14 103.959 1159.84 105.791C1161.55 107.624 1163.79 108.54 1166.56 108.54C1168.26 108.54 1169.91 108.124 1171.51 107.293C1173.11 106.462 1174.42 105.227 1175.44 103.586C1176.48 101.924 1177.01 99.8466 1177.01 97.3537ZM1200.47 118V68.9091H1211.69V77.0909H1212.2C1213.1 74.2571 1214.63 72.0732 1216.8 70.5391C1219 68.9837 1221.5 68.206 1224.32 68.206C1224.95 68.206 1225.67 68.2379 1226.46 68.3018C1227.27 68.3445 1227.94 68.419 1228.47 68.5256V79.1683C1227.98 78.9979 1227.2 78.8487 1226.14 78.7209C1225.09 78.5717 1224.08 78.4972 1223.1 78.4972C1220.99 78.4972 1219.1 78.9553 1217.41 79.8714C1215.75 80.7663 1214.44 82.0128 1213.48 83.6108C1212.52 85.2088 1212.04 87.0518 1212.04 89.1399V118H1200.47ZM1255.55 118.959C1250.75 118.959 1246.6 117.904 1243.08 115.795C1239.57 113.685 1236.84 110.734 1234.9 106.942C1232.98 103.149 1232.03 98.7173 1232.03 93.6463C1232.03 88.5753 1232.98 84.1328 1234.9 80.3189C1236.84 76.505 1239.57 73.5433 1243.08 71.4339C1246.6 69.3246 1250.75 68.2699 1255.55 68.2699C1260.34 68.2699 1264.5 69.3246 1268.01 71.4339C1271.53 73.5433 1274.25 76.505 1276.16 80.3189C1278.1 84.1328 1279.07 88.5753 1279.07 93.6463C1279.07 98.7173 1278.1 103.149 1276.16 106.942C1274.25 110.734 1271.53 113.685 1268.01 115.795C1264.5 117.904 1260.34 118.959 1255.55 118.959ZM1255.61 109.69C1258.21 109.69 1260.39 108.977 1262.13 107.549C1263.88 106.1 1265.18 104.161 1266.03 101.732C1266.9 99.3033 1267.34 96.5973 1267.34 93.6143C1267.34 90.6101 1266.9 87.8935 1266.03 85.4645C1265.18 83.0142 1263.88 81.0646 1262.13 79.6158C1260.39 78.1669 1258.21 77.4425 1255.61 77.4425C1252.95 77.4425 1250.73 78.1669 1248.96 79.6158C1247.22 81.0646 1245.91 83.0142 1245.03 85.4645C1244.18 87.8935 1243.76 90.6101 1243.76 93.6143C1243.76 96.5973 1244.18 99.3033 1245.03 101.732C1245.91 104.161 1247.22 106.1 1248.96 107.549C1250.73 108.977 1252.95 109.69 1255.61 109.69ZM1300.46 89.2358V118H1288.89V68.9091H1299.95V77.2507H1300.52C1301.65 74.5021 1303.45 72.3182 1305.93 70.6989C1308.42 69.0795 1311.5 68.2699 1315.16 68.2699C1318.55 68.2699 1321.5 68.9943 1324.02 70.4432C1326.55 71.892 1328.51 73.9908 1329.9 76.7393C1331.3 79.4879 1331.99 82.8224 1331.97 86.7429V118H1320.4V88.5327C1320.4 85.2514 1319.55 82.6839 1317.85 80.8303C1316.16 78.9766 1313.83 78.0497 1310.85 78.0497C1308.82 78.0497 1307.02 78.4972 1305.45 79.392C1303.89 80.2656 1302.67 81.5334 1301.77 83.1953C1300.9 84.8572 1300.46 86.8707 1300.46 89.2358Z" fill="white"/>
<path d="M1939.45 118.895C1934.85 118.895 1930.76 118.107 1927.18 116.53C1923.62 114.953 1920.81 112.759 1918.74 109.946C1916.68 107.134 1915.58 103.884 1915.45 100.198H1927.47C1927.58 101.967 1928.16 103.511 1929.23 104.832C1930.29 106.132 1931.71 107.144 1933.48 107.869C1935.25 108.593 1937.23 108.955 1939.42 108.955C1941.77 108.955 1943.84 108.55 1945.65 107.741C1947.47 106.91 1948.88 105.759 1949.91 104.289C1950.93 102.819 1951.43 101.125 1951.41 99.2074C1951.43 97.2259 1950.92 95.4787 1949.87 93.9659C1948.83 92.4531 1947.32 91.2706 1945.33 90.4183C1943.37 89.5661 1941.01 89.1399 1938.24 89.1399H1932.45V79.9993H1938.24C1940.52 79.9993 1942.51 79.6051 1944.22 78.8168C1945.94 78.0284 1947.29 76.9205 1948.28 75.4929C1949.26 74.044 1949.73 72.3714 1949.71 70.4751C1949.73 68.6214 1949.32 67.0128 1948.47 65.6491C1947.64 64.2642 1946.45 63.1882 1944.92 62.4212C1943.41 61.6541 1941.63 61.2706 1939.58 61.2706C1937.58 61.2706 1935.73 61.6328 1934.02 62.3572C1932.32 63.0817 1930.94 64.1151 1929.9 65.4574C1928.85 66.7784 1928.3 68.3551 1928.24 70.1875H1916.83C1916.91 66.5227 1917.97 63.3054 1919.99 60.5355C1922.04 57.7443 1924.76 55.571 1928.17 54.0156C1931.58 52.4389 1935.41 51.6506 1939.65 51.6506C1944.01 51.6506 1947.81 52.4709 1951.02 54.1115C1954.26 55.7308 1956.77 57.9148 1958.53 60.6634C1960.3 63.4119 1961.19 66.4482 1961.19 69.772C1961.21 73.4581 1960.12 76.5476 1957.93 79.0405C1955.75 81.5334 1952.9 83.1634 1949.36 83.9304V84.4418C1953.96 85.081 1957.49 86.7855 1959.94 89.5554C1962.41 92.304 1963.64 95.7237 1963.62 99.8146C1963.62 103.479 1962.57 106.761 1960.48 109.658C1958.42 112.535 1955.56 114.793 1951.92 116.434C1948.3 118.075 1944.14 118.895 1939.45 118.895ZM1997.04 118V68.9091H2008.61V118H1997.04ZM2002.86 61.9418C2001.02 61.9418 1999.45 61.3345 1998.12 60.12C1996.8 58.8842 1996.14 57.4034 1996.14 55.6776C1996.14 53.9304 1996.8 52.4496 1998.12 51.2351C1999.45 49.9993 2001.02 49.3814 2002.86 49.3814C2004.71 49.3814 2006.29 49.9993 2007.59 51.2351C2008.91 52.4496 2009.57 53.9304 2009.57 55.6776C2009.57 57.4034 2008.91 58.8842 2007.59 60.12C2006.29 61.3345 2004.71 61.9418 2002.86 61.9418ZM2032.07 89.2358V118H2020.51V68.9091H2031.56V77.2507H2032.14C2033.27 74.5021 2035.07 72.3182 2037.54 70.6989C2040.03 69.0795 2043.11 68.2699 2046.78 68.2699C2050.16 68.2699 2053.12 68.9943 2055.63 70.4432C2058.16 71.892 2060.13 73.9908 2061.51 76.7393C2062.92 79.4879 2063.61 82.8224 2063.59 86.7429V118H2052.02V88.5327C2052.02 85.2514 2051.17 82.6839 2049.46 80.8303C2047.78 78.9766 2045.44 78.0497 2042.46 78.0497C2040.44 78.0497 2038.64 78.4972 2037.06 79.392C2035.51 80.2656 2034.28 81.5334 2033.39 83.1953C2032.51 84.8572 2032.07 86.8707 2032.07 89.2358ZM2075.35 136.409V68.9091H2086.73V77.027H2087.4C2087.99 75.8338 2088.84 74.566 2089.92 73.2237C2091.01 71.8601 2092.48 70.6989 2094.33 69.7401C2096.19 68.7599 2098.55 68.2699 2101.43 68.2699C2105.22 68.2699 2108.64 69.2393 2111.69 71.1783C2114.76 73.0959 2117.18 75.9403 2118.97 79.7116C2120.79 83.4616 2121.69 88.0639 2121.69 93.5185C2121.69 98.9091 2120.81 103.49 2119.04 107.261C2117.27 111.033 2114.86 113.909 2111.82 115.891C2108.77 117.872 2105.32 118.863 2101.46 118.863C2098.65 118.863 2096.31 118.394 2094.46 117.457C2092.61 116.519 2091.12 115.39 2089.99 114.069C2088.88 112.727 2088.02 111.459 2087.4 110.266H2086.92V136.409H2075.35ZM2086.69 93.4545C2086.69 96.6293 2087.14 99.4098 2088.04 101.796C2088.95 104.183 2090.26 106.047 2091.97 107.389C2093.69 108.71 2095.78 109.371 2098.23 109.371C2100.79 109.371 2102.93 108.689 2104.66 107.325C2106.38 105.94 2107.68 104.055 2108.56 101.668C2109.45 99.2607 2109.9 96.5227 2109.9 93.4545C2109.9 90.4077 2109.46 87.7017 2108.59 85.3366C2107.71 82.9716 2106.41 81.1179 2104.69 79.7756C2102.96 78.4332 2100.81 77.7621 2098.23 77.7621C2095.76 77.7621 2093.66 78.4119 2091.94 79.7116C2090.21 81.0114 2088.9 82.8331 2088.01 85.1768C2087.13 87.5206 2086.69 90.2798 2086.69 93.4545ZM2162.89 97.3537V68.9091H2174.46V118H2163.24V109.275H2162.73C2161.62 112.023 2159.8 114.271 2157.26 116.018C2154.75 117.766 2151.65 118.639 2147.96 118.639C2144.75 118.639 2141.9 117.925 2139.43 116.498C2136.98 115.049 2135.06 112.95 2133.68 110.202C2132.29 107.432 2131.6 104.087 2131.6 100.166V68.9091H2143.17V98.3764C2143.17 101.487 2144.02 103.959 2145.73 105.791C2147.43 107.624 2149.67 108.54 2152.44 108.54C2154.14 108.54 2155.79 108.124 2157.39 107.293C2158.99 106.462 2160.3 105.227 2161.32 103.586C2162.37 101.924 2162.89 99.8466 2162.89 97.3537ZM2210.87 68.9091V77.858H2182.65V68.9091H2210.87ZM2189.61 57.1477H2201.18V103.234C2201.18 104.79 2201.42 105.983 2201.89 106.814C2202.38 107.624 2203.02 108.178 2203.81 108.476C2204.59 108.774 2205.47 108.923 2206.43 108.923C2207.15 108.923 2207.81 108.87 2208.41 108.763C2209.03 108.657 2209.49 108.561 2209.81 108.476L2211.76 117.521C2211.15 117.734 2210.26 117.968 2209.11 118.224C2207.98 118.479 2206.6 118.629 2204.96 118.671C2202.06 118.756 2199.45 118.32 2197.13 117.361C2194.8 116.381 2192.96 114.868 2191.6 112.822C2190.25 110.777 2189.59 108.22 2189.61 105.152V57.1477ZM2256.99 118.991C2253.88 118.991 2251.08 118.437 2248.59 117.329C2246.12 116.2 2244.16 114.538 2242.71 112.343C2241.28 110.148 2240.57 107.442 2240.57 104.225C2240.57 101.455 2241.08 99.1648 2242.1 97.3537C2243.12 95.5426 2244.52 94.0938 2246.29 93.0071C2248.06 91.9205 2250.05 91.1001 2252.26 90.5462C2254.5 89.9709 2256.81 89.5554 2259.2 89.2997C2262.08 89.0014 2264.41 88.7351 2266.2 88.5007C2267.99 88.245 2269.29 87.8615 2270.1 87.3501C2270.93 86.8175 2271.34 85.9972 2271.34 84.8892V84.6974C2271.34 82.2898 2270.63 80.4254 2269.2 79.1044C2267.78 77.7834 2265.72 77.1229 2263.04 77.1229C2260.2 77.1229 2257.95 77.7408 2256.29 78.9766C2254.65 80.2124 2253.54 81.6719 2252.97 83.3551L2242.17 81.821C2243.02 78.8381 2244.42 76.3452 2246.38 74.3423C2248.34 72.3182 2250.74 70.8054 2253.58 69.804C2256.41 68.7812 2259.54 68.2699 2262.97 68.2699C2265.34 68.2699 2267.69 68.5469 2270.03 69.1009C2272.38 69.6548 2274.52 70.571 2276.46 71.8494C2278.4 73.1065 2279.95 74.8217 2281.12 76.995C2282.32 79.1683 2282.91 81.8849 2282.91 85.1449V118H2271.79V111.256H2271.41C2270.71 112.62 2269.72 113.898 2268.44 115.092C2267.18 116.263 2265.59 117.212 2263.67 117.936C2261.78 118.639 2259.55 118.991 2256.99 118.991ZM2260 110.489C2262.32 110.489 2264.34 110.031 2266.04 109.115C2267.74 108.178 2269.05 106.942 2269.97 105.408C2270.91 103.874 2271.38 102.201 2271.38 100.39V94.6051C2271.01 94.9034 2270.4 95.1804 2269.52 95.4361C2268.67 95.6918 2267.71 95.9155 2266.65 96.1072C2265.58 96.299 2264.53 96.4695 2263.48 96.6186C2262.44 96.7678 2261.53 96.8956 2260.77 97.0021C2259.04 97.2365 2257.5 97.62 2256.13 98.1527C2254.77 98.6854 2253.69 99.4311 2252.9 100.39C2252.12 101.327 2251.72 102.542 2251.72 104.033C2251.72 106.164 2252.5 107.773 2254.05 108.859C2255.61 109.946 2257.59 110.489 2260 110.489ZM2306.12 89.2358V118H2294.55V68.9091H2305.61V77.2507H2306.18C2307.31 74.5021 2309.11 72.3182 2311.58 70.6989C2314.08 69.0795 2317.15 68.2699 2320.82 68.2699C2324.21 68.2699 2327.16 68.9943 2329.67 70.4432C2332.21 71.892 2334.17 73.9908 2335.55 76.7393C2336.96 79.4879 2337.65 82.8224 2337.63 86.7429V118H2326.06V88.5327C2326.06 85.2514 2325.21 82.6839 2323.5 80.8303C2321.82 78.9766 2319.49 78.0497 2316.5 78.0497C2314.48 78.0497 2312.68 78.4972 2311.1 79.392C2309.55 80.2656 2308.32 81.5334 2307.43 83.1953C2306.55 84.8572 2306.12 86.8707 2306.12 89.2358ZM2367.61 118.863C2363.75 118.863 2360.3 117.872 2357.25 115.891C2354.21 113.909 2351.8 111.033 2350.03 107.261C2348.26 103.49 2347.38 98.9091 2347.38 93.5185C2347.38 88.0639 2348.27 83.4616 2350.06 79.7116C2351.87 75.9403 2354.31 73.0959 2357.38 71.1783C2360.45 69.2393 2363.87 68.2699 2367.64 68.2699C2370.52 68.2699 2372.88 68.7599 2374.74 69.7401C2376.59 70.6989 2378.06 71.8601 2379.15 73.2237C2380.23 74.566 2381.08 75.8338 2381.67 77.027H2382.15V52.5455H2393.75V118H2382.37V110.266H2381.67C2381.08 111.459 2380.21 112.727 2379.08 114.069C2377.95 115.39 2376.46 116.519 2374.61 117.457C2372.75 118.394 2370.42 118.863 2367.61 118.863ZM2370.84 109.371C2373.29 109.371 2375.38 108.71 2377.1 107.389C2378.83 106.047 2380.14 104.183 2381.03 101.796C2381.93 99.4098 2382.37 96.6293 2382.37 93.4545C2382.37 90.2798 2381.93 87.5206 2381.03 85.1768C2380.16 82.8331 2378.86 81.0114 2377.13 79.7116C2375.43 78.4119 2373.33 77.7621 2370.84 77.7621C2368.26 77.7621 2366.11 78.4332 2364.38 79.7756C2362.66 81.1179 2361.36 82.9716 2360.48 85.3366C2359.61 87.7017 2359.17 90.4077 2359.17 93.4545C2359.17 96.5227 2359.61 99.2607 2360.48 101.668C2361.38 104.055 2362.69 105.94 2364.41 107.325C2366.16 108.689 2368.3 109.371 2370.84 109.371ZM2454.9 52.5455V118H2443.04V64.0831H2442.66L2427.35 73.8629V62.9964L2443.62 52.5455H2454.9ZM2515.39 118.959C2510.59 118.959 2506.44 117.904 2502.92 115.795C2499.41 113.685 2496.68 110.734 2494.74 106.942C2492.82 103.149 2491.86 98.7173 2491.86 93.6463C2491.86 88.5753 2492.82 84.1328 2494.74 80.3189C2496.68 76.505 2499.41 73.5433 2502.92 71.4339C2506.44 69.3246 2510.59 68.2699 2515.39 68.2699C2520.18 68.2699 2524.33 69.3246 2527.85 71.4339C2531.37 73.5433 2534.08 76.505 2536 80.3189C2537.94 84.1328 2538.91 88.5753 2538.91 93.6463C2538.91 98.7173 2537.94 103.149 2536 106.942C2534.08 110.734 2531.37 113.685 2527.85 115.795C2524.33 117.904 2520.18 118.959 2515.39 118.959ZM2515.45 109.69C2518.05 109.69 2520.22 108.977 2521.97 107.549C2523.72 106.1 2525.02 104.161 2525.87 101.732C2526.74 99.3033 2527.18 96.5973 2527.18 93.6143C2527.18 90.6101 2526.74 87.8935 2525.87 85.4645C2525.02 83.0142 2523.72 81.0646 2521.97 79.6158C2520.22 78.1669 2518.05 77.4425 2515.45 77.4425C2512.79 77.4425 2510.57 78.1669 2508.8 79.6158C2507.05 81.0646 2505.74 83.0142 2504.87 85.4645C2504.02 87.8935 2503.59 90.6101 2503.59 93.6143C2503.59 96.5973 2504.02 99.3033 2504.87 101.732C2505.74 104.161 2507.05 106.1 2508.8 107.549C2510.57 108.977 2512.79 109.69 2515.45 109.69ZM2580.02 97.3537V68.9091H2591.59V118H2580.37V109.275H2579.86C2578.75 112.023 2576.93 114.271 2574.39 116.018C2571.88 117.766 2568.78 118.639 2565.09 118.639C2561.87 118.639 2559.03 117.925 2556.56 116.498C2554.11 115.049 2552.19 112.95 2550.81 110.202C2549.42 107.432 2548.73 104.087 2548.73 100.166V68.9091H2560.3V98.3764C2560.3 101.487 2561.15 103.959 2562.85 105.791C2564.56 107.624 2566.8 108.54 2569.57 108.54C2571.27 108.54 2572.92 108.124 2574.52 107.293C2576.12 106.462 2577.43 105.227 2578.45 103.586C2579.49 101.924 2580.02 99.8466 2580.02 97.3537ZM2628 68.9091V77.858H2599.78V68.9091H2628ZM2606.74 57.1477H2618.31V103.234C2618.31 104.79 2618.55 105.983 2619.02 106.814C2619.51 107.624 2620.15 108.178 2620.93 108.476C2621.72 108.774 2622.6 108.923 2623.55 108.923C2624.28 108.923 2624.94 108.87 2625.54 108.763C2626.15 108.657 2626.62 108.561 2626.94 108.476L2628.89 117.521C2628.27 117.734 2627.39 117.968 2626.24 118.224C2625.11 118.479 2623.73 118.629 2622.08 118.671C2619.19 118.756 2616.58 118.32 2614.25 117.361C2611.93 116.381 2610.09 114.868 2608.73 112.822C2607.38 110.777 2606.72 108.22 2606.74 105.152V57.1477ZM2637.67 136.409V68.9091H2649.05V77.027H2649.72C2650.32 75.8338 2651.16 74.566 2652.25 73.2237C2653.33 71.8601 2654.8 70.6989 2656.66 69.7401C2658.51 68.7599 2660.88 68.2699 2663.75 68.2699C2667.55 68.2699 2670.97 69.2393 2674.01 71.1783C2677.08 73.0959 2679.51 75.9403 2681.3 79.7116C2683.11 83.4616 2684.02 88.0639 2684.02 93.5185C2684.02 98.9091 2683.13 103.49 2681.36 107.261C2679.59 111.033 2677.19 113.909 2674.14 115.891C2671.09 117.872 2667.64 118.863 2663.78 118.863C2660.97 118.863 2658.64 118.394 2656.79 117.457C2654.93 116.519 2653.44 115.39 2652.31 114.069C2651.2 112.727 2650.34 111.459 2649.72 110.266H2649.24V136.409H2637.67ZM2649.02 93.4545C2649.02 96.6293 2649.47 99.4098 2650.36 101.796C2651.28 104.183 2652.59 106.047 2654.29 107.389C2656.02 108.71 2658.11 109.371 2660.56 109.371C2663.11 109.371 2665.25 108.689 2666.98 107.325C2668.71 105.94 2670.01 104.055 2670.88 101.668C2671.77 99.2607 2672.22 96.5227 2672.22 93.4545C2672.22 90.4077 2671.79 87.7017 2670.91 85.3366C2670.04 82.9716 2668.74 81.1179 2667.01 79.7756C2665.29 78.4332 2663.13 77.7621 2660.56 77.7621C2658.09 77.7621 2655.99 78.4119 2654.26 79.7116C2652.53 81.0114 2651.22 82.8331 2650.33 85.1768C2649.46 87.5206 2649.02 90.2798 2649.02 93.4545ZM2725.21 97.3537V68.9091H2736.78V118H2725.56V109.275H2725.05C2723.94 112.023 2722.12 114.271 2719.59 116.018C2717.07 117.766 2713.97 118.639 2710.29 118.639C2707.07 118.639 2704.22 117.925 2701.75 116.498C2699.3 115.049 2697.39 112.95 2696 110.202C2694.62 107.432 2693.92 104.087 2693.92 100.166V68.9091H2705.49V98.3764C2705.49 101.487 2706.34 103.959 2708.05 105.791C2709.75 107.624 2711.99 108.54 2714.76 108.54C2716.47 108.54 2718.12 108.124 2719.72 107.293C2721.31 106.462 2722.62 105.227 2723.65 103.586C2724.69 101.924 2725.21 99.8466 2725.21 97.3537ZM2773.19 68.9091V77.858H2744.97V68.9091H2773.19ZM2751.94 57.1477H2763.51V103.234C2763.51 104.79 2763.74 105.983 2764.21 106.814C2764.7 107.624 2765.34 108.178 2766.13 108.476C2766.92 108.774 2767.79 108.923 2768.75 108.923C2769.47 108.923 2770.13 108.87 2770.73 108.763C2771.35 108.657 2771.82 108.561 2772.14 108.476L2774.09 117.521C2773.47 117.734 2772.59 117.968 2771.43 118.224C2770.31 118.479 2768.92 118.629 2767.28 118.671C2764.38 118.756 2761.77 118.32 2759.45 117.361C2757.13 116.381 2755.28 114.868 2753.92 112.822C2752.58 110.777 2751.92 108.22 2751.94 105.152V57.1477ZM2816.76 89.2358V118H2805.19V68.9091H2816.25V77.2507H2816.83C2817.96 74.5021 2819.76 72.3182 2822.23 70.6989C2824.72 69.0795 2827.8 68.2699 2831.46 68.2699C2834.85 68.2699 2837.8 68.9943 2840.32 70.4432C2842.85 71.892 2844.81 73.9908 2846.2 76.7393C2847.6 79.4879 2848.3 82.8224 2848.28 86.7429V118H2836.71V88.5327C2836.71 85.2514 2835.85 82.6839 2834.15 80.8303C2832.47 78.9766 2830.13 78.0497 2827.15 78.0497C2825.13 78.0497 2823.32 78.4972 2821.75 79.392C2820.19 80.2656 2818.97 81.5334 2818.07 83.1953C2817.2 84.8572 2816.76 86.8707 2816.76 89.2358ZM2881.77 118.959C2876.85 118.959 2872.6 117.936 2869.02 115.891C2865.46 113.824 2862.72 110.905 2860.8 107.134C2858.89 103.341 2857.93 98.8771 2857.93 93.7422C2857.93 88.6925 2858.89 84.2607 2860.8 80.4467C2862.74 76.6115 2865.45 73.6285 2868.92 71.4979C2872.39 69.3459 2876.47 68.2699 2881.16 68.2699C2884.19 68.2699 2887.04 68.7599 2889.73 69.7401C2892.43 70.6989 2894.82 72.1903 2896.89 74.2145C2898.97 76.2386 2900.62 78.8168 2901.81 81.9489C2903 85.0597 2903.6 88.767 2903.6 93.071V96.6186H2863.36V88.8203H2892.51C2892.49 86.6044 2892.01 84.6335 2891.07 82.9077C2890.13 81.1605 2888.82 79.7862 2887.14 78.7848C2885.48 77.7834 2883.54 77.2827 2881.32 77.2827C2878.96 77.2827 2876.88 77.858 2875.09 79.0085C2873.3 80.1378 2871.9 81.6293 2870.9 83.483C2869.92 85.3153 2869.42 87.3288 2869.4 89.5234V96.331C2869.4 99.1861 2869.92 101.636 2870.97 103.682C2872.01 105.706 2873.47 107.261 2875.35 108.348C2877.22 109.413 2879.41 109.946 2881.93 109.946C2883.61 109.946 2885.14 109.712 2886.5 109.243C2887.86 108.753 2889.05 108.039 2890.05 107.102C2891.05 106.164 2891.8 105.003 2892.32 103.618L2903.12 104.832C2902.44 107.687 2901.14 110.18 2899.22 112.311C2897.32 114.42 2894.89 116.061 2891.93 117.233C2888.97 118.384 2885.58 118.959 2881.77 118.959ZM2944.68 97.3537V68.9091H2956.24V118H2945.03V109.275H2944.52C2943.41 112.023 2941.59 114.271 2939.05 116.018C2936.54 117.766 2933.44 118.639 2929.75 118.639C2926.53 118.639 2923.69 117.925 2921.22 116.498C2918.77 115.049 2916.85 112.95 2915.46 110.202C2914.08 107.432 2913.39 104.087 2913.39 100.166V68.9091H2924.96V98.3764C2924.96 101.487 2925.81 103.959 2927.51 105.791C2929.22 107.624 2931.45 108.54 2934.22 108.54C2935.93 108.54 2937.58 108.124 2939.18 107.293C2940.78 106.462 2942.09 105.227 2943.11 103.586C2944.15 101.924 2944.68 99.8466 2944.68 97.3537ZM2968.14 118V68.9091H2979.36V77.0909H2979.87C2980.77 74.2571 2982.3 72.0732 2984.47 70.5391C2986.67 68.9837 2989.17 68.206 2991.98 68.206C2992.62 68.206 2993.34 68.2379 2994.13 68.3018C2994.94 68.3445 2995.61 68.419 2996.14 68.5256V79.1683C2995.65 78.9979 2994.87 78.8487 2993.81 78.7209C2992.76 78.5717 2991.75 78.4972 2990.77 78.4972C2988.66 78.4972 2986.76 78.9553 2985.08 79.8714C2983.42 80.7663 2982.11 82.0128 2981.15 83.6108C2980.19 85.2088 2979.71 87.0518 2979.71 89.1399V118H2968.14ZM3023.22 118.959C3018.42 118.959 3014.27 117.904 3010.75 115.795C3007.24 113.685 3004.51 110.734 3002.57 106.942C3000.65 103.149 2999.69 98.7173 2999.69 93.6463C2999.69 88.5753 3000.65 84.1328 3002.57 80.3189C3004.51 76.505 3007.24 73.5433 3010.75 71.4339C3014.27 69.3246 3018.42 68.2699 3023.22 68.2699C3028.01 68.2699 3032.17 69.3246 3035.68 71.4339C3039.2 73.5433 3041.91 76.505 3043.83 80.3189C3045.77 84.1328 3046.74 88.5753 3046.74 93.6463C3046.74 98.7173 3045.77 103.149 3043.83 106.942C3041.91 110.734 3039.2 113.685 3035.68 115.795C3032.17 117.904 3028.01 118.959 3023.22 118.959ZM3023.28 109.69C3025.88 109.69 3028.05 108.977 3029.8 107.549C3031.55 106.1 3032.85 104.161 3033.7 101.732C3034.57 99.3033 3035.01 96.5973 3035.01 93.6143C3035.01 90.6101 3034.57 87.8935 3033.7 85.4645C3032.85 83.0142 3031.55 81.0646 3029.8 79.6158C3028.05 78.1669 3025.88 77.4425 3023.28 77.4425C3020.62 77.4425 3018.4 78.1669 3016.63 79.6158C3014.89 81.0646 3013.58 83.0142 3012.7 85.4645C3011.85 87.8935 3011.42 90.6101 3011.42 93.6143C3011.42 96.5973 3011.85 99.3033 3012.7 101.732C3013.58 104.161 3014.89 106.1 3016.63 107.549C3018.4 108.977 3020.62 109.69 3023.28 109.69ZM3068.13 89.2358V118H3056.56V68.9091H3067.62V77.2507H3068.19C3069.32 74.5021 3071.12 72.3182 3073.59 70.6989C3076.09 69.0795 3079.17 68.2699 3082.83 68.2699C3086.22 68.2699 3089.17 68.9943 3091.68 70.4432C3094.22 71.892 3096.18 73.9908 3097.56 76.7393C3098.97 79.4879 3099.66 82.8224 3099.64 86.7429V118H3088.07V88.5327C3088.07 85.2514 3087.22 82.6839 3085.52 80.8303C3083.83 78.9766 3081.5 78.0497 3078.52 78.0497C3076.49 78.0497 3074.69 78.4972 3073.12 79.392C3071.56 80.2656 3070.33 81.5334 3069.44 83.1953C3068.57 84.8572 3068.13 86.8707 3068.13 89.2358ZM3150.2 81.8849L3139.66 83.0355C3139.36 81.9702 3138.84 80.9688 3138.09 80.0312C3137.37 79.0938 3136.39 78.3374 3135.15 77.7621C3133.91 77.1868 3132.4 76.8991 3130.61 76.8991C3128.2 76.8991 3126.18 77.4212 3124.54 78.4652C3122.92 79.5092 3122.12 80.8622 3122.14 82.5241C3122.12 83.9517 3122.64 85.1129 3123.71 86.0078C3124.79 86.9027 3126.58 87.6378 3129.08 88.2131L3137.45 90.0028C3142.1 91.0043 3145.55 92.5916 3147.81 94.7649C3150.09 96.9382 3151.24 99.7827 3151.26 103.298C3151.24 106.388 3150.33 109.115 3148.54 111.48C3146.77 113.824 3144.31 115.656 3141.16 116.977C3138.01 118.298 3134.38 118.959 3130.29 118.959C3124.28 118.959 3119.45 117.702 3115.78 115.188C3112.12 112.652 3109.93 109.126 3109.23 104.609L3120.51 103.522C3121.02 105.738 3122.11 107.411 3123.77 108.54C3125.43 109.669 3127.6 110.234 3130.26 110.234C3133.01 110.234 3135.21 109.669 3136.88 108.54C3138.56 107.411 3139.4 106.015 3139.4 104.353C3139.4 102.947 3138.86 101.786 3137.77 100.869C3136.71 99.9531 3135.04 99.25 3132.78 98.7599L3124.41 97.0021C3119.7 96.022 3116.22 94.3707 3113.96 92.0483C3111.7 89.7045 3110.58 86.7429 3110.6 83.1634C3110.58 80.1378 3111.4 77.517 3113.07 75.3011C3114.75 73.0639 3117.08 71.3381 3120.06 70.1236C3123.07 68.8878 3126.53 68.2699 3130.45 68.2699C3136.2 68.2699 3140.73 69.495 3144.03 71.9453C3147.36 74.3956 3149.41 77.7088 3150.2 81.8849Z" fill="white"/>
<path d="M3676.83 105.855V96.4268L3704.6 52.5455H3712.47V65.9688H3707.67L3688.98 95.5959V96.1072H3727.74V105.855H3676.83ZM3708.06 118V102.979L3708.18 98.7599V52.5455H3719.37V118H3708.06ZM3760.41 118V68.9091H3771.98V118H3760.41ZM3766.22 61.9418C3764.39 61.9418 3762.82 61.3345 3761.49 60.12C3760.17 58.8842 3759.51 57.4034 3759.51 55.6776C3759.51 53.9304 3760.17 52.4496 3761.49 51.2351C3762.82 49.9993 3764.39 49.3814 3766.22 49.3814C3768.08 49.3814 3769.65 49.9993 3770.95 51.2351C3772.28 52.4496 3772.94 53.9304 3772.94 55.6776C3772.94 57.4034 3772.28 58.8842 3770.95 60.12C3769.65 61.3345 3768.08 61.9418 3766.22 61.9418ZM3795.44 89.2358V118H3783.87V68.9091H3794.93V77.2507H3795.51C3796.64 74.5021 3798.44 72.3182 3800.91 70.6989C3803.4 69.0795 3806.48 68.2699 3810.15 68.2699C3813.53 68.2699 3816.48 68.9943 3819 70.4432C3821.53 71.892 3823.49 73.9908 3824.88 76.7393C3826.29 79.4879 3826.98 82.8224 3826.96 86.7429V118H3815.39V88.5327C3815.39 85.2514 3814.53 82.6839 3812.83 80.8303C3811.15 78.9766 3808.81 78.0497 3805.83 78.0497C3803.81 78.0497 3802.01 78.4972 3800.43 79.392C3798.87 80.2656 3797.65 81.5334 3796.75 83.1953C3795.88 84.8572 3795.44 86.8707 3795.44 89.2358ZM3838.72 136.409V68.9091H3850.1V77.027H3850.77C3851.36 75.8338 3852.21 74.566 3853.29 73.2237C3854.38 71.8601 3855.85 70.6989 3857.7 69.7401C3859.56 68.7599 3861.92 68.2699 3864.8 68.2699C3868.59 68.2699 3872.01 69.2393 3875.06 71.1783C3878.13 73.0959 3880.55 75.9403 3882.34 79.7116C3884.15 83.4616 3885.06 88.0639 3885.06 93.5185C3885.06 98.9091 3884.18 103.49 3882.41 107.261C3880.64 111.033 3878.23 113.909 3875.18 115.891C3872.14 117.872 3868.69 118.863 3864.83 118.863C3862.02 118.863 3859.68 118.394 3857.83 117.457C3855.98 116.519 3854.49 115.39 3853.36 114.069C3852.25 112.727 3851.38 111.459 3850.77 110.266H3850.29V136.409H3838.72ZM3850.06 93.4545C3850.06 96.6293 3850.51 99.4098 3851.41 101.796C3852.32 104.183 3853.63 106.047 3855.34 107.389C3857.06 108.71 3859.15 109.371 3861.6 109.371C3864.16 109.371 3866.3 108.689 3868.03 107.325C3869.75 105.94 3871.05 104.055 3871.92 101.668C3872.82 99.2607 3873.27 96.5227 3873.27 93.4545C3873.27 90.4077 3872.83 87.7017 3871.96 85.3366C3871.08 82.9716 3869.78 81.1179 3868.06 79.7756C3866.33 78.4332 3864.18 77.7621 3861.6 77.7621C3859.13 77.7621 3857.03 78.4119 3855.31 79.7116C3853.58 81.0114 3852.27 82.8331 3851.37 85.1768C3850.5 87.5206 3850.06 90.2798 3850.06 93.4545ZM3926.26 97.3537V68.9091H3937.83V118H3926.61V109.275H3926.1C3924.99 112.023 3923.17 114.271 3920.63 116.018C3918.12 117.766 3915.02 118.639 3911.33 118.639C3908.11 118.639 3905.27 117.925 3902.8 116.498C3900.35 115.049 3898.43 112.95 3897.05 110.202C3895.66 107.432 3894.97 104.087 3894.97 100.166V68.9091H3906.54V98.3764C3906.54 101.487 3907.39 103.959 3909.09 105.791C3910.8 107.624 3913.04 108.54 3915.81 108.54C3917.51 108.54 3919.16 108.124 3920.76 107.293C3922.36 106.462 3923.67 105.227 3924.69 103.586C3925.74 101.924 3926.26 99.8466 3926.26 97.3537ZM3974.24 68.9091V77.858H3946.02V68.9091H3974.24ZM3952.98 57.1477H3964.55V103.234C3964.55 104.79 3964.79 105.983 3965.26 106.814C3965.75 107.624 3966.39 108.178 3967.17 108.476C3967.96 108.774 3968.84 108.923 3969.79 108.923C3970.52 108.923 3971.18 108.87 3971.78 108.763C3972.39 108.657 3972.86 108.561 3973.18 108.476L3975.13 117.521C3974.51 117.734 3973.63 117.968 3972.48 118.224C3971.35 118.479 3969.97 118.629 3968.32 118.671C3965.43 118.756 3962.82 118.32 3960.49 117.361C3958.17 116.381 3956.33 114.868 3954.97 112.822C3953.62 110.777 3952.96 108.22 3952.98 105.152V57.1477ZM4030.08 118.895C4026.95 118.874 4023.89 118.33 4020.91 117.265C4017.92 116.178 4015.24 114.42 4012.85 111.991C4010.47 109.541 4008.57 106.292 4007.16 102.244C4005.76 98.174 4005.07 93.1349 4005.09 87.1264C4005.09 81.5227 4005.68 76.5263 4006.88 72.1371C4008.07 67.7479 4009.79 64.0405 4012.02 61.0149C4014.26 57.968 4016.95 55.6456 4020.11 54.0476C4023.28 52.4496 4026.83 51.6506 4030.75 51.6506C4034.86 51.6506 4038.51 52.4602 4041.68 54.0795C4044.88 55.6989 4047.46 57.9148 4049.42 60.7273C4051.38 63.5185 4052.59 66.6719 4053.06 70.1875H4041.39C4040.8 67.6733 4039.57 65.6705 4037.72 64.179C4035.89 62.6662 4033.56 61.9098 4030.75 61.9098C4026.21 61.9098 4022.72 63.8807 4020.27 67.8224C4017.84 71.7642 4016.61 77.1761 4016.59 84.0582H4017.04C4018.08 82.1832 4019.44 80.5746 4021.1 79.2322C4022.76 77.8899 4024.64 76.8565 4026.72 76.1321C4028.83 75.3864 4031.06 75.0135 4033.4 75.0135C4037.24 75.0135 4040.68 75.9297 4043.73 77.7621C4046.8 79.5945 4049.22 82.1193 4051.01 85.3366C4052.8 88.5327 4053.69 92.1974 4053.67 96.331C4053.69 100.635 4052.71 104.502 4050.73 107.933C4048.74 111.342 4045.99 114.026 4042.45 115.987C4038.91 117.947 4034.79 118.916 4030.08 118.895ZM4030.02 109.307C4032.34 109.307 4034.42 108.742 4036.25 107.613C4038.08 106.484 4039.53 104.96 4040.59 103.043C4041.66 101.125 4042.18 98.973 4042.16 96.5866C4042.18 94.2429 4041.67 92.1229 4040.63 90.2266C4039.6 88.3303 4038.19 86.8281 4036.38 85.7202C4034.56 84.6122 4032.5 84.0582 4030.18 84.0582C4028.45 84.0582 4026.84 84.3885 4025.35 85.049C4023.86 85.7095 4022.56 86.6257 4021.45 87.7976C4020.34 88.9482 4019.47 90.2905 4018.83 91.8246C4018.21 93.3374 4017.89 94.9567 4017.87 96.6825C4017.89 98.9624 4018.43 101.061 4019.47 102.979C4020.51 104.896 4021.95 106.43 4023.78 107.581C4025.62 108.732 4027.69 109.307 4030.02 109.307ZM4108.33 118.959C4103.54 118.959 4099.39 117.904 4095.87 115.795C4092.35 113.685 4089.63 110.734 4087.69 106.942C4085.77 103.149 4084.81 98.7173 4084.81 93.6463C4084.81 88.5753 4085.77 84.1328 4087.69 80.3189C4089.63 76.505 4092.35 73.5433 4095.87 71.4339C4099.39 69.3246 4103.54 68.2699 4108.33 68.2699C4113.13 68.2699 4117.28 69.3246 4120.8 71.4339C4124.31 73.5433 4127.03 76.505 4128.95 80.3189C4130.89 84.1328 4131.86 88.5753 4131.86 93.6463C4131.86 98.7173 4130.89 103.149 4128.95 106.942C4127.03 110.734 4124.31 113.685 4120.8 115.795C4117.28 117.904 4113.13 118.959 4108.33 118.959ZM4108.4 109.69C4111 109.69 4113.17 108.977 4114.92 107.549C4116.67 106.1 4117.97 104.161 4118.82 101.732C4119.69 99.3033 4120.13 96.5973 4120.13 93.6143C4120.13 90.6101 4119.69 87.8935 4118.82 85.4645C4117.97 83.0142 4116.67 81.0646 4114.92 79.6158C4113.17 78.1669 4111 77.4425 4108.4 77.4425C4105.74 77.4425 4103.52 78.1669 4101.75 79.6158C4100 81.0646 4098.69 83.0142 4097.82 85.4645C4096.97 87.8935 4096.54 90.6101 4096.54 93.6143C4096.54 96.5973 4096.97 99.3033 4097.82 101.732C4098.69 104.161 4100 106.1 4101.75 107.549C4103.52 108.977 4105.74 109.69 4108.4 109.69ZM4172.97 97.3537V68.9091H4184.54V118H4173.32V109.275H4172.81C4171.7 112.023 4169.88 114.271 4167.34 116.018C4164.83 117.766 4161.73 118.639 4158.04 118.639C4154.82 118.639 4151.98 117.925 4149.51 116.498C4147.06 115.049 4145.14 112.95 4143.75 110.202C4142.37 107.432 4141.68 104.087 4141.68 100.166V68.9091H4153.25V98.3764C4153.25 101.487 4154.1 103.959 4155.8 105.791C4157.51 107.624 4159.75 108.54 4162.52 108.54C4164.22 108.54 4165.87 108.124 4167.47 107.293C4169.07 106.462 4170.38 105.227 4171.4 103.586C4172.44 101.924 4172.97 99.8466 4172.97 97.3537ZM4220.95 68.9091V77.858H4192.73V68.9091H4220.95ZM4199.69 57.1477H4211.26V103.234C4211.26 104.79 4211.5 105.983 4211.97 106.814C4212.46 107.624 4213.09 108.178 4213.88 108.476C4214.67 108.774 4215.55 108.923 4216.5 108.923C4217.23 108.923 4217.89 108.87 4218.49 108.763C4219.1 108.657 4219.57 108.561 4219.89 108.476L4221.84 117.521C4221.22 117.734 4220.34 117.968 4219.19 118.224C4218.06 118.479 4216.67 118.629 4215.03 118.671C4212.14 118.756 4209.53 118.32 4207.2 117.361C4204.88 116.381 4203.04 114.868 4201.67 112.822C4200.33 110.777 4199.67 108.22 4199.69 105.152V57.1477ZM4230.62 136.409V68.9091H4242V77.027H4242.67C4243.27 75.8338 4244.11 74.566 4245.2 73.2237C4246.28 71.8601 4247.75 70.6989 4249.61 69.7401C4251.46 68.7599 4253.83 68.2699 4256.7 68.2699C4260.49 68.2699 4263.91 69.2393 4266.96 71.1783C4270.03 73.0959 4272.46 75.9403 4274.25 79.7116C4276.06 83.4616 4276.96 88.0639 4276.96 93.5185C4276.96 98.9091 4276.08 103.49 4274.31 107.261C4272.54 111.033 4270.14 113.909 4267.09 115.891C4264.04 117.872 4260.59 118.863 4256.73 118.863C4253.92 118.863 4251.59 118.394 4249.73 117.457C4247.88 116.519 4246.39 115.39 4245.26 114.069C4244.15 112.727 4243.29 111.459 4242.67 110.266H4242.19V136.409H4230.62ZM4241.97 93.4545C4241.97 96.6293 4242.42 99.4098 4243.31 101.796C4244.23 104.183 4245.54 106.047 4247.24 107.389C4248.97 108.71 4251.06 109.371 4253.51 109.371C4256.06 109.371 4258.2 108.689 4259.93 107.325C4261.66 105.94 4262.96 104.055 4263.83 101.668C4264.72 99.2607 4265.17 96.5227 4265.17 93.4545C4265.17 90.4077 4264.73 87.7017 4263.86 85.3366C4262.99 82.9716 4261.69 81.1179 4259.96 79.7756C4258.24 78.4332 4256.08 77.7621 4253.51 77.7621C4251.03 77.7621 4248.94 78.4119 4247.21 79.7116C4245.48 81.0114 4244.17 82.8331 4243.28 85.1768C4242.41 87.5206 4241.97 90.2798 4241.97 93.4545ZM4318.16 97.3537V68.9091H4329.73V118H4318.51V109.275H4318C4316.89 112.023 4315.07 114.271 4312.54 116.018C4310.02 117.766 4306.92 118.639 4303.24 118.639C4300.02 118.639 4297.17 117.925 4294.7 116.498C4292.25 115.049 4290.33 112.95 4288.95 110.202C4287.56 107.432 4286.87 104.087 4286.87 100.166V68.9091H4298.44V98.3764C4298.44 101.487 4299.29 103.959 4301 105.791C4302.7 107.624 4304.94 108.54 4307.71 108.54C4309.41 108.54 4311.07 108.124 4312.66 107.293C4314.26 106.462 4315.57 105.227 4316.6 103.586C4317.64 101.924 4318.16 99.8466 4318.16 97.3537ZM4366.14 68.9091V77.858H4337.92V68.9091H4366.14ZM4344.89 57.1477H4356.46V103.234C4356.46 104.79 4356.69 105.983 4357.16 106.814C4357.65 107.624 4358.29 108.178 4359.08 108.476C4359.87 108.774 4360.74 108.923 4361.7 108.923C4362.42 108.923 4363.08 108.87 4363.68 108.763C4364.3 108.657 4364.77 108.561 4365.09 108.476L4367.04 117.521C4366.42 117.734 4365.53 117.968 4364.38 118.224C4363.25 118.479 4361.87 118.629 4360.23 118.671C4357.33 118.756 4354.72 118.32 4352.4 117.361C4350.08 116.381 4348.23 114.868 4346.87 112.822C4345.53 110.777 4344.87 108.22 4344.89 105.152V57.1477ZM4409.71 89.2358V118H4398.14V68.9091H4409.2V77.2507H4409.78C4410.9 74.5021 4412.71 72.3182 4415.18 70.6989C4417.67 69.0795 4420.75 68.2699 4424.41 68.2699C4427.8 68.2699 4430.75 68.9943 4433.27 70.4432C4435.8 71.892 4437.76 73.9908 4439.15 76.7393C4440.55 79.4879 4441.25 82.8224 4441.22 86.7429V118H4429.65V88.5327C4429.65 85.2514 4428.8 82.6839 4427.1 80.8303C4425.41 78.9766 4423.08 78.0497 4420.1 78.0497C4418.07 78.0497 4416.27 78.4972 4414.7 79.392C4413.14 80.2656 4411.92 81.5334 4411.02 83.1953C4410.15 84.8572 4409.71 86.8707 4409.71 89.2358ZM4474.72 118.959C4469.8 118.959 4465.55 117.936 4461.97 115.891C4458.41 113.824 4455.67 110.905 4453.75 107.134C4451.84 103.341 4450.88 98.8771 4450.88 93.7422C4450.88 88.6925 4451.84 84.2607 4453.75 80.4467C4455.69 76.6115 4458.4 73.6285 4461.87 71.4979C4465.34 69.3459 4469.42 68.2699 4474.11 68.2699C4477.14 68.2699 4479.99 68.7599 4482.68 69.7401C4485.38 70.6989 4487.77 72.1903 4489.84 74.2145C4491.92 76.2386 4493.56 78.8168 4494.76 81.9489C4495.95 85.0597 4496.55 88.767 4496.55 93.071V96.6186H4456.31V88.8203H4485.46C4485.44 86.6044 4484.96 84.6335 4484.02 82.9077C4483.08 81.1605 4481.77 79.7862 4480.09 78.7848C4478.43 77.7834 4476.49 77.2827 4474.27 77.2827C4471.91 77.2827 4469.83 77.858 4468.04 79.0085C4466.25 80.1378 4464.85 81.6293 4463.85 83.483C4462.87 85.3153 4462.37 87.3288 4462.35 89.5234V96.331C4462.35 99.1861 4462.87 101.636 4463.92 103.682C4464.96 105.706 4466.42 107.261 4468.29 108.348C4470.17 109.413 4472.36 109.946 4474.88 109.946C4476.56 109.946 4478.09 109.712 4479.45 109.243C4480.81 108.753 4481.99 108.039 4483 107.102C4484 106.164 4484.75 105.003 4485.27 103.618L4496.07 104.832C4495.39 107.687 4494.09 110.18 4492.17 112.311C4490.27 114.42 4487.84 116.061 4484.88 117.233C4481.92 118.384 4478.53 118.959 4474.72 118.959ZM4537.62 97.3537V68.9091H4549.19V118H4537.98V109.275H4537.46C4536.36 112.023 4534.53 114.271 4532 116.018C4529.49 117.766 4526.38 118.639 4522.7 118.639C4519.48 118.639 4516.64 117.925 4514.17 116.498C4511.72 115.049 4509.8 112.95 4508.41 110.202C4507.03 107.432 4506.34 104.087 4506.34 100.166V68.9091H4517.9V98.3764C4517.9 101.487 4518.76 103.959 4520.46 105.791C4522.17 107.624 4524.4 108.54 4527.17 108.54C4528.88 108.54 4530.53 108.124 4532.13 107.293C4533.73 106.462 4535.04 105.227 4536.06 103.586C4537.1 101.924 4537.62 99.8466 4537.62 97.3537ZM4561.09 118V68.9091H4572.31V77.0909H4572.82C4573.72 74.2571 4575.25 72.0732 4577.42 70.5391C4579.62 68.9837 4582.12 68.206 4584.93 68.206C4585.57 68.206 4586.29 68.2379 4587.07 68.3018C4587.88 68.3445 4588.56 68.419 4589.09 68.5256V79.1683C4588.6 78.9979 4587.82 78.8487 4586.76 78.7209C4585.71 78.5717 4584.7 78.4972 4583.72 78.4972C4581.61 78.4972 4579.71 78.9553 4578.03 79.8714C4576.37 80.7663 4575.06 82.0128 4574.1 83.6108C4573.14 85.2088 4572.66 87.0518 4572.66 89.1399V118H4561.09ZM4616.17 118.959C4611.37 118.959 4607.22 117.904 4603.7 115.795C4600.19 113.685 4597.46 110.734 4595.52 106.942C4593.6 103.149 4592.64 98.7173 4592.64 93.6463C4592.64 88.5753 4593.6 84.1328 4595.52 80.3189C4597.46 76.505 4600.19 73.5433 4603.7 71.4339C4607.22 69.3246 4611.37 68.2699 4616.17 68.2699C4620.96 68.2699 4625.12 69.3246 4628.63 71.4339C4632.15 73.5433 4634.86 76.505 4636.78 80.3189C4638.72 84.1328 4639.69 88.5753 4639.69 93.6463C4639.69 98.7173 4638.72 103.149 4636.78 106.942C4634.86 110.734 4632.15 113.685 4628.63 115.795C4625.12 117.904 4620.96 118.959 4616.17 118.959ZM4616.23 109.69C4618.83 109.69 4621 108.977 4622.75 107.549C4624.5 106.1 4625.8 104.161 4626.65 101.732C4627.52 99.3033 4627.96 96.5973 4627.96 93.6143C4627.96 90.6101 4627.52 87.8935 4626.65 85.4645C4625.8 83.0142 4624.5 81.0646 4622.75 79.6158C4621 78.1669 4618.83 77.4425 4616.23 77.4425C4613.57 77.4425 4611.35 78.1669 4609.58 79.6158C4607.84 81.0646 4606.53 83.0142 4605.65 85.4645C4604.8 87.8935 4604.37 90.6101 4604.37 93.6143C4604.37 96.5973 4604.8 99.3033 4605.65 101.732C4606.53 104.161 4607.84 106.1 4609.58 107.549C4611.35 108.977 4613.57 109.69 4616.23 109.69ZM4661.08 89.2358V118H4649.51V68.9091H4660.57V77.2507H4661.14C4662.27 74.5021 4664.07 72.3182 4666.54 70.6989C4669.04 69.0795 4672.12 68.2699 4675.78 68.2699C4679.17 68.2699 4682.12 68.9943 4684.63 70.4432C4687.17 71.892 4689.13 73.9908 4690.51 76.7393C4691.92 79.4879 4692.61 82.8224 4692.59 86.7429V118H4681.02V88.5327C4681.02 85.2514 4680.17 82.6839 4678.47 80.8303C4676.78 78.9766 4674.45 78.0497 4671.47 78.0497C4669.44 78.0497 4667.64 78.4972 4666.06 79.392C4664.51 80.2656 4663.28 81.5334 4662.39 83.1953C4661.52 84.8572 4661.08 86.8707 4661.08 89.2358ZM4743.15 81.8849L4732.61 83.0355C4732.31 81.9702 4731.79 80.9688 4731.04 80.0312C4730.32 79.0938 4729.34 78.3374 4728.1 77.7621C4726.86 77.1868 4725.35 76.8991 4723.56 76.8991C4721.15 76.8991 4719.13 77.4212 4717.49 78.4652C4715.87 79.5092 4715.07 80.8622 4715.09 82.5241C4715.07 83.9517 4715.59 85.1129 4716.66 86.0078C4717.74 86.9027 4719.53 87.6378 4722.03 88.2131L4730.4 90.0028C4735.05 91.0043 4738.5 92.5916 4740.76 94.7649C4743.04 96.9382 4744.19 99.7827 4744.21 103.298C4744.19 106.388 4743.28 109.115 4741.49 111.48C4739.72 113.824 4737.26 115.656 4734.11 116.977C4730.95 118.298 4727.33 118.959 4723.24 118.959C4717.23 118.959 4712.4 117.702 4708.73 115.188C4705.07 112.652 4702.88 109.126 4702.18 104.609L4713.46 103.522C4713.97 105.738 4715.06 107.411 4716.72 108.54C4718.38 109.669 4720.55 110.234 4723.21 110.234C4725.96 110.234 4728.16 109.669 4729.83 108.54C4731.51 107.411 4732.35 106.015 4732.35 104.353C4732.35 102.947 4731.81 101.786 4730.72 100.869C4729.65 99.9531 4727.99 99.25 4725.73 98.7599L4717.36 97.0021C4712.65 96.022 4709.17 94.3707 4706.91 92.0483C4704.65 89.7045 4703.53 86.7429 4703.55 83.1634C4703.53 80.1378 4704.35 77.517 4706.01 75.3011C4707.7 73.0639 4710.03 71.3381 4713.01 70.1236C4716.02 68.8878 4719.48 68.2699 4723.4 68.2699C4729.15 68.2699 4733.68 69.495 4736.98 71.9453C4740.31 74.3956 4742.36 77.7088 4743.15 81.8849Z" fill="white"/>
<rect x="792.5" y="675.5" width="191" height="197" rx="45.5" stroke="#767382" stroke-width="9"/>
<rect x="2402.5" y="510.5" width="203" height="530" rx="65.5" stroke="#767382" stroke-width="9"/>
<rect x="4145.5" y="297.5" width="203" height="1001" rx="65.5" stroke="#767382" stroke-width="9"/>
<path d="M839.983 586.455V633H834.528L809.165 596.455H808.71V633H803.074V586.455H808.528L833.983 623.091H834.438V586.455H839.983ZM860.807 633.818C858.595 633.818 856.587 633.402 854.784 632.568C852.981 631.72 851.549 630.5 850.489 628.909C849.428 627.303 848.898 625.364 848.898 623.091C848.898 621.091 849.292 619.47 850.08 618.227C850.867 616.97 851.92 615.985 853.239 615.273C854.557 614.561 856.011 614.03 857.602 613.682C859.208 613.318 860.822 613.03 862.443 612.818C864.564 612.545 866.284 612.341 867.602 612.205C868.936 612.053 869.905 611.803 870.511 611.455C871.133 611.106 871.443 610.5 871.443 609.636V609.455C871.443 607.212 870.83 605.47 869.602 604.227C868.39 602.985 866.549 602.364 864.08 602.364C861.519 602.364 859.511 602.924 858.057 604.045C856.602 605.167 855.58 606.364 854.989 607.636L849.898 605.818C850.807 603.697 852.019 602.045 853.534 600.864C855.064 599.667 856.731 598.833 858.534 598.364C860.352 597.879 862.14 597.636 863.898 597.636C865.019 597.636 866.307 597.773 867.761 598.045C869.231 598.303 870.648 598.841 872.011 599.659C873.39 600.477 874.534 601.712 875.443 603.364C876.352 605.015 876.807 607.227 876.807 610V633H871.443V628.273H871.17C870.807 629.03 870.201 629.841 869.352 630.705C868.504 631.568 867.375 632.303 865.966 632.909C864.557 633.515 862.837 633.818 860.807 633.818ZM861.625 629C863.746 629 865.534 628.583 866.989 627.75C868.458 626.917 869.564 625.841 870.307 624.523C871.064 623.205 871.443 621.818 871.443 620.364V615.455C871.216 615.727 870.716 615.977 869.943 616.205C869.186 616.417 868.307 616.606 867.307 616.773C866.322 616.924 865.36 617.061 864.42 617.182C863.496 617.288 862.746 617.379 862.17 617.455C860.777 617.636 859.473 617.932 858.261 618.341C857.064 618.735 856.095 619.333 855.352 620.136C854.625 620.924 854.261 622 854.261 623.364C854.261 625.227 854.951 626.636 856.33 627.591C857.723 628.53 859.489 629 861.625 629ZM886.597 633V598.091H891.778V603.545H892.233C892.96 601.682 894.134 600.235 895.756 599.205C897.377 598.159 899.324 597.636 901.597 597.636C903.9 597.636 905.816 598.159 907.347 599.205C908.892 600.235 910.097 601.682 910.96 603.545H911.324C912.218 601.742 913.559 600.311 915.347 599.25C917.134 598.174 919.278 597.636 921.778 597.636C924.9 597.636 927.453 598.614 929.438 600.568C931.422 602.508 932.415 605.53 932.415 609.636V633H927.051V609.636C927.051 607.061 926.347 605.22 924.938 604.114C923.528 603.008 921.869 602.455 919.96 602.455C917.506 602.455 915.604 603.197 914.256 604.682C912.907 606.152 912.233 608.015 912.233 610.273V633H906.778V609.091C906.778 607.106 906.134 605.508 904.847 604.295C903.559 603.068 901.9 602.455 899.869 602.455C898.475 602.455 897.172 602.826 895.96 603.568C894.763 604.311 893.794 605.341 893.051 606.659C892.324 607.962 891.96 609.47 891.96 611.182V633H886.597ZM956.858 633.727C953.494 633.727 950.593 632.985 948.153 631.5C945.729 630 943.858 627.909 942.54 625.227C941.237 622.53 940.585 619.394 940.585 615.818C940.585 612.242 941.237 609.091 942.54 606.364C943.858 603.621 945.691 601.485 948.04 599.955C950.403 598.409 953.161 597.636 956.312 597.636C958.131 597.636 959.926 597.939 961.699 598.545C963.472 599.152 965.085 600.136 966.54 601.5C967.994 602.848 969.153 604.636 970.017 606.864C970.881 609.091 971.312 611.833 971.312 615.091V617.364H944.403V612.727H965.858C965.858 610.758 965.464 609 964.676 607.455C963.903 605.909 962.797 604.689 961.358 603.795C959.934 602.902 958.252 602.455 956.312 602.455C954.176 602.455 952.328 602.985 950.767 604.045C949.222 605.091 948.032 606.455 947.199 608.136C946.366 609.818 945.949 611.621 945.949 613.545V616.636C945.949 619.273 946.403 621.508 947.312 623.341C948.237 625.159 949.517 626.545 951.153 627.5C952.79 628.439 954.691 628.909 956.858 628.909C958.267 628.909 959.54 628.712 960.676 628.318C961.828 627.909 962.82 627.303 963.653 626.5C964.487 625.682 965.131 624.667 965.585 623.455L970.767 624.909C970.222 626.667 969.305 628.212 968.017 629.545C966.729 630.864 965.138 631.894 963.244 632.636C961.35 633.364 959.222 633.727 956.858 633.727Z" fill="#767382"/>
<path d="M4189.98 210.455V257H4184.53L4159.16 220.455H4158.71V257H4153.07V210.455H4158.53L4183.98 247.091H4184.44V210.455H4189.98ZM4210.81 257.818C4208.59 257.818 4206.59 257.402 4204.78 256.568C4202.98 255.72 4201.55 254.5 4200.49 252.909C4199.43 251.303 4198.9 249.364 4198.9 247.091C4198.9 245.091 4199.29 243.47 4200.08 242.227C4200.87 240.97 4201.92 239.985 4203.24 239.273C4204.56 238.561 4206.01 238.03 4207.6 237.682C4209.21 237.318 4210.82 237.03 4212.44 236.818C4214.56 236.545 4216.28 236.341 4217.6 236.205C4218.94 236.053 4219.91 235.803 4220.51 235.455C4221.13 235.106 4221.44 234.5 4221.44 233.636V233.455C4221.44 231.212 4220.83 229.47 4219.6 228.227C4218.39 226.985 4216.55 226.364 4214.08 226.364C4211.52 226.364 4209.51 226.924 4208.06 228.045C4206.6 229.167 4205.58 230.364 4204.99 231.636L4199.9 229.818C4200.81 227.697 4202.02 226.045 4203.53 224.864C4205.06 223.667 4206.73 222.833 4208.53 222.364C4210.35 221.879 4212.14 221.636 4213.9 221.636C4215.02 221.636 4216.31 221.773 4217.76 222.045C4219.23 222.303 4220.65 222.841 4222.01 223.659C4223.39 224.477 4224.53 225.712 4225.44 227.364C4226.35 229.015 4226.81 231.227 4226.81 234V257H4221.44V252.273H4221.17C4220.81 253.03 4220.2 253.841 4219.35 254.705C4218.5 255.568 4217.38 256.303 4215.97 256.909C4214.56 257.515 4212.84 257.818 4210.81 257.818ZM4211.62 253C4213.75 253 4215.53 252.583 4216.99 251.75C4218.46 250.917 4219.56 249.841 4220.31 248.523C4221.06 247.205 4221.44 245.818 4221.44 244.364V239.455C4221.22 239.727 4220.72 239.977 4219.94 240.205C4219.19 240.417 4218.31 240.606 4217.31 240.773C4216.32 240.924 4215.36 241.061 4214.42 241.182C4213.5 241.288 4212.75 241.379 4212.17 241.455C4210.78 241.636 4209.47 241.932 4208.26 242.341C4207.06 242.735 4206.09 243.333 4205.35 244.136C4204.63 244.924 4204.26 246 4204.26 247.364C4204.26 249.227 4204.95 250.636 4206.33 251.591C4207.72 252.53 4209.49 253 4211.62 253ZM4236.6 257V222.091H4241.78V227.545H4242.23C4242.96 225.682 4244.13 224.235 4245.76 223.205C4247.38 222.159 4249.32 221.636 4251.6 221.636C4253.9 221.636 4255.82 222.159 4257.35 223.205C4258.89 224.235 4260.1 225.682 4260.96 227.545H4261.32C4262.22 225.742 4263.56 224.311 4265.35 223.25C4267.13 222.174 4269.28 221.636 4271.78 221.636C4274.9 221.636 4277.45 222.614 4279.44 224.568C4281.42 226.508 4282.41 229.53 4282.41 233.636V257H4277.05V233.636C4277.05 231.061 4276.35 229.22 4274.94 228.114C4273.53 227.008 4271.87 226.455 4269.96 226.455C4267.51 226.455 4265.6 227.197 4264.26 228.682C4262.91 230.152 4262.23 232.015 4262.23 234.273V257H4256.78V233.091C4256.78 231.106 4256.13 229.508 4254.85 228.295C4253.56 227.068 4251.9 226.455 4249.87 226.455C4248.48 226.455 4247.17 226.826 4245.96 227.568C4244.76 228.311 4243.79 229.341 4243.05 230.659C4242.32 231.962 4241.96 233.47 4241.96 235.182V257H4236.6ZM4306.86 257.727C4303.49 257.727 4300.59 256.985 4298.15 255.5C4295.73 254 4293.86 251.909 4292.54 249.227C4291.24 246.53 4290.59 243.394 4290.59 239.818C4290.59 236.242 4291.24 233.091 4292.54 230.364C4293.86 227.621 4295.69 225.485 4298.04 223.955C4300.4 222.409 4303.16 221.636 4306.31 221.636C4308.13 221.636 4309.93 221.939 4311.7 222.545C4313.47 223.152 4315.09 224.136 4316.54 225.5C4317.99 226.848 4319.15 228.636 4320.02 230.864C4320.88 233.091 4321.31 235.833 4321.31 239.091V241.364H4294.4V236.727H4315.86C4315.86 234.758 4315.46 233 4314.68 231.455C4313.9 229.909 4312.8 228.689 4311.36 227.795C4309.93 226.902 4308.25 226.455 4306.31 226.455C4304.18 226.455 4302.33 226.985 4300.77 228.045C4299.22 229.091 4298.03 230.455 4297.2 232.136C4296.37 233.818 4295.95 235.621 4295.95 237.545V240.636C4295.95 243.273 4296.4 245.508 4297.31 247.341C4298.24 249.159 4299.52 250.545 4301.15 251.5C4302.79 252.439 4304.69 252.909 4306.86 252.909C4308.27 252.909 4309.54 252.712 4310.68 252.318C4311.83 251.909 4312.82 251.303 4313.65 250.5C4314.49 249.682 4315.13 248.667 4315.59 247.455L4320.77 248.909C4320.22 250.667 4319.3 252.212 4318.02 253.545C4316.73 254.864 4315.14 255.894 4313.24 256.636C4311.35 257.364 4309.22 257.727 4306.86 257.727Z" fill="#767382"/>
<path d="M2457.98 418.455V465H2452.53L2427.16 428.455H2426.71V465H2421.07V418.455H2426.53L2451.98 455.091H2452.44V418.455H2457.98ZM2478.81 465.818C2476.59 465.818 2474.59 465.402 2472.78 464.568C2470.98 463.72 2469.55 462.5 2468.49 460.909C2467.43 459.303 2466.9 457.364 2466.9 455.091C2466.9 453.091 2467.29 451.47 2468.08 450.227C2468.87 448.97 2469.92 447.985 2471.24 447.273C2472.56 446.561 2474.01 446.03 2475.6 445.682C2477.21 445.318 2478.82 445.03 2480.44 444.818C2482.56 444.545 2484.28 444.341 2485.6 444.205C2486.94 444.053 2487.91 443.803 2488.51 443.455C2489.13 443.106 2489.44 442.5 2489.44 441.636V441.455C2489.44 439.212 2488.83 437.47 2487.6 436.227C2486.39 434.985 2484.55 434.364 2482.08 434.364C2479.52 434.364 2477.51 434.924 2476.06 436.045C2474.6 437.167 2473.58 438.364 2472.99 439.636L2467.9 437.818C2468.81 435.697 2470.02 434.045 2471.53 432.864C2473.06 431.667 2474.73 430.833 2476.53 430.364C2478.35 429.879 2480.14 429.636 2481.9 429.636C2483.02 429.636 2484.31 429.773 2485.76 430.045C2487.23 430.303 2488.65 430.841 2490.01 431.659C2491.39 432.477 2492.53 433.712 2493.44 435.364C2494.35 437.015 2494.81 439.227 2494.81 442V465H2489.44V460.273H2489.17C2488.81 461.03 2488.2 461.841 2487.35 462.705C2486.5 463.568 2485.38 464.303 2483.97 464.909C2482.56 465.515 2480.84 465.818 2478.81 465.818ZM2479.62 461C2481.75 461 2483.53 460.583 2484.99 459.75C2486.46 458.917 2487.56 457.841 2488.31 456.523C2489.06 455.205 2489.44 453.818 2489.44 452.364V447.455C2489.22 447.727 2488.72 447.977 2487.94 448.205C2487.19 448.417 2486.31 448.606 2485.31 448.773C2484.32 448.924 2483.36 449.061 2482.42 449.182C2481.5 449.288 2480.75 449.379 2480.17 449.455C2478.78 449.636 2477.47 449.932 2476.26 450.341C2475.06 450.735 2474.09 451.333 2473.35 452.136C2472.63 452.924 2472.26 454 2472.26 455.364C2472.26 457.227 2472.95 458.636 2474.33 459.591C2475.72 460.53 2477.49 461 2479.62 461ZM2504.6 465V430.091H2509.78V435.545H2510.23C2510.96 433.682 2512.13 432.235 2513.76 431.205C2515.38 430.159 2517.32 429.636 2519.6 429.636C2521.9 429.636 2523.82 430.159 2525.35 431.205C2526.89 432.235 2528.1 433.682 2528.96 435.545H2529.32C2530.22 433.742 2531.56 432.311 2533.35 431.25C2535.13 430.174 2537.28 429.636 2539.78 429.636C2542.9 429.636 2545.45 430.614 2547.44 432.568C2549.42 434.508 2550.41 437.53 2550.41 441.636V465H2545.05V441.636C2545.05 439.061 2544.35 437.22 2542.94 436.114C2541.53 435.008 2539.87 434.455 2537.96 434.455C2535.51 434.455 2533.6 435.197 2532.26 436.682C2530.91 438.152 2530.23 440.015 2530.23 442.273V465H2524.78V441.091C2524.78 439.106 2524.13 437.508 2522.85 436.295C2521.56 435.068 2519.9 434.455 2517.87 434.455C2516.48 434.455 2515.17 434.826 2513.96 435.568C2512.76 436.311 2511.79 437.341 2511.05 438.659C2510.32 439.962 2509.96 441.47 2509.96 443.182V465H2504.6ZM2574.86 465.727C2571.49 465.727 2568.59 464.985 2566.15 463.5C2563.73 462 2561.86 459.909 2560.54 457.227C2559.24 454.53 2558.59 451.394 2558.59 447.818C2558.59 444.242 2559.24 441.091 2560.54 438.364C2561.86 435.621 2563.69 433.485 2566.04 431.955C2568.4 430.409 2571.16 429.636 2574.31 429.636C2576.13 429.636 2577.93 429.939 2579.7 430.545C2581.47 431.152 2583.09 432.136 2584.54 433.5C2585.99 434.848 2587.15 436.636 2588.02 438.864C2588.88 441.091 2589.31 443.833 2589.31 447.091V449.364H2562.4V444.727H2583.86C2583.86 442.758 2583.46 441 2582.68 439.455C2581.9 437.909 2580.8 436.689 2579.36 435.795C2577.93 434.902 2576.25 434.455 2574.31 434.455C2572.18 434.455 2570.33 434.985 2568.77 436.045C2567.22 437.091 2566.03 438.455 2565.2 440.136C2564.37 441.818 2563.95 443.621 2563.95 445.545V448.636C2563.95 451.273 2564.4 453.508 2565.31 455.341C2566.24 457.159 2567.52 458.545 2569.15 459.5C2570.79 460.439 2572.69 460.909 2574.86 460.909C2576.27 460.909 2577.54 460.712 2578.68 460.318C2579.83 459.909 2580.82 459.303 2581.65 458.5C2582.49 457.682 2583.13 456.667 2583.59 455.455L2588.77 456.909C2588.22 458.667 2587.3 460.212 2586.02 461.545C2584.73 462.864 2583.14 463.894 2581.24 464.636C2579.35 465.364 2577.22 465.727 2574.86 465.727Z" fill="#767382"/>
<circle cx="2605" cy="615" r="59.5" fill="#242230" stroke="#767382" stroke-width="9"/>
<circle cx="4349" cy="401" r="59.5" fill="#242230" stroke="#767382" stroke-width="9"/>
<circle cx="2400" cy="615" r="59.5" fill="#242230" stroke="#767382" stroke-width="9"/>
<circle cx="4147" cy="401" r="59.5" fill="#242230" stroke="#767382" stroke-width="9"/>
<circle cx="4147" cy="555" r="59.5" fill="#242230" stroke="#767382" stroke-width="9"/>
<circle cx="4147" cy="714" r="59.5" fill="#242230" stroke="#767382" stroke-width="9"/>
<circle cx="4147" cy="876" r="59.5" fill="#242230" stroke="#767382" stroke-width="9"/>
<circle cx="985" cy="770" r="59.5" fill="#242230" stroke="#767382" stroke-width="9"/>
<circle cx="2400" cy="769" r="59.5" fill="#242230" stroke="#767382" stroke-width="9"/>
<circle cx="4349" cy="555" r="59.5" fill="#242230" stroke="#767382" stroke-width="9"/>
<circle cx="2400" cy="928" r="59.5" fill="#242230" stroke="#767382" stroke-width="9"/>
<circle cx="4349" cy="714" r="59.5" fill="#242230" stroke="#767382" stroke-width="9"/>
<circle cx="4349" cy="875" r="59.5" fill="#242230" stroke="#767382" stroke-width="9"/>
<circle cx="4349" cy="1036" r="59.5" fill="#242230" stroke="#767382" stroke-width="9"/>
<circle cx="4349" cy="1190" r="59.5" fill="#242230" stroke="#767382" stroke-width="9"/>
</g>
<defs>
<filter id="filter0_d_108_64" x="-4" y="0" width="5083" height="1337" filterUnits="userSpaceOnUse" color-interpolation-filters="sRGB">
<feFlood flood-opacity="0" result="BackgroundImageFix"/>
<feColorMatrix in="SourceAlpha" type="matrix" values="0 0 0 0 0 0 0 0 0 0 0 0 0 0 0 0 0 0 127 0" result="hardAlpha"/>
<feOffset dy="4"/>
<feGaussianBlur stdDeviation="2"/>
<feComposite in2="hardAlpha" operator="out"/>
<feColorMatrix type="matrix" values="0 0 0 0 0 0 0 0 0 0 0 0 0 0 0 0 0 0 0.25 0"/>
<feBlend mode="normal" in2="BackgroundImageFix" result="effect1_dropShadow_108_64"/>
<feBlend mode="normal" in="SourceGraphic" in2="effect1_dropShadow_108_64" result="shape"/>
</filter>
</defs>
</svg>
