<svg width="3912" height="2470" viewBox="0 0 3912 2470" fill="none" xmlns="http://www.w3.org/2000/svg">
<circle cx="1967.5" cy="1268.5" r="863.5" stroke="#10CC55" stroke-width="6"/>
<rect x="483.5" y="168.5" width="270" height="270" rx="55.5" stroke="#62B4FF" stroke-width="9"/>
<rect x="3118.5" y="168.5" width="270" height="270" rx="55.5" stroke="#62B4FF" stroke-width="9"/>
<rect x="3438.5" y="1103.5" width="270" height="270" rx="55.5" stroke="#62B4FF" stroke-width="9"/>
<rect x="3144.5" y="2091.5" width="270" height="270" rx="55.5" stroke="#62B4FF" stroke-width="9"/>
<rect x="204.5" y="1103.5" width="270" height="270" rx="55.5" stroke="#62B4FF" stroke-width="9"/>
<rect x="483.5" y="2091.5" width="270" height="270" rx="55.5" stroke="#62B4FF" stroke-width="9"/>
<path d="M835.196 422.11C833.6 422.554 832.666 424.208 833.11 425.804L840.347 451.816C840.791 453.412 842.445 454.346 844.041 453.902C845.637 453.458 846.571 451.804 846.127 450.208L839.694 427.086L862.816 420.653C864.412 420.209 865.346 418.555 864.902 416.959C864.458 415.363 862.804 414.429 861.208 414.873L835.196 422.11ZM1239.48 649.388L837.475 422.388L834.525 427.612L1236.52 654.612L1239.48 649.388Z" fill="#767382" fill-opacity="0.7"/>
<path d="M2716.2 1813.11C2714.6 1813.55 2713.67 1815.21 2714.11 1816.8L2721.35 1842.82C2721.79 1844.41 2723.44 1845.35 2725.04 1844.9C2726.64 1844.46 2727.57 1842.8 2727.13 1841.21L2720.69 1818.09L2743.82 1811.65C2745.41 1811.21 2746.35 1809.56 2745.9 1807.96C2745.46 1806.36 2743.8 1805.43 2742.21 1805.87L2716.2 1813.11ZM3120.48 2040.39L2718.48 1813.39L2715.52 1818.61L3117.52 2045.61L3120.48 2040.39Z" fill="#767382" fill-opacity="0.7"/>
<path d="M2711.2 723.89C2709.6 723.446 2708.67 721.792 2709.11 720.196L2716.35 694.184C2716.79 692.588 2718.44 691.654 2720.04 692.098C2721.64 692.542 2722.57 694.196 2722.13 695.792L2715.69 718.914L2738.82 725.347C2740.41 725.791 2741.35 727.445 2740.9 729.041C2740.46 730.637 2738.8 731.571 2737.21 731.127L2711.2 723.89ZM3115.48 496.612L2713.48 723.612L2710.52 718.388L3112.52 491.388L3115.48 496.612Z" fill="#767382" fill-opacity="0.7"/>
<path d="M848.196 2137.89C846.6 2137.45 845.666 2135.79 846.11 2134.2L853.347 2108.18C853.791 2106.59 855.445 2105.65 857.041 2106.1C858.637 2106.54 859.571 2108.2 859.127 2109.79L852.694 2132.91L875.816 2139.35C877.412 2139.79 878.346 2141.44 877.902 2143.04C877.458 2144.64 875.804 2145.57 874.208 2145.13L848.196 2137.89ZM1252.48 1910.61L850.475 2137.61L847.525 2132.39L1249.52 1905.39L1252.48 1910.61Z" fill="#767382" fill-opacity="0.7"/>
<path d="M555.088 1288.73C553.928 1287.55 553.946 1285.65 555.128 1284.49L574.402 1265.58C575.585 1264.42 577.484 1264.44 578.644 1265.62C579.805 1266.8 579.787 1268.7 578.604 1269.86L561.472 1286.67L578.279 1303.8C579.44 1304.99 579.422 1306.89 578.239 1308.05C577.056 1309.21 575.157 1309.19 573.996 1308.01L555.088 1288.73ZM1018.84 1294.04L557.201 1289.63L557.258 1283.63L1018.9 1288.04L1018.84 1294.04Z" fill="#767382" fill-opacity="0.7"/>
<path d="M2903.09 1284.73C2901.93 1283.55 2901.95 1281.65 2903.13 1280.49L2922.4 1261.58C2923.58 1260.42 2925.48 1260.44 2926.64 1261.62C2927.8 1262.8 2927.79 1264.7 2926.6 1265.86L2909.47 1282.67L2926.28 1299.8C2927.44 1300.99 2927.42 1302.89 2926.24 1304.05C2925.06 1305.21 2923.16 1305.19 2922 1304.01L2903.09 1284.73ZM3366.84 1290.04L2905.2 1285.63L2905.26 1279.63L3366.9 1284.04L3366.84 1290.04Z" fill="#767382" fill-opacity="0.7"/>
<path d="M1180.8 746.89C1182.4 746.446 1183.33 744.792 1182.89 743.196L1175.65 717.184C1175.21 715.588 1173.56 714.654 1171.96 715.098C1170.36 715.542 1169.43 717.196 1169.87 718.792L1176.31 741.914L1153.18 748.347C1151.59 748.791 1150.65 750.445 1151.1 752.041C1151.54 753.637 1153.2 754.571 1154.79 754.127L1180.8 746.89ZM776.525 519.612L1178.52 746.612L1181.48 741.388L779.475 514.388L776.525 519.612Z" fill="#767382" fill-opacity="0.7"/>
<path d="M3061.8 2137.89C3063.4 2137.45 3064.33 2135.79 3063.89 2134.2L3056.65 2108.18C3056.21 2106.59 3054.56 2105.65 3052.96 2106.1C3051.36 2106.54 3050.43 2108.2 3050.87 2109.79L3057.31 2132.91L3034.18 2139.35C3032.59 2139.79 3031.65 2141.44 3032.1 2143.04C3032.54 2144.64 3034.2 2145.57 3035.79 2145.13L3061.8 2137.89ZM2657.52 1910.61L3059.52 2137.61L3062.48 2132.39L2660.48 1905.39L2657.52 1910.61Z" fill="#767382" fill-opacity="0.7"/>
<path d="M3056.8 399.11C3058.4 399.554 3059.33 401.208 3058.89 402.804L3051.65 428.816C3051.21 430.412 3049.56 431.346 3047.96 430.902C3046.36 430.458 3045.43 428.804 3045.87 427.208L3052.31 404.086L3029.18 397.653C3027.59 397.209 3026.65 395.555 3027.1 393.959C3027.54 392.363 3029.2 391.429 3030.79 391.873L3056.8 399.11ZM2652.52 626.388L3054.52 399.388L3057.48 404.612L2655.48 631.612L2652.52 626.388Z" fill="#767382" fill-opacity="0.7"/>
<path d="M1193.8 1813.11C1195.4 1813.55 1196.33 1815.21 1195.89 1816.8L1188.65 1842.82C1188.21 1844.41 1186.56 1845.35 1184.96 1844.9C1183.36 1844.46 1182.43 1842.8 1182.87 1841.21L1189.31 1818.09L1166.18 1811.65C1164.59 1811.21 1163.65 1809.56 1164.1 1807.96C1164.54 1806.36 1166.2 1805.43 1167.79 1805.87L1193.8 1813.11ZM789.525 2040.39L1191.52 1813.39L1194.48 1818.61L792.475 2045.61L789.525 2040.39Z" fill="#767382" fill-opacity="0.7"/>
<path d="M1016.78 1180.27C1017.94 1181.45 1017.93 1183.35 1016.74 1184.51L997.47 1203.42C996.287 1204.58 994.388 1204.56 993.227 1203.38C992.067 1202.2 992.085 1200.3 993.268 1199.14L1010.4 1182.33L993.592 1165.2C992.432 1164.01 992.45 1162.11 993.633 1160.95C994.815 1159.79 996.715 1159.81 997.875 1160.99L1016.78 1180.27ZM553.029 1174.96L1014.67 1179.37L1014.61 1185.37L552.971 1180.96L553.029 1174.96Z" fill="#767382" fill-opacity="0.7"/>
<path d="M3364.78 1176.27C3365.94 1177.45 3365.93 1179.35 3364.74 1180.51L3345.47 1199.42C3344.29 1200.58 3342.39 1200.56 3341.23 1199.38C3340.07 1198.2 3340.09 1196.3 3341.27 1195.14L3358.4 1178.33L3341.59 1161.2C3340.43 1160.01 3340.45 1158.11 3341.63 1156.95C3342.82 1155.79 3344.71 1155.81 3345.88 1156.99L3364.78 1176.27ZM2901.03 1170.96L3362.67 1175.37L3362.61 1181.37L2900.97 1176.96L2901.03 1170.96Z" fill="#767382" fill-opacity="0.7"/>
<path d="M551.943 73.0859C551.711 70.915 550.733 69.2247 549.01 68.0149C547.303 66.8052 545.082 66.2003 542.348 66.2003C540.426 66.2003 538.777 66.4903 537.401 67.0703C536.026 67.6503 534.973 68.4375 534.244 69.4318C533.515 70.4261 533.142 71.5613 533.126 72.8374C533.126 73.898 533.366 74.8177 533.847 75.5966C534.344 76.3755 535.015 77.0384 535.86 77.5852C536.705 78.1155 537.641 78.563 538.669 78.9276C539.696 79.2921 540.732 79.5987 541.776 79.8473L546.549 81.0405C548.471 81.4879 550.319 82.0928 552.092 82.8551C553.882 83.6174 555.481 84.5786 556.89 85.7386C558.315 86.8987 559.442 88.299 560.271 89.9396C561.099 91.5803 561.513 93.5026 561.513 95.7067C561.513 98.6896 560.751 101.316 559.226 103.587C557.702 105.84 555.498 107.605 552.614 108.881C549.747 110.141 546.275 110.771 542.199 110.771C538.238 110.771 534.799 110.157 531.883 108.931C528.983 107.705 526.712 105.915 525.072 103.562C523.448 101.209 522.569 98.3416 522.437 94.9609H531.51C531.642 96.7341 532.189 98.209 533.15 99.3857C534.112 100.562 535.363 101.441 536.904 102.021C538.462 102.601 540.202 102.891 542.124 102.891C544.129 102.891 545.886 102.592 547.394 101.996C548.919 101.383 550.112 100.537 550.974 99.4602C551.835 98.3665 552.275 97.0904 552.291 95.6321C552.275 94.3063 551.885 93.2126 551.123 92.3509C550.36 91.4725 549.292 90.7434 547.916 90.1634C546.557 89.5668 544.966 89.0365 543.143 88.5724L537.351 87.081C533.159 86.0038 529.844 84.3714 527.408 82.1839C524.989 79.9799 523.779 77.0549 523.779 73.4091C523.779 70.4096 524.591 67.7829 526.215 65.5291C527.856 63.2753 530.085 61.527 532.902 60.2841C535.719 59.0246 538.909 58.3949 542.472 58.3949C546.085 58.3949 549.25 59.0246 551.968 60.2841C554.702 61.527 556.848 63.2588 558.406 65.4794C559.964 67.6835 560.768 70.219 560.817 73.0859H551.943ZM586.241 110.746C582.413 110.746 579.107 109.95 576.323 108.359C573.555 106.752 571.426 104.482 569.934 101.548C568.443 98.5985 567.697 95.1267 567.697 91.1328C567.697 87.2053 568.443 83.7583 569.934 80.7919C571.442 77.8089 573.547 75.4889 576.248 73.8317C578.949 72.1579 582.123 71.321 585.769 71.321C588.122 71.321 590.342 71.7022 592.43 72.4645C594.535 73.2102 596.391 74.3703 597.999 75.9446C599.623 77.5189 600.899 79.5241 601.827 81.9602C602.755 84.3797 603.219 87.2633 603.219 90.6108V93.37H571.923V87.3047H594.593C594.577 85.5812 594.204 84.0483 593.475 82.706C592.745 81.3471 591.726 80.2782 590.417 79.4993C589.124 78.7204 587.616 78.331 585.893 78.331C584.053 78.331 582.438 78.7784 581.046 79.6733C579.653 80.5516 578.568 81.7116 577.789 83.1534C577.027 84.5786 576.637 86.1446 576.621 87.8516V93.1463C576.621 95.367 577.027 97.2727 577.839 98.8636C578.651 100.438 579.786 101.648 581.244 102.493C582.703 103.321 584.41 103.736 586.365 103.736C587.674 103.736 588.859 103.554 589.92 103.189C590.98 102.808 591.9 102.253 592.679 101.523C593.458 100.794 594.046 99.8911 594.444 98.8139L602.846 99.7585C602.316 101.979 601.305 103.918 599.813 105.575C598.338 107.216 596.449 108.492 594.146 109.403C591.842 110.298 589.207 110.746 586.241 110.746ZM610.832 110V71.8182H619.557V78.1818H619.954C620.65 75.9777 621.844 74.2791 623.534 73.0859C625.241 71.8762 627.188 71.2713 629.376 71.2713C629.873 71.2713 630.428 71.2962 631.041 71.3459C631.671 71.379 632.193 71.437 632.607 71.5199V79.7976C632.226 79.665 631.621 79.549 630.793 79.4496C629.98 79.3336 629.193 79.2756 628.431 79.2756C626.79 79.2756 625.315 79.6319 624.006 80.3445C622.714 81.0405 621.695 82.0099 620.949 83.2528C620.203 84.4957 619.83 85.9292 619.83 87.5533V110H610.832ZM673.853 71.8182L660.255 110H650.312L636.715 71.8182H646.31L655.085 100.181H655.483L664.282 71.8182H673.853ZM695.436 110.746C691.707 110.746 688.475 109.925 685.741 108.285C683.007 106.644 680.885 104.349 679.377 101.399C677.886 98.4493 677.14 95.0024 677.14 91.0582C677.14 87.1141 677.886 83.6589 679.377 80.6925C680.885 77.7261 683.007 75.4226 685.741 73.782C688.475 72.1413 691.707 71.321 695.436 71.321C699.164 71.321 702.396 72.1413 705.13 73.782C707.865 75.4226 709.978 77.7261 711.469 80.6925C712.977 83.6589 713.731 87.1141 713.731 91.0582C713.731 95.0024 712.977 98.4493 711.469 101.399C709.978 104.349 707.865 106.644 705.13 108.285C702.396 109.925 699.164 110.746 695.436 110.746ZM695.485 103.537C697.507 103.537 699.197 102.982 700.556 101.871C701.915 100.745 702.926 99.2365 703.589 97.3473C704.268 95.4581 704.608 93.3535 704.608 91.0334C704.608 88.6967 704.268 86.5838 703.589 84.6946C702.926 82.7888 701.915 81.2725 700.556 80.1456C699.197 79.0187 697.507 78.4553 695.485 78.4553C693.414 78.4553 691.69 79.0187 690.315 80.1456C688.956 81.2725 687.937 82.7888 687.257 84.6946C686.594 86.5838 686.263 88.6967 686.263 91.0334C686.263 93.3535 686.594 95.4581 687.257 97.3473C687.937 99.2365 688.956 100.745 690.315 101.871C691.69 102.982 693.414 103.537 695.485 103.537Z" fill="white"/>
<path d="M87.5618 1042H70.3104V991.091H87.9098C92.9643 991.091 97.3061 992.11 100.935 994.148C104.581 996.17 107.382 999.079 109.337 1002.87C111.293 1006.67 112.271 1011.21 112.271 1016.5C112.271 1021.8 111.285 1026.36 109.312 1030.17C107.357 1033.98 104.531 1036.9 100.836 1038.94C97.157 1040.98 92.7322 1042 87.5618 1042ZM79.5327 1034.02H87.1143C90.6607 1034.02 93.6188 1033.37 95.9886 1032.08C98.3584 1030.77 100.14 1028.83 101.333 1026.24C102.526 1023.64 103.123 1020.39 103.123 1016.5C103.123 1012.6 102.526 1009.37 101.333 1006.8C100.14 1004.22 98.375 1002.29 96.0384 1001.01C93.7183 999.717 90.8348 999.07 87.3878 999.07H79.5327V1034.02ZM120.635 1042V1003.82H129.634V1042H120.635ZM125.159 998.399C123.734 998.399 122.508 997.927 121.48 996.982C120.453 996.021 119.939 994.869 119.939 993.527C119.939 992.168 120.453 991.016 121.48 990.072C122.508 989.111 123.734 988.63 125.159 988.63C126.601 988.63 127.828 989.111 128.838 990.072C129.866 991.016 130.38 992.168 130.38 993.527C130.38 994.869 129.866 996.021 128.838 996.982C127.828 997.927 126.601 998.399 125.159 998.399ZM169.065 1013.91L160.862 1014.81C160.63 1013.98 160.224 1013.2 159.644 1012.47C159.08 1011.74 158.318 1011.15 157.357 1010.7C156.396 1010.26 155.219 1010.03 153.827 1010.03C151.954 1010.03 150.38 1010.44 149.104 1011.25C147.844 1012.06 147.223 1013.12 147.24 1014.41C147.223 1015.52 147.629 1016.42 148.458 1017.12C149.303 1017.81 150.695 1018.38 152.634 1018.83L159.146 1020.22C162.759 1021 165.444 1022.24 167.2 1023.93C168.974 1025.62 169.869 1027.83 169.885 1030.57C169.869 1032.97 169.164 1035.09 167.772 1036.93C166.397 1038.75 164.483 1040.18 162.03 1041.2C159.577 1042.23 156.76 1042.75 153.578 1042.75C148.905 1042.75 145.143 1041.77 142.293 1039.81C139.442 1037.84 137.744 1035.1 137.197 1031.58L145.972 1030.74C146.369 1032.46 147.215 1033.76 148.507 1034.64C149.8 1035.52 151.482 1035.96 153.553 1035.96C155.691 1035.96 157.406 1035.52 158.699 1034.64C160.008 1033.76 160.663 1032.68 160.663 1031.39C160.663 1030.29 160.24 1029.39 159.395 1028.68C158.566 1027.96 157.274 1027.42 155.517 1027.04L149.004 1025.67C145.342 1024.91 142.633 1023.62 140.876 1021.82C139.119 1019.99 138.249 1017.69 138.266 1014.9C138.249 1012.55 138.887 1010.51 140.18 1008.79C141.489 1007.05 143.304 1005.71 145.624 1004.76C147.96 1003.8 150.653 1003.32 153.703 1003.32C158.177 1003.32 161.699 1004.27 164.267 1006.18C166.852 1008.09 168.452 1010.66 169.065 1013.91ZM196.371 1003.82V1010.78H174.422V1003.82H196.371ZM179.841 994.67H188.839V1030.52C188.839 1031.73 189.022 1032.65 189.386 1033.3C189.767 1033.93 190.265 1034.36 190.878 1034.59C191.491 1034.82 192.17 1034.94 192.916 1034.94C193.479 1034.94 193.993 1034.9 194.457 1034.82C194.938 1034.73 195.302 1034.66 195.551 1034.59L197.067 1041.63C196.587 1041.79 195.899 1041.98 195.004 1042.17C194.126 1042.37 193.049 1042.49 191.773 1042.52C189.519 1042.59 187.489 1042.25 185.682 1041.5C183.876 1040.74 182.443 1039.56 181.382 1037.97C180.338 1036.38 179.824 1034.39 179.841 1032.01V994.67ZM214.884 1042.77C212.465 1042.77 210.286 1042.34 208.347 1041.48C206.424 1040.6 204.9 1039.31 203.773 1037.6C202.662 1035.89 202.107 1033.79 202.107 1031.29C202.107 1029.13 202.505 1027.35 203.3 1025.94C204.096 1024.53 205.181 1023.41 206.557 1022.56C207.932 1021.72 209.482 1021.08 211.205 1020.65C212.945 1020.2 214.743 1019.88 216.599 1019.68C218.837 1019.45 220.651 1019.24 222.043 1019.06C223.435 1018.86 224.446 1018.56 225.076 1018.16C225.722 1017.75 226.045 1017.11 226.045 1016.25V1016.1C226.045 1014.23 225.49 1012.78 224.38 1011.75C223.27 1010.72 221.67 1010.21 219.582 1010.21C217.378 1010.21 215.63 1010.69 214.337 1011.65C213.061 1012.61 212.2 1013.74 211.752 1015.05L203.35 1013.86C204.013 1011.54 205.107 1009.6 206.631 1008.04C208.156 1006.47 210.02 1005.29 212.224 1004.51C214.429 1003.72 216.865 1003.32 219.533 1003.32C221.372 1003.32 223.203 1003.54 225.026 1003.97C226.849 1004.4 228.515 1005.11 230.023 1006.11C231.531 1007.08 232.741 1008.42 233.652 1010.11C234.58 1011.8 235.044 1013.91 235.044 1016.45V1042H226.393V1036.75H226.095C225.548 1037.82 224.778 1038.81 223.783 1039.74C222.806 1040.65 221.571 1041.39 220.08 1041.95C218.605 1042.5 216.873 1042.77 214.884 1042.77ZM217.221 1036.16C219.027 1036.16 220.593 1035.8 221.919 1035.09C223.245 1034.36 224.264 1033.4 224.977 1032.21C225.706 1031.01 226.07 1029.71 226.07 1028.3V1023.8C225.789 1024.04 225.308 1024.25 224.629 1024.45C223.966 1024.65 223.22 1024.82 222.391 1024.97C221.563 1025.12 220.742 1025.25 219.93 1025.37C219.118 1025.49 218.414 1025.59 217.817 1025.67C216.475 1025.85 215.274 1026.15 214.213 1026.56C213.152 1026.98 212.316 1027.56 211.702 1028.3C211.089 1029.03 210.783 1029.98 210.783 1031.14C210.783 1032.79 211.388 1034.05 212.597 1034.89C213.807 1035.74 215.348 1036.16 217.221 1036.16ZM253.091 1019.63V1042H244.092V1003.82H252.693V1010.31H253.141C254.019 1008.17 255.419 1006.47 257.342 1005.21C259.281 1003.95 261.675 1003.32 264.526 1003.32C267.161 1003.32 269.456 1003.88 271.411 1005.01C273.383 1006.14 274.908 1007.77 275.985 1009.91C277.079 1012.05 277.617 1014.64 277.601 1017.69V1042H268.602V1019.08C268.602 1016.53 267.939 1014.53 266.614 1013.09C265.304 1011.65 263.49 1010.93 261.17 1010.93C259.595 1010.93 258.195 1011.28 256.969 1011.97C255.759 1012.65 254.806 1013.64 254.11 1014.93C253.431 1016.22 253.091 1017.79 253.091 1019.63ZM303.403 1042.75C299.592 1042.75 296.319 1041.91 293.585 1040.24C290.867 1038.56 288.77 1036.25 287.295 1033.3C285.837 1030.33 285.108 1026.92 285.108 1023.06C285.108 1019.18 285.854 1015.76 287.345 1012.79C288.837 1009.81 290.941 1007.49 293.659 1005.83C296.393 1004.16 299.625 1003.32 303.354 1003.32C306.453 1003.32 309.195 1003.89 311.582 1005.04C313.985 1006.16 315.899 1007.76 317.324 1009.83C318.749 1011.89 319.561 1014.29 319.76 1017.04H311.159C310.811 1015.2 309.982 1013.67 308.673 1012.44C307.381 1011.2 305.649 1010.58 303.478 1010.58C301.638 1010.58 300.023 1011.08 298.631 1012.07C297.239 1013.05 296.153 1014.46 295.374 1016.3C294.612 1018.14 294.231 1020.34 294.231 1022.91C294.231 1025.51 294.612 1027.75 295.374 1029.62C296.137 1031.48 297.205 1032.91 298.581 1033.92C299.973 1034.92 301.605 1035.41 303.478 1035.41C304.804 1035.41 305.989 1035.16 307.033 1034.67C308.093 1034.15 308.98 1033.42 309.692 1032.45C310.405 1031.49 310.894 1030.33 311.159 1028.95H319.76C319.545 1031.65 318.749 1034.05 317.374 1036.13C315.998 1038.21 314.125 1039.83 311.756 1041.01C309.386 1042.17 306.602 1042.75 303.403 1042.75ZM344.052 1042.75C340.224 1042.75 336.918 1041.95 334.134 1040.36C331.367 1038.75 329.237 1036.48 327.746 1033.55C326.254 1030.6 325.508 1027.13 325.508 1023.13C325.508 1019.21 326.254 1015.76 327.746 1012.79C329.254 1009.81 331.358 1007.49 334.059 1005.83C336.761 1004.16 339.934 1003.32 343.58 1003.32C345.933 1003.32 348.154 1003.7 350.242 1004.46C352.347 1005.21 354.203 1006.37 355.81 1007.94C357.434 1009.52 358.71 1011.52 359.638 1013.96C360.566 1016.38 361.03 1019.26 361.03 1022.61V1025.37H329.734V1019.3H352.405C352.388 1017.58 352.015 1016.05 351.286 1014.71C350.557 1013.35 349.538 1012.28 348.229 1011.5C346.936 1010.72 345.428 1010.33 343.704 1010.33C341.865 1010.33 340.249 1010.78 338.857 1011.67C337.465 1012.55 336.38 1013.71 335.601 1015.15C334.838 1016.58 334.449 1018.14 334.432 1019.85V1025.15C334.432 1027.37 334.838 1029.27 335.65 1030.86C336.462 1032.44 337.598 1033.65 339.056 1034.49C340.514 1035.32 342.221 1035.74 344.177 1035.74C345.486 1035.74 346.671 1035.55 347.731 1035.19C348.792 1034.81 349.712 1034.25 350.491 1033.52C351.269 1032.79 351.858 1031.89 352.256 1030.81L360.657 1031.76C360.127 1033.98 359.116 1035.92 357.625 1037.58C356.15 1039.22 354.261 1040.49 351.957 1041.4C349.654 1042.3 347.019 1042.75 344.052 1042.75ZM416.184 1013.91L407.981 1014.81C407.749 1013.98 407.343 1013.2 406.763 1012.47C406.199 1011.74 405.437 1011.15 404.476 1010.7C403.515 1010.26 402.338 1010.03 400.946 1010.03C399.073 1010.03 397.499 1010.44 396.223 1011.25C394.964 1012.06 394.342 1013.12 394.359 1014.41C394.342 1015.52 394.748 1016.42 395.577 1017.12C396.422 1017.81 397.814 1018.38 399.753 1018.83L406.266 1020.22C409.878 1021 412.563 1022.24 414.32 1023.93C416.093 1025.62 416.988 1027.83 417.004 1030.57C416.988 1032.97 416.283 1035.09 414.891 1036.93C413.516 1038.75 411.602 1040.18 409.149 1041.2C406.696 1042.23 403.879 1042.75 400.697 1042.75C396.024 1042.75 392.262 1041.77 389.412 1039.81C386.562 1037.84 384.863 1035.1 384.316 1031.58L393.091 1030.74C393.489 1032.46 394.334 1033.76 395.626 1034.64C396.919 1035.52 398.601 1035.96 400.673 1035.96C402.81 1035.96 404.526 1035.52 405.818 1034.64C407.127 1033.76 407.782 1032.68 407.782 1031.39C407.782 1030.29 407.359 1029.39 406.514 1028.68C405.686 1027.96 404.393 1027.42 402.636 1027.04L396.124 1025.67C392.461 1024.91 389.752 1023.62 387.995 1021.82C386.238 1019.99 385.368 1017.69 385.385 1014.9C385.368 1012.55 386.006 1010.51 387.299 1008.79C388.608 1007.05 390.423 1005.71 392.743 1004.76C395.08 1003.8 397.772 1003.32 400.822 1003.32C405.296 1003.32 408.818 1004.27 411.386 1006.18C413.972 1008.09 415.571 1010.66 416.184 1013.91ZM441.328 1042.75C437.5 1042.75 434.194 1041.95 431.409 1040.36C428.642 1038.75 426.512 1036.48 425.021 1033.55C423.529 1030.6 422.784 1027.13 422.784 1023.13C422.784 1019.21 423.529 1015.76 425.021 1012.79C426.529 1009.81 428.634 1007.49 431.335 1005.83C434.036 1004.16 437.21 1003.32 440.855 1003.32C443.209 1003.32 445.429 1003.7 447.517 1004.46C449.622 1005.21 451.478 1006.37 453.086 1007.94C454.71 1009.52 455.986 1011.52 456.914 1013.96C457.842 1016.38 458.306 1019.26 458.306 1022.61V1025.37H427.01V1019.3H449.68C449.663 1017.58 449.291 1016.05 448.561 1014.71C447.832 1013.35 446.813 1012.28 445.504 1011.5C444.211 1010.72 442.703 1010.33 440.98 1010.33C439.14 1010.33 437.525 1010.78 436.132 1011.67C434.74 1012.55 433.655 1013.71 432.876 1015.15C432.114 1016.58 431.724 1018.14 431.708 1019.85V1025.15C431.708 1027.37 432.114 1029.27 432.926 1030.86C433.738 1032.44 434.873 1033.65 436.331 1034.49C437.79 1035.32 439.497 1035.74 441.452 1035.74C442.761 1035.74 443.946 1035.55 445.007 1035.19C446.067 1034.81 446.987 1034.25 447.766 1033.52C448.545 1032.79 449.133 1031.89 449.531 1030.81L457.933 1031.76C457.403 1033.98 456.392 1035.92 454.9 1037.58C453.425 1039.22 451.536 1040.49 449.233 1041.4C446.929 1042.3 444.294 1042.75 441.328 1042.75ZM474.917 1019.63V1042H465.919V1003.82H474.519V1010.31H474.967C475.845 1008.17 477.245 1006.47 479.168 1005.21C481.107 1003.95 483.501 1003.32 486.352 1003.32C488.987 1003.32 491.282 1003.88 493.237 1005.01C495.209 1006.14 496.734 1007.77 497.811 1009.91C498.905 1012.05 499.444 1014.64 499.427 1017.69V1042H490.428V1019.08C490.428 1016.53 489.766 1014.53 488.44 1013.09C487.131 1011.65 485.316 1010.93 482.996 1010.93C481.422 1010.93 480.021 1011.28 478.795 1011.97C477.585 1012.65 476.632 1013.64 475.936 1014.93C475.257 1016.22 474.917 1017.79 474.917 1019.63ZM538.752 1013.91L530.549 1014.81C530.317 1013.98 529.911 1013.2 529.331 1012.47C528.768 1011.74 528.005 1011.15 527.044 1010.7C526.083 1010.26 524.906 1010.03 523.514 1010.03C521.642 1010.03 520.067 1010.44 518.791 1011.25C517.532 1012.06 516.91 1013.12 516.927 1014.41C516.91 1015.52 517.316 1016.42 518.145 1017.12C518.99 1017.81 520.382 1018.38 522.321 1018.83L528.834 1020.22C532.447 1021 535.131 1022.24 536.888 1023.93C538.661 1025.62 539.556 1027.83 539.573 1030.57C539.556 1032.97 538.852 1035.09 537.46 1036.93C536.084 1038.75 534.17 1040.18 531.718 1041.2C529.265 1042.23 526.448 1042.75 523.266 1042.75C518.593 1042.75 514.831 1041.77 511.98 1039.81C509.13 1037.84 507.431 1035.1 506.884 1031.58L515.659 1030.74C516.057 1032.46 516.902 1033.76 518.195 1034.64C519.487 1035.52 521.169 1035.96 523.241 1035.96C525.379 1035.96 527.094 1035.52 528.387 1034.64C529.696 1033.76 530.35 1032.68 530.35 1031.39C530.35 1030.29 529.928 1029.39 529.083 1028.68C528.254 1027.96 526.961 1027.42 525.205 1027.04L518.692 1025.67C515.03 1024.91 512.32 1023.62 510.563 1021.82C508.807 1019.99 507.937 1017.69 507.953 1014.9C507.937 1012.55 508.575 1010.51 509.867 1008.79C511.177 1007.05 512.991 1005.71 515.311 1004.76C517.648 1003.8 520.341 1003.32 523.39 1003.32C527.865 1003.32 531.386 1004.27 533.955 1006.18C536.54 1008.09 538.139 1010.66 538.752 1013.91ZM563.648 1042.75C559.919 1042.75 556.687 1041.93 553.953 1040.28C551.219 1038.64 549.097 1036.35 547.589 1033.4C546.098 1030.45 545.352 1027 545.352 1023.06C545.352 1019.11 546.098 1015.66 547.589 1012.69C549.097 1009.73 551.219 1007.42 553.953 1005.78C556.687 1004.14 559.919 1003.32 563.648 1003.32C567.376 1003.32 570.608 1004.14 573.342 1005.78C576.077 1007.42 578.189 1009.73 579.681 1012.69C581.189 1015.66 581.943 1019.11 581.943 1023.06C581.943 1027 581.189 1030.45 579.681 1033.4C578.189 1036.35 576.077 1038.64 573.342 1040.28C570.608 1041.93 567.376 1042.75 563.648 1042.75ZM563.697 1035.54C565.719 1035.54 567.409 1034.98 568.768 1033.87C570.127 1032.74 571.138 1031.24 571.801 1029.35C572.48 1027.46 572.82 1025.35 572.82 1023.03C572.82 1020.7 572.48 1018.58 571.801 1016.69C571.138 1014.79 570.127 1013.27 568.768 1012.15C567.409 1011.02 565.719 1010.46 563.697 1010.46C561.626 1010.46 559.902 1011.02 558.527 1012.15C557.168 1013.27 556.149 1014.79 555.469 1016.69C554.806 1018.58 554.475 1020.7 554.475 1023.03C554.475 1025.35 554.806 1027.46 555.469 1029.35C556.149 1031.24 557.168 1032.74 558.527 1033.87C559.902 1034.98 561.626 1035.54 563.697 1035.54ZM589.581 1042V1003.82H598.306V1010.18H598.703C599.4 1007.98 600.593 1006.28 602.283 1005.09C603.99 1003.88 605.937 1003.27 608.125 1003.27C608.622 1003.27 609.177 1003.3 609.79 1003.35C610.42 1003.38 610.942 1003.44 611.356 1003.52V1011.8C610.975 1011.67 610.37 1011.55 609.542 1011.45C608.73 1011.33 607.942 1011.28 607.18 1011.28C605.539 1011.28 604.065 1011.63 602.755 1012.34C601.463 1013.04 600.444 1014.01 599.698 1015.25C598.952 1016.5 598.579 1017.93 598.579 1019.55V1042H589.581Z" fill="white"/>
<path d="M421.383 1975.09H432.668L447.782 2011.98H448.378L463.492 1975.09H474.778V2026H465.928V1991.02H465.456L451.386 2025.85H444.774L430.704 1990.95H430.232V2026H421.383V1975.09ZM484.422 2026V1987.82H493.421V2026H484.422ZM488.947 1982.4C487.521 1982.4 486.295 1981.93 485.268 1980.98C484.24 1980.02 483.726 1978.87 483.726 1977.53C483.726 1976.17 484.24 1975.02 485.268 1974.07C486.295 1973.11 487.521 1972.63 488.947 1972.63C490.388 1972.63 491.615 1973.11 492.626 1974.07C493.653 1975.02 494.167 1976.17 494.167 1977.53C494.167 1978.87 493.653 1980.02 492.626 1980.98C491.615 1981.93 490.388 1982.4 488.947 1982.4ZM519.329 2026.75C515.518 2026.75 512.245 2025.91 509.51 2024.24C506.792 2022.56 504.696 2020.25 503.221 2017.3C501.763 2014.33 501.034 2010.92 501.034 2007.06C501.034 2003.18 501.779 1999.76 503.271 1996.79C504.762 1993.81 506.867 1991.49 509.585 1989.83C512.319 1988.16 515.551 1987.32 519.279 1987.32C522.378 1987.32 525.121 1987.89 527.507 1989.04C529.91 1990.16 531.824 1991.76 533.25 1993.83C534.675 1995.89 535.487 1998.29 535.686 2001.04H527.085C526.737 1999.2 525.908 1997.67 524.599 1996.44C523.306 1995.2 521.575 1994.58 519.404 1994.58C517.564 1994.58 515.949 1995.08 514.556 1996.07C513.164 1997.05 512.079 1998.46 511.3 2000.3C510.538 2002.14 510.157 2004.34 510.157 2006.91C510.157 2009.51 510.538 2011.75 511.3 2013.62C512.062 2015.48 513.131 2016.91 514.507 2017.92C515.899 2018.92 517.531 2019.41 519.404 2019.41C520.73 2019.41 521.914 2019.16 522.958 2018.67C524.019 2018.15 524.906 2017.42 525.618 2016.45C526.331 2015.49 526.82 2014.33 527.085 2012.95H535.686C535.47 2015.65 534.675 2018.05 533.299 2020.13C531.924 2022.21 530.051 2023.83 527.681 2025.01C525.312 2026.17 522.528 2026.75 519.329 2026.75ZM543.075 2026V1987.82H551.8V1994.18H552.198C552.894 1991.98 554.087 1990.28 555.777 1989.09C557.484 1987.88 559.431 1987.27 561.619 1987.27C562.116 1987.27 562.671 1987.3 563.284 1987.35C563.914 1987.38 564.436 1987.44 564.85 1987.52V1995.8C564.469 1995.67 563.864 1995.55 563.036 1995.45C562.224 1995.33 561.436 1995.28 560.674 1995.28C559.034 1995.28 557.559 1995.63 556.249 1996.34C554.957 1997.04 553.938 1998.01 553.192 1999.25C552.446 2000.5 552.073 2001.93 552.073 2003.55V2026H543.075ZM585.911 2026.75C582.183 2026.75 578.951 2025.93 576.217 2024.28C573.482 2022.64 571.361 2020.35 569.853 2017.4C568.362 2014.45 567.616 2011 567.616 2007.06C567.616 2003.11 568.362 1999.66 569.853 1996.69C571.361 1993.73 573.482 1991.42 576.217 1989.78C578.951 1988.14 582.183 1987.32 585.911 1987.32C589.64 1987.32 592.871 1988.14 595.606 1989.78C598.34 1991.42 600.453 1993.73 601.945 1996.69C603.453 1999.66 604.207 2003.11 604.207 2007.06C604.207 2011 603.453 2014.45 601.945 2017.4C600.453 2020.35 598.34 2022.64 595.606 2024.28C592.871 2025.93 589.64 2026.75 585.911 2026.75ZM585.961 2019.54C587.983 2019.54 589.673 2018.98 591.032 2017.87C592.391 2016.74 593.402 2015.24 594.065 2013.35C594.744 2011.46 595.084 2009.35 595.084 2007.03C595.084 2004.7 594.744 2002.58 594.065 2000.69C593.402 1998.79 592.391 1997.27 591.032 1996.15C589.673 1995.02 587.983 1994.46 585.961 1994.46C583.889 1994.46 582.166 1995.02 580.79 1996.15C579.432 1997.27 578.412 1998.79 577.733 2000.69C577.07 2002.58 576.739 2004.7 576.739 2007.03C576.739 2009.35 577.07 2011.46 577.733 2013.35C578.412 2015.24 579.432 2016.74 580.79 2017.87C582.166 2018.98 583.889 2019.54 585.961 2019.54ZM611.844 2040.32V1987.82H620.694V1994.13H621.216C621.68 1993.2 622.334 1992.22 623.18 1991.17C624.025 1990.11 625.168 1989.21 626.61 1988.46C628.052 1987.7 629.891 1987.32 632.128 1987.32C635.078 1987.32 637.738 1988.08 640.108 1989.58C642.494 1991.07 644.383 1993.29 645.775 1996.22C647.184 1999.14 647.888 2002.72 647.888 2006.96C647.888 2011.15 647.201 2014.71 645.825 2017.65C644.45 2020.58 642.577 2022.82 640.207 2024.36C637.837 2025.9 635.153 2026.67 632.153 2026.67C629.966 2026.67 628.151 2026.31 626.709 2025.58C625.268 2024.85 624.108 2023.97 623.229 2022.94C622.367 2021.9 621.696 2020.91 621.216 2019.98H620.843V2040.32H611.844ZM620.669 2006.91C620.669 2009.38 621.017 2011.54 621.713 2013.4C622.425 2015.25 623.445 2016.7 624.77 2017.75C626.113 2018.77 627.737 2019.29 629.643 2019.29C631.631 2019.29 633.297 2018.76 634.639 2017.7C635.981 2016.62 636.992 2015.15 637.672 2013.3C638.368 2011.42 638.716 2009.3 638.716 2006.91C638.716 2004.54 638.376 2002.43 637.697 2000.6C637.017 1998.76 636.006 1997.31 634.664 1996.27C633.322 1995.23 631.648 1994.7 629.643 1994.7C627.72 1994.7 626.088 1995.21 624.746 1996.22C623.403 1997.23 622.384 1998.65 621.688 2000.47C621.009 2002.29 620.669 2004.44 620.669 2006.91ZM664.593 2003.63V2026H655.594V1975.09H664.394V1994.31H664.841C665.736 1992.15 667.12 1990.45 668.993 1989.21C670.882 1987.95 673.285 1987.32 676.202 1987.32C678.853 1987.32 681.165 1987.88 683.137 1988.99C685.109 1990.1 686.634 1991.72 687.711 1993.86C688.805 1996 689.351 1998.61 689.351 2001.69V2026H680.353V2003.08C680.353 2000.51 679.69 1998.52 678.364 1997.09C677.055 1995.65 675.215 1994.93 672.846 1994.93C671.255 1994.93 669.83 1995.28 668.57 1995.97C667.327 1996.65 666.349 1997.64 665.637 1998.93C664.941 2000.22 664.593 2001.79 664.593 2003.63ZM715.179 2026.75C711.45 2026.75 708.219 2025.93 705.484 2024.28C702.75 2022.64 700.629 2020.35 699.121 2017.4C697.629 2014.45 696.883 2011 696.883 2007.06C696.883 2003.11 697.629 1999.66 699.121 1996.69C700.629 1993.73 702.75 1991.42 705.484 1989.78C708.219 1988.14 711.45 1987.32 715.179 1987.32C718.907 1987.32 722.139 1988.14 724.873 1989.78C727.608 1991.42 729.721 1993.73 731.212 1996.69C732.72 1999.66 733.474 2003.11 733.474 2007.06C733.474 2011 732.72 2014.45 731.212 2017.4C729.721 2020.35 727.608 2022.64 724.873 2024.28C722.139 2025.93 718.907 2026.75 715.179 2026.75ZM715.229 2019.54C717.25 2019.54 718.941 2018.98 720.3 2017.87C721.658 2016.74 722.669 2015.24 723.332 2013.35C724.012 2011.46 724.351 2009.35 724.351 2007.03C724.351 2004.7 724.012 2002.58 723.332 2000.69C722.669 1998.79 721.658 1997.27 720.3 1996.15C718.941 1995.02 717.25 1994.46 715.229 1994.46C713.157 1994.46 711.434 1995.02 710.058 1996.15C708.699 1997.27 707.68 1998.79 707.001 2000.69C706.338 2002.58 706.006 2004.7 706.006 2007.03C706.006 2009.35 706.338 2011.46 707.001 2013.35C707.68 2015.24 708.699 2016.74 710.058 2017.87C711.434 2018.98 713.157 2019.54 715.229 2019.54ZM750.11 2003.63V2026H741.112V1987.82H749.713V1994.31H750.16C751.038 1992.17 752.439 1990.47 754.361 1989.21C756.3 1987.95 758.695 1987.32 761.545 1987.32C764.18 1987.32 766.475 1987.88 768.431 1989.01C770.403 1990.14 771.927 1991.77 773.005 1993.91C774.098 1996.05 774.637 1998.64 774.62 2001.69V2026H765.622V2003.08C765.622 2000.53 764.959 1998.53 763.633 1997.09C762.324 1995.65 760.509 1994.93 758.189 1994.93C756.615 1994.93 755.215 1995.28 753.988 1995.97C752.779 1996.65 751.826 1997.64 751.13 1998.93C750.45 2000.22 750.11 2001.79 750.11 2003.63ZM800.672 2026.75C796.843 2026.75 793.537 2025.95 790.753 2024.36C787.986 2022.75 785.856 2020.48 784.365 2017.55C782.873 2014.6 782.127 2011.13 782.127 2007.13C782.127 2003.21 782.873 1999.76 784.365 1996.79C785.873 1993.81 787.977 1991.49 790.679 1989.83C793.38 1988.16 796.553 1987.32 800.199 1987.32C802.552 1987.32 804.773 1987.7 806.861 1988.46C808.966 1989.21 810.822 1990.37 812.429 1991.94C814.053 1993.52 815.329 1995.52 816.257 1997.96C817.185 2000.38 817.65 2003.26 817.65 2006.61V2009.37H786.353V2003.3H809.024C809.007 2001.58 808.634 2000.05 807.905 1998.71C807.176 1997.35 806.157 1996.28 804.848 1995.5C803.555 1994.72 802.047 1994.33 800.324 1994.33C798.484 1994.33 796.868 1994.78 795.476 1995.67C794.084 1996.55 792.999 1997.71 792.22 1999.15C791.458 2000.58 791.068 2002.14 791.051 2003.85V2009.15C791.051 2011.37 791.458 2013.27 792.27 2014.86C793.082 2016.44 794.217 2017.65 795.675 2018.49C797.133 2019.32 798.84 2019.74 800.796 2019.74C802.105 2019.74 803.29 2019.55 804.35 2019.19C805.411 2018.81 806.331 2018.25 807.11 2017.52C807.889 2016.79 808.477 2015.89 808.875 2014.81L817.277 2015.76C816.746 2017.98 815.735 2019.92 814.244 2021.58C812.769 2023.22 810.88 2024.49 808.576 2025.4C806.273 2026.3 803.638 2026.75 800.672 2026.75Z" fill="white"/>
<path d="M3169.7 69.2678H3160.4C3160.14 67.7431 3159.65 66.3925 3158.93 65.2159C3158.22 64.0227 3157.34 63.0118 3156.27 62.1832C3155.21 61.3546 3154 60.7332 3152.65 60.3189C3151.3 59.888 3149.85 59.6726 3148.3 59.6726C3145.53 59.6726 3143.08 60.3686 3140.94 61.7607C3138.8 63.1361 3137.13 65.1579 3135.92 67.826C3134.71 70.4775 3134.1 73.7173 3134.1 77.5455C3134.1 81.4399 3134.71 84.7211 3135.92 87.3892C3137.14 90.0407 3138.82 92.0459 3140.94 93.4048C3143.08 94.7472 3145.52 95.4183 3148.27 95.4183C3149.79 95.4183 3151.22 95.2195 3152.55 94.8217C3153.89 94.4074 3155.09 93.8026 3156.15 93.0071C3157.23 92.2116 3158.13 91.2339 3158.86 90.0739C3159.61 88.9138 3160.12 87.5881 3160.4 86.0966L3169.7 86.1463C3169.35 88.5658 3168.6 90.8362 3167.44 92.9574C3166.29 95.0786 3164.79 96.9512 3162.94 98.5753C3161.08 100.183 3158.91 101.442 3156.42 102.354C3153.94 103.249 3151.18 103.696 3148.15 103.696C3143.67 103.696 3139.68 102.66 3136.16 100.589C3132.65 98.5173 3129.88 95.526 3127.86 91.6151C3125.84 87.7041 3124.83 83.0142 3124.83 77.5455C3124.83 72.0601 3125.85 67.3703 3127.89 63.4759C3129.93 59.5649 3132.7 56.5736 3136.21 54.5021C3139.73 52.4306 3143.7 51.3949 3148.15 51.3949C3150.98 51.3949 3153.61 51.7926 3156.05 52.5881C3158.49 53.3835 3160.66 54.5518 3162.56 56.093C3164.47 57.6177 3166.04 59.4903 3167.26 61.7109C3168.5 63.915 3169.32 66.4339 3169.7 69.2678ZM3188.73 103.771C3186.31 103.771 3184.13 103.34 3182.2 102.478C3180.27 101.6 3178.75 100.307 3177.62 98.6001C3176.51 96.8932 3175.96 94.7886 3175.96 92.2862C3175.96 90.1319 3176.35 88.3504 3177.15 86.9418C3177.94 85.5331 3179.03 84.4062 3180.41 83.5611C3181.78 82.7159 3183.33 82.0779 3185.05 81.647C3186.79 81.1996 3188.59 80.8764 3190.45 80.6776C3192.69 80.4455 3194.5 80.2384 3195.89 80.0561C3197.28 79.8572 3198.29 79.5589 3198.92 79.1612C3199.57 78.7469 3199.89 78.1089 3199.89 77.2472V77.098C3199.89 75.2254 3199.34 73.7753 3198.23 72.7479C3197.12 71.7204 3195.52 71.2067 3193.43 71.2067C3191.23 71.2067 3189.48 71.6873 3188.19 72.6484C3186.91 73.6096 3186.05 74.7448 3185.6 76.054L3177.2 74.8608C3177.86 72.5407 3178.96 70.6018 3180.48 69.044C3182 67.4697 3183.87 66.2931 3186.07 65.5142C3188.28 64.7188 3190.71 64.321 3193.38 64.321C3195.22 64.321 3197.05 64.5365 3198.87 64.9673C3200.7 65.3982 3202.36 66.1108 3203.87 67.1051C3205.38 68.0829 3206.59 69.4169 3207.5 71.1072C3208.43 72.7976 3208.89 74.9105 3208.89 77.446V103H3200.24V97.755H3199.94C3199.4 98.8156 3198.63 99.8099 3197.63 100.738C3196.65 101.649 3195.42 102.387 3193.93 102.95C3192.45 103.497 3190.72 103.771 3188.73 103.771ZM3191.07 97.1584C3192.88 97.1584 3194.44 96.8021 3195.77 96.0895C3197.09 95.3603 3198.11 94.3991 3198.83 93.206C3199.55 92.0128 3199.92 90.7119 3199.92 89.3033V84.804C3199.64 85.036 3199.16 85.2514 3198.48 85.4503C3197.81 85.6491 3197.07 85.8232 3196.24 85.9723C3195.41 86.1214 3194.59 86.254 3193.78 86.37C3192.97 86.486 3192.26 86.5855 3191.67 86.6683C3190.32 86.8506 3189.12 87.1489 3188.06 87.5632C3187 87.9775 3186.16 88.5575 3185.55 89.3033C3184.94 90.0324 3184.63 90.977 3184.63 92.1371C3184.63 93.7943 3185.24 95.0455 3186.45 95.8906C3187.66 96.7358 3189.2 97.1584 3191.07 97.1584ZM3217.94 103V64.8182H3226.54V71.3061H3226.99C3227.78 69.1186 3229.1 67.4117 3230.94 66.1854C3232.78 64.9425 3234.98 64.321 3237.53 64.321C3240.11 64.321 3242.29 64.9508 3244.07 66.2102C3245.86 67.4531 3247.12 69.1518 3247.85 71.3061H3248.24C3249.09 69.1849 3250.51 67.4946 3252.52 66.2351C3254.54 64.959 3256.93 64.321 3259.7 64.321C3263.22 64.321 3266.08 65.4313 3268.3 67.652C3270.52 69.8726 3271.63 73.1125 3271.63 77.3714V103H3262.61V78.7635C3262.61 76.3937 3261.98 74.6619 3260.72 73.5682C3259.46 72.4579 3257.92 71.9027 3256.1 71.9027C3253.93 71.9027 3252.23 72.5821 3251 73.9411C3249.79 75.2834 3249.19 77.0317 3249.19 79.1861V103H3240.36V78.3906C3240.36 76.4186 3239.77 74.8442 3238.57 73.6676C3237.4 72.491 3235.86 71.9027 3233.95 71.9027C3232.66 71.9027 3231.48 72.2341 3230.42 72.897C3229.36 73.5433 3228.51 74.4631 3227.88 75.6562C3227.25 76.8329 3226.94 78.2083 3226.94 79.7827V103H3217.94ZM3297.67 103.746C3293.84 103.746 3290.53 102.95 3287.75 101.359C3284.98 99.7519 3282.85 97.4815 3281.36 94.5483C3279.87 91.5985 3279.12 88.1267 3279.12 84.1328C3279.12 80.2053 3279.87 76.7583 3281.36 73.7919C3282.87 70.8089 3284.97 68.4889 3287.67 66.8317C3290.37 65.1579 3293.55 64.321 3297.19 64.321C3299.55 64.321 3301.77 64.7022 3303.86 65.4645C3305.96 66.2102 3307.82 67.3703 3309.42 68.9446C3311.05 70.5189 3312.32 72.5241 3313.25 74.9602C3314.18 77.3797 3314.64 80.2633 3314.64 83.6108V86.37H3283.35V80.3047H3306.02C3306 78.5812 3305.63 77.0483 3304.9 75.706C3304.17 74.3471 3303.15 73.2782 3301.84 72.4993C3300.55 71.7204 3299.04 71.331 3297.32 71.331C3295.48 71.331 3293.86 71.7784 3292.47 72.6733C3291.08 73.5516 3289.99 74.7116 3289.21 76.1534C3288.45 77.5786 3288.06 79.1446 3288.05 80.8516V86.1463C3288.05 88.367 3288.45 90.2727 3289.26 91.8636C3290.08 93.438 3291.21 94.6477 3292.67 95.4929C3294.13 96.3215 3295.84 96.7358 3297.79 96.7358C3299.1 96.7358 3300.29 96.5535 3301.35 96.1889C3302.41 95.8078 3303.33 95.2526 3304.1 94.5234C3304.88 93.7943 3305.47 92.8911 3305.87 91.8139L3314.27 92.7585C3313.74 94.9792 3312.73 96.9181 3311.24 98.5753C3309.76 100.216 3307.87 101.492 3305.57 102.403C3303.27 103.298 3300.63 103.746 3297.67 103.746ZM3322.26 103V64.8182H3330.98V71.1818H3331.38C3332.08 68.9777 3333.27 67.2791 3334.96 66.0859C3336.67 64.8762 3338.61 64.2713 3340.8 64.2713C3341.3 64.2713 3341.85 64.2962 3342.47 64.3459C3343.1 64.379 3343.62 64.437 3344.03 64.5199V72.7976C3343.65 72.665 3343.05 72.549 3342.22 72.4496C3341.41 72.3336 3340.62 72.2756 3339.86 72.2756C3338.22 72.2756 3336.74 72.6319 3335.43 73.3445C3334.14 74.0405 3333.12 75.0099 3332.37 76.2528C3331.63 77.4957 3331.26 78.9292 3331.26 80.5533V103H3322.26ZM3360.31 103.771C3357.9 103.771 3355.72 103.34 3353.78 102.478C3351.85 101.6 3350.33 100.307 3349.2 98.6001C3348.09 96.8932 3347.54 94.7886 3347.54 92.2862C3347.54 90.1319 3347.94 88.3504 3348.73 86.9418C3349.53 85.5331 3350.61 84.4062 3351.99 83.5611C3353.36 82.7159 3354.91 82.0779 3356.64 81.647C3358.38 81.1996 3360.17 80.8764 3362.03 80.6776C3364.27 80.4455 3366.08 80.2384 3367.47 80.0561C3368.87 79.8572 3369.88 79.5589 3370.51 79.1612C3371.15 78.7469 3371.48 78.1089 3371.48 77.2472V77.098C3371.48 75.2254 3370.92 73.7753 3369.81 72.7479C3368.7 71.7204 3367.1 71.2067 3365.01 71.2067C3362.81 71.2067 3361.06 71.6873 3359.77 72.6484C3358.49 73.6096 3357.63 74.7448 3357.18 76.054L3348.78 74.8608C3349.44 72.5407 3350.54 70.6018 3352.06 69.044C3353.59 67.4697 3355.45 66.2931 3357.66 65.5142C3359.86 64.7188 3362.3 64.321 3364.96 64.321C3366.8 64.321 3368.63 64.5365 3370.46 64.9673C3372.28 65.3982 3373.95 66.1108 3375.45 67.1051C3376.96 68.0829 3378.17 69.4169 3379.08 71.1072C3380.01 72.7976 3380.47 74.9105 3380.47 77.446V103H3371.82V97.755H3371.53C3370.98 98.8156 3370.21 99.8099 3369.21 100.738C3368.24 101.649 3367 102.387 3365.51 102.95C3364.04 103.497 3362.3 103.771 3360.31 103.771ZM3362.65 97.1584C3364.46 97.1584 3366.02 96.8021 3367.35 96.0895C3368.68 95.3603 3369.69 94.3991 3370.41 93.206C3371.14 92.0128 3371.5 90.7119 3371.5 89.3033V84.804C3371.22 85.036 3370.74 85.2514 3370.06 85.4503C3369.4 85.6491 3368.65 85.8232 3367.82 85.9723C3366.99 86.1214 3366.17 86.254 3365.36 86.37C3364.55 86.486 3363.84 86.5855 3363.25 86.6683C3361.91 86.8506 3360.7 87.1489 3359.64 87.5632C3358.58 87.9775 3357.75 88.5575 3357.13 89.3033C3356.52 90.0324 3356.21 90.977 3356.21 92.1371C3356.21 93.7943 3356.82 95.0455 3358.03 95.8906C3359.24 96.7358 3360.78 97.1584 3362.65 97.1584Z" fill="white"/>
<path d="M3459.97 989.086C3459.74 986.915 3458.76 985.225 3457.04 984.015C3455.33 982.805 3453.11 982.2 3450.38 982.2C3448.46 982.2 3446.81 982.49 3445.43 983.07C3444.06 983.65 3443 984.437 3442.28 985.432C3441.55 986.426 3441.17 987.561 3441.16 988.837C3441.16 989.898 3441.4 990.818 3441.88 991.597C3442.37 992.375 3443.05 993.038 3443.89 993.585C3444.74 994.116 3445.67 994.563 3446.7 994.928C3447.73 995.292 3448.76 995.599 3449.81 995.847L3454.58 997.04C3456.5 997.488 3458.35 998.093 3460.12 998.855C3461.91 999.617 3463.51 1000.58 3464.92 1001.74C3466.35 1002.9 3467.47 1004.3 3468.3 1005.94C3469.13 1007.58 3469.54 1009.5 3469.54 1011.71C3469.54 1014.69 3468.78 1017.32 3467.26 1019.59C3465.73 1021.84 3463.53 1023.61 3460.65 1024.88C3457.78 1026.14 3454.31 1026.77 3450.23 1026.77C3446.27 1026.77 3442.83 1026.16 3439.91 1024.93C3437.01 1023.7 3434.74 1021.92 3433.1 1019.56C3431.48 1017.21 3430.6 1014.34 3430.47 1010.96H3439.54C3439.67 1012.73 3440.22 1014.21 3441.18 1015.39C3442.14 1016.56 3443.39 1017.44 3444.94 1018.02C3446.49 1018.6 3448.23 1018.89 3450.16 1018.89C3452.16 1018.89 3453.92 1018.59 3455.43 1018C3456.95 1017.38 3458.14 1016.54 3459 1015.46C3459.87 1014.37 3460.31 1013.09 3460.32 1011.63C3460.31 1010.31 3459.92 1009.21 3459.15 1008.35C3458.39 1007.47 3457.32 1006.74 3455.95 1006.16C3454.59 1005.57 3453 1005.04 3451.17 1004.57L3445.38 1003.08C3441.19 1002 3437.88 1000.37 3435.44 998.184C3433.02 995.98 3431.81 993.055 3431.81 989.409C3431.81 986.41 3432.62 983.783 3434.25 981.529C3435.89 979.275 3438.12 977.527 3440.93 976.284C3443.75 975.025 3446.94 974.395 3450.5 974.395C3454.12 974.395 3457.28 975.025 3460 976.284C3462.73 977.527 3464.88 979.259 3466.44 981.479C3468 983.683 3468.8 986.219 3468.85 989.086H3459.97ZM3477.37 1040.32V987.818H3486.22V994.132H3486.74C3487.2 993.204 3487.86 992.218 3488.7 991.174C3489.55 990.113 3490.69 989.21 3492.13 988.464C3493.58 987.702 3495.42 987.321 3497.65 987.321C3500.6 987.321 3503.26 988.075 3505.63 989.583C3508.02 991.075 3509.91 993.287 3511.3 996.22C3512.71 999.137 3513.41 1002.72 3513.41 1006.96C3513.41 1011.15 3512.72 1014.71 3511.35 1017.65C3509.97 1020.58 3508.1 1022.82 3505.73 1024.36C3503.36 1025.9 3500.68 1026.67 3497.68 1026.67C3495.49 1026.67 3493.68 1026.31 3492.23 1025.58C3490.79 1024.85 3489.63 1023.97 3488.75 1022.94C3487.89 1021.9 3487.22 1020.91 3486.74 1019.98H3486.37V1040.32H3477.37ZM3486.19 1006.91C3486.19 1009.38 3486.54 1011.54 3487.24 1013.4C3487.95 1015.25 3488.97 1016.7 3490.29 1017.75C3491.64 1018.77 3493.26 1019.29 3495.17 1019.29C3497.16 1019.29 3498.82 1018.76 3500.16 1017.7C3501.51 1016.62 3502.52 1015.15 3503.2 1013.3C3503.89 1011.42 3504.24 1009.3 3504.24 1006.91C3504.24 1004.54 3503.9 1002.43 3503.22 1000.6C3502.54 998.756 3501.53 997.314 3500.19 996.27C3498.85 995.226 3497.17 994.704 3495.17 994.704C3493.24 994.704 3491.61 995.209 3490.27 996.22C3488.93 997.231 3487.91 998.648 3487.21 1000.47C3486.53 1002.29 3486.19 1004.44 3486.19 1006.91ZM3538.02 1026.75C3534.19 1026.75 3530.89 1025.95 3528.1 1024.36C3525.34 1022.75 3523.21 1020.48 3521.72 1017.55C3520.22 1014.6 3519.48 1011.13 3519.48 1007.13C3519.48 1003.21 3520.22 999.758 3521.72 996.792C3523.22 993.809 3525.33 991.489 3528.03 989.832C3530.73 988.158 3533.9 987.321 3537.55 987.321C3539.9 987.321 3542.12 987.702 3544.21 988.464C3546.32 989.21 3548.17 990.37 3549.78 991.945C3551.4 993.519 3552.68 995.524 3553.61 997.96C3554.54 1000.38 3555 1003.26 3555 1006.61V1009.37H3523.7V1003.3H3546.37C3546.36 1001.58 3545.98 1000.05 3545.26 998.706C3544.53 997.347 3543.51 996.278 3542.2 995.499C3540.91 994.72 3539.4 994.331 3537.67 994.331C3535.83 994.331 3534.22 994.778 3532.83 995.673C3531.43 996.552 3530.35 997.712 3529.57 999.153C3528.81 1000.58 3528.42 1002.14 3528.4 1003.85V1009.15C3528.4 1011.37 3528.81 1013.27 3529.62 1014.86C3530.43 1016.44 3531.57 1017.65 3533.03 1018.49C3534.48 1019.32 3536.19 1019.74 3538.15 1019.74C3539.46 1019.74 3540.64 1019.55 3541.7 1019.19C3542.76 1018.81 3543.68 1018.25 3544.46 1017.52C3545.24 1016.79 3545.83 1015.89 3546.23 1014.81L3554.63 1015.76C3554.1 1017.98 3553.09 1019.92 3551.59 1021.58C3550.12 1023.22 3548.23 1024.49 3545.93 1025.4C3543.62 1026.3 3540.99 1026.75 3538.02 1026.75ZM3573.6 1026.77C3571.18 1026.77 3569 1026.34 3567.06 1025.48C3565.14 1024.6 3563.62 1023.31 3562.49 1021.6C3561.38 1019.89 3560.82 1017.79 3560.82 1015.29C3560.82 1013.13 3561.22 1011.35 3562.02 1009.94C3562.81 1008.53 3563.9 1007.41 3565.27 1006.56C3566.65 1005.72 3568.2 1005.08 3569.92 1004.65C3571.66 1004.2 3573.46 1003.88 3575.32 1003.68C3577.55 1003.45 3579.37 1003.24 3580.76 1003.06C3582.15 1002.86 3583.16 1002.56 3583.79 1002.16C3584.44 1001.75 3584.76 1001.11 3584.76 1000.25V1000.1C3584.76 998.225 3584.21 996.775 3583.1 995.748C3581.99 994.72 3580.39 994.207 3578.3 994.207C3576.09 994.207 3574.35 994.687 3573.05 995.648C3571.78 996.61 3570.92 997.745 3570.47 999.054L3562.07 997.861C3562.73 995.541 3563.82 993.602 3565.35 992.044C3566.87 990.47 3568.74 989.293 3570.94 988.514C3573.14 987.719 3575.58 987.321 3578.25 987.321C3580.09 987.321 3581.92 987.536 3583.74 987.967C3585.57 988.398 3587.23 989.111 3588.74 990.105C3590.25 991.083 3591.46 992.417 3592.37 994.107C3593.3 995.798 3593.76 997.911 3593.76 1000.45V1026H3585.11V1020.75H3584.81C3584.26 1021.82 3583.49 1022.81 3582.5 1023.74C3581.52 1024.65 3580.29 1025.39 3578.8 1025.95C3577.32 1026.5 3575.59 1026.77 3573.6 1026.77ZM3575.94 1020.16C3577.74 1020.16 3579.31 1019.8 3580.63 1019.09C3581.96 1018.36 3582.98 1017.4 3583.69 1016.21C3584.42 1015.01 3584.79 1013.71 3584.79 1012.3V1007.8C3584.5 1008.04 3584.02 1008.25 3583.34 1008.45C3582.68 1008.65 3581.94 1008.82 3581.11 1008.97C3580.28 1009.12 3579.46 1009.25 3578.65 1009.37C3577.83 1009.49 3577.13 1009.59 3576.53 1009.67C3575.19 1009.85 3573.99 1010.15 3572.93 1010.56C3571.87 1010.98 3571.03 1011.56 3570.42 1012.3C3569.81 1013.03 3569.5 1013.98 3569.5 1015.14C3569.5 1016.79 3570.1 1018.05 3571.31 1018.89C3572.52 1019.74 3574.06 1020.16 3575.94 1020.16ZM3611.01 1014.02L3610.99 1003.16H3612.43L3626.15 987.818H3636.66L3619.79 1006.61H3617.92L3611.01 1014.02ZM3602.81 1026V975.091H3611.81V1026H3602.81ZM3626.77 1026L3614.34 1008.62L3620.41 1002.29L3637.53 1026H3626.77ZM3657.99 1026.75C3654.16 1026.75 3650.86 1025.95 3648.07 1024.36C3645.31 1022.75 3643.18 1020.48 3641.69 1017.55C3640.19 1014.6 3639.45 1011.13 3639.45 1007.13C3639.45 1003.21 3640.19 999.758 3641.69 996.792C3643.19 993.809 3645.3 991.489 3648 989.832C3650.7 988.158 3653.87 987.321 3657.52 987.321C3659.87 987.321 3662.09 987.702 3664.18 988.464C3666.29 989.21 3668.14 990.37 3669.75 991.945C3671.37 993.519 3672.65 995.524 3673.58 997.96C3674.51 1000.38 3674.97 1003.26 3674.97 1006.61V1009.37H3643.67V1003.3H3666.35C3666.33 1001.58 3665.96 1000.05 3665.23 998.706C3664.5 997.347 3663.48 996.278 3662.17 995.499C3660.88 994.72 3659.37 994.331 3657.64 994.331C3655.81 994.331 3654.19 994.778 3652.8 995.673C3651.41 996.552 3650.32 997.712 3649.54 999.153C3648.78 1000.58 3648.39 1002.14 3648.37 1003.85V1009.15C3648.37 1011.37 3648.78 1013.27 3649.59 1014.86C3650.4 1016.44 3651.54 1017.65 3653 1018.49C3654.45 1019.32 3656.16 1019.74 3658.12 1019.74C3659.43 1019.74 3660.61 1019.55 3661.67 1019.19C3662.73 1018.81 3663.65 1018.25 3664.43 1017.52C3665.21 1016.79 3665.8 1015.89 3666.2 1014.81L3674.6 1015.76C3674.07 1017.98 3673.06 1019.92 3671.57 1021.58C3670.09 1023.22 3668.2 1024.49 3665.9 1025.4C3663.59 1026.3 3660.96 1026.75 3657.99 1026.75ZM3682.58 1026V987.818H3691.31V994.182H3691.71C3692.4 991.978 3693.6 990.279 3695.29 989.086C3696.99 987.876 3698.94 987.271 3701.13 987.271C3701.62 987.271 3702.18 987.296 3702.79 987.346C3703.42 987.379 3703.94 987.437 3704.36 987.52V995.798C3703.98 995.665 3703.37 995.549 3702.54 995.45C3701.73 995.334 3700.95 995.276 3700.18 995.276C3698.54 995.276 3697.07 995.632 3695.76 996.344C3694.47 997.04 3693.45 998.01 3692.7 999.253C3691.95 1000.5 3691.58 1001.93 3691.58 1003.55V1026H3682.58Z" fill="white"/>
<path d="M3229.15 1987.35C3228.74 1986.01 3228.17 1984.8 3227.44 1983.74C3226.73 1982.67 3225.87 1981.75 3224.85 1980.98C3223.86 1980.22 3222.72 1979.65 3221.42 1979.27C3220.13 1978.87 3218.72 1978.67 3217.2 1978.67C3214.46 1978.67 3212.03 1979.36 3209.89 1980.74C3207.75 1982.11 3206.07 1984.13 3204.84 1986.8C3203.63 1989.45 3203.03 1992.68 3203.03 1996.5C3203.03 2000.34 3203.63 2003.6 3204.84 2006.26C3206.05 2008.93 3207.74 2010.96 3209.89 2012.36C3212.04 2013.73 3214.55 2014.42 3217.4 2014.42C3219.98 2014.42 3222.22 2013.92 3224.11 2012.93C3226.01 2011.93 3227.48 2010.52 3228.51 2008.7C3229.54 2006.86 3230.05 2004.71 3230.05 2002.24L3232.14 2002.56H3218.32V1995.35H3238.97V2001.47C3238.97 2005.83 3238.05 2009.6 3236.19 2012.78C3234.33 2015.96 3231.78 2018.41 3228.53 2020.14C3225.29 2021.84 3221.56 2022.7 3217.35 2022.7C3212.66 2022.7 3208.54 2021.64 3204.99 2019.54C3201.46 2017.42 3198.7 2014.41 3196.72 2010.52C3194.74 2006.6 3193.76 2001.96 3193.76 1996.6C3193.76 1992.49 3194.34 1988.81 3195.5 1985.58C3196.67 1982.35 3198.31 1979.61 3200.42 1977.36C3202.52 1975.08 3204.99 1973.36 3207.83 1972.18C3210.66 1970.99 3213.74 1970.39 3217.07 1970.39C3219.89 1970.39 3222.52 1970.81 3224.95 1971.64C3227.39 1972.45 3229.55 1973.61 3231.44 1975.12C3233.35 1976.63 3234.91 1978.42 3236.14 1980.49C3237.37 1982.56 3238.17 1984.85 3238.55 1987.35H3229.15ZM3253.09 2036.32C3251.86 2036.32 3250.73 2036.22 3249.68 2036.02C3248.65 2035.84 3247.83 2035.62 3247.22 2035.37L3249.31 2028.36C3250.62 2028.74 3251.79 2028.93 3252.81 2028.91C3253.84 2028.89 3254.74 2028.57 3255.52 2027.94C3256.32 2027.33 3256.99 2026.3 3257.54 2024.86L3258.31 2022.8L3244.46 1983.82H3254.01L3262.81 2012.65H3263.2L3272.03 1983.82H3281.6L3266.31 2026.62C3265.6 2028.65 3264.65 2030.38 3263.48 2031.82C3262.3 2033.28 3260.86 2034.39 3259.15 2035.15C3257.46 2035.93 3255.44 2036.32 3253.09 2036.32ZM3287.83 2022V1983.82H3296.55V1990.18H3296.95C3297.64 1987.98 3298.84 1986.28 3300.53 1985.09C3302.24 1983.88 3304.18 1983.27 3306.37 1983.27C3306.87 1983.27 3307.42 1983.3 3308.04 1983.35C3308.66 1983.38 3309.19 1983.44 3309.6 1983.52V1991.8C3309.22 1991.67 3308.62 1991.55 3307.79 1991.45C3306.97 1991.33 3306.19 1991.28 3305.43 1991.28C3303.78 1991.28 3302.31 1991.63 3301 1992.34C3299.71 1993.04 3298.69 1994.01 3297.94 1995.25C3297.2 1996.5 3296.82 1997.93 3296.82 1999.55V2022H3287.83ZM3330.66 2022.75C3326.93 2022.75 3323.7 2021.93 3320.97 2020.28C3318.23 2018.64 3316.11 2016.35 3314.6 2013.4C3313.11 2010.45 3312.37 2007 3312.37 2003.06C3312.37 1999.11 3313.11 1995.66 3314.6 1992.69C3316.11 1989.73 3318.23 1987.42 3320.97 1985.78C3323.7 1984.14 3326.93 1983.32 3330.66 1983.32C3334.39 1983.32 3337.62 1984.14 3340.36 1985.78C3343.09 1987.42 3345.2 1989.73 3346.7 1992.69C3348.2 1995.66 3348.96 1999.11 3348.96 2003.06C3348.96 2007 3348.2 2010.45 3346.7 2013.4C3345.2 2016.35 3343.09 2018.64 3340.36 2020.28C3337.62 2021.93 3334.39 2022.75 3330.66 2022.75ZM3330.71 2015.54C3332.73 2015.54 3334.42 2014.98 3335.78 2013.87C3337.14 2012.74 3338.15 2011.24 3338.82 2009.35C3339.5 2007.46 3339.83 2005.35 3339.83 2003.03C3339.83 2000.7 3339.5 1998.58 3338.82 1996.69C3338.15 1994.79 3337.14 1993.27 3335.78 1992.15C3334.42 1991.02 3332.73 1990.46 3330.71 1990.46C3328.64 1990.46 3326.92 1991.02 3325.54 1992.15C3324.18 1993.27 3323.16 1994.79 3322.48 1996.69C3321.82 1998.58 3321.49 2000.7 3321.49 2003.03C3321.49 2005.35 3321.82 2007.46 3322.48 2009.35C3323.16 2011.24 3324.18 2012.74 3325.54 2013.87C3326.92 2014.98 3328.64 2015.54 3330.71 2015.54Z" fill="white"/>
<circle cx="1519.5" cy="929.5" r="45" stroke="#767382" stroke-width="7"/>
<circle cx="1519.5" cy="817.5" r="45" stroke="#767382" stroke-width="7"/>
<circle cx="1519.5" cy="700.5" r="45" stroke="#767382" stroke-width="7"/>
<circle cx="1404.5" cy="929.5" r="45" stroke="#767382" stroke-width="7"/>
<circle cx="1404.5" cy="819.5" r="45" stroke="#767382" stroke-width="7"/>
<circle cx="1293.5" cy="932.5" r="45" stroke="#767382" stroke-width="7"/>
<circle cx="1637.5" cy="1047.5" r="45" stroke="#767382" stroke-width="7"/>
<circle cx="2095.5" cy="1047.5" r="45" stroke="#767382" stroke-width="7"/>
<circle cx="2554.5" cy="1047.5" r="45" stroke="#767382" stroke-width="7"/>
<circle cx="1870.5" cy="1613.5" r="45" stroke="#767382" stroke-width="7"/>
<circle cx="1408.5" cy="1046.5" r="45" stroke="#767382" stroke-width="7"/>
<circle cx="1866.5" cy="1046.5" r="45" stroke="#767382" stroke-width="7"/>
<path d="M2369.5 1046.5C2369.5 1071.39 2349.54 1091.5 2325 1091.5C2300.46 1091.5 2280.5 1071.39 2280.5 1046.5C2280.5 1021.61 2300.46 1001.5 2325 1001.5C2349.54 1001.5 2369.5 1021.61 2369.5 1046.5Z" stroke="#767382" stroke-width="7"/>
<circle cx="1641.5" cy="1612.5" r="45" stroke="#767382" stroke-width="7"/>
<circle cx="2099.5" cy="1612.5" r="45" stroke="#767382" stroke-width="7"/>
<circle cx="1637.5" cy="1160.5" r="45" stroke="#767382" stroke-width="7"/>
<circle cx="1637.5" cy="1386.5" r="45" stroke="#767382" stroke-width="7"/>
<circle cx="2095.5" cy="1160.5" r="45" stroke="#767382" stroke-width="7"/>
<circle cx="2095.5" cy="1386.5" r="45" stroke="#767382" stroke-width="7"/>
<circle cx="2554.5" cy="1160.5" r="45" stroke="#767382" stroke-width="7"/>
<circle cx="2554.5" cy="1386.5" r="45" stroke="#767382" stroke-width="7"/>
<circle cx="1864.5" cy="593.5" r="45" stroke="#767382" stroke-width="7"/>
<circle cx="1870.5" cy="1726.5" r="45" stroke="#767382" stroke-width="7"/>
<circle cx="1864.5" cy="819.5" r="45" stroke="#767382" stroke-width="7"/>
<circle cx="1870.5" cy="1952.5" r="45" stroke="#767382" stroke-width="7"/>
<circle cx="1408.5" cy="1159.5" r="45" stroke="#767382" stroke-width="7"/>
<circle cx="1408.5" cy="1385.5" r="45" stroke="#767382" stroke-width="7"/>
<circle cx="1866.5" cy="1159.5" r="45" stroke="#767382" stroke-width="7"/>
<circle cx="1866.5" cy="1385.5" r="45" stroke="#767382" stroke-width="7"/>
<path d="M2369.5 1159.5C2369.5 1184.39 2349.54 1204.5 2325 1204.5C2300.46 1204.5 2280.5 1184.39 2280.5 1159.5C2280.5 1134.61 2300.46 1114.5 2325 1114.5C2349.54 1114.5 2369.5 1134.61 2369.5 1159.5Z" stroke="#767382" stroke-width="7"/>
<path d="M2369.5 1385.5C2369.5 1410.39 2349.54 1430.5 2325 1430.5C2300.46 1430.5 2280.5 1410.39 2280.5 1385.5C2280.5 1360.61 2300.46 1340.5 2325 1340.5C2349.54 1340.5 2369.5 1360.61 2369.5 1385.5Z" stroke="#767382" stroke-width="7"/>
<circle cx="1635.5" cy="592.5" r="45" stroke="#767382" stroke-width="7"/>
<circle cx="1641.5" cy="1725.5" r="45" stroke="#767382" stroke-width="7"/>
<circle cx="1635.5" cy="818.5" r="45" stroke="#767382" stroke-width="7"/>
<circle cx="1641.5" cy="1951.5" r="45" stroke="#767382" stroke-width="7"/>
<circle cx="2093.5" cy="592.5" r="45" stroke="#767382" stroke-width="7"/>
<circle cx="2099.5" cy="1725.5" r="45" stroke="#767382" stroke-width="7"/>
<circle cx="2093.5" cy="818.5" r="45" stroke="#767382" stroke-width="7"/>
<circle cx="2099.5" cy="1951.5" r="45" stroke="#767382" stroke-width="7"/>
<circle cx="1293.5" cy="1160.5" r="45" stroke="#767382" stroke-width="7"/>
<circle cx="1293.5" cy="1386.5" r="45" stroke="#767382" stroke-width="7"/>
<circle cx="1751.5" cy="1160.5" r="45" stroke="#767382" stroke-width="7"/>
<circle cx="1751.5" cy="1386.5" r="45" stroke="#767382" stroke-width="7"/>
<circle cx="2210.5" cy="1160.5" r="45" stroke="#767382" stroke-width="7"/>
<circle cx="2210.5" cy="1386.5" r="45" stroke="#767382" stroke-width="7"/>
<circle cx="2668.5" cy="1160.5" r="45" stroke="#767382" stroke-width="7"/>
<circle cx="2668.5" cy="1386.5" r="45" stroke="#767382" stroke-width="7"/>
<circle cx="1979.5" cy="593.5" r="45" stroke="#767382" stroke-width="7"/>
<circle cx="1985.5" cy="1726.5" r="45" stroke="#767382" stroke-width="7"/>
<circle cx="1979.5" cy="819.5" r="45" stroke="#767382" stroke-width="7"/>
<circle cx="1985.5" cy="1952.5" r="45" stroke="#767382" stroke-width="7"/>
<circle cx="1522.5" cy="1159.5" r="45" stroke="#767382" stroke-width="7"/>
<circle cx="1522.5" cy="1385.5" r="45" stroke="#767382" stroke-width="7"/>
<circle cx="1981.5" cy="1159.5" r="45" stroke="#767382" stroke-width="7"/>
<circle cx="1981.5" cy="1385.5" r="45" stroke="#767382" stroke-width="7"/>
<circle cx="2439.5" cy="1159.5" r="45" stroke="#767382" stroke-width="7"/>
<circle cx="2439.5" cy="1385.5" r="45" stroke="#767382" stroke-width="7"/>
<circle cx="1750.5" cy="592.5" r="45" stroke="#767382" stroke-width="7"/>
<circle cx="1756.5" cy="1725.5" r="45" stroke="#767382" stroke-width="7"/>
<circle cx="1750.5" cy="818.5" r="45" stroke="#767382" stroke-width="7"/>
<circle cx="1756.5" cy="1951.5" r="45" stroke="#767382" stroke-width="7"/>
<circle cx="2208.5" cy="592.5" r="45" stroke="#767382" stroke-width="7"/>
<circle cx="2214.5" cy="1725.5" r="45" stroke="#767382" stroke-width="7"/>
<circle cx="2208.5" cy="818.5" r="45" stroke="#767382" stroke-width="7"/>
<circle cx="2214.5" cy="1951.5" r="45" stroke="#767382" stroke-width="7"/>
<circle cx="2323.5" cy="592.5" r="45" stroke="#767382" stroke-width="7"/>
<circle cx="2329.5" cy="1725.5" r="45" stroke="#767382" stroke-width="7"/>
<circle cx="2323.5" cy="818.5" r="45" stroke="#767382" stroke-width="7"/>
<circle cx="2329.5" cy="1951.5" r="45" stroke="#767382" stroke-width="7"/>
<circle cx="1522.5" cy="1613.5" r="45" stroke="#767382" stroke-width="7"/>
<circle cx="1522.5" cy="1725.5" r="45" stroke="#767382" stroke-width="7"/>
<circle cx="1522.5" cy="1839.5" r="45" stroke="#767382" stroke-width="7"/>
<circle cx="1403.5" cy="1724.5" r="45" stroke="#767382" stroke-width="7"/>
<circle cx="1403.5" cy="1612.5" r="45" stroke="#767382" stroke-width="7"/>
<circle cx="1290.5" cy="1612.5" r="45" stroke="#767382" stroke-width="7"/>
<circle cx="1637.5" cy="1273.5" r="45" stroke="#767382" stroke-width="7"/>
<circle cx="1637.5" cy="1499.5" r="45" stroke="#767382" stroke-width="7"/>
<circle cx="2095.5" cy="1273.5" r="45" stroke="#767382" stroke-width="7"/>
<circle cx="2095.5" cy="1499.5" r="45" stroke="#767382" stroke-width="7"/>
<circle cx="2554.5" cy="1273.5" r="45" stroke="#767382" stroke-width="7"/>
<circle cx="2554.5" cy="1499.5" r="45" stroke="#767382" stroke-width="7"/>
<circle cx="1864.5" cy="706.5" r="45" stroke="#767382" stroke-width="7"/>
<circle cx="1870.5" cy="1839.5" r="45" stroke="#767382" stroke-width="7"/>
<circle cx="1864.5" cy="932.5" r="45" stroke="#767382" stroke-width="7"/>
<circle cx="1408.5" cy="1272.5" r="45" stroke="#767382" stroke-width="7"/>
<circle cx="1408.5" cy="1498.5" r="45" stroke="#767382" stroke-width="7"/>
<circle cx="1866.5" cy="1272.5" r="45" stroke="#767382" stroke-width="7"/>
<circle cx="1866.5" cy="1498.5" r="45" stroke="#767382" stroke-width="7"/>
<path d="M2369.5 1272.5C2369.5 1297.39 2349.54 1317.5 2325 1317.5C2300.46 1317.5 2280.5 1297.39 2280.5 1272.5C2280.5 1247.61 2300.46 1227.5 2325 1227.5C2349.54 1227.5 2369.5 1247.61 2369.5 1272.5Z" stroke="#767382" stroke-width="7"/>
<path d="M2369.5 1498.5C2369.5 1523.39 2349.54 1543.5 2325 1543.5C2300.46 1543.5 2280.5 1523.39 2280.5 1498.5C2280.5 1473.61 2300.46 1453.5 2325 1453.5C2349.54 1453.5 2369.5 1473.61 2369.5 1498.5Z" stroke="#767382" stroke-width="7"/>
<circle cx="1635.5" cy="705.5" r="45" stroke="#767382" stroke-width="7"/>
<circle cx="1641.5" cy="1838.5" r="45" stroke="#767382" stroke-width="7"/>
<circle cx="1635.5" cy="931.5" r="45" stroke="#767382" stroke-width="7"/>
<circle cx="2093.5" cy="705.5" r="45" stroke="#767382" stroke-width="7"/>
<circle cx="2099.5" cy="1838.5" r="45" stroke="#767382" stroke-width="7"/>
<circle cx="2093.5" cy="931.5" r="45" stroke="#767382" stroke-width="7"/>
<circle cx="1293.5" cy="1273.5" r="45" stroke="#767382" stroke-width="7"/>
<circle cx="1293.5" cy="1499.5" r="45" stroke="#767382" stroke-width="7"/>
<circle cx="1751.5" cy="1273.5" r="45" stroke="#767382" stroke-width="7"/>
<circle cx="1751.5" cy="1499.5" r="45" stroke="#767382" stroke-width="7"/>
<circle cx="2210.5" cy="1273.5" r="45" stroke="#767382" stroke-width="7"/>
<circle cx="2210.5" cy="1499.5" r="45" stroke="#767382" stroke-width="7"/>
<circle cx="2668.5" cy="1273.5" r="45" stroke="#767382" stroke-width="7"/>
<circle cx="2668.5" cy="1499.5" r="45" stroke="#767382" stroke-width="7"/>
<circle cx="1979.5" cy="706.5" r="45" stroke="#767382" stroke-width="7"/>
<circle cx="1985.5" cy="1839.5" r="45" stroke="#767382" stroke-width="7"/>
<circle cx="1979.5" cy="932.5" r="45" stroke="#767382" stroke-width="7"/>
<circle cx="1522.5" cy="1272.5" r="45" stroke="#767382" stroke-width="7"/>
<circle cx="1522.5" cy="1498.5" r="45" stroke="#767382" stroke-width="7"/>
<circle cx="1981.5" cy="1272.5" r="45" stroke="#767382" stroke-width="7"/>
<circle cx="1981.5" cy="1498.5" r="45" stroke="#767382" stroke-width="7"/>
<circle cx="2439.5" cy="1272.5" r="45" stroke="#767382" stroke-width="7"/>
<circle cx="2439.5" cy="1498.5" r="45" stroke="#767382" stroke-width="7"/>
<circle cx="1750.5" cy="705.5" r="45" stroke="#767382" stroke-width="7"/>
<circle cx="1756.5" cy="1838.5" r="45" stroke="#767382" stroke-width="7"/>
<circle cx="1750.5" cy="931.5" r="45" stroke="#767382" stroke-width="7"/>
<circle cx="2208.5" cy="705.5" r="45" stroke="#767382" stroke-width="7"/>
<circle cx="2214.5" cy="1838.5" r="45" stroke="#767382" stroke-width="7"/>
<circle cx="2208.5" cy="931.5" r="45" stroke="#767382" stroke-width="7"/>
<circle cx="2323.5" cy="705.5" r="45" stroke="#767382" stroke-width="7"/>
<circle cx="2329.5" cy="1838.5" r="45" stroke="#767382" stroke-width="7"/>
<circle cx="2323.5" cy="931.5" r="45" stroke="#767382" stroke-width="7"/>
<circle cx="1293.5" cy="1047.5" r="45" stroke="#767382" stroke-width="7"/>
<circle cx="1751.5" cy="1047.5" r="45" stroke="#767382" stroke-width="7"/>
<circle cx="2210.5" cy="1047.5" r="45" stroke="#767382" stroke-width="7"/>
<circle cx="2668.5" cy="1047.5" r="45" stroke="#767382" stroke-width="7"/>
<circle cx="1985.5" cy="1613.5" r="45" stroke="#767382" stroke-width="7"/>
<circle cx="1522.5" cy="1046.5" r="45" stroke="#767382" stroke-width="7"/>
<circle cx="1981.5" cy="1046.5" r="45" stroke="#767382" stroke-width="7"/>
<circle cx="2439.5" cy="1046.5" r="45" stroke="#767382" stroke-width="7"/>
<circle cx="2439.5" cy="932.5" r="45" stroke="#767382" stroke-width="7"/>
<circle cx="2439.5" cy="819.5" r="45" stroke="#767382" stroke-width="7"/>
<circle cx="2439.5" cy="705.5" r="45" stroke="#767382" stroke-width="7"/>
<circle cx="2553.5" cy="817.5" r="45" stroke="#767382" stroke-width="7"/>
<circle cx="2553.5" cy="929.5" r="45" stroke="#767382" stroke-width="7"/>
<circle cx="2658.5" cy="934.5" r="45" stroke="#767382" stroke-width="7"/>
<circle cx="1756.5" cy="1612.5" r="45" stroke="#767382" stroke-width="7"/>
<circle cx="2214.5" cy="1612.5" r="45" stroke="#767382" stroke-width="7"/>
<circle cx="2329.5" cy="1612.5" r="45" stroke="#767382" stroke-width="7"/>
<circle cx="2439.5" cy="1612.5" r="45" stroke="#767382" stroke-width="7"/>
<circle cx="2553.5" cy="1612.5" r="45" stroke="#767382" stroke-width="7"/>
<circle cx="2667.5" cy="1612.5" r="45" stroke="#767382" stroke-width="7"/>
<circle cx="2439.5" cy="1726.5" r="45" stroke="#767382" stroke-width="7"/>
<circle cx="2553.5" cy="1726.5" r="45" stroke="#767382" stroke-width="7"/>
<circle cx="2439.5" cy="1840.5" r="45" stroke="#767382" stroke-width="7"/>
<line x1="1323.82" y1="1186.28" x2="1374.82" y2="1240.28" stroke="#767382" stroke-opacity="0.7" stroke-width="5"/>
<line x1="1490.02" y1="1078.94" x2="1438.58" y2="1132.52" stroke="#767382" stroke-opacity="0.7" stroke-width="5"/>
<line x1="1608.24" y1="1303.73" x2="1556.8" y2="1357.31" stroke="#767382" stroke-opacity="0.7" stroke-width="5"/>
<line x1="1837.24" y1="1303.73" x2="1785.8" y2="1357.31" stroke="#767382" stroke-opacity="0.7" stroke-width="5"/>
<path d="M2074.5 1197.5L2005 1347" stroke="#767382" stroke-opacity="0.7" stroke-width="5"/>
<path d="M2532.5 1080.4L2463 1229.9" stroke="#767382" stroke-opacity="0.7" stroke-width="5"/>
<path d="M1956.5 631.4L1887 780.9" stroke="#767382" stroke-opacity="0.7" stroke-width="5"/>
<path d="M1962.5 1764.4L1893 1913.9" stroke="#767382" stroke-opacity="0.7" stroke-width="5"/>
<path d="M2185.5 744.4L2116 893.9" stroke="#767382" stroke-opacity="0.7" stroke-width="5"/>
<path d="M2080.5 1647.4L2011 1796.9" stroke="#767382" stroke-opacity="0.7" stroke-width="5"/>
<path d="M2302.5 1311.4L2233 1460.9" stroke="#767382" stroke-opacity="0.7" stroke-width="5"/>
<path d="M2400.5 1411L2248.5 1476" stroke="#767382" stroke-opacity="0.7" stroke-width="5"/>
<path d="M2630 1184.98L2478 1249.98" stroke="#767382" stroke-opacity="0.7" stroke-width="5"/>
<path d="M2630 1405.98L2478 1470.98" stroke="#767382" stroke-opacity="0.7" stroke-width="5"/>
<path d="M2286 1183.98L2134 1248.98" stroke="#767382" stroke-opacity="0.7" stroke-width="5"/>
<path d="M1941 1067.98L1789 1132.98" stroke="#767382" stroke-opacity="0.7" stroke-width="5"/>
<path d="M2172 1411.98L2020 1476.98" stroke="#767382" stroke-opacity="0.7" stroke-width="5"/>
<path d="M1829 1410.98L1677 1475.98" stroke="#767382" stroke-opacity="0.7" stroke-width="5"/>
<path d="M1483 1409.98L1331 1474.98" stroke="#767382" stroke-opacity="0.7" stroke-width="5"/>
<path d="M1715 1247.5L1560 1187" stroke="#767382" stroke-opacity="0.7" stroke-width="5"/>
<path d="M1715.76 1134.5L1560.76 1074" stroke="#767382" stroke-opacity="0.7" stroke-width="5"/>
<path d="M2062.76 1248.5L1907.76 1188" stroke="#767382" stroke-opacity="0.7" stroke-width="5"/>
<path d="M2284.76 1134.5L2129.76 1074" stroke="#767382" stroke-opacity="0.7" stroke-width="5"/>
<path d="M2631.76 1134.5L2476.76 1074" stroke="#767382" stroke-opacity="0.7" stroke-width="5"/>
<path d="M1943.76 681.5L1788.76 621.001" stroke="#767382" stroke-opacity="0.7" stroke-width="5"/>
<path d="M1949.76 1814.5L1794.76 1754" stroke="#767382" stroke-opacity="0.7" stroke-width="5"/>
<path d="M2172.76 793.5L2017.76 733.001" stroke="#767382" stroke-opacity="0.7" stroke-width="5"/>
<path d="M2178.76 1926.5L2023.76 1866" stroke="#767382" stroke-opacity="0.7" stroke-width="5"/>
<path d="M2286.76 681.5L2131.76 621.001" stroke="#767382" stroke-opacity="0.7" stroke-width="5"/>
<path d="M2292.76 1814.5L2137.76 1754" stroke="#767382" stroke-opacity="0.7" stroke-width="5"/>
<path d="M1883.81 1309L1963 1456.5" stroke="#767382" stroke-opacity="0.7" stroke-width="5"/>
<path d="M2000.37 1087L2079.56 1234.5" stroke="#767382" stroke-opacity="0.7" stroke-width="5"/>
<path d="M2114.37 1313L2193.56 1460.5" stroke="#767382" stroke-opacity="0.7" stroke-width="5"/>
<path d="M2575.37 1313L2654.56 1460.5" stroke="#767382" stroke-opacity="0.7" stroke-width="5"/>
<path d="M1769.37 746L1848.56 893.5" stroke="#767382" stroke-opacity="0.7" stroke-width="5"/>
<path d="M1656.37 1199L1735.56 1346.5" stroke="#767382" stroke-opacity="0.7" stroke-width="5"/>
<path d="M1311.37 1081L1390.56 1228.5" stroke="#767382" stroke-opacity="0.7" stroke-width="5"/>
<path d="M1499.5 1199.4L1430 1348.9" stroke="#767382" stroke-opacity="0.7" stroke-width="5"/>
<path d="M1958.5 1084.4L1889 1233.9" stroke="#767382" stroke-opacity="0.7" stroke-width="5"/>
<line x1="2410.24" y1="1191.73" x2="2358.8" y2="1245.31" stroke="#767382" stroke-opacity="0.7" stroke-width="5"/>
<line x1="2179.24" y1="737.731" x2="2127.8" y2="791.312" stroke="#767382" stroke-opacity="0.7" stroke-width="5"/>
<line x1="2185.24" y1="1870.73" x2="2133.8" y2="1924.31" stroke="#767382" stroke-opacity="0.7" stroke-width="5"/>
<line x1="2300.24" y1="1641.73" x2="2248.8" y2="1695.31" stroke="#767382" stroke-opacity="0.7" stroke-width="5"/>
<line x1="2069.24" y1="1078.73" x2="2017.8" y2="1132.31" stroke="#767382" stroke-opacity="0.7" stroke-width="5"/>
<line x1="2047" y1="1049.5" x2="2030" y2="1049.5" stroke="#767382" stroke-opacity="0.7" stroke-width="5"/>
<line x1="1817" y1="1049.5" x2="1800" y2="1049.5" stroke="#767382" stroke-opacity="0.7" stroke-width="5"/>
<line x1="1817" y1="1163.5" x2="1800" y2="1163.5" stroke="#767382" stroke-opacity="0.7" stroke-width="5"/>
<line x1="2390" y1="1162.5" x2="2373" y2="1162.5" stroke="#767382" stroke-opacity="0.7" stroke-width="5"/>
<line x1="2620" y1="1276.5" x2="2603" y2="1276.5" stroke="#767382" stroke-opacity="0.7" stroke-width="5"/>
<line x1="1699" y1="594.5" x2="1682" y2="594.5" stroke="#767382" stroke-opacity="0.7" stroke-width="5"/>
<line x1="1707" y1="1727.5" x2="1690" y2="1727.5" stroke="#767382" stroke-opacity="0.7" stroke-width="5"/>
<line x1="1937" y1="1616.5" x2="1915" y2="1616.5" stroke="#767382" stroke-opacity="0.7" stroke-width="5"/>
<line x1="2162" y1="595.5" x2="2140" y2="595.5" stroke="#767382" stroke-opacity="0.7" stroke-width="5"/>
<line x1="2168" y1="1728.5" x2="2146" y2="1728.5" stroke="#767382" stroke-opacity="0.7" stroke-width="5"/>
<line x1="2277" y1="709.5" x2="2255" y2="709.5" stroke="#767382" stroke-opacity="0.7" stroke-width="5"/>
<line x1="2283" y1="1842.5" x2="2261" y2="1842.5" stroke="#767382" stroke-opacity="0.7" stroke-width="5"/>
<line x1="2279" y1="935.5" x2="2257" y2="935.5" stroke="#767382" stroke-opacity="0.7" stroke-width="5"/>
<line x1="2043" y1="934.5" x2="2021" y2="934.5" stroke="#767382" stroke-opacity="0.7" stroke-width="5"/>
<line x1="1978.5" y1="886" x2="1978.5" y2="864" stroke="#767382" stroke-opacity="0.7" stroke-width="5"/>
<line x1="1748.5" y1="884" x2="1748.5" y2="862" stroke="#767382" stroke-opacity="0.7" stroke-width="5"/>
<line x1="1977.5" y1="770" x2="1977.5" y2="748" stroke="#767382" stroke-opacity="0.7" stroke-width="5"/>
<line x1="1983.5" y1="1903" x2="1983.5" y2="1881" stroke="#767382" stroke-opacity="0.7" stroke-width="5"/>
<line x1="1984.5" y1="1677" x2="1984.5" y2="1655" stroke="#767382" stroke-opacity="0.7" stroke-width="5"/>
<line x1="2212.5" y1="1677" x2="2212.5" y2="1655" stroke="#767382" stroke-opacity="0.7" stroke-width="5"/>
<line x1="1754.5" y1="1681" x2="1754.5" y2="1659" stroke="#767382" stroke-opacity="0.7" stroke-width="5"/>
<line x1="2666.5" y1="1115" x2="2666.5" y2="1093" stroke="#767382" stroke-opacity="0.7" stroke-width="5"/>
<line x1="2666.5" y1="1341" x2="2666.5" y2="1319" stroke="#767382" stroke-opacity="0.7" stroke-width="5"/>
<line x1="2437.5" y1="1340" x2="2437.5" y2="1318" stroke="#767382" stroke-opacity="0.7" stroke-width="5"/>
<line x1="2093.5" y1="1341" x2="2093.5" y2="1319" stroke="#767382" stroke-opacity="0.7" stroke-width="5"/>
<line x1="1979.5" y1="1451" x2="1979.5" y2="1429" stroke="#767382" stroke-opacity="0.7" stroke-width="5"/>
<line x1="1635.5" y1="1451" x2="1635.5" y2="1429" stroke="#767382" stroke-opacity="0.7" stroke-width="5"/>
<line x1="1519.5" y1="1451" x2="1519.5" y2="1429" stroke="#767382" stroke-opacity="0.7" stroke-width="5"/>
<line x1="1290.5" y1="1338" x2="1290.5" y2="1316" stroke="#767382" stroke-opacity="0.7" stroke-width="5"/>
<line x1="1752.5" y1="1338" x2="1752.5" y2="1316" stroke="#767382" stroke-opacity="0.7" stroke-width="5"/>
<line x1="1864.5" y1="1226" x2="1864.5" y2="1204" stroke="#767382" stroke-opacity="0.7" stroke-width="5"/>
<line x1="2322.5" y1="1221" x2="2322.5" y2="1199" stroke="#767382" stroke-opacity="0.7" stroke-width="5"/>
<line x1="2437.5" y1="1111" x2="2437.5" y2="1089" stroke="#767382" stroke-opacity="0.7" stroke-width="5"/>
<line x1="1748.5" y1="658" x2="1748.5" y2="636" stroke="#767382" stroke-opacity="0.7" stroke-width="5"/>
<line x1="1754.5" y1="1791" x2="1754.5" y2="1769" stroke="#767382" stroke-opacity="0.7" stroke-width="5"/>
<line x1="1868.5" y1="1678" x2="1868.5" y2="1656" stroke="#767382" stroke-opacity="0.7" stroke-width="5"/>
<line x1="2505" y1="1389.5" x2="2488" y2="1389.5" stroke="#767382" stroke-opacity="0.7" stroke-width="5"/>
<line x1="2161" y1="1502.5" x2="2144" y2="1502.5" stroke="#767382" stroke-opacity="0.7" stroke-width="5"/>
<line x1="1817" y1="1502.5" x2="1800" y2="1502.5" stroke="#767382" stroke-opacity="0.7" stroke-width="5"/>
<line x1="1588" y1="1502.5" x2="1571" y2="1502.5" stroke="#767382" stroke-opacity="0.7" stroke-width="5"/>
<line x1="1471" y1="1388.5" x2="1454" y2="1388.5" stroke="#767382" stroke-opacity="0.7" stroke-width="5"/>
<line x1="1476" y1="1163.5" x2="1459" y2="1163.5" stroke="#767382" stroke-opacity="0.7" stroke-width="5"/>
<line x1="1356" y1="1049.5" x2="1339" y2="1049.5" stroke="#767382" stroke-opacity="0.7" stroke-width="5"/>
<line x1="1719.24" y1="1078.73" x2="1667.8" y2="1132.31" stroke="#767382" stroke-opacity="0.7" stroke-width="5"/>
<line x1="1786.82" y1="1188.28" x2="1837.82" y2="1242.28" stroke="#767382" stroke-opacity="0.7" stroke-width="5"/>
<line x1="2015.82" y1="1300.28" x2="2066.82" y2="1354.28" stroke="#767382" stroke-opacity="0.7" stroke-width="5"/>
<line x1="1556.82" y1="1415.28" x2="1607.82" y2="1469.28" stroke="#767382" stroke-opacity="0.7" stroke-width="5"/>
<line x1="2243.82" y1="1078.28" x2="2294.82" y2="1132.28" stroke="#767382" stroke-opacity="0.7" stroke-width="5"/>
<line x1="2473.82" y1="1301.28" x2="2524.82" y2="1355.28" stroke="#767382" stroke-opacity="0.7" stroke-width="5"/>
<line x1="1789.82" y1="1641.28" x2="1840.82" y2="1695.28" stroke="#767382" stroke-opacity="0.7" stroke-width="5"/>
<line x1="2013.82" y1="621.283" x2="2064.82" y2="675.283" stroke="#767382" stroke-opacity="0.7" stroke-width="5"/>
<line x1="2019.82" y1="1754.28" x2="2070.82" y2="1808.28" stroke="#767382" stroke-opacity="0.7" stroke-width="5"/>
<line x1="2010.82" y1="848.283" x2="2061.82" y2="902.283" stroke="#767382" stroke-opacity="0.7" stroke-width="5"/>
<line x1="2242.82" y1="848.283" x2="2293.82" y2="902.283" stroke="#767382" stroke-opacity="0.7" stroke-width="5"/>
<line x1="1669.82" y1="734.283" x2="1720.82" y2="788.283" stroke="#767382" stroke-opacity="0.7" stroke-width="5"/>
<line x1="1675.82" y1="1867.28" x2="1726.82" y2="1921.28" stroke="#767382" stroke-opacity="0.7" stroke-width="5"/>
</svg>
