<svg width="3949" height="703" viewBox="0 0 3949 703" fill="none" xmlns="http://www.w3.org/2000/svg">
<g clip-path="url(#clip0_124_1157)">
<path d="M380.872 438.172C380.044 430.444 379.216 421.889 371.211 418.3C368.175 416.92 365.139 416.367 362.103 415.817C358.792 415.264 356.031 414.713 353.548 413.608C352.167 412.228 350.787 411.125 349.408 409.744C346.925 405.881 346.925 400.083 346.925 394.289C346.925 391.528 346.925 388.769 346.649 386.286C345.822 378.005 344.166 368.897 335.61 363.93C329.538 360.342 320.982 360.342 313.807 360.342H311.324C309.944 360.342 308.563 360.342 306.907 360.067C306.355 355.375 305.252 350.683 303.044 346.819C299.18 340.195 292.28 335.503 283.724 333.847H283.172C281.791 333.572 280.411 333.294 279.308 333.019C279.032 331.363 278.755 329.431 278.48 327.5C276.824 316.183 275.168 303.488 267.441 296.311C269.374 293.828 271.029 290.514 270.752 285.272V284.72L265.508 271.472C258.332 256.569 243.152 247.184 226.591 247.184H225.488C211.412 247.459 196.232 251.875 185.468 258.5C171.668 267.056 165.321 275.612 163.94 277.545C161.732 278.648 154.279 283.617 144.621 299.348C137.996 310.387 133.582 325.292 133.304 339.092C133.029 355.928 142.412 371.659 157.593 379.112L170.012 385.459C170.288 385.459 170.565 385.734 170.84 385.734H172.221C177.74 385.734 182.157 382.974 184.64 378.559C185.193 378.559 185.468 378.559 186.021 378.284C186.021 378.559 186.296 378.559 186.296 378.836C192.92 387.669 204.788 389.048 216.104 390.428C217.207 390.428 218.312 390.703 219.415 390.703C219.691 391.807 219.968 393.187 220.243 394.567V395.12C221.899 403.675 226.591 410.575 233.215 414.439C237.907 417.2 243.979 418.028 249.499 418.579C249.499 419.959 249.774 421.615 249.774 422.995V425.479C249.774 432.931 249.774 441.212 253.363 447.282C258.33 455.837 267.438 457.493 275.718 458.321C278.202 458.596 280.963 458.596 283.721 458.596C287.86 458.596 292.002 458.596 295.313 459.424C297.797 462.735 300.833 465.771 304.146 467.979C304.699 469.912 304.974 471.843 305.249 473.776C305.802 476.812 306.352 480.124 307.733 482.884C311.321 490.887 319.877 491.717 327.605 492.545C329.538 492.821 331.469 492.821 333.124 493.373H333.4C334.227 493.373 335.333 492.821 335.333 491.717C335.608 490.614 334.78 489.509 333.677 489.509C331.744 489.234 329.813 488.957 327.88 488.681C320.704 487.853 313.804 487.301 311.319 481.506C310.216 479.022 309.663 476.261 309.386 473.225C309.111 472.122 309.111 471.292 308.833 470.189C312.973 471.292 316.836 471.017 320.978 470.465C325.945 469.912 330.914 470.189 337.261 471.845C346.922 474.053 349.958 479.297 354.925 487.853L355.201 488.405C355.476 488.958 356.304 489.509 356.856 489.509C357.132 489.509 357.409 489.509 357.96 489.233C358.787 488.681 359.34 487.578 358.787 486.473L358.512 485.92C353.268 477.087 349.679 470.465 338.365 467.981C331.465 466.325 326.22 466.048 320.701 466.601C315.734 467.153 311.868 467.428 307.729 465.497C306.625 462.737 304.968 460.253 301.932 458.045C300.828 457.217 299.448 456.665 298.068 456.112C296.412 453.904 295.032 451.973 293.929 450.04L291.996 447.279C288.132 441.482 284.268 435.687 279.299 430.443C271.018 421.61 263.015 416.919 253.632 415.54H253.079C250.871 401.188 242.591 391.804 229.343 388.768C227.135 388.216 224.927 387.94 222.719 387.665C221.615 383.801 219.682 380.49 216.094 376.901C212.783 373.865 209.194 372.209 205.883 370.829C203.95 370.001 202.019 369.173 200.086 368.068C200.361 367.516 200.638 366.965 200.913 366.413H201.466C205.055 366.413 207.813 365.032 210.299 363.376C218.854 374.14 228.791 378.832 236.243 382.421C240.107 384.354 243.971 385.732 247.56 387.388C254.735 390.149 260.807 392.632 264.121 396.221C265.501 397.601 267.157 400.085 268.537 402.018C271.849 406.434 272.677 407.815 274.334 407.815C275.162 407.815 275.715 407.54 275.99 406.987C276.818 405.884 276.818 404.503 274.887 399.259C275.162 397.326 275.162 395.395 274.887 393.462C274.887 393.187 274.612 392.634 274.612 392.359C275.715 394.292 277.095 394.567 278.2 394.842C278.753 394.842 279.028 395.118 279.581 395.395C280.408 395.67 280.684 396.223 280.684 397.603C280.684 397.879 280.684 398.156 280.408 398.431C280.133 399.259 280.133 400.087 280.133 400.915C280.408 402.295 281.236 403.123 282.066 403.951C282.341 404.226 282.619 404.503 282.619 404.779C284.827 407.539 285.93 408.643 288.691 410.298C288.966 410.851 289.243 411.126 289.518 411.679C289.518 412.231 289.518 412.782 289.794 413.334C290.622 416.095 292.002 418.301 294.21 419.131C295.038 419.684 296.143 419.684 296.694 419.684C298.349 421.064 300.005 422.167 301.938 422.72C302.766 423.823 304.147 424.928 306.077 425.481C306.63 425.481 306.905 425.756 307.458 425.756C309.391 425.756 310.494 424.928 311.597 424.1C312.7 424.1 313.805 423.825 314.908 423.548C324.292 421.892 327.88 413.887 327.328 408.92C327.053 405.884 325.395 403.953 323.189 403.953H322.913C320.153 403.953 319.325 406.713 318.774 408.644C317.946 411.405 317.394 413.336 313.255 413.336C312.152 413.336 310.771 413.061 309.391 412.784C302.491 411.403 301.11 407.817 297.524 397.603C294.488 389.323 290.071 376.903 279.585 358.964C271.029 344.061 258.885 330.261 250.604 322.531C251.707 320.598 252.537 318.115 252.537 315.079C253.365 314.803 254.193 314.251 255.298 313.423C256.678 315.631 257.782 317.562 258.609 319.495C260.265 322.806 262.198 326.395 265.234 329.983C268.545 333.847 272.134 335.503 275.998 336.608C276.273 337.988 276.551 339.369 276.826 340.472C279.862 353.719 289.245 362 303.598 364.208C303.873 365.311 303.873 366.416 304.15 367.519C305.531 376.627 310.222 384.908 319.053 393.186C324.02 397.878 330.092 402.019 335.889 405.883L338.65 407.816C341.134 409.472 344.17 411.405 346.653 413.613C348.034 415.546 349.689 416.925 351.345 417.752C352.448 418.856 353.278 419.961 353.829 421.064C356.312 425.203 355.761 429.344 355.209 434.864C354.656 440.383 354.934 445.628 356.589 452.528C359.073 463.844 365.697 467.708 374.528 472.675L375.081 472.951C375.356 473.226 375.633 473.226 376.184 473.226C377.012 473.226 377.564 472.951 377.84 472.123C378.392 471.295 378.115 469.915 377.012 469.362L376.459 469.087C367.904 464.12 362.659 461.084 360.451 451.423C359.071 445.075 358.518 440.106 359.071 435.139C359.623 429.895 360.174 425.203 357.691 420.236C359.071 420.511 360.451 420.789 361.554 421.064C364.591 421.617 367.351 421.892 369.835 423.272C375.632 425.756 376.459 432.656 377.01 439.833C377.286 441.766 377.563 443.697 377.838 445.63C378.114 446.733 378.941 447.286 379.771 447.286H380.047C381.15 447.011 381.979 446.183 381.702 445.078C381.425 442.038 381.148 440.105 380.872 438.174L380.872 438.172ZM275.992 432.375C280.684 437.342 284.548 443.139 288.137 448.659L290.069 451.419C290.622 452.247 291.173 453.352 292.002 454.18C289.242 453.905 286.483 453.905 283.722 453.905C280.961 453.905 278.477 453.905 275.994 453.63C266.61 452.526 260.261 450.869 256.674 444.522C253.638 439.277 253.638 431.55 253.638 424.65V422.166C253.638 420.786 253.638 419.683 253.363 418.577C261.364 420.233 268.54 424.648 275.992 432.376L275.992 432.375ZM228.245 391.803C241.769 394.839 247.012 404.5 248.945 414.159C244.253 413.606 239.009 412.778 235.42 410.57C229.901 407.259 225.759 401.462 224.381 394.009V393.457C224.106 392.629 224.106 391.801 223.828 390.973C225.209 391.252 226.589 391.527 228.245 391.803L228.245 391.803ZM203.956 373.864C207.267 375.245 210.304 376.348 213.064 379.109C215.548 381.317 216.928 383.8 218.031 386.284C217.479 386.284 216.928 386.284 216.375 386.009C206.164 384.906 195.675 383.801 189.878 376.625C193.19 375.245 195.675 372.761 197.331 370.553C199.539 371.934 201.747 373.037 203.955 373.865L203.956 373.864ZM270.748 397.6C269.368 395.667 267.987 394.012 266.884 392.633C263.02 388.494 256.396 386.009 248.945 382.972C245.357 381.592 241.493 379.936 237.906 378.28C230.731 374.969 221.07 370.277 213.067 360.064C214.447 358.408 215.551 356.475 216.103 355.372C216.103 355.097 216.379 354.82 216.379 354.544H216.931H217.206C220.242 354.269 222.726 353.164 224.659 351.508C225.211 351.784 225.762 352.061 226.592 352.336C227.695 352.611 228.525 353.164 228.8 353.164L229.628 353.439C231.008 354.267 231.836 354.542 232.389 355.647V357.303V357.856C232.389 359.236 232.664 360.339 232.941 361.167V361.442C233.217 362.27 233.494 363.926 235.425 365.031C236.528 365.584 238.186 365.584 239.564 365.306C240.117 365.306 240.392 365.031 240.944 365.031C243.153 365.306 243.98 366.134 244.808 369.447C245.361 371.656 246.464 375.795 251.156 375.795H252.259C253.087 375.795 253.639 375.52 254.192 375.52C255.848 375.52 256.953 376.072 258.056 377.175C258.056 378.556 258.331 379.384 258.608 379.936C259.711 381.869 261.92 382.42 263.575 382.697C264.679 382.972 265.231 382.972 265.784 384.077C265.784 384.353 266.059 384.353 266.059 384.905C266.059 385.458 266.334 386.286 266.887 386.838C267.715 387.941 268.542 388.771 269.095 389.599C270.198 390.702 270.751 391.255 270.751 392.082C270.749 394.289 270.749 396.22 270.749 397.6L270.748 397.6ZM231.004 342.952C231.279 347.919 231.556 348.749 231.831 349.3C233.212 351.508 234.868 352.06 236.248 352.06C237.628 352.06 238.731 351.508 239.836 350.957C240.389 350.682 241.217 350.405 241.492 350.405L241.767 350.68V351.233C241.767 352.06 241.492 353.716 243.423 355.372C244.251 356.2 245.356 356.475 246.459 356.475C247.562 356.475 248.392 355.922 249.22 355.647C249.773 355.372 250.048 355.372 250.323 355.095H251.979C252.531 355.647 252.531 357.578 252.531 358.958V360.614C252.531 362.822 253.635 365.859 256.12 367.514C257.5 368.342 258.881 368.342 260.536 368.342H262.192C263.295 368.617 263.848 368.895 263.848 370.275V371.931C263.848 373.586 263.848 375.519 265.228 378.003C265.781 378.831 266.331 379.658 266.884 380.211C266.056 379.658 265.228 379.658 264.4 379.383C262.468 379.108 261.917 378.555 261.917 378.28V377.727C261.917 377.175 261.917 376.624 261.642 376.347C259.986 373.311 257.502 371.931 253.914 371.931C253.086 371.931 252.258 371.931 251.43 372.206H250.877C249.774 372.206 249.222 371.931 248.394 368.894C247.566 365.583 246.186 361.994 240.941 361.719C240.114 361.719 239.286 361.719 238.733 361.994C237.905 362.27 237.077 362.27 237.077 362.27C236.802 362.27 236.802 362.27 236.525 361.442V361.166C236.25 360.339 236.25 359.786 236.25 358.683V357.855V356.475V355.647C235.146 352.611 233.214 351.783 231.283 350.68L230.73 350.404C230.455 350.404 230.455 350.404 228.247 349.301C227.971 349.301 227.971 349.301 227.694 349.026C229.074 347.093 229.902 345.437 230.178 343.781C230.176 343.227 230.453 342.952 231.003 342.952L231.004 342.952ZM271.853 387.664C271.3 387.111 270.473 386.561 270.197 385.731C270.197 385.455 269.922 385.455 269.922 384.903C269.922 384.35 269.647 383.522 269.094 382.695C268.819 382.142 268.542 381.867 268.266 381.591C269.094 382.144 270.199 382.695 271.302 382.972C272.958 383.524 273.235 383.8 273.511 384.905C273.786 385.457 273.511 386.008 273.511 386.838C273.511 387.941 273.235 389.046 273.786 390.426C273.233 389.044 272.404 388.216 271.853 387.664V387.664ZM275.992 360.339C286.204 378.003 290.895 390.423 293.656 398.428C297.52 408.916 299.453 414.161 308.559 416.092C310.215 416.367 311.871 416.644 313.251 416.644C320.427 416.644 322.084 411.677 322.635 408.916C322.635 408.364 322.91 407.813 323.187 407.536C323.462 408.088 323.462 409.469 323.187 411.124C322.912 412.505 320.979 417.472 314.354 418.852C313.251 419.128 312.146 419.128 311.043 419.405C310.767 419.405 310.215 419.68 309.94 419.68C309.664 419.956 309.387 419.956 309.387 420.233C308.284 421.061 308.007 421.336 307.179 421.061C306.351 420.785 305.798 420.233 304.97 419.405C304.695 419.13 304.418 418.852 304.143 418.577C302.21 418.025 300.554 416.921 298.898 415.541C298.623 415.266 298.07 414.988 297.518 414.988C296.965 414.988 296.415 414.988 296.137 414.713C295.309 414.161 294.482 413.057 293.929 411.402C293.929 410.849 293.654 410.574 293.654 410.021V409.746C293.654 409.471 293.378 409.193 293.378 408.918C292.826 408.366 292.551 407.538 291.998 406.985L291.17 406.157C288.687 404.777 287.859 403.949 286.203 401.741C285.928 401.466 285.651 401.188 285.375 400.638C285.1 400.362 284.548 399.81 284.548 399.535C284.548 399.259 284.548 398.707 284.823 398.431C285.098 397.879 285.098 397.051 285.098 396.499C285.098 394.566 284.546 392.082 281.787 390.702C280.959 390.426 280.406 390.149 279.854 390.149C278.751 389.874 278.751 389.874 278.198 388.769C277.923 388.216 277.923 387.665 278.198 386.836C278.198 386.008 278.473 384.903 277.923 383.524C277.095 380.213 274.887 379.385 272.678 378.833C271.023 378.28 269.917 377.729 268.814 376.072C267.987 374.416 267.987 373.588 267.987 372.208V370.275C267.987 366.963 266.331 365.03 263.02 364.478C262.192 364.203 261.087 364.203 259.983 364.478C259.156 364.478 258.328 364.478 257.775 364.203C256.672 363.65 256.119 361.994 256.119 360.614V359.234C256.119 357.025 256.119 354.267 254.464 352.334C253.361 351.23 251.703 350.678 249.219 350.953C248.391 351.229 247.564 351.506 247.011 351.781C246.736 352.056 246.183 352.056 246.183 352.056C246.183 352.056 245.908 352.056 245.908 351.781C245.633 351.781 245.633 351.506 245.633 351.506V351.23C245.633 350.678 245.908 349.575 245.357 348.194C244.254 346.261 242.874 345.711 241.769 345.711C240.665 345.711 239.56 346.263 238.457 346.539C237.629 346.814 237.077 347.091 236.524 347.091C236.524 347.091 236.249 347.091 235.696 346.539C235.696 345.986 235.421 344.33 235.421 340.191C238.182 338.258 240.941 334.947 241.493 330.255C241.493 329.98 241.493 329.427 241.218 329.152H241.77C243.426 328.324 245.91 326.944 248.118 324.736C256.119 332.739 267.711 345.988 275.991 360.339L275.992 360.339ZM249.22 310.935C248.392 311.21 247.84 312.038 247.84 313.143C248.392 319.768 244.251 323.355 241.215 325.288C231.554 312.868 223.276 304.863 223.276 304.588C222.448 303.76 221.343 303.76 220.516 304.588C219.688 305.416 219.688 306.521 220.516 307.349C220.516 307.349 229.071 315.629 239.008 328.324C238.18 328.324 237.352 329.152 237.352 329.98C236.799 334.119 234.591 336.327 232.385 337.708C229.901 339.088 227.693 339.639 227.693 339.639C226.865 339.914 226.313 340.467 226.037 341.295C226.037 341.57 224.382 349.85 216.101 350.678C215.274 350.678 214.446 351.506 214.446 352.334C201.749 342.398 193.746 334.117 193.746 334.117C192.918 333.289 191.813 333.289 190.985 334.117C190.157 334.945 190.157 336.05 190.985 336.878C190.985 336.878 198.988 345.159 211.685 354.817C210.029 357.853 206.718 361.442 201.473 361.442H199.818C198.99 361.442 197.885 361.717 197.609 362.822C197.609 362.822 193.47 373.586 184.085 374.139C172.218 364.478 165.04 356.2 164.765 355.922C163.938 355.094 162.832 355.094 162.005 355.647C161.177 356.475 161.177 357.58 161.729 358.408C162.005 358.683 168.905 366.688 180.774 376.347C179.393 378.83 176.635 381.314 171.39 381.038L159.523 374.966C145.723 368.342 137.168 353.991 137.443 338.811C137.718 325.839 141.582 311.488 147.929 300.999C158.141 284.438 165.868 280.575 165.868 280.575C166.144 280.299 166.421 280.022 166.696 279.747C166.696 279.747 172.493 270.639 187.396 261.53C197.332 255.183 211.96 251.319 225.208 250.766C240.388 250.491 254.741 259.047 261.363 272.569L266.33 285.266C266.606 290.786 263.847 293.822 261.638 295.202C251.427 282.783 243.146 275.33 242.594 275.055C241.766 274.227 240.386 274.502 239.833 275.33C239.005 276.158 239.281 277.538 240.108 278.091C240.108 278.091 248.941 285.819 259.153 298.516C258.882 307.347 249.773 310.66 249.221 310.935L249.22 310.935ZM267.989 326.666C265.228 323.63 263.573 320.319 261.917 317.005C260.814 314.797 259.709 312.589 258.053 310.105C260.537 307.622 263.02 304.308 263.298 299.341C263.573 299.066 263.85 299.066 264.401 298.789C271.301 305.136 272.956 317.005 274.612 327.769C274.888 328.872 274.888 330.253 275.165 331.358C272.404 330.532 270.198 328.874 267.99 326.666L267.989 326.666ZM280.409 338.811C280.133 338.258 280.133 337.708 280.133 336.878C280.961 337.153 281.514 337.153 282.342 337.43H282.894C290.347 339.086 296.419 342.95 299.455 348.469C301.111 351.505 301.939 355.369 302.491 359.233C293.104 357.58 283.445 352.335 280.409 338.81L280.409 338.811ZM337.541 401.739C332.021 397.875 326.224 394.011 321.257 389.594C313.254 381.866 308.838 374.691 307.457 366.411C307.457 365.583 307.182 365.03 307.182 364.202C308.285 364.202 309.665 364.478 311.046 364.478H313.529C320.429 364.478 328.157 364.478 333.401 367.514C339.473 371.102 341.404 377.45 342.509 386.833C342.785 389.042 342.785 391.8 342.785 394.561C342.785 398.425 342.785 402.289 343.337 405.6C342.234 405.048 341.404 404.22 340.301 403.667L337.541 401.739Z" fill="#767382"/>
<g clip-path="url(#clip1_124_1157)">
<path d="M932.372 403.724C928.829 400.06 925.244 396.354 922.356 392.225C927.688 397.262 933.837 400.965 940.604 404.027L940.716 404.078L940.838 404.071C965.954 402.622 991.361 398.955 1014.01 387.128C1015.05 386.588 1015.73 385.961 1016.01 385.218C1016.3 384.448 1016.11 383.683 1015.66 382.992C1015.23 382.309 1014.53 381.645 1013.69 381.009C1012.84 380.368 1011.82 379.734 1010.73 379.116C1008.73 377.991 1006.43 376.904 1004.38 375.931C1004.18 375.837 1003.99 375.745 1003.8 375.653C1002.7 375.13 1001.69 374.645 1000.84 374.206C1000.37 373.96 999.961 373.733 999.622 373.527C999.974 373.373 1000.39 373.217 1000.87 373.056C1001.72 372.769 1002.72 372.48 1003.82 372.179C1004.28 372.052 1004.76 371.923 1005.25 371.791C1007.06 371.3 1009.02 370.772 1010.8 370.177C1013.05 369.428 1015.13 368.545 1016.34 367.43C1016.96 366.864 1017.4 366.198 1017.48 365.418C1017.56 364.632 1017.27 363.836 1016.63 363.039L1016.6 362.998L1016.56 362.965C977.75 330.955 933.127 301.48 881.744 297.038C866.817 284.554 850.343 276.224 831.745 270.702L831.563 270.648L831.391 270.729C819.347 276.377 807.213 280.836 795.191 285.255C788.851 287.585 782.542 289.903 776.293 292.379C758.221 299.539 740.723 307.989 724.706 321.772L724.155 322.247L724.796 322.591L741.66 331.657C731.468 333.733 721.224 334.632 710.769 333.879C687.885 308.287 665.197 297.41 631.861 290.991L631.319 290.886L631.269 291.437C629.174 314.56 634.601 332.124 650.004 349.579C641.689 358.125 635.934 366.016 631.83 374.705C627.673 383.505 625.222 393.1 623.504 404.984L623.403 405.682L624.095 405.547C653.141 399.877 680.668 393.054 706.249 377.317C710.607 379.987 715.05 382.509 719.577 384.879C719.507 385.065 719.435 385.255 719.361 385.449C717.586 390.147 714.978 397.05 713.783 403.793C712.508 410.981 712.795 418.23 717.718 422.346L717.956 422.546L718.24 422.42C736.252 414.469 754.225 408.744 773.601 405.217C786.089 408.321 798.798 410.506 811.584 411.912L812.383 446.101L812.405 447.06L813.178 446.492C829.162 434.764 845.019 427.232 862.025 419.154C866.14 417.199 870.322 415.212 874.59 413.127C894.487 411.923 913.865 409.322 933.493 406.012L934.427 405.855L933.77 405.173C933.306 404.69 932.84 404.207 932.372 403.724ZM748.983 332.174L729.445 321.671C743.92 309.401 760.847 301.467 778.44 294.618C784.368 292.31 790.379 290.123 796.395 287.934C808.373 283.576 820.375 279.209 831.805 273.858C851.965 279.896 867.556 288.963 880.418 299.85L880.614 300.016L880.786 299.972C933.362 304.272 978.549 335.502 1014.38 365.026C1014.45 365.12 1014.45 365.172 1014.45 365.195C1014.44 365.232 1014.42 365.315 1014.3 365.446C1014.04 365.721 1013.51 366.034 1012.71 366.37C1011.13 367.032 1008.78 367.675 1006.31 368.346L1006.11 368.4C1003.72 369.048 1001.23 369.721 999.332 370.452C998.357 370.826 997.502 371.228 996.881 371.668C996.284 372.091 995.774 372.643 995.77 373.346C995.766 374.034 996.236 374.648 996.813 375.167C997.411 375.705 998.242 376.245 999.192 376.777C1000.91 377.74 1003.11 378.728 1005.23 379.682C1005.46 379.783 1005.68 379.884 1005.9 379.985C1008.25 381.042 1010.41 382.041 1011.73 382.93C1012.06 383.15 1012.32 383.355 1012.52 383.544C1012.72 383.736 1012.82 383.89 1012.87 384.004C1012.92 384.105 1012.91 384.156 1012.89 384.192C1012.87 384.241 1012.81 384.336 1012.62 384.458C990.38 393.887 966.701 399.588 941.296 401.03C927.768 394.859 919.322 386.683 913.779 375.493L912.836 375.784C914.52 387.822 919.57 394.68 928.316 403.834C910.115 406.878 891.929 409.081 873.912 410.152L873.812 410.158L873.722 410.202C870.292 411.882 866.486 413.675 862.452 415.574C847.352 422.684 829.049 431.302 815.278 441.222L814.539 409.635L814.529 409.194L814.091 409.149C800.412 407.741 786.953 405.46 773.806 402.166L773.702 402.14L773.596 402.159C753.477 405.775 735.269 411.606 718.458 419.031C717.106 417.75 716.415 415.633 716.251 412.914C716.078 410.06 716.493 406.644 717.23 403.087C718.704 395.977 721.44 388.41 723.182 383.857L723.343 383.438L722.943 383.233C717.378 380.388 711.895 377.294 706.507 373.94L706.242 373.774L705.977 373.941C682.109 388.96 656.466 396.124 626.994 401.916C630.069 381.386 637.021 366.744 653.808 350.013L654.149 349.673L653.822 349.32C638.31 332.531 632.325 314.748 634.018 294.47C668.249 301.117 689.478 314.34 709.188 336.632L709.322 336.783L709.522 336.799C723.318 337.932 736.309 336.256 748.869 333.099L750.12 332.785L748.983 332.174ZM971.795 354.819C971.795 352.107 970.325 349.692 968.022 347.972C965.719 346.253 962.56 345.205 959.089 345.205C955.616 345.205 952.458 346.253 950.157 347.972C947.856 349.692 946.389 352.107 946.389 354.819C946.389 357.525 947.857 359.936 950.157 361.654C952.458 363.372 955.616 364.42 959.089 364.42C962.56 364.42 965.719 363.372 968.021 361.654C970.324 359.937 971.795 357.525 971.795 354.819ZM949.398 354.819C949.398 352.638 950.775 350.999 952.735 349.879C954.698 348.758 957.158 348.214 959.089 348.214C961.016 348.214 963.477 348.758 965.442 349.88C967.404 351.002 968.784 352.641 968.784 354.819C968.784 356.991 967.403 358.627 965.439 359.746C963.473 360.865 961.012 361.409 959.089 361.409C957.166 361.409 954.705 360.867 952.741 359.748C950.778 358.63 949.398 356.995 949.398 354.819Z" fill="#767382" stroke="#767382"/>
<path fill-rule="evenodd" clip-rule="evenodd" d="M959.094 348.516C963.757 348.516 967.533 351.336 967.533 354.812C967.533 358.288 963.757 361.108 959.094 361.108C954.432 361.108 950.66 358.288 950.66 354.812C950.66 351.336 954.432 348.516 959.094 348.516Z" fill="#767382"/>
</g>
<path d="M1440.55 253.557C1423.36 259.869 1414.03 245.744 1413.64 245.142C1413.2 244.448 1412.28 244.246 1411.58 244.692C1410.89 245.136 1410.69 246.054 1411.13 246.747C1411.22 246.886 1418.59 258.149 1432.05 258.149C1434.95 258.149 1438.13 257.625 1441.58 256.358C1442.35 256.072 1442.75 255.215 1442.46 254.444C1442.18 253.667 1441.32 253.276 1440.55 253.557L1440.55 253.557Z" fill="#767382"/>
<path d="M1390.3 275.062C1389.49 275.192 1388.94 275.955 1389.07 276.768C1389.2 277.578 1389.94 278.113 1390.77 278.007C1390.83 277.994 1396.76 277.123 1400.98 280.831C1404.1 283.582 1405.61 288.186 1405.44 294.52C1405.42 295.344 1406.07 296.029 1406.89 296.051H1406.93C1407.73 296.051 1408.4 295.408 1408.42 294.598C1408.61 287.32 1406.76 281.929 1402.92 278.57C1397.63 273.942 1390.61 275.015 1390.3 275.062L1390.3 275.062Z" fill="#767382"/>
<path d="M1665.46 412.824L1665.3 412.51C1664.52 410.674 1662.31 408.184 1659.52 405.033C1656.14 401.211 1651.92 396.461 1650.28 392.578C1647.08 385.015 1632.93 365.206 1623.25 354.745C1620 351.129 1615.48 345.365 1610.69 339.267C1600.71 326.545 1589.39 312.125 1581.8 306.754C1572.16 299.523 1568.74 293.463 1568.73 290.604C1568.84 289.456 1569.2 283.568 1566.18 280.253C1564.84 278.792 1563.09 278.051 1560.97 278.051C1558.57 278.051 1557.5 279.122 1557.02 280.018C1555.45 282.955 1558.39 287.928 1559.73 289.93C1561.81 293.053 1562.37 295.28 1562.48 296.475C1562.48 297.196 1562.58 299.207 1563.59 301.645C1555.65 296.453 1545.93 289.334 1542.01 283.385C1541.8 283.041 1536.64 274.937 1532.92 272.074C1531.37 270.882 1529.9 270.438 1528.54 270.743C1526.59 271.195 1525.69 273.003 1525.22 273.952C1523.56 277.261 1526.32 281.279 1533.67 286.249C1539.86 290.259 1541.65 292.101 1544.62 295.149C1546.02 296.594 1547.67 298.286 1550.12 300.565C1551.66 301.988 1553.06 303.272 1554.38 304.473C1541.15 298.338 1528.39 293.596 1526.03 292.728C1513.16 279.188 1509.11 277.884 1501.79 275.526C1498.1 274.339 1493.51 272.85 1486.38 269.247C1486.31 269.17 1486.25 269.081 1486.16 269.02C1486.01 268.915 1471.01 258.392 1469.61 244.093C1470 241.89 1470.91 235.567 1468.94 233.21C1468.38 232.536 1467.6 232.164 1466.87 232.164H1466.85C1465.14 232.023 1463.61 232.813 1462.5 234.361C1460.57 237.054 1460.41 241.505 1462.09 245.435C1462.79 247.055 1463.34 248.608 1463.9 250.145C1464.7 252.363 1465.57 254.64 1466.77 257.045C1458.17 250.602 1453.73 245.585 1453.66 245.507C1453.59 245.424 1453.47 245.435 1453.39 245.371C1453.33 245.288 1453.34 245.177 1453.26 245.105C1453.23 245.08 1450.53 242.623 1445.76 236.785C1441.02 231.157 1427.5 230.544 1426.86 230.52C1418.71 230.52 1417.67 230.772 1414.1 231.959C1412.59 232.464 1410.86 233.662 1409.33 234.907C1409.29 234.907 1409.25 234.893 1409.21 234.896C1408.1 235.026 1406.2 235.073 1403.95 235.073C1397.12 235.073 1387.13 234.705 1386.77 234.627C1378.85 235.792 1373.38 238.501 1370.5 242.681C1367.67 246.8 1368.33 251.06 1368.6 252.266L1368.75 252.918C1369.25 255.053 1369.81 257.472 1368.85 265.695C1367.72 275.289 1372.32 285.456 1372.51 285.863C1373.26 287.55 1374.14 289.286 1375.09 291.044C1374.37 299.298 1380.95 306.44 1381.43 306.928C1384.31 309.141 1386.63 310.541 1388.56 311.326C1394.69 319.363 1400.67 326.233 1403.76 329.772C1403.79 329.805 1403.82 329.83 1403.84 329.861C1403.89 329.913 1403.95 329.983 1403.99 330.035C1404.85 331.015 1405.47 331.719 1405.77 332.091L1405.78 332.102C1405.78 332.104 1405.78 332.104 1405.78 332.107L1405.96 332.321L1406.5 332.97C1409.31 336.303 1415.89 344.11 1414.73 352.006C1413.63 361.322 1414.15 369.16 1414.24 369.851C1415.34 373.19 1415.17 375.755 1413.75 377.48C1410.97 380.87 1403.68 380.784 1400.96 380.459C1380.03 379.818 1378.7 376.759 1378.69 376.759C1378.73 376.526 1379.45 375.625 1382.09 374.588C1385.66 373.109 1387.77 371.254 1388.34 369.071C1388.9 366.914 1387.75 365.36 1387.42 364.989C1384.97 362.848 1382.72 362.093 1380.75 362.767C1377.74 363.78 1376.87 367.565 1376.78 368.012C1376.44 369.737 1375.59 371.021 1374.17 371.936C1369.56 374.904 1360.92 372.876 1360.84 372.86C1360.8 372.849 1360.76 372.86 1360.73 372.854C1355.27 367.784 1349.33 359.883 1344.45 352.206L1344.14 351.762C1344 351.571 1343.81 351.169 1343.54 350.661C1342.18 348.029 1339.9 343.628 1336.65 343.345C1335.12 343.217 1333.75 343.955 1332.54 345.547C1330.89 347.718 1330.95 349.649 1331.29 350.888C1332.3 354.538 1336.82 356.724 1338.08 357.276C1353.01 371.542 1353.05 376.598 1352.37 378.113C1351.55 379.94 1348.06 380.074 1346.92 379.974C1346.9 379.974 1346.88 379.982 1346.86 379.985C1328.64 378.082 1300.34 371.493 1295.14 369.889C1291.36 368.63 1282.21 366.062 1278.95 369.362C1278.13 370.186 1277.35 371.703 1278.22 374.199C1280.33 381.127 1291.86 379.266 1294.08 378.842L1340.57 390.527C1331.46 395.208 1320.22 405.234 1313.11 411.574C1310.71 413.721 1308.81 415.418 1308.02 415.962C1305.14 417.953 1298.51 423.087 1299.04 427.757C1299.19 429.114 1300.03 430.988 1303.18 432.25C1305.48 433.063 1307.66 432.927 1309.64 431.823C1314.11 429.341 1316.07 422.629 1316.51 420.91C1340.67 394.099 1368.47 400.056 1390.82 404.843C1395.09 405.758 1399.12 406.621 1402.86 407.195C1426.41 410.77 1430.74 399.596 1432.96 388.771C1434.11 382.27 1436.22 378.226 1439.06 377.062C1441.37 376.122 1444.41 376.981 1448.13 379.636C1459.17 387.262 1466.18 399.244 1466.24 399.338C1472.63 410.95 1496.06 426.856 1503.51 431.723C1502.53 432.192 1501.63 432.664 1500.89 433.138C1494.23 437.323 1486.49 443.804 1487.48 450.899C1487.84 453.412 1489.28 455.683 1491.72 457.758C1484.78 456.418 1475.74 455.059 1470.62 455.866C1470.57 455.864 1469.54 455.964 1468.24 454.849C1466.73 453.551 1463.23 452.361 1460.6 453.492C1459.54 453.947 1457.75 455.181 1457.59 458.363C1457.47 460.748 1458.45 461.962 1459.29 462.564C1461.43 464.098 1464.82 463.26 1467.2 462.304C1468.5 461.962 1480.84 461.888 1489.09 464.325C1484.44 465.898 1476.72 468.616 1471.56 471.012C1464.82 474.141 1457.05 475.33 1451.92 476.115L1450.38 476.357C1447 476.889 1445.99 476.947 1445.01 477.006C1444.47 477.036 1443.93 477.072 1443.24 477.158C1442.93 477.158 1442.47 477.111 1441.93 477.061C1439.34 476.82 1435 476.412 1432.82 478.689C1431.8 479.754 1431.41 481.185 1431.65 482.957C1431.91 484.752 1432.86 486.08 1434.41 486.799C1435.34 487.229 1436.42 487.403 1437.55 487.403C1441.1 487.403 1445.13 485.675 1446.48 484.832C1447.52 484.181 1456.09 481.596 1468.19 480.134H1468.2C1468.28 480.137 1475.78 479.918 1479.56 484.63C1481.87 487.514 1482.33 491.755 1480.97 497.207C1479.99 498.372 1479.17 499.254 1478.7 499.551C1477.03 500.727 1471.57 504.89 1471.78 509.236C1471.84 510.534 1472.45 512.378 1474.99 513.807C1476.45 514.658 1477.81 515.085 1479.05 515.085C1479.95 515.085 1480.79 514.861 1481.57 514.414C1485.05 512.412 1485.59 506.496 1485.68 504.427C1488.16 502.023 1500.57 490.003 1509.59 480.498C1516.24 473.492 1524.93 475.059 1535.93 477.059C1540.48 477.883 1545.18 478.731 1550.18 479.05C1571.83 480.72 1587.1 478.146 1599.66 470.661C1613.36 462.757 1631.55 462.122 1631.56 462.116C1638.38 462.668 1643.09 461.456 1645.61 458.502C1648.18 455.496 1647.42 451.882 1647.38 451.882C1647.38 451.882 1647.38 451.885 1647.38 451.885C1647.38 443.068 1645.89 441.152 1642.54 440.198C1642.4 440.159 1642.27 440.123 1642.15 440.087C1641.93 439.918 1641.68 439.784 1641.39 439.754C1641.37 439.751 1641.34 439.751 1641.32 439.748C1640.68 439.404 1640.04 439.152 1639.37 438.919C1637.68 438.328 1635.77 437.657 1632.74 434.446C1632.09 433.797 1631.43 433.236 1630.77 432.743C1631.47 432.169 1632.04 431.439 1632.49 430.546C1635.64 424.167 1630.83 411.218 1630.64 410.721C1630.49 410.281 1630.33 409.851 1630.18 409.41C1632.8 411.437 1637.21 415.6 1643.86 424.09C1644.08 424.384 1649.18 431.312 1655.11 431.606C1655.25 431.614 1655.38 431.617 1655.52 431.617C1657.85 431.617 1659.94 430.596 1661.73 428.591C1668.76 421.031 1667.71 417.286 1665.46 412.824ZM1466.71 249.133C1466.13 247.544 1465.55 245.935 1464.83 244.26C1463.36 240.807 1463.84 237.607 1464.93 236.095C1465.42 235.41 1466.01 235.025 1466.64 235.099C1467.34 235.721 1467.35 239.931 1466.64 243.758C1466.62 243.891 1466.61 244.027 1466.62 244.16C1467.3 251.715 1471.25 258.161 1475.27 262.903C1474.4 262.354 1473.57 261.81 1472.76 261.269C1472.71 261.142 1472.67 261.011 1472.59 260.895C1469.4 256.593 1468.09 252.971 1466.71 249.133ZM1385.78 292.373C1383.16 288.374 1381.39 286.535 1380.11 285.714C1380.52 285.182 1380.93 284.852 1381.31 284.81C1381.35 284.808 1381.38 284.802 1381.43 284.802C1382.87 284.802 1385.02 287.661 1386.18 289.215C1386.18 289.215 1386.22 289.276 1386.27 289.331C1388.67 294.149 1390.52 298.925 1391.54 302.591C1390.32 300.045 1388.51 296.742 1385.78 292.373ZM1406.07 327.879C1403.8 325.289 1399.93 320.849 1395.59 315.454C1400.7 320.627 1410.82 330.53 1416.57 333.817C1417.97 334.616 1419.08 335.209 1420.03 335.717C1424.19 337.935 1425.18 338.462 1435.22 348.705C1436.46 349.703 1465.81 373.188 1478.67 379.482C1487.3 383.523 1492.34 390.129 1495.68 394.497C1497.26 396.566 1498.4 398.061 1499.54 398.785C1502.3 400.543 1508.91 409.279 1509.9 411.512C1510.88 413.723 1513.82 416.443 1519.43 420.329C1521.42 421.71 1523.44 423.76 1524.76 425.196C1523.2 425.535 1521.67 425.884 1520.17 426.253C1512.25 421.818 1498.02 402.676 1492.67 395.465C1491.91 394.436 1491.29 393.618 1490.84 393.03C1486.57 387.772 1479.07 381.021 1470.86 377.84C1462.85 374.587 1459.85 371.339 1459.82 371.339H1459.82C1455.84 364.813 1445.5 356.42 1443.04 355.189C1440.69 354.144 1433.51 350.954 1428.25 344.897C1422.98 339.114 1408.09 329.21 1406.07 327.879ZM1468.85 397.87C1468.56 397.356 1461.45 385.195 1449.86 377.194C1445.28 373.921 1441.28 372.953 1437.95 374.298C1434.06 375.89 1431.4 380.586 1430.05 388.21C1428.36 396.439 1426.04 407.71 1403.33 404.243C1399.68 403.683 1395.68 402.829 1391.46 401.925C1369.5 397.224 1339.42 390.778 1314.05 419.2C1313.88 419.392 1313.76 419.625 1313.71 419.871C1313.26 421.871 1311.41 427.443 1308.21 429.218C1306.99 429.889 1305.67 429.972 1304.24 429.459C1302.86 428.904 1302.11 428.219 1302.02 427.421C1301.75 425.083 1305.83 421.114 1309.73 418.415C1310.67 417.763 1312.53 416.102 1315.11 413.803C1322.64 407.077 1336.67 394.566 1345.68 391.563C1346.31 391.352 1346.72 390.756 1346.69 390.096C1346.67 389.433 1346.21 388.864 1345.57 388.706L1294.49 375.868C1294.27 375.81 1294.04 375.807 1293.81 375.857C1293.7 375.879 1282.55 378.148 1281.06 373.275C1280.75 372.39 1280.76 371.78 1281.08 371.458C1282.2 370.321 1287.18 370.377 1294.24 372.731C1299.71 374.417 1327.96 381.018 1346.62 382.932C1346.63 382.935 1346.65 382.946 1346.66 382.946C1346.69 382.948 1346.81 382.96 1346.99 382.968C1352.39 383.509 1357.01 383.664 1359.93 383.151C1360.74 383.012 1361.29 382.238 1361.15 381.426C1361.01 380.619 1360.24 380.083 1359.42 380.214C1358.1 380.444 1356.37 380.522 1354.37 380.488C1354.65 380.153 1354.9 379.778 1355.09 379.349C1357.22 374.648 1352.27 366.66 1339.95 354.928C1339.81 354.795 1339.65 354.692 1339.48 354.623C1338.29 354.149 1334.78 352.302 1334.17 350.097C1333.93 349.226 1334.18 348.33 1334.92 347.354C1335.3 346.857 1335.9 346.303 1336.4 346.317C1338.02 346.455 1340.12 350.507 1340.91 352.033C1341.44 353.053 1341.66 353.48 1341.94 353.808C1347.35 362.316 1361.02 382.103 1371 381.256C1371.82 381.195 1372.43 380.477 1372.37 379.656C1372.3 378.832 1371.57 378.236 1370.77 378.28C1369.16 378.408 1367.3 377.72 1365.29 376.455C1368.57 376.655 1372.73 376.417 1375.79 374.447C1377.91 373.088 1379.23 371.117 1379.72 368.604C1379.86 367.949 1380.52 365.988 1381.71 365.595C1382.6 365.295 1383.93 365.889 1385.28 367.034C1385.28 367.04 1385.65 367.591 1385.46 368.318C1385.28 369.011 1384.45 370.39 1380.99 371.824C1376.21 373.701 1375.51 375.801 1375.76 377.235C1376.16 379.584 1379.21 382.779 1400.74 383.431C1400.88 383.45 1402.1 383.594 1403.83 383.594C1407.39 383.594 1413.1 382.981 1416.06 379.384C1418.18 376.819 1418.52 373.299 1417.16 369.286C1417.16 369.208 1416.64 361.384 1417.7 352.398C1417.85 351.336 1417.87 350.285 1417.82 349.248C1420.67 352.956 1424.43 356.892 1429.1 359.737C1429.34 359.884 1429.61 359.953 1429.87 359.953C1430.38 359.953 1430.87 359.698 1431.15 359.237C1431.58 358.536 1431.35 357.618 1430.65 357.188C1420 350.693 1414.09 337.507 1414.03 337.375C1413.98 337.247 1413.9 337.125 1413.81 337.017L1413.46 336.612C1418.17 340.007 1423.44 344.045 1426.01 346.879C1431.7 353.411 1439.32 356.803 1441.77 357.887C1443.68 358.844 1453.63 366.906 1457.41 373.085C1457.54 373.241 1460.75 376.957 1469.76 380.615C1477.46 383.596 1484.68 390.184 1488.5 394.876C1488.92 395.42 1489.52 396.232 1490.27 397.244C1495.72 404.572 1507.81 420.827 1516.33 427.248C1512.8 428.207 1509.59 429.242 1506.84 430.31C1502.67 427.633 1475.46 409.853 1468.85 397.869L1468.85 397.87ZM1629.84 429.21C1629.39 430.125 1628.75 430.674 1627.87 430.976C1624.33 429.285 1621.4 429.359 1621.21 429.357C1620.93 429.379 1614.21 429.928 1607.64 431.298C1601.01 432.677 1586.36 433.5 1575.96 433.997L1572.31 434.063C1561.81 434.235 1548.75 434.44 1532.84 440.653C1516.07 447.207 1508.25 446.311 1508.18 446.3C1507.38 446.194 1506.62 446.757 1506.51 447.573C1506.39 448.388 1506.96 449.142 1507.78 449.253C1508.11 449.295 1516.3 450.318 1533.93 443.432C1549.33 437.414 1561.57 437.219 1572.36 437.045L1576.06 436.978C1586.6 436.473 1601.41 435.639 1608.25 434.219C1614.64 432.887 1621.38 432.335 1621.4 432.335C1621.45 432.286 1626.26 432.141 1630.63 436.512C1631.9 437.86 1633.03 438.825 1634.05 439.546C1616.88 439.549 1579.2 441.027 1577.3 441.097C1576.48 441.133 1575.84 441.823 1575.87 442.647C1575.9 443.451 1576.56 444.081 1577.36 444.081H1577.42C1577.96 444.059 1631.21 441.993 1640.64 442.672C1641.01 442.819 1641.38 442.949 1641.75 443.052C1643.18 443.46 1644.42 443.812 1644.46 452.215C1644.48 452.315 1644.99 454.672 1643.35 456.575C1641.49 458.711 1637.52 459.587 1631.67 459.121C1630.89 459.143 1612.55 459.778 1598.17 468.071C1586.16 475.234 1571.44 477.697 1550.42 476.061C1545.57 475.75 1540.95 474.915 1536.49 474.108C1525.07 472.039 1515.21 470.248 1507.45 478.435C1497.48 488.938 1483.33 502.556 1483.19 502.691C1482.9 502.974 1482.73 503.363 1482.73 503.768C1482.73 505.465 1482.25 510.582 1480.1 511.822C1479.25 512.315 1478.04 512.105 1476.49 511.212C1474.84 510.28 1474.8 509.378 1474.78 509.084C1474.69 507.093 1477.55 504.006 1480.38 502.026C1481.71 501.18 1483.74 498.626 1487.22 494.185C1491.43 488.811 1497.19 481.449 1501.11 479.101C1501.81 478.676 1502.04 477.761 1501.62 477.054C1501.2 476.352 1500.28 476.125 1499.57 476.546C1495.19 479.178 1489.47 486.478 1484.87 492.35C1484.8 492.444 1484.73 492.538 1484.65 492.633C1484.83 488.669 1483.97 485.333 1481.91 482.759C1480.68 481.226 1479.17 480.125 1477.61 479.312C1482.19 479.065 1487.05 479.015 1492.06 479.312C1492.83 479.387 1493.59 478.732 1493.64 477.914C1493.68 477.09 1493.06 476.383 1492.23 476.339C1468.81 474.944 1447.45 480.715 1444.93 482.296C1443.31 483.308 1438.06 485.189 1435.68 484.085C1435.27 483.891 1434.77 483.541 1434.63 482.54C1434.46 481.309 1434.86 480.887 1435 480.751C1436.18 479.509 1439.89 479.861 1441.67 480.03C1442.33 480.088 1442.88 480.13 1443.42 480.13C1444.21 480.041 1444.71 480.011 1445.21 479.983C1446.26 479.922 1447.35 479.855 1450.87 479.301L1452.39 479.068C1457.69 478.255 1465.71 477.029 1472.84 473.718C1480.31 470.251 1493.83 465.911 1493.97 465.866C1494.54 465.68 1494.95 465.17 1495 464.568C1495.05 463.966 1494.73 463.395 1494.2 463.12C1486.11 458.938 1468.26 458.691 1466.2 459.509C1463.88 460.433 1461.82 460.691 1461.05 460.139C1460.7 459.895 1460.55 459.345 1460.59 458.511C1460.68 456.716 1461.52 456.356 1461.8 456.236C1463.16 455.651 1465.45 456.356 1466.33 457.11C1468.7 459.149 1470.86 458.866 1471.08 458.816C1479.42 457.526 1500.26 462.66 1500.47 462.715C1500.48 462.718 1500.5 462.712 1500.52 462.718C1502.5 463.511 1504.64 464.277 1507.07 464.992C1508.35 465.835 1514.45 469.349 1527.09 469.349C1533.87 469.349 1542.53 468.34 1553.33 465.369C1553.62 465.314 1583.02 460 1600.29 463.456C1601.09 463.608 1601.88 463.095 1602.04 462.283C1602.2 461.476 1601.68 460.691 1600.87 460.527C1583.04 456.966 1554.02 462.213 1552.66 462.466C1521.18 471.121 1508.72 462.513 1508.61 462.43C1508.47 462.324 1508.3 462.246 1508.14 462.197C1497.2 459.021 1491.09 454.972 1490.46 450.49C1489.62 444.472 1498.6 438.12 1502.52 435.666C1512.05 429.573 1545.37 423.369 1557.61 424.422C1567.3 425.063 1569.27 423.984 1569.95 422.736C1570.39 421.929 1570.15 421.122 1569.82 420.676C1569.33 420.024 1568.39 419.888 1567.73 420.382C1567.44 420.598 1567.25 420.906 1567.18 421.233C1566.42 421.474 1564.16 421.871 1557.83 421.449C1551.35 420.895 1539.54 422.226 1528.13 424.506C1527.09 423.285 1524.16 419.988 1521.13 417.888C1516.21 414.474 1513.35 411.928 1512.63 410.314C1511.46 407.665 1504.48 398.402 1501.15 396.28C1500.47 395.845 1499.35 394.389 1498.06 392.7C1494.55 388.098 1489.24 381.146 1479.97 376.802C1467.43 370.667 1437.4 346.633 1437.23 346.511C1427 336.057 1425.83 335.431 1421.45 333.095C1420.51 332.599 1419.43 332.019 1418.06 331.237C1412.08 327.82 1400.5 316.219 1396.25 311.867C1400.05 310.228 1402.13 306.406 1402.25 306.179C1402.63 305.45 1402.35 304.554 1401.62 304.174C1400.89 303.788 1400 304.077 1399.61 304.801C1399.52 304.973 1397.9 307.929 1395.09 309.127C1396.37 303.852 1391.39 292.9 1388.88 287.891C1388.84 287.811 1388.63 287.511 1388.58 287.439C1386.7 284.935 1384.13 281.543 1380.99 281.856C1379.11 282.07 1377.59 283.526 1376.37 286.283C1376.36 286.291 1376.36 286.299 1376.36 286.305L1376.35 286.31C1376.35 286.316 1376.35 286.321 1376.35 286.327C1376.29 286.446 1376.26 286.565 1376.21 286.687C1375.88 286.008 1375.54 285.323 1375.25 284.657C1375.2 284.56 1370.79 274.809 1371.82 266.062C1372.85 257.317 1372.22 254.629 1371.67 252.256L1371.52 251.634C1371.32 250.725 1370.83 247.51 1372.98 244.388C1375.37 240.915 1380.16 238.633 1386.93 237.606C1387.53 237.634 1399.1 238.161 1405.89 238.053C1405.61 238.328 1405.39 238.555 1405.31 238.641C1404.74 239.24 1404.77 240.183 1405.37 240.749C1405.96 241.315 1406.91 241.292 1407.48 240.693C1408.77 239.323 1412.67 235.599 1415.06 234.8C1418.18 233.757 1418.92 233.51 1426.82 233.51C1430.36 233.657 1440.25 234.872 1443.48 238.699C1448.41 244.729 1451.17 247.228 1451.28 247.33C1451.3 247.352 1451.34 247.341 1451.36 247.36C1451.39 247.397 1451.4 247.438 1451.43 247.471C1451.88 247.993 1462.79 260.379 1484.38 271.581C1492.12 275.552 1496.98 277.117 1500.89 278.373C1508.02 280.667 1511.59 281.818 1524.12 295.042C1524.28 295.211 1524.48 295.338 1524.7 295.419C1525 295.53 1546.68 303.437 1563.84 312.467C1564.31 312.795 1564.74 313.086 1565.14 313.324C1565.34 313.449 1565.57 313.499 1565.8 313.516C1572.08 316.927 1577.6 320.458 1580.97 323.764C1593.52 336.05 1614.22 371.034 1627.87 411.719C1629.14 415.111 1631.99 424.884 1629.84 429.214L1629.84 429.21ZM1659.55 426.572C1658.25 428.025 1656.84 428.686 1655.29 428.613C1651.55 428.43 1647.53 424.009 1646.27 422.276C1635.96 409.113 1630.68 405.741 1628.63 404.875C1614.88 366.308 1595.23 333.556 1583.04 321.621C1579.12 317.774 1572.59 313.706 1565.33 309.867C1562.5 307.831 1558.1 303.89 1552.15 298.379C1549.75 296.149 1548.14 294.488 1546.76 293.071C1543.75 289.981 1541.77 287.937 1535.31 283.76C1528.89 279.414 1527.26 276.533 1527.93 275.196C1528.18 274.703 1528.64 273.782 1529.22 273.646C1529.67 273.541 1530.32 273.826 1531.11 274.434C1534.41 276.971 1539.45 284.895 1539.51 284.995C1545.12 293.515 1561.01 303.76 1569.09 308.619C1570.44 309.653 1572.07 310.629 1574.03 311.489C1574.76 311.803 1575.61 311.5 1575.96 310.785C1576.31 310.072 1576.05 309.207 1575.35 308.821C1575.28 308.785 1573.48 307.776 1570.73 306.114C1565.77 302.209 1565.46 297.522 1565.46 296.346C1565.26 293.919 1564.17 291.204 1562.21 288.264C1560.27 285.366 1559.15 282.357 1559.65 281.417C1559.84 281.064 1560.64 281.026 1560.97 281.026C1562.24 281.026 1563.22 281.428 1563.98 282.254C1565.79 284.237 1565.95 288.259 1565.76 290.458C1565.76 292.33 1566.78 299.211 1580.04 309.154C1587.32 314.299 1598.98 329.159 1608.35 341.101C1613.16 347.239 1617.72 353.041 1621.05 356.749C1631.34 367.87 1644.7 387.013 1647.54 393.736C1649.37 398.065 1653.58 402.813 1657.29 407.004C1659.7 409.722 1661.97 412.287 1662.6 413.76L1662.81 414.16C1664.56 417.637 1665.71 419.931 1659.55 426.57L1659.55 426.572Z" fill="#767382"/>
<mask id="path-7-inside-1_124_1157" fill="white">
<path d="M1967.22 347.275C1966.93 354.813 1963.99 379.815 1959.99 385.924C1957.96 389.032 1954.39 392.065 1950.95 394.997C1946.65 398.661 1942.94 401.825 1941.52 405.54C1940.81 407.426 1940.02 409.42 1939.2 411.497C1934.13 424.381 1927.82 440.415 1928.28 453.702C1928.62 463.198 1930.41 468.853 1934.11 472.046C1936.23 473.878 1938.86 474.781 1942.08 474.781C1942.78 474.781 1943.5 474.741 1944.26 474.656C1951.86 473.81 1953.56 462.749 1955.36 451.036C1956.07 446.352 1956.81 441.506 1957.83 438.623C1960.17 431.968 1968.92 429.202 1981.03 425.365L1985.01 424.095C1991.38 422.047 2000.01 418.283 2007.97 414.563C2007.88 421.951 2008.43 431.222 2009.08 433.807C2009.76 436.519 2013.06 440.408 2021.99 449.997C2023.96 452.108 2025.7 453.971 2026.74 455.184C2029.64 458.587 2032.49 460.356 2035.25 462.06C2036.46 462.819 2037.75 463.608 2039.15 464.622C2044.91 468.781 2049.12 468.954 2058.08 468.954C2070.7 468.954 2073.35 462.861 2073.35 457.757C2073.35 450.037 2060.78 448.537 2057.15 448.27C2054.35 446.345 2046.01 437.386 2045.11 435.012C2044.82 433.873 2046.84 430.268 2048.04 428.112C2048.72 426.902 2049.41 425.672 2050.02 424.46C2051.88 420.73 2056.14 411.161 2058.16 406.591C2076.2 406.912 2096.4 406.636 2104.32 406.5C2105.32 412.939 2107.68 427.78 2109.17 434.128C2110.77 440.957 2118.1 462.51 2121.35 466.001C2122.25 466.981 2124.15 469.026 2133.36 469.026C2135.52 469.026 2138.09 468.912 2141.14 468.648C2147 468.139 2150.63 462.976 2150.63 458.485C2150.63 456.181 2149.53 453.781 2147.61 451.903C2146 450.327 2143.2 448.52 2138.58 448.069C2137.82 446.032 2136.93 442.766 2137.5 439.712L2137.79 438.116C2141.26 418.838 2143.78 414.509 2144.97 413.651C2146 412.956 2149.79 411.78 2154.18 410.541L2160.04 416.469C2168.18 424.712 2189.43 439.24 2194.72 442.615C2199.16 445.45 2203.87 450.764 2206.99 454.286C2207.72 455.113 2208.37 455.851 2208.93 456.454C2212.95 460.811 2218.19 460.944 2224.78 460.944H2225.44H2226.18C2230.47 460.944 2233.98 459.348 2236.08 456.448C2238.05 453.716 2238.55 450.063 2237.42 446.674C2235.6 441.19 2228.4 440.539 2224.82 440.394C2223.89 439.298 2221.81 436.656 2217.41 430.462C2212.41 423.4 2200.04 402.739 2199.17 400.748C2198.8 399.371 2198.95 393.517 2199.31 388.372C2201.51 385.864 2203.72 383.527 2205.56 382.243C2211.16 378.343 2229.48 370.56 2232.58 370.421C2234.24 370.421 2236.97 371.051 2239.37 371.611C2243.18 372.494 2245.43 372.974 2247.31 372.506C2250 371.833 2264.41 360.394 2265.34 357.122C2265.9 355.191 2265.15 353.504 2263.36 349.425C2262.08 346.511 2260.32 342.52 2259.83 339.835C2258.87 334.538 2253.85 324.525 2244.44 318.18C2245.95 311.298 2246.2 308.151 2244.51 306.026C2243.64 304.927 2242.34 304.299 2240.94 304.299C2236.24 304.299 2230.19 308.236 2225.17 312.32C2216.51 311.985 2208.87 313.689 2202.09 315.229C2197.06 316.373 2192.69 317.294 2188.85 317.322C2175.64 317.203 2166.19 315.041 2159.94 313.61C2157.24 312.99 2155.1 312.502 2153.24 312.277C2152.22 312.155 2149.94 311.732 2146.64 311.124C2130.76 308.204 2093.58 301.373 2058.6 301.373C2021.92 301.373 2017.74 301.953 2012.88 302.623C2012.16 302.72 2011.42 302.822 2010.54 302.93C2005.83 303.495 1993.17 298.019 1979.58 281.019C1965.67 263.633 1955.5 240.433 1964.04 231.69C1969.27 226.338 1977.55 227.625 1984.2 228.664C1989.85 229.539 1995.19 230.38 1997.39 225.753C1998.95 222.467 1999.63 216.82 1996.42 211.705C1992.21 204.97 1983.09 201.488 1969.32 201.357H1968.92C1957.12 201.357 1946.67 206.408 1939.48 215.602C1931.02 226.43 1927.95 241.645 1931.49 255.317C1936.19 273.461 1945.44 298.067 1975.45 327.818C1975.06 329.369 1973.29 332.609 1972.18 334.638C1969.8 338.921 1967.37 343.36 1967.22 347.277L1967.22 347.275ZM2042.72 420.818C2042.17 421.926 2041.54 423.037 2040.93 424.136C2038.57 428.354 2036.13 432.711 2037.19 436.986C2038.17 440.909 2051.23 456.358 2056.16 456.358C2058.14 456.361 2063.42 457.417 2065.15 458.499C2064.96 459.633 2063.88 460.809 2058.07 460.809C2049.03 460.809 2047.31 460.471 2043.91 458.017C2042.33 456.881 2040.89 455.98 2039.52 455.134C2036.99 453.566 2035 452.333 2032.92 449.893C2031.83 448.618 2030.01 446.655 2027.94 444.437C2024.63 440.886 2017.75 433.498 2016.97 431.822C2016.42 429.587 2015.8 417.16 2016.24 410.598C2021.53 408.016 2025.87 405.801 2028.01 404.702C2032.12 405.557 2040.03 406.074 2049.33 406.372C2047.17 411.246 2044.15 417.963 2042.72 420.818L2042.72 420.818ZM2210.76 435.177C2219.77 447.885 2220.57 448.043 2222.31 448.393C2222.49 448.43 2222.99 448.487 2223.71 448.507C2227.94 448.632 2229.35 449.242 2229.76 449.509C2229.95 450.316 2229.84 451.145 2229.45 451.685C2228.76 452.654 2227.09 452.796 2226.17 452.796H2225.42C2219.33 452.796 2216.56 452.722 2214.91 450.927C2214.38 450.356 2213.76 449.66 2213.07 448.882C2209.65 445.024 2204.48 439.193 2199.09 435.75C2192.48 431.532 2172.88 417.904 2165.82 410.743L2163.21 408.104C2163.86 407.934 2164.53 407.758 2165.14 407.599C2179.61 403.824 2186.22 401.958 2188.79 399.901C2189.44 399.384 2190.12 398.737 2190.81 398.035C2190.87 400.478 2191.09 402.54 2191.57 403.704C2192.81 406.695 2205.82 428.211 2210.76 435.176L2210.76 435.177ZM1979.29 338.539C1982.65 332.407 1985.82 326.616 1981.78 322.648C1948.94 290.335 1942.22 264.366 1939.35 253.268C1936.48 242.17 1939.04 229.349 1945.87 220.606C1949.89 215.476 1957.36 209.316 1969.22 209.495C1979.73 209.591 1986.93 211.915 1989.5 216.022C1990.69 217.919 1990.68 219.885 1990.36 221.223C1989.13 221.191 1987.05 220.865 1985.43 220.612C1977.83 219.428 1966.36 217.638 1958.2 225.994C1945.64 238.853 1956.68 265.448 1973.21 286.1C1988.05 304.648 2003.08 311.973 2011.47 311.016C2012.42 310.906 2013.21 310.798 2013.99 310.69C2018.36 310.088 2022.48 309.517 2058.59 309.517C2092.83 309.517 2129.51 316.257 2145.17 319.135C2148.72 319.785 2151.18 320.234 2152.28 320.364C2153.71 320.535 2155.66 320.978 2158.12 321.546C2164.71 323.057 2174.68 325.338 2188.77 325.463C2193.64 325.48 2198.59 324.367 2203.89 323.165C2207.78 322.282 2211.77 321.427 2215.93 320.901C2214.44 322.534 2214.51 325.06 2216.12 326.591C2217.75 328.141 2220.33 328.076 2221.87 326.443C2224.12 324.077 2226.71 321.662 2229.27 319.512C2229.27 319.509 2229.27 319.509 2229.28 319.504C2232.04 317.183 2234.77 315.172 2237.01 313.9C2236.6 316.021 2236.04 318.419 2235.69 319.936C2234.66 324.412 2234.31 326.028 2234.48 327.358C2234.75 329.403 2236.5 330.891 2238.51 330.891C2238.69 330.891 2238.87 330.88 2239.06 330.854C2241.06 330.59 2242.48 328.9 2242.54 326.946C2248.32 331.945 2251.3 338.48 2251.82 341.287C2252.48 344.92 2254.37 349.235 2255.9 352.7C2256.22 353.413 2256.59 354.265 2256.89 354.983C2254.12 357.631 2247.56 363.132 2245.31 364.518C2244.38 364.408 2242.51 363.976 2241.2 363.672C2238.37 363.016 2235.17 362.272 2232.58 362.272C2226.84 362.272 2206.29 371.804 2200.9 375.559C2197.31 378.064 2193.59 382.464 2189.98 386.719C2187.66 389.463 2185.26 392.3 2183.76 393.499C2181.83 394.822 2170.56 397.762 2163.1 399.708C2150.85 402.903 2143.2 404.96 2140.35 406.931C2135.38 410.357 2132.62 420.846 2129.78 436.656L2129.49 438.235C2128.08 445.87 2131.85 453.164 2132.28 453.966C2133.01 455.309 2134.46 456.05 2135.95 456.107C2140.95 455.911 2142.39 458.044 2142.48 458.482C2142.48 458.718 2142.05 460.396 2140.43 460.535C2132.83 461.191 2128.51 460.777 2127.21 460.291C2125.23 457.096 2118.93 440.101 2117.1 432.276C2115.45 425.261 2112.53 406.392 2111.99 402.81C2114.45 386.282 2127.68 364.278 2127.81 364.053C2128.98 362.127 2128.36 359.628 2126.44 358.457C2124.51 357.293 2122.02 357.906 2120.85 359.829C2120.29 360.738 2108.21 380.84 2104.53 398.351C2070.81 398.945 2033.63 398.448 2029.06 396.596C2027.95 396.144 2026.7 396.201 2025.65 396.758C2025.36 396.905 1997.03 411.664 1982.51 416.345L1978.57 417.601C1964.74 421.978 1953.82 425.434 1950.14 435.924C1948.87 439.529 1948.11 444.516 1947.3 449.805C1946.47 455.202 1944.93 465.237 1943.35 466.57C1940.88 466.842 1939.96 466.351 1939.43 465.891C1938.22 464.846 1936.71 461.835 1936.42 453.422C1936.01 441.83 1941.98 426.668 1946.78 414.48C1947.61 412.375 1948.4 410.35 1949.13 408.438C1949.81 406.671 1953.22 403.763 1956.23 401.198C1959.94 398.045 1964.13 394.475 1966.81 390.387C1972.69 381.412 1975.21 351.533 1975.36 347.594C1975.43 345.588 1977.57 341.68 1979.29 338.541L1979.29 338.539Z"/>
</mask>
<path d="M1967.22 347.275C1966.93 354.813 1963.99 379.815 1959.99 385.924C1957.96 389.032 1954.39 392.065 1950.95 394.997C1946.65 398.661 1942.94 401.825 1941.52 405.54C1940.81 407.426 1940.02 409.42 1939.2 411.497C1934.13 424.381 1927.82 440.415 1928.28 453.702C1928.62 463.198 1930.41 468.853 1934.11 472.046C1936.23 473.878 1938.86 474.781 1942.08 474.781C1942.78 474.781 1943.5 474.741 1944.26 474.656C1951.86 473.81 1953.56 462.749 1955.36 451.036C1956.07 446.352 1956.81 441.506 1957.83 438.623C1960.17 431.968 1968.92 429.202 1981.03 425.365L1985.01 424.095C1991.38 422.047 2000.01 418.283 2007.97 414.563C2007.88 421.951 2008.43 431.222 2009.08 433.807C2009.76 436.519 2013.06 440.408 2021.99 449.997C2023.96 452.108 2025.7 453.971 2026.74 455.184C2029.64 458.587 2032.49 460.356 2035.25 462.06C2036.46 462.819 2037.75 463.608 2039.15 464.622C2044.91 468.781 2049.12 468.954 2058.08 468.954C2070.7 468.954 2073.35 462.861 2073.35 457.757C2073.35 450.037 2060.78 448.537 2057.15 448.27C2054.35 446.345 2046.01 437.386 2045.11 435.012C2044.82 433.873 2046.84 430.268 2048.04 428.112C2048.72 426.902 2049.41 425.672 2050.02 424.46C2051.88 420.73 2056.14 411.161 2058.16 406.591C2076.2 406.912 2096.4 406.636 2104.32 406.5C2105.32 412.939 2107.68 427.78 2109.17 434.128C2110.77 440.957 2118.1 462.51 2121.35 466.001C2122.25 466.981 2124.15 469.026 2133.36 469.026C2135.52 469.026 2138.09 468.912 2141.14 468.648C2147 468.139 2150.63 462.976 2150.63 458.485C2150.63 456.181 2149.53 453.781 2147.61 451.903C2146 450.327 2143.2 448.52 2138.58 448.069C2137.82 446.032 2136.93 442.766 2137.5 439.712L2137.79 438.116C2141.26 418.838 2143.78 414.509 2144.97 413.651C2146 412.956 2149.79 411.78 2154.18 410.541L2160.04 416.469C2168.18 424.712 2189.43 439.24 2194.72 442.615C2199.16 445.45 2203.87 450.764 2206.99 454.286C2207.72 455.113 2208.37 455.851 2208.93 456.454C2212.95 460.811 2218.19 460.944 2224.78 460.944H2225.44H2226.18C2230.47 460.944 2233.98 459.348 2236.08 456.448C2238.05 453.716 2238.55 450.063 2237.42 446.674C2235.6 441.19 2228.4 440.539 2224.82 440.394C2223.89 439.298 2221.81 436.656 2217.41 430.462C2212.41 423.4 2200.04 402.739 2199.17 400.748C2198.8 399.371 2198.95 393.517 2199.31 388.372C2201.51 385.864 2203.72 383.527 2205.56 382.243C2211.16 378.343 2229.48 370.56 2232.58 370.421C2234.24 370.421 2236.97 371.051 2239.37 371.611C2243.18 372.494 2245.43 372.974 2247.31 372.506C2250 371.833 2264.41 360.394 2265.34 357.122C2265.9 355.191 2265.15 353.504 2263.36 349.425C2262.08 346.511 2260.32 342.52 2259.83 339.835C2258.87 334.538 2253.85 324.525 2244.44 318.18C2245.95 311.298 2246.2 308.151 2244.51 306.026C2243.64 304.927 2242.34 304.299 2240.94 304.299C2236.24 304.299 2230.19 308.236 2225.17 312.32C2216.51 311.985 2208.87 313.689 2202.09 315.229C2197.06 316.373 2192.69 317.294 2188.85 317.322C2175.64 317.203 2166.19 315.041 2159.94 313.61C2157.24 312.99 2155.1 312.502 2153.24 312.277C2152.22 312.155 2149.94 311.732 2146.64 311.124C2130.76 308.204 2093.58 301.373 2058.6 301.373C2021.92 301.373 2017.74 301.953 2012.88 302.623C2012.16 302.72 2011.42 302.822 2010.54 302.93C2005.83 303.495 1993.17 298.019 1979.58 281.019C1965.67 263.633 1955.5 240.433 1964.04 231.69C1969.27 226.338 1977.55 227.625 1984.2 228.664C1989.85 229.539 1995.19 230.38 1997.39 225.753C1998.95 222.467 1999.63 216.82 1996.42 211.705C1992.21 204.97 1983.09 201.488 1969.32 201.357H1968.92C1957.12 201.357 1946.67 206.408 1939.48 215.602C1931.02 226.43 1927.95 241.645 1931.49 255.317C1936.19 273.461 1945.44 298.067 1975.45 327.818C1975.06 329.369 1973.29 332.609 1972.18 334.638C1969.8 338.921 1967.37 343.36 1967.22 347.277L1967.22 347.275ZM2042.72 420.818C2042.17 421.926 2041.54 423.037 2040.93 424.136C2038.57 428.354 2036.13 432.711 2037.19 436.986C2038.17 440.909 2051.23 456.358 2056.16 456.358C2058.14 456.361 2063.42 457.417 2065.15 458.499C2064.96 459.633 2063.88 460.809 2058.07 460.809C2049.03 460.809 2047.31 460.471 2043.91 458.017C2042.33 456.881 2040.89 455.98 2039.52 455.134C2036.99 453.566 2035 452.333 2032.92 449.893C2031.83 448.618 2030.01 446.655 2027.94 444.437C2024.63 440.886 2017.75 433.498 2016.97 431.822C2016.42 429.587 2015.8 417.16 2016.24 410.598C2021.53 408.016 2025.87 405.801 2028.01 404.702C2032.12 405.557 2040.03 406.074 2049.33 406.372C2047.17 411.246 2044.15 417.963 2042.72 420.818L2042.72 420.818ZM2210.76 435.177C2219.77 447.885 2220.57 448.043 2222.31 448.393C2222.49 448.43 2222.99 448.487 2223.71 448.507C2227.94 448.632 2229.35 449.242 2229.76 449.509C2229.95 450.316 2229.84 451.145 2229.45 451.685C2228.76 452.654 2227.09 452.796 2226.17 452.796H2225.42C2219.33 452.796 2216.56 452.722 2214.91 450.927C2214.38 450.356 2213.76 449.66 2213.07 448.882C2209.65 445.024 2204.48 439.193 2199.09 435.75C2192.48 431.532 2172.88 417.904 2165.82 410.743L2163.21 408.104C2163.86 407.934 2164.53 407.758 2165.14 407.599C2179.61 403.824 2186.22 401.958 2188.79 399.901C2189.44 399.384 2190.12 398.737 2190.81 398.035C2190.87 400.478 2191.09 402.54 2191.57 403.704C2192.81 406.695 2205.82 428.211 2210.76 435.176L2210.76 435.177ZM1979.29 338.539C1982.65 332.407 1985.82 326.616 1981.78 322.648C1948.94 290.335 1942.22 264.366 1939.35 253.268C1936.48 242.17 1939.04 229.349 1945.87 220.606C1949.89 215.476 1957.36 209.316 1969.22 209.495C1979.73 209.591 1986.93 211.915 1989.5 216.022C1990.69 217.919 1990.68 219.885 1990.36 221.223C1989.13 221.191 1987.05 220.865 1985.43 220.612C1977.83 219.428 1966.36 217.638 1958.2 225.994C1945.64 238.853 1956.68 265.448 1973.21 286.1C1988.05 304.648 2003.08 311.973 2011.47 311.016C2012.42 310.906 2013.21 310.798 2013.99 310.69C2018.36 310.088 2022.48 309.517 2058.59 309.517C2092.83 309.517 2129.51 316.257 2145.17 319.135C2148.72 319.785 2151.18 320.234 2152.28 320.364C2153.71 320.535 2155.66 320.978 2158.12 321.546C2164.71 323.057 2174.68 325.338 2188.77 325.463C2193.64 325.48 2198.59 324.367 2203.89 323.165C2207.78 322.282 2211.77 321.427 2215.93 320.901C2214.44 322.534 2214.51 325.06 2216.12 326.591C2217.75 328.141 2220.33 328.076 2221.87 326.443C2224.12 324.077 2226.71 321.662 2229.27 319.512C2229.27 319.509 2229.27 319.509 2229.28 319.504C2232.04 317.183 2234.77 315.172 2237.01 313.9C2236.6 316.021 2236.04 318.419 2235.69 319.936C2234.66 324.412 2234.31 326.028 2234.48 327.358C2234.75 329.403 2236.5 330.891 2238.51 330.891C2238.69 330.891 2238.87 330.88 2239.06 330.854C2241.06 330.59 2242.48 328.9 2242.54 326.946C2248.32 331.945 2251.3 338.48 2251.82 341.287C2252.48 344.92 2254.37 349.235 2255.9 352.7C2256.22 353.413 2256.59 354.265 2256.89 354.983C2254.12 357.631 2247.56 363.132 2245.31 364.518C2244.38 364.408 2242.51 363.976 2241.2 363.672C2238.37 363.016 2235.17 362.272 2232.58 362.272C2226.84 362.272 2206.29 371.804 2200.9 375.559C2197.31 378.064 2193.59 382.464 2189.98 386.719C2187.66 389.463 2185.26 392.3 2183.76 393.499C2181.83 394.822 2170.56 397.762 2163.1 399.708C2150.85 402.903 2143.2 404.96 2140.35 406.931C2135.38 410.357 2132.62 420.846 2129.78 436.656L2129.49 438.235C2128.08 445.87 2131.85 453.164 2132.28 453.966C2133.01 455.309 2134.46 456.05 2135.95 456.107C2140.95 455.911 2142.39 458.044 2142.48 458.482C2142.48 458.718 2142.05 460.396 2140.43 460.535C2132.83 461.191 2128.51 460.777 2127.21 460.291C2125.23 457.096 2118.93 440.101 2117.1 432.276C2115.45 425.261 2112.53 406.392 2111.99 402.81C2114.45 386.282 2127.68 364.278 2127.81 364.053C2128.98 362.127 2128.36 359.628 2126.44 358.457C2124.51 357.293 2122.02 357.906 2120.85 359.829C2120.29 360.738 2108.21 380.84 2104.53 398.351C2070.81 398.945 2033.63 398.448 2029.06 396.596C2027.95 396.144 2026.7 396.201 2025.65 396.758C2025.36 396.905 1997.03 411.664 1982.51 416.345L1978.57 417.601C1964.74 421.978 1953.82 425.434 1950.14 435.924C1948.87 439.529 1948.11 444.516 1947.3 449.805C1946.47 455.202 1944.93 465.237 1943.35 466.57C1940.88 466.842 1939.96 466.351 1939.43 465.891C1938.22 464.846 1936.71 461.835 1936.42 453.422C1936.01 441.83 1941.98 426.668 1946.78 414.48C1947.61 412.375 1948.4 410.35 1949.13 408.438C1949.81 406.671 1953.22 403.763 1956.23 401.198C1959.94 398.045 1964.13 394.475 1966.81 390.387C1972.69 381.412 1975.21 351.533 1975.36 347.594C1975.43 345.588 1977.57 341.68 1979.29 338.541L1979.29 338.539Z" fill="#767382" stroke="#242230" stroke-width="4" mask="url(#path-7-inside-1_124_1157)"/>
<path d="M2830.85 227.906C2828.42 224.792 2828.57 220.578 2828.74 215.7C2829 208.428 2829.32 199.381 2819.22 193.157C2802.02 182.553 2785.34 181.197 2766.72 188.888C2746.36 197.301 2744.82 211.211 2744.76 211.78C2744.75 211.845 2744 218.293 2739.35 221.721C2736.63 223.731 2733.02 224.314 2728.64 223.454C2727.72 223.275 2726.53 222.998 2725.07 222.667C2712.13 219.681 2681.83 212.697 2648.03 224.139C2605.76 238.451 2573.93 276.223 2553.43 336.408C2519.62 435.642 2545.55 493.758 2564.01 519.57C2583.61 546.979 2613.26 564 2641.37 564C2654.54 564 2664.77 561.266 2671.81 555.867C2677.97 551.151 2681.36 544.409 2681.36 536.876C2681.36 521.509 2666.85 504.372 2646.04 504.372C2630.49 504.372 2625.25 510.784 2623.5 514.602C2621.75 518.421 2622.06 522.885 2624.2 526.878C2613.36 522.233 2591.87 510.798 2583.46 490.428C2571.53 461.459 2561.52 412.195 2582.9 395.217C2589.14 390.263 2595.52 387.732 2601.79 385.714C2598.74 389.383 2594.78 394.931 2591.33 402.327C2589.33 406.633 2589.27 409.962 2591.15 412.232C2595.22 417.18 2607.32 414.966 2619.79 411.841C2633.44 408.433 2636.51 413.537 2638.67 419.535C2639.68 422.332 2642.55 424.718 2645.35 425.083C2645.6 425.114 2645.85 425.131 2646.08 425.131C2647.61 425.131 2648.92 424.483 2649.74 423.285C2651.23 421.131 2650.97 417.539 2648.98 412.569C2652.83 414.448 2656.6 415.547 2658.41 414.009C2659.63 412.979 2659.79 411.332 2658.89 409.112C2656.25 402.619 2647.98 394.917 2634.48 394.062C2638.2 391.44 2643.01 387.251 2647.54 380.958C2647.19 388.012 2648.8 394.146 2656.57 398.928L2657.22 399.332C2668.34 406.174 2674.46 409.936 2673.65 422.926C2673.36 427.625 2674.25 430.583 2676.32 431.698C2677.63 432.411 2679.18 432.213 2680.59 431.174C2682.9 429.445 2684.84 425.397 2685.21 420.174C2685.49 420.831 2685.73 421.53 2685.92 422.243C2686.54 424.638 2688.55 426.69 2690.81 427.242C2692.39 427.624 2693.88 427.194 2694.9 426.07C2696.89 423.851 2696.69 419.359 2694.3 412.715C2688.58 396.784 2680.91 389.263 2672.22 381.756C2668.39 378.444 2671.96 369.887 2676.1 359.977C2676.5 359.02 2676.91 358.038 2677.32 357.047C2679.08 356.404 2682.38 354.896 2689.1 351.74C2690.42 356.889 2692.28 362.51 2694.45 369.035C2695.39 371.88 2696.39 374.911 2697.44 378.161C2706.03 404.832 2707.86 406.385 2717.4 411.214C2719.27 412.163 2721.39 413.244 2723.98 414.758C2732.12 419.539 2736.27 421.209 2738.61 421.209C2739.72 421.209 2740.43 420.827 2740.96 420.219C2742.02 418.982 2741.88 417.317 2740.3 414.622C2741.06 415.044 2741.81 415.542 2742.5 416.159C2743.74 417.26 2745.26 417.538 2746.57 416.881C2748.08 416.134 2748.94 414.328 2748.77 412.276C2748.72 411.576 2748.44 410.096 2747.29 408.432C2750.38 409.136 2753.4 410.586 2756 411.84C2758.57 413.094 2760.67 414.107 2762.35 414.107C2763.19 414.107 2763.92 413.861 2764.56 413.266C2765.31 412.567 2765.72 411.644 2765.76 410.571C2765.79 409.414 2765.33 408.177 2764.73 407.044C2766.14 406.988 2767.42 406.512 2768 405.125C2769.27 402.048 2764.86 398.088 2760.2 395.711C2756.32 393.724 2754.22 393.483 2752.01 393.24C2749.64 392.971 2747.18 392.69 2741.49 389.939C2731.27 384.985 2731.2 367.823 2732.29 353.423C2733.34 339.63 2739.84 325.974 2741.12 323.416C2750.78 317.106 2758.7 311.034 2764.76 305.28C2778.79 291.964 2782.63 284.511 2784.92 280.058C2787.18 275.668 2787.8 274.479 2795.85 272.337C2796.73 272.187 2805.94 270.706 2816.18 272.354C2832.43 274.972 2835.16 259.157 2836.06 253.957C2838.1 242.241 2838.16 237.299 2830.85 227.907L2830.85 227.906ZM2626.77 394.314C2624.64 394.569 2622.41 394.971 2620.09 395.568C2619.1 395.823 2618.5 396.831 2618.75 397.821C2619.01 398.812 2620.01 399.415 2621.01 399.152C2640.84 394.088 2652.48 403.177 2655.47 410.52C2655.56 410.752 2655.63 410.942 2655.67 411.1C2653.93 410.877 2649.69 408.969 2645.82 406.6C2645.11 406.158 2644.19 406.26 2643.58 406.823C2642.98 407.403 2642.82 408.312 2643.22 409.042C2648.25 418.482 2646.88 420.948 2646.7 421.192C2646.64 421.277 2646.48 421.509 2645.83 421.432C2644.54 421.265 2642.76 419.966 2642.16 418.307C2639.57 411.112 2634.79 404.296 2618.9 408.265C2613.52 409.612 2597.15 413.711 2594 409.887C2592.9 408.539 2593.76 405.884 2594.69 403.894C2600.28 391.895 2607.46 384.858 2608.89 383.522C2621.99 379.449 2635.37 374.039 2647.16 349.538C2648.76 352.227 2650.78 357.483 2649.61 365.848C2649.35 367.691 2649.05 369.468 2648.78 371.172C2648.72 371.554 2648.66 371.931 2648.6 372.305C2640.17 387.91 2628.3 393.625 2626.77 394.316L2626.77 394.314ZM2728.6 353.153C2727.34 369.69 2727.7 387.387 2739.87 393.275C2746.13 396.301 2749.02 396.635 2751.59 396.918C2753.62 397.15 2755.23 397.331 2758.51 399.004C2761.71 400.643 2763.45 402.347 2764.14 403.321C2763.55 403.281 2762.56 403.114 2761.01 402.608C2760.2 402.339 2759.31 402.664 2758.87 403.375C2758.42 404.097 2758.51 405.031 2759.1 405.651C2760.8 407.42 2762.06 409.591 2762.08 410.375C2761.17 410.242 2759.13 409.26 2757.6 408.512C2753.53 406.556 2748.03 403.89 2742.43 404.368C2741.33 403.788 2740.05 403.253 2738.53 402.775C2727.77 399.44 2721.91 390.852 2719.74 353.179C2719.31 345.638 2720.53 339.608 2722.81 334.479C2727.24 331.974 2731.44 329.5 2735.37 327.06C2732.86 333.056 2729.37 342.943 2728.6 353.154L2728.6 353.153ZM2795.12 268.71C2795.06 268.722 2795.02 268.73 2794.97 268.747C2785.72 271.198 2784.32 273.137 2781.62 278.371C2779.44 282.617 2775.78 289.716 2762.21 302.604C2753.84 310.547 2741.8 319.124 2726.39 328.154C2730.04 322.877 2734.8 318.493 2739.7 314.001C2747.77 306.582 2756.12 298.908 2759.51 286.719C2759.79 285.734 2759.21 284.715 2758.23 284.438C2757.24 284.166 2756.23 284.743 2755.95 285.723C2752.84 296.889 2745.24 303.879 2737.19 311.269C2726.19 321.375 2714.81 331.82 2716.06 353.387C2718.11 389.064 2723.3 401.921 2737.43 406.308C2743.69 408.245 2744.82 411.262 2745.01 412.148C2745.16 412.748 2745.08 413.195 2744.98 413.422C2744.97 413.413 2744.97 413.405 2744.96 413.396C2741.18 410.011 2735.96 409.204 2735.74 409.173C2734.97 409.071 2734.24 409.428 2733.87 410.079C2733.48 410.735 2733.54 411.559 2734.02 412.156C2736.17 414.877 2737.14 416.47 2737.56 417.354C2736.12 416.971 2732.88 415.689 2725.84 411.568C2723.15 409.988 2720.97 408.89 2719.05 407.916C2710.61 403.642 2709.31 402.977 2700.94 377.022C2699.9 373.764 2698.89 370.727 2697.94 367.876C2689.58 342.692 2686.13 332.272 2700.74 309.989C2717.18 284.899 2738.28 265.995 2738.48 265.806C2739.25 265.129 2739.32 263.954 2738.64 263.193C2737.96 262.429 2736.8 262.361 2736.02 263.04C2735.81 263.23 2714.37 282.444 2697.64 307.959C2686.99 324.205 2685.43 334.808 2688.22 348.061C2684.57 349.771 2681.5 351.152 2679.27 352.143C2681.05 347.526 2682.69 342.68 2683.64 337.84L2683.77 337.175C2687.04 320.692 2693.81 286.405 2682.63 272.268C2679.46 268.271 2675.11 266.137 2669.69 265.933C2641.89 264.892 2613.8 291.542 2598.17 314.654C2597.6 315.498 2597.82 316.647 2598.66 317.222C2599.51 317.793 2600.66 317.57 2601.23 316.726C2616.33 294.398 2643.28 268.65 2669.55 269.633C2673.9 269.794 2677.23 271.405 2679.73 274.564C2689.85 287.358 2683.05 321.762 2680.14 336.447L2680.01 337.118C2678.57 344.436 2675.44 351.939 2672.67 358.56C2667.98 369.798 2663.92 379.499 2669.79 384.572C2678.08 391.73 2685.38 398.883 2690.8 413.976C2693.62 421.826 2692.19 423.533 2692.13 423.606C2692.09 423.646 2692.01 423.731 2691.67 423.654C2690.86 423.456 2689.78 422.474 2689.48 421.325C2688.13 416.094 2684.37 411.919 2684.22 411.743C2683.65 411.126 2682.74 410.967 2682.01 411.346C2681.26 411.72 2680.87 412.552 2681.04 413.368C2682.42 419.963 2680.92 424.993 2679.23 427.303C2678.58 428.191 2678.09 428.418 2678.08 428.46C2678.07 428.46 2677.06 427.555 2677.33 423.164C2678.28 407.955 2670.67 403.279 2659.15 396.186L2658.51 395.781C2649.43 390.202 2650.63 382.868 2652.42 371.762C2652.71 370.03 2653 368.227 2653.26 366.361C2655.35 351.557 2648.31 344.9 2648.01 344.622C2647.58 344.217 2646.97 344.05 2646.39 344.172C2645.81 344.294 2645.32 344.684 2645.08 345.222C2633.52 370.913 2620.83 375.954 2607.41 380.11C2607.39 380.11 2607.38 380.119 2607.37 380.119C2606.63 380.351 2605.88 380.577 2605.14 380.809C2597.14 383.244 2588.87 385.763 2580.61 392.319C2555.82 412 2569.4 466.023 2580.05 491.842C2591.69 520.075 2625.67 531.647 2629.32 532.819C2635.01 537.226 2644.41 539.969 2656.62 536.377C2657.6 536.094 2658.16 535.069 2657.88 534.087C2657.6 533.105 2656.57 532.541 2655.58 532.833C2642.71 536.615 2633.53 532.666 2629.24 527.704C2626.11 524.081 2625.22 519.761 2626.88 516.138C2629.22 511.009 2636.21 508.07 2646.05 508.07C2664.69 508.07 2677.67 523.248 2677.67 536.875C2677.67 543.32 2674.87 548.874 2669.58 552.933C2663.29 557.754 2653.54 560.301 2641.39 560.301C2614.45 560.301 2585.96 543.861 2567.03 517.409C2548.98 492.179 2523.67 435.263 2556.95 337.595C2578.55 274.188 2625.11 203.404 2724.26 226.26C2725.76 226.605 2727 226.888 2727.95 227.075C2733.39 228.139 2737.96 227.335 2741.56 224.689C2747.51 220.307 2748.42 212.497 2748.46 212.155C2748.51 211.651 2749.98 199.81 2768.15 192.303C2785.82 185.003 2800.98 186.24 2817.3 196.3C2825.57 201.398 2825.32 208.279 2825.06 215.562C2824.91 219.953 2824.75 224.462 2826.74 228.289C2820.96 231.431 2804.63 242.671 2807.84 267.906C2800.68 267.731 2795.41 268.657 2795.12 268.708L2795.12 268.71ZM2832.41 253.326C2832.19 254.569 2831.94 255.709 2831.67 256.791C2831.43 256.658 2831.19 256.522 2830.91 256.389C2830.22 256.1 2829.43 255.698 2828.52 255.565C2827.62 255.46 2826.62 255.534 2825.63 255.418C2824.65 255.341 2823.68 255.143 2822.75 255.053C2822.28 254.985 2821.83 254.92 2821.41 254.854C2820.98 254.792 2820.58 254.75 2820.2 254.676C2818.71 254.421 2817.71 254.226 2817.71 254.226C2817.64 254.215 2817.56 254.237 2817.52 254.303C2817.46 254.387 2817.48 254.506 2817.56 254.566C2817.56 254.566 2818.41 255.177 2819.77 255.922C2821.11 256.689 2822.98 257.597 2824.94 258.297C2825.43 258.472 2825.91 258.679 2826.4 258.888C2826.86 259.112 2827.35 259.256 2827.83 259.358C2828.8 259.525 2829.72 259.511 2830.53 259.333C2830.69 259.301 2830.83 259.265 2830.97 259.228C2828.43 266.998 2823.99 269.879 2816.74 268.702C2814.97 268.419 2813.24 268.226 2811.58 268.096C2808.13 243.668 2824.05 233.718 2828.79 231.332C2834.53 239.068 2834.2 243.036 2832.41 253.326L2832.41 253.326Z" fill="#767382"/>
<path d="M2788.68 219.445C2788.44 219.219 2788.11 218.994 2787.73 218.737C2787.33 218.483 2786.89 218.143 2786.34 217.903C2785.8 217.632 2785.21 217.329 2784.55 217.006C2783.88 216.735 2783.13 216.49 2782.34 216.201C2781.55 215.887 2780.68 215.673 2779.77 215.462C2778.85 215.248 2777.88 214.996 2776.86 214.819C2775.83 214.685 2774.76 214.545 2773.66 214.397C2773.1 214.331 2772.54 214.263 2771.97 214.197C2771.39 214.177 2770.81 214.16 2770.22 214.14C2767.85 214.111 2765.39 213.846 2762.67 214.237C2761.29 214.437 2759.92 214.708 2758.52 215.305C2757.14 215.879 2755.72 216.761 2754.66 218.111C2753.56 219.43 2752.99 221.161 2752.85 222.785C2752.7 224.421 2752.92 225.997 2753.31 227.465C2754.14 230.383 2755.58 232.929 2757.19 235.236C2758 236.395 2758.89 237.475 2759.86 238.477C2760.34 238.979 2760.84 239.462 2761.35 239.924C2761.83 240.356 2762.29 240.781 2762.77 241.206C2764.57 242.897 2766.41 244.615 2768.29 246.117C2770.16 247.628 2772.14 248.901 2774.18 249.678C2776.21 250.483 2778.24 250.697 2779.97 250.594C2780.83 250.497 2781.64 250.443 2782.36 250.2C2782.71 250.106 2783.05 250.012 2783.37 249.923C2783.7 249.826 2783.98 249.678 2784.27 249.572C2785.41 249.155 2786.21 248.644 2786.76 248.316C2787.31 247.996 2787.6 247.825 2787.6 247.825C2787.6 247.825 2787.28 247.93 2786.68 248.136C2786.38 248.23 2786.01 248.356 2785.58 248.501C2785.15 248.644 2784.62 248.721 2784.06 248.861C2783.77 248.915 2783.47 249.009 2783.16 249.047C2782.85 249.075 2782.51 249.104 2782.17 249.138C2781.49 249.241 2780.75 249.195 2779.97 249.169C2778.42 249.021 2776.73 248.593 2775.04 247.722C2773.37 246.842 2771.73 245.529 2770.08 244.002C2768.44 242.454 2766.84 240.667 2765.01 238.817C2764.55 238.366 2764.09 237.909 2763.63 237.449C2763.21 237.026 2762.79 236.59 2762.39 236.124C2761.59 235.191 2760.83 234.2 2760.12 233.169C2758.7 231.099 2757.5 228.801 2756.87 226.468C2756.21 224.158 2756.25 221.831 2757.46 220.335C2758.64 218.808 2760.88 217.863 2763.15 217.469C2765.45 217.043 2767.91 217.055 2770.18 216.904C2770.76 216.875 2771.31 216.846 2771.87 216.818C2772.42 216.835 2772.97 216.849 2773.49 216.866C2774.57 216.886 2775.6 216.904 2776.6 216.929C2777.59 216.984 2778.53 217.143 2779.43 217.221C2780.33 217.295 2781.2 217.383 2781.97 217.572C2782.77 217.732 2783.51 217.88 2784.2 218.014C2784.87 218.22 2785.48 218.403 2786.04 218.571C2786.62 218.714 2787.07 218.959 2787.5 219.119C2787.93 219.288 2788.29 219.439 2788.56 219.599C2789.12 219.89 2789.4 220.093 2789.4 220.093C2789.39 220.09 2789.18 219.844 2788.68 219.445L2788.68 219.445Z" fill="#767382"/>
<path d="M2819.42 219.183C2819.42 222.551 2816.69 225.283 2813.32 225.283C2809.95 225.283 2807.22 222.551 2807.22 219.183C2807.22 215.815 2809.95 213.086 2813.32 213.086C2816.69 213.086 2819.42 215.815 2819.42 219.183Z" fill="#767382"/>
<path d="M2764.2 225.498C2764.36 225.34 2764.54 225.235 2764.72 225.115C2764.92 225.005 2765.36 224.788 2765.5 224.755C2766.07 224.58 2766.61 224.342 2767.22 224.231C2768.38 223.931 2769.58 223.757 2770.75 223.66C2771.92 223.568 2773.08 223.538 2774.17 223.543C2775.27 223.579 2776.32 223.618 2777.29 223.69C2779.21 223.846 2780.84 224.045 2781.98 224.2C2783.11 224.356 2783.77 224.464 2783.77 224.464C2783.77 224.464 2783.18 224.162 2782.1 223.737C2781.02 223.316 2779.44 222.767 2777.5 222.326C2776.52 222.099 2775.45 221.902 2774.31 221.749C2773.15 221.622 2771.94 221.5 2770.65 221.539C2770.01 221.564 2769.36 221.564 2768.7 221.655L2767.7 221.758L2766.69 221.966C2766.01 222.076 2765.35 222.334 2764.68 222.534C2764.2 222.706 2764.05 222.784 2763.67 222.964C2763.28 223.177 2762.9 223.421 2762.58 223.715C2761.93 224.295 2761.42 225.19 2761.3 226.097C2761.16 227.004 2761.32 227.833 2761.55 228.562C2762.03 230.01 2762.84 231.13 2763.63 232.147C2765.27 234.163 2767.05 235.688 2768.66 236.894C2770.25 238.103 2771.69 238.957 2772.71 239.501C2773.73 240.044 2774.35 240.297 2774.35 240.297C2774.35 240.297 2772.29 238.619 2769.58 235.844C2768.22 234.452 2766.68 232.788 2765.34 230.875C2764.67 229.929 2764.11 228.87 2763.78 227.858C2763.63 227.353 2763.56 226.868 2763.64 226.48C2763.7 226.092 2763.88 225.789 2764.2 225.498L2764.2 225.498Z" fill="#767382"/>
<path d="M2480.12 349.121C2481.29 347.95 2481.29 346.05 2480.12 344.879L2461.03 325.787C2459.86 324.615 2457.96 324.615 2456.79 325.787C2455.62 326.958 2455.62 328.858 2456.79 330.029L2473.76 347L2456.79 363.971C2455.62 365.142 2455.62 367.042 2456.79 368.213C2457.96 369.385 2459.86 369.385 2461.03 368.213L2480.12 349.121ZM2355 350H2478V344H2355V350Z" fill="#767382" fill-opacity="0.7"/>
<mask id="path-13-inside-2_124_1157" fill="white">
<path d="M3271.21 284.396C3271.21 274.552 3273.67 259.79 3273.67 255.481C3273.67 253.636 3272.44 248.714 3271.83 245.637C3272.44 245.024 3273.06 230.871 3269.37 220.413C3266.29 211.187 3258.3 205.647 3257.68 205.647C3253.99 202.57 3249.68 200.725 3247.22 200.111C3245.99 199.498 3242.91 197.034 3241.69 197.034C3238.61 193.957 3228.76 189.035 3225.69 187.808C3222.61 185.963 3211.54 182.272 3207.85 177.964V166.274C3209.7 164.429 3210.31 155.203 3210.93 152.74C3212.78 153.971 3215.85 150.894 3215.85 149.663C3215.85 147.204 3218.93 145.972 3218.93 138.591C3219.54 136.132 3218.93 132.438 3217.08 132.438C3215.24 132.438 3213.39 133.669 3213.39 133.669C3213.39 131.21 3214.62 124.443 3214.62 120.748C3214.62 117.671 3215.24 99.832 3190.63 99.832C3165.41 99.832 3166.64 117.671 3166.64 120.748C3166.64 124.438 3167.87 131.206 3167.87 133.669C3167.87 133.669 3165.41 132.438 3164.18 132.438C3162.33 132.438 3161.1 136.128 3162.33 138.591C3162.33 146.59 3165.41 147.204 3165.41 149.663C3165.41 150.894 3168.49 154.585 3170.33 152.74C3170.95 155.199 3172.18 164.429 3173.41 166.274V177.964C3169.72 182.272 3158.64 185.963 3155.57 187.808C3152.5 189.653 3142.65 194.575 3139.58 197.034C3138.35 197.648 3135.27 199.493 3134.04 200.111C3131.58 200.725 3127.27 202.57 3123.58 205.647C3122.97 205.647 3114.97 211.183 3111.89 220.413C3108.2 230.871 3108.82 245.019 3109.44 245.637C3108.82 248.714 3107.59 254.25 3107.59 255.481C3107.59 259.79 3110.05 274.551 3110.05 284.396C3108.82 288.704 3105.74 299.162 3107.59 310.234C3109.44 320.692 3113.13 350.838 3113.74 360.683C3113.74 365.605 3114.36 369.909 3116.2 374.217C3118.05 378.525 3120.51 387.752 3120.51 391.443C3120.51 393.902 3121.13 396.979 3122.36 398.824C3123.59 401.283 3123.59 406.823 3126.67 410.514C3127.9 411.745 3135.89 418.513 3140.81 420.972C3143.27 438.197 3147.58 456.653 3154.96 467.112C3153.73 472.034 3153.73 481.878 3154.96 488.027C3155.58 492.949 3153.12 510.789 3154.96 515.71C3154.35 519.401 3151.89 532.936 3151.89 540.316C3151.89 563.695 3164.19 591.378 3169.11 607.99C3167.88 611.067 3166.03 619.68 3168.5 624.602C3166.65 625.833 3164.81 630.138 3164.19 631.369L3158.03 636.905C3156.8 636.905 3154.34 638.75 3154.96 641.213C3153.73 642.445 3153.11 646.749 3158.03 647.367C3159.27 647.981 3162.96 647.981 3163.57 647.367C3164.8 647.367 3167.88 647.981 3169.11 647.367C3170.95 647.981 3175.26 648.599 3177.11 647.367C3178.95 647.981 3185.1 649.212 3188.18 645.522C3189.41 644.908 3189.41 643.063 3190.02 642.445C3190.64 641.831 3190.64 635.064 3189.41 633.219C3189.41 633.219 3188.18 631.374 3188.79 630.142C3189.41 627.683 3188.79 623.988 3188.79 622.143C3188.79 620.298 3190.64 616.607 3190.64 615.376C3190.64 612.917 3186.33 607.377 3185.72 601.841C3186.33 593.842 3188.18 571.081 3188.18 566.773C3189.41 563.696 3191.25 555.083 3191.25 550.779C3191.25 544.625 3186.33 521.25 3186.33 515.097C3188.18 510.788 3190.64 500.948 3190.64 492.95C3190.64 491.104 3189.41 478.801 3189.41 477.57C3190.64 474.493 3189.41 448.655 3188.79 441.274C3189.41 438.197 3192.49 417.281 3192.49 409.282C3192.49 417.281 3195.56 438.197 3196.18 441.274C3194.94 448.041 3194.33 473.88 3195.56 477.57C3195.56 478.183 3194.33 491.104 3194.33 492.95C3194.33 500.949 3196.79 511.407 3198.64 515.097C3198.64 521.251 3193.72 544.625 3193.72 550.779C3193.72 555.087 3195.56 563.7 3196.79 566.773C3196.79 571.081 3198.64 593.843 3199.25 601.841C3198.02 607.377 3194.33 612.913 3194.33 615.376C3194.33 616.607 3196.18 620.298 3196.18 622.143C3196.18 623.988 3195.56 628.297 3196.18 630.142C3196.79 631.987 3195.56 633.219 3195.56 633.219C3194.33 635.064 3194.33 641.831 3194.95 642.445C3195.56 643.059 3196.18 644.29 3196.79 645.522C3199.87 649.212 3206.02 647.981 3207.87 647.367C3209.71 648.599 3214.02 647.981 3215.86 647.367C3217.1 647.981 3220.17 647.367 3221.4 647.367C3222.01 647.981 3226.32 647.981 3226.94 647.367C3231.86 647.367 3231.24 642.445 3230.01 641.213C3230.01 638.755 3227.55 636.291 3226.94 636.905L3220.78 631.369C3220.17 630.138 3217.71 625.833 3216.47 624.602C3219.55 619.68 3217.71 610.453 3215.86 607.99C3220.78 591.379 3233.09 563.696 3233.09 540.316C3233.09 533.549 3230.63 520.014 3230.01 515.71C3231.85 510.788 3229.4 492.949 3230.01 488.027C3231.24 481.874 3231.24 472.033 3230.01 467.112C3237.39 456.04 3241.7 438.197 3244.16 420.972C3249.69 417.895 3257.69 411.745 3258.31 410.514C3260.76 406.823 3261.38 400.67 3262.61 398.824C3263.23 396.979 3264.46 393.902 3264.46 391.443C3264.46 387.752 3266.92 378.521 3268.77 374.217C3270.61 369.295 3271.23 364.991 3271.23 360.683C3271.23 350.225 3275.54 320.697 3277.38 310.234C3275.52 299.158 3272.45 288.7 3271.21 284.396H3271.21ZM3140.18 350.837C3138.33 356.991 3135.87 366.217 3135.25 377.289C3134.02 376.675 3132.18 376.675 3130.33 376.057C3129.72 374.212 3141.4 320.073 3137.1 298.543C3136.49 295.466 3134.64 289.317 3132.79 286.24C3134.02 282.55 3135.25 276.396 3135.25 272.092C3135.25 275.782 3142.63 289.317 3142.63 299.775C3142.63 305.31 3138.32 324.38 3144.48 331.149C3143.25 334.839 3139.56 344.683 3140.18 350.837V350.837ZM3244.15 377.289C3244.15 365.599 3241.07 356.987 3239.22 350.837C3240.46 344.684 3236.15 334.843 3235.53 331.767C3241.07 324.386 3237.38 305.929 3237.38 300.393C3237.38 289.322 3244.76 276.4 3244.76 272.71C3244.76 277.019 3245.99 283.168 3247.22 286.859C3245.37 289.936 3243.53 296.703 3242.91 299.162C3238.6 320.696 3249.68 374.83 3249.68 376.676C3246.61 376.676 3245.38 377.289 3244.15 377.289V377.289Z"/>
</mask>
<path d="M3271.21 284.396C3271.21 274.552 3273.67 259.79 3273.67 255.481C3273.67 253.636 3272.44 248.714 3271.83 245.637C3272.44 245.024 3273.06 230.871 3269.37 220.413C3266.29 211.187 3258.3 205.647 3257.68 205.647C3253.99 202.57 3249.68 200.725 3247.22 200.111C3245.99 199.498 3242.91 197.034 3241.69 197.034C3238.61 193.957 3228.76 189.035 3225.69 187.808C3222.61 185.963 3211.54 182.272 3207.85 177.964V166.274C3209.7 164.429 3210.31 155.203 3210.93 152.74C3212.78 153.971 3215.85 150.894 3215.85 149.663C3215.85 147.204 3218.93 145.972 3218.93 138.591C3219.54 136.132 3218.93 132.438 3217.08 132.438C3215.24 132.438 3213.39 133.669 3213.39 133.669C3213.39 131.21 3214.62 124.443 3214.62 120.748C3214.62 117.671 3215.24 99.832 3190.63 99.832C3165.41 99.832 3166.64 117.671 3166.64 120.748C3166.64 124.438 3167.87 131.206 3167.87 133.669C3167.87 133.669 3165.41 132.438 3164.18 132.438C3162.33 132.438 3161.1 136.128 3162.33 138.591C3162.33 146.59 3165.41 147.204 3165.41 149.663C3165.41 150.894 3168.49 154.585 3170.33 152.74C3170.95 155.199 3172.18 164.429 3173.41 166.274V177.964C3169.72 182.272 3158.64 185.963 3155.57 187.808C3152.5 189.653 3142.65 194.575 3139.58 197.034C3138.35 197.648 3135.27 199.493 3134.04 200.111C3131.58 200.725 3127.27 202.57 3123.58 205.647C3122.97 205.647 3114.97 211.183 3111.89 220.413C3108.2 230.871 3108.82 245.019 3109.44 245.637C3108.82 248.714 3107.59 254.25 3107.59 255.481C3107.59 259.79 3110.05 274.551 3110.05 284.396C3108.82 288.704 3105.74 299.162 3107.59 310.234C3109.44 320.692 3113.13 350.838 3113.74 360.683C3113.74 365.605 3114.36 369.909 3116.2 374.217C3118.05 378.525 3120.51 387.752 3120.51 391.443C3120.51 393.902 3121.13 396.979 3122.36 398.824C3123.59 401.283 3123.59 406.823 3126.67 410.514C3127.9 411.745 3135.89 418.513 3140.81 420.972C3143.27 438.197 3147.58 456.653 3154.96 467.112C3153.73 472.034 3153.73 481.878 3154.96 488.027C3155.58 492.949 3153.12 510.789 3154.96 515.71C3154.35 519.401 3151.89 532.936 3151.89 540.316C3151.89 563.695 3164.19 591.378 3169.11 607.99C3167.88 611.067 3166.03 619.68 3168.5 624.602C3166.65 625.833 3164.81 630.138 3164.19 631.369L3158.03 636.905C3156.8 636.905 3154.34 638.75 3154.96 641.213C3153.73 642.445 3153.11 646.749 3158.03 647.367C3159.27 647.981 3162.96 647.981 3163.57 647.367C3164.8 647.367 3167.88 647.981 3169.11 647.367C3170.95 647.981 3175.26 648.599 3177.11 647.367C3178.95 647.981 3185.1 649.212 3188.18 645.522C3189.41 644.908 3189.41 643.063 3190.02 642.445C3190.64 641.831 3190.64 635.064 3189.41 633.219C3189.41 633.219 3188.18 631.374 3188.79 630.142C3189.41 627.683 3188.79 623.988 3188.79 622.143C3188.79 620.298 3190.64 616.607 3190.64 615.376C3190.64 612.917 3186.33 607.377 3185.72 601.841C3186.33 593.842 3188.18 571.081 3188.18 566.773C3189.41 563.696 3191.25 555.083 3191.25 550.779C3191.25 544.625 3186.33 521.25 3186.33 515.097C3188.18 510.788 3190.64 500.948 3190.64 492.95C3190.64 491.104 3189.41 478.801 3189.41 477.57C3190.64 474.493 3189.41 448.655 3188.79 441.274C3189.41 438.197 3192.49 417.281 3192.49 409.282C3192.49 417.281 3195.56 438.197 3196.18 441.274C3194.94 448.041 3194.33 473.88 3195.56 477.57C3195.56 478.183 3194.33 491.104 3194.33 492.95C3194.33 500.949 3196.79 511.407 3198.64 515.097C3198.64 521.251 3193.72 544.625 3193.72 550.779C3193.72 555.087 3195.56 563.7 3196.79 566.773C3196.79 571.081 3198.64 593.843 3199.25 601.841C3198.02 607.377 3194.33 612.913 3194.33 615.376C3194.33 616.607 3196.18 620.298 3196.18 622.143C3196.18 623.988 3195.56 628.297 3196.18 630.142C3196.79 631.987 3195.56 633.219 3195.56 633.219C3194.33 635.064 3194.33 641.831 3194.95 642.445C3195.56 643.059 3196.18 644.29 3196.79 645.522C3199.87 649.212 3206.02 647.981 3207.87 647.367C3209.71 648.599 3214.02 647.981 3215.86 647.367C3217.1 647.981 3220.17 647.367 3221.4 647.367C3222.01 647.981 3226.32 647.981 3226.94 647.367C3231.86 647.367 3231.24 642.445 3230.01 641.213C3230.01 638.755 3227.55 636.291 3226.94 636.905L3220.78 631.369C3220.17 630.138 3217.71 625.833 3216.47 624.602C3219.55 619.68 3217.71 610.453 3215.86 607.99C3220.78 591.379 3233.09 563.696 3233.09 540.316C3233.09 533.549 3230.63 520.014 3230.01 515.71C3231.85 510.788 3229.4 492.949 3230.01 488.027C3231.24 481.874 3231.24 472.033 3230.01 467.112C3237.39 456.04 3241.7 438.197 3244.16 420.972C3249.69 417.895 3257.69 411.745 3258.31 410.514C3260.76 406.823 3261.38 400.67 3262.61 398.824C3263.23 396.979 3264.46 393.902 3264.46 391.443C3264.46 387.752 3266.92 378.521 3268.77 374.217C3270.61 369.295 3271.23 364.991 3271.23 360.683C3271.23 350.225 3275.54 320.697 3277.38 310.234C3275.52 299.158 3272.45 288.7 3271.21 284.396H3271.21ZM3140.18 350.837C3138.33 356.991 3135.87 366.217 3135.25 377.289C3134.02 376.675 3132.18 376.675 3130.33 376.057C3129.72 374.212 3141.4 320.073 3137.1 298.543C3136.49 295.466 3134.64 289.317 3132.79 286.24C3134.02 282.55 3135.25 276.396 3135.25 272.092C3135.25 275.782 3142.63 289.317 3142.63 299.775C3142.63 305.31 3138.32 324.38 3144.48 331.149C3143.25 334.839 3139.56 344.683 3140.18 350.837V350.837ZM3244.15 377.289C3244.15 365.599 3241.07 356.987 3239.22 350.837C3240.46 344.684 3236.15 334.843 3235.53 331.767C3241.07 324.386 3237.38 305.929 3237.38 300.393C3237.38 289.322 3244.76 276.4 3244.76 272.71C3244.76 277.019 3245.99 283.168 3247.22 286.859C3245.37 289.936 3243.53 296.703 3242.91 299.162C3238.6 320.696 3249.68 374.83 3249.68 376.676C3246.61 376.676 3245.38 377.289 3244.15 377.289V377.289Z" stroke="#767382" stroke-width="8" mask="url(#path-13-inside-2_124_1157)"/>
<path d="M3731.63 289.64C3731.18 292.643 3731.09 295.004 3731.03 296.602L3731.02 296.694L3731.02 296.709L3731.02 296.724C3731.02 297.555 3731.01 298.185 3731.01 298.608L3731 299.085L3731 299.205L3731 299.229L3731 299.23L3731 299.231V299.231L3731 299.235L3731 299.242L3731 299.244V299.245V299.245L3733 299.278L3733 299.278V299.278L3733 299.276L3733 299.269L3733 299.264V299.264L3733 299.262L3733 299.241L3733 299.131L3733.01 298.691C3733.02 298.302 3733.04 297.722 3733.05 296.954C3733.11 295.433 3733.23 293.173 3733.67 290.238C3734.15 287.307 3734.92 283.697 3736.83 279.842L3736.83 279.839C3738.69 276.038 3741.96 272.067 3746.9 269.48L3746.91 269.476C3751.86 266.825 3758.2 265.546 3765.26 265.073L3765.26 265.073C3768.8 264.829 3772.53 264.765 3776.43 264.763L3776.44 264.763V264.763C3780.36 264.716 3784.29 264.76 3788.28 265.617L3788.29 265.619C3796.25 267.257 3804.35 271.621 3810.5 278.632L3810.51 278.637C3816.67 285.573 3820.73 295.248 3820.69 305.672L3820.69 305.675C3820.69 306.52 3821.32 307.188 3822.1 307.306L3822.11 307.307C3827.01 308.035 3832.64 309.828 3838.03 313.321L3838.03 313.323C3843.41 316.778 3848.53 321.95 3852.02 328.613L3852.02 328.616C3855.53 335.262 3857.35 343.326 3856.49 351.63L3856.49 351.635C3855.68 359.878 3852.09 368.162 3846.16 374.654C3845.5 375.364 3845.53 376.473 3846.24 377.144C3846.29 377.192 3846.34 377.23 3846.36 377.247C3846.37 377.259 3846.39 377.269 3846.4 377.277L3846.42 377.292L3846.44 377.309L3846.46 377.324C3849.64 379.505 3855 384.378 3858.4 390.691L3858.41 390.7L3858.41 390.708C3864.57 401.612 3864.91 415.143 3860.22 425.952L3860.21 425.961C3855.6 436.885 3846.25 444.873 3836.3 448.28C3835.48 448.557 3835.02 449.384 3835.15 450.197L3835.15 450.205C3836.75 459.544 3834.77 468.664 3830.86 475.824L3830.86 475.826C3826.94 483.043 3821.21 488.374 3815.32 491.746C3814.8 492.037 3814.53 492.564 3814.49 493.051L3814.49 493.059L3814.49 493.066C3813.93 502.756 3809.88 511.62 3803.97 518.018L3803.97 518.025C3798.09 524.509 3790.5 528.579 3783 530.271L3783 530.272C3775.48 532 3768.07 531.422 3761.78 529.48C3755.47 527.497 3750.23 524.214 3746.26 520.542L3746.26 520.542C3738.21 513.103 3735.19 504.719 3733.97 499.244C3733.37 496.47 3733.2 494.302 3733.08 492.831C3733.06 492.089 3733.04 491.528 3733.03 491.151C3733.02 490.961 3733.02 490.818 3733.02 490.723L3733.01 490.616L3733.01 490.599L3733.01 490.591L3733.01 490.589L3733.01 490.582L3733.01 490.581V490.58L3731.01 490.63V490.63L3731.01 490.631L3731.01 490.633L3731.01 490.64L3731.01 490.64L3731.01 490.642L3731.01 490.648L3731.01 490.668L3731.01 490.781L3731.02 491.23C3731.03 491.627 3731.04 492.22 3731.06 493.002L3731.06 493.021L3731.06 493.039C3731.16 494.61 3731.33 496.985 3731.98 500.011C3733.25 505.968 3736.58 515.014 3745.28 522.902L3745.28 522.906C3749.59 526.764 3755.21 530.282 3762 532.245M3731.63 289.64L3812.92 278.301C3818.91 285.396 3822.77 294.969 3822.91 305.176C3829.69 306.22 3836.42 308.972 3842.18 313.367C3848.08 317.844 3852.96 324.002 3855.93 331.184C3858.92 338.346 3859.95 346.507 3858.65 354.489C3857.47 361.877 3854.2 369.034 3849.27 374.966C3849.53 375.162 3849.8 375.363 3850.06 375.57M3731.63 289.64L3731.62 289.632L3731.68 289.26C3732.2 286.054 3733.09 281.99 3735.38 277.727C3737.64 273.435 3741.65 269.14 3747.38 266.519C3753.02 263.852 3759.87 262.732 3767.14 262.312C3770.78 262.098 3774.57 262.044 3778.47 262.017C3782.44 261.919 3786.65 262.234 3790.83 263.291M3731.63 289.64L3790.83 263.291M3762 532.245C3762.01 532.245 3762.01 532.246 3762.01 532.246L3762.17 531.68C3768.55 533.481 3775.94 533.946 3783.44 532.222C3783.76 532.15 3784.08 532.073 3784.4 531.993C3791.96 530.094 3799.53 525.901 3805.45 519.371C3805.6 519.207 3805.75 519.042 3805.9 518.876M3762 532.245C3768.75 534.247 3776.63 534.688 3784.59 532.772C3792.54 530.859 3800.47 526.397 3806.63 519.537M3762 532.245C3762 532.244 3762 532.244 3762 532.244L3762.17 531.68M3805.9 518.876C3806.39 518.323 3806.87 517.755 3807.33 517.17C3812.5 510.764 3816 502.47 3816.62 493.489M3805.9 518.876L3806.63 519.535C3806.63 519.536 3806.63 519.537 3806.63 519.537M3805.9 518.876L3806.63 519.537M3816.62 493.489C3823.37 489.623 3829.43 483.653 3833.37 476.048M3816.62 493.489L3817.62 493.558C3817.61 493.735 3817.6 493.912 3817.58 494.089M3816.62 493.489L3817.12 494.357C3817.28 494.269 3817.43 494.179 3817.58 494.089M3833.37 476.048C3837.27 468.54 3839.03 459.443 3837.63 450.372M3833.37 476.048L3834.26 476.508C3834.26 476.509 3834.26 476.509 3834.26 476.509M3833.37 476.048L3834.26 476.509M3837.63 450.372C3848.16 446.62 3857.61 438.327 3862.41 427.29M3837.63 450.372L3838.62 450.219C3838.66 450.49 3838.7 450.76 3838.74 451.031M3837.63 450.372L3837.97 451.314C3838.22 451.222 3838.48 451.128 3838.74 451.031M3862.41 427.29C3867.38 416.165 3867.29 402.453 3861.51 391.041M3862.41 427.29L3863.32 427.689C3863.32 427.69 3863.32 427.692 3863.32 427.694M3862.41 427.29L3863.32 427.699C3863.32 427.697 3863.32 427.695 3863.32 427.694M3861.51 391.041C3858.51 384.963 3853.97 379.864 3849.42 376.333C3849.63 376.081 3849.85 375.826 3850.06 375.57M3861.51 391.041L3862.4 390.589C3862.4 390.59 3862.4 390.592 3862.4 390.593M3861.51 391.041L3862.41 390.598C3862.4 390.596 3862.4 390.595 3862.4 390.593M3850.06 375.57C3855.09 369.511 3858.43 362.202 3859.64 354.648C3860.97 346.481 3859.91 338.132 3856.86 330.8C3853.81 323.451 3848.83 317.152 3842.79 312.571C3837.13 308.25 3830.55 305.483 3823.89 304.324C3823.55 294.193 3819.65 284.728 3813.69 277.658M3850.06 375.57C3854.71 379.182 3859.33 384.384 3862.4 390.593M3813.69 277.658L3732.09 499.987C3733.41 505.728 3736.62 514.353 3744.9 522.011M3813.69 277.658C3807.47 270.243 3799.2 265.338 3790.83 263.291M3813.69 277.658L3790.83 263.291M3862.4 390.593C3868.32 402.277 3868.42 416.301 3863.32 427.694M3863.32 427.694C3858.53 438.724 3849.2 447.068 3838.74 451.031M3838.74 451.031C3839.95 460.053 3838.13 469.048 3834.26 476.509M3834.26 476.509C3830.32 484.121 3824.3 490.128 3817.58 494.089M3817.58 494.089C3816.78 503.911 3812.62 512.895 3806.63 519.537M3762.17 531.68C3761.84 531.586 3761.51 531.49 3761.19 531.389L3761.18 531.388C3754.91 529.418 3749.64 526.22 3745.56 522.601C3745.55 522.6 3745.55 522.599 3745.55 522.598C3745.33 522.404 3745.12 522.208 3744.9 522.011M3762.17 531.68L3762.29 531.285L3762.17 531.68ZM3744.9 522.011C3744.9 522.011 3744.9 522.01 3744.9 522.01L3745.31 521.57C3745.31 521.57 3745.31 521.57 3745.31 521.571L3744.9 522.011ZM3732.09 499.985L3732.96 499.8L3732.09 499.985ZM3732.09 492.886L3733.06 492.812C3733.06 492.826 3733.06 492.839 3733.06 492.852L3732.09 492.886ZM3746.22 521.856C3746.22 521.856 3746.22 521.857 3746.22 521.857L3746.62 521.42C3746.62 521.419 3746.62 521.418 3746.62 521.418L3746.22 521.856ZM3732.09 492.979C3732.09 492.979 3732.09 492.98 3732.09 492.98L3732.09 492.979Z" stroke="#767382" stroke-width="2"/>
<path d="M3731.83 499.861C3732.48 496.839 3732.65 494.467 3732.74 492.898L3732.74 492.88L3732.75 492.861C3732.75 492.433 3732.76 492.061 3732.77 491.748L3732.78 491.091L3732.79 490.643L3732.79 490.53L3732.79 490.51L3732.79 490.503L3732.79 490.501L3732.79 490.501L3732.79 490.494L3732.79 490.492V490.492L3732.79 490.492L3730.8 490.442L3730.8 490.442L3730.8 490.444L3730.79 490.451L3730.8 490.451L3730.79 490.453L3730.79 490.46L3730.79 490.477L3730.79 490.585C3730.79 490.68 3730.78 490.823 3730.78 491.012C3730.77 491.389 3730.75 491.949 3730.72 492.69C3730.61 494.161 3730.44 496.327 3729.83 499.099C3728.62 504.569 3725.61 512.94 3717.59 520.368L3717.58 520.369C3713.63 524.036 3708.41 527.315 3702.11 529.295C3695.84 531.235 3688.45 531.812 3680.96 530.086L3680.96 530.085C3673.49 528.395 3665.92 524.331 3660.06 517.854L3660.05 517.848C3654.16 511.457 3650.12 502.604 3649.56 492.925L3649.56 492.917L3649.56 492.91C3649.53 492.424 3649.26 491.898 3648.75 491.607C3642.87 488.239 3637.15 482.914 3633.24 475.705L3633.24 475.703C3629.35 468.552 3627.37 459.442 3628.97 450.114L3628.97 450.106C3629.1 449.295 3628.64 448.469 3627.82 448.191C3617.9 444.789 3608.59 436.81 3603.98 425.899L3603.98 425.89C3599.3 415.093 3599.64 401.578 3605.78 390.687L3605.78 390.679L3605.79 390.67C3609.18 384.364 3614.52 379.497 3617.69 377.319L3617.72 377.304L3617.74 377.287L3617.76 377.272C3617.77 377.265 3617.78 377.254 3617.8 377.242C3617.82 377.225 3617.86 377.187 3617.91 377.139C3618.62 376.468 3618.65 375.361 3617.99 374.651C3612.08 368.167 3608.5 359.893 3607.69 351.66L3607.69 351.655C3606.84 343.361 3608.65 335.305 3612.15 328.667L3612.15 328.665C3615.64 322.01 3620.74 316.844 3626.1 313.393L3626.1 313.391C3631.47 309.903 3637.08 308.112 3641.97 307.385L3641.98 307.384C3642.75 307.266 3643.38 306.597 3643.38 305.754L3643.38 305.75C3643.35 295.339 3647.4 285.676 3653.54 278.747L3653.54 278.743C3659.68 271.74 3667.75 267.382 3675.69 265.746L3675.7 265.744C3679.67 264.888 3683.59 264.844 3687.5 264.891V264.891L3687.51 264.891C3691.4 264.893 3695.12 264.957 3698.64 265.201L3698.65 265.201C3705.69 265.674 3712.01 266.951 3716.94 269.598L3716.95 269.602C3721.88 272.186 3725.13 276.152 3726.99 279.948L3726.99 279.951C3728.89 283.801 3729.66 287.406 3730.14 290.334C3730.57 293.266 3730.69 295.523 3730.75 297.043C3730.77 297.81 3730.78 298.39 3730.79 298.778L3730.8 299.217L3730.81 299.328L3730.81 299.34L3730.81 299.348L3730.81 299.35L3730.81 299.35L3730.81 299.355L3730.81 299.362L3730.81 299.364L3730.81 299.364L3732.81 299.331V299.331L3732.81 299.331L3732.81 299.329L3732.81 299.321L3732.81 299.317V299.317V299.317L3732.81 299.315L3732.81 299.291L3732.8 299.171L3732.8 298.695C3732.8 298.273 3732.79 297.643 3732.78 296.813L3732.78 296.798L3732.78 296.783L3732.78 296.692C3732.72 295.096 3732.63 292.737 3732.18 289.737L3732.19 289.73L3732.13 289.359C3731.61 286.157 3730.72 282.097 3728.44 277.84C3726.19 273.552 3722.18 269.261 3716.48 266.643C3710.85 263.979 3704.02 262.86 3696.77 262.441C3693.14 262.227 3689.36 262.173 3685.47 262.146C3681.52 262.048 3677.33 262.362 3673.15 263.418C3664.8 265.463 3656.56 270.362 3650.36 277.769C3644.41 284.831 3640.53 294.285 3640.19 304.403C3633.55 305.562 3626.99 308.326 3621.35 312.641C3615.33 317.217 3610.36 323.509 3607.32 330.849C3604.28 338.173 3603.22 346.512 3604.55 354.669C3605.75 362.215 3609.08 369.514 3614.1 375.567C3609.46 379.175 3604.85 384.37 3601.79 390.572C3595.89 402.243 3595.8 416.25 3600.88 427.629C3605.66 438.646 3614.95 446.98 3625.39 450.94C3624.18 459.951 3625.99 468.934 3629.85 476.387C3633.78 483.989 3639.78 489.99 3646.48 493.947C3647.28 503.757 3651.43 512.73 3657.4 519.365C3663.54 526.218 3671.45 530.675 3679.37 532.585C3687.3 534.499 3695.17 534.059 3701.89 532.059C3708.66 530.099 3714.27 526.585 3718.57 522.73L3718.57 522.726C3727.25 514.847 3730.57 505.81 3731.83 499.861ZM3731.83 499.861C3731.83 499.861 3731.83 499.861 3731.83 499.861L3731.72 499.838C3731.72 499.837 3731.72 499.836 3731.72 499.836L3731.83 499.859C3731.83 499.86 3731.83 499.86 3731.83 499.861ZM3718.94 521.836C3718.73 522.033 3718.52 522.229 3718.3 522.423C3718.3 522.424 3718.29 522.425 3718.29 522.426C3714.22 526.041 3708.97 529.235 3702.71 531.203L3702.71 531.204C3702.38 531.304 3702.06 531.401 3701.73 531.494L3718.94 521.836ZM3718.94 521.836C3718.94 521.836 3718.94 521.835 3718.94 521.835L3718.54 521.395L3718.94 521.836Z" stroke="#767382" stroke-width="2"/>
<path d="M3776.45 200.203C3757.86 200.203 3744.59 186.5 3732 172.427C3719.29 186.625 3706.06 200.203 3687.55 200.203C3668.5 200.203 3653 185.654 3653 167.75C3653 149.846 3668.5 135.297 3687.55 135.297C3706.26 135.297 3719.49 148.822 3732 162.803C3744.5 148.828 3757.74 135.297 3776.45 135.297C3795.5 135.297 3811 149.846 3811 167.75C3811 185.654 3795.5 200.203 3776.45 200.203ZM3736.29 167.615C3748.73 181.553 3760.53 194.028 3776.44 194.028C3791.87 194.028 3804.42 182.239 3804.42 167.751C3804.42 153.263 3791.87 141.473 3776.44 141.473C3760.36 141.473 3748.05 154.442 3736.29 167.614V167.615ZM3687.56 141.473C3672.13 141.473 3659.58 153.262 3659.58 167.751C3659.58 182.238 3672.13 194.028 3687.56 194.028C3703.55 194.028 3715.4 181.429 3727.72 167.615C3715.96 154.443 3703.65 141.474 3687.56 141.474V141.473Z" fill="#10CC55"/>
<path d="M3513.12 350.34C3514.29 349.168 3514.29 347.269 3513.12 346.097L3494.03 327.006C3492.86 325.834 3490.96 325.834 3489.79 327.006C3488.62 328.177 3488.62 330.077 3489.79 331.248L3506.76 348.219L3489.79 365.189C3488.62 366.361 3488.62 368.26 3489.79 369.432C3490.96 370.604 3492.86 370.604 3494.03 369.432L3513.12 350.34ZM3388 351.219H3511V345.219H3388V351.219Z" fill="#767382" fill-opacity="0.7"/>
<path d="M3028.12 350.34C3029.29 349.168 3029.29 347.269 3028.12 346.097L3009.03 327.006C3007.86 325.834 3005.96 325.834 3004.79 327.006C3003.62 328.177 3003.62 330.077 3004.79 331.248L3021.76 348.219L3004.79 365.189C3003.62 366.361 3003.62 368.26 3004.79 369.432C3005.96 370.604 3007.86 370.604 3009.03 369.432L3028.12 350.34ZM2903 351.219H3026V345.219H2903V351.219Z" fill="#767382" fill-opacity="0.7"/>
<path d="M555.121 349.121C556.293 347.95 556.293 346.05 555.121 344.879L536.029 325.787C534.858 324.615 532.958 324.615 531.787 325.787C530.615 326.958 530.615 328.858 531.787 330.029L548.757 347L531.787 363.971C530.615 365.142 530.615 367.042 531.787 368.213C532.958 369.385 534.858 369.385 536.029 368.213L555.121 349.121ZM430 350H553V344H430V350Z" fill="#767382" fill-opacity="0.7"/>
<path d="M1226.12 349.121C1227.29 347.95 1227.29 346.05 1226.12 344.879L1207.03 325.787C1205.86 324.615 1203.96 324.615 1202.79 325.787C1201.62 326.958 1201.62 328.858 1202.79 330.029L1219.76 347L1202.79 363.971C1201.62 365.142 1201.62 367.042 1202.79 368.213C1203.96 369.385 1205.86 369.385 1207.03 368.213L1226.12 349.121ZM1101 350H1224V344H1101V350Z" fill="#767382" fill-opacity="0.7"/>
<path d="M1846.12 349.121C1847.29 347.95 1847.29 346.05 1846.12 344.879L1827.03 325.787C1825.86 324.615 1823.96 324.615 1822.79 325.787C1821.62 326.958 1821.62 328.858 1822.79 330.029L1839.76 347L1822.79 363.971C1821.62 365.142 1821.62 367.042 1822.79 368.213C1823.96 369.385 1825.86 369.385 1827.03 368.213L1846.12 349.121ZM1721 350H1844V344H1721V350Z" fill="#767382" fill-opacity="0.7"/>
</g>
<defs>
<clipPath id="clip0_124_1157">
<rect width="3949" height="703" fill="white"/>
</clipPath>
<clipPath id="clip1_124_1157">
<rect width="393" height="393" fill="white" transform="translate(624 184)"/>
</clipPath>
</defs>
</svg>
