<svg width="5075" height="1370" viewBox="0 0 5075 1370" fill="none" xmlns="http://www.w3.org/2000/svg">
<g filter="url(#filter0_d_107_30)">
<circle cx="452" cy="1185" r="89.5" stroke="#767382" stroke-width="9"/>
<circle cx="2044" cy="1185" r="89.5" stroke="#767382" stroke-width="9"/>
<circle cx="3701" cy="1185" r="89.5" stroke="#767382" stroke-width="9"/>
<circle cx="1371" cy="481" r="89.5" stroke="#767382" stroke-width="9"/>
<circle cx="2963" cy="481" r="89.5" stroke="#767382" stroke-width="9"/>
<circle cx="4620" cy="481" r="89.5" stroke="#767382" stroke-width="9"/>
<path d="M586.677 118H564.497V52.5455H587.125C593.623 52.5455 599.206 53.8558 603.872 56.4766C608.559 59.076 612.16 62.8153 614.675 67.6946C617.189 72.5739 618.446 78.4119 618.446 85.2088C618.446 92.027 617.178 97.8864 614.643 102.787C612.128 107.687 608.496 111.448 603.744 114.069C599.014 116.69 593.325 118 586.677 118ZM576.354 107.741H586.102C590.662 107.741 594.465 106.91 597.512 105.248C600.559 103.565 602.849 101.061 604.383 97.7372C605.917 94.392 606.684 90.2159 606.684 85.2088C606.684 80.2017 605.917 76.0469 604.383 72.7443C602.849 69.4205 600.58 66.9382 597.576 65.2976C594.593 63.6357 590.885 62.8047 586.454 62.8047H576.354V107.741ZM629.2 118V68.9091H640.77V118H629.2ZM635.017 61.9418C633.185 61.9418 631.608 61.3345 630.287 60.12C628.966 58.8842 628.306 57.4034 628.306 55.6776C628.306 53.9304 628.966 52.4496 630.287 51.2351C631.608 49.9993 633.185 49.3814 635.017 49.3814C636.871 49.3814 638.448 49.9993 639.747 51.2351C641.068 52.4496 641.729 53.9304 641.729 55.6776C641.729 57.4034 641.068 58.8842 639.747 60.12C638.448 61.3345 636.871 61.9418 635.017 61.9418ZM652.667 118V68.9091H663.885V77.0909H664.397C665.292 74.2571 666.826 72.0732 668.999 70.5391C671.194 68.9837 673.697 68.206 676.51 68.206C677.149 68.206 677.863 68.2379 678.651 68.3018C679.461 68.3445 680.132 68.419 680.664 68.5256V79.1683C680.174 78.9979 679.397 78.8487 678.331 78.7209C677.287 78.5717 676.275 78.4972 675.295 78.4972C673.186 78.4972 671.289 78.9553 669.606 79.8714C667.944 80.7663 666.634 82.0128 665.675 83.6108C664.716 85.2088 664.237 87.0518 664.237 89.1399V118H652.667ZM708.062 118.959C703.14 118.959 698.89 117.936 695.31 115.891C691.752 113.824 689.014 110.905 687.096 107.134C685.179 103.341 684.22 98.8771 684.22 93.7422C684.22 88.6925 685.179 84.2607 687.096 80.4467C689.035 76.6115 691.741 73.6285 695.214 71.4979C698.687 69.3459 702.768 68.2699 707.455 68.2699C710.481 68.2699 713.336 68.7599 716.02 69.7401C718.726 70.6989 721.113 72.1903 723.18 74.2145C725.268 76.2386 726.908 78.8168 728.101 81.9489C729.295 85.0597 729.891 88.767 729.891 93.071V96.6186H689.653V88.8203H718.801C718.78 86.6044 718.3 84.6335 717.363 82.9077C716.425 81.1605 715.115 79.7862 713.432 78.7848C711.77 77.7834 709.831 77.2827 707.615 77.2827C705.25 77.2827 703.172 77.858 701.383 79.0085C699.593 80.1378 698.197 81.6293 697.196 83.483C696.216 85.3153 695.715 87.3288 695.694 89.5234V96.331C695.694 99.1861 696.216 101.636 697.26 103.682C698.304 105.706 699.763 107.261 701.638 108.348C703.513 109.413 705.708 109.946 708.222 109.946C709.905 109.946 711.429 109.712 712.792 109.243C714.156 108.753 715.339 108.039 716.34 107.102C717.341 106.164 718.098 105.003 718.609 103.618L729.412 104.832C728.73 107.687 727.43 110.18 725.513 112.311C723.616 114.42 721.187 116.061 718.226 117.233C715.264 118.384 711.876 118.959 708.062 118.959ZM761.092 118.959C756.192 118.959 751.984 117.883 748.468 115.731C744.974 113.579 742.278 110.607 740.382 106.814C738.507 103 737.57 98.6108 737.57 93.6463C737.57 88.6605 738.528 84.2607 740.446 80.4467C742.364 76.6115 745.07 73.6285 748.564 71.4979C752.08 69.3459 756.234 68.2699 761.028 68.2699C765.013 68.2699 768.539 69.005 771.607 70.4751C774.697 71.924 777.158 73.9801 778.99 76.6435C780.822 79.2855 781.866 82.375 782.122 85.9119H771.064C770.616 83.5469 769.551 81.576 767.868 79.9993C766.206 78.4013 763.979 77.6023 761.188 77.6023C758.823 77.6023 756.746 78.2415 754.956 79.5199C753.166 80.777 751.771 82.5881 750.769 84.9531C749.789 87.3182 749.299 90.152 749.299 93.4545C749.299 96.7997 749.789 99.6761 750.769 102.084C751.749 104.47 753.124 106.313 754.892 107.613C756.682 108.891 758.781 109.531 761.188 109.531C762.893 109.531 764.416 109.211 765.759 108.572C767.122 107.911 768.262 106.963 769.178 105.727C770.094 104.491 770.723 102.989 771.064 101.221H782.122C781.845 104.694 780.822 107.773 779.054 110.457C777.286 113.121 774.878 115.209 771.831 116.722C768.784 118.213 765.205 118.959 761.092 118.959ZM816.136 68.9091V77.858H787.915V68.9091H816.136ZM794.882 57.1477H806.452V103.234C806.452 104.79 806.686 105.983 807.155 106.814C807.645 107.624 808.284 108.178 809.073 108.476C809.861 108.774 810.735 108.923 811.693 108.923C812.418 108.923 813.078 108.87 813.675 108.763C814.293 108.657 814.762 108.561 815.081 108.476L817.031 117.521C816.413 117.734 815.529 117.968 814.378 118.224C813.249 118.479 811.864 118.629 810.223 118.671C807.325 118.756 804.715 118.32 802.393 117.361C800.07 116.381 798.227 114.868 796.864 112.822C795.521 110.777 794.861 108.22 794.882 105.152V57.1477ZM886.936 81.8849L876.389 83.0355C876.091 81.9702 875.569 80.9688 874.823 80.0312C874.098 79.0938 873.118 78.3374 871.882 77.7621C870.647 77.1868 869.134 76.8991 867.344 76.8991C864.936 76.8991 862.912 77.4212 861.272 78.4652C859.652 79.5092 858.853 80.8622 858.875 82.5241C858.853 83.9517 859.375 85.1129 860.441 86.0078C861.527 86.9027 863.317 87.6378 865.81 88.2131L874.184 90.0028C878.828 91.0043 882.28 92.5916 884.539 94.7649C886.819 96.9382 887.969 99.7827 887.99 103.298C887.969 106.388 887.064 109.115 885.274 111.48C883.505 113.824 881.044 115.656 877.891 116.977C874.738 118.298 871.115 118.959 867.025 118.959C861.016 118.959 856.179 117.702 852.515 115.188C848.85 112.652 846.666 109.126 845.963 104.609L857.245 103.522C857.756 105.738 858.843 107.411 860.505 108.54C862.167 109.669 864.329 110.234 866.993 110.234C869.741 110.234 871.946 109.669 873.608 108.54C875.292 107.411 876.133 106.015 876.133 104.353C876.133 102.947 875.59 101.786 874.503 100.869C873.438 99.9531 871.776 99.25 869.517 98.7599L861.144 97.0021C856.435 96.022 852.951 94.3707 850.693 92.0483C848.434 89.7045 847.316 86.7429 847.337 83.1634C847.316 80.1378 848.136 77.517 849.798 75.3011C851.481 73.0639 853.814 71.3381 856.797 70.1236C859.801 68.8878 863.264 68.2699 867.184 68.2699C872.937 68.2699 877.465 69.495 880.767 71.9453C884.091 74.3956 886.147 77.7088 886.936 81.8849ZM904.722 136.409C903.145 136.409 901.685 136.281 900.343 136.026C899.022 135.791 897.967 135.514 897.179 135.195L899.864 126.182C901.547 126.672 903.049 126.906 904.37 126.885C905.691 126.864 906.852 126.448 907.854 125.638C908.876 124.85 909.739 123.529 910.442 121.675L911.433 119.023L893.631 68.9091H905.904L917.218 105.983H917.729L929.075 68.9091H941.38L921.724 123.945C920.808 126.544 919.594 128.771 918.081 130.624C916.568 132.499 914.714 133.927 912.52 134.907C910.347 135.908 907.747 136.409 904.722 136.409ZM960.956 89.2358V118H949.386V68.9091H960.444V77.2507H961.02C962.149 74.5021 963.949 72.3182 966.421 70.6989C968.914 69.0795 971.993 68.2699 975.657 68.2699C979.045 68.2699 981.996 68.9943 984.51 70.4432C987.046 71.892 989.006 73.9908 990.391 76.7393C991.797 79.4879 992.49 82.8224 992.468 86.7429V118H980.899V88.5327C980.899 85.2514 980.047 82.6839 978.342 80.8303C976.659 78.9766 974.326 78.0497 971.343 78.0497C969.319 78.0497 967.518 78.4972 965.941 79.392C964.386 80.2656 963.161 81.5334 962.266 83.1953C961.392 84.8572 960.956 86.8707 960.956 89.2358ZM1018.36 118.991C1015.25 118.991 1012.44 118.437 1009.95 117.329C1007.48 116.2 1005.52 114.538 1004.07 112.343C1002.64 110.148 1001.93 107.442 1001.93 104.225C1001.93 101.455 1002.44 99.1648 1003.46 97.3537C1004.49 95.5426 1005.88 94.0938 1007.65 93.0071C1009.42 91.9205 1011.41 91.1001 1013.63 90.5462C1015.86 89.9709 1018.18 89.5554 1020.56 89.2997C1023.44 89.0014 1025.77 88.7351 1027.56 88.5007C1029.35 88.245 1030.65 87.8615 1031.46 87.3501C1032.29 86.8175 1032.71 85.9972 1032.71 84.8892V84.6974C1032.71 82.2898 1031.99 80.4254 1030.56 79.1044C1029.14 77.7834 1027.08 77.1229 1024.4 77.1229C1021.56 77.1229 1019.31 77.7408 1017.65 78.9766C1016.01 80.2124 1014.9 81.6719 1014.33 83.3551L1003.53 81.821C1004.38 78.8381 1005.79 76.3452 1007.75 74.3423C1009.71 72.3182 1012.1 70.8054 1014.94 69.804C1017.77 68.7812 1020.9 68.2699 1024.33 68.2699C1026.7 68.2699 1029.05 68.5469 1031.4 69.1009C1033.74 69.6548 1035.88 70.571 1037.82 71.8494C1039.76 73.1065 1041.31 74.8217 1042.49 76.995C1043.68 79.1683 1044.28 81.8849 1044.28 85.1449V118H1033.15V111.256H1032.77C1032.07 112.62 1031.08 113.898 1029.8 115.092C1028.54 116.263 1026.95 117.212 1025.04 117.936C1023.14 118.639 1020.91 118.991 1018.36 118.991ZM1021.36 110.489C1023.68 110.489 1025.7 110.031 1027.4 109.115C1029.11 108.178 1030.42 106.942 1031.33 105.408C1032.27 103.874 1032.74 102.201 1032.74 100.39V94.6051C1032.38 94.9034 1031.76 95.1804 1030.88 95.4361C1030.03 95.6918 1029.07 95.9155 1028.01 96.1072C1026.94 96.299 1025.89 96.4695 1024.84 96.6186C1023.8 96.7678 1022.89 96.8956 1022.13 97.0021C1020.4 97.2365 1018.86 97.62 1017.49 98.1527C1016.13 98.6854 1015.05 99.4311 1014.27 100.39C1013.48 101.327 1013.08 102.542 1013.08 104.033C1013.08 106.164 1013.86 107.773 1015.42 108.859C1016.97 109.946 1018.95 110.489 1021.36 110.489ZM1055.91 136.409V68.9091H1067.29V77.027H1067.96C1068.56 75.8338 1069.4 74.566 1070.48 73.2237C1071.57 71.8601 1073.04 70.6989 1074.89 69.7401C1076.75 68.7599 1079.11 68.2699 1081.99 68.2699C1085.78 68.2699 1089.2 69.2393 1092.25 71.1783C1095.32 73.0959 1097.75 75.9403 1099.54 79.7116C1101.35 83.4616 1102.25 88.0639 1102.25 93.5185C1102.25 98.9091 1101.37 103.49 1099.6 107.261C1097.83 111.033 1095.42 113.909 1092.38 115.891C1089.33 117.872 1085.88 118.863 1082.02 118.863C1079.21 118.863 1076.88 118.394 1075.02 117.457C1073.17 116.519 1071.68 115.39 1070.55 114.069C1069.44 112.727 1068.58 111.459 1067.96 110.266H1067.48V136.409H1055.91ZM1067.26 93.4545C1067.26 96.6293 1067.7 99.4098 1068.6 101.796C1069.51 104.183 1070.82 106.047 1072.53 107.389C1074.25 108.71 1076.34 109.371 1078.79 109.371C1081.35 109.371 1083.49 108.689 1085.22 107.325C1086.94 105.94 1088.24 104.055 1089.12 101.668C1090.01 99.2607 1090.46 96.5227 1090.46 93.4545C1090.46 90.4077 1090.02 87.7017 1089.15 85.3366C1088.27 82.9716 1086.97 81.1179 1085.25 79.7756C1083.52 78.4332 1081.37 77.7621 1078.79 77.7621C1076.32 77.7621 1074.22 78.4119 1072.5 79.7116C1070.77 81.0114 1069.46 82.8331 1068.57 85.1768C1067.69 87.5206 1067.26 90.2798 1067.26 93.4545ZM1150.96 81.8849L1140.41 83.0355C1140.11 81.9702 1139.59 80.9688 1138.85 80.0312C1138.12 79.0938 1137.14 78.3374 1135.91 77.7621C1134.67 77.1868 1133.16 76.8991 1131.37 76.8991C1128.96 76.8991 1126.94 77.4212 1125.3 78.4652C1123.68 79.5092 1122.88 80.8622 1122.9 82.5241C1122.88 83.9517 1123.4 85.1129 1124.46 86.0078C1125.55 86.9027 1127.34 87.6378 1129.83 88.2131L1138.21 90.0028C1142.85 91.0043 1146.3 92.5916 1148.56 94.7649C1150.84 96.9382 1151.99 99.7827 1152.01 103.298C1151.99 106.388 1151.09 109.115 1149.3 111.48C1147.53 113.824 1145.07 115.656 1141.91 116.977C1138.76 118.298 1135.14 118.959 1131.05 118.959C1125.04 118.959 1120.2 117.702 1116.54 115.188C1112.87 112.652 1110.69 109.126 1109.99 104.609L1121.27 103.522C1121.78 105.738 1122.87 107.411 1124.53 108.54C1126.19 109.669 1128.35 110.234 1131.02 110.234C1133.76 110.234 1135.97 109.669 1137.63 108.54C1139.31 107.411 1140.16 106.015 1140.16 104.353C1140.16 102.947 1139.61 101.786 1138.53 100.869C1137.46 99.9531 1135.8 99.25 1133.54 98.7599L1125.17 97.0021C1120.46 96.022 1116.97 94.3707 1114.72 92.0483C1112.46 89.7045 1111.34 86.7429 1111.36 83.1634C1111.34 80.1378 1112.16 77.517 1113.82 75.3011C1115.5 73.0639 1117.84 71.3381 1120.82 70.1236C1123.82 68.8878 1127.29 68.2699 1131.21 68.2699C1136.96 68.2699 1141.49 69.495 1144.79 71.9453C1148.11 74.3956 1150.17 77.7088 1150.96 81.8849ZM1183.29 118.959C1178.37 118.959 1174.11 117.936 1170.53 115.891C1166.98 113.824 1164.24 110.905 1162.32 107.134C1160.4 103.341 1159.44 98.8771 1159.44 93.7422C1159.44 88.6925 1160.4 84.2607 1162.32 80.4467C1164.26 76.6115 1166.97 73.6285 1170.44 71.4979C1173.91 69.3459 1177.99 68.2699 1182.68 68.2699C1185.71 68.2699 1188.56 68.7599 1191.25 69.7401C1193.95 70.6989 1196.34 72.1903 1198.4 74.2145C1200.49 76.2386 1202.13 78.8168 1203.33 81.9489C1204.52 85.0597 1205.12 88.767 1205.12 93.071V96.6186H1164.88V88.8203H1194.03C1194 86.6044 1193.52 84.6335 1192.59 82.9077C1191.65 81.1605 1190.34 79.7862 1188.66 78.7848C1186.99 77.7834 1185.06 77.2827 1182.84 77.2827C1180.47 77.2827 1178.4 77.858 1176.61 79.0085C1174.82 80.1378 1173.42 81.6293 1172.42 83.483C1171.44 85.3153 1170.94 87.3288 1170.92 89.5234V96.331C1170.92 99.1861 1171.44 101.636 1172.48 103.682C1173.53 105.706 1174.99 107.261 1176.86 108.348C1178.74 109.413 1180.93 109.946 1183.45 109.946C1185.13 109.946 1186.65 109.712 1188.02 109.243C1189.38 108.753 1190.56 108.039 1191.56 107.102C1192.57 106.164 1193.32 105.003 1193.83 103.618L1204.64 104.832C1203.95 107.687 1202.65 110.18 1200.74 112.311C1198.84 114.42 1196.41 116.061 1193.45 117.233C1190.49 118.384 1187.1 118.959 1183.29 118.959Z" fill="white"/>
<path d="M2049.83 52.5455H2064.34L2083.77 99.9744H2084.54L2103.97 52.5455H2118.48V118H2107.1V73.032H2106.49L2088.4 117.808H2079.9L2061.81 72.9361H2061.2V118H2049.83V52.5455ZM2152.29 118.959C2147.5 118.959 2143.34 117.904 2139.83 115.795C2136.31 113.685 2133.58 110.734 2131.65 106.942C2129.73 103.149 2128.77 98.7173 2128.77 93.6463C2128.77 88.5753 2129.73 84.1328 2131.65 80.3189C2133.58 76.505 2136.31 73.5433 2139.83 71.4339C2143.34 69.3246 2147.5 68.2699 2152.29 68.2699C2157.09 68.2699 2161.24 69.3246 2164.76 71.4339C2168.27 73.5433 2170.99 76.505 2172.91 80.3189C2174.84 84.1328 2175.81 88.5753 2175.81 93.6463C2175.81 98.7173 2174.84 103.149 2172.91 106.942C2170.99 110.734 2168.27 113.685 2164.76 115.795C2161.24 117.904 2157.09 118.959 2152.29 118.959ZM2152.36 109.69C2154.95 109.69 2157.13 108.977 2158.88 107.549C2160.62 106.1 2161.92 104.161 2162.77 101.732C2163.65 99.3033 2164.08 96.5973 2164.08 93.6143C2164.08 90.6101 2163.65 87.8935 2162.77 85.4645C2161.92 83.0142 2160.62 81.0646 2158.88 79.6158C2157.13 78.1669 2154.95 77.4425 2152.36 77.4425C2149.69 77.4425 2147.48 78.1669 2145.71 79.6158C2143.96 81.0646 2142.65 83.0142 2141.78 85.4645C2140.92 87.8935 2140.5 90.6101 2140.5 93.6143C2140.5 96.5973 2140.92 99.3033 2141.78 101.732C2142.65 104.161 2143.96 106.1 2145.71 107.549C2147.48 108.977 2149.69 109.69 2152.36 109.69ZM2203.85 118.863C2199.99 118.863 2196.54 117.872 2193.5 115.891C2190.45 113.909 2188.04 111.033 2186.27 107.261C2184.5 103.49 2183.62 98.9091 2183.62 93.5185C2183.62 88.0639 2184.52 83.4616 2186.31 79.7116C2188.12 75.9403 2190.56 73.0959 2193.62 71.1783C2196.69 69.2393 2200.11 68.2699 2203.88 68.2699C2206.76 68.2699 2209.12 68.7599 2210.98 69.7401C2212.83 70.6989 2214.3 71.8601 2215.39 73.2237C2216.48 74.566 2217.32 75.8338 2217.91 77.027H2218.39V52.5455H2229.99V118H2218.62V110.266H2217.91C2217.32 111.459 2216.45 112.727 2215.33 114.069C2214.2 115.39 2212.7 116.519 2210.85 117.457C2209 118.394 2206.66 118.863 2203.85 118.863ZM2207.08 109.371C2209.53 109.371 2211.62 108.71 2213.34 107.389C2215.07 106.047 2216.38 104.183 2217.27 101.796C2218.17 99.4098 2218.62 96.6293 2218.62 93.4545C2218.62 90.2798 2218.17 87.5206 2217.27 85.1768C2216.4 82.8331 2215.1 81.0114 2213.38 79.7116C2211.67 78.4119 2209.57 77.7621 2207.08 77.7621C2204.5 77.7621 2202.35 78.4332 2200.62 79.7756C2198.9 81.1179 2197.6 82.9716 2196.72 85.3366C2195.85 87.7017 2195.41 90.4077 2195.41 93.4545C2195.41 96.5227 2195.85 99.2607 2196.72 101.668C2197.62 104.055 2198.93 105.94 2200.66 107.325C2202.4 108.689 2204.54 109.371 2207.08 109.371ZM2273.61 97.3537V68.9091H2285.18V118H2273.96V109.275H2273.45C2272.34 112.023 2270.52 114.271 2267.99 116.018C2265.47 117.766 2262.37 118.639 2258.69 118.639C2255.47 118.639 2252.63 117.925 2250.15 116.498C2247.7 115.049 2245.79 112.95 2244.4 110.202C2243.02 107.432 2242.32 104.087 2242.32 100.166V68.9091H2253.89V98.3764C2253.89 101.487 2254.75 103.959 2256.45 105.791C2258.15 107.624 2260.39 108.54 2263.16 108.54C2264.87 108.54 2266.52 108.124 2268.12 107.293C2269.71 106.462 2271.02 105.227 2272.05 103.586C2273.09 101.924 2273.61 99.8466 2273.61 97.3537ZM2308.65 52.5455V118H2297.08V52.5455H2308.65ZM2334.67 118.991C2331.56 118.991 2328.76 118.437 2326.27 117.329C2323.8 116.2 2321.84 114.538 2320.39 112.343C2318.96 110.148 2318.25 107.442 2318.25 104.225C2318.25 101.455 2318.76 99.1648 2319.78 97.3537C2320.8 95.5426 2322.2 94.0938 2323.97 93.0071C2325.73 91.9205 2327.73 91.1001 2329.94 90.5462C2332.18 89.9709 2334.49 89.5554 2336.88 89.2997C2339.75 89.0014 2342.09 88.7351 2343.88 88.5007C2345.67 88.245 2346.97 87.8615 2347.78 87.3501C2348.61 86.8175 2349.02 85.9972 2349.02 84.8892V84.6974C2349.02 82.2898 2348.31 80.4254 2346.88 79.1044C2345.45 77.7834 2343.4 77.1229 2340.71 77.1229C2337.88 77.1229 2335.63 77.7408 2333.97 78.9766C2332.33 80.2124 2331.22 81.6719 2330.65 83.3551L2319.84 81.821C2320.7 78.8381 2322.1 76.3452 2324.06 74.3423C2326.02 72.3182 2328.42 70.8054 2331.25 69.804C2334.09 68.7812 2337.22 68.2699 2340.65 68.2699C2343.01 68.2699 2345.37 68.5469 2347.71 69.1009C2350.06 69.6548 2352.2 70.571 2354.14 71.8494C2356.08 73.1065 2357.63 74.8217 2358.8 76.995C2360 79.1683 2360.59 81.8849 2360.59 85.1449V118H2349.47V111.256H2349.09C2348.38 112.62 2347.39 113.898 2346.11 115.092C2344.86 116.263 2343.27 117.212 2341.35 117.936C2339.46 118.639 2337.23 118.991 2334.67 118.991ZM2337.68 110.489C2340 110.489 2342.01 110.031 2343.72 109.115C2345.42 108.178 2346.73 106.942 2347.65 105.408C2348.59 103.874 2349.05 102.201 2349.05 100.39V94.6051C2348.69 94.9034 2348.07 95.1804 2347.2 95.4361C2346.35 95.6918 2345.39 95.9155 2344.32 96.1072C2343.26 96.299 2342.2 96.4695 2341.16 96.6186C2340.12 96.7678 2339.21 96.8956 2338.44 97.0021C2336.72 97.2365 2335.17 97.62 2333.81 98.1527C2332.45 98.6854 2331.37 99.4311 2330.58 100.39C2329.79 101.327 2329.4 102.542 2329.4 104.033C2329.4 106.164 2330.18 107.773 2331.73 108.859C2333.29 109.946 2335.27 110.489 2337.68 110.489ZM2396.74 68.9091V77.858H2368.52V68.9091H2396.74ZM2375.49 57.1477H2387.06V103.234C2387.06 104.79 2387.29 105.983 2387.76 106.814C2388.25 107.624 2388.89 108.178 2389.68 108.476C2390.46 108.774 2391.34 108.923 2392.3 108.923C2393.02 108.923 2393.68 108.87 2394.28 108.763C2394.9 108.657 2395.37 108.561 2395.68 108.476L2397.63 117.521C2397.02 117.734 2396.13 117.968 2394.98 118.224C2393.85 118.479 2392.47 118.629 2390.83 118.671C2387.93 118.756 2385.32 118.32 2383 117.361C2380.67 116.381 2378.83 114.868 2377.47 112.822C2376.13 110.777 2375.46 108.22 2375.49 105.152V57.1477ZM2406.42 118V68.9091H2417.98V118H2406.42ZM2412.23 61.9418C2410.4 61.9418 2408.82 61.3345 2407.5 60.12C2406.18 58.8842 2405.52 57.4034 2405.52 55.6776C2405.52 53.9304 2406.18 52.4496 2407.5 51.2351C2408.82 49.9993 2410.4 49.3814 2412.23 49.3814C2414.09 49.3814 2415.66 49.9993 2416.96 51.2351C2418.28 52.4496 2418.94 53.9304 2418.94 55.6776C2418.94 57.4034 2418.28 58.8842 2416.96 60.12C2415.66 61.3345 2414.09 61.9418 2412.23 61.9418ZM2451.3 118.959C2446.5 118.959 2442.35 117.904 2438.83 115.795C2435.32 113.685 2432.59 110.734 2430.65 106.942C2428.73 103.149 2427.77 98.7173 2427.77 93.6463C2427.77 88.5753 2428.73 84.1328 2430.65 80.3189C2432.59 76.505 2435.32 73.5433 2438.83 71.4339C2442.35 69.3246 2446.5 68.2699 2451.3 68.2699C2456.09 68.2699 2460.24 69.3246 2463.76 71.4339C2467.28 73.5433 2469.99 76.505 2471.91 80.3189C2473.85 84.1328 2474.82 88.5753 2474.82 93.6463C2474.82 98.7173 2473.85 103.149 2471.91 106.942C2469.99 110.734 2467.28 113.685 2463.76 115.795C2460.24 117.904 2456.09 118.959 2451.3 118.959ZM2451.36 109.69C2453.96 109.69 2456.13 108.977 2457.88 107.549C2459.63 106.1 2460.93 104.161 2461.78 101.732C2462.65 99.3033 2463.09 96.5973 2463.09 93.6143C2463.09 90.6101 2462.65 87.8935 2461.78 85.4645C2460.93 83.0142 2459.63 81.0646 2457.88 79.6158C2456.13 78.1669 2453.96 77.4425 2451.36 77.4425C2448.7 77.4425 2446.48 78.1669 2444.71 79.6158C2442.96 81.0646 2441.65 83.0142 2440.78 85.4645C2439.93 87.8935 2439.5 90.6101 2439.5 93.6143C2439.5 96.5973 2439.93 99.3033 2440.78 101.732C2441.65 104.161 2442.96 106.1 2444.71 107.549C2446.48 108.977 2448.7 109.69 2451.36 109.69ZM2496.21 89.2358V118H2484.64V68.9091H2495.7V77.2507H2496.27C2497.4 74.5021 2499.2 72.3182 2501.67 70.6989C2504.17 69.0795 2507.24 68.2699 2510.91 68.2699C2514.3 68.2699 2517.25 68.9943 2519.76 70.4432C2522.3 71.892 2524.26 73.9908 2525.64 76.7393C2527.05 79.4879 2527.74 82.8224 2527.72 86.7429V118H2516.15V88.5327C2516.15 85.2514 2515.3 82.6839 2513.59 80.8303C2511.91 78.9766 2509.58 78.0497 2506.59 78.0497C2504.57 78.0497 2502.77 78.4972 2501.19 79.392C2499.64 80.2656 2498.41 81.5334 2497.52 83.1953C2496.64 84.8572 2496.21 86.8707 2496.21 89.2358ZM2600.61 81.8849L2590.06 83.0355C2589.76 81.9702 2589.24 80.9688 2588.49 80.0312C2587.77 79.0938 2586.79 78.3374 2585.55 77.7621C2584.32 77.1868 2582.8 76.8991 2581.01 76.8991C2578.61 76.8991 2576.58 77.4212 2574.94 78.4652C2573.32 79.5092 2572.52 80.8622 2572.54 82.5241C2572.52 83.9517 2573.05 85.1129 2574.11 86.0078C2575.2 86.9027 2576.99 87.6378 2579.48 88.2131L2587.85 90.0028C2592.5 91.0043 2595.95 92.5916 2598.21 94.7649C2600.49 96.9382 2601.64 99.7827 2601.66 103.298C2601.64 106.388 2600.73 109.115 2598.94 111.48C2597.18 113.824 2594.71 115.656 2591.56 116.977C2588.41 118.298 2584.79 118.959 2580.69 118.959C2574.69 118.959 2569.85 117.702 2566.18 115.188C2562.52 112.652 2560.34 109.126 2559.63 104.609L2570.91 103.522C2571.43 105.738 2572.51 107.411 2574.17 108.54C2575.84 109.669 2578 110.234 2580.66 110.234C2583.41 110.234 2585.62 109.669 2587.28 108.54C2588.96 107.411 2589.8 106.015 2589.8 104.353C2589.8 102.947 2589.26 101.786 2588.17 100.869C2587.11 99.9531 2585.45 99.25 2583.19 98.7599L2574.81 97.0021C2570.1 96.022 2566.62 94.3707 2564.36 92.0483C2562.1 89.7045 2560.99 86.7429 2561.01 83.1634C2560.99 80.1378 2561.81 77.517 2563.47 75.3011C2565.15 73.0639 2567.48 71.3381 2570.47 70.1236C2573.47 68.8878 2576.93 68.2699 2580.85 68.2699C2586.61 68.2699 2591.13 69.495 2594.44 71.9453C2597.76 74.3956 2599.82 77.7088 2600.61 81.8849ZM2618.39 136.409C2616.81 136.409 2615.36 136.281 2614.01 136.026C2612.69 135.791 2611.64 135.514 2610.85 135.195L2613.53 126.182C2615.22 126.672 2616.72 126.906 2618.04 126.885C2619.36 126.864 2620.52 126.448 2621.52 125.638C2622.55 124.85 2623.41 123.529 2624.11 121.675L2625.1 119.023L2607.3 68.9091H2619.57L2630.89 105.983H2631.4L2642.75 68.9091H2655.05L2635.39 123.945C2634.48 126.544 2633.26 128.771 2631.75 130.624C2630.24 132.499 2628.38 133.927 2626.19 134.907C2624.02 135.908 2621.42 136.409 2618.39 136.409ZM2674.63 89.2358V118H2663.06V68.9091H2674.11V77.2507H2674.69C2675.82 74.5021 2677.62 72.3182 2680.09 70.6989C2682.58 69.0795 2685.66 68.2699 2689.33 68.2699C2692.72 68.2699 2695.67 68.9943 2698.18 70.4432C2700.72 71.892 2702.68 73.9908 2704.06 76.7393C2705.47 79.4879 2706.16 82.8224 2706.14 86.7429V118H2694.57V88.5327C2694.57 85.2514 2693.72 82.6839 2692.01 80.8303C2690.33 78.9766 2688 78.0497 2685.01 78.0497C2682.99 78.0497 2681.19 78.4972 2679.61 79.392C2678.06 80.2656 2676.83 81.5334 2675.94 83.1953C2675.06 84.8572 2674.63 86.8707 2674.63 89.2358ZM2732.03 118.991C2728.92 118.991 2726.11 118.437 2723.62 117.329C2721.15 116.2 2719.19 114.538 2717.74 112.343C2716.31 110.148 2715.6 107.442 2715.6 104.225C2715.6 101.455 2716.11 99.1648 2717.13 97.3537C2718.16 95.5426 2719.55 94.0938 2721.32 93.0071C2723.09 91.9205 2725.08 91.1001 2727.3 90.5462C2729.53 89.9709 2731.84 89.5554 2734.23 89.2997C2737.11 89.0014 2739.44 88.7351 2741.23 88.5007C2743.02 88.245 2744.32 87.8615 2745.13 87.3501C2745.96 86.8175 2746.38 85.9972 2746.38 84.8892V84.6974C2746.38 82.2898 2745.66 80.4254 2744.23 79.1044C2742.81 77.7834 2740.75 77.1229 2738.07 77.1229C2735.23 77.1229 2732.98 77.7408 2731.32 78.9766C2729.68 80.2124 2728.57 81.6719 2728 83.3551L2717.2 81.821C2718.05 78.8381 2719.46 76.3452 2721.42 74.3423C2723.38 72.3182 2725.77 70.8054 2728.61 69.804C2731.44 68.7812 2734.57 68.2699 2738 68.2699C2740.37 68.2699 2742.72 68.5469 2745.07 69.1009C2747.41 69.6548 2749.55 70.571 2751.49 71.8494C2753.43 73.1065 2754.98 74.8217 2756.16 76.995C2757.35 79.1683 2757.95 81.8849 2757.95 85.1449V118H2746.82V111.256H2746.44C2745.74 112.62 2744.75 113.898 2743.47 115.092C2742.21 116.263 2740.62 117.212 2738.71 117.936C2736.81 118.639 2734.58 118.991 2732.03 118.991ZM2735.03 110.489C2737.35 110.489 2739.37 110.031 2741.07 109.115C2742.78 108.178 2744.09 106.942 2745 105.408C2745.94 103.874 2746.41 102.201 2746.41 100.39V94.6051C2746.05 94.9034 2745.43 95.1804 2744.55 95.4361C2743.7 95.6918 2742.74 95.9155 2741.68 96.1072C2740.61 96.299 2739.56 96.4695 2738.51 96.6186C2737.47 96.7678 2736.56 96.8956 2735.8 97.0021C2734.07 97.2365 2732.53 97.62 2731.16 98.1527C2729.8 98.6854 2728.72 99.4311 2727.94 100.39C2727.15 101.327 2726.75 102.542 2726.75 104.033C2726.75 106.164 2727.53 107.773 2729.09 108.859C2730.64 109.946 2732.62 110.489 2735.03 110.489ZM2769.58 136.409V68.9091H2780.96V77.027H2781.63C2782.22 75.8338 2783.07 74.566 2784.15 73.2237C2785.24 71.8601 2786.71 70.6989 2788.56 69.7401C2790.42 68.7599 2792.78 68.2699 2795.66 68.2699C2799.45 68.2699 2802.87 69.2393 2805.92 71.1783C2808.99 73.0959 2811.42 75.9403 2813.21 79.7116C2815.02 83.4616 2815.92 88.0639 2815.92 93.5185C2815.92 98.9091 2815.04 103.49 2813.27 107.261C2811.5 111.033 2809.09 113.909 2806.05 115.891C2803 117.872 2799.55 118.863 2795.69 118.863C2792.88 118.863 2790.55 118.394 2788.69 117.457C2786.84 116.519 2785.35 115.39 2784.22 114.069C2783.11 112.727 2782.25 111.459 2781.63 110.266H2781.15V136.409H2769.58ZM2780.93 93.4545C2780.93 96.6293 2781.37 99.4098 2782.27 101.796C2783.18 104.183 2784.49 106.047 2786.2 107.389C2787.92 108.71 2790.01 109.371 2792.46 109.371C2795.02 109.371 2797.16 108.689 2798.89 107.325C2800.61 105.94 2801.91 104.055 2802.79 101.668C2803.68 99.2607 2804.13 96.5227 2804.13 93.4545C2804.13 90.4077 2803.69 87.7017 2802.82 85.3366C2801.94 82.9716 2800.64 81.1179 2798.92 79.7756C2797.19 78.4332 2795.04 77.7621 2792.46 77.7621C2789.99 77.7621 2787.89 78.4119 2786.17 79.7116C2784.44 81.0114 2783.13 82.8331 2782.24 85.1768C2781.36 87.5206 2780.93 90.2798 2780.93 93.4545ZM2864.63 81.8849L2854.08 83.0355C2853.78 81.9702 2853.26 80.9688 2852.52 80.0312C2851.79 79.0938 2850.81 78.3374 2849.58 77.7621C2848.34 77.1868 2846.83 76.8991 2845.04 76.8991C2842.63 76.8991 2840.61 77.4212 2838.97 78.4652C2837.35 79.5092 2836.55 80.8622 2836.57 82.5241C2836.55 83.9517 2837.07 85.1129 2838.13 86.0078C2839.22 86.9027 2841.01 87.6378 2843.5 88.2131L2851.88 90.0028C2856.52 91.0043 2859.97 92.5916 2862.23 94.7649C2864.51 96.9382 2865.66 99.7827 2865.68 103.298C2865.66 106.388 2864.76 109.115 2862.97 111.48C2861.2 113.824 2858.74 115.656 2855.58 116.977C2852.43 118.298 2848.81 118.959 2844.72 118.959C2838.71 118.959 2833.87 117.702 2830.21 115.188C2826.54 112.652 2824.36 109.126 2823.66 104.609L2834.94 103.522C2835.45 105.738 2836.54 107.411 2838.2 108.54C2839.86 109.669 2842.02 110.234 2844.69 110.234C2847.43 110.234 2849.64 109.669 2851.3 108.54C2852.98 107.411 2853.83 106.015 2853.83 104.353C2853.83 102.947 2853.28 101.786 2852.2 100.869C2851.13 99.9531 2849.47 99.25 2847.21 98.7599L2838.84 97.0021C2834.13 96.022 2830.64 94.3707 2828.39 92.0483C2826.13 89.7045 2825.01 86.7429 2825.03 83.1634C2825.01 80.1378 2825.83 77.517 2827.49 75.3011C2829.17 73.0639 2831.51 71.3381 2834.49 70.1236C2837.49 68.8878 2840.96 68.2699 2844.88 68.2699C2850.63 68.2699 2855.16 69.495 2858.46 71.9453C2861.78 74.3956 2863.84 77.7088 2864.63 81.8849ZM2896.96 118.959C2892.03 118.959 2887.78 117.936 2884.2 115.891C2880.65 113.824 2877.91 110.905 2875.99 107.134C2874.07 103.341 2873.11 98.8771 2873.11 93.7422C2873.11 88.6925 2874.07 84.2607 2875.99 80.4467C2877.93 76.6115 2880.64 73.6285 2884.11 71.4979C2887.58 69.3459 2891.66 68.2699 2896.35 68.2699C2899.38 68.2699 2902.23 68.7599 2904.91 69.7401C2907.62 70.6989 2910.01 72.1903 2912.07 74.2145C2914.16 76.2386 2915.8 78.8168 2917 81.9489C2918.19 85.0597 2918.79 88.767 2918.79 93.071V96.6186H2878.55V88.8203H2907.7C2907.67 86.6044 2907.19 84.6335 2906.26 82.9077C2905.32 81.1605 2904.01 79.7862 2902.33 78.7848C2900.66 77.7834 2898.73 77.2827 2896.51 77.2827C2894.14 77.2827 2892.07 77.858 2890.28 79.0085C2888.49 80.1378 2887.09 81.6293 2886.09 83.483C2885.11 85.3153 2884.61 87.3288 2884.59 89.5234V96.331C2884.59 99.1861 2885.11 101.636 2886.15 103.682C2887.2 105.706 2888.66 107.261 2890.53 108.348C2892.41 109.413 2894.6 109.946 2897.12 109.946C2898.8 109.946 2900.32 109.712 2901.69 109.243C2903.05 108.753 2904.23 108.039 2905.23 107.102C2906.24 106.164 2906.99 105.003 2907.5 103.618L2918.31 104.832C2917.62 107.687 2916.32 110.18 2914.41 112.311C2912.51 114.42 2910.08 116.061 2907.12 117.233C2904.16 118.384 2900.77 118.959 2896.96 118.959Z" fill="white"/>
<path d="M3788.55 118V52.5455H3831.13V62.4851H3800.41V80.255H3828.92V90.1946H3800.41V108.06H3831.38V118H3788.55ZM3854.28 52.5455V118H3842.71V52.5455H3854.28ZM3887.91 118.959C3882.99 118.959 3878.74 117.936 3875.16 115.891C3871.6 113.824 3868.86 110.905 3866.95 107.134C3865.03 103.341 3864.07 98.8771 3864.07 93.7422C3864.07 88.6925 3865.03 84.2607 3866.95 80.4467C3868.88 76.6115 3871.59 73.6285 3875.06 71.4979C3878.54 69.3459 3882.62 68.2699 3887.3 68.2699C3890.33 68.2699 3893.18 68.7599 3895.87 69.7401C3898.58 70.6989 3900.96 72.1903 3903.03 74.2145C3905.12 76.2386 3906.76 78.8168 3907.95 81.9489C3909.14 85.0597 3909.74 88.767 3909.74 93.071V96.6186H3869.5V88.8203H3898.65C3898.63 86.6044 3898.15 84.6335 3897.21 82.9077C3896.27 81.1605 3894.96 79.7862 3893.28 78.7848C3891.62 77.7834 3889.68 77.2827 3887.46 77.2827C3885.1 77.2827 3883.02 77.858 3881.23 79.0085C3879.44 80.1378 3878.05 81.6293 3877.04 83.483C3876.06 85.3153 3875.56 87.3288 3875.54 89.5234V96.331C3875.54 99.1861 3876.06 101.636 3877.11 103.682C3878.15 105.706 3879.61 107.261 3881.49 108.348C3883.36 109.413 3885.56 109.946 3888.07 109.946C3889.75 109.946 3891.28 109.712 3892.64 109.243C3894 108.753 3895.19 108.039 3896.19 107.102C3897.19 106.164 3897.95 105.003 3898.46 103.618L3909.26 104.832C3908.58 107.687 3907.28 110.18 3905.36 112.311C3903.46 114.42 3901.04 116.061 3898.07 117.233C3895.11 118.384 3891.72 118.959 3887.91 118.959ZM3940.94 118.959C3936.04 118.959 3931.83 117.883 3928.32 115.731C3924.82 113.579 3922.13 110.607 3920.23 106.814C3918.36 103 3917.42 98.6108 3917.42 93.6463C3917.42 88.6605 3918.38 84.2607 3920.29 80.4467C3922.21 76.6115 3924.92 73.6285 3928.41 71.4979C3931.93 69.3459 3936.08 68.2699 3940.88 68.2699C3944.86 68.2699 3948.39 69.005 3951.46 70.4751C3954.55 71.924 3957.01 73.9801 3958.84 76.6435C3960.67 79.2855 3961.72 82.375 3961.97 85.9119H3950.91C3950.47 83.5469 3949.4 81.576 3947.72 79.9993C3946.05 78.4013 3943.83 77.6023 3941.04 77.6023C3938.67 77.6023 3936.59 78.2415 3934.8 79.5199C3933.01 80.777 3931.62 82.5881 3930.62 84.9531C3929.64 87.3182 3929.15 90.152 3929.15 93.4545C3929.15 96.7997 3929.64 99.6761 3930.62 102.084C3931.6 104.47 3932.97 106.313 3934.74 107.613C3936.53 108.891 3938.63 109.531 3941.04 109.531C3942.74 109.531 3944.26 109.211 3945.61 108.572C3946.97 107.911 3948.11 106.963 3949.03 105.727C3949.94 104.491 3950.57 102.989 3950.91 101.221H3961.97C3961.69 104.694 3960.67 107.773 3958.9 110.457C3957.13 113.121 3954.73 115.209 3951.68 116.722C3948.63 118.213 3945.05 118.959 3940.94 118.959ZM3995.98 68.9091V77.858H3967.76V68.9091H3995.98ZM3974.73 57.1477H3986.3V103.234C3986.3 104.79 3986.53 105.983 3987 106.814C3987.49 107.624 3988.13 108.178 3988.92 108.476C3989.71 108.774 3990.58 108.923 3991.54 108.923C3992.27 108.923 3992.93 108.87 3993.52 108.763C3994.14 108.657 3994.61 108.561 3994.93 108.476L3996.88 117.521C3996.26 117.734 3995.38 117.968 3994.23 118.224C3993.1 118.479 3991.71 118.629 3990.07 118.671C3987.17 118.756 3984.56 118.32 3982.24 117.361C3979.92 116.381 3978.08 114.868 3976.71 112.822C3975.37 110.777 3974.71 108.22 3974.73 105.152V57.1477ZM4005.66 118V68.9091H4016.88V77.0909H4017.39C4018.28 74.2571 4019.82 72.0732 4021.99 70.5391C4024.19 68.9837 4026.69 68.206 4029.5 68.206C4030.14 68.206 4030.86 68.2379 4031.64 68.3018C4032.45 68.3445 4033.12 68.419 4033.66 68.5256V79.1683C4033.17 78.9979 4032.39 78.8487 4031.32 78.7209C4030.28 78.5717 4029.27 78.4972 4028.29 78.4972C4026.18 78.4972 4024.28 78.9553 4022.6 79.8714C4020.94 80.7663 4019.63 82.0128 4018.67 83.6108C4017.71 85.2088 4017.23 87.0518 4017.23 89.1399V118H4005.66ZM4041.34 118V68.9091H4052.91V118H4041.34ZM4047.16 61.9418C4045.33 61.9418 4043.75 61.3345 4042.43 60.12C4041.11 58.8842 4040.45 57.4034 4040.45 55.6776C4040.45 53.9304 4041.11 52.4496 4042.43 51.2351C4043.75 49.9993 4045.33 49.3814 4047.16 49.3814C4049.01 49.3814 4050.59 49.9993 4051.89 51.2351C4053.21 52.4496 4053.87 53.9304 4053.87 55.6776C4053.87 57.4034 4053.21 58.8842 4051.89 60.12C4050.59 61.3345 4049.01 61.9418 4047.16 61.9418ZM4086.22 118.959C4081.32 118.959 4077.12 117.883 4073.6 115.731C4070.11 113.579 4067.41 110.607 4065.51 106.814C4063.64 103 4062.7 98.6108 4062.7 93.6463C4062.7 88.6605 4063.66 84.2607 4065.58 80.4467C4067.5 76.6115 4070.2 73.6285 4073.7 71.4979C4077.21 69.3459 4081.37 68.2699 4086.16 68.2699C4090.14 68.2699 4093.67 69.005 4096.74 70.4751C4099.83 71.924 4102.29 73.9801 4104.12 76.6435C4105.95 79.2855 4107 82.375 4107.25 85.9119H4096.2C4095.75 83.5469 4094.68 81.576 4093 79.9993C4091.34 78.4013 4089.11 77.6023 4086.32 77.6023C4083.95 77.6023 4081.88 78.2415 4080.09 79.5199C4078.3 80.777 4076.9 82.5881 4075.9 84.9531C4074.92 87.3182 4074.43 90.152 4074.43 93.4545C4074.43 96.7997 4074.92 99.6761 4075.9 102.084C4076.88 104.47 4078.26 106.313 4080.02 107.613C4081.81 108.891 4083.91 109.531 4086.32 109.531C4088.02 109.531 4089.55 109.211 4090.89 108.572C4092.25 107.911 4093.39 106.963 4094.31 105.727C4095.23 104.491 4095.85 102.989 4096.2 101.221H4107.25C4106.98 104.694 4105.95 107.773 4104.19 110.457C4102.42 113.121 4100.01 115.209 4096.96 116.722C4093.92 118.213 4090.34 118.959 4086.22 118.959ZM4177.88 81.8849L4167.33 83.0355C4167.03 81.9702 4166.51 80.9688 4165.77 80.0312C4165.04 79.0938 4164.06 78.3374 4162.82 77.7621C4161.59 77.1868 4160.08 76.8991 4158.29 76.8991C4155.88 76.8991 4153.85 77.4212 4152.21 78.4652C4150.59 79.5092 4149.8 80.8622 4149.82 82.5241C4149.8 83.9517 4150.32 85.1129 4151.38 86.0078C4152.47 86.9027 4154.26 87.6378 4156.75 88.2131L4165.13 90.0028C4169.77 91.0043 4173.22 92.5916 4175.48 94.7649C4177.76 96.9382 4178.91 99.7827 4178.93 103.298C4178.91 106.388 4178.01 109.115 4176.22 111.48C4174.45 113.824 4171.99 115.656 4168.83 116.977C4165.68 118.298 4162.06 118.959 4157.97 118.959C4151.96 118.959 4147.12 117.702 4143.46 115.188C4139.79 112.652 4137.61 109.126 4136.91 104.609L4148.19 103.522C4148.7 105.738 4149.79 107.411 4151.45 108.54C4153.11 109.669 4155.27 110.234 4157.93 110.234C4160.68 110.234 4162.89 109.669 4164.55 108.54C4166.23 107.411 4167.08 106.015 4167.08 104.353C4167.08 102.947 4166.53 101.786 4165.45 100.869C4164.38 99.9531 4162.72 99.25 4160.46 98.7599L4152.09 97.0021C4147.38 96.022 4143.89 94.3707 4141.64 92.0483C4139.38 89.7045 4138.26 86.7429 4138.28 83.1634C4138.26 80.1378 4139.08 77.517 4140.74 75.3011C4142.42 73.0639 4144.76 71.3381 4147.74 70.1236C4150.74 68.8878 4154.21 68.2699 4158.13 68.2699C4163.88 68.2699 4168.41 69.495 4171.71 71.9453C4175.03 74.3956 4177.09 77.7088 4177.88 81.8849ZM4195.66 136.409C4194.09 136.409 4192.63 136.281 4191.29 136.026C4189.96 135.791 4188.91 135.514 4188.12 135.195L4190.81 126.182C4192.49 126.672 4193.99 126.906 4195.31 126.885C4196.63 126.864 4197.79 126.448 4198.8 125.638C4199.82 124.85 4200.68 123.529 4201.38 121.675L4202.38 119.023L4184.57 68.9091H4196.85L4208.16 105.983H4208.67L4220.02 68.9091H4232.32L4212.67 123.945C4211.75 126.544 4210.54 128.771 4209.02 130.624C4207.51 132.499 4205.66 133.927 4203.46 134.907C4201.29 135.908 4198.69 136.409 4195.66 136.409ZM4251.9 89.2358V118H4240.33V68.9091H4251.39V77.2507H4251.96C4253.09 74.5021 4254.89 72.3182 4257.36 70.6989C4259.86 69.0795 4262.93 68.2699 4266.6 68.2699C4269.99 68.2699 4272.94 68.9943 4275.45 70.4432C4277.99 71.892 4279.95 73.9908 4281.33 76.7393C4282.74 79.4879 4283.43 82.8224 4283.41 86.7429V118H4271.84V88.5327C4271.84 85.2514 4270.99 82.6839 4269.28 80.8303C4267.6 78.9766 4265.27 78.0497 4262.29 78.0497C4260.26 78.0497 4258.46 78.4972 4256.88 79.392C4255.33 80.2656 4254.1 81.5334 4253.21 83.1953C4252.33 84.8572 4251.9 86.8707 4251.9 89.2358ZM4309.3 118.991C4306.19 118.991 4303.39 118.437 4300.89 117.329C4298.42 116.2 4296.46 114.538 4295.01 112.343C4293.58 110.148 4292.87 107.442 4292.87 104.225C4292.87 101.455 4293.38 99.1648 4294.41 97.3537C4295.43 95.5426 4296.82 94.0938 4298.59 93.0071C4300.36 91.9205 4302.35 91.1001 4304.57 90.5462C4306.81 89.9709 4309.12 89.5554 4311.5 89.2997C4314.38 89.0014 4316.71 88.7351 4318.5 88.5007C4320.29 88.245 4321.59 87.8615 4322.4 87.3501C4323.23 86.8175 4323.65 85.9972 4323.65 84.8892V84.6974C4323.65 82.2898 4322.93 80.4254 4321.51 79.1044C4320.08 77.7834 4318.02 77.1229 4315.34 77.1229C4312.51 77.1229 4310.26 77.7408 4308.6 78.9766C4306.95 80.2124 4305.85 81.6719 4305.27 83.3551L4294.47 81.821C4295.32 78.8381 4296.73 76.3452 4298.69 74.3423C4300.65 72.3182 4303.05 70.8054 4305.88 69.804C4308.71 68.7812 4311.84 68.2699 4315.28 68.2699C4317.64 68.2699 4319.99 68.5469 4322.34 69.1009C4324.68 69.6548 4326.82 70.571 4328.76 71.8494C4330.7 73.1065 4332.26 74.8217 4333.43 76.995C4334.62 79.1683 4335.22 81.8849 4335.22 85.1449V118H4324.1V111.256H4323.71C4323.01 112.62 4322.02 113.898 4320.74 115.092C4319.48 116.263 4317.9 117.212 4315.98 117.936C4314.08 118.639 4311.86 118.991 4309.3 118.991ZM4312.3 110.489C4314.63 110.489 4316.64 110.031 4318.34 109.115C4320.05 108.178 4321.36 106.942 4322.27 105.408C4323.21 103.874 4323.68 102.201 4323.68 100.39V94.6051C4323.32 94.9034 4322.7 95.1804 4321.83 95.4361C4320.97 95.6918 4320.02 95.9155 4318.95 96.1072C4317.89 96.299 4316.83 96.4695 4315.79 96.6186C4314.74 96.7678 4313.84 96.8956 4313.07 97.0021C4311.34 97.2365 4309.8 97.62 4308.44 98.1527C4307.07 98.6854 4306 99.4311 4305.21 100.39C4304.42 101.327 4304.03 102.542 4304.03 104.033C4304.03 106.164 4304.8 107.773 4306.36 108.859C4307.91 109.946 4309.9 110.489 4312.3 110.489ZM4346.85 136.409V68.9091H4358.23V77.027H4358.9C4359.5 75.8338 4360.34 74.566 4361.43 73.2237C4362.51 71.8601 4363.98 70.6989 4365.84 69.7401C4367.69 68.7599 4370.05 68.2699 4372.93 68.2699C4376.72 68.2699 4380.14 69.2393 4383.19 71.1783C4386.26 73.0959 4388.69 75.9403 4390.48 79.7116C4392.29 83.4616 4393.19 88.0639 4393.19 93.5185C4393.19 98.9091 4392.31 103.49 4390.54 107.261C4388.77 111.033 4386.37 113.909 4383.32 115.891C4380.27 117.872 4376.82 118.863 4372.96 118.863C4370.15 118.863 4367.82 118.394 4365.96 117.457C4364.11 116.519 4362.62 115.39 4361.49 114.069C4360.38 112.727 4359.52 111.459 4358.9 110.266H4358.42V136.409H4346.85ZM4358.2 93.4545C4358.2 96.6293 4358.65 99.4098 4359.54 101.796C4360.46 104.183 4361.77 106.047 4363.47 107.389C4365.2 108.71 4367.29 109.371 4369.74 109.371C4372.29 109.371 4374.43 108.689 4376.16 107.325C4377.89 105.94 4379.18 104.055 4380.06 101.668C4380.95 99.2607 4381.4 96.5227 4381.4 93.4545C4381.4 90.4077 4380.96 87.7017 4380.09 85.3366C4379.22 82.9716 4377.92 81.1179 4376.19 79.7756C4374.47 78.4332 4372.31 77.7621 4369.74 77.7621C4367.26 77.7621 4365.17 78.4119 4363.44 79.7116C4361.71 81.0114 4360.4 82.8331 4359.51 85.1768C4358.63 87.5206 4358.2 90.2798 4358.2 93.4545ZM4441.9 81.8849L4431.35 83.0355C4431.06 81.9702 4430.53 80.9688 4429.79 80.0312C4429.06 79.0938 4428.08 78.3374 4426.85 77.7621C4425.61 77.1868 4424.1 76.8991 4422.31 76.8991C4419.9 76.8991 4417.88 77.4212 4416.24 78.4652C4414.62 79.5092 4413.82 80.8622 4413.84 82.5241C4413.82 83.9517 4414.34 85.1129 4415.41 86.0078C4416.49 86.9027 4418.28 87.6378 4420.78 88.2131L4429.15 90.0028C4433.79 91.0043 4437.25 92.5916 4439.5 94.7649C4441.78 96.9382 4442.93 99.7827 4442.96 103.298C4442.93 106.388 4442.03 109.115 4440.24 111.48C4438.47 113.824 4436.01 115.656 4432.86 116.977C4429.7 118.298 4426.08 118.959 4421.99 118.959C4415.98 118.959 4411.15 117.702 4407.48 115.188C4403.82 112.652 4401.63 109.126 4400.93 104.609L4412.21 103.522C4412.72 105.738 4413.81 107.411 4415.47 108.54C4417.13 109.669 4419.3 110.234 4421.96 110.234C4424.71 110.234 4426.91 109.669 4428.57 108.54C4430.26 107.411 4431.1 106.015 4431.1 104.353C4431.1 102.947 4430.56 101.786 4429.47 100.869C4428.4 99.9531 4426.74 99.25 4424.48 98.7599L4416.11 97.0021C4411.4 96.022 4407.92 94.3707 4405.66 92.0483C4403.4 89.7045 4402.28 86.7429 4402.3 83.1634C4402.28 80.1378 4403.1 77.517 4404.76 75.3011C4406.45 73.0639 4408.78 71.3381 4411.76 70.1236C4414.77 68.8878 4418.23 68.2699 4422.15 68.2699C4427.9 68.2699 4432.43 69.495 4435.73 71.9453C4439.06 74.3956 4441.11 77.7088 4441.9 81.8849ZM4474.23 118.959C4469.31 118.959 4465.06 117.936 4461.48 115.891C4457.92 113.824 4455.18 110.905 4453.26 107.134C4451.35 103.341 4450.39 98.8771 4450.39 93.7422C4450.39 88.6925 4451.35 84.2607 4453.26 80.4467C4455.2 76.6115 4457.91 73.6285 4461.38 71.4979C4464.85 69.3459 4468.93 68.2699 4473.62 68.2699C4476.65 68.2699 4479.5 68.7599 4482.19 69.7401C4484.89 70.6989 4487.28 72.1903 4489.35 74.2145C4491.43 76.2386 4493.08 78.8168 4494.27 81.9489C4495.46 85.0597 4496.06 88.767 4496.06 93.071V96.6186H4455.82V88.8203H4484.97C4484.95 86.6044 4484.47 84.6335 4483.53 82.9077C4482.59 81.1605 4481.28 79.7862 4479.6 78.7848C4477.94 77.7834 4476 77.2827 4473.78 77.2827C4471.42 77.2827 4469.34 77.858 4467.55 79.0085C4465.76 80.1378 4464.36 81.6293 4463.36 83.483C4462.38 85.3153 4461.88 87.3288 4461.86 89.5234V96.331C4461.86 99.1861 4462.38 101.636 4463.43 103.682C4464.47 105.706 4465.93 107.261 4467.81 108.348C4469.68 109.413 4471.87 109.946 4474.39 109.946C4476.07 109.946 4477.6 109.712 4478.96 109.243C4480.32 108.753 4481.51 108.039 4482.51 107.102C4483.51 106.164 4484.26 105.003 4484.78 103.618L4495.58 104.832C4494.9 107.687 4493.6 110.18 4491.68 112.311C4489.78 114.42 4487.35 116.061 4484.39 117.233C4481.43 118.384 4478.04 118.959 4474.23 118.959Z" fill="white"/>
<path d="M337 1091.6C333.79 1091.6 331.055 1090.72 328.797 1088.98C326.538 1087.21 324.813 1084.66 323.619 1081.33C322.426 1077.97 321.83 1073.93 321.83 1069.18C321.83 1064.47 322.426 1060.44 323.619 1057.1C324.827 1053.75 326.56 1051.19 328.818 1049.43C331.091 1047.65 333.818 1046.77 337 1046.77C340.182 1046.77 342.902 1047.65 345.161 1049.43C347.433 1051.19 349.166 1053.75 350.359 1057.1C351.567 1060.44 352.17 1064.47 352.17 1069.18C352.17 1073.93 351.574 1077.97 350.381 1081.33C349.188 1084.66 347.462 1087.21 345.203 1088.98C342.945 1090.72 340.21 1091.6 337 1091.6ZM337 1086.91C340.182 1086.91 342.653 1085.37 344.415 1082.31C346.176 1079.24 347.057 1074.86 347.057 1069.18C347.057 1065.4 346.652 1062.19 345.842 1059.53C345.047 1056.87 343.896 1054.85 342.391 1053.46C340.899 1052.07 339.102 1051.37 337 1051.37C333.847 1051.37 331.382 1052.92 329.607 1056.04C327.831 1059.13 326.943 1063.51 326.943 1069.18C326.943 1072.96 327.341 1076.17 328.136 1078.81C328.932 1081.45 330.075 1083.46 331.567 1084.84C333.072 1086.22 334.884 1086.91 337 1086.91Z" fill="#767382"/>
<path d="M1929 1091.6C1925.79 1091.6 1923.06 1090.72 1920.8 1088.98C1918.54 1087.21 1916.81 1084.66 1915.62 1081.33C1914.43 1077.97 1913.83 1073.93 1913.83 1069.18C1913.83 1064.47 1914.43 1060.44 1915.62 1057.1C1916.83 1053.75 1918.56 1051.19 1920.82 1049.43C1923.09 1047.65 1925.82 1046.77 1929 1046.77C1932.18 1046.77 1934.9 1047.65 1937.16 1049.43C1939.43 1051.19 1941.17 1053.75 1942.36 1057.1C1943.57 1060.44 1944.17 1064.47 1944.17 1069.18C1944.17 1073.93 1943.57 1077.97 1942.38 1081.33C1941.19 1084.66 1939.46 1087.21 1937.2 1088.98C1934.94 1090.72 1932.21 1091.6 1929 1091.6ZM1929 1086.91C1932.18 1086.91 1934.65 1085.37 1936.41 1082.31C1938.18 1079.24 1939.06 1074.86 1939.06 1069.18C1939.06 1065.4 1938.65 1062.19 1937.84 1059.53C1937.05 1056.87 1935.9 1054.85 1934.39 1053.46C1932.9 1052.07 1931.1 1051.37 1929 1051.37C1925.85 1051.37 1923.38 1052.92 1921.61 1056.04C1919.83 1059.13 1918.94 1063.51 1918.94 1069.18C1918.94 1072.96 1919.34 1076.17 1920.14 1078.81C1920.93 1081.45 1922.08 1083.46 1923.57 1084.84C1925.07 1086.22 1926.88 1086.91 1929 1086.91Z" fill="#767382"/>
<path d="M3586 1091.6C3582.79 1091.6 3580.06 1090.72 3577.8 1088.98C3575.54 1087.21 3573.81 1084.66 3572.62 1081.33C3571.43 1077.97 3570.83 1073.93 3570.83 1069.18C3570.83 1064.47 3571.43 1060.44 3572.62 1057.1C3573.83 1053.75 3575.56 1051.19 3577.82 1049.43C3580.09 1047.65 3582.82 1046.77 3586 1046.77C3589.18 1046.77 3591.9 1047.65 3594.16 1049.43C3596.43 1051.19 3598.17 1053.75 3599.36 1057.1C3600.57 1060.44 3601.17 1064.47 3601.17 1069.18C3601.17 1073.93 3600.57 1077.97 3599.38 1081.33C3598.19 1084.66 3596.46 1087.21 3594.2 1088.98C3591.94 1090.72 3589.21 1091.6 3586 1091.6ZM3586 1086.91C3589.18 1086.91 3591.65 1085.37 3593.41 1082.31C3595.18 1079.24 3596.06 1074.86 3596.06 1069.18C3596.06 1065.4 3595.65 1062.19 3594.84 1059.53C3594.05 1056.87 3592.9 1054.85 3591.39 1053.46C3589.9 1052.07 3588.1 1051.37 3586 1051.37C3582.85 1051.37 3580.38 1052.92 3578.61 1056.04C3576.83 1059.13 3575.94 1063.51 3575.94 1069.18C3575.94 1072.96 3576.34 1076.17 3577.14 1078.81C3577.93 1081.45 3579.08 1083.46 3580.57 1084.84C3582.07 1086.22 3583.88 1086.91 3586 1086.91Z" fill="#767382"/>
<path d="M1258 387.597C1254.79 387.597 1252.06 386.723 1249.8 384.976C1247.54 383.214 1245.81 380.665 1244.62 377.327C1243.43 373.974 1242.83 369.926 1242.83 365.182C1242.83 360.466 1243.43 356.439 1244.62 353.101C1245.83 349.749 1247.56 347.192 1249.82 345.43C1252.09 343.655 1254.82 342.767 1258 342.767C1261.18 342.767 1263.9 343.655 1266.16 345.43C1268.43 347.192 1270.17 349.749 1271.36 353.101C1272.57 356.439 1273.17 360.466 1273.17 365.182C1273.17 369.926 1272.57 373.974 1271.38 377.327C1270.19 380.665 1268.46 383.214 1266.2 384.976C1263.94 386.723 1261.21 387.597 1258 387.597ZM1258 382.909C1261.18 382.909 1263.65 381.375 1265.41 378.307C1267.18 375.239 1268.06 370.864 1268.06 365.182C1268.06 361.403 1267.65 358.186 1266.84 355.53C1266.05 352.874 1264.9 350.849 1263.39 349.457C1261.9 348.065 1260.1 347.369 1258 347.369C1254.85 347.369 1252.38 348.925 1250.61 352.036C1248.83 355.132 1247.94 359.514 1247.94 365.182C1247.94 368.96 1248.34 372.17 1249.14 374.812C1249.93 377.455 1251.08 379.464 1252.57 380.842C1254.07 382.22 1255.88 382.909 1258 382.909Z" fill="#767382"/>
<path d="M2850 387.597C2846.79 387.597 2844.06 386.723 2841.8 384.976C2839.54 383.214 2837.81 380.665 2836.62 377.327C2835.43 373.974 2834.83 369.926 2834.83 365.182C2834.83 360.466 2835.43 356.439 2836.62 353.101C2837.83 349.749 2839.56 347.192 2841.82 345.43C2844.09 343.655 2846.82 342.767 2850 342.767C2853.18 342.767 2855.9 343.655 2858.16 345.43C2860.43 347.192 2862.17 349.749 2863.36 353.101C2864.57 356.439 2865.17 360.466 2865.17 365.182C2865.17 369.926 2864.57 373.974 2863.38 377.327C2862.19 380.665 2860.46 383.214 2858.2 384.976C2855.94 386.723 2853.21 387.597 2850 387.597ZM2850 382.909C2853.18 382.909 2855.65 381.375 2857.41 378.307C2859.18 375.239 2860.06 370.864 2860.06 365.182C2860.06 361.403 2859.65 358.186 2858.84 355.53C2858.05 352.874 2856.9 350.849 2855.39 349.457C2853.9 348.065 2852.1 347.369 2850 347.369C2846.85 347.369 2844.38 348.925 2842.61 352.036C2840.83 355.132 2839.94 359.514 2839.94 365.182C2839.94 368.96 2840.34 372.17 2841.14 374.812C2841.93 377.455 2843.08 379.464 2844.57 380.842C2846.07 382.22 2847.88 382.909 2850 382.909Z" fill="#767382"/>
<path d="M4507 387.597C4503.79 387.597 4501.06 386.723 4498.8 384.976C4496.54 383.214 4494.81 380.665 4493.62 377.327C4492.43 373.974 4491.83 369.926 4491.83 365.182C4491.83 360.466 4492.43 356.439 4493.62 353.101C4494.83 349.749 4496.56 347.192 4498.82 345.43C4501.09 343.655 4503.82 342.767 4507 342.767C4510.18 342.767 4512.9 343.655 4515.16 345.43C4517.43 347.192 4519.17 349.749 4520.36 353.101C4521.57 356.439 4522.17 360.466 4522.17 365.182C4522.17 369.926 4521.57 373.974 4520.38 377.327C4519.19 380.665 4517.46 383.214 4515.2 384.976C4512.94 386.723 4510.21 387.597 4507 387.597ZM4507 382.909C4510.18 382.909 4512.65 381.375 4514.41 378.307C4516.18 375.239 4517.06 370.864 4517.06 365.182C4517.06 361.403 4516.65 358.186 4515.84 355.53C4515.05 352.874 4513.9 350.849 4512.39 349.457C4510.9 348.065 4509.1 347.369 4507 347.369C4503.85 347.369 4501.38 348.925 4499.61 352.036C4497.83 355.132 4496.94 359.514 4496.94 365.182C4496.94 368.96 4497.34 372.17 4498.14 374.812C4498.93 377.455 4500.08 379.464 4501.57 380.842C4503.07 382.22 4504.88 382.909 4507 382.909Z" fill="#767382"/>
<line x1="523.863" y1="1129.23" x2="1295.86" y2="534.228" stroke="#767382" stroke-width="7"/>
<line x1="523.863" y1="1129.23" x2="1295.86" y2="534.228" stroke="url(#paint0_linear_107_30)" stroke-width="7"/>
<line x1="2115.86" y1="1129.23" x2="2887.86" y2="534.228" stroke="#767382" stroke-width="7" stroke-dasharray="30 30"/>
<line x1="2115.86" y1="1129.23" x2="2887.86" y2="534.228" stroke="url(#paint1_linear_107_30)" stroke-width="7" stroke-dasharray="30 30"/>
<line x1="3772.86" y1="1129.23" x2="4544.86" y2="534.228" stroke="#767382" stroke-width="7" stroke-dasharray="14 14"/>
<line x1="3772.86" y1="1129.23" x2="4544.86" y2="534.228" stroke="url(#paint2_linear_107_30)" stroke-width="7" stroke-dasharray="14 14"/>
</g>
<defs>
<filter id="filter0_d_107_30" x="-4" y="0" width="5083" height="1378" filterUnits="userSpaceOnUse" color-interpolation-filters="sRGB">
<feFlood flood-opacity="0" result="BackgroundImageFix"/>
<feColorMatrix in="SourceAlpha" type="matrix" values="0 0 0 0 0 0 0 0 0 0 0 0 0 0 0 0 0 0 127 0" result="hardAlpha"/>
<feOffset dy="4"/>
<feGaussianBlur stdDeviation="2"/>
<feComposite in2="hardAlpha" operator="out"/>
<feColorMatrix type="matrix" values="0 0 0 0 0 0 0 0 0 0 0 0 0 0 0 0 0 0 0.25 0"/>
<feBlend mode="normal" in2="BackgroundImageFix" result="effect1_dropShadow_107_30"/>
<feBlend mode="normal" in="SourceGraphic" in2="effect1_dropShadow_107_30" result="shape"/>
</filter>
<linearGradient id="paint0_linear_107_30" x1="526" y1="1132" x2="1298" y2="537" gradientUnits="userSpaceOnUse">
<stop stop-color="#10CC55"/>
<stop offset="1" stop-color="#767382"/>
</linearGradient>
<linearGradient id="paint1_linear_107_30" x1="2118" y1="1132" x2="2890" y2="537" gradientUnits="userSpaceOnUse">
<stop stop-color="#10CC55"/>
<stop offset="1" stop-color="#767382"/>
</linearGradient>
<linearGradient id="paint2_linear_107_30" x1="3775" y1="1132" x2="4547" y2="537" gradientUnits="userSpaceOnUse">
<stop stop-color="#10CC55"/>
<stop offset="1" stop-color="#767382"/>
</linearGradient>
</defs>
</svg>
